<?xml version="1.0" encoding="utf-8"?>
<!-- Generator: Adobe Illustrator 23.0.3, SVG Export Plug-In . SVG Version: 6.00 Build 0)  -->
<svg version="1.1"
	 id="svg2" xmlns:cc="http://creativecommons.org/ns#" xmlns:dc="http://purl.org/dc/elements/1.1/" xmlns:inkscape="http://www.inkscape.org/namespaces/inkscape" xmlns:rdf="http://www.w3.org/1999/02/22-rdf-syntax-ns#" xmlns:sodipodi="http://sodipodi.sourceforge.net/DTD/sodipodi-0.dtd" xmlns:svg="http://www.w3.org/2000/svg"
	 xmlns="http://www.w3.org/2000/svg" xmlns:xlink="http://www.w3.org/1999/xlink" x="0px" y="0px" viewBox="0 0 354.3 134.9"
	 style="enable-background:new 0 0 354.3 134.9;" xml:space="preserve">
<style type="text/css">
	.st0{clip-path:url(#SVGID_2_);}
	.st1{fill:#728D96;}
</style>
<sodipodi:namedview  bordercolor="#666666" borderopacity="1" fit-margin-bottom="0" fit-margin-left="0" fit-margin-right="0" fit-margin-top="0" gridtolerance="10" guidetolerance="10" id="namedview18" inkscape:current-layer="svg2" inkscape:cx="372.04672" inkscape:cy="-197.58228" inkscape:pageopacity="0" inkscape:pageshadow="2" inkscape:window-height="893" inkscape:window-maximized="0" inkscape:window-width="1536" inkscape:window-x="0" inkscape:window-y="0" inkscape:zoom="1.0262623" objecttolerance="10" pagecolor="#ffffff" showgrid="false">
	</sodipodi:namedview>
<g id="g4154" transform="matrix(1.25,0,0,-1.25,-346.88313,461.56025)" inkscape:label="Sage_logo_bright_green_RGB">
	<g id="g4156">
		<g>
			<g>
				<defs>
					<rect id="SVGID_1_" x="-236.8" y="-167.4" width="1315.5" height="930.1"/>
				</defs>
				<clipPath id="SVGID_2_">
					<use xlink:href="#SVGID_1_"  style="overflow:visible;"/>
				</clipPath>
				<g id="g4158" class="st0">
					<g id="g4164" transform="translate(505.77,335.8162)">
						<path id="path4166" inkscape:connector-curvature="0" class="st1" d="M0,0c0,13.1,10,19.5,20.7,19.5C31.5,19.5,41.1,13,41.1,0
							H0z M18.8,33.4c-21.9,0-36.2-15-36.2-39.8C-17.4-37.1,4.5-46,20.2-46C40-46,51.3-32.6,51.3-32.6L41.2-22.5
							c-5.4-4.8-11.6-7.7-20.8-7.7C8.2-30.2,0-23.1,0-13.3h54.4C54.4-13.3,63.9,33.4,18.8,33.4"/>
					</g>
					<g id="g4168" transform="translate(324.2685,337.1414)">
						<path id="path4170" inkscape:connector-curvature="0" class="st1" d="M0,0c-7,0.9-27.1,0.1-27.1,9.3c0,5.4,8.4,8.4,16.2,8.4
							c12.4,0,20.7-5,23-6.6l10.5,10.5C19.5,24,8,32.1-10.9,32.1c-17.2,0-32.7-9-32.7-23.4c0-22.1,26.7-22.1,37.8-23.2
							C1-15.2,7.1-15.6,7.1-22.2c0-6.2-9.4-9.6-16.7-9.6c-11.9,0-19,3.9-26,10.2l-11.3-11.3c10.3-10,23.4-14.4,36.3-14.4
							c20,0,34.5,8.8,34.5,26.5C24.1-9,16.2-2,0,0"/>
					</g>
					<g id="g4172" transform="translate(399.2592,319.1511)">
						<path id="path4174" inkscape:connector-curvature="0" class="st1" d="M0,0c0-14.7-10.5-13.9-19.8-13.9
							c-9.5,0-15.5,2.5-15.5,9.1c0,6.1,4.9,8.2,15.1,8.2H0V0z M-17.5,50.1c-17.4,0-28.6-8.8-30.7-10.6L-37.7,29
							c2.1,1.7,9.2,6.6,20.3,6.6c13.3,0,17.3-5.3,17.3-11.3v-7.5h-23.7c-8.8,0-26-2.2-26-21.5c0-14.2,8.1-24.6,27.5-24.6
							c9.7,0,17.1,3.2,22.2,9.2v-7.7h17.2v50.9C17.1,40.9,6.2,50.1-17.5,50.1"/>
					</g>
					<g id="g4176" transform="translate(469.4301,329.5994)">
						<path id="path4178" inkscape:connector-curvature="0" class="st1" d="M0,0c0-5.9-0.1-10.3-0.6-12.5c-1-5-6.6-11.5-16.8-11.5
							C-20-24-33-22.5-34.5-11.2C-34.8-8.9-35-5.9-35,0c0,8.8,0.4,11.6,0.8,13.9c0.9,4.4,6.7,11,16.8,11c12.3,0,16.3-8.4,16.9-11.7
							C-0.1,10.9,0,5.9,0,0 M0,38v-8.5c-5.9,6.8-12.8,10.2-22.4,10.2c-16.3,0-24.7-9.1-27.5-18.9C-51,17.2-51.4,10.2-51.4,0
							c0-9.6,0.1-18.4,3.4-25.1c4.7-9.4,16-14.7,25.5-14.7c9.2,0,17,3.6,22.4,9.7v-4.8c0-5.6-1.9-9.3-5.5-12.2s-8.1-4.7-14.4-4.7
							c-5.7,0-11.1,3.1-14.2,5.3L-45.7-58c7.5-6.1,16.5-10.2,26.1-10.3c10.2-0.1,18.5,3,25.7,8.7c6.9,5.4,11.3,15.7,11.3,26.5V38
							C17.4,38,0,38,0,38z"/>
					</g>
				</g>
			</g>
		</g>
	</g>
</g>
</svg>
