<?xml version="1.0"?>
<svg xmlns="http://www.w3.org/2000/svg" xmlns:xlink="http://www.w3.org/1999/xlink" xmlns:svgjs="http://svgjs.com/svgjs" version="1.1" width="512" height="512" x="0" y="0" viewBox="0 0 512 512" style="enable-background:new 0 0 512 512" xml:space="preserve" class=""><g><g xmlns="http://www.w3.org/2000/svg"><path d="m216 156.037 80 53.333v-169.37h76c11.028 0 20 8.972 20 20v136.019h40v-136.019c0-33.084-26.916-60-60-60h-312c-33.084 0-60 26.916-60 60v312c0 33.084 26.916 60 60 60h136.019v-40h-136.019c-11.028 0-20-8.972-20-20v-312c0-11.028 8.972-20 20-20h76v169.37zm40-21.407-40-26.667-40 26.667v-94.63h80z" fill="#15ABEA" data-original="#000000" style="" class=""/><path d="m417.857 317.858-65.857 65.858-25.857-25.858-28.286 28.284 54.143 54.142 94.143-94.142z" fill="#15ABEA" data-original="#000000" style="" class=""/><path d="m372 232c-77.196 0-140 62.804-140 140s62.804 140 140 140 140-62.804 140-140-62.804-140-140-140zm0 240c-55.141 0-100-44.86-100-100s44.859-100 100-100 100 44.86 100 100-44.859 100-100 100z" fill="#15ABEA" data-original="#000000" style="" class=""/></g><style id="stylebot-css-*">#report-abuse {
  display: none !important;
}

</style></g></svg>
