<?xml version="1.0" encoding="utf-8"?>
<!-- Generator: Adobe Illustrator 24.2.1, SVG Export Plug-In . SVG Version: 6.00 Build 0)  -->
<svg version="1.1" id="Layer_1" xmlns:svgjs="http://svgjs.com/svgjs"
	 xmlns="http://www.w3.org/2000/svg" xmlns:xlink="http://www.w3.org/1999/xlink" x="0px" y="0px" viewBox="0 0 512 512"
	 style="enable-background:new 0 0 512 512;" xml:space="preserve">
<style type="text/css">
	.st0{fill:#15ABEA;}
</style>
<g>
	<path class="st0" d="M512.8,379.3l-18.4-14.2c-2.4-1.8-13.4-10.1-28.8-18c2.9-2.4,5.6-5,8.2-7.8c28.6-31.3,35.2-81.6,35.5-83.8
		l2.9-23.1l-22.2,0.6c2.7-5.4,5-11.3,6.5-17.5c10.3-41.3-8-89.2-8.8-91.2l-8.4-21.5l-20.1,11.4c-5.7,3.2-56.3,32.9-66.9,75.6
		c-6.8,27,2,53.8,10.1,70.8c-2.7,2.3-5.3,4.7-7.8,7.3c-12.1,13.3-18.5,29.4-21.8,44.3c-9,31.8-30.6,54.9-64.4,68.6
		c-20.9,8.5-40.7,10.9-49.1,11.5c-1.1-0.1-2.2-0.1-3.3-0.1c-1,0-2.1,0-3.1,0.1c-19.4-1.5-95.5-11.9-113.8-82.5l-0.7,0.2
		c-3.4-14.2-9.6-29.4-21-41.9c-2.2-2.4-4.5-4.6-7-6.7c8.2-17,17.2-44.1,10.4-71.5c-10.7-42.7-61.2-72.4-66.9-75.6l-20.1-11.4
		l-8.4,21.5c-0.8,2-19.1,49.9-8.8,91.2c1.6,6.2,3.8,12,6.5,17.5l-22.4-0.6l2.9,23c0.3,2.1,6.8,52.5,35.1,83.7c2.6,2.9,5.4,5.5,8.3,8
		c-15.4,7.8-26.4,16.1-28.7,17.9L0,379.3l16.8,16c1.6,1.5,38.3,36.1,80,42.7c-7.7,13.3-12,24.3-12.9,26.9l-8.1,21.8l22.7,4.8
		c1.2,0.2,17.1,3.5,37.6,3.5c16.5,0,36.1-2.1,53.5-9.5c4.6-2,8.9-4.3,12.9-6.9c9.8,19.8,30.2,33.5,53.7,33.5
		c23.6,0,44.1-13.8,53.9-33.7c4.1,2.7,8.5,5.1,13.2,7.2c17.4,7.4,36.9,9.5,53.5,9.5c20.6,0,36.5-3.2,37.6-3.5l22.7-4.8L429,465
		c-1-2.6-5.3-13.7-12.9-26.9c41.6-6.6,78.4-41.2,80-42.7L512.8,379.3z M87.9,294.8c8.6,9.5,12.3,23.3,13.7,35.3
		c-11-2.7-24.2-7.8-33.2-17.6c-8.7-9.6-14.8-23.4-18.9-35.8C63.7,279.8,79.3,285.4,87.9,294.8z M424.2,294.9
		c2.1-2.3,4.7-4.4,7.6-6.3l6.8-3.6c0.2-0.1,0.8-0.4,1.7-1c7.3-3.3,15.5-5.7,23.3-7.4c-3.9,12-10,25.8-19.1,35.8
		c-9.2,10-22.8,15.2-34.1,17.8c0.3-2.3,0.6-4.7,1.1-7.2c0.3-1,0.6-2.1,0.9-3.2l-0.2,0C414.1,311,417.7,301.9,424.2,294.9z
		 M431.1,199.5c3.2-12.6,14.9-25.4,26.3-35.1c2.4,13.1,3.6,28.6,0.4,41.5c-3.3,13.4-13,24.4-21.8,32.1
		C431.4,226.6,427.9,212.2,431.1,199.5z M55.9,164.4c11.5,9.7,23.2,22.4,26.3,35.1c3.2,12.7-0.3,27.1-4.9,38.5
		c-8.8-7.7-18.5-18.7-21.8-32.1C52.2,193,53.4,177.6,55.9,164.4z M107.4,372.3c12.7,1.9,24.4,10.3,33.1,18.7
		c-0.9,0.5-1.9,1.1-2.8,1.6c-9.9,4.4-22.2,7.9-34.3,6.1c-13-2-26.7-8.9-37.8-16C78.7,376,94.6,370.3,107.4,372.3z M173.8,448.7
		c-12.1,5.2-27.4,6.5-40.6,6.3c6.4-10.5,14.7-21.3,24.2-27.6c2.8-1.3,5.5-2.7,7.9-4.1c11.5-4.2,25.1-3.2,36.4-0.7
		C195.5,432.4,186.3,443.4,173.8,448.7z M256.2,472.1c-11,0-20-9-20-20c0-10.1,7.6-18.5,17.3-19.8c0.9,0.1,1.6,0.1,2.2,0.1v0
		c0.1,0,0.3,0,0.7,0c0.4,0,0.6,0,0.7,0v0c0.5,0,1.1,0,1.8-0.1c9.7,1.3,17.2,9.7,17.2,19.8C276.1,463.1,267.2,472.1,256.2,472.1z
		 M339,448.7c-12.5-5.3-21.7-16.3-27.8-26c10.8-2.4,24.4-3.7,36.4,0.7c2.5,1.3,5.1,2.7,8,4.1c9.5,6.3,17.8,17.1,24.2,27.6
		C366.5,455.3,351.2,454,339,448.7z M409.4,398.7c-12.1,1.8-24.4-1.7-34.3-6.1c-0.9-0.6-1.8-1.1-2.8-1.6
		c8.7-8.4,20.4-16.8,33.1-18.7c12.9-1.9,28.7,3.7,41.9,10.4C436.2,389.8,422.6,396.7,409.4,398.7z M237.2,308.3V203.6
		c-14.5,10-32,15.9-50.9,15.9v-39.9c27.5,0,49.9-22.4,49.9-49.9h39.9v0.2h1v178.5H237.2z M119.3,108.7L87.5,84.5
		c19.3-25.4,44.6-46.5,73-60.9c29.8-15.1,62-22.8,95.6-22.8c33.5,0,66.8,8,96.4,23.2c28.6,14.6,53.9,36,73.2,61.8l-32,23.9
		c-32.8-43.8-82.9-69-137.6-69C202,40.8,152.1,65.5,119.3,108.7z"/>
</g>
</svg>
