<?xml version="1.0" encoding="utf-8"?>
<!-- Generator: Adobe Illustrator 19.2.1, SVG Export Plug-In . SVG Version: 6.00 Build 0)  -->
<svg version="1.1" id="Capa_1" xmlns="http://www.w3.org/2000/svg" xmlns:xlink="http://www.w3.org/1999/xlink" x="0px" y="0px"
	 viewBox="0 0 512 512" style="enable-background:new 0 0 512 512;" xml:space="preserve">
<style type="text/css">
	.st0{fill:#222;}
</style>
<g>
	<g>
		<g>
			<path class="st0" d="M256,0C156.8,0,76.3,80.4,76.3,179.7c0,7.6,0.6,15,1.5,22.3c15.4,140.3,166.5,302.1,166.5,302.1
				c2.7,3,5.3,4.9,7.8,6.2l0.1,0.1l5,1.6l5-1.6l0.1-0.1c2.5-1.3,5.1-3.3,7.8-6.2c0,0,148.9-162,163.9-302.4
				c0.9-7.2,1.5-14.6,1.5-22.1C435.6,80.4,355.2,0,256,0z M256,295.2c-63.7,0-115.6-51.9-115.6-115.6S192.3,64.1,256,64.1
				S371.5,116,371.5,179.7S319.7,295.2,256,295.2z"/>
		</g>
	</g>
</g>
</svg>
