<?xml version="1.0" encoding="utf-8"?>
<!-- Generator: Adobe Illustrator 23.0.3, SVG Export Plug-In . SVG Version: 6.00 Build 0)  -->
<svg version="1.1" id="Layer_1" xmlns="http://www.w3.org/2000/svg" xmlns:xlink="http://www.w3.org/1999/xlink" x="0px" y="0px"
	 viewBox="0 0 286.7 293.8" style="enable-background:new 0 0 286.7 293.8;" xml:space="preserve">
<style type="text/css">
	.st0{fill:#CCCCCB;}
	.st1{fill:#DFF2F8;}
	.st2{fill:#ACD5DF;}
	.st3{fill:#94B8C1;}
	.st4{fill:#46C5E1;}
	.st5{fill:#3FB0C9;}
	.st6{fill:#FFFFFF;}
	.st7{fill:#2C3E48;}
	.st8{fill:#101129;}
	.st9{fill:#ECF2F0;}
	.st10{fill:#FBFCFC;}
	.st11{fill:#BCD9E2;}
	.st12{fill:#425B6A;}
	.st13{fill:#E8395A;}
	.st14{fill:#0A83B8;}
	.st15{fill:#333A65;}
</style>
<path class="st0" d="M134.4,293.8c-4,0-7.9-0.2-11.9-0.5c-0.8-0.2-1.6-0.8-1.5-1.8c0.2-0.8,0.8-1.6,1.8-1.5c6.4,0.7,13,0.7,19.4,0.3
	c1,0,1.6,0.7,1.8,1.5c0,1-0.7,1.6-1.5,1.8C139.9,293.8,137.1,293.8,134.4,293.8z M161.9,290.8c-0.8,0-1.5-0.5-1.6-1.3
	c-0.2-0.8,0.3-1.8,1.3-2c6.3-1.3,12.7-3.3,18.6-5.6c0.8-0.3,1.8,0.2,2.1,1s-0.2,1.8-1,2.1c-6.3,2.5-12.7,4.3-19.1,5.8
	C162.3,290.8,162.1,290.8,161.9,290.8z M103.1,290c-0.2,0-0.3,0-0.3,0c-6.4-1.6-12.8-3.8-18.9-6.3c-0.8-0.3-1.3-1.3-0.8-2.1
	c0.5-0.8,1.3-1.2,2.1-0.8c5.9,2.5,12.2,4.6,18.4,6.1c0.8,0.2,1.5,1.2,1.2,2C104.6,289.5,103.9,290,103.1,290z M198.7,276.6
	c-0.5,0-1.2-0.3-1.5-0.8c-0.5-0.8-0.2-1.8,0.7-2.3c1.3-0.8,2.6-1.5,4-2.3c4.3-2.6,8.2-5.6,12.2-8.6c0.7-0.5,1.8-0.5,2.3,0.3
	c0.5,0.8,0.5,1.8-0.3,2.3c-4,3.1-8.1,6.1-12.5,8.9c-1.3,0.8-2.6,1.6-4.1,2.5C199.3,276.5,199,276.6,198.7,276.6z M66.9,274.8
	c-0.3,0-0.7,0-0.8-0.2c-5.8-3.5-11.2-7.4-16.1-11.7c-0.7-0.7-0.8-1.6-0.2-2.3c0.7-0.7,1.6-0.8,2.3-0.2c4.9,4.1,10.2,8.1,15.8,11.4
	c0.8,0.5,1,1.5,0.5,2.3C68,274.5,67.4,274.8,66.9,274.8z M229.5,251.9c-0.3,0-0.8-0.2-1.2-0.5c-0.7-0.7-0.7-1.6-0.2-2.3
	c4.4-4.8,8.4-9.9,12-15.3c0.5-0.8,1.5-1,2.3-0.5c0.8,0.5,1,1.5,0.5,2.3c-3.6,5.6-7.9,10.9-12.4,15.6
	C230.3,251.8,229.8,251.9,229.5,251.9z M36.9,249.3c-0.5,0-1-0.2-1.3-0.5c-4.3-4.9-8.4-10.4-11.9-16.1c0,0,0-0.2-0.2-0.2
	c0,0,0-0.2-0.2-0.2c-3.5-5.6-6.6-11.7-9.2-17.8c-0.3-0.8,0-1.8,0.8-2.1c0.8-0.3,1.8,0,2.1,0.8c2.6,5.9,5.6,11.7,9.1,17.3
	c0,0,0,0.2,0.2,0.2c0,0,0,0.2,0.2,0.2c3.5,5.4,7.4,10.7,11.5,15.6c0.7,0.7,0.5,1.6-0.2,2.3C37.6,249.1,37.2,249.3,36.9,249.3z
	 M251.2,219.1c-0.2,0-0.5,0-0.7-0.2c-0.8-0.3-1.2-1.3-0.8-2.1c2.8-5.9,5.1-12,6.9-18.3c0.3-0.8,1.2-1.3,2-1.2c0.8,0.3,1.3,1.2,1.2,2
	c-1.8,6.4-4.3,12.7-7.1,18.8C252.5,218.8,251.9,219.1,251.2,219.1z M9.4,196.9c-0.7,0-1.5-0.5-1.6-1.3c-1.6-6.4-2.8-13-3.5-19.8
	c-0.2-0.8,0.5-1.6,1.5-1.8c1-0.2,1.6,0.5,1.8,1.5c0.7,6.4,1.8,12.8,3.5,19.3c0.2,0.8-0.3,1.8-1.2,2C9.6,196.9,9.6,196.9,9.4,196.9z
	 M262.2,181.4h-0.2c-0.8-0.2-1.5-1-1.5-1.8c0.7-5.4,1.2-11,1.2-16.5c0-1,0-2,0-3c0-1,0.7-1.6,1.6-1.6l0,0c0.8,0,1.6,0.7,1.6,1.6
	c0,1,0,2,0,3c0,5.6-0.3,11.4-1.2,17C263.7,180.8,263.1,181.4,262.2,181.4z M5.4,157.9L5.4,157.9c-1,0-1.6-0.8-1.6-1.8
	c0.3-6.6,1.3-13.3,2.6-19.8c0.2-0.8,1-1.5,2-1.3c0.8,0.2,1.5,1,1.3,2c-1.3,6.4-2.1,12.8-2.5,19.3C7.1,157,6.3,157.9,5.4,157.9z
	 M261.2,142.1c-0.8,0-1.5-0.5-1.6-1.3c-1.2-6.4-2.8-12.7-4.9-18.9c-0.3-0.8,0.2-1.8,1-2.1c0.8-0.3,1.8,0.2,2.1,1
	c2.1,6.3,3.8,12.8,5.1,19.4c0.2,0.8-0.5,1.8-1.3,2C261.6,142.1,261.4,142.1,261.2,142.1z M13.5,119.3c-0.2,0-0.3,0-0.7-0.2
	c-0.8-0.3-1.3-1.3-1-2.1c2.3-6.3,5.1-12.4,8.4-18.1c0.5-0.8,1.5-1.2,2.3-0.7c0.8,0.5,1.2,1.5,0.7,2.3c-3.1,5.6-5.9,11.5-8.2,17.6
	C14.8,118.8,14.2,119.3,13.5,119.3z M248.6,104.8c-0.7,0-1.2-0.3-1.5-0.8c-1.5-2.8-3.1-5.6-4.8-8.2c-1.8-2.8-3.6-5.6-5.6-8.2
	c-0.5-0.7-0.3-1.8,0.3-2.3c0.7-0.5,1.8-0.3,2.3,0.3c2,2.6,4,5.6,5.8,8.4c1.6,2.8,3.3,5.6,4.9,8.6c0.5,0.8,0.2,1.8-0.7,2.3
	C249.1,104.7,248.7,104.8,248.6,104.8z M32.9,84.9c-0.3,0-0.7-0.2-1-0.3c-0.7-0.5-0.8-1.6-0.3-2.3C35.7,77,40.4,72,45.1,67.6
	c0.7-0.7,1.6-0.7,2.3,0.2c0.7,0.7,0.7,1.6-0.2,2.3c-4.8,4.4-9.2,9.2-13.2,14.3C33.9,84.7,33.4,84.9,32.9,84.9z M225.2,73
	c-0.5,0-0.8-0.2-1.2-0.5c-4.6-4.6-9.6-8.9-14.8-12.7c-0.7-0.5-0.8-1.5-0.3-2.3c0.5-0.7,1.6-0.8,2.3-0.3c5.4,4,10.5,8.2,15.2,13
	c0.7,0.7,0.7,1.6,0,2.3C226,73,225.5,73,225.2,73z M61.8,58c-0.5,0-1-0.3-1.3-0.7c-0.5-0.8-0.3-1.8,0.5-2.3c1.3-1,2.8-1.8,4.3-2.8
	c4.3-2.6,8.6-5.1,13-7.2c0.8-0.3,1.8,0,2.1,0.8c0.3,0.8,0,1.8-0.8,2.1c-4.3,2.1-8.6,4.4-12.7,7.1c-1.5,0.8-2.8,1.8-4.1,2.6
	C62.3,58,62.1,58,61.8,58z M193.2,50c-0.3,0-0.5,0-0.8-0.2c-5.8-3-11.9-5.4-18-7.6c-0.8-0.3-1.3-1.2-1-2.1c0.3-0.8,1.2-1.3,2.1-1
	c6.3,2.1,12.5,4.8,18.4,7.7c0.8,0.5,1.2,1.5,0.7,2.1C194.4,49.6,193.9,50,193.2,50z M97.2,41.1c-0.7,0-1.3-0.5-1.6-1.2
	c-0.3-0.8,0.2-1.8,1.2-2c6.4-2,13-3.3,19.6-4.3c0.8-0.2,1.8,0.5,1.8,1.5c0.2,0.8-0.5,1.8-1.5,1.8c-6.4,0.8-12.8,2.3-19.1,4.1
	C97.5,41.1,97.4,41.1,97.2,41.1z M156,37.6c-0.2,0-0.2,0-0.3,0c-6.4-1.2-12.8-1.6-19.4-1.8c-1,0-1.6-0.8-1.6-1.6
	c0-1,0.7-1.6,1.6-1.6c6.6,0.2,13.3,0.7,19.9,1.8c0.8,0.2,1.5,1,1.3,2C157.5,37,156.7,37.6,156,37.6z"/>
<path class="st1" d="M59.7,233l-21.4,21.4c-3.9,3.9-10.2,3.9-14,0L2.9,233c-3.9-3.9-3.9-10.2,0-14l21.4-21.4c3.9-3.9,10.2-3.9,14,0
	L59.7,219C63.7,222.8,63.7,229,59.7,233z"/>
<path class="st1" d="M279.8,152.5L167.4,264.9c-9.2,9.2-24,9.2-33.2,0L21.7,152.5c-9.2-9.2-9.2-24,0-33.2L134.2,6.9
	c9.2-9.2,24-9.2,33.2,0l112.4,112.4C289,128.4,289,143.3,279.8,152.5z"/>
<g>
	<path class="st2" d="M234.3,96.3l2.7-9.5c0.1-0.5-0.1-0.9-0.5-1.1L231,83c0-2.2-0.2-4.3-0.7-6.3l4.8-3.8c0.4-0.3,0.5-0.8,0.2-1.2
		l-4.8-8.7c-0.2-0.4-0.7-0.6-1.2-0.4l-5.8,2c-1.5-1.5-3.2-2.9-5-4l0.7-6.1c0.1-0.5-0.2-0.9-0.7-1l-9.5-2.7c-0.5-0.1-0.9,0.1-1.1,0.5
		l-2.6,5.5c-2.2,0-4.3,0.2-6.3,0.7l-3.8-4.8c-0.3-0.4-0.8-0.5-1.2-0.2l-8.7,4.8c-0.4,0.2-0.6,0.7-0.4,1.2l2,5.8
		c-1.5,1.5-2.9,3.2-4,5l-6.1-0.7c-0.5-0.1-0.9,0.2-1,0.7l-2.7,9.5c-0.1,0.5,0.1,0.9,0.5,1.1l5.5,2.6c0,2.2,0.2,4.3,0.7,6.3l-4.8,3.8
		c-0.4,0.3-0.5,0.8-0.2,1.2l4.8,8.7c0.2,0.4,0.7,0.6,1.2,0.4l5.8-2c1.5,1.5,3.2,2.9,5,4l-0.7,6.1c-0.1,0.5,0.2,0.9,0.7,1l9.5,2.7
		c0.5,0.1,0.9-0.1,1.1-0.5l2.6-5.5c2.2,0,4.3-0.2,6.3-0.7l3.8,4.8c0.3,0.4,0.8,0.5,1.2,0.2l8.7-4.8c0.4-0.2,0.6-0.7,0.4-1.2l-2-5.8
		c1.5-1.5,2.9-3.2,4-5l6.1,0.7C233.7,97,234.2,96.8,234.3,96.3L234.3,96.3z M201.6,94.8c-6.6-1.9-10.5-8.8-8.6-15.5
		c1.9-6.6,8.8-10.5,15.5-8.6c6.6,1.9,10.5,8.8,8.6,15.5S208.2,96.7,201.6,94.8z"/>
	<path class="st3" d="M211.4,61.6c11.6,3.5,18.3,15.6,14.9,27.3s-15.4,18.4-27.1,15.2l19.7-17.3L211.4,61.6z"/>
	<path class="st3" d="M211.4,61.6c9.5,2.9,14.6,14.6,11.2,26.2c-3.3,11.6-13.8,18.9-23.4,16.3c-0.1,0-0.2,0-0.2-0.1
		c-11.7-3.4-18.5-15.6-15.2-27.3c3.4-11.7,15.6-18.5,27.3-15.2C211.2,61.5,211.3,61.6,211.4,61.6z M215.2,85.7
		c1.6-5.6-1.6-11.5-7.3-13.1c-5.6-1.6-11.5,1.6-13.1,7.3c-1.6,5.6,1.6,11.5,7.3,13.1C207.7,94.5,213.6,91.3,215.2,85.7z"/>
	<path class="st2" d="M208.5,70.8c-6.6-1.9-13.6,1.9-15.5,8.6c-1.9,6.6,1.9,13.6,8.6,15.5c6.6,1.9,13.6-1.9,15.5-8.6
		S215.1,72.7,208.5,70.8z M202.7,91.1c-4.6-1.3-7.2-6.1-5.9-10.7c1.3-4.6,6.1-7.2,10.7-5.9c4.6,1.3,7.2,6.1,5.9,10.7
		C212,89.7,207.2,92.4,202.7,91.1z"/>
</g>
<g>
	<path class="st2" d="M261,119l0.1-5.6c0-0.3-0.2-0.5-0.4-0.5l-3.4-0.6c-0.3-1.2-0.8-2.3-1.4-3.4l2-2.8c0.2-0.2,0.1-0.5-0.1-0.7
		l-3.9-4c-0.2-0.2-0.5-0.2-0.7-0.1l-2.8,2c-1-0.6-2.2-1.1-3.3-1.4l-0.5-3.4c0-0.3-0.3-0.5-0.5-0.5l-5.6-0.1c-0.3,0-0.5,0.2-0.5,0.4
		l-0.6,3.4c-1.2,0.3-2.3,0.8-3.4,1.4l-2.8-2c-0.2-0.2-0.5-0.1-0.7,0.1l-4,3.9c-0.2,0.2-0.2,0.5-0.1,0.7l2,2.8
		c-0.6,1-1.1,2.2-1.4,3.3l-3.4,0.5c-0.3,0-0.5,0.3-0.5,0.5l-0.1,5.6c0,0.3,0.2,0.5,0.4,0.5l3.4,0.6c0.3,1.2,0.8,2.3,1.4,3.4l-2,2.8
		c-0.2,0.2-0.1,0.5,0.1,0.7l3.9,4c0.2,0.2,0.5,0.2,0.7,0.1l2.8-2c1,0.6,2.2,1.1,3.3,1.4l0.5,3.4c0,0.3,0.3,0.5,0.5,0.5l5.6,0.1
		c0.3,0,0.5-0.2,0.5-0.4l0.6-3.4c1.2-0.3,2.3-0.8,3.4-1.4l2.8,2c0.2,0.2,0.5,0.1,0.7-0.1l4-3.9c0.2-0.2,0.2-0.5,0.1-0.7l-2-2.8
		c0.6-1,1.1-2.2,1.4-3.3l3.4-0.5C260.8,119.5,261,119.3,261,119L261,119z M242.9,123.1c-3.9,0-7.1-3.2-7-7.2c0-3.9,3.2-7.1,7.2-7
		c3.9,0,7.1,3.2,7,7.2C250,120,246.8,123.1,242.9,123.1z"/>
	<path class="st3" d="M243.3,103.5c6.9,0.1,12.3,5.8,12.3,12.7s-5.7,12.4-12.5,12.4l8.2-12.5L243.3,103.5z"/>
	<path class="st3" d="M243.3,103.5c5.7,0.1,10.2,5.8,10.1,12.6c-0.1,6.9-4.7,12.4-10.3,12.4c0,0-0.1,0-0.1,0
		c-6.9-0.1-12.5-5.7-12.4-12.7c0.1-6.9,5.7-12.5,12.7-12.4C243.2,103.5,243.2,103.5,243.3,103.5z M249,116.1c0-3.3-2.6-6-5.9-6.1
		c-3.3,0-6,2.6-6.1,5.9s2.6,6,5.9,6.1C246.3,122,249,119.4,249,116.1z"/>
	<path class="st2" d="M243.1,108.9c-3.9,0-7.1,3.1-7.2,7c0,3.9,3.1,7.1,7,7.2c3.9,0,7.1-3.1,7.2-7C250.1,112.2,247,109,243.1,108.9z
		 M243,120.9c-2.7,0-4.9-2.2-4.9-5c0-2.7,2.2-4.9,5-4.9c2.7,0,4.9,2.2,4.9,5C247.9,118.8,245.7,120.9,243,120.9z"/>
</g>
<g>
	<g>
		<g>
			<g>
				<g>
					<g>
						<path class="st4" d="M128,74.6l-0.1,41.6c0,3.4-3,6.2-6.6,6.2l-47.2,0c-3.7,0.1-6.7-2.8-6.7-6.1l0.1-41.6c0-3.4,3-6.2,6.6-6.2
							l47.2,0C125,68.6,127.9,71.2,128,74.6z"/>
					</g>
				</g>
				<g>
					<g>
						<path class="st5" d="M127.9,72.9l0,14.8l-60.5,0.1l0-14.8c0-2.4,3-4.5,6.7-4.5l47.2,0C125,68.6,128,70.5,127.9,72.9z"/>
					</g>
				</g>
			</g>
			<g>
				<g>
					<g>
						<path class="st6" d="M78.7,100.6l-4.3,0c-0.6-0.1-1-0.6-1.1-1.1l-0.1-2.6c0.1-0.6,0.6-1,1.1-1.1l4.3,0c0.6,0.1,1,0.6,1.1,1.1
							l0.1,2.6C79.8,100.1,79.3,100.7,78.7,100.6z"/>
					</g>
				</g>
				<g>
					<g>
						<path class="st6" d="M87.3,100.6l-4.3,0c-0.6-0.1-1-0.6-1.1-1.1l-0.1-2.6c0.1-0.6,0.6-1,1.1-1.1l4.3,0c0.6,0.1,1,0.6,1.1,1.1
							l0.1,2.6C88.4,100.1,87.9,100.7,87.3,100.6z"/>
					</g>
				</g>
				<g>
					<g>
						<path class="st6" d="M96,100.6l-4.3,0c-0.6-0.1-1-0.6-1.1-1.1l-0.1-2.6c0.1-0.6,0.6-1,1.1-1.1l4.3,0c0.6,0.1,1,0.6,1.1,1.1
							l0.1,2.6C97,100.1,96.5,100.5,96,100.6z"/>
					</g>
				</g>
				<g>
					<g>
						<path class="st6" d="M104.4,100.6l-4.3,0c-0.6-0.1-1-0.6-1.1-1.1l-0.1-2.6c0.1-0.6,0.6-1,1.1-1.1l4.3,0c0.6,0.1,1,0.6,1.1,1.1
							l0.1,2.6C105.4,100.1,104.9,100.5,104.4,100.6z"/>
					</g>
				</g>
				<g>
					<g>
						<path class="st6" d="M112.7,100.7l-4.3,0c-0.6-0.1-1-0.6-1.1-1.1l-0.1-2.6c0.1-0.6,0.6-1,1.1-1.1l4.3,0c0.6,0.1,1,0.6,1.1,1.1
							l0.1,2.6C113.7,100.1,113.2,100.6,112.7,100.7z"/>
					</g>
				</g>
				<g>
					<g>
						<path class="st6" d="M120.9,100.6l-4.3,0c-0.6-0.1-1-0.6-1.1-1.1l-0.1-2.6c0.1-0.6,0.6-1,1.1-1.1l4.3,0c0.6,0.1,1,0.6,1.1,1.1
							l0.1,2.6C121.9,100.2,121.5,100.7,120.9,100.6z"/>
					</g>
				</g>
				<g>
					<g>
						<path class="st6" d="M78.8,108.3l-4.3,0c-0.6-0.1-1-0.6-1.1-1.1l-0.1-2.6c0.1-0.6,0.6-1,1.1-1.1l4.3,0c0.6,0.1,1,0.6,1.1,1.1
							l0.1,2.6C79.8,107.9,79.3,108.4,78.8,108.3z"/>
					</g>
				</g>
				<g>
					<g>
						<path class="st6" d="M87.4,108.3l-4.3,0c-0.6-0.1-1-0.6-1.1-1.1l-0.1-2.6c0.1-0.6,0.6-1,1.1-1.1l4.3,0c0.6,0.1,1,0.6,1.1,1.1
							l0.1,2.6C88.4,107.9,88,108.4,87.4,108.3z"/>
					</g>
				</g>
				<g>
					<g>
						<path class="st6" d="M95.8,108.3l-4.3,0c-0.6-0.1-1-0.6-1.1-1.1l-0.1-2.6c0.1-0.6,0.6-1,1.1-1.1l4.3,0c0.6,0.1,1,0.6,1.1,1.1
							l0.1,2.6C97,107.9,96.6,108.4,95.8,108.3z"/>
					</g>
				</g>
				<g>
					<g>
						<path class="st6" d="M104.4,108.3l-4.3,0c-0.6-0.1-1-0.6-1.1-1.1l-0.1-2.6c0.1-0.6,0.6-1,1.1-1.1l4.3,0c0.6,0.1,1,0.6,1.1,1.1
							l0.1,2.6C105.5,107.9,105,108.4,104.4,108.3z"/>
					</g>
				</g>
				<g>
					<g>
						<path class="st6" d="M112.7,108.4l-4.3,0c-0.6-0.1-1-0.6-1.1-1.1l-0.1-2.6c0.1-0.6,0.6-1,1.1-1.1l4.3,0c0.6,0.1,1,0.6,1.1,1.1
							l0.1,2.6C113.7,107.8,113.2,108.3,112.7,108.4z"/>
					</g>
				</g>
				<g>
					<g>
						<path class="st6" d="M120.9,108.4l-4.3,0c-0.6-0.1-1-0.6-1.1-1.1l-0.1-2.6c0.1-0.6,0.6-1,1.1-1.1l4.3,0c0.6,0.1,1,0.6,1.1,1.1
							l0.1,2.6C122,107.9,121.5,108.3,120.9,108.4z"/>
					</g>
				</g>
				<g>
					<g>
						<path class="st6" d="M78.8,116.2l-4.3,0c-0.6-0.1-1-0.6-1.1-1.1l-0.1-2.6c0.1-0.6,0.6-1,1.1-1.1l4.3,0c0.6,0.1,1,0.6,1.1,1.1
							l0.1,2.6C79.8,115.6,79.4,116.1,78.8,116.2z"/>
					</g>
				</g>
				<g>
					<g>
						<path class="st6" d="M87.2,116.2l-4.3,0c-0.6-0.1-1-0.6-1.1-1.1l-0.1-2.6c0.1-0.6,0.6-1,1.1-1.1l4.3,0c0.6,0.1,1,0.6,1.1,1.1
							l0.1,2.6C88.5,115.6,88,116.1,87.2,116.2z"/>
					</g>
				</g>
				<g>
					<g>
						<path class="st6" d="M95.9,116.2l-4.3,0c-0.6-0.1-1-0.6-1.1-1.1l-0.1-2.6c0.1-0.6,0.6-1,1.1-1.1l4.3,0c0.6,0.1,1,0.6,1.1,1.1
							L97,115C96.9,115.6,96.4,116.1,95.9,116.2z"/>
					</g>
				</g>
				<g>
					<g>
						<path class="st6" d="M104.5,116.2l-4.3,0c-0.6-0.1-1-0.6-1.1-1.1l-0.1-2.6c0.1-0.6,0.6-1,1.1-1.1l4.3,0c0.6,0.1,1,0.6,1.1,1.1
							l0.1,2.6C105.5,115.6,105,116.1,104.5,116.2z"/>
					</g>
				</g>
				<g>
					<g>
						<path class="st6" d="M112.7,116.1l-4.3,0c-0.6-0.1-1-0.6-1.1-1.1l-0.1-2.6c0.1-0.6,0.6-1,1.1-1.1l4.3,0c0.6,0.1,1,0.6,1.1,1.1
							l0.1,2.6C113.8,115.7,113.3,116.1,112.7,116.1z"/>
					</g>
				</g>
				<g>
					<g>
						<path class="st6" d="M121,116.1l-4.3,0c-0.6-0.1-1-0.6-1.1-1.1l-0.1-2.6c0.1-0.6,0.6-1,1.1-1.1l4.3,0c0.6,0.1,1,0.6,1.1,1.1
							l0.1,2.6C122,115.6,121.5,116,121,116.1z"/>
					</g>
				</g>
			</g>
		</g>
		<g>
			<g>
				<g>
					<path class="st7" d="M77.8,78.3L77.8,78.3c-1.9,0-3.3-1.5-3.2-3.2l0.1-9.2c0-1.9,1.5-3.3,3.2-3.2l0,0c1.9,0,3.3,1.5,3.2,3.2
						L81,75.1C81.1,76.8,79.7,78.2,77.8,78.3z"/>
				</g>
			</g>
			<g>
				<g>
					<path class="st7" d="M97.7,78.2L97.7,78.2c-1.9,0-3.3-1.5-3.2-3.2l0.1-9.2c0-1.9,1.5-3.3,3.2-3.2l0,0c1.9,0,3.3,1.5,3.2,3.2
						l-0.1,9.2C101,76.7,99.6,78.3,97.7,78.2z"/>
				</g>
			</g>
			<g>
				<g>
					<path class="st7" d="M117.6,78.3L117.6,78.3c-1.9,0-3.3-1.5-3.2-3.2l0.1-9.2c0-1.9,1.5-3.3,3.2-3.2l0,0c1.9,0,3.3,1.5,3.2,3.2
						l-0.1,9.2C120.9,76.8,119.2,78.2,117.6,78.3z"/>
				</g>
			</g>
		</g>
	</g>
</g>
<g>
	<path class="st7" d="M203.7,191.1c23.5-23.5,23.5-61.4,0-84.9s-61.4-23.5-84.9,0s-23.5,61.4,0,84.9S180.2,214.6,203.7,191.1z"/>
	<path class="st6" d="M197,184.4c19.5-19.5,19.5-51.9,0-71.5s-51.9-19.5-71.5,0s-19.5,51.9,0,71.5C145,204.5,177.4,204.5,197,184.4z
		"/>
	<path class="st8" d="M162.4,150.3c0.6-0.6,0.6-2.2,0-2.8c-0.6-0.6-2.2-0.6-2.8,0c-0.6,0.6-0.6,2.2,0,2.8
		C160.7,150.9,161.8,150.9,162.4,150.3z"/>
	<g>
		<g>
			<path class="st7" d="M158.4,144.2c-2.8,1.7-3.4,5-2.2,7.3c1.7,2.8,5,3.4,7.3,2.2c2.8-1.7,3.4-5,2.2-7.3
				C164.6,143.6,161.2,143.1,158.4,144.2z"/>
		</g>
		<polygon class="st7" points="163.5,148.7 189.2,110.7 187.5,109.6 160.7,146.4 135.6,129.7 133.9,131.3 161.8,151.5 161.8,150.9 
			161.8,151.5 162.9,149.8 		"/>
	</g>
	<g>
		<path class="st9" d="M158.4,148.7c0,1.7,0.6,2.8,2.2,2.8c1.7,0,2.8-0.6,2.8-2.2c0-1.7-0.6-2.8-2.2-2.8
			C160.1,146.4,159,147.5,158.4,148.7z"/>
	</g>
	<g>
		<rect x="160.1" y="101.2" class="st7" width="2.2" height="8.4"/>
		<rect x="160.1" y="186.1" class="st7" width="2.2" height="8.4"/>
	</g>
	<g>
		<rect x="114.3" y="147" class="st7" width="8.4" height="2.2"/>
		<rect x="199.8" y="147" class="st7" width="8.4" height="2.2"/>
	</g>
	<g>
		
			<rect x="187.1" y="116.9" transform="matrix(0.7071 -0.7071 0.7071 0.7071 -27.4219 169.8001)" class="st7" width="8.4" height="2.2"/>
		
			<rect x="126.5" y="176.8" transform="matrix(0.7071 -0.7071 0.7071 0.7071 -87.5705 144.5181)" class="st7" width="8.4" height="2.2"/>
	</g>
	<g>
		
			<rect x="129.9" y="113.5" transform="matrix(0.7071 -0.7071 0.7071 0.7071 -44.8562 127.0831)" class="st7" width="2.2" height="8.4"/>
		
			<rect x="190.2" y="173.7" transform="matrix(0.7071 -0.7071 0.7071 0.7071 -69.7639 187.408)" class="st7" width="2.2" height="8.4"/>
	</g>
</g>
<g>
	<path class="st7" d="M221.3,219.4l-14.1-18.1c-0.5-0.5-0.3-1.3,0.2-1.6l23.5-18.4c0.5-0.5,1.3-0.3,1.6,0.2l14.1,18.1
		c0.5,0.5,0.3,1.3-0.2,1.6l-23.5,18.4C222.4,219.9,221.7,219.9,221.3,219.4z"/>
	
		<rect x="212.2" y="189.8" transform="matrix(0.7872 -0.6167 0.6167 0.7872 -75.3532 182.5157)" class="st10" width="29.2" height="21.3"/>
	<g>
		
			<rect x="234.8" y="187.6" transform="matrix(0.7872 -0.6167 0.6167 0.7872 -70.4747 186.5166)" class="st11" width="0.5" height="15.5"/>
		
			<rect x="233.2" y="189.1" transform="matrix(0.7872 -0.6167 0.6167 0.7872 -71.7282 185.8681)" class="st11" width="0.5" height="15.5"/>
		
			<rect x="231.4" y="190.3" transform="matrix(0.7872 -0.6167 0.6167 0.7872 -72.8383 184.9837)" class="st11" width="0.5" height="15.5"/>
		
			<rect x="229.7" y="191.9" transform="matrix(0.7872 -0.6167 0.6167 0.7872 -74.1793 184.2784)" class="st11" width="0.5" height="15.5"/>
		
			<rect x="227.9" y="193.2" transform="matrix(0.7872 -0.6167 0.6167 0.7872 -75.3758 183.4459)" class="st11" width="0.5" height="15.5"/>
		
			<rect x="226.2" y="194.8" transform="matrix(0.7872 -0.6167 0.6167 0.7872 -76.7162 182.7411)" class="st11" width="0.5" height="15.5"/>
		
			<rect x="224.5" y="196.1" transform="matrix(0.7872 -0.6167 0.6167 0.7872 -77.8825 181.9437)" class="st11" width="0.5" height="15.5"/>
		
			<rect x="222.8" y="197.4" transform="matrix(0.7872 -0.6167 0.6167 0.7872 -79.0802 181.208)" class="st11" width="0.5" height="15.5"/>
		
			<rect x="220.9" y="198.9" transform="matrix(0.7872 -0.6167 0.6167 0.7872 -80.378 180.3812)" class="st11" width="0.5" height="15.5"/>
		
			<rect x="219.3" y="200.3" transform="matrix(0.7872 -0.6167 0.6167 0.7872 -81.5756 179.6456)" class="st11" width="0.5" height="15.5"/>
	</g>
	<g>
		
			<rect x="229.1" y="187" transform="matrix(0.7872 -0.6167 0.6167 0.7872 -67.1898 181.428)" class="st11" width="0.5" height="2.2"/>
		
			<rect x="227.4" y="188.2" transform="matrix(0.7872 -0.6167 0.6167 0.7872 -68.3427 180.6617)" class="st11" width="0.5" height="2.2"/>
		
			<rect x="225.6" y="189.7" transform="matrix(0.7872 -0.6167 0.6167 0.7872 -69.6008 179.8827)" class="st11" width="0.5" height="2.2"/>
		
			<rect x="223.9" y="191" transform="matrix(0.7872 -0.6167 0.6167 0.7872 -70.7537 179.1162)" class="st11" width="0.5" height="2.2"/>
		
			<rect x="222.1" y="192.5" transform="matrix(0.7872 -0.6167 0.6167 0.7872 -72.0896 178.3018)" class="st11" width="0.5" height="2.2"/>
		
			<rect x="220.3" y="193.9" transform="matrix(0.7872 -0.6167 0.6167 0.7872 -73.3293 177.4791)" class="st11" width="0.5" height="2.2"/>
		
			<rect x="218.5" y="195.1" transform="matrix(0.7872 -0.6167 0.6167 0.7872 -74.4444 176.6695)" class="st11" width="0.5" height="2.2"/>
		
			<rect x="216.8" y="196.6" transform="matrix(0.7872 -0.6167 0.6167 0.7872 -75.7403 175.9337)" class="st11" width="0.5" height="2.2"/>
		
			<rect x="215" y="198" transform="matrix(0.7872 -0.6167 0.6167 0.7872 -76.9669 175.1193)" class="st11" width="0.5" height="2.2"/>
		
			<rect x="213.3" y="199.3" transform="matrix(0.7872 -0.6167 0.6167 0.7872 -78.1182 174.3545)" class="st11" width="0.5" height="2.2"/>
	</g>
	
		<rect x="237.1" y="184.1" transform="matrix(0.7825 -0.6227 0.6227 0.7825 -66.62 190.608)" class="st7" width="4.8" height="13.2"/>
	
		<rect x="237.3" y="184.9" transform="matrix(0.7825 -0.6227 0.6227 0.7825 -67.3572 190.1361)" class="st12" width="2.4" height="13.2"/>
</g>
<g>
	<g>
		<g>
			<g>
				
					<rect x="60.4" y="190.2" transform="matrix(1 -1.850168e-03 1.850168e-03 1 -0.3707 0.1159)" class="st4" width="4.2" height="20.4"/>
			</g>
		</g>
	</g>
	<g>
		<g>
			<g>
				
					<rect x="60.4" y="190.2" transform="matrix(1 -1.850168e-03 1.850168e-03 1 -0.3695 0.116)" class="st7" width="4.2" height="19.1"/>
			</g>
		</g>
	</g>
	<g>
		<g>
			<g>
				
					<rect x="65.9" y="197.7" transform="matrix(1 -1.850168e-03 1.850168e-03 1 -0.3776 0.1262)" class="st4" width="4.2" height="12.9"/>
			</g>
		</g>
	</g>
	<g>
		<g>
			<g>
				
					<rect x="71.4" y="179.4" transform="matrix(1 -1.850168e-03 1.850168e-03 1 -0.3606 0.1364)" class="st4" width="4.2" height="31.2"/>
			</g>
		</g>
	</g>
	<g>
		<g>
			<g>
				
					<rect x="76.9" y="186.3" transform="matrix(1 -1.850168e-03 1.850168e-03 1 -0.3671 0.1466)" class="st4" width="4.2" height="24.4"/>
			</g>
		</g>
	</g>
	<g>
		<g>
			<g>
				
					<rect x="82.5" y="198.2" transform="matrix(1 -1.850168e-03 1.850168e-03 1 -0.3781 0.1568)" class="st4" width="4.2" height="12.4"/>
			</g>
		</g>
	</g>
	<g>
		<g>
			<g>
				
					<rect x="88" y="184.7" transform="matrix(1 -1.850168e-03 1.850168e-03 1 -0.3655 0.167)" class="st4" width="4.2" height="25.9"/>
			</g>
		</g>
	</g>
	<g>
		<g>
			<g>
				
					<rect x="93.4" y="176.8" transform="matrix(1 -1.850168e-03 1.850168e-03 1 -0.3582 0.177)" class="st4" width="4.2" height="33.7"/>
			</g>
		</g>
	</g>
	<g>
		<g>
			<g>
				
					<rect x="65.9" y="197.4" transform="matrix(1 -1.850168e-03 1.850168e-03 1 -0.369 0.1262)" class="st7" width="4.2" height="4.2"/>
			</g>
		</g>
	</g>
	<g>
		<g>
			<g>
				
					<rect x="71.4" y="179.4" transform="matrix(1 -1.850168e-03 1.850168e-03 1 -0.334 0.1363)" class="st7" width="4.2" height="2.4"/>
			</g>
		</g>
	</g>
	<g>
		<g>
			<g>
				
					<rect x="76.9" y="186.2" transform="matrix(1 -1.850168e-03 1.850168e-03 1 -0.3517 0.1465)" class="st7" width="4.2" height="7.9"/>
			</g>
		</g>
	</g>
	<g>
		<g>
			<g>
				
					<rect x="82.4" y="192.9" transform="matrix(1 -1.850168e-03 1.850168e-03 1 -0.3679 0.1568)" class="st7" width="4.2" height="12"/>
			</g>
		</g>
	</g>
	<g>
		<g>
			<g>
				
					<rect x="87.9" y="184.7" transform="matrix(1 -1.850168e-03 1.850168e-03 1 -0.3471 0.1669)" class="st7" width="4.2" height="6"/>
			</g>
		</g>
	</g>
	<g>
		<g>
			<g>
				
					<rect x="93.4" y="176.9" transform="matrix(1 -1.850168e-03 1.850168e-03 1 -0.3547 0.177)" class="st7" width="4.2" height="29.9"/>
			</g>
		</g>
	</g>
</g>
<g>
	<g>
		<path class="st13" d="M62,174.7c-10.7,0-19.4-8.8-19.4-19.4c0-10.7,8.8-19.4,19.4-19.4c10.7,0,19.4,8.8,19.4,19.4
			C81.5,166.1,72.8,174.7,62,174.7z M62,139.5c-8.8,0-15.8,7.1-15.8,15.8c0,8.8,7.1,15.8,15.8,15.8s15.8-7.1,15.8-15.8
			C77.9,146.6,70.8,139.5,62,139.5z"/>
	</g>
	<g>
		<path class="st13" d="M62,174.7c-10.7,0-19.4-8.8-19.4-19.4c0-10.7,8.8-19.4,19.4-19.4c10.7,0,19.4,8.8,19.4,19.4
			C81.5,166.1,72.8,174.7,62,174.7z M62,140.1c-8.3,0-15.2,6.8-15.2,15.2s6.8,15.2,15.2,15.2c8.3,0,15.2-6.8,15.2-15.2
			S70.5,140.1,62,140.1z"/>
	</g>
	<g>
		<path class="st13" d="M62,168.2c-7.1,0-12.9-5.8-12.9-12.9c0-7.1,5.8-12.9,12.9-12.9c7.1,0,12.9,5.8,12.9,12.9
			C75,162.4,69.1,168.2,62,168.2z M62,144.2c-6.2,0-11.2,5-11.2,11.2c0,6.2,5,11.2,11.2,11.2s11.2-5,11.2-11.2S68.2,144.2,62,144.2z
			"/>
	</g>
	<g>
		<path class="st13" d="M62,163.1c-4.3,0-7.8-3.5-7.8-7.8c0-4.3,3.5-7.8,7.8-7.8s7.8,3.5,7.8,7.8C69.9,159.6,66.4,163.1,62,163.1z
			 M62,149.3c-3.3,0-6,2.7-6,6c0,3.3,2.7,6,6,6s6-2.7,6-6C68.1,152,65.4,149.3,62,149.3z"/>
	</g>
	<g>
		<path class="st13" d="M62,157.7c-1.4,0-2.4-1-2.4-2.4c0-1.4,1-2.4,2.4-2.4s2.4,1,2.4,2.4C64.4,156.7,63.4,157.7,62,157.7z"/>
	</g>
	<g>
		<path class="st14" d="M75.9,137.8l-14.3,17c-0.2,0.2-0.2,0.6,0.1,0.8l15-17.9C76.4,137.5,76.1,137.5,75.9,137.8z"/>
		<path class="st15" d="M76.7,137.7l-15,17.9c0.2,0.2,0.6,0.2,0.8-0.1l14.3-17C77,138.3,77,137.9,76.7,137.7L76.7,137.7z"/>
	</g>
	<polygon class="st14" points="74.9,139.1 71,143.6 70.3,138.3 74.1,133.7 	"/>
	<polygon class="st15" points="75.9,139.7 72,144.3 77.4,144.1 81.2,139.5 	"/>
</g>
<path class="st1" d="M96.6,247.9l-10.7,10.7c-2,2-5.1,2-7,0l-10.7-10.7c-2-2-2-5.1,0-7l10.7-10.7c2-2,5.1-2,7,0l10.7,10.7
	C98.6,242.8,98.6,245.9,96.6,247.9z"/>
</svg>
