<?xml version="1.0" encoding="utf-8"?>
<!-- Generator: Adobe Illustrator 23.0.3, SVG Export Plug-In . SVG Version: 6.00 Build 0)  -->
<svg version="1.1" id="Layer_1" xmlns="http://www.w3.org/2000/svg" xmlns:xlink="http://www.w3.org/1999/xlink" x="0px" y="0px"
	 viewBox="0 0 286.2 293.8" style="enable-background:new 0 0 286.2 293.8;" xml:space="preserve">
<style type="text/css">
	.st0{fill:#CCCCCB;}
	.st1{fill:#DFF2F8;}
	.st2{fill:#ACD5DF;}
	.st3{fill:#FFFFFF;}
	.st4{fill:#2C3E48;}
	.st5{fill:#F1605B;}
	.st6{fill:#FBBE36;}
	.st7{fill:#54B74F;}
	.st8{fill:#46C5E1;}
	.st9{fill:#F1F8FD;}
	.st10{fill:#A9D3E1;}
	.st11{fill:#4C708A;}
	.st12{fill:none;stroke:#A9D3E1;stroke-width:2;stroke-miterlimit:10;}
	.st13{fill:#BAD2DB;}
	.st14{fill:#189BD7;}
	.st15{clip-path:url(#SVGID_2_);fill:#189BD7;}
	.st16{fill:#333333;}
	.st17{fill:#0877AC;}
	.st18{fill:#5D5D5D;}
	.st19{fill:#FFD87D;}
	.st20{fill:#EDAF22;}
	.st21{fill:#F8DD61;}
	.st22{fill:#2A9AD6;}
	.st23{fill:#E15F68;}
</style>
<path class="st0" d="M143.6,293.6c-0.8-0.2-1.5-0.8-1.5-1.8c0.2-0.8,0.8-1.5,1.8-1.5c6.4,0.3,13,0.3,19.4-0.3c1-0.2,1.6,0.7,1.8,1.5
	c0.2,1-0.7,1.6-1.5,1.8c-4,0.3-7.9,0.5-11.9,0.5C149.2,293.8,146.4,293.8,143.6,293.6z M124,290.8c-6.4-1.5-12.8-3.3-19.1-5.8
	c-0.8-0.3-1.3-1.3-1-2.1s1.3-1.3,2.1-1c5.9,2.3,12.4,4.3,18.6,5.6c1,0.2,1.5,1.2,1.3,2c-0.2,0.8-0.8,1.3-1.6,1.3
	C124.1,290.8,124,290.8,124,290.8z M181.4,288.8c-0.3-0.8,0.3-1.8,1.2-2c6.3-1.5,12.5-3.6,18.4-6.1c0.8-0.3,1.6,0,2.1,0.8
	c0.5,0.8,0,1.8-0.8,2.1c-6.1,2.5-12.5,4.6-18.9,6.3c0,0-0.2,0-0.3,0C182.3,290,181.6,289.5,181.4,288.8z M86.9,276.6
	c-1.5-0.8-2.8-1.6-4.1-2.5c-4.4-2.8-8.6-5.8-12.5-8.9c-0.8-0.5-0.8-1.5-0.3-2.3c0.5-0.8,1.6-0.8,2.3-0.3c4,3,7.9,5.9,12.2,8.6
	c1.3,0.8,2.6,1.5,4,2.3c0.8,0.5,1.2,1.5,0.7,2.3c-0.3,0.5-1,0.8-1.5,0.8C87.2,276.6,86.9,276.5,86.9,276.6z M217.8,274.2
	c-0.5-0.8-0.3-1.8,0.5-2.3c5.6-3.3,10.9-7.2,15.8-11.4c0.7-0.7,1.6-0.5,2.3,0.2c0.7,0.7,0.5,1.6-0.2,2.3
	c-4.9,4.3-10.4,8.2-16.1,11.7c-0.2,0.2-0.5,0.2-0.8,0.2C218.8,274.8,218.2,274.5,217.8,274.2z M55.6,251.3
	c-4.4-4.8-8.7-10-12.4-15.6c-0.5-0.8-0.3-1.8,0.5-2.3c0.8-0.5,1.8-0.3,2.3,0.5c3.6,5.4,7.6,10.5,12,15.3c0.5,0.7,0.5,1.6-0.2,2.3
	c-0.3,0.3-0.8,0.5-1.2,0.5C56.4,251.9,55.9,251.8,55.6,251.3z M248.3,248.8c-0.7-0.7-0.8-1.6-0.2-2.3c4.1-4.9,8.1-10.2,11.5-15.6
	c0.2,0,0.2-0.2,0.2-0.2c0.2,0,0.2-0.2,0.2-0.2c3.5-5.6,6.4-11.4,9.1-17.3c0.3-0.8,1.3-1.2,2.1-0.8s1.2,1.3,0.8,2.1
	c-2.6,6.1-5.8,12.2-9.2,17.8c-0.2,0-0.2,0.2-0.2,0.2c-0.2,0-0.2,0.2-0.2,0.2c-3.5,5.8-7.6,11.2-11.9,16.1c-0.3,0.3-0.8,0.5-1.3,0.5
	C249,249.3,248.7,249.1,248.3,248.8z M33.5,218.2c-2.8-6.1-5.3-12.4-7.1-18.8c-0.2-0.8,0.3-1.6,1.2-2c0.8-0.2,1.6,0.3,2,1.2
	c1.8,6.3,4.1,12.4,6.9,18.3c0.3,0.8,0,1.8-0.8,2.1c-0.2,0.2-0.5,0.2-0.7,0.2C34.4,219.1,33.7,218.8,33.5,218.2z M276.3,196.7
	c-0.8-0.2-1.3-1.2-1.2-2c1.6-6.4,2.8-12.8,3.5-19.3c0.2-1,0.8-1.6,1.8-1.5c1,0.2,1.6,1,1.5,1.8c-0.7,6.8-1.8,13.3-3.5,19.8
	c-0.2,0.8-1,1.3-1.6,1.3C276.7,196.9,276.7,196.9,276.3,196.7z M22.3,180.1c-0.8-5.6-1.2-11.4-1.2-17c0-1,0-2,0-3
	c0-1,0.8-1.6,1.6-1.6l0,0c1,0,1.6,0.7,1.6,1.6c0,1,0,2,0,3c0,5.4,0.5,11,1.2,16.5c0,0.8-0.7,1.6-1.5,1.8H24
	C23.1,181.4,22.5,180.8,22.3,180.1z M279,156.2c-0.3-6.4-1.2-12.8-2.5-19.3c-0.2-1,0.5-1.8,1.3-2c1-0.2,1.8,0.5,2,1.3
	c1.3,6.4,2.3,13.2,2.6,19.8c0,1-0.7,1.8-1.6,1.8l0,0C279.9,157.9,279.1,157,279,156.2z M24.6,142.1c-0.8-0.2-1.5-1.2-1.3-2
	c1.3-6.6,3-13.2,5.1-19.4c0.3-0.8,1.3-1.3,2.1-1c0.8,0.3,1.3,1.3,1,2.1c-2.1,6.3-3.8,12.5-4.9,18.9c-0.2,0.8-0.8,1.3-1.6,1.3
	C24.8,142.1,24.6,142.1,24.6,142.1z M271.2,118.2c-2.3-6.1-5.1-12-8.2-17.6c-0.5-0.8-0.2-1.8,0.7-2.3c0.8-0.5,1.8-0.2,2.3,0.7
	c3.3,5.8,6.1,11.9,8.4,18.1c0.3,0.8-0.2,1.8-1,2.1c-0.3,0.2-0.5,0.2-0.7,0.2C272,119.3,271.4,118.8,271.2,118.2z M36.8,104.8
	c-0.8-0.5-1.2-1.5-0.7-2.3c1.6-3,3.3-5.8,4.9-8.6c1.8-2.8,3.8-5.8,5.8-8.4c0.5-0.7,1.6-0.8,2.3-0.3c0.7,0.5,0.8,1.6,0.3,2.3
	c-2,2.6-3.8,5.4-5.6,8.2c-1.6,2.6-3.3,5.4-4.8,8.2c-0.3,0.5-0.8,0.8-1.5,0.8C37.5,104.8,37.2,104.7,36.8,104.8z M252.1,84.4
	c-4-5.1-8.4-9.9-13.2-14.3c-0.8-0.7-0.8-1.6-0.2-2.3c0.7-0.8,1.6-0.8,2.3-0.2c4.8,4.4,9.4,9.4,13.5,14.7c0.5,0.7,0.3,1.8-0.3,2.3
	c-0.3,0.2-0.7,0.3-1,0.3C252.8,84.9,252.3,84.7,252.1,84.4z M59.9,72.5c-0.7-0.7-0.7-1.6,0-2.3c4.6-4.8,9.7-9.1,15.2-13
	c0.7-0.5,1.8-0.3,2.3,0.3c0.5,0.8,0.3,1.8-0.3,2.3c-5.3,3.8-10.2,8.1-14.8,12.7C61.9,72.9,61.5,73,61,73C60.7,73,60.2,73,59.9,72.5z
	 M223.4,57.7c-1.3-0.8-2.6-1.8-4.1-2.6c-4.1-2.6-8.4-4.9-12.7-7.1c-0.8-0.3-1.2-1.3-0.8-2.1c0.3-0.8,1.3-1.2,2.1-0.8
	c4.4,2.1,8.7,4.6,13,7.2c1.5,1,3,1.8,4.3,2.8c0.8,0.5,1,1.5,0.5,2.3c-0.3,0.3-0.8,0.7-1.3,0.7C224.1,58,223.9,58,223.4,57.7z
	 M91.5,49c-0.5-0.7-0.2-1.6,0.7-2.1c5.9-3,12.2-5.6,18.4-7.7c1-0.3,1.8,0.2,2.1,1c0.3,1-0.2,1.8-1,2.1c-6.1,2.1-12.2,4.6-18,7.6
	C93.5,50,93.3,50,93,50C92.3,50,91.8,49.6,91.5,49z M188.7,41.1c-6.3-1.8-12.7-3.3-19.1-4.1c-1,0-1.6-1-1.5-1.8c0-1,1-1.6,1.8-1.5
	c6.6,1,13.2,2.3,19.6,4.3c1,0.2,1.5,1.2,1.2,2c-0.3,0.7-1,1.2-1.6,1.2C188.9,41.1,188.7,41.1,188.7,41.1z M128.7,36.3
	c-0.2-1,0.5-1.8,1.3-2c6.6-1.2,13.3-1.6,19.9-1.8c1,0,1.6,0.7,1.6,1.6c0,0.8-0.7,1.6-1.6,1.6c-6.6,0.2-13,0.7-19.4,1.8
	c-0.2,0-0.2,0-0.3,0C129.6,37.6,128.7,37,128.7,36.3z"/>
<path class="st1" d="M264.9,152.5L152.5,264.9c-9.2,9.2-24,9.2-33.2,0L6.9,152.5c-9.2-9.2-9.2-24,0-33.2L119.3,6.9
	c9.2-9.2,24-9.2,33.2,0l112.4,112.4C274.2,128.4,274.2,143.3,264.9,152.5z"/>
<g>
	<polygon class="st2" points="64.7,93.9 66.9,98 127.1,67.7 133.5,77.7 162.8,63.9 165.1,68.4 172.6,54 157.4,55.3 159.8,59 
		134,69.3 128.5,60.7 	"/>
</g>
<path class="st1" d="M226.5,219l21.4-21.4c3.8-3.9,10-3.9,14,0l21.4,21.4c3.9,3.8,3.9,10,0,14l-21.4,21.4c-3.8,3.9-10,3.9-14,0
	L226.5,233C222.5,229,222.5,222.8,226.5,219z"/>
<path class="st1" d="M189.6,240.9l10.7-10.7c1.9-2,5-2,7,0l10.7,10.7c2,1.9,2,5,0,7l-10.7,10.7c-1.9,2-5,2-7,0l-10.7-10.7
	C187.6,245.9,187.6,242.8,189.6,240.9z"/>
<g>
	<path class="st3" d="M58.4,98H192v83.2c0,1.6-1.3,2.9-2.9,2.9H61.3c-1.6,0-2.9-1.3-2.9-2.9V98z"/>
	<path class="st4" d="M192,98.8H58.4v-9.8c0-1.6,1.3-2.9,2.9-2.9h127.8c1.6,0,2.9,1.3,2.9,2.9v9.8H192z"/>
	<path class="st3" d="M161.3,95.5H68.6c-1.7,0-3.1-1.4-3.1-3.1l0,0c0-1.7,1.4-3.1,3.1-3.1h92.7c1.7,0,3.1,1.4,3.1,3.1l0,0
		C164.4,94.1,163,95.5,161.3,95.5z"/>
	<circle class="st5" cx="173.8" cy="92.4" r="2.2"/>
	<circle class="st6" cx="179.2" cy="92.4" r="2.2"/>
	<circle class="st7" cx="184.6" cy="92.4" r="2.2"/>
	<path class="st8" d="M99.1,169.8H69.6c-2.1,0-3.8-1.7-3.8-3.8v-56.6c0-2.1,1.7-3.8,3.8-3.8h29.5c2.1,0,3.8,1.7,3.8,3.8V166
		C102.9,168.1,101.3,169.8,99.1,169.8z"/>
	<g>
		<g>
			<g>
				<path class="st3" d="M91.2,127.5c0.6-0.5,1.2-1.2,1.4-1.9l2.6-7.6H78.6l-0.1-2.1c-0.1-0.8-0.4-1.4-0.9-1.8
					c-0.5-0.4-1.2-0.8-1.9-0.8h-2.2v1.7h2.2c0.6,0,1.1,0.4,1.2,1.1l1.3,14.7l0,0c0.1,1.3,1.1,2.3,2.4,2.5c0.3,1,1.3,1.7,2.4,1.7
					s2.1-0.6,2.4-1.6h1.9c0.3,1,1.3,1.6,2.4,1.6c1.4,0,2.5-1.1,2.5-2.5c0-1.4-1.1-2.5-2.5-2.5c-1.1,0-2.1,0.6-2.4,1.6h-1.9
					c-0.3-1-1.3-1.6-2.4-1.6s-1.9,0.6-2.3,1.5c-0.4-0.1-0.6-0.5-0.8-1l-0.3-2.3h9.3C89.8,128.4,90.5,128.1,91.2,127.5z M89.6,131.7
					c0.4,0,0.8,0.3,0.8,0.8c0,0.4-0.3,0.8-0.8,0.8c-0.4,0-0.8-0.3-0.8-0.8C88.7,132.2,89.1,131.7,89.6,131.7z M82.9,131.7
					c0.4,0,0.8,0.3,0.8,0.8c0,0.4-0.3,0.8-0.8,0.8s-0.8-0.3-0.8-0.8C82,132.2,82.4,131.7,82.9,131.7z M79.4,126.7L79.4,126.7
					l-0.6-6.9h14l-1.8,5.4l0,0c-0.3,0.9-1.1,1.5-2.1,1.5H79.4z"/>
			</g>
		</g>
	</g>
	<path class="st8" d="M140.3,169.8h-29.6c-2.1,0-3.8-1.7-3.8-3.8v-56.6c0-2.1,1.7-3.8,3.8-3.8h29.6c2.1,0,3.8,1.7,3.8,3.8V166
		C144.1,168.1,142.4,169.8,140.3,169.8z"/>
	<g>
		<g>
			<g>
				<path class="st3" d="M132.4,127.5c0.6-0.5,1.2-1.2,1.4-1.9l2.6-7.6h-16.5l-0.2-2.1c-0.1-0.8-0.4-1.4-0.9-1.8
					c-0.5-0.4-1.2-0.8-1.9-0.8h-2.2v1.7h2.2c0.6,0,1.1,0.4,1.2,1.1l1.3,14.7l0,0c0.1,1.3,1.1,2.3,2.4,2.5c0.3,1,1.3,1.7,2.4,1.7
					c1.1,0,2.1-0.6,2.4-1.6h1.9c0.3,1,1.3,1.6,2.4,1.6c1.4,0,2.5-1.1,2.5-2.5c0-1.4-1.1-2.5-2.5-2.5c-1.1,0-2.1,0.6-2.4,1.6h-1.9
					c-0.3-1-1.3-1.6-2.4-1.6c-1.1,0-1.9,0.6-2.3,1.5c-0.4-0.1-0.6-0.5-0.8-1l-0.2-2.4h9.3C130.9,128.4,131.8,128.1,132.4,127.5z
					 M130.7,131.7c0.4,0,0.8,0.3,0.8,0.8c0,0.4-0.3,0.8-0.8,0.8c-0.4,0-0.8-0.3-0.8-0.8C129.9,132.2,130.2,131.7,130.7,131.7z
					 M124,131.7c0.4,0,0.8,0.3,0.8,0.8c0,0.4-0.3,0.8-0.8,0.8c-0.4,0-0.8-0.3-0.8-0.8C123.2,132.2,123.5,131.7,124,131.7z
					 M120.6,126.7L120.6,126.7l-0.6-6.9h14l-1.8,5.4l0,0c-0.3,0.9-1.1,1.5-2.1,1.5H120.6z"/>
			</g>
		</g>
	</g>
	<path class="st8" d="M181.7,169.8h-29.6c-2.1,0-3.8-1.7-3.8-3.8v-56.6c0-2.1,1.7-3.8,3.8-3.8h29.6c2.1,0,3.8,1.7,3.8,3.8V166
		C185.5,168.1,183.8,169.8,181.7,169.8z"/>
	<g>
		<g>
			<g>
				<path class="st3" d="M173.8,127.5c0.6-0.5,1.2-1.2,1.4-1.9l2.6-7.6h-16.5l-0.2-2.1c-0.1-0.8-0.4-1.4-0.9-1.8
					c-0.5-0.4-1.2-0.8-1.9-0.8h-2.2v1.7h2.2c0.6,0,1.1,0.4,1.2,1.1l1.3,14.7l0,0c0.1,1.3,1.1,2.3,2.4,2.5c0.3,1,1.3,1.7,2.4,1.7
					s2.1-0.6,2.4-1.6h1.9c0.3,1,1.3,1.6,2.4,1.6c1.4,0,2.5-1.1,2.5-2.5c0-1.4-1.1-2.5-2.5-2.5c-1.1,0-2.1,0.6-2.4,1.6h-1.9
					c-0.3-1-1.3-1.6-2.4-1.6s-1.9,0.6-2.3,1.5c-0.4-0.1-0.6-0.5-0.8-1l-0.2-2.4h9.3C172.3,128.4,173.1,128.1,173.8,127.5z
					 M172.1,131.7c0.4,0,0.8,0.3,0.8,0.8c0,0.4-0.3,0.8-0.8,0.8s-0.8-0.3-0.8-0.8C171.2,132.2,171.7,131.7,172.1,131.7z
					 M165.4,131.7c0.4,0,0.8,0.3,0.8,0.8c0,0.4-0.3,0.8-0.8,0.8s-0.8-0.3-0.8-0.8C164.6,132.2,165,131.7,165.4,131.7z M162,126.7
					L162,126.7l-0.6-6.9h14l-1.8,5.4l0,0c-0.3,0.9-1.1,1.5-2.1,1.5H162z"/>
			</g>
		</g>
	</g>
	<path class="st4" d="M95,163H73.7c-1,0-1.7-0.8-1.7-1.7v-4.2c0-1,0.8-1.7,1.7-1.7H95c1,0,1.7,0.8,1.7,1.7v4.2
		C96.7,162.2,96,163,95,163z"/>
	<path class="st4" d="M136.2,163h-21.3c-1,0-1.7-0.8-1.7-1.7v-4.2c0-1,0.8-1.7,1.7-1.7h21.3c1,0,1.7,0.8,1.7,1.7v4.2
		C137.9,162.2,137.2,163,136.2,163z"/>
	<path class="st4" d="M177.5,163h-21.3c-1,0-1.7-0.8-1.7-1.7v-4.2c0-1,0.8-1.7,1.7-1.7h21.3c1,0,1.7,0.8,1.7,1.7v4.2
		C179.3,162.2,178.5,163,177.5,163z"/>
</g>
<g>
	<path class="st9" d="M204.3,115.3V100h4.6v10.7C209,113.3,206.9,115.3,204.3,115.3L204.3,115.3z"/>
	<rect x="204.3" y="79.6" class="st9" width="37.7" height="32.4"/>
	<polygon class="st9" points="242,77.9 240.7,77.1 239.5,77.9 238.2,77.1 237,77.9 235.7,77.1 234.5,77.9 233.2,77.1 231.9,77.9 
		230.7,77.1 229.5,77.9 228.2,77.1 226.9,77.9 225.7,77.1 224.4,77.9 223.1,77.1 221.9,77.9 220.7,77.1 219.4,77.9 218.1,77.1 
		216.9,77.9 215.6,77.1 214.4,77.9 213.1,77.1 211.9,77.9 210.6,77.1 209.3,77.9 208.1,77.1 206.9,77.9 205.6,77.1 204.3,77.9 
		204.3,79.6 242,79.6 	"/>
	<g>
		<rect x="222.5" y="101.6" class="st10" width="6.3" height="1.3"/>
		<rect x="234.8" y="94.5" class="st10" width="4.6" height="1.3"/>
		<rect x="206.9" y="94.5" class="st10" width="10.7" height="1.3"/>
		<rect x="233" y="98" class="st10" width="6.5" height="1.3"/>
		<rect x="206.9" y="98" class="st10" width="16.3" height="1.3"/>
		<rect x="233" y="101.6" class="st10" width="6.5" height="1.3"/>
		<rect x="206.9" y="101.6" class="st10" width="14.2" height="1.3"/>
		<rect x="233" y="105.1" class="st10" width="6.5" height="1.3"/>
		<rect x="206.9" y="105.1" class="st10" width="10.7" height="1.3"/>
		<rect x="219" y="94.5" class="st10" width="10.7" height="1.3"/>
		<rect x="219" y="105.1" class="st10" width="10.7" height="1.3"/>
		<rect x="234.8" y="108.6" class="st10" width="4.6" height="1.3"/>
		<rect x="206.9" y="108.6" class="st10" width="16.3" height="1.3"/>
	</g>
	<rect x="210.1" y="100" class="st3" width="37.7" height="50.5"/>
	<polygon class="st3" points="210.1,152 211.3,152.8 212.6,152 213.9,152.8 215.1,152 216.3,152.8 217.6,152 218.9,152.8 220.1,152 
		221.4,152.8 222.6,152 223.9,152.8 225.1,152 226.4,152.8 227.7,152 228.9,152.8 230.1,152 231.4,152.8 232.7,152 233.9,152.8 
		235.2,152 236.5,152.8 237.7,152 238.9,152.8 240.2,152 241.5,152.8 242.7,152 244,152.8 245.2,152 246.5,152.8 247.7,152 
		247.7,150.3 210.1,150.3 	"/>
	<rect x="225.1" y="83" class="st10" width="14.2" height="1.3"/>
	<rect x="221.8" y="144.3" class="st10" width="14.2" height="1.3"/>
	<rect x="238.7" y="103.4" class="st10" width="6.5" height="1.3"/>
	<rect x="212.6" y="103.4" class="st10" width="14.2" height="1.3"/>
	<rect x="228.3" y="103.4" class="st10" width="6.3" height="1.3"/>
	<rect x="228.3" y="114" class="st10" width="6.3" height="1.3"/>
	<rect x="240.6" y="106.9" class="st10" width="4.6" height="1.3"/>
	<rect x="212.6" y="106.9" class="st10" width="10.7" height="1.3"/>
	<rect x="238.7" y="110.4" class="st10" width="6.5" height="1.3"/>
	<rect x="212.6" y="110.4" class="st10" width="16.3" height="1.3"/>
	<rect x="238.7" y="114" class="st10" width="6.5" height="1.3"/>
	<rect x="212.6" y="114" class="st10" width="14.2" height="1.3"/>
	<rect x="238.7" y="117.5" class="st10" width="6.5" height="1.3"/>
	<rect x="212.6" y="117.5" class="st10" width="10.7" height="1.3"/>
	<rect x="224.7" y="106.9" class="st10" width="10.7" height="1.3"/>
	<rect x="224.7" y="117.5" class="st10" width="10.7" height="1.3"/>
	<rect x="240.6" y="121" class="st10" width="4.6" height="1.3"/>
	<rect x="238.7" y="137.9" class="st10" width="6.5" height="1.3"/>
	<rect x="212.6" y="121" class="st10" width="16.3" height="1.3"/>
	<rect x="228.3" y="124.2" class="st10" width="6.3" height="1.3"/>
	<rect x="238.7" y="124.2" class="st10" width="6.5" height="1.3"/>
	<rect x="212.6" y="124.2" class="st10" width="14.2" height="1.3"/>
	<rect x="238.7" y="127.7" class="st10" width="6.5" height="1.3"/>
	<rect x="212.6" y="127.7" class="st10" width="10.7" height="1.3"/>
	<rect x="224.7" y="127.7" class="st10" width="10.7" height="1.3"/>
	<rect x="240.6" y="131.3" class="st10" width="4.6" height="1.3"/>
	<rect x="212.6" y="131.3" class="st10" width="16.3" height="1.3"/>
	<g>
		<g>
			<path class="st11" d="M213.7,139.5h-0.4v-1.8h-0.6v-0.4h1.6v0.4h-0.6C213.7,137.7,213.7,139.5,213.7,139.5z"/>
			<path class="st11" d="M216.6,138.4c0,0.4-0.1,0.6-0.3,0.8c-0.1,0.2-0.4,0.3-0.7,0.3s-0.6-0.1-0.7-0.3c-0.1-0.2-0.3-0.4-0.3-0.8
				c0-0.4,0.1-0.7,0.3-0.8c0.2-0.1,0.4-0.3,0.7-0.3s0.6,0.1,0.7,0.3C216.6,137.8,216.6,138.1,216.6,138.4z M215.1,138.4
				c0,0.2,0.1,0.4,0.1,0.5c0.1,0.1,0.2,0.1,0.4,0.1c0.4,0,0.5-0.2,0.5-0.7c0-0.5-0.1-0.7-0.5-0.7c-0.1,0-0.3,0.1-0.4,0.1
				C215.1,138,215.1,138.2,215.1,138.4z"/>
			<path class="st11" d="M217.9,139.5h-0.4v-1.8h-0.6v-0.4h1.6v0.4h-0.6L217.9,139.5L217.9,139.5z"/>
			<path class="st11" d="M220.1,139.5L220,139h-0.8l-0.1,0.5h-0.5l0.7-2.2h0.6l0.7,2.2H220.1z M219.9,138.6
				c-0.1-0.4-0.2-0.7-0.2-0.8s0-0.1-0.1-0.1c0,0.1-0.1,0.4-0.3,1C219.3,138.6,219.9,138.6,219.9,138.6z"/>
			<path class="st11" d="M220.9,139.5v-2.2h0.4v1.8h0.9v0.4H220.9z"/>
		</g>
	</g>
	<g>
		<g>
			<g>
				<path class="st11" d="M217.4,88.3v1h-0.5v-2.5h0.7c0.3,0,0.6,0.1,0.7,0.1c0.1,0.1,0.2,0.3,0.2,0.5c0,0.1-0.1,0.3-0.1,0.4
					c-0.1,0.1-0.2,0.2-0.4,0.3c0.4,0.5,0.6,0.9,0.7,1h-0.6l-0.6-1L217.4,88.3L217.4,88.3z M217.4,87.8h0.1c0.1,0,0.3,0,0.4-0.1
					c0.1-0.1,0.1-0.1,0.1-0.2c0-0.1-0.1-0.2-0.1-0.2c-0.1-0.1-0.2-0.1-0.4-0.1h-0.1V87.8z"/>
				<path class="st11" d="M220.5,89.2h-1.4v-2.5h1.4v0.4h-0.9v0.5h0.8v0.4h-0.8v0.6h0.9V89.2z"/>
				<path class="st11" d="M222.1,87.2c-0.2,0-0.4,0.1-0.4,0.2c-0.1,0.1-0.1,0.4-0.1,0.6c0,0.5,0.2,0.8,0.6,0.8
					c0.1,0,0.4-0.1,0.6-0.1v0.4c-0.2,0.1-0.4,0.1-0.7,0.1c-0.4,0-0.6-0.1-0.8-0.3s-0.3-0.5-0.3-0.9c0-0.2,0.1-0.4,0.1-0.7
					c0.1-0.2,0.2-0.4,0.4-0.4c0.1-0.1,0.4-0.1,0.6-0.1s0.4,0.1,0.7,0.1l-0.1,0.4c-0.1-0.1-0.1-0.1-0.3-0.1
					C222.2,87.2,222.2,87.2,222.1,87.2z"/>
				<path class="st11" d="M224.6,89.2h-1.4v-2.5h1.4v0.4h-0.9v0.5h0.8v0.4h-0.8v0.6h0.9V89.2z"/>
				<path class="st11" d="M225.1,89.2v-2.5h0.5v2.5H225.1z"/>
				<path class="st11" d="M228,87.5c0,0.3-0.1,0.4-0.2,0.6c-0.1,0.1-0.4,0.2-0.7,0.2h-0.2v0.9h-0.5v-2.5h0.7c0.3,0,0.5,0.1,0.7,0.2
					C227.9,87.1,228,87.3,228,87.5z M226.8,87.9h0.1c0.1,0,0.3,0,0.4-0.1c0.1-0.1,0.1-0.1,0.1-0.3s0-0.2-0.1-0.3
					c-0.1-0.1-0.1-0.1-0.3-0.1h-0.2L226.8,87.9L226.8,87.9z"/>
				<path class="st11" d="M229.4,89.2h-0.5v-2h-0.7v-0.4h1.9v0.4h-0.7L229.4,89.2L229.4,89.2z"/>
			</g>
		</g>
		<line class="st12" x1="206.9" y1="91.2" x2="239.5" y2="91.2"/>
	</g>
	<line class="st12" x1="212.6" y1="135.5" x2="245.2" y2="135.5"/>
	<line class="st12" x1="212.6" y1="141.6" x2="245.2" y2="141.6"/>
	<polygon class="st13" points="210.1,100 210.1,115.3 204.3,115.3 	"/>
</g>
<g>
	<g>
		<g>
			<g>
				<path id="SVGID_3_" class="st14" d="M155.5,217.1l-33.6,11.2c-1,0.3-2-0.2-2.3-1.2l-6.4-19.3c-0.3-1,0.2-2,1.2-2.3l33.6-11.2
					c1-0.3,2,0.2,2.3,1.2l6.4,19.3C157,215.7,156.4,216.8,155.5,217.1z"/>
			</g>
			<g>
				<defs>
					<path id="SVGID_1_" d="M155.5,217.1l-33.6,11.2c-1,0.3-2-0.2-2.3-1.2l-6.4-19.3c-0.3-1,0.2-2,1.2-2.3l33.6-11.2
						c1-0.3,2,0.2,2.3,1.2l6.4,19.3C157,215.7,156.4,216.8,155.5,217.1z"/>
				</defs>
				<clipPath id="SVGID_2_">
					<use xlink:href="#SVGID_1_"  style="overflow:visible;"/>
				</clipPath>
				<circle class="st15" cx="147.9" cy="207" r="19.7"/>
			</g>
		</g>
	</g>
	
		<rect x="112.9" y="202.3" transform="matrix(0.949 -0.3153 0.3153 0.949 -57.702 52.2149)" class="st16" width="39.2" height="4.2"/>
	
		<rect x="116.8" y="207.4" transform="matrix(0.949 -0.3153 0.3153 0.949 -59.1137 52.9482)" class="st9" width="34.6" height="3.6"/>
	
		<rect x="118.7" y="215.3" transform="matrix(0.949 -0.3153 0.3153 0.949 -61.5912 51.701)" class="st17" width="20.5" height="1.8"/>
	
		<rect x="118.5" y="211.1" transform="matrix(0.949 -0.3153 0.3153 0.949 -60.4356 50.4144)" class="st18" width="14.1" height="1.8"/>
	
		<rect x="119.8" y="219" transform="matrix(0.949 -0.3153 0.3153 0.949 -62.8714 51.2345)" class="st17" width="14.1" height="1.8"/>
</g>
<g>
	<ellipse class="st19" cx="34" cy="126.7" rx="7.6" ry="7.6"/>
	<ellipse class="st20" cx="34" cy="126.6" rx="6.2" ry="6.2"/>
</g>
<g>
	<ellipse class="st19" cx="44.2" cy="141.6" rx="7.6" ry="7.6"/>
	<circle class="st20" cx="44.2" cy="141.6" r="6.2"/>
</g>
<g>
	<path class="st19" d="M33.5,142.9c1.5,3.9-0.4,8.3-4.3,9.8c-3.9,1.5-8.3-0.4-9.8-4.3c-1.5-3.9,0.4-8.3,4.3-9.8S32,139,33.5,142.9z"
		/>
	<path class="st20" d="M32.2,143.4c1.2,3.2-0.3,6.7-3.5,8c-3.2,1.2-6.7-0.3-8-3.5c-1.2-3.2,0.3-6.7,3.5-8
		C27.4,138.7,31,140.2,32.2,143.4z"/>
</g>
<g>
	<g>
		<g>
			<g>
				<path id="SVGID_7_" class="st17" d="M148.3,244l-34.3-6.6c-1-0.2-1.7-1.2-1.4-2.1l3.8-19.9c0.2-1,1.2-1.7,2.1-1.5l34.3,6.6
					c1,0.2,1.7,1.2,1.4,2.1l-3.8,19.9C150.3,243.5,149.3,244.2,148.3,244z"/>
			</g>
		</g>
	</g>
	
		<rect x="119.2" y="224.1" transform="matrix(0.1872 -0.9823 0.9823 0.1872 -126.2681 303.2908)" class="st9" width="1.9" height="7.7"/>
	
		<rect x="139" y="233.2" transform="matrix(0.1872 -0.9823 0.9823 0.1872 -117.3572 328.6948)" class="st9" width="1.9" height="4.1"/>
	
		<rect x="133.7" y="232.2" transform="matrix(0.1872 -0.9823 0.9823 0.1872 -120.646 322.6334)" class="st9" width="1.9" height="4.1"/>
	
		<rect x="127.6" y="225.7" transform="matrix(0.1872 -0.9823 0.9823 0.1872 -120.9698 312.8507)" class="st9" width="1.9" height="7.7"/>
	
		<rect x="145.1" y="229.1" transform="matrix(0.1872 -0.9823 0.9823 0.1872 -110.0573 332.8156)" class="st9" width="1.9" height="7.7"/>
	
		<rect x="136.1" y="227.4" transform="matrix(0.1872 -0.9823 0.9823 0.1872 -115.7062 322.5302)" class="st9" width="1.9" height="7.7"/>
	
		<rect x="142.1" y="214.1" transform="matrix(0.1872 -0.9823 0.9823 0.1872 -102.4423 321.4465)" class="st14" width="1.8" height="17"/>
	
		<rect x="121" y="228.3" transform="matrix(0.1872 -0.9823 0.9823 0.1872 -132.0138 310.9648)" class="st14" width="1.8" height="13.9"/>
	<path class="st21" d="M120.9,225.7l-1.3-0.3c-1.5-0.3-2.5-1.8-2.2-3.3l0,0c0.3-1.5,1.8-2.5,3.3-2.2l1.3,0.3
		c1.5,0.3,2.5,1.8,2.2,3.3l0,0C123.8,225,122.4,226,120.9,225.7z"/>
	<g>
		
			<ellipse transform="matrix(0.1871 -0.9823 0.9823 0.1871 -116.9215 339.4482)" class="st22" cx="146.6" cy="240.4" rx="1.9" ry="1.8"/>
		<path class="st23" d="M146.3,240.3c-0.2,1-1.1,1.7-2.1,1.4c-1-0.2-1.6-1.2-1.4-2.1c0.2-1,1.1-1.7,2.1-1.4
			C145.9,238.4,146.5,239.3,146.3,240.3z"/>
	</g>
</g>
</svg>
