<?xml version="1.0"?>
<svg xmlns="http://www.w3.org/2000/svg" xmlns:xlink="http://www.w3.org/1999/xlink" xmlns:svgjs="http://svgjs.com/svgjs" version="1.1" width="512" height="512" x="0" y="0" viewBox="0 0 512 512" style="enable-background:new 0 0 512 512" xml:space="preserve" class=""><g><g xmlns="http://www.w3.org/2000/svg"><path d="m256 196c-33.084 0-60 26.916-60 60 0 26.073 16.722 48.304 40 56.56v103.44h40v-103.44c23.278-8.256 40-30.487 40-56.56 0-33.084-26.916-60-60-60zm0 80c-11.028 0-20-8.972-20-20s8.972-20 20-20 20 8.972 20 20-8.972 20-20 20z" fill="#ffffff" data-original="#000000" style="" class=""/><path d="m367.873 114.979c-43.312-34.4-99.729-46.792-154.78-33.998-64.27 14.937-115.927 66.016-131.602 130.129-19.005 77.735 12.855 152.288 74.509 193.756v47.134c0 33.084 26.916 60 60 60h80c33.084 0 60-26.916 60-60v-47.126c49.488-33.214 80-88.319 80-148.874 0-55.233-24.831-106.633-68.127-141.021zm-41.934 261.543-9.939 5.785v69.693c0 11.028-8.972 20-20 20h-80c-11.028 0-20-8.972-20-20v-69.693l-9.94-5.785c-55.218-32.137-81.012-93.335-65.713-155.911 12.126-49.599 52.086-89.113 101.801-100.667 44.174-10.267 88.012.279 120.847 26.358 33.686 26.755 53.005 66.738 53.005 109.698 0 49.936-26.19 94.99-70.061 120.522z" fill="#ffffff" data-original="#000000" style="" class=""/><circle cx="20" cy="256" r="20" fill="#ffffff" data-original="#000000" style="" class=""/><circle cx="492" cy="256" r="20" fill="#ffffff" data-original="#000000" style="" class=""/><path d="m411.563 72.152c-7.811 7.811-7.811 20.474 0 28.284s20.474 7.811 28.284 0 7.81-20.474 0-28.284-20.473-7.81-28.284 0z" fill="#ffffff" data-original="#000000" style="" class=""/><circle cx="256" cy="20" r="20" fill="#ffffff" data-original="#000000" style="" class=""/><path d="m100.437 100.437c7.811-7.811 7.811-20.474 0-28.284s-20.474-7.811-28.284 0-7.81 20.474 0 28.284 20.473 7.81 28.284 0z" fill="#ffffff" data-original="#000000" style="" class=""/></g><style id="stylebot-css-*">#report-abuse {
  display: none !important;
}

</style></g></svg>
