<?xml version="1.0" encoding="utf-8"?>
<!-- Generator: Adobe Illustrator 24.2.1, SVG Export Plug-In . SVG Version: 6.00 Build 0)  -->
<svg version="1.1" id="Layer_1" xmlns="http://www.w3.org/2000/svg" xmlns:xlink="http://www.w3.org/1999/xlink" x="0px" y="0px"
	 viewBox="0 0 146.2 146.2" style="enable-background:new 0 0 146.2 146.2;" xml:space="preserve">
<style type="text/css">
	.st0{fill:#DFF2F8;}
	.st1{fill:#FBBC9C;}
	.st2{fill:#4C9FD8;}
	.st3{fill:none;stroke:#2596D3;stroke-width:0.75;stroke-miterlimit:10;}
	.st4{fill:#030303;}
	.st5{fill:#A59AA5;}
	.st6{fill:#F6BF2C;}
	.st7{fill:none;stroke:#E8B029;stroke-width:0.75;stroke-miterlimit:10;}
	.st8{fill:#221C30;}
	.st9{fill:#EFAA87;}
</style>
<ellipse class="st0" cx="73.1" cy="140.9" rx="35.6" ry="5.3"/>
<g>
	<g>
		<g>
			<path class="st1" d="M95.7,68.1c-0.1-0.2,1.7-3.2,1.7-3.2l-4.9-10.1c-0.7-2-5-9-6.6-7.8c-1.3,0.9,0.5,8.3,1.1,9.7l5,9L95.7,68.1z
				"/>
			<g>
				<path class="st2" d="M84.2,44.9c0,0,4.3,0.3,6,3c2.2,3.3,5.8,8.7,5.8,8.7l-11,4.1L84.2,44.9z"/>
				<line class="st3" x1="86.5" y1="60" x2="82.4" y2="53"/>
			</g>
		</g>
		<g>
			<g>
				<path class="st1" d="M93.5,63.9l-12.8,7.7l1.9,2.8l13-5.6c2.1-0.9,2.6-3.5,1.2-5.1l0,0C95.7,62.5,94.8,63.2,93.5,63.9z"/>
			</g>
			<g>
				<path class="st1" d="M82.9,74c0,0-1.7,3.9-4.6,3.5c-3.6-0.4-3.8-3.3-2.2-3.8l2.4,0.2c0,0,0.1-1.6,1.5-2.2
					c0.3-0.2,0.7-0.2,1.3-0.2L82.9,74z"/>
				<path class="st1" d="M80.4,71.5L77.1,72c-0.2,0.1-0.3,0.2-0.3,0.5l0,0c0,0.2,0.2,0.5,0.4,0.5l3.2,0.2V71.5z"/>
			</g>
		</g>
	</g>
	<g>
		<g>
			<g>
				<g>
					<polygon class="st1" points="65.9,136.3 66.5,125.7 72.1,126.5 71,137.5 65.6,136.6 					"/>
					<g>
						<path class="st4" d="M71.8,134.9c0,0-3.8,2-6-1l-10.3,5.5l17.6-0.2L71.8,134.9z"/>
						
							<rect x="55.6" y="139.4" transform="matrix(1 -6.328661e-03 6.328661e-03 1 -0.8857 0.4106)" class="st5" width="17.6" height="1.6"/>
					</g>
				</g>
				<path class="st6" d="M72,65.5c0,0-5,3.1-5.7,19.9c-0.6,16.8-1.7,45-1.7,45h8.6l4.4-54.8l-1.2-10.1H72L72,65.5z"/>
			</g>
			<g>
				<g>
					<polygon class="st1" points="80.7,136.3 80.2,125.7 85.8,126.5 85.8,137.5 80.4,136.6 					"/>
					<g>
						<path class="st4" d="M86.6,134.9c0,0-3.8,2-6-1l-10.3,5.5l17.6-0.2L86.6,134.9z"/>
						
							<rect x="70.4" y="139.4" transform="matrix(1 -6.328661e-03 6.328661e-03 1 -0.8854 0.5043)" class="st5" width="17.6" height="1.6"/>
					</g>
				</g>
				<g>
					<path class="st6" d="M83.7,67.6c0,0,5.1,6,4.4,16.4l-0.2,46.4l-9.8-0.2L75,67.1L83.7,67.6z"/>
					<polyline class="st7" points="76.1,94.4 75.6,81 71.9,75.9 					"/>
				</g>
			</g>
		</g>
		<g>
			<g>
				<g>
					<g>
						<path class="st1" d="M46,40.9l3.6,14.7c0.5,1.9,2.6,2.8,4.4,1.9l1.2-1.2l-5.9-16.9L46,40.9z"/>
						<g>
							<path class="st1" d="M48.6,40.8c-1.4,1.2-3.6,1-4.7-0.5c-1.2-1.4-1-3.6,0.5-4.7c1.4-1.2,3.6-1,4.7,0.5
								C50.2,37.5,50,39.6,48.6,40.8z"/>
						</g>
					</g>
					<path class="st1" d="M52.7,53.1l14.1-5.2l-0.7,5.9c0,0-7.6,3.3-12.4,4.1S52.7,53.1,52.7,53.1z"/>
				</g>
				<path class="st2" d="M70.5,46.8c0,0-1.3-2-4.6-0.6c-3.4,1.4-9.5,3.4-9.5,3.4l5.3,9.1l10.1-3.8L70.5,46.8z"/>
			</g>
			<g>
				<path class="st2" d="M84,44.7l-7.4-0.7l-9.3,1.7c0,0-0.6,13.5,1,20.3c0.2,1.2,1.4,2.1,2.6,2l13.4,0.2c0,0,1.8-1.3,1.9-4.1
					l-1-18.4C85,45.3,84.6,44.8,84,44.7z"/>
				<line class="st3" x1="66.8" y1="56.5" x2="66.3" y2="51.4"/>
			</g>
		</g>
		<g>
			<path class="st8" d="M83.3,30.8c0,0-0.6,13,3.6,12.7c0,0-3.4,2.6-9.1-0.2l-3.7-9.2L83.3,30.8z"/>
			<path class="st9" d="M71.8,34.9c0.1,1.1-0.7,2.2-1.8,2.2c-1.1,0.1-2.2-0.7-2.2-1.8c-0.1-1.1,0.7-2.2,1.8-2.2
				C70.8,32.9,71.7,33.8,71.8,34.9z"/>
			<g>
				<path class="st1" d="M81.8,35.1c0.1,1.1-0.7,2.2-1.8,2.2c-1.1,0.1-2.2-0.7-2.2-1.8c-0.1-1.1,0.7-2.2,1.8-2.2
					C80.7,33.2,81.8,34,81.8,35.1z"/>
			</g>
			<path class="st1" d="M80.2,44.4L76,44l-5.5,1.2c0,0,0,4,4.5,3.7C79.5,48.6,80.2,44.4,80.2,44.4z"/>
			<path class="st1" d="M72.5,40.7l0.3,4.5c0.2,1.6,1.2,2.3,2.6,2.2l0,0c1.3-0.2,2.5-0.9,2.6-2.2l-0.9-7L72.5,40.7z"/>
			<polygon class="st9" points="72.7,43.9 77.9,39.2 72.4,40.2 			"/>
			<path class="st8" d="M70.7,26.5c0,0,9-3.8,12.1,2.1c1.8,3.5-0.3,9.7-4.7,11.4c-1.4,0.6-3.1-12-3.1-12L70.7,26.5z"/>
			<path class="st1" d="M73.8,41.3L73.8,41.3c-2.6,0.1-4.9-2-5-4.2l-0.2-5c-0.2-2.6,1.9-5,4.6-5.3l0,0c2.7-0.2,5.7,1.8,5.9,4.5
				l0.2,4.1C79.4,38.7,77,41.1,73.8,41.3z"/>
			<path class="st8" d="M79.3,35.3c0,0-0.3-2.1-1.8-3c-1.5-0.9-5.8-2.2-5.4-5.5c0,0,6.5-1.9,8.9,2.3S79.3,35.3,79.3,35.3z"/>
			<path class="st8" d="M73.2,26.8c0,0-0.5,2.6-4.6,4.5c0,0-1-1.9,1.7-4.5c0.2-0.2,0.6-0.3,1-0.3h3.2L73.2,26.8z"/>
		</g>
	</g>
</g>
</svg>
