<?xml version="1.0"?>
<svg xmlns="http://www.w3.org/2000/svg" xmlns:xlink="http://www.w3.org/1999/xlink" xmlns:svgjs="http://svgjs.com/svgjs" version="1.1" width="512" height="512" x="0" y="0" viewBox="0 0 512 512" style="enable-background:new 0 0 512 512" xml:space="preserve" class=""><g><g xmlns="http://www.w3.org/2000/svg"><path d="m352 117.117v-41.117h40v-40h-120v40h40v41.117c-53.945 5.991-100.772 35.91-129.592 78.883h-142.408v40h122.296c-6.659 18.776-10.296 38.97-10.296 60s3.637 41.224 10.296 60h-122.296v40h142.408c32.33 48.205 87.316 80 149.592 80 99.252 0 180-80.748 180-180 0-92.492-70.126-168.901-160-178.883zm-20 318.883c-77.196 0-140-62.804-140-140s62.804-140 140-140 140 62.804 140 140-62.804 140-140 140z" fill="#fff" data-original="#000000" style="" class=""/><path d="m332 196h-20v108.284l76.545 76.545 14.142-14.142c18.903-18.902 29.313-44.006 29.313-70.687 0-55.14-44.86-100-100-100zm54.151 125.867-34.151-34.151v-48.289c23.281 8.254 40 30.498 40 56.573 0 9.095-2.021 17.888-5.849 25.867z" fill="#fff" data-original="#000000" style="" class=""/><path d="m0 276h112v40h-112z" fill="#fff" data-original="#000000" style="" class=""/></g><style id="stylebot-css-*">#report-abuse {
  display: none !important;
}

</style></g></svg>
