<?xml version="1.0" encoding="utf-8"?>
<!-- Generator: Adobe Illustrator 24.2.1, SVG Export Plug-In . SVG Version: 6.00 Build 0)  -->
<svg version="1.1" id="Layer_1" xmlns="http://www.w3.org/2000/svg" xmlns:xlink="http://www.w3.org/1999/xlink" x="0px" y="0px"
	 viewBox="0 0 721.5 451.3" style="enable-background:new 0 0 721.5 451.3;" xml:space="preserve">
<style type="text/css">
	.st0{fill:#E0ECF3;}
	.st1{fill:#C6DBE6;}
	.st2{fill:#D4E4EC;}
	.st3{fill:#263238;}
	.st4{fill:#455A64;}
	.st5{fill:#15ABEA;}
	.st6{opacity:0.3;}
	.st7{opacity:0.3;enable-background:new    ;}
	.st8{fill:#FAFAFA;}
	.st9{fill:#FFBE9D;}
	.st10{fill:#EB996E;}
	.st11{opacity:0.4;}
	.st12{fill:#FFFFFF;}
	.st13{clip-path:url(#SVGID_2_);}
	.st14{opacity:0.2;}
</style>
<g id="freepik--background-complete--inject-4">
	<path class="st0" d="M30.6,126c0,0-11.6,4.4,1.1,29.2s21.6,37.1,21.6,37.1s2.3,5.8-2.6,6.7s-15.5-0.8-17.7,5.2
		c-2.2,6.2,2.3,12,11.4,17s28.6,16.9,30.3,18s3.5,3.7,0.3,4.9s-27.2,3.8-25.3,15.1c1.9,11.3,29.5,21.3,32.5,22.4
		c3,1.1,3.7,2.4,3.5,4.1s-8.4,1.8-15.2,2.8s-14.5,3.4-12.9,9.8s18,19.9,57.8,23.7l18.5,0.5l10-15.6c19.4-34.9,17.6-56,13.2-61
		s-10.7,0-15.4,5s-9.4,11.7-10.9,11c-1.5-0.7-2.1-2-1.4-5.2c0.7-3.2,8.2-31.5,0-39.5s-24,10.3-26.8,12.3s-4-1-3.9-3
		s1.4-24.8,2.4-35.2s-1.3-17.4-7.6-19c-6.1-1.6-10.8,8.1-14.3,11.6s-7-1.6-7-1.6s-5.1-14.2-18.3-38.8s-23.6-17.4-23.6-17.4"/>
	<path class="st1" d="M134.9,326.7c-9.6-18.1-26.2-50.5-40.6-78.2s-27.4-52.9-37-71c-4.8-9-8.6-16.4-11.3-21.4
		c-1.3-2.5-2.3-4.5-3.1-5.8c-0.3-0.7-0.6-1.2-0.8-1.5c-0.1-0.2-0.2-0.3-0.3-0.5c0,0,0.1,0.2,0.3,0.5l0.8,1.5l3.2,5.8
		c2.7,5,6.7,12.3,11.5,21.4c9.6,18.1,22.7,43.1,37.1,70.9s30.9,60.2,40.4,78.3"/>
	<path class="st1" d="M47.9,207c0.4,0.1,0.9,0.2,1.3,0.4c0.8,0.3,2,0.7,3.4,1.2c2.9,1.1,6.8,2.6,11.2,4.4l11.1,4.6l3.4,1.4
		c0.4,0.1,0.8,0.3,1.2,0.6c-0.4-0.1-0.9-0.2-1.3-0.3c-0.8-0.3-2-0.7-3.4-1.2c-2.9-1.1-6.8-2.7-11.2-4.5L52.5,209l-3.4-1.4
		C48.7,207.4,48.3,207.3,47.9,207z"/>
	<path class="st1" d="M80.7,218.3c-0.1-0.1,2.7-8.4,6.4-18.6s6.7-18.4,6.9-18.4s-2.7,8.4-6.4,18.6S80.9,218.4,80.7,218.3z"/>
	<path class="st1" d="M100.9,261.9c0.2-0.4,0.5-0.8,0.8-1.1l2.2-3c1.8-2.5,4.4-6.1,7-10s4.9-7.7,6.6-10.4l1.9-3.2
		c0.2-0.4,0.5-0.8,0.8-1.1c-0.1,0.4-0.3,0.9-0.6,1.3c-0.4,0.8-1,1.9-1.8,3.3c-1.5,2.7-3.8,6.5-6.4,10.5s-5.2,7.5-7.2,10
		c-1,1.2-1.8,2.2-2.3,2.9C101.5,261.3,101.2,261.7,100.9,261.9z"/>
	<path class="st1" d="M68.9,258.2c0.4-0.1,0.8-0.1,1.3,0l3.4,0.3c2.9,0.3,6.9,0.6,11.3,1.1c4.4,0.4,8.4,0.9,11.3,1.2l3.4,0.4
		c0.4,0,0.8,0.1,1.2,0.2c-0.4,0-0.8,0-1.3,0l-3.4-0.3c-2.9-0.3-6.9-0.6-11.3-1.1s-8.4-0.9-11.3-1.2l-3.4-0.4
		C69.7,258.5,69.3,258.4,68.9,258.2z"/>
	<path class="st1" d="M81.8,299c0.5,0,1.1,0,1.6,0l4.4,0.3c3.7,0.3,8.8,0.7,14.5,1.3s10.8,1,14.5,1.4l4.4,0.5c0.5,0,1.1,0.1,1.6,0.3
		c-0.5,0.1-1.1,0.1-1.6,0l-4.4-0.3c-3.7-0.3-8.8-0.7-14.5-1.3s-10.8-1-14.5-1.4l-4.4-0.5C82.8,299.2,82.3,299.1,81.8,299z"/>
	<path class="st1" d="M121.7,302.4c0.3-0.5,0.6-1,0.9-1.5l2.6-3.9c2.2-3.3,5.3-7.9,8.5-13s6-9.9,8-13.3c1-1.6,1.8-3,2.4-4.1
		c0.3-0.5,0.6-1,0.9-1.5c-0.2,0.5-0.4,1.1-0.7,1.6c-0.5,1-1.3,2.4-2.2,4.2c-1.9,3.5-4.7,8.3-7.9,13.4c-3.2,5.1-6.3,9.7-8.6,13
		c-1.2,1.6-2.1,2.9-2.8,3.8C122.5,301.6,122.1,302,121.7,302.4z"/>
	<path class="st0" d="M477.6,360.5c-26.7-17.4-33.7-51.1-33.6-81.6c0-5.1-0.7-10.4,1.6-15s7.8-7.8,12.4-5.8c3.8,1.7,5.6,6,7.8,9.6
		c3,4.8,7.2,8.6,12.3,11c3.3,1.6,7.3,2.5,10.5,0.6c4.3-2.5,4.6-8.6,4.4-13.7l-1-28.2c-0.2-5.1-0.4-10.2,1.1-15.1s4.8-9.4,9.5-10.9
		s10.8,1.1,12,6c0.5,2,0.1,4.2,0.3,6.3s1.3,4.4,3.3,4.9s4-1,5.5-2.5c5.1-5.3,8.4-11.9,11.5-18.6s6.1-13.4,10.7-19.1s11-10.3,18.2-11
		s15.1,3.6,17.1,10.6s-1.9,14.4-6.2,20.3c-6.4,8.8-14.1,16.5-22.8,23.1c-1.6,1.2-3.2,2.5-3.8,4.4c-1,3.4,2.3,6.6,5.7,7.7
		c3.8,1.1,7.9,0.6,11.8,1s8.3,2,9.9,5.6c2.2,5.1-1.9,10.6-6.1,14.3c-8.3,7.4-17.8,13.3-28.1,17.4c-3.7,1.5-7.5,2.8-10.5,5.5
		c-2.9,2.7-4.6,7.3-2.7,10.8s6.6,4.5,10.5,3.7s7.3-3.1,11-4.6c6.9-2.8,15.8-2.6,20.5,3.2c3,3.9,3.5,9.3,2.1,14.1s-4.2,8.9-7.3,12.7
		c-10.7,13.4-24.6,24.4-40.6,30.5C508.6,363.8,493.8,365.8,477.6,360.5"/>
	<path class="st1" d="M484.9,341.2c4-15.5,9.8-32.1,16.5-49.3c1.7-4.3,3.3-8.5,5-12.7c1.7-4.2,3.3-8.3,5.1-12.2
		c3.6-7.5,7.5-14.9,11.9-22c4.1-6.8,8.3-13.2,12.2-19s7.7-11.3,11.4-16.1c5.7-7.6,12.1-14.7,18.9-21.3c2.4-2.3,4.4-4.1,5.7-5.2
		l1.5-1.3c0.2-0.2,0.3-0.3,0.5-0.4c-0.1,0.2-0.3,0.3-0.5,0.5l-1.5,1.4c-1.3,1.2-3.2,3-5.6,5.4c-6.7,6.7-13,13.8-18.7,21.4
		c-3.6,4.8-7.4,10.2-11.3,16.1s-8,12.2-12.1,19.1c-4.3,7.1-8.3,14.5-11.8,22c-1.8,3.9-3.4,8-5.1,12.2c-1.7,4.2-3.3,8.4-5,12.7
		c-6.7,17.2-12.5,33.7-16.5,49.2"/>
	<path class="st1" d="M511.7,266.9c-0.3-0.7-0.4-1.4-0.6-2.1c-0.3-1.4-0.7-3.4-1.1-5.9c-0.9-5-1.8-12-2.9-19.6s-2.1-14.6-3-19.6
		c-0.5-2.5-0.9-4.5-1.2-5.9c-0.2-0.7-0.3-1.4-0.3-2.2c0.3,0.7,0.5,1.4,0.7,2.1c0.4,1.4,0.9,3.4,1.4,5.8c1.1,5,2.3,11.9,3.3,19.6
		s1.9,14.4,2.6,19.7c0.3,2.4,0.6,4.4,0.8,6C511.6,265.5,511.7,266.2,511.7,266.9z"/>
	<path class="st1" d="M576.3,252.7c-0.8,0.2-1.7,0.3-2.6,0.4c-1.7,0.2-4.1,0.5-7,0.9c-5.9,0.8-14.1,2.3-23,4.2s-16.9,4.1-22.7,5.9
		c-2.9,0.8-5.2,1.6-6.8,2.1c-0.8,0.3-1.7,0.5-2.5,0.7c0.8-0.4,1.6-0.8,2.4-1c1.6-0.6,3.8-1.5,6.7-2.4c5.7-1.9,13.7-4.1,22.7-6.1
		c7.6-1.7,15.4-3.1,23.1-4c3-0.4,5.4-0.5,7.1-0.6C574.5,252.6,575.4,252.6,576.3,252.7z"/>
	<path class="st1" d="M485.6,340c-0.2-0.2-0.4-0.5-0.5-0.8l-1.2-2.3c-1-2-2.4-5-4.1-8.6c-3.4-7.3-7.7-17.6-12.3-29
		c-4.6-11.4-8.9-21.8-12.1-29.2l-3.8-8.8l-1-2.4c-0.1-0.3-0.2-0.6-0.3-0.9c0.2,0.2,0.4,0.5,0.5,0.8c0.3,0.6,0.7,1.4,1.2,2.3
		c1,2,2.4,5,4.1,8.6c3.4,7.4,7.7,17.6,12.3,29.1c4.6,11.4,8.8,21.7,12.1,29.1l3.8,8.7l1,2.4C485.4,339.4,485.6,339.7,485.6,340z"/>
	<path class="st1" d="M571.1,309.5c-0.3,0.2-0.5,0.3-0.8,0.4l-2.5,0.9l-9.2,3.3c-7.7,2.8-18.4,6.7-30.1,11.1s-22.4,8.3-30.2,10.9
		c-3.9,1.3-7,2.3-9.3,3l-2.5,0.8c-0.3,0.1-0.6,0.2-0.9,0.2c0.3-0.2,0.6-0.3,0.8-0.4l2.5-0.9l9.2-3.3c7.7-2.8,18.3-6.7,30.1-11.1
		s22.4-8.3,30.2-10.9c3.9-1.3,7-2.3,9.3-3l2.5-0.8C570.5,309.6,570.8,309.5,571.1,309.5z"/>
	<path class="st2" d="M105.5,34.3c0.8-5.9-7.5-10.7-13.7-11.2c-3-0.2-6,0.2-8.8-0.8c-6.1-2.1-8.5-10-14.4-12.5
		c-4.4-1.9-9.5-0.2-13.8,2s-8.6,4.9-13.4,5.1c-4.2,0.3-8.7-1.3-12.4,0.8c-2.7,1.5-4.2,4.7-6.7,6.5s-5.7,2.2-8.7,2.4s-6.2,0.2-9,1.5
		s-5.1,4.2-4.5,7.2L105.5,34.3z"/>
	<path class="st0" d="M516.1,112c0.8-6.1-7.7-11-14.2-11.6c-3.1-0.3-6.3,0.2-9.2-0.8c-6.3-2.2-8.8-10.3-14.9-12.9
		c-4.6-1.9-9.9-0.2-14.3,2s-8.8,5.1-13.8,5.4c-4.3,0.3-9-1.3-12.8,0.8c-2.8,1.6-4.3,4.8-6.9,6.7s-5.9,2.3-9,2.4s-6.4,0.2-9.3,1.5
		s-5.2,4.4-4.6,7.4L516.1,112z"/>
	<path class="st0" d="M641.6,122.7c0.5-3.7-4.8-6.8-8.7-7.1c-1.9-0.1-3.8,0.1-5.6-0.5c-3.9-1.4-5.4-6.4-9.2-7.9
		c-2.8-1.2-6.1-0.1-8.8,1.3s-5.4,3.1-8.5,3.3c-2.7,0.2-5.5-0.8-7.9,0.5c-1.7,1-2.6,3-4.2,4.1c-1.7,1-3.6,1.6-5.5,1.5
		s-3.9,0.3-5.7,0.9c-1.8,0.8-3.2,2.7-2.9,4.6L641.6,122.7z"/>
	<path class="st2" d="M627.8,29.3c0.9-6.8-8.7-12.4-15.8-13c-3.4-0.3-7,0.3-10.3-0.9c-7-2.4-9.9-11.6-16.7-14.5
		c-5.1-2.1-11.1-0.2-16.1,2.3s-9.9,5.7-15.5,6c-4.8,0.3-10.1-1.5-14.3,0.9c-3.2,1.8-4.8,5.4-7.7,7.6s-6.6,2.6-10.1,2.7
		s-7.2,0.2-10.4,1.7c-3.2,1.5-5.9,4.9-5.2,8.4L627.8,29.3z"/>
</g>
<g id="freepik--Character--inject-4">
	<path class="st3" d="M233.6,104.2c2.8-1.2,5.7,1.3,7.2,3.9s2.7,5.7,5.5,6.9c2.1,0.9,4.6,0.4,6.9,0.5c7.1,0.3,12.7,6.4,15.9,12.9
		c2,4,3.5,8.6,2.1,12.8c-1.2,3.7-4.3,6.5-7.6,8.7c-6.6,4.4-14.4,6.6-22.3,6.3c-8-0.4-15.4-4-20.6-10.1c-3.9-4.7-5.9-10.7-6.8-16.7
		c-0.9-6-0.7-12.1-0.5-18.2"/>
	<path class="st4" d="M264.5,135.7c0,0,0-0.6-0.1-1.8c-0.2-1.6-0.6-3.2-1.3-4.6c-1-2.1-2.6-4-4.5-5.4c-2.4-1.7-5.1-2.9-8-3.4
		c-3-0.6-6.1-0.3-8.8-0.9c-2.4-0.5-4.6-1.7-6.5-3.3c-1.2-1.1-2.3-2.3-3.3-3.7c-0.3-0.5-0.6-0.8-0.7-1.1c-0.1-0.1-0.2-0.3-0.2-0.4
		c0.4,0.4,0.8,0.9,1.1,1.4c1,1.3,2.1,2.4,3.3,3.5c1.8,1.6,4,2.7,6.3,3.1c2.6,0.5,5.7,0.3,8.8,0.8c3,0.5,5.8,1.7,8.2,3.5
		c2,1.5,3.5,3.4,4.6,5.7c0.7,1.5,1.1,3.1,1.2,4.8c0,0.4,0,0.9,0,1.3C264.6,135.4,264.6,135.6,264.5,135.7z"/>
	<path class="st5" d="M292.4,122.7l-10.5,39.4l-21.4-23c-9.8-6.4-21.5-9.6-33.2-9l0,0l-33.3-1.6l-18.4,6.6
		c-4.4,1.6-8.7,3.7-12.7,6.1l-35.8,24.7c-7.6,5.5-13.8,9.6-15.3,18c-1.9,11,3.6,23.3,15.2,25.4l50.6,0.6l1.6,32l79.6-7.4l-2.1-48.3
		c16.2,12.5,23.9,17.4,36.1,15c4.1-0.8,9.9-5.1,11.8-11.4c6.8-22.6,7.9-58.1,7.9-58.1L292.4,122.7z M167.6,179.2l4.6-1.3l0.3,1.7
		L167.6,179.2z"/>
	<path class="st3" d="M126.4,209.4h0.4h1.3h4.8l17.8-0.1h58.9l-0.3,0.3c0-0.6,0.1-1.2,0.1-1.8c0.4-7.9,0.7-15.6,1.1-22.8l0.2,0.3
		c-17.9-1.7-33.3-4.3-44.2-5.6c-5.5-0.7-9.9-1.2-12.9-1.6l-3.4-0.4l-0.9-0.1l-0.3-0.1h0.3l0.9,0.1l3.4,0.3c3,0.3,7.4,0.7,12.9,1.4
		c11,1.3,26.3,3.8,44.2,5.4h0.2v0.2c-0.3,7.1-0.7,14.8-1,22.8c0,0.6-0.1,1.2-0.1,1.8v0.3h-0.3l-58.9-0.2l-17.9-0.1l-4.8-0.1h-1.3
		C126.7,209.4,126.5,209.4,126.4,209.4z"/>
	<path class="st3" d="M127.4,175.2c0.2-0.2,0.5-0.3,0.8-0.4c0.8-0.3,1.5-0.6,2.3-0.8c5.3-1.4,11-0.8,15.9,1.6
		c0.7,0.4,1.5,0.8,2.1,1.2c0.3,0.1,0.5,0.3,0.7,0.6c-0.1,0.1-1.1-0.6-3-1.4c-4.9-2.2-10.4-2.7-15.7-1.6
		C128.7,174.8,127.5,175.3,127.4,175.2z"/>
	<path class="st3" d="M138.5,166c0.8,0.3,1.5,0.7,2.2,1.2c1.7,1.1,3.3,2.2,4.8,3.5c1.7,1.5,3.3,3,4,4.4c0.3,0.6,0.4,1.2,0.4,1.8
		c0,0.2,0,0.5-0.1,0.7c0-0.8-0.2-1.6-0.6-2.3c-1.1-1.6-2.4-3-4-4.2c-1.8-1.5-3.4-2.7-4.7-3.6C139.7,167,139.1,166.5,138.5,166z"/>
	<path class="st3" d="M172.9,179.8c-0.4-1-0.7-2.1-0.9-3.1c-0.5-1.9-1.2-4.6-2-7.6s-1.7-5.6-2.4-7.5s-1.1-3-1.1-3.1
		c0.2,0.2,0.3,0.5,0.4,0.8c0.3,0.5,0.6,1.2,1,2.2c1,2.4,1.8,4.9,2.5,7.4c0.8,3,1.4,5.7,1.8,7.6C172.6,177.6,172.8,178.7,172.9,179.8
		z"/>
	<path class="st3" d="M257.8,208.7c-0.1,0-0.7-12-1.3-26.8c-0.6-14.8-0.9-26.9-0.8-26.9s0.7,12,1.3,26.8S257.9,208.7,257.8,208.7z"
		/>
	<g class="st6">
		<path d="M256.2,160.5c0.8,5.2,3,10,4.8,14.9s3,10.3,1.9,15.4l-6-4.8"/>
	</g>
	<path class="st3" d="M287,183.3c-0.2-0.2-0.3-0.5-0.5-0.8c-0.3-0.5-0.6-1.2-1-2.2c-2.1-4.9-3.3-10-3.7-15.3c-0.1-1-0.1-1.8-0.1-2.4
		c0-0.3,0-0.6,0.1-0.9c0.2,1.1,0.3,2.2,0.4,3.2c0.6,5.2,1.8,10.3,3.6,15.2C286.6,182.1,287.1,183.2,287,183.3z"/>
	<polygon class="st7" points="168,161.8 169.3,178.8 172.2,177.9 	"/>
	<path class="st8" d="M254.4,161.7c-0.1,0-0.2-0.1-0.3-0.1l-0.8-0.4c-1-0.5-1.9-0.8-3-1.2c-3.7-1.2-7.7-1.4-11.5-0.6
		c-2.6,0.6-5.1,1.6-7.4,3c-2.5,1.5-5,3.3-7.7,5.1c-2.8,2-6,3.5-9.3,4.4c-3.6,0.9-7.3,1.1-11,0.4c-1.9-0.3-3.7-0.8-5.4-1.5
		s-3.3-1.5-4.9-2.5c-1.5-1-2.8-2.1-4.1-3.3c-1.2-1.2-2.3-2.5-3.3-3.8c-2-2.6-3.7-5.2-5.4-7.6c-1.5-2.2-3.3-4.2-5.4-6
		c-1.7-1.4-3.6-2.6-5.6-3.4c-1.5-0.6-3.2-1-4.9-1.1c-1.4,0-2.8,0.2-4.2,0.6l0.3-0.1l0.8-0.3c0.4-0.1,0.8-0.2,1.3-0.3
		c0.6-0.1,1.2-0.1,1.9-0.1c1.7,0,3.4,0.4,4.9,1c2.1,0.8,4,2,5.8,3.4c2.1,1.8,3.9,3.8,5.4,6c1.8,2.3,3.4,4.9,5.4,7.5
		c1,1.3,2.1,2.6,3.3,3.8s2.6,2.3,4,3.3c1.5,1,3.1,1.8,4.8,2.4c1.7,0.7,3.5,1.1,5.3,1.4c3.6,0.6,7.3,0.5,10.8-0.4
		c3.3-0.9,6.4-2.3,9.2-4.3c2.7-1.8,5.2-3.6,7.8-5.1c2.3-1.4,4.9-2.4,7.5-3c3.9-0.8,7.9-0.5,11.6,0.8c1,0.3,2,0.8,2.9,1.3l0.7,0.4
		L254.4,161.7z"/>
	<path class="st8" d="M273.9,153.6c0.1,0.4,0.1,0.8,0.1,1.2c0,1.1-0.1,2.3-0.3,3.4c-0.3,1.7-0.8,3.3-1.6,4.8c-0.9,1.8-2,3.6-3.3,5.2
		c-2.3,2.9-5.3,5.3-8.7,6.9c-1,0.5-2.1,0.9-3.1,1.2c-0.4,0.1-0.8,0.2-1.2,0.3c0-0.1,1.7-0.5,4.2-1.8c3.3-1.7,6.1-4,8.4-6.9
		c1.3-1.6,2.3-3.3,3.3-5.1c0.8-1.5,1.3-3,1.7-4.6C273.6,156.6,273.8,155.1,273.9,153.6z"/>
	<path class="st8" d="M286,201.3c0,0-0.1-0.1-0.4-0.2c-0.3-0.2-0.7-0.5-1-0.7c-1.2-0.9-2.3-2.1-3.2-3.3c-3-4.2-4.5-9.2-4.5-14.3
		c0.1-5.1,1-10.1,2.6-14.9c0.6-1.9,1.1-3.3,1.4-4.4c0.2-0.5,0.4-1.1,0.6-1.6c-0.1,0.6-0.2,1.1-0.4,1.6c-0.3,1.1-0.8,2.6-1.3,4.4
		c-1.5,4.8-2.3,9.8-2.4,14.8c0,5,1.5,10,4.3,14.1C282.9,198.5,284.4,200,286,201.3z"/>
	<path class="st8" d="M309.6,156.5c-0.3,0.2-0.6,0.4-1,0.5c-0.6,0.3-1.6,0.7-2.8,1.1c-3.1,1.2-6.4,1.7-9.7,1.6
		c-3.3-0.1-6.6-1.3-9.2-3.3c-0.8-0.6-1.5-1.3-2.1-2.1c-0.2-0.3-0.4-0.6-0.6-0.9c0.9,1,1.9,1.9,2.9,2.8c2.6,1.9,5.8,2.9,9,3.1
		c3.2,0.1,6.5-0.4,9.5-1.5C308.1,157,309.5,156.4,309.6,156.5z"/>
	<path class="st8" d="M160.8,178.6c-0.1,0-0.5-1.6-1.4-4c-2.4-6.4-6.3-12.2-11.3-16.9c-1.9-1.8-3.2-2.8-3.2-2.9
		c0.4,0.2,0.7,0.4,1,0.6c0.8,0.6,1.7,1.3,2.4,2c5.2,4.6,9.1,10.5,11.4,17.1c0.3,1,0.6,2,0.9,3C160.7,177.8,160.8,178.2,160.8,178.6z
		"/>
	<path class="st8" d="M172.5,180.3c-0.1,0.2-0.1,0.4-0.3,0.5c-0.3,0.5-0.6,1-0.9,1.4c-1.3,1.6-3,3-4.9,4c-2.8,1.4-5.8,2.4-8.8,2.9
		c-3.4,0.6-7.3,0.8-11.3,1.5c-1.9,0.3-3.8,0.8-5.7,1.4c-1.7,0.6-3.3,1.4-4.9,2.4c-2.6,1.7-4.8,3.8-6.6,6.3c-1.2,1.7-2.2,3.5-2.9,5.5
		c-0.5,1.4-0.7,2.2-0.8,2.1c0-0.2,0-0.4,0.1-0.6c0.1-0.6,0.3-1.1,0.5-1.6c0.7-2,1.6-3.9,2.8-5.6c1.8-2.6,4-4.8,6.6-6.5
		c1.5-1,3.2-1.8,4.9-2.5c1.9-0.6,3.8-1.1,5.7-1.4c4-0.6,7.8-0.9,11.3-1.4c3-0.5,6-1.4,8.8-2.7c1.8-0.9,3.5-2.2,4.9-3.8
		C172,181,172.4,180.3,172.5,180.3z"/>
	<path class="st8" d="M193.8,183c0.2,0.3,0.3,0.7,0.4,1c0.3,0.9,0.5,1.8,0.6,2.8c0.2,1.4,0.3,2.8,0.3,4.2c-0.1,3.5-0.8,6.9-2.2,10.1
		c-0.6,1.3-1.2,2.5-2,3.7c-0.5,0.8-1.1,1.6-1.7,2.3c-0.4,0.5-0.7,0.8-0.7,0.7s0.9-1.2,2.1-3.2c0.7-1.2,1.3-2.4,1.9-3.7
		c0.6-1.6,1.2-3.2,1.5-4.8c0.4-1.7,0.6-3.4,0.6-5.1c0.1-1.4,0-2.8-0.1-4.1C194.1,184.5,193.7,183.1,193.8,183z"/>
	<path class="st8" d="M256.1,198.2c-2.2-0.9-4.4-1.6-6.7-1.9c-2.3-0.2-4.7-0.1-7,0.3c0.6-0.3,1.3-0.5,2-0.6c3.3-0.6,6.8-0.2,9.9,1.2
		C255,197.4,255.6,197.7,256.1,198.2z"/>
	<polygon class="st9" points="302.8,97.8 292.7,122.8 311.6,131.3 316.5,110.1 	"/>
	<path class="st4" d="M324.5,122.5l-17-21.1l0,0c-3.4-4.7-8.9-12.4-9.1-13c-0.4-1-0.5-7.8-0.3-9.6c0-2.2-0.2-4.4-0.4-6.6l-14,5.3
		l-3-10.8l-1.9,0.6c0,0-5.1,8.8-3.5,13.8s8.2,7.3,9.8,8.3s7.9,3.7,14.9,14.3l1.1,1.6l0,0l2.9,4.1l0,0l13,18.7
		c1.5,2.2,4.4,2.7,6.6,1.3c2.2-1.5,2.7-4.4,1.3-6.6C324.7,122.7,324.6,122.6,324.5,122.5L324.5,122.5z"/>
	<path class="st4" d="M291.1,74.6l-3.7-10.3l1.3-0.4c0,0,6.5,4,7.9,8.7L291.1,74.6z"/>
	<path class="st3" d="M287.2,88.3l0.2-0.1l0.4-0.2l1.6-0.7l6-2.7l-0.1-0.1c0,0.6,0,1.2,0,1.8c0,0.7,0.2,1.4,0.4,2
		c0.7,1.2,1.5,2.3,2.4,3.6c1.7,2.4,3.6,5.1,5.7,7.9c0.3,0.3,0.5,0.7,0.6,1.2c0.2,1.1-0.6,2.1-1.6,2.2c-0.2,0-0.5,0-0.7,0
		c-0.4-0.1-0.7-0.3-1-0.6c-0.3-0.3-0.5-0.7-0.8-1l-1.5-2l-5.1-6.8c-0.4-0.5-0.8-0.9-1.3-1.2c-0.4-0.3-0.9-0.6-1.3-0.9
		c-0.8-0.5-1.5-0.9-2.1-1.3c-0.6-0.4-1.1-0.6-1.4-0.8L287.2,88.3L287.2,88.3c0.1,0.1,0.1,0.1,0.2,0.2l0.4,0.2l1.3,0.8
		c0.6,0.3,1.3,0.8,2.1,1.3c0.4,0.3,0.8,0.6,1.3,0.9c0.5,0.3,0.9,0.7,1.2,1.2l5,6.9l1.5,2c0.3,0.3,0.5,0.7,0.8,1s0.7,0.6,1.2,0.7
		c1.2,0.3,2.4-0.5,2.6-1.7c0.1-0.3,0.1-0.5,0-0.8c-0.1-0.5-0.3-0.9-0.6-1.3c-2-2.8-4-5.4-5.7-7.9c-0.9-1.2-1.7-2.4-2.4-3.5
		c-0.3-0.6-0.4-1.2-0.4-1.8s0-1.2,0-1.8v-0.2l-0.1,0.1l-6,2.9l-1.6,0.8l-0.4,0.2L287.2,88.3z"/>
	<g class="st6">
		<polygon points="285.9,83.2 292.2,80.9 292.1,77.4 285.8,79.8 		"/>
	</g>
	<path class="st3" d="M290.8,77.2c-0.3,0.8-0.3,1.7-0.3,2.6c-0.1,0.9,0,1.8,0.3,2.6c0.3-0.8,0.4-1.7,0.3-2.6
		C291.2,78.9,291.1,78,290.8,77.2z"/>
	<path class="st3" d="M288.9,77.9c-0.3,0.8-0.3,1.7-0.2,2.6c-0.1,0.9,0,1.8,0.3,2.6c0.3-0.8,0.3-1.7,0.2-2.6
		C289.3,79.6,289.2,78.7,288.9,77.9z"/>
	<path class="st3" d="M287.1,78.3c-0.3,0.8-0.3,1.7-0.3,2.6c-0.1,0.9,0,1.8,0.3,2.6c0.3-0.8,0.3-1.7,0.3-2.6
		C287.4,80,287.3,79.2,287.1,78.3z"/>
	<path class="st9" d="M293.4,121.2l0.7-4.9l0.5-13l-0.5-9.1c0,0,3,0.2,4.7,4.2s1.7,9.9,1.7,9.9s12.7,5,8.2,17"/>
	<path class="st9" d="M310.6,101.4c0.1-1-0.1-2-0.6-2.9c-0.7-1-1.7-1.6-2.8-1.8c-1-0.2-2.1-0.2-3.1,0l2.4,3.3c-0.5,2-0.8,4-1.1,6.1
		c-0.1,1.1-0.1,2.4,0.8,2.9c0.8,0.4,1.8,0.1,2.3-0.5c0.5-0.7,0.9-1.5,1.1-2.3C310.1,104.6,310.4,103,310.6,101.4z"/>
	<path class="st9" d="M314.1,105.2c0.1-1-0.1-2-0.6-2.9c-0.7-1-1.7-1.6-2.8-1.8c-1-0.2-2.1-0.2-3.1,0l2.4,3.3c-0.5,2-0.8,4-1.1,6.1
		c-0.1,1-0.1,2.4,0.8,2.9c0.8,0.4,1.8,0.1,2.3-0.5c0.5-0.7,0.9-1.5,1.1-2.3C313.7,108.4,314,106.9,314.1,105.2z"/>
	<path class="st9" d="M317.9,109c0.1-1-0.1-2-0.6-2.9c-0.7-1-1.7-1.6-2.8-1.8c-1-0.2-2.1-0.2-3.1,0l2.4,3.3c-0.5,2-0.8,4-1.1,6.1
		c-0.1,1.1-0.1,2.4,0.8,2.9c0.8,0.4,1.8,0.1,2.3-0.5c0.5-0.7,0.9-1.5,1-2.4C317.4,112.2,317.7,110.6,317.9,109z"/>
	<path class="st10" d="M310.3,99c0.4,1.4,0.5,3,0.2,4.4c-0.1,1.5-0.6,2.9-1.4,4.2c-0.1-0.1,0.6-1.9,0.9-4.3S310.1,99.1,310.3,99z"/>
	<path class="st10" d="M314.1,104.3c0.6,2.6,0,5.3-1.6,7.5c-0.1-0.1,0.7-1.6,1.1-3.7S314,104.3,314.1,104.3z"/>
	<path class="st10" d="M298.9,99c0.3,0.9,0.4,1.7,0.5,2.6c0.3,1.7,0.7,4,1.1,6.8l-0.2-0.2c3.8,1.3,6.8,4.2,8.3,8
		c0.6,1.5,0.9,3.1,1,4.8c0,1.1-0.1,2.2-0.3,3.3c-0.1,0.4-0.2,0.8-0.3,1.2c0.2-1.5,0.3-2.9,0.3-4.4c-0.1-1.6-0.5-3.2-1.1-4.6
		c-0.7-1.8-1.8-3.4-3.3-4.8c-1.4-1.3-3-2.3-4.7-2.9h-0.1v-0.2c-0.4-2.8-0.7-5.1-0.9-6.8C299,100.9,298.9,100,298.9,99z"/>
	<path class="st3" d="M297.6,72.2l-0.2,0.1l-0.6,0.2l-2.4,0.9l-7.8,3l-7.8,3l-2.4,0.9l-0.6,0.2c-0.1,0.1-0.2,0.1-0.2,0.1l0.2-0.1
		l0.6-0.3l2.3-1c2-0.8,4.7-1.9,7.7-3s5.8-2.2,7.8-2.9c1-0.3,1.8-0.6,2.4-0.8l0.6-0.2C297.4,72.2,297.5,72.2,297.6,72.2z"/>
	<path class="st9" d="M210.7,188.5c0,0,12.5-3.4,14.6-3.5c1.6-0.1,11.1,1.6,15.4,2.3c1.7,0.3,2.9,1.8,2.7,3.5c0,0.1,0,0.2-0.1,0.3
		c-0.4,1-1.3,1.7-2.4,1.8c1.3,0.6,2,2,1.8,3.5c-0.3,2.5-3.4,2.5-3.4,2.5s0.1,0.2,0.4,0.4c1,1.4,0.6,3.2-0.7,4.2
		c-0.4,0.3-0.9,0.5-1.5,0.5l-1.4,0.1c0.9,0.6,1.5,1.6,1.4,2.7c-0.5,3.2-7.9,2.7-7.9,2.7l-19.8-0.4L210.7,188.5z"/>
	<path class="st9" d="M239.7,183.3c-0.2,1-0.8,3.3-2.8,4l-10-1.9c0,0,7.9-1.4,9.1-2.6c0.5-0.5,1.1-0.9,1.6-1.2
		c0.7-0.4,1.6-0.1,1.9,0.6C239.7,182.6,239.7,182.9,239.7,183.3z"/>
	<path class="st10" d="M231.6,186c0,0.2,2,0.7,4.5,1s4.6,0.6,4.6,0.4s-2-0.7-4.5-1S231.6,185.8,231.6,186z"/>
	<path class="st10" d="M233,192c0,0.2,1.7,0.8,3.9,1s4,0.1,4-0.1s-1.8-0.3-3.9-0.6S233,191.8,233,192z"/>
	<path class="st10" d="M228,190.5c-0.2,0.1,0,0.6,0.5,1.1s1.1,0.5,1.1,0.3s-0.3-0.5-0.7-0.8S228.2,190.4,228,190.5z"/>
	<path class="st10" d="M230.9,198.1c0,0.2,1.9,0.6,4.3,0.8s4.4,0.4,4.4,0.2s-1.9-0.6-4.3-0.8S230.9,198,230.9,198.1z"/>
	<path class="st10" d="M225.6,194.6c-0.1,0-0.3,0.1-0.4,0.5c-0.1,0.5-0.1,1.1,0.2,1.5c0.3,0.5,0.7,0.8,1.2,1c0.4,0.1,0.6,0,0.6-0.1
		s-0.8-0.4-1.3-1.3S225.8,194.7,225.6,194.6z"/>
	<path class="st10" d="M228.5,204.1c0,0.2,1.8,0.4,3.9,0.4s3.9,0,3.9-0.2s-1.8-0.4-3.9-0.4S228.5,204,228.5,204.1z"/>
	<path class="st10" d="M223.4,200.1c-0.1,0-0.2,0.2-0.3,0.6c0,0.5,0.1,1,0.3,1.4c0.6,1,1.4,1.4,1.5,1.3s-0.4-0.8-0.9-1.7
		S223.5,200.2,223.4,200.1z"/>
	<path class="st3" d="M171.8,90c-0.4-3.2-3.9-5.5-7.1-5c-3.2,0.7-5.8,3.1-6.6,6.3c-0.8,3.2-0.4,6.5,1,9.4c1,2.3,2.8,4.6,5.3,5.1
		c2.4,0.3,4.7-0.6,6.2-2.5c1.4-1.8,2.6-3.9,3.3-6.1L171.8,90z"/>
	<path class="st5" d="M175.8,89.3c-1.1-0.6-2.5-0.3-3.2,0.7s-1,2.2-1,3.4c-0.1,2,0.3,4,1.1,5.8c0.2,0.6,0.6,1.1,1.1,1.3
		c0.6,0.1,1.2-0.1,1.5-0.6s0.6-1,0.7-1.6c0.8-3.3,0.6-6.8-0.5-10.1"/>
	<path class="st5" d="M232.5,73.9c5.6-2.8,8.9-5.6,8.4-7.9c-0.5-2.3-11.8-5.9-14.4-6.9c-6.3-2.3-12.2,3.2-22,5.2
		c-19.2,3.8-33.9,10.9-33,15.7c0.5,2.3,4.5,3.7,10.7,4.1"/>
	<g class="st11">
		<path d="M229.1,74.4c5-2.4,8-5,7.4-7c-1.5-5.7-15.3-5-32.3-1.5c-17,3.5-30.1,9.6-29.2,13.9c0.4,2.1,4,3.3,9.5,3.6"/>
	</g>
	<path class="st9" d="M184.5,81.5c-2.3-13,6.4-25.5,19.4-27.8c0.2,0,0.4-0.1,0.6-0.1c12.7-1.9,24.5,7,27.1,19.5
		c2.3,11,4.3,22.2,4.5,26.2c0.5,12.3-6.4,17.4-9.3,19c-1,0.4-2.1,0.8-3.2,1l0,0l-0.1,0.1l0,0l3.5,13.9c1.7,9.2-3,17.7-12.1,19.5
		s-16.8-4.9-18.7-14L184.5,81.5z"/>
	<path class="st3" d="M228,80.8c0.2,1-0.4,2-1.5,2.3c-1,0.3-2-0.3-2.3-1.3l0,0c-0.2-1,0.4-2,1.5-2.3C226.6,79.2,227.7,79.8,228,80.8
		L228,80.8z"/>
	<path class="st3" d="M229.1,76.6c-0.2,0.3-1.9-0.5-3.9-0.1s-3.4,1.8-3.6,1.6c-0.2-0.2,0-0.6,0.6-1.2c0.8-0.8,1.8-1.3,2.9-1.6
		c1.1-0.2,2.2-0.1,3.2,0.4C228.9,76.1,229.2,76.5,229.1,76.6z"/>
	<path class="st3" d="M207.7,84.9c0.2,1-0.4,2-1.5,2.3c-1,0.3-2-0.3-2.3-1.3c0,0,0,0,0-0.1c-0.2-1,0.4-2,1.5-2.3
		C206.3,83.3,207.4,83.8,207.7,84.9C207.7,84.8,207.7,84.9,207.7,84.9z"/>
	<path class="st3" d="M208.9,81.1c-0.2,0.3-1.9-0.5-3.9-0.1s-3.4,1.8-3.6,1.6c-0.1-0.1,0-0.6,0.6-1.2c0.8-0.8,1.8-1.3,2.9-1.6
		c1.1-0.2,2.2-0.1,3.2,0.4C208.7,80.6,209,81,208.9,81.1z"/>
	<path class="st3" d="M219.4,94.9c1-0.6,2.1-1,3.2-1.3c0.5-0.2,1-0.4,1-0.7c-0.1-0.6-0.3-1.1-0.7-1.5l-2.4-3.7
		c-3.3-5.3-5.8-9.7-5.6-9.8s3.1,4,6.4,9.3l2.3,3.7c0.5,0.6,0.7,1.3,0.7,2c-0.1,0.4-0.3,0.8-0.7,0.9c-0.3,0.1-0.6,0.2-0.9,0.3
		C221.7,94.6,220.6,94.8,219.4,94.9z"/>
	<path class="st10" d="M223.7,119.4c0,0-7.8,2.3-19-1.7c0,0,5.3,9.9,19.9,5.5L223.7,119.4z"/>
	<path class="st10" d="M213.6,99.1c-0.2,0.2-0.2,0.5,0,0.8c0.2,0.2,0.4,0.5,0.6,0.6c0.8,0.7,1.7,1.3,2.7,1.6c1,0.4,2.1,0.1,2.7-0.7
		c0.5-0.8,0.4-1.8-0.2-2.5c-0.6-0.7-1.4-1.2-2.4-1.3C215.8,97.5,214.5,98,213.6,99.1"/>
	<path class="st3" d="M213.6,102.5c0.4-1.2,1.3-2.2,2.4-2.8c1.2-0.6,2.6-0.8,3.9-0.5c1,0.2,1.5,0.6,1.4,0.8
		c-0.1,0.3-2.4-0.4-4.6,0.8s-2.7,3.4-3,3.3C213.5,104,213.4,103.4,213.6,102.5z"/>
	<path class="st3" d="M208.3,74.4c-0.1,0.6-2.2,0.8-4.6,1.5c-2.4,0.7-4.2,1.8-4.6,1.4c-0.2-0.2,0.1-0.8,0.7-1.5
		c1.9-1.8,4.4-2.6,7-2.2C207.9,73.8,208.4,74.2,208.3,74.4z"/>
	<path class="st3" d="M227.2,71.5c-0.3,0.5-1.8,0.3-3.5,0.7s-3.1,1-3.5,0.5c-0.2-0.2-0.1-0.7,0.5-1.3c1.5-1.5,3.7-1.8,5.6-1
		C227.1,70.8,227.4,71.2,227.2,71.5z"/>
	<path class="st3" d="M213.5,61.8c-1.6,3.7-4.7,6.5-8.6,7.6c-2.5,0.7-5.4,0.8-7,2.9c-1.1,1.5-1.1,3.5-1.4,5.4
		c-0.4,2.8,0.3,6.1-1.9,8c-1.7,1.5-3.3,1.4-4.3,3.4s-0.8,4.8-0.4,7.1c0.4,2.3,1,6-0.9,7.5c-1.8-8.4-6.3-17.5-8.1-25.9
		c-0.3-1.2-0.5-2.5-0.3-3.8c0.5-2.9,3.2-4.7,5.8-6c7.4-3.7,15.4-5.6,23.4-7.4"/>
	<path class="st5" d="M235.6,64.6c0,0-9.1-19.4-9.7-20.3c-0.6-0.9-8.2-8.7-22.6-8.4l-11.5,2.3c0,0-15.3,8.5-17.4,13.1
		s0.4,24.1,0.4,24.1l30.8-13.5l23,0.9L235.6,64.6z"/>
	<path class="st5" d="M199.1,34.3l3.2-0.6c1.3-0.3,2.6,0.3,3.4,1.3c0.6,0.9,1.1,2,1.4,3.1c0.9,3.5,6.7,27.9,6.7,27.9l-14.5,2.2
		l-5.6-30.3l-4.6,2.1l-0.1-0.9c-0.1-0.5,0-1.1,0.3-1.6l0,0c0.4-0.7,1-1.1,1.8-1.3L199.1,34.3z"/>
	<path class="st4" d="M232,67.5l-2.9-6.8l-23.9-2.5l-25.5,13.4l1.6,8C181.3,79.6,202.2,65.9,232,67.5z"/>
	<path class="st5" d="M226.4,59l1.1,0.7l8.7,4.2c0,0-15.8-2-31.3,1.3c-15.5,3.3-32.2,12.1-32.2,12.1l9-8.2l0,0
		c2.6-4.1,6.7-7.1,11.5-8.1l19.4-4.3C217.4,55.5,222.4,56.4,226.4,59z"/>
	<path class="st3" d="M234.2,64.6c0,0-0.2-0.1-0.6-0.3c-0.6-0.3-1.2-0.5-1.8-0.7c-2.2-0.6-4.5-0.9-6.8-0.9
		c-7.6-0.1-15.2,0.9-22.4,3.1c-4.3,1.2-8.4,2.2-12,3.5c-3.2,1.2-6.3,2.5-9.4,4c-1.3,0.7-2.4,1.3-3.4,1.9c-0.9,0.5-1.7,1.2-2.3,2
		c-0.4,0.6-0.5,1.2-0.4,1.9c0.1,0.4,0.3,0.6,0.3,0.6c-0.2-0.8-0.1-1.6,0.4-2.3c0.6-0.7,1.4-1.3,2.2-1.7c1-0.6,2.1-1.2,3.4-1.8
		c2.6-1.2,5.8-2.6,9.4-3.8c3.6-1.2,7.7-2.3,12-3.4c7.2-2.2,14.7-3.3,22.2-3.4c2.3,0,4.5,0.2,6.8,0.7
		C233.3,64.3,234.1,64.7,234.2,64.6z"/>
	<path class="st3" d="M231.9,67.3c2.8,6.2,12.4,15,3.2,23.6c0,0-2.9-14-5.2-19.2c-0.6-1.6-1.5-3-2.7-4.2"/>
	<path class="st3" d="M184.4,78.9c-6.6,1.3-11,7.5-10,14.1c0.3,1.7,1,3.3,0.8,5c-0.2,1.7-1.1,3.1-1.5,4.7c-0.8,3.1-1,8.3,0.1,11.4
		c2.5,7.3,11.8,16.3,20.2,14.6"/>
	<path class="st3" d="M190.6,122.5c1.8,0.3,3.6-0.2,4.9-1.5c1.2-1.3,2.1-2.8,2.6-4.6c1.6-5.6,0.4-11.6-3.3-16.1
		c4.2-7.7,4.4-16.9,0.3-24.7l-11.8,3.5L190.6,122.5z"/>
	<path class="st4" d="M171.9,97.2c-0.5,0.7-1.1,1.3-1.9,1.7c-1.8,1.1-3.8,1.5-5.9,1.3c-2.1-0.2-4-1.2-5.4-2.7
		c-0.6-0.6-1-1.4-1.1-2.2c0.4,0.7,0.9,1.4,1.4,2c1.4,1.3,3.3,2.2,5.2,2.4c2,0.2,3.9-0.2,5.6-1.1C171.2,97.8,171.8,97.1,171.9,97.2z"
		/>
	<path class="st4" d="M171,95.6c-0.6,0.4-1.3,0.6-2.1,0.7c-3.6,0.7-7.3-0.5-9.8-3.2c-0.5-0.5-1-1.1-1.2-1.8c0.1,0,0.5,0.7,1.5,1.6
		c2.5,2.4,6,3.5,9.5,3.1C170.2,95.8,171,95.5,171,95.6z"/>
	<path class="st4" d="M196.5,78.9c0,0.4,0,0.8-0.1,1.2c-0.1,1.1-0.4,2.1-0.8,3.2c-2.4,7-8.8,11.8-16.2,12c-1.1,0-2.2,0-3.2-0.2
		c-0.4,0-0.8-0.1-1.1-0.3c1.4,0.1,2.9,0.2,4.4,0.1c7.2-0.4,13.4-5,15.9-11.7C195.8,81.8,196.2,80.4,196.5,78.9z"/>
	<path class="st4" d="M196.9,96.6c0,0-0.2,0.3-0.6,0.7c-0.6,0.6-1.3,1.1-2,1.5c-2.4,1.4-5.1,2-7.9,2c-2.7-0.1-5.4-0.5-8-1.2
		c-1-0.3-1.8-0.5-2.4-0.7c-0.3-0.1-0.6-0.2-0.8-0.3c1.1,0.2,2.2,0.4,3.3,0.7c2.6,0.6,5.3,1,7.9,1.1c2.7,0,5.3-0.6,7.7-1.8
		C195.1,97.9,196,97.3,196.9,96.6z"/>
	<path class="st3" d="M236.1,62.6c-0.2,0-0.5-0.1-0.7-0.2l-1.9-0.7l-7.1-2.6l0,0l0,0l-1.8-1.7c-0.6-0.6-1.3-1.2-2.1-1.6
		c-0.8-0.4-1.7-0.7-2.6-0.8c-1,0-2,0.1-3,0.3c-4.1,0.7-8.6,1.6-13.2,2.7c-4.3,1-8.5,2-12.3,3c-0.9,0.2-1.8,0.5-2.6,1
		c-0.7,0.4-1.4,1-1.9,1.7c-0.9,1.4-1.8,2.9-2.5,4.2l0,0l0,0l-6.9,5.1l-1.9,1.4c-0.2,0.2-0.4,0.3-0.7,0.4c0.2-0.2,0.4-0.4,0.6-0.5
		l1.8-1.5l6.7-5.2v0.1c0.8-1.3,1.6-2.8,2.5-4.3c0.5-0.8,1.2-1.4,2-1.9s1.8-0.8,2.7-1c3.8-1,7.9-2,12.3-3c4.7-1.1,9.1-2,13.3-2.7
		c1-0.2,2-0.3,3.1-0.3c1,0.1,1.9,0.4,2.8,0.9c0.8,0.5,1.5,1.1,2.1,1.7l1.8,1.7h-0.1l7.1,2.7l1.9,0.8
		C235.7,62.5,235.9,62.5,236.1,62.6z"/>
	<path class="st3" d="M197.5,59.3c-0.1-0.3-0.2-0.7-0.3-1c-0.1-0.7-0.4-1.6-0.6-2.7c-0.5-2.3-1.1-5.5-1.8-9c-0.3-1.8-0.6-3.5-0.9-5
		c-0.1-0.8-0.3-1.5-0.4-2.2c-0.1-0.5-0.5-0.9-1.1-0.8h-0.1l-2.6,1c-0.3,0.2-0.7,0.3-1,0.3c0.3-0.2,0.6-0.4,0.9-0.5
		c0.6-0.3,1.4-0.7,2.5-1.2c0.7-0.2,1.4,0.1,1.7,0.8c0,0.1,0,0.1,0,0.2c0.1,0.7,0.3,1.4,0.4,2.2c0.3,1.5,0.6,3.2,0.9,5
		c0.6,3.5,1.2,6.8,1.6,9.1c0.2,1.2,0.3,2.1,0.4,2.8C197.5,58.6,197.5,58.9,197.5,59.3z"/>
	<path class="st3" d="M211.4,56.2c-0.5-0.9-0.8-1.9-1-2.9c-0.6-1.8-1.2-4.4-1.9-7.2c-0.7-2.8-1.2-5.4-1.6-7.2c-0.3-1-0.4-2-0.5-3
		c0.4,1,0.7,2,0.9,3c0.5,1.8,1.1,4.4,1.8,7.2c0.7,2.8,1.2,5.2,1.7,7.2C211,54.2,211.2,55.2,211.4,56.2z"/>
	<path class="st3" d="M235.9,96.4c2.1-0.1,4.1-0.6,5.9-1.4c2-0.9,3.8-2.2,5.1-4c1.5-2.3,1.9-5.1,1.3-7.7c-0.6-2.6-2.2-4.9-4.5-6.4
		c-2-1-4-1.9-6.1-2.7c-1.4-0.6-2.7-1.5-3.7-2.7c-0.3-0.3-0.5-0.6-0.7-1c-0.1-0.3-0.2-0.4-0.2-0.4c0.3,0.5,0.6,0.9,1,1.3
		c1.1,1.1,2.3,1.9,3.7,2.4c2.1,0.7,4.2,1.6,6.2,2.6c2.4,1.5,4.2,3.9,4.8,6.7c0.7,2.8,0.2,5.7-1.4,8.1c-1.4,1.8-3.2,3.2-5.4,4.1
		c-1.4,0.6-2.9,1-4.4,1.1c-0.4,0-0.8,0-1.2,0C236.2,96.5,236,96.4,235.9,96.4z"/>
	<path class="st3" d="M161,92.4c0,0-0.1,0-0.2-0.2c-0.2-0.2-0.4-0.4-0.6-0.6c-0.6-0.8-1-1.8-1.1-2.8c-0.2-1.5,0-3,0.8-4.3
		c2-3,6-3.9,9-1.9c0.2,0.1,0.5,0.3,0.7,0.5c1.1,1,1.8,2.4,2.1,3.9c0.2,1,0.1,2-0.3,3c-0.1,0.3-0.2,0.5-0.4,0.7
		c-0.1,0.2-0.1,0.2-0.2,0.2s0.1-0.4,0.3-1c0.2-0.9,0.3-1.9,0.1-2.8c-0.2-1.4-1-2.7-2-3.6c-2.6-2.1-6.5-1.8-8.7,0.9
		c-0.1,0.2-0.2,0.3-0.3,0.5c-0.7,1.2-1,2.6-0.8,4c0.1,1,0.4,1.9,0.9,2.7C160.8,92.1,161.1,92.3,161,92.4z"/>
	<path class="st3" d="M192.2,126.9c-0.1,0.1-0.3,0.1-0.4,0.1c-0.3,0.1-0.7,0.2-1.2,0.3c-1.5,0.4-3.1,0.6-4.6,0.7
		c-2.3,0.2-4.7-0.2-6.9-1.1c-2.6-1.2-4.8-3.3-6.2-5.8s-2.1-5.4-2.1-8.3c0-2.3,0.3-4.7,1-6.9c0.4-1.5,1-3,1.6-4.4
		c0.2-0.5,0.4-0.9,0.6-1.1c0.1-0.1,0.1-0.3,0.2-0.4c-0.2,0.5-0.4,1.1-0.6,1.6c-0.6,1.4-1.1,2.9-1.5,4.4c-0.6,2.2-0.9,4.5-0.9,6.8
		c0,2.8,0.7,5.5,2.1,8c1.3,2.5,3.4,4.4,5.9,5.6c2.1,0.9,4.4,1.3,6.7,1.1c1.5-0.1,3.1-0.2,4.6-0.5C191,127.1,191.6,127,192.2,126.9z"
		/>
	<path class="st3" d="M170.8,102.2c0,0.2-0.1,0.3-0.1,0.5c-0.2,0.4-0.4,0.9-0.6,1.3c-1,1.5-2.5,2.5-4.2,3c-1.2,0.3-2.4,0.4-3.6,0.2
		c-1.4-0.3-2.7-0.9-3.8-1.8c-1.2-1-2.2-2.2-2.9-3.6c-0.7-1.5-1.1-3.1-1.1-4.8c0-3.2,1.1-6.3,3.1-8.8c1.6-2.1,4.1-3.4,6.7-3.4
		c1.8,0,3.5,0.7,4.8,1.9c0.5,0.4,0.8,1,1.1,1.6c-0.4-0.5-0.8-1-1.2-1.4c-1.3-1.1-2.9-1.7-4.6-1.7c-2.5,0.1-4.9,1.3-6.4,3.3
		c-1.9,2.4-3,5.4-3,8.5c0,1.6,0.3,3.1,1,4.6c0.6,1.3,1.6,2.5,2.7,3.4c1,0.8,2.2,1.4,3.5,1.7c1.1,0.2,2.3,0.2,3.4-0.1
		c1.6-0.4,3.1-1.4,4.1-2.7C170.2,103.4,170.5,102.8,170.8,102.2z"/>
	<path class="st4" d="M131.2,210.3h325.5c8,0,14.6,6.5,14.6,14.6v205.4c0,8-6.5,14.6-14.6,14.6H131.2c-8,0-14.6-6.5-14.6-14.6V224.9
		C116.6,216.8,123.2,210.3,131.2,210.3z"/>
	<path class="st4" d="M102.8,429.7H487l0,0v2.7c0,9.8-8,17.8-17.8,17.8H120.6c-9.8,0-17.8-8-17.8-17.8V429.7L102.8,429.7z"/>
	<rect x="126.2" y="219.6" class="st3" width="334.6" height="198"/>
	<polygon class="st3" points="259,427.5 263.7,435 330.8,435 335.3,427.5 	"/>
	<path class="st2" d="M136.3,226.3h314.9c1.8,0,3.3,1.5,3.3,3.3v184.1c0,1.8-1.5,3.3-3.3,3.3H136.3c-1.8,0-3.3-1.5-3.3-3.3V229.6
		C133,227.8,134.5,226.3,136.3,226.3z"/>
	<polygon class="st8" points="454.2,417.3 132.7,417.3 133,240.6 454.2,240.6 	"/>
	<path class="st3" d="M159.4,233.7c0,1.4-1.2,2.6-2.6,2.6s-2.6-1.2-2.6-2.6c0-1.4,1.2-2.6,2.6-2.6l0,0
		C158.3,231.2,159.4,232.3,159.4,233.7L159.4,233.7z"/>
	<path class="st3" d="M143.9,233.7c0,1.4-1.2,2.6-2.6,2.6s-2.6-1.2-2.6-2.6c0-1.4,1.2-2.6,2.6-2.6l0,0
		C142.7,231.2,143.9,232.3,143.9,233.7L143.9,233.7z"/>
	<path class="st3" d="M151.3,233.7c0,1.4-1.2,2.6-2.6,2.6s-2.6-1.2-2.6-2.6c0-1.4,1.2-2.6,2.6-2.6l0,0
		C150.2,231.2,151.3,232.3,151.3,233.7z"/>
	<path class="st3" d="M468.2,427.5c0,0.1-78.7,0.2-175.8,0.2s-175.8-0.1-175.8-0.2s78.7-0.2,175.8-0.2S468.2,427.3,468.2,427.5z"/>
	<path class="st1" d="M334.8,382.8c0,0.1-19.3,0.3-43.1,0.3s-43.1-0.1-43.1-0.3s19.3-0.3,43.1-0.3S334.8,382.7,334.8,382.8z"/>
	<rect x="140.5" y="337.5" class="st0" width="95.9" height="72.1"/>
	<polygon class="st1" points="140.5,409.7 174,364.8 194.8,392.8 208.8,377.8 236.4,409.6 	"/>
	<path class="st1" d="M203.5,359.3c0,4.2-3.4,7.6-7.5,7.6c-4.2,0-7.6-3.4-7.6-7.5c0-4.2,3.4-7.6,7.5-7.6
		C200.1,351.8,203.5,355.1,203.5,359.3L203.5,359.3z"/>
	<rect x="347.5" y="337.6" class="st0" width="95.9" height="72.1"/>
	<polygon class="st1" points="347.5,409.8 381,364.9 401.7,393 415.8,378 443.4,409.7 	"/>
	<path class="st1" d="M410.5,359.4c0,4.2-3.4,7.6-7.5,7.6s-7.6-3.4-7.6-7.5s3.4-7.6,7.5-7.6l0,0
		C407.1,351.9,410.5,355.2,410.5,359.4z"/>
	<path class="st1" d="M428.2,323.3c0.9-0.1,1.8-0.2,2.7-0.2c1.7,0,4-0.1,6.5-0.1h2.8l-0.3,0.3c0-1.9,0-3.4,0.1-4.6
		c0-0.6,0-1.2,0.1-1.8c0.1,0.6,0.2,1.2,0.2,1.8c0,1.1,0.1,2.7,0.1,4.6v0.3h-3.1c-2.5,0-4.8,0-6.5-0.1
		C430,323.5,429.1,323.5,428.2,323.3z"/>
	<path class="st1" d="M404.2,323.3c4-0.3,8-0.3,12,0C412.2,323.7,408.2,323.7,404.2,323.3z"/>
	<path class="st1" d="M380.2,323.3c4-0.3,8-0.3,12,0C388.2,323.7,384.2,323.7,380.2,323.3z"/>
	<path class="st1" d="M356.2,323.3c4-0.3,8-0.3,12,0C364.2,323.7,360.2,323.7,356.2,323.3z"/>
	<path class="st1" d="M332.2,323.3c4-0.3,8-0.3,12,0C340.2,323.7,336.2,323.7,332.2,323.3z"/>
	<path class="st1" d="M308.2,323.3c4-0.3,8-0.3,12,0C316.2,323.7,312.2,323.7,308.2,323.3z"/>
	<path class="st1" d="M284.2,323.3c4-0.3,8-0.3,12,0C292.2,323.7,288.2,323.7,284.2,323.3z"/>
	<path class="st1" d="M260.2,323.3c4-0.3,8-0.3,12,0C268.2,323.7,264.2,323.7,260.2,323.3z"/>
	<path class="st1" d="M236.2,323.3c2-0.3,4-0.3,6-0.3c2-0.1,4,0,6,0.3c-2,0.3-4,0.3-6,0.3C240.2,323.7,238.2,323.6,236.2,323.3z"/>
	<path class="st1" d="M212.2,323.3c2-0.3,4-0.3,6-0.3c2-0.1,4,0,6,0.3c-2,0.3-4,0.3-6,0.3C216.2,323.7,214.2,323.6,212.2,323.3z"/>
	<path class="st1" d="M188.2,323.3c2-0.3,4-0.3,6-0.3c2-0.1,4,0,6,0.3c-2,0.3-4,0.3-6,0.3C192.2,323.7,190.2,323.6,188.2,323.3z"/>
	<path class="st1" d="M164.2,323.3c2-0.3,4-0.3,6-0.3c2-0.1,4,0,6,0.3c-2,0.3-4,0.3-6,0.3C168.2,323.7,166.2,323.6,164.2,323.3z"/>
	<path class="st1" d="M140.2,323.3L140.2,323.3c2-0.2,4-0.3,6-0.3c2-0.1,4,0,6,0.3c-2,0.3-4,0.3-6,0.3S142.2,323.6,140.2,323.3
		L140.2,323.3L140.2,323.3z"/>
	<path class="st1" d="M140.2,299.3c0.3,4,0.3,8,0,12C139.9,307.3,139.9,303.3,140.2,299.3z"/>
	<path class="st1" d="M140.2,275.3c0.3,2,0.3,4,0.3,6c0.1,2,0,4-0.3,6c-0.3-2-0.3-4-0.3-6S140,277.3,140.2,275.3z"/>
	<path class="st1" d="M140.2,251.3c0.3,2,0.3,4,0.3,6c0.1,2,0,4-0.3,6c-0.3-2-0.3-4-0.3-6C139.9,255.3,140,253.3,140.2,251.3z"/>
	<path class="st1" d="M161.1,248.1c-2,0.3-4,0.3-6,0.3c-2,0.1-4,0-6-0.3c2-0.3,4-0.4,6-0.3C157.1,247.8,159.1,247.9,161.1,248.1z"/>
	<path class="st1" d="M185.1,248.1c-2,0.3-4,0.3-6,0.3c-2,0.1-4,0-6-0.3c2-0.3,4-0.4,6-0.3C181.1,247.8,183.1,247.9,185.1,248.1z"/>
	<path class="st1" d="M209.1,248.1c-2,0.3-4,0.3-6,0.3c-2,0.1-4,0-6-0.3c2-0.3,4-0.4,6-0.3C205.1,247.8,207.1,247.9,209.1,248.1z"/>
	<path class="st1" d="M233.1,248.1c-2,0.3-4,0.3-6,0.3c-2,0.1-4,0-6-0.3c2-0.3,4-0.4,6-0.3C229.1,247.8,231.1,247.9,233.1,248.1z"/>
	<path class="st1" d="M257.1,248.1c-4,0.3-8,0.3-12,0c2-0.3,4-0.4,6-0.3C253.1,247.8,255.1,247.9,257.1,248.1z"/>
	<path class="st1" d="M281.1,248.1c-4,0.3-8,0.3-12,0C273,247.8,277.1,247.8,281.1,248.1z"/>
	<path class="st1" d="M305.1,248.1c-4,0.3-8,0.3-12,0C297,247.8,301.1,247.8,305.1,248.1z"/>
	<path class="st1" d="M329.1,248.1c-4,0.3-8,0.3-12,0C321,247.8,325.1,247.8,329.1,248.1z"/>
	<path class="st1" d="M353.1,248.1c-4,0.3-8,0.3-12,0C345,247.8,349.1,247.8,353.1,248.1z"/>
	<path class="st1" d="M377.1,248.1c-4,0.3-8,0.3-12,0C369,247.8,373.1,247.8,377.1,248.1z"/>
	<path class="st1" d="M401.1,248.1c-4,0.3-8,0.3-12,0C393,247.8,397.1,247.8,401.1,248.1z"/>
	<path class="st1" d="M425.1,248.1c-4,0.3-8,0.3-12,0C417,247.8,421.1,247.8,425.1,248.1z"/>
	<path class="st1" d="M440.2,256.9c-0.3-2-0.3-4-0.3-6c0-1,0-1.9,0-2.8l0.2,0.2c-1.1,0-2.1,0-3.2-0.2c1-0.2,2.1-0.3,3.2-0.2h0.2v0.2
		c0,0.9,0,1.8,0,2.8C440.5,253,440.5,255,440.2,256.9z"/>
	<path class="st1" d="M440.2,280.9c-0.3-2-0.3-4-0.3-6c-0.1-2,0-4,0.3-6c0.3,2,0.3,4,0.3,6C440.6,277,440.5,279,440.2,280.9z"/>
	<path class="st1" d="M440.2,304.9c-0.3-4-0.3-8,0-12C440.6,296.9,440.6,301,440.2,304.9z"/>
	<path class="st1" d="M334.8,407.1c0,0.1-19.3,0.3-43.1,0.3s-43.1-0.1-43.1-0.3s19.3-0.3,43.1-0.3S334.8,407,334.8,407.1z"/>
	<path class="st1" d="M334.8,396c0,0.1-19.3,0.3-43.1,0.3s-43.1-0.1-43.1-0.3s19.3-0.3,43.1-0.3S334.8,395.9,334.8,396z"/>
</g>
<g id="freepik--Sign--inject-4">
	<rect x="65.9" y="310.3" class="st3" width="5.2" height="139.7"/>
	<circle class="st5" cx="68.5" cy="285.1" r="30.1"/>
	<path class="st12" d="M95.6,284.7c0-0.1,0-0.3-0.1-0.4c0-0.3,0-0.7-0.1-1.3c0-0.3,0-0.6-0.1-1s-0.1-0.7-0.2-1.1
		c-0.1-0.9-0.3-1.9-0.6-2.8c-0.6-2.5-1.6-5-3-7.2c-1.8-3-4.1-5.5-6.9-7.6c-7.3-5.5-16.9-7-25.4-3.8c-1.2,0.4-2.4,0.9-3.5,1.5
		c-0.6,0.3-1.1,0.7-1.7,1c-0.6,0.3-1.1,0.7-1.6,1.1c-1.1,0.8-2.1,1.7-3,2.6c-1,1-1.8,2-2.6,3.1c-1.7,2.2-3,4.7-3.8,7.4
		c-0.9,2.7-1.4,5.6-1.4,8.5s0.5,5.7,1.4,8.5c0.9,2.7,2.2,5.2,3.8,7.4c0.8,1.1,1.7,2.1,2.6,3.1c1,0.9,2,1.8,3.1,2.6
		c0.5,0.4,1.1,0.8,1.6,1.1c0.6,0.3,1.1,0.7,1.7,1c1.1,0.6,2.3,1.1,3.5,1.5c12.1,4.4,25.7-0.4,32.3-11.5c1.4-2.2,2.4-4.6,3-7.2
		c0.3-0.9,0.5-1.9,0.6-2.8c0.1-0.4,0.1-0.8,0.2-1.1c0.1-0.3,0-0.7,0.1-0.9c0-0.6,0.1-1,0.1-1.3C95.5,285,95.5,284.9,95.6,284.7
		c0,0.2,0,0.3,0,0.4c0,0.3,0,0.8,0,1.3c0,0.3,0,0.6,0,1s-0.1,0.7-0.1,1.1c-0.1,1-0.3,1.9-0.5,2.8c-0.6,2.6-1.6,5-3,7.3
		c-4,6.7-10.7,11.5-18.4,12.9c-4.8,0.9-9.8,0.5-14.4-1.2c-1.2-0.4-2.4-1-3.6-1.6c-0.6-0.3-1.1-0.7-1.7-1c-0.6-0.4-1.1-0.7-1.7-1.2
		c-1.1-0.8-2.1-1.7-3.1-2.6c-1-1-1.9-2.1-2.7-3.2c-1.7-2.3-3-4.8-3.9-7.5c-1.9-5.6-1.9-11.7,0-17.3c0.9-2.7,2.2-5.3,3.9-7.5
		c0.8-1.1,1.7-2.2,2.7-3.2s2-1.9,3.1-2.7c0.5-0.4,1.1-0.8,1.7-1.1c0.6-0.3,1.1-0.7,1.7-1c1.2-0.6,2.4-1.1,3.6-1.6
		c4.6-1.7,9.6-2.1,14.4-1.1c7.7,1.5,14.4,6.2,18.4,12.9c1.4,2.3,2.4,4.7,3,7.3c0.2,0.9,0.4,1.9,0.5,2.8c0.1,0.4,0.1,0.8,0.1,1.1
		c0,0.3,0,0.7,0,1c0,0.5,0,1,0,1.3C95.6,284.5,95.6,284.6,95.6,284.7z"/>
	<rect x="52.8" y="281.4" class="st8" width="31.4" height="6.5"/>
</g>
<g id="freepik--Fence--inject-4">
	<rect x="28.7" y="355.3" class="st1" width="5.1" height="94.5"/>
	<path class="st5" d="M36.4,352.1c0,2.9-2.3,5.2-5.2,5.2c-2.9,0-5.2-2.3-5.2-5.2c0-2.9,2.3-5.2,5.2-5.2l0,0
		C34.1,346.9,36.4,349.2,36.4,352.1z"/>
	<rect x="130.8" y="355.3" class="st1" width="5.1" height="94.5"/>
	<path class="st5" d="M138.6,352.1c0,2.9-2.3,5.2-5.2,5.2s-5.2-2.3-5.2-5.2c0-2.9,2.3-5.2,5.2-5.2l0,0
		C136.2,346.9,138.6,349.2,138.6,352.1z"/>
	<rect x="14" y="364.4" class="st5" width="131.7" height="23.6"/>
	<polygon class="st0" points="28.9,364.4 28.7,364.8 15.1,388 14,388 14,364.4 	"/>
	<polygon class="st0" points="62.2,364.4 48.4,388 30.4,388 35.9,378.6 44.2,364.4 	"/>
	<polygon class="st0" points="95.4,364.4 81.7,388 63.7,388 77.4,364.4 	"/>
	<polygon class="st0" points="128.7,364.4 114.9,388 96.9,388 110.7,364.4 	"/>
	<polygon class="st0" points="145.7,364.4 145.7,388 130.2,388 144,364.4 	"/>
	<rect x="14" y="400.8" class="st5" width="131.7" height="23.6"/>
	<polygon class="st0" points="28.9,400.8 28.7,401.2 15.1,424.4 14,424.4 14,400.8 	"/>
	<polygon class="st0" points="62.2,400.8 48.4,424.4 30.4,424.4 35.9,415 44.2,400.8 	"/>
	<polygon class="st0" points="95.4,400.8 81.7,424.4 63.7,424.4 77.4,400.8 	"/>
	<polygon class="st0" points="128.7,400.8 114.9,424.4 96.9,424.4 110.7,400.8 	"/>
	<polygon class="st0" points="145.7,400.8 145.7,424.4 130.2,424.4 144,400.8 	"/>
	<path class="st3" d="M145.7,388c0,0,0-0.1,0-0.4s0-0.7,0-1.2c0-1,0-2.6,0-4.6c0-4-0.1-9.9-0.1-17.4l0.1,0.1L14,364.7l0,0l0.3-0.3
		V388l-0.3-0.3l93.8,0.1l27.8,0.1h7.5h1.9L145.7,388h-0.6h-1.9h-7.4l-27.7,0.1H14h-0.3v-24H14l131.7,0.1h0.1v0.1
		c0,7.5-0.1,13.4-0.1,17.5c0,2,0,3.5,0,4.5c0,0.5,0,0.9,0,1.2S145.7,388,145.7,388z"/>
	<path class="st3" d="M145.7,424.4c0,0,0-0.1,0-0.4s0-0.7,0-1.2c0-1,0-2.6,0-4.6c0-4-0.1-9.9-0.1-17.4l0.1,0.1L14,401l0,0l0.3-0.3
		v23.6L14,424l93.8,0.1l27.8,0.1h7.5h1.9C145.5,424.3,145.7,424.3,145.7,424.4l-0.6-0.1h-1.9h-7.4l-27.7,0.1l-93.9,0.1h-0.3v-23.9
		h0.3l131.7,0.1h0.1v0.1c0,7.5-0.1,13.5-0.1,17.5c0,2,0,3.5,0,4.5c0,0.5,0,0.9,0,1.2S145.7,424.4,145.7,424.4z"/>
</g>
<g>
	<g>
		<path class="st3" d="M343.4,239.1h4.3c0.2,0,0.4,0.2,0.4,0.4v10.1c0,0.2-0.2,0.4-0.4,0.4h-4.3c-0.2,0-0.4-0.2-0.4-0.4v-10.1
			C343,239.2,343.1,239.1,343.4,239.1z"/>
		<path class="st3" d="M354.1,251.6h-16.6c-1,0-1.9-0.8-1.9-1.8l0,0l0,0c0-1,0.8-1.9,1.9-1.9l0,0h16.6c1,0,1.9,0.8,1.9,1.8l0,0l0,0
			C356,250.8,355.1,251.6,354.1,251.6L354.1,251.6z"/>
		<path class="st3" d="M347,281.3l-0.1-2.4l-2.5,1.1c-0.1,0.9-0.1,1.8,0,2.6c0,0.1,0,0.3,0.1,0.4c0.2,0.2,0.4,0.3,0.6,0.4
			c1.1,0.4,2,1.2,2.5,2.2c0.7,1.4,0.1,3.2-1.3,3.9c-0.1,0.1-0.2,0.1-0.3,0.1c-1.6,0.5-3.3-0.4-3.7-2c0-0.4,0-1-0.6-1
			c-0.8-0.1-1.2,1.1-1.1,1.7c0.1,3.6,3.5,4.7,4.9,4.8c1,0.1,1.9-0.1,2.8-0.6c1.4-0.8,2.3-2.1,2.6-3.7
			C351.7,284.1,346.7,281.6,347,281.3z"/>
		<path class="st1" d="M349.1,280.1l10.6-25.6c0.7-1.8-0.1-3.8-1.9-4.6c-0.4-0.2-0.9-0.3-1.3-0.3h-21.2c-1.9,0-3.5,1.6-3.5,3.5
			c0,0.5,0.1,0.9,0.3,1.4l10.6,25.6c0.7,1.8,2.8,2.6,4.6,1.9C348.1,281.7,348.7,281,349.1,280.1z"/>
		<path class="st5" d="M336.3,251.5l-2.8,2.7c0,0.1,0,0.2,0,0.3l0.9,2.2l5.2-5.2H336.3z"/>
		<polygon class="st5" points="346.6,251.5 343.1,251.5 335.5,259.2 336.5,261.6 		"/>
		<polygon class="st5" points="353.9,264.7 356.3,258.9 341.5,273.7 342.5,276.1 		"/>
		<path class="st5" d="M351.5,270.6l-7.9,7.9l0.3,0.6c0.2,0.6,0.7,1,1.3,1.2l3.9-3.9L351.5,270.6z"/>
		<polygon class="st5" points="353.4,251.5 350,251.5 337.5,264 338.5,266.4 		"/>
		<path class="st5" d="M358.2,253.5c-0.1-0.9-0.7-1.6-1.6-1.8l-17.2,17.1l1,2.4L358.2,253.5z"/>
	</g>
	<path class="st3" d="M666.9,343.3h17.8c1.5,0,2.6,1.2,2.6,2.6l0,0v8.1l0,0h-23.1l0,0v-8.1C664.3,344.5,665.5,343.3,666.9,343.3
		L666.9,343.3z"/>
	<path class="st3" d="M623.9,351.4h-3.8v-22.5c0-1,0.2-2,0.5-2.9l1.9-5.9c0-0.1,0.1-0.1,0.2-0.1c0,0,0,0,0.1,0.1l2.2,4l-0.6,1.8
		c-0.3,1-0.5,2-0.5,3L623.9,351.4L623.9,351.4z"/>
	<path class="st5" d="M717.3,355.5c-1.1-2.6-3.4-4.5-6.2-5h-94.8v-15.8c0-2.1-1.7-3.8-3.8-3.8l0,0h-45.8c-1.7,0-3.1,1.1-3.7,2.7
		l-1.4,4.3h5.1c1.2,0,2.3,0.5,3.1,1.4c0.7,0.9,1,2.1,0.8,3.2l-4.9,23.3c-0.4,1.8-2,3.1-3.9,3.1h-9.7c-0.1,1.5,0,3,0.3,4.4l0.5,2.3
		l-25.1,4.9c-0.4,0.1-0.7,0.4-0.8,0.8l-2.4,6.3c-0.2,0.3-0.3,0.6-0.3,0.9l0,0l0,0c-0.5,2.1-0.1,5.6,1.1,5.6h26.9l-1.1,1.4l-1.5,4.7
		h170.7C720.4,385,720,362,717.3,355.5z M599,341.1l-2.5,22.9c0,0.3-0.1,0.6-0.1,0.9c-1,4.7-5.2,7.9-10,7.9h-11.3
		c-1.9,0-3.5-1.6-3.5-3.5c0-0.2,0-0.5,0.1-0.7l5.3-27.5c0.4-1.8,1.9-3.1,3.8-3.1h15.4c1.6,0,2.9,1.3,2.9,2.9
		C599,341,599,341.1,599,341.1L599,341.1z"/>
	<path class="st4" d="M641,411.6l-72.7,1c-0.5,0-1.3-1.4-1.3-1.9v-8.1c0-0.5,0.4-0.9,0.9-0.9H641c0.5,0,0.9,0.4,0.9,0.8l0,0v8.1
		C641.8,411.2,641.5,411.6,641,411.6L641,411.6z"/>
	<path class="st5" d="M599,341.1l-2.5,22.9c0,0.3-0.1,0.6-0.1,0.9c-1,4.7-5.2,8-10,7.9h-11.2c-1.9,0-3.5-1.6-3.5-3.5
		c0-0.2,0-0.5,0.1-0.7l5.3-27.5c0.4-1.8,1.9-3.1,3.8-3.1h15.4c1.6,0,2.9,1.3,2.9,2.9C599,341,599,341.1,599,341.1L599,341.1z"/>
	<g>
		<g>
			<defs>
				<path id="SVGID_1_" d="M599,341.1l-2.5,22.9c0,0.3-0.1,0.6-0.1,0.9c-1,4.7-5.2,8-10,7.9h-11.2c-1.9,0-3.5-1.6-3.5-3.5
					c0-0.2,0-0.5,0.1-0.7l5.3-27.5c0.4-1.8,1.9-3.1,3.8-3.1h15.4c1.6,0,2.9,1.3,2.9,2.9C599,341,599,341.1,599,341.1L599,341.1z"/>
			</defs>
			<clipPath id="SVGID_2_">
				<use xlink:href="#SVGID_1_"  style="overflow:visible;"/>
			</clipPath>
			<g class="st13">
				<path class="st5" d="M720.4,402.2c0.1-0.6,0-1.2-0.2-1.8H549.8c-0.2,0.6-0.3,1.2-0.2,1.8H720.4z"/>
				<path class="st5" d="M563,333.6l-10.3,31.9c-0.8,2.5-1,5.3-0.4,7.9l4.4,20.4h59.6v-58.9c0-2.1-1.7-3.8-3.8-3.8l0,0h-45.8
					C565,330.9,563.5,332,563,333.6z"/>
			</g>
		</g>
	</g>
	<path class="st4" d="M575.1,372.6c-1.9,0-3.5-1.6-3.5-3.5c0-0.2,0-0.5,0.1-0.7l5.3-27.5c0.4-1.8,1.9-3.1,3.8-3.1h15.4
		c0.8,0,1.6,0.4,2.2,1c0.5,0.6,0.8,1.4,0.7,2.3l-2.6,22.8c0,0.3-0.1,0.6-0.1,0.9c-1,4.7-5.2,7.9-10,7.9L575.1,372.6z"/>
	<path class="st4" d="M552.1,368.9c0.1-1.1,0.3-2.2,0.7-3.3l8.9-27.6h5.1c1.2,0,2.3,0.5,3.1,1.4c0.7,0.9,1,2.1,0.8,3.2l-4.9,23.2
		c-0.4,1.8-2,3.1-3.9,3.1L552.1,368.9L552.1,368.9z"/>
	<path class="st3" d="M720.5,404.8H549.8c-1.3,0-1.3-4.7,0-4.7h170.6C721.8,400,721.8,404.8,720.5,404.8z"/>
	<path class="st3" d="M616.5,351.7c0,0,0,0.1,0,0.3v0.7c0,0.7,0,1.6-0.1,2.8c-0.1,2.5-0.2,6.1-0.3,10.5s-0.3,9.7-0.5,15.5
		c-0.1,1.5-0.1,3-0.2,4.5c0,1.6-0.3,3.2-1,4.6c-0.9,1.5-2.3,2.6-3.9,3c-1.6,0.4-3.3,0.6-5,0.6l-34.5-0.6l-10.5-0.3l-2.8-0.1H557
		c-0.1,0-0.2,0-0.3,0c0.1,0,0.2,0,0.3,0h3.6l10.5,0.1l34.5,0.5c1.6,0,3.3-0.1,4.9-0.6c1.5-0.4,2.8-1.3,3.6-2.7c0.7-1.4,1-2.9,1-4.4
		c0.1-1.5,0.1-3,0.2-4.5c0.2-5.8,0.5-11.1,0.7-15.5s0.4-7.9,0.5-10.5c0.1-1.2,0.1-2.1,0.2-2.8c0-0.3,0-0.5,0.1-0.7
		C616.4,352,616.4,351.9,616.5,351.7z"/>
	<path class="st3" d="M567.8,393.9c-0.2,0-0.3-5-0.3-11.2s0.1-11.2,0.3-11.2s0.3,5,0.3,11.2S568,393.9,567.8,393.9z"/>
	<path class="st3" d="M576.8,331.1c0,0.5-0.1,1.1-0.2,1.6c-0.2,1-0.4,2.5-0.7,4.4c-0.7,3.7-1.6,8.8-2.9,14.3s-2.5,10.6-3.5,14.2
		c-0.5,1.8-0.9,3.3-1.2,4.3c-0.1,0.5-0.3,1-0.5,1.5c0.1-0.5,0.2-1.1,0.3-1.6c0.3-1.1,0.6-2.5,1-4.3c0.9-3.6,2.1-8.6,3.3-14.2
		s2.3-10.6,3-14.3l0.9-4.3C576.4,332.1,576.6,331.6,576.8,331.1z"/>
	<path class="st5" d="M596.5,381.7c0.3-0.1,0.6-0.2,0.9-0.4c0.3-0.2,0.5-0.6,0.6-0.9c0.1-0.5,0.1-1-0.2-1.4
		c-0.3-0.5-0.9-0.8-1.5-0.8H594h-5c-0.8,0-1.5,0.6-1.5,1.4c-0.1,0.7,0.3,1.5,1,1.7c0.2,0.1,0.3,0.1,0.5,0.1h1.7h2
		c1.2,0,2.2,0,2.9,0.1c0.4,0,0.7,0,1,0.1c-0.3,0.1-0.7,0.1-1,0.1c-0.7,0-1.7,0.1-2.9,0.1h-2H589c-0.2,0-0.4,0-0.7-0.1
		c-0.9-0.3-1.5-1.3-1.4-2.2c0-1.1,0.9-1.9,2-1.9h5.2h2.3c0.7,0,1.4,0.4,1.8,1c0.1,0.3,0.2,0.6,0.2,0.9s0,0.5-0.1,0.8
		c-0.1,0.4-0.4,0.8-0.8,1c-0.2,0.1-0.5,0.2-0.8,0.3C596.6,381.8,596.5,381.7,596.5,381.7z"/>
	<path class="st3" d="M709.2,357.2c0,0.1-7,0.3-15.6,0.3s-15.6-0.1-15.6-0.3s7-0.3,15.6-0.3S709.2,357.1,709.2,357.2z"/>
	<path class="st3" d="M709.2,360.3c0,0.1-7,0.3-15.6,0.3s-15.6-0.1-15.6-0.3s7-0.3,15.6-0.3S709.2,360.2,709.2,360.3z"/>
	<path class="st3" d="M709.2,363.4c0,0.1-7,0.3-15.6,0.3s-15.6-0.1-15.6-0.3s7-0.3,15.6-0.3S709.2,363.3,709.2,363.4z"/>
	<path class="st3" d="M709.2,366.5c0,0.1-7,0.3-15.6,0.3s-15.6-0.1-15.6-0.3s7-0.3,15.6-0.3S709.2,366.4,709.2,366.5z"/>
	<path class="st3" d="M709.2,369.6c0,0.1-7,0.3-15.6,0.3s-15.6-0.1-15.6-0.3s7-0.3,15.6-0.3S709.2,369.5,709.2,369.6z"/>
	<path class="st3" d="M709.2,372.7c0,0.1-7,0.3-15.6,0.3s-15.6-0.1-15.6-0.3s7-0.3,15.6-0.3S709.2,372.6,709.2,372.7z"/>
	<path class="st3" d="M709.2,375.8c0,0.1-7,0.3-15.6,0.3S678,376,678,375.8s7-0.3,15.6-0.3S709.2,375.7,709.2,375.8z"/>
	<path class="st3" d="M532.4,449.5c-9.4,0-17.2-9-17.2-18.4s8.2-17.2,17.6-17.2l150.6-6.8c7.8-0.4,15.2,3.7,18.9,10.5
		c2.2,4.3,2.8,9.2,1.7,14c-4,18.2-19.1,18-25,17.6S532.4,449.5,532.4,449.5z"/>
	<circle class="st4" cx="532.4" cy="431" r="14.1"/>
	<circle class="st4" cx="682.4" cy="428.1" r="18.2"/>
	<path class="st4" d="M684.4,410.5l-0.4,0.1l-1.2,0.1l-4.4,0.4c-3.8,0.4-9.4,0.9-16.3,1.4c-13.8,1.1-32.8,2.4-53.8,3.4
		s-40.2,1.3-54,1.4c-6.9,0-12.5,0-16.4,0l-4.4-0.1h-1.2c-0.1,0-0.3,0-0.4,0h0.4h1.2h4.4l16.4-0.2c13.8-0.2,32.9-0.6,53.9-1.5
		s40.1-2.2,53.8-3.2l16.3-1.3l4.4-0.4l1.2-0.1C684.1,410.6,684.3,410.5,684.4,410.5z"/>
	<path class="st4" d="M678.6,444.6c0,0.1-32.8,0.3-73.2,0.3s-73.2-0.1-73.2-0.3s32.7-0.3,73.2-0.3S678.6,444.4,678.6,444.6z"/>
	<path class="st5" d="M557.4,393.4c-0.4-1.2-0.7-2.3-1-3.5c-0.6-2.2-1.5-5.2-2.4-8.6c-0.8-2.9-1.4-5.8-1.9-8.7
		c-0.1-0.9-0.2-1.8-0.2-2.7c0-0.3,0-0.7,0.1-1c0.1,0,0,1.4,0.4,3.6s1.1,5.3,2,8.6s1.7,6.4,2.3,8.6c0.3,1.1,0.5,2,0.6,2.6
		C557.4,392.7,557.5,393,557.4,393.4z"/>
	<path class="st8" d="M672.4,439.3c-0.4-0.2-0.7-0.4-1-0.7c-0.9-0.7-1.7-1.5-2.3-2.5c-1-1.4-1.7-2.9-2.2-4.6
		c-1.2-4.1-0.3-8.5,2.3-11.8c1-1.4,2.3-2.5,3.7-3.4c1-0.6,2-1.1,3.1-1.4c0.4-0.1,0.8-0.2,1.2-0.3c-1.4,0.5-2.8,1.2-4.1,2
		c-1.4,0.9-2.6,2.1-3.6,3.4c-2.5,3.3-3.3,7.5-2.2,11.4c0.4,1.6,1.1,3.1,2,4.5C670.2,437.2,671.2,438.4,672.4,439.3z"/>
	<path class="st12" d="M593.3,353.8c-2.5,2.1-5.1,4.1-7.8,6c-2.6,2-5.3,3.8-8.1,5.5c2.5-2.1,5.1-4.1,7.8-6
		C587.8,357.4,590.5,355.5,593.3,353.8z"/>
	<path class="st12" d="M594.5,349.6c-2.2,1.8-4.4,3.5-6.8,5.1c-2.3,1.7-4.6,3.2-7.1,4.6c2.2-1.8,4.4-3.5,6.8-5.1
		C589.7,352.5,592.1,351,594.5,349.6z"/>
	<path class="st12" d="M565.2,356.1c-1,1-2.2,2-3.5,2.7c-1.2,0.9-2.4,1.7-3.8,2.3c1-1,2.2-1.9,3.5-2.7
		C562.6,357.5,563.8,356.8,565.2,356.1z"/>
	<path class="st12" d="M567.2,352.2c-2.5,2.4-5.3,4.5-8.2,6.4C561.5,356.1,564.3,354,567.2,352.2z"/>
	<path class="st5" d="M598.6,376.5c-3.7,0.3-7.5,0.3-11.2,0C591.1,376.1,594.9,376.1,598.6,376.5z"/>
	<path class="st8" d="M529.6,442.9c-0.4,0-0.8-0.1-1.2-0.3c-1.1-0.3-2.1-0.9-3.1-1.5c-1.4-1-2.6-2.2-3.5-3.6
		c-2.4-3.6-2.7-8.1-0.9-12c0.7-1.5,1.7-2.9,3-4.1c0.8-0.8,1.8-1.4,2.8-1.9c0.4-0.2,0.8-0.3,1.2-0.4c-1.4,0.7-2.6,1.6-3.8,2.6
		c-1.2,1.1-2.1,2.5-2.8,4c-1.8,3.7-1.5,8.1,0.8,11.5c0.9,1.4,2,2.6,3.4,3.6C526.7,441.7,528.1,442.4,529.6,442.9z"/>
	<path class="st12" d="M550.9,387.4c0,0.1-5.4,0.3-12.1,0.3s-12.1-0.1-12.1-0.3s5.4-0.3,12.1-0.3S550.9,387.3,550.9,387.4z"/>
	<g>
		<path class="st3" d="M448.1,165.3l-13.7,3.1l10.9-14.7l0.2,0.1l-0.6-2.5l-0.2,0.3l-17.3-6.8l14.7-5.4l-0.7-2.8l-93,34l-1.3,0.5
			l5.5,18.7l96.1-21.6L448.1,165.3z M419.6,147.6l-13.7,15.2l-15.6-4.5L419.6,147.6z M404.5,164.3l-11,12.3l-5-16.9L404.5,164.3z
			 M353.6,171.8l28.8-10.5l-14.5,13L353.6,171.8z M386.5,179.2l-28.8,6.5l10.7-9.6L386.5,179.2z M366.1,175.7L354.6,186l-3.8-12.9
			L366.1,175.7z M370.1,174.6l13.9-12.5l4.6,15.7L370.1,174.6z M395.3,177.2l11.1-12.3l19.2,5.5L395.3,177.2z M407.8,163.4
			l13.4-14.8l6,20.4L407.8,163.4z M425.5,145.9l18,7.1l-11.4,15.4L425.5,145.9z"/>
		<path class="st3" d="M390.2,134.5c-3.5,1-5.6,4.8-4.5,8.3c0.4,1.5,1.4,2.8,2.8,3.7l-0.6,10.5l22.1-7.5l-11.1-8.3
			c0-0.7-0.1-1.5-0.3-2.2C397.5,135.5,393.8,133.5,390.2,134.5L390.2,134.5z"/>
		<path class="st3" d="M351.9,190l-1.9-7.2l-6.4,15.7c-3.4,1.5-4.8,5.5-3.3,8.9s5.5,4.8,8.9,3.3s4.8-5.5,3.3-8.9
			c-0.1-0.2-0.2-0.3-0.3-0.5l11.7-14.1L351.9,190z"/>
		<path class="st5" d="M371.4,161.3l-20.7,6.3c-6.4,1.9-10,8.7-8.1,15.1l0,0l0,0c1.9,6.4,8.7,10,15.1,8.1l0,0l20.7-6.3
			c0.4-0.1,0.6-0.5,0.5-0.9l0,0l-6.6-21.7C372.1,161.4,371.7,161.2,371.4,161.3z"/>
	</g>
	<path class="st3" d="M542.2,280.3v-0.1L476.1,157l-2.7,1.1l7.9,14.8l-0.1,0.1L462,162.6l-2.4,0.9l-4.9,20.4l-6.1-16.1l-2.7,1.1
		L496,301v0.1l50.7,80.6l1-0.1l1.2-0.2l0.9-0.1l-10.5-16.7l6.1-15.8l16.2,6l7.2,23.7l0.8-0.1l1.1-0.2l1-0.1L542.2,280.3z
		 M549.5,314.4l-20.3-5.2l11.8-22.9L549.5,314.4z M527.4,308.7l-24.9-6.4l36.8-16.8L527.4,308.7z M536.8,276.4l-25.9-7.2l10.6-21.3
		L536.8,276.4z M509.2,268.7l-22.8-6.3l33.5-15.3L509.2,268.7z M518.4,242l-23.9-8.3l8.5-20.3L518.4,242z M492.8,233.1l-21-7.3
		l29.7-13.5L492.8,233.1z M499.7,207.1l-21.7-9.4l6.4-19.1L499.7,207.1z M482.8,177.5l-6.5,19.5l-18.6-8L482.8,177.5z M461.2,164.1
		l17.9,9.7l-22.8,10.3L461.2,164.1z M457.2,190.7l18.5,8l-7.3,21.6L457.2,190.7z M477.4,199.4l20.8,9L470,221.2L477.4,199.4z
		 M471.1,227.4l21,7.3l-9.6,22.8L471.1,227.4z M493.8,235.3l22.7,7.9l-32.2,14.6L493.8,235.3z M485,263.9l23.4,6.5l-11.9,23.8
		L485,263.9z M510.2,270.9l25.4,7l-37.4,17L510.2,270.9z M501.2,303.9l25.5,6.5l-9.6,18.7L501.2,303.9z M528.4,310.9l20.7,5.3
		l-30.7,14L528.4,310.9z M538.2,362.8l-13.6-21.6l19.2,7.1L538.2,362.8z M544.5,346.6l-21.5-8l-0.5-0.8l30-13.7l0.3,1L544.5,346.6z
		 M546.2,347.2l7.4-19.2l7.5,24.7L546.2,347.2z"/>
	<g>
		
			<rect x="281" y="249.3" transform="matrix(8.307771e-02 -0.9965 0.9965 8.307771e-02 -98.2511 686.1177)" class="st12" width="85.5" height="294.3"/>
		<path class="st3" d="M466.9,451.3c0.1-1.2,2.6-31.5,6.9-85.2l0.1,0.2L180.6,342l0,0l0.3-0.2c-2.5,29.4-4.8,58-7.1,85.1l-0.2-0.3
			l209.6,17.6L466.9,451.3l-1.4-0.1l-4.2-0.3l-16.5-1.3l-61.4-5l-209.8-17.3h-0.2V427c2.3-27.1,4.6-55.8,7.1-85.2v-0.3h0.3l0,0
			L474,365.9h0.2v0.2C469.6,419.8,467,450,466.9,451.3z"/>
		
			<rect x="195.3" y="344.2" transform="matrix(9.326276e-02 -0.9956 0.9956 9.326276e-02 -180.2278 583.3913)" class="st5" width="69.8" height="92.9"/>
		<path class="st1" d="M383.6,437.5c-2,0.1-4,0-6-0.2l-0.2-0.3l0,0v-0.3v-0.3c0-0.2,0.1-0.4,0.1-0.6c0.1-0.4,0.1-0.7,0.1-1.1
			c0.1-0.7,0.1-1.3,0.2-1.9c0-0.6,0.1-1.2,0.3-1.7c0.1,0.6,0.1,1.2,0,1.8c0,0.6-0.1,1.2-0.1,1.9c-0.1,0.4-0.1,0.7-0.1,1.1v0.6
			l-0.1,0.3v0.3l0,0l-0.2-0.3C379.6,436.8,381.6,437.1,383.6,437.5z"/>
		<path class="st1" d="M410.8,439.7c-2.3,0.1-4.5,0-6.8-0.3c-2.3-0.1-4.5-0.4-6.8-0.8c2.3-0.1,4.5,0,6.8,0.3
			C406.3,439,408.6,439.2,410.8,439.7z"/>
		<path class="st1" d="M437.9,441.8c-2.3,0.1-4.5,0-6.8-0.3c-2.3-0.1-4.5-0.4-6.8-0.8c2.3-0.1,4.5,0,6.8,0.3
			C433.4,441.1,435.7,441.4,437.9,441.8z"/>
		<path class="st1" d="M457.9,437.4c0.1,2,0,4-0.2,6c-0.6,0.5-0.2,0.1-0.3,0.2l-0.3-0.1h-0.3l-0.6-0.1l-1.1-0.1l-1.9-0.2
			c-0.6,0-1.2-0.1-1.7-0.3c0.6-0.1,1.2-0.1,1.8,0l1.9,0.1l1.1,0.1h0.6h0.3h0.3c-0.1,0.1,0.3-0.2-0.3,0.2
			C457.3,441.3,457.5,439.3,457.9,437.4z"/>
		<path class="st1" d="M459.7,415c0.1,3.8-0.2,7.5-0.8,11.2c-0.1-1.9,0-3.8,0.2-5.6C459.1,418.7,459.3,416.8,459.7,415z"/>
		<path class="st1" d="M461.5,392.6c0.1,1.9,0.1,3.8-0.2,5.6c-0.1,1.9-0.3,3.7-0.7,5.6c-0.1-1.9-0.1-3.8,0.2-5.6
			C460.9,396.3,461.1,394.4,461.5,392.6z"/>
		<path class="st1" d="M456.9,374.9c2-0.1,4,0,6,0.2l0.2,0.3l0,0v0.3v0.3c0,0.2-0.1,0.4-0.1,0.6c-0.1,0.4-0.1,0.7-0.1,1.1
			c-0.1,0.7-0.1,1.3-0.2,1.9c0,0.6-0.1,1.2-0.3,1.7c-0.1-0.6-0.1-1.2,0-1.8c0-0.6,0.1-1.2,0.1-1.9c0.1-0.4,0.1-0.7,0.1-1.1v-0.6
			l0.1-0.3v-0.3l0,0l0.2,0.3C460.8,375.6,458.8,375.4,456.9,374.9z"/>
		<path class="st1" d="M429.7,372.8c2.3-0.1,4.5,0,6.8,0.3c2.3,0.1,4.5,0.4,6.8,0.8c-2.3,0.1-4.5,0-6.8-0.3
			C434.2,373.5,432,373.2,429.7,372.8z"/>
		<path class="st1" d="M402.6,370.6c2.3-0.1,4.5,0,6.8,0.3c2.3,0.1,4.5,0.4,6.8,0.8c-2.3,0.1-4.6,0-6.8-0.3
			C407.1,371.3,404.8,371.1,402.6,370.6z"/>
		<path class="st1" d="M382.5,375.1c-0.1-2,0-4,0.2-6c0.6-0.5,0.2-0.1,0.3-0.2h0.3l0.3,0.1h0.6l1.1,0.1l1.9,0.2
			c0.6,0,1.2,0.1,1.7,0.3c-0.6,0.1-1.2,0.1-1.8,0l-1.9-0.1l-1.1-0.1h-0.6h-0.3l-0.3-0.1l0.3-0.2C383.2,371.1,383,373.1,382.5,375.1z
			"/>
		<path class="st1" d="M380.8,397.5c-0.1-1.9,0-3.8,0.2-5.6c0.1-1.9,0.3-3.7,0.7-5.6c0.1,1.9,0,3.8-0.2,5.6
			C381.4,393.8,381.2,395.6,380.8,397.5z"/>
		<path class="st1" d="M379,419.9c-0.1-1.9,0-3.8,0.2-5.6c0.1-1.9,0.3-3.7,0.7-5.6c0.1,1.9,0,3.8-0.2,5.6
			C379.6,416.2,379.4,418,379,419.9z"/>
		<polygon class="st5" points="180.6,419.9 216.8,379.8 234.3,408.6 249.2,395.4 272.9,428.5 		"/>
		<path class="st5" d="M245.8,377.1c-0.4,4-3.9,7-7.9,6.6s-7-3.9-6.6-7.9s3.9-7,7.9-6.6l0,0C243.2,369.6,246.1,373.1,245.8,377.1z"
			/>
		<g class="st14">
			<polygon points="180.6,419.9 216.8,379.8 234.3,408.6 249.2,395.4 272.9,428.5 			"/>
		</g>
		<g class="st14">
			<path d="M245.8,377.1c-0.4,4-3.9,7-7.9,6.6s-7-3.9-6.6-7.9s3.9-7,7.9-6.6l0,0C243.2,369.6,246.1,373.1,245.8,377.1z"/>
		</g>
		<path class="st3" d="M372.4,386.6c0,0.1-18-1-40.2-2.6s-40.2-3-40.2-3.1c0-0.2,18.1,1,40.2,2.6C354.4,385,372.4,386.4,372.4,386.6
			z"/>
		<path class="st3" d="M372.6,400.1c0,0.1-18.2-1-40.7-2.6s-40.7-3-40.7-3.2c0-0.1,18.2,1,40.7,2.6
			C354.4,398.6,372.6,400,372.6,400.1z"/>
		<path class="st3" d="M372.7,413.7c0,0.1-18.4-1.1-41.1-2.7s-41.1-3-41-3.2c0-0.1,18.4,1.1,41.1,2.7S372.7,413.5,372.7,413.7z"/>
		<path class="st3" d="M371,426.9c0,0.1-18.5-1-41.2-2.7s-41.1-3.1-41.1-3.2s18.5,1,41.2,2.7C352.6,425.3,371,426.7,371,426.9z"/>
		
			<rect x="311.6" y="350.1" transform="matrix(8.307771e-02 -0.9965 0.9965 8.307771e-02 -82.8027 652.6494)" class="st5" width="3.4" height="42.4"/>
		<path class="st1" d="M419.5,416.7c-0.1,0,0.1-5,0.6-11.1s1-11,1.1-11s-0.1,5-0.6,11.1S419.7,416.7,419.5,416.7z"/>
		<path class="st1" d="M430.5,406.8c0,0.1-4.8-0.2-10.6-0.8c-5.8-0.6-10.6-1.2-10.6-1.3c3.5,0.1,7.1,0.3,10.6,0.8
			C425.8,406.1,430.5,406.6,430.5,406.8z"/>
		<path class="st3" d="M474,366.1c0,0-0.2-0.1-0.7-0.4l-1.8-1.1l-7.3-4.3l-26.9-16l-89.8-53.6h0.2l-13.1,4L225.7,328l-33,10l-9,2.7
			l-2.3,0.7c-0.5,0.2-0.8,0.2-0.8,0.2l0.8-0.3l2.3-0.7l9-2.8l33-10.2l108.8-33.4l13.1-4h0.1h0.1l89.7,53.8l26.7,16.1l7.2,4.4
			l1.8,1.1L474,366.1z"/>
	</g>
	<rect x="344.5" y="208.7" class="st3" width="2" height="33.3"/>
</g>
<g>
	
		<rect x="458.7" y="146.8" transform="matrix(0.7929 -0.6093 0.6093 0.7929 9.7141 322.644)" class="st3" width="41.7" height="0.5"/>
	
		<rect x="430.1" y="126.7" transform="matrix(1.562275e-02 -0.9999 0.9999 1.562275e-02 316.9275 575.9174)" class="st3" width="41.7" height="0.5"/>
	
		<rect x="449.5" y="116.1" transform="matrix(0.5514 -0.8342 0.8342 0.5514 117.9334 452.1961)" class="st3" width="59.9" height="0.7"/>
	<rect x="504.8" y="115" class="st3" width="1.9" height="1.9"/>
	<rect x="463.5" y="97.4" class="st3" width="2" height="2"/>
</g>
</svg>
