<?xml version="1.0" encoding="utf-8"?>
<!-- Generator: Adobe Illustrator 23.0.3, SVG Export Plug-In . SVG Version: 6.00 Build 0)  -->
<svg version="1.1" id="Layer_1" xmlns="http://www.w3.org/2000/svg" xmlns:xlink="http://www.w3.org/1999/xlink" x="0px" y="0px"
	 viewBox="0 0 224.6 205.7" style="enable-background:new 0 0 224.6 205.7;" xml:space="preserve">
<style type="text/css">
	.st0{fill:#DFF2F8;}
	.st1{fill:#44C5E1;}
	.st2{fill:#EF436A;}
	.st3{fill:#20B573;}
	.st4{fill:#2C3C46;}
	.st5{fill:#FBBC9C;}
	.st6{fill:#010101;}
	.st7{fill:#C3B8C2;}
	.st8{fill:#3C64AF;}
	.st9{fill:none;stroke:#125BA9;stroke-width:0.75;stroke-miterlimit:10;}
	.st10{fill:#F6A0A0;}
	.st11{fill:none;stroke:#EE8F8F;stroke-width:0.75;stroke-miterlimit:10;}
	.st12{fill:none;stroke:#EFAA87;stroke-width:0.4825;stroke-miterlimit:10;}
	.st13{fill:#EFAA87;}
	.st14{fill:#181E21;}
	.st15{fill:#E49E7D;}
	.st16{clip-path:url(#SVGID_4_);fill:#179BD7;}
	.st17{fill:#333333;}
	.st18{fill:#F1F8FC;}
	.st19{fill:#0176AB;}
	.st20{fill:#5C5C5C;}
	.st21{fill:#A9D3E1;}
	.st22{fill:#FFFFFF;}
	.st23{fill:#4B6F89;}
	.st24{fill:none;stroke:#A9D3E1;stroke-width:2;stroke-miterlimit:10;}
	.st25{fill:#BAD2DB;}
	.st26{fill:#FFD87D;}
	.st27{fill:#EDAF22;}
	.st28{fill:#179BD7;}
	.st29{fill:#F9DD60;}
	.st30{fill:#279AD6;}
	.st31{fill:#E05E68;}
</style>
<circle class="st0" cx="121.7" cy="102.9" r="102.9"/>
<g>
	<path class="st1" d="M74.1,97.2h-5.4c-0.5,0-0.9-0.4-0.9-0.9V80.8c0-0.5,0.4-0.9,0.9-0.9h5.4c0.5,0,0.9,0.4,0.9,0.9v15.5
		C75,96.8,74.6,97.2,74.1,97.2z"/>
	<path class="st2" d="M83.9,97.2h-5.4c-0.5,0-0.9-0.4-0.9-0.9V70.6c0-0.5,0.4-0.9,0.9-0.9h5.4c0.5,0,0.9,0.4,0.9,0.9v25.7
		C84.8,96.8,84.4,97.2,83.9,97.2z"/>
	<path class="st3" d="M93.6,97.2h-5.4c-0.5,0-0.9-0.4-0.9-0.9V59.6c0-0.5,0.4-0.9,0.9-0.9h5.4c0.5,0,0.9,0.4,0.9,0.9v36.6
		C94.5,96.8,94.1,97.2,93.6,97.2z"/>
	<path class="st4" d="M103.4,97.2H98c-0.5,0-0.9-0.4-0.9-0.9V50c0-0.5,0.4-0.9,0.9-0.9h5.4c0.5,0,0.9,0.4,0.9,0.9v46.3
		C104.2,96.8,103.8,97.2,103.4,97.2z"/>
	<path class="st4" d="M95.4,41.5L93.5,42l1.3,1.1L80.9,59c-0.2,0.2-0.4,0.2-0.6,0.1l-4.3-2.8c-0.2-0.1-0.5-0.1-0.7,0.1l-16,22.3
		c-0.2,0.2-0.1,0.5,0.1,0.7s0.5,0.1,0.7-0.1l15.4-21.5c0.2-0.2,0.5-0.3,0.7-0.1l4.2,2.7c0.2,0.1,0.5,0.1,0.6-0.1l14.6-16.6l1.3,1.1
		l0.2-1.9l0.2-1.9L95.4,41.5z"/>
</g>
<g>
	<g>
		<g>
			<polygon class="st5" points="30.3,155.1 29.6,166.5 24.3,166.3 24.5,154.7 			"/>
			<g>
				<g>
					<path class="st6" d="M30,165.2l9.6,4.4c0.6,0.3,1,1,0.8,1.7l0,0H23.4l0.6-6.1L30,165.2z"/>
					
						<rect x="23.1" y="171.3" transform="matrix(-1 -1.224647e-16 1.224647e-16 -1 63.6911 344.4308)" class="st7" width="17.4" height="1.8"/>
				</g>
			</g>
		</g>
		<g>
			<polygon class="st5" points="13.2,155.1 12.5,166.5 7.2,166.3 7.4,154.7 			"/>
			<g>
				<g>
					<path class="st6" d="M12.8,165.2l9.6,4.4c0.6,0.3,1,1,0.8,1.7l0,0H6.3l0.6-6.1L12.8,165.2z"/>
					
						<rect x="6" y="171.3" transform="matrix(-1 -1.224647e-16 1.224647e-16 -1 29.4706 344.4308)" class="st7" width="17.4" height="1.8"/>
				</g>
			</g>
		</g>
		<g>
			<polygon class="st8" points="27.3,101.5 7.1,103.1 4.5,159.7 15.5,159.7 19.1,117 23.9,135.3 22.3,160.4 31.7,160.4 34.9,132.6 
							"/>
			<line class="st9" x1="23.6" y1="114.5" x2="19.1" y2="117"/>
		</g>
	</g>
	<g>
		<g>
			<g>
				<g>
					<path class="st5" d="M48.7,98.4L35.1,100c-1.8,0.2-3.3-1.3-3-3.1l0.3-2L49,95.2L48.7,98.4z"/>
					<g>
						<path class="st5" d="M48,96.2c-0.5,1.6,0.3,3.3,1.9,3.9c1.6,0.5,3.3-0.3,3.9-1.9c0.5-1.6-0.3-3.3-1.9-3.9
							C50.3,93.7,48.5,94.6,48,96.2z"/>
						<path class="st5" d="M52,94.3l3.3,0.3c0.3,0,0.5,0.2,0.5,0.5l0,0c0,0.2-0.2,0.4-0.4,0.5l-3.5,0.3L52,94.3z"/>
					</g>
				</g>
				<path class="st5" d="M36.4,95.6L29,84.1l-3.2,5.2c0,0,3.7,6.6,6.8,9.7C35.7,102.2,36.4,95.6,36.4,95.6z"/>
			</g>
		</g>
		<g>
			<path class="st10" d="M27.2,74.8c0,0,5.1,3,4.3,12.5l-4.7-1.1L27.2,74.8z"/>
		</g>
		<g>
			<path class="st10" d="M17.1,71.7c-5.1,0-10.8,1.8-10.8,1.8l0.2,32.3l21.4-1.6l-0.2-28.2c0-0.5-0.3-1-0.7-1.2L21,72.1
				C21,72.1,18.1,71.7,17.1,71.7z"/>
			<line class="st11" x1="27.8" y1="86.5" x2="27.8" y2="80.3"/>
		</g>
		<g>
			<g>
				<path class="st5" d="M8.8,84.3l-1.4,16c0,0-1.5,3.2-4.2-0.1c-2.7-3.3-0.4-16.4-0.4-16.4L8.8,84.3z"/>
				<g>
					<path class="st10" d="M9.5,87.7c0,0,1.7-13.6-2-14.3C3.6,72.7,0,81.8,0,89.4L9.5,87.7z"/>
					<polyline class="st11" points="8.5,87.8 9.9,87.3 10.2,80.9 					"/>
				</g>
			</g>
			<g>
				<g>
					<path class="st5" d="M17.9,85.3c0,0,0.8-2.8,3.6-3.1c2.8-0.3,3.6,1.9,3.1,3.4c-0.5,1.5-2.4,3.8-5.1,2.6
						C16.7,87.1,17.9,85.3,17.9,85.3z"/>
					<path class="st5" d="M22.5,82.3c0,0,2.8,0.3,4.8,1.3c0.2,0.1,0.3,0.3,0.3,0.6l0,0c0,0.3-0.3,0.5-0.6,0.5l-3.8-0.7L22.5,82.3z"
						/>
				</g>
				<g>
					<polygon class="st5" points="6.8,101.1 19.5,88.3 17.9,85.3 5.6,93.2 					"/>
					<line class="st12" x1="8.2" y1="91.6" x2="5.6" y2="93.2"/>
				</g>
			</g>
		</g>
	</g>
	<g>
		<path class="st5" d="M21.8,66.9l-0.6,5.2c-0.2,1.8-1.4,2.7-3.2,2.4l0,0c-1.5-0.2-3-1.1-2.8-2.7l0.8-8.2L21.8,66.9z"/>
		<path class="st13" d="M21.2,71.7c0,0-5.9-2.1-5.4-7.4c0.1-1.6,6,2.4,6,2.4L21.2,71.7z"/>
		<path class="st5" d="M22.4,72.7l-2.5-1.2l-4.5,0.1L12.8,72c0,0-1,3.9,5.6,4.1C23.7,76.3,22.4,72.7,22.4,72.7z"/>
		<g>
			<path class="st14" d="M25.2,60.1c0,0,5.1-3.8,2.8-7.3c-2.3-3.5-6.5-0.5-6.5-0.5L25.2,60.1z"/>
			<path class="st14" d="M21.2,51.4c0,0-14.3-2-8,9.1l1.6-4.5L21.2,51.4z"/>
			<path class="st14" d="M25.5,54.5c0,0,2.4,2-0.6,6.4l-0.8-5.6L25.5,54.5z"/>
			<path class="st15" d="M22.8,62.2c-0.1,1.2,0.7,2.3,1.9,2.4c1.2,0.1,2.2-0.7,2.4-1.9c0.1-1.2-0.7-2.3-1.9-2.4
				C24,60.1,23,61,22.8,62.2z"/>
			<path class="st5" d="M19.5,68.7L19.5,68.7c3,0.2,5.6-2.2,5.8-4.7l0.4-5.3c0.3-3.2-2-6-5-6.3l0,0c-3.1-0.4-6.5,1.9-6.9,5.1
				l-0.3,4.1C13.3,65.4,16,68.3,19.5,68.7z"/>
			<path class="st14" d="M25.8,57.5c0,0,0.2-1.4-2.5-1.7c-2.7-0.3-6.2-0.1-8.2,2.3l0,3.8l-2.4-2.4l1.3-5.7l7.3-2.4l4.4,3L25.8,57.5z
				"/>
			<g>
				<path class="st5" d="M10.8,61.4c-0.1,1.2,0.7,2.3,1.8,2.4c1.2,0.1,2.2-0.7,2.3-1.9c0.1-1.2-0.7-2.3-1.8-2.4
					C12,59.4,11,60.2,10.8,61.4z"/>
			</g>
			<path class="st14" d="M23.3,52.5c0,0,0.6-1.7-1.6-2.6c-2-0.8-4-0.5-8.4,2.5L23.3,52.5z"/>
			<path class="st14" d="M24.8,66.4c0-0.3-0.2-0.6-0.5-0.8c-0.4-0.2-1.1-0.4-2.2-0.6c-1.3-0.2-3.2,0.2-4.2,0.5
				c-0.4,0.1-0.9-0.1-1.1-0.5c-0.7-1.4-1.9-4.5-1-8.2l-1.5,1.1l0.2,2.3c0,0,1.2,2.5-0.7,3.6c0,0-0.1,5.2,4.7,6.2
				c1.4,0.3,3,0,4.3-0.6C23.9,68.9,24.8,67.7,24.8,66.4z"/>
			<path class="st14" d="M15.2,59.2c0,0,3.2-0.7,2-3.8c-1.2-3.1-2.7,0.8-2.7,0.8L15.2,59.2z"/>
		</g>
	</g>
</g>
<g>
	<g>
		<g>
			<defs>
				<path id="SVGID_1_" d="M133.3,130.9l-48.7,16.2c-1.4,0.5-2.9-0.3-3.4-1.7l-9.3-27.9c-0.5-1.4,0.3-2.9,1.7-3.4l48.7-16.2
					c1.4-0.5,2.9,0.3,3.4,1.7l9.3,27.9C135.5,128.9,134.7,130.4,133.3,130.9z"/>
			</defs>
			<clipPath id="SVGID_2_">
				<use xlink:href="#SVGID_1_"  style="overflow:visible;"/>
			</clipPath>
		</g>
		<g>
			<defs>
				<path id="SVGID_3_" d="M133.3,130.9l-48.7,16.2c-1.4,0.5-2.9-0.3-3.4-1.7l-9.3-27.9c-0.5-1.4,0.3-2.9,1.7-3.4l48.7-16.2
					c1.4-0.5,2.9,0.3,3.4,1.7l9.3,27.9C135.5,128.9,134.7,130.4,133.3,130.9z"/>
			</defs>
			<use xlink:href="#SVGID_3_"  style="overflow:visible;fill:#179BD7;"/>
			<clipPath id="SVGID_4_">
				<use xlink:href="#SVGID_3_"  style="overflow:visible;"/>
			</clipPath>
			<circle class="st16" cx="122.3" cy="116.2" r="28.5"/>
		</g>
		<g>
			<defs>
				<path id="SVGID_5_" d="M133.3,130.9l-48.7,16.2c-1.4,0.5-2.9-0.3-3.4-1.7l-9.3-27.9c-0.5-1.4,0.3-2.9,1.7-3.4l48.7-16.2
					c1.4-0.5,2.9,0.3,3.4,1.7l9.3,27.9C135.5,128.9,134.7,130.4,133.3,130.9z"/>
			</defs>
			<clipPath id="SVGID_6_">
				<use xlink:href="#SVGID_5_"  style="overflow:visible;"/>
			</clipPath>
		</g>
	</g>
	
		<rect x="71.7" y="109.5" transform="matrix(0.949 -0.3153 0.3153 0.949 -30.3954 37.3116)" class="st17" width="56.8" height="6.1"/>
	
		<rect x="77.3" y="116.8" transform="matrix(0.949 -0.3153 0.3153 0.949 -32.4293 38.3735)" class="st18" width="50.1" height="5.2"/>
	
		<rect x="80.1" y="128.3" transform="matrix(0.949 -0.3153 0.3153 0.949 -36.0024 36.5513)" class="st19" width="29.7" height="2.6"/>
	
		<rect x="79.8" y="122.2" transform="matrix(0.949 -0.3153 0.3153 0.949 -34.3532 34.6884)" class="st20" width="20.5" height="2.6"/>
	
		<rect x="81.7" y="133.7" transform="matrix(0.949 -0.3153 0.3153 0.949 -37.8746 35.8754)" class="st19" width="20.5" height="2.6"/>
</g>
<g>
	<path class="st18" d="M115.3,96.1V75.5h6.2v14.3C121.5,93.3,118.7,96.1,115.3,96.1L115.3,96.1z"/>
	<rect x="115.3" y="48.2" class="st18" width="50.5" height="43.5"/>
	<polygon class="st18" points="165.8,45.9 164.1,44.8 162.4,45.9 160.7,44.8 159.1,45.9 157.4,44.8 155.7,45.9 154,44.8 152.3,45.9 
		150.6,44.8 149,45.9 147.3,44.8 145.6,45.9 143.9,44.8 142.2,45.9 140.5,44.8 138.9,45.9 137.2,44.8 135.5,45.9 133.8,44.8 
		132.1,45.9 130.4,44.8 128.8,45.9 127.1,44.8 125.4,45.9 123.7,44.8 122,45.9 120.3,44.8 118.7,45.9 117,44.8 115.3,45.9 
		115.3,48.2 165.8,48.2 	"/>
	<g>
		<rect x="139.7" y="77.7" class="st21" width="8.5" height="1.8"/>
		<rect x="156.1" y="68.2" class="st21" width="6.2" height="1.8"/>
		<rect x="118.7" y="68.2" class="st21" width="14.4" height="1.8"/>
		<rect x="153.7" y="72.9" class="st21" width="8.7" height="1.8"/>
		<rect x="118.7" y="72.9" class="st21" width="21.8" height="1.8"/>
		<rect x="153.7" y="77.7" class="st21" width="8.7" height="1.8"/>
		<rect x="118.7" y="77.7" class="st21" width="19.1" height="1.8"/>
		<rect x="153.7" y="82.4" class="st21" width="8.7" height="1.8"/>
		<rect x="118.7" y="82.4" class="st21" width="14.4" height="1.8"/>
		<rect x="134.9" y="68.2" class="st21" width="14.4" height="1.8"/>
		<rect x="134.9" y="82.4" class="st21" width="14.4" height="1.8"/>
		<rect x="156.1" y="87.1" class="st21" width="6.2" height="1.8"/>
		<rect x="118.7" y="87.1" class="st21" width="21.8" height="1.8"/>
	</g>
	<rect x="123" y="75.5" class="st22" width="50.5" height="67.7"/>
	<polygon class="st22" points="123,145.3 124.7,146.4 126.4,145.3 128.1,146.4 129.7,145.3 131.4,146.4 133.1,145.3 134.8,146.4 
		136.5,145.3 138.2,146.4 139.8,145.3 141.5,146.4 143.2,145.3 144.9,146.4 146.6,145.3 148.3,146.4 149.9,145.3 151.6,146.4 
		153.3,145.3 155,146.4 156.7,145.3 158.4,146.4 160,145.3 161.7,146.4 163.4,145.3 165.1,146.4 166.8,145.3 168.5,146.4 
		170.1,145.3 171.8,146.4 173.5,145.3 173.5,143 123,143 	"/>
	<rect x="143.2" y="52.7" class="st21" width="19.1" height="1.8"/>
	<rect x="138.7" y="134.9" class="st21" width="19.1" height="1.8"/>
	<rect x="161.4" y="80.1" class="st21" width="8.7" height="1.8"/>
	<rect x="126.4" y="80.1" class="st21" width="19.1" height="1.8"/>
	<rect x="147.5" y="80.1" class="st21" width="8.5" height="1.8"/>
	<rect x="147.5" y="94.3" class="st21" width="8.5" height="1.8"/>
	<rect x="163.9" y="84.8" class="st21" width="6.2" height="1.8"/>
	<rect x="126.4" y="84.8" class="st21" width="14.4" height="1.8"/>
	<rect x="161.4" y="89.5" class="st21" width="8.7" height="1.8"/>
	<rect x="126.4" y="89.5" class="st21" width="21.8" height="1.8"/>
	<rect x="161.4" y="94.3" class="st21" width="8.7" height="1.8"/>
	<rect x="126.4" y="94.3" class="st21" width="19.1" height="1.8"/>
	<rect x="161.4" y="99" class="st21" width="8.7" height="1.8"/>
	<rect x="126.4" y="99" class="st21" width="14.4" height="1.8"/>
	<rect x="142.6" y="84.8" class="st21" width="14.4" height="1.8"/>
	<rect x="142.6" y="99" class="st21" width="14.4" height="1.8"/>
	<rect x="163.9" y="103.7" class="st21" width="6.2" height="1.8"/>
	<rect x="161.4" y="126.3" class="st21" width="8.7" height="1.8"/>
	<rect x="126.4" y="103.7" class="st21" width="21.8" height="1.8"/>
	<rect x="147.5" y="108" class="st21" width="8.5" height="1.8"/>
	<rect x="161.4" y="108" class="st21" width="8.7" height="1.8"/>
	<rect x="126.4" y="108" class="st21" width="19.1" height="1.8"/>
	<rect x="161.4" y="112.7" class="st21" width="8.7" height="1.8"/>
	<rect x="126.4" y="112.7" class="st21" width="14.4" height="1.8"/>
	<rect x="142.6" y="112.7" class="st21" width="14.4" height="1.8"/>
	<rect x="163.9" y="117.5" class="st21" width="6.2" height="1.8"/>
	<rect x="126.4" y="117.5" class="st21" width="21.8" height="1.8"/>
	<g>
		<g>
			<path class="st23" d="M127.9,128.5h-0.6v-2.4h-0.8v-0.5h2.2v0.5h-0.8V128.5z"/>
			<path class="st23" d="M131.8,127c0,0.5-0.1,0.8-0.4,1.1c-0.2,0.3-0.6,0.4-1,0.4s-0.8-0.1-1-0.4c-0.2-0.3-0.4-0.6-0.4-1.1
				c0-0.5,0.1-0.9,0.4-1.1s0.6-0.4,1-0.4s0.8,0.1,1,0.4C131.7,126.2,131.8,126.6,131.8,127z M129.7,127c0,0.3,0.1,0.6,0.2,0.7
				c0.1,0.2,0.3,0.2,0.6,0.2c0.5,0,0.7-0.3,0.7-1c0-0.7-0.2-1-0.7-1c-0.2,0-0.4,0.1-0.6,0.2C129.7,126.5,129.7,126.7,129.7,127z"/>
			<path class="st23" d="M133.5,128.5h-0.6v-2.4h-0.8v-0.5h2.2v0.5h-0.8V128.5z"/>
			<path class="st23" d="M136.5,128.5l-0.2-0.7h-1.1l-0.2,0.7h-0.7l1-2.9h0.8l1,2.9H136.5z M136.2,127.3c-0.2-0.6-0.3-1-0.3-1.1
				c0-0.1,0-0.1-0.1-0.2c0,0.2-0.2,0.6-0.4,1.3H136.2z"/>
			<path class="st23" d="M137.5,128.5v-2.9h0.6v2.4h1.2v0.5H137.5z"/>
		</g>
	</g>
	<g>
		<g>
			<g>
				<path class="st23" d="M132.8,59.8v1.3h-0.7v-3.3h1c0.4,0,0.8,0.1,1,0.2c0.2,0.2,0.3,0.4,0.3,0.7c0,0.2-0.1,0.4-0.2,0.5
					s-0.3,0.3-0.5,0.4c0.5,0.7,0.8,1.2,1,1.4h-0.8l-0.8-1.3H132.8z M132.8,59.2h0.2c0.2,0,0.4,0,0.5-0.1c0.1-0.1,0.2-0.2,0.2-0.3
					c0-0.2-0.1-0.3-0.2-0.3c-0.1-0.1-0.3-0.1-0.5-0.1h-0.2V59.2z"/>
				<path class="st23" d="M137,61.1h-1.9v-3.3h1.9v0.6h-1.2v0.7h1.1v0.6h-1.1v0.8h1.2V61.1z"/>
				<path class="st23" d="M139.1,58.3c-0.3,0-0.5,0.1-0.6,0.3s-0.2,0.5-0.2,0.8c0,0.7,0.3,1.1,0.8,1.1c0.2,0,0.5-0.1,0.8-0.2v0.6
					c-0.3,0.1-0.6,0.2-0.9,0.2c-0.5,0-0.8-0.1-1.1-0.4c-0.3-0.3-0.4-0.7-0.4-1.2c0-0.3,0.1-0.6,0.2-0.9c0.1-0.3,0.3-0.5,0.5-0.6
					c0.2-0.1,0.5-0.2,0.8-0.2c0.3,0,0.6,0.1,1,0.2l-0.2,0.6c-0.1-0.1-0.2-0.1-0.4-0.2C139.3,58.3,139.2,58.3,139.1,58.3z"/>
				<path class="st23" d="M142.5,61.1h-1.9v-3.3h1.9v0.6h-1.2v0.7h1.1v0.6h-1.1v0.8h1.2V61.1z"/>
				<path class="st23" d="M143.2,61.1v-3.3h0.7v3.3H143.2z"/>
				<path class="st23" d="M147,58.8c0,0.4-0.1,0.6-0.3,0.8c-0.2,0.2-0.5,0.3-0.9,0.3h-0.3v1.2h-0.7v-3.3h1c0.4,0,0.7,0.1,0.9,0.3
					C146.9,58.2,147,58.5,147,58.8z M145.4,59.3h0.2c0.2,0,0.4,0,0.5-0.1c0.1-0.1,0.2-0.2,0.2-0.4c0-0.2,0-0.3-0.1-0.4
					c-0.1-0.1-0.2-0.1-0.4-0.1h-0.3V59.3z"/>
				<path class="st23" d="M148.9,61.1h-0.7v-2.7h-0.9v-0.6h2.5v0.6h-0.9V61.1z"/>
			</g>
		</g>
		<line class="st24" x1="118.8" y1="63.7" x2="162.5" y2="63.7"/>
	</g>
	<line class="st24" x1="126.4" y1="123.1" x2="170.1" y2="123.1"/>
	<line class="st24" x1="126.4" y1="131.3" x2="170.1" y2="131.3"/>
	<polygon class="st25" points="123,75.5 123,96.1 115.3,96.1 	"/>
</g>
<g>
	<ellipse transform="matrix(0.6681 -0.7441 0.7441 0.6681 12.15 151.7071)" class="st26" cx="176.1" cy="62.2" rx="7.6" ry="7.6"/>
	<ellipse transform="matrix(0.8677 -0.4971 0.4971 0.8677 -7.6371 95.7746)" class="st27" cx="176.1" cy="62.2" rx="6.2" ry="6.2"/>
</g>
<g>
	<ellipse transform="matrix(0.965 -0.2621 0.2621 0.965 -16.1023 51.2894)" class="st26" cx="184.2" cy="86" rx="7.6" ry="7.6"/>
	<circle class="st27" cx="184.2" cy="86" r="6.2"/>
</g>
<g>
	<path class="st26" d="M200.4,68.5c1.5,3.9-0.4,8.3-4.3,9.8c-3.9,1.5-8.3-0.4-9.8-4.3c-1.5-3.9,0.4-8.3,4.3-9.8
		C194.5,62.7,198.9,64.6,200.4,68.5z"/>
	<path class="st27" d="M199.1,69c1.2,3.2-0.3,6.7-3.5,8c-3.2,1.2-6.7-0.3-8-3.5c-1.2-3.2,0.3-6.7,3.5-8
		C194.3,64.3,197.9,65.8,199.1,69z"/>
</g>
<g>
	<g>
		<g>
			<defs>
				<path id="SVGID_7_" d="M122.9,169.9l-49.7-9.5c-1.4-0.3-2.4-1.7-2.1-3.1l5.5-28.9c0.3-1.5,1.7-2.4,3.1-2.2l49.7,9.5
					c1.4,0.3,2.4,1.7,2.1,3.1l-5.5,28.9C125.8,169.2,124.4,170.2,122.9,169.9z"/>
			</defs>
			<use xlink:href="#SVGID_7_"  style="overflow:visible;fill:#0176AB;"/>
			<clipPath id="SVGID_8_">
				<use xlink:href="#SVGID_7_"  style="overflow:visible;"/>
			</clipPath>
		</g>
	</g>
	
		<rect x="76.6" y="145.2" transform="matrix(0.9823 0.1872 -0.1872 0.9823 28.8821 -12.7764)" class="st18" width="11.1" height="2.8"/>
	
		<rect x="107.9" y="155.8" transform="matrix(0.9823 0.1872 -0.1872 0.9823 31.3716 -17.9597)" class="st18" width="5.9" height="2.8"/>
	
		<rect x="100.2" y="154.3" transform="matrix(0.9823 0.1872 -0.1872 0.9823 30.9651 -16.5565)" class="st18" width="5.9" height="2.8"/>
	
		<rect x="88.8" y="147.5" transform="matrix(0.9823 0.1872 -0.1872 0.9823 29.5368 -15.0328)" class="st18" width="11.1" height="2.8"/>
	
		<rect x="114.2" y="152.4" transform="matrix(0.9823 0.1872 -0.1872 0.9823 30.8887 -19.692)" class="st18" width="11.1" height="2.8"/>
	
		<rect x="101.1" y="149.9" transform="matrix(0.9823 0.1872 -0.1872 0.9823 30.1915 -17.2892)" class="st18" width="11.1" height="2.8"/>
	
		<rect x="103" y="137.6" transform="matrix(0.9823 0.1872 -0.1872 0.9823 28.0333 -19.1259)" class="st28" width="24.6" height="2.6"/>
	
		<rect x="74.6" y="155.9" transform="matrix(0.9823 0.1872 -0.1872 0.9823 30.918 -13.0764)" class="st28" width="20.2" height="2.6"/>
	<path class="st29" d="M83.2,143.4l-1.9-0.4c-2.2-0.4-3.6-2.6-3.2-4.8l0,0c0.4-2.2,2.6-3.6,4.8-3.2l1.9,0.4c2.2,0.4,3.6,2.6,3.2,4.8
		l0,0C87.5,142.4,85.4,143.8,83.2,143.4z"/>
	<g>
		
			<ellipse transform="matrix(0.1871 -0.9823 0.9823 0.1871 -63.7184 252.276)" class="st30" cx="120.6" cy="164.6" rx="2.7" ry="2.6"/>
		<path class="st31" d="M120,164.5c-0.3,1.4-1.6,2.4-3.1,2.1c-1.4-0.3-2.3-1.7-2.1-3.1c0.3-1.4,1.6-2.4,3.1-2.1
			C119.4,161.7,120.3,163.1,120,164.5z"/>
	</g>
</g>
</svg>
