<?xml version="1.0" encoding="utf-8"?>
<!-- Generator: Adobe Illustrator 23.0.3, SVG Export Plug-In . SVG Version: 6.00 Build 0)  -->
<svg version="1.1" id="Layer_1" xmlns="http://www.w3.org/2000/svg" xmlns:xlink="http://www.w3.org/1999/xlink" x="0px" y="0px"
	 viewBox="0 0 196.9 170" style="enable-background:new 0 0 196.9 170;" xml:space="preserve">
<style type="text/css">
	.st0{fill:#3E5563;}
	.st1{fill:#161E23;}
	.st2{fill:#2C3D47;}
	.st3{fill:#FFFFFF;}
	.st4{fill:#44C5E1;}
	.st5{fill:#F68C1F;}
	.st6{fill:#BEDBE0;}
	.st7{fill-rule:evenodd;clip-rule:evenodd;fill:#FFFFFF;}
	.st8{fill:#DFF2F8;}
	.st9{fill-rule:evenodd;clip-rule:evenodd;fill:#BEDBE0;}
	.st10{fill:#FBBC9C;}
	.st11{fill:#010101;}
	.st12{fill:#C3B8C2;}
	.st13{fill:#3C64AF;}
	.st14{fill:none;stroke:#125BA9;stroke-width:0.75;stroke-miterlimit:10;}
	.st15{fill:#F6A0A0;}
	.st16{fill:none;stroke:#EE8F8F;stroke-width:0.75;stroke-miterlimit:10;}
	.st17{fill:none;stroke:#EFAA87;stroke-width:0.4825;stroke-miterlimit:10;}
	.st18{fill:#EFAA87;}
	.st19{fill:#181E21;}
	.st20{fill:#E49E7D;}
</style>
<g>
	<path class="st0" d="M163.6,50.1c-0.5-0.2-1,0.1-1,0.1l0,0l-3.5,2c-0.1,0.1-0.1,0.2-0.2,0.2l0.8,0.2c0,0,4.3-2,4.5-2.2
		C164.3,50.4,163.9,50.2,163.6,50.1z"/>
	<path class="st1" d="M159.6,52.6l-0.7-0.1c-0.1,0.1-0.1,0.3-0.1,0.4l3.8,12.4c0.4,0.6,1.4,0,1.4,0L159.6,52.6z"/>
	<path class="st2" d="M167.8,63.3l-3.6,2c-0.4,0.2-0.8,0-0.9-0.4l-3.6-11.9c-0.1-0.3,0-0.6,0.3-0.7l3.6-2c0.4-0.2,0.8,0,0.9,0.4
		l3.6,11.9C168.2,62.9,168,63.2,167.8,63.3z"/>
	<path class="st3" d="M160.5,53.3l3.4,10.8c0.1,0.2,0.3,0.3,0.4,0.2l2.8-1.6c0.1-0.1,0.2-0.2,0.1-0.3l-3.2-10.8
		c-0.1-0.2-0.2-0.3-0.4-0.2l-2.9,1.6C160.5,53,160.5,53.2,160.5,53.3z"/>
</g>
<g>
	<ellipse class="st3" cx="66.3" cy="79.8" rx="9.8" ry="7"/>
	<g>
		<path class="st4" d="M66.1,67.9c-7.3,0-13.2,5.3-13.2,12c0,2.9,1.1,5.5,2.9,7.5l-1.9,6.2l5.7-3.3c1.9,0.8,4,1.5,6.3,1.5
			c7.3,0,13.2-5.3,13.2-12C79.3,73.3,73.3,67.9,66.1,67.9z M61.1,74.8h9.6c0.1,0,0.2,0.1,0.2,0.4c0,0.2-0.1,0.2-0.2,0.2h-9.6
			c-0.1,0-0.2-0.1-0.2-0.2C60.8,75,60.8,74.8,61.1,74.8z M73,83H58.8c-0.2,0-0.5-0.1-0.5-0.4c0-0.1,0.1-0.4,0.5-0.4H73
			c0.2,0,0.5,0.1,0.5,0.4C73.3,82.9,73.2,83,73,83z M73,80.9H58.8c-0.2,0-0.5-0.1-0.5-0.2c0-0.1,0.1-0.4,0.5-0.4H73
			c0.2,0,0.5,0.1,0.5,0.4C73.3,80.8,73.2,80.9,73,80.9z M73,78.6H58.8c-0.2,0-0.5-0.1-0.5-0.4c0-0.1,0.1-0.2,0.5-0.2H73
			c0.2,0,0.5,0.1,0.5,0.2C73.3,78.5,73.2,78.6,73,78.6z"/>
	</g>
</g>
<g>
	<rect x="87.8" y="31.5" class="st3" width="12.5" height="29.5"/>
	<g>
		<path class="st5" d="M112.4,23.8H75.3c-1.6,0-2.9,1.3-2.9,2.9v26.7c11.2,0.1,20.1,8.3,20.1,18.3c0,0.6,0,1.1-0.1,1.7h4.1l14.4,8.7
			l-2.3-8.7h3.9c1.6,0,2.9-1.3,2.9-2.9V26.7C115.4,25.1,114.1,23.8,112.4,23.8z M96.4,60h-4.2V40.9h4.2V60z M96.8,37.9
			c0,0.5-0.4,0.8-0.8,0.8h-3c-0.5,0-0.8-0.4-0.8-0.8v-2.8c0-0.5,0.2-0.8,0.8-0.8h3c0.5,0,0.8,0.4,0.8,0.8V37.9z"/>
	</g>
</g>
<g>
	<g>
		<polygon class="st6" points="42.3,113.4 42.3,136 62.7,136.2 62.7,113.3 		"/>
	</g>
	<g>
		<rect x="46.5" y="118.2" class="st7" width="6.2" height="0.4"/>
		<rect x="46.5" y="119.9" class="st7" width="6.2" height="0.4"/>
		<rect x="46.5" y="121.6" class="st7" width="6.2" height="0.4"/>
		<rect x="46.5" y="123.3" class="st7" width="6.2" height="0.4"/>
		<rect x="46.5" y="125" class="st7" width="13.2" height="0.4"/>
		<rect x="46.5" y="127.1" class="st7" width="13.2" height="0.4"/>
	</g>
</g>
<g>
	<g>
		<polygon class="st8" points="49.4,121.2 49.4,137.3 53.4,140.3 55.5,144 81.5,144 81.5,121.2 		"/>
		<g>
			<polygon class="st6" points="49.4,137.3 55.5,144 55.1,137.1 			"/>
		</g>
	</g>
	<g>
		<rect x="53.7" y="125" class="st9" width="10.3" height="0.4"/>
		<rect x="53.7" y="126.7" class="st9" width="10.3" height="0.4"/>
		<rect x="53.7" y="128.4" class="st9" width="10.3" height="0.4"/>
		<rect x="53.7" y="130.1" class="st9" width="10.3" height="0.4"/>
	</g>
	<g>
		<rect x="67.5" y="125" class="st9" width="10.2" height="0.4"/>
		<rect x="67.5" y="126.7" class="st9" width="10.2" height="0.4"/>
		<rect x="67.5" y="128.4" class="st9" width="10.2" height="0.4"/>
		<rect x="67.5" y="130.1" class="st9" width="10.2" height="0.4"/>
	</g>
	<rect x="53.7" y="132.7" class="st9" width="24.5" height="0.4"/>
	<rect x="53.7" y="135" class="st9" width="24.5" height="0.4"/>
</g>
<g>
	<path class="st2" d="M98.1,91c-0.5-1.5-1-2.7-1.6-3.5c0.2-1.6,0.4-3.3,0.4-5c0-17.6-14.1-31.8-31.4-31.8S34,65,34,82.5
		c0,1.7,0.1,3.4,0.4,5.1c-0.6,0.8-1,2.1-1.5,3.4c-0.7,1.9-0.2,11.7,0.6,12.9c1.7,2.4,6.2,4.2,9.1,4.6c0.4,0.4,0.8,0.6,1.5,0.6
		c1-0.1,1.7-0.8,1.6-1.8L44.2,90c-0.1-1-1-1.6-1.8-1.5c-0.5,0-0.8,0.2-1.1,0.5c-0.1,0-0.2,0-0.5,0c-1-0.1-2.3-1.1-2.9-2.2
		c-0.2-1.5-0.4-2.8-0.4-4.2c0-15.7,12.5-26.5,28-26.5c15.4,0,28,10.8,28,26.5c0,1.5-0.1,2.9-0.4,4.4c-0.6,1.1-1.9,2.1-2.8,2.1
		c-0.1,0-0.4,0-0.5,0c-0.2-0.2-0.6-0.5-1.1-0.5c-1-0.1-1.8,0.6-1.8,1.5l-1.6,17.4c-0.1,1,0.6,1.7,1.6,1.8c0.6,0,1.1-0.1,1.5-0.6
		c2.9-0.4,7.4-2.2,9.1-4.6C98.3,102.5,98.8,92.9,98.1,91z"/>
	<path class="st2" d="M96.5,97.3c-1.8-1.5-2.5,0-2.5,0c-1,1.8-6.8,9.8-19.4,13.5c-0.7-0.8-2.4-1.6-4.4-1.6c-2.8,0-5.1,1.3-5.1,3
		s2.3,3,5.1,3c2.8,0,5.1-1.3,5.1-3C79.6,110.9,90.7,106.9,96.5,97.3z"/>
</g>
<g>
	<g>
		<g>
			<polygon class="st8" points="12.9,93.8 12.9,111.5 17.3,114.8 19.6,119 35.3,119 35.3,93.8 			"/>
			<g>
				<polygon class="st6" points="12.9,111.6 19.6,119 19.2,111.4 				"/>
			</g>
		</g>
		<g>
			<rect x="17.6" y="99" class="st9" width="6.9" height="0.4"/>
			<rect x="17.6" y="100.9" class="st9" width="6.9" height="0.4"/>
			<rect x="17.6" y="102.8" class="st9" width="6.9" height="0.4"/>
			<rect x="17.6" y="104.6" class="st9" width="6.9" height="0.4"/>
			<rect x="17.6" y="106.5" class="st9" width="14.6" height="0.4"/>
			<rect x="17.6" y="108.9" class="st9" width="14.6" height="0.4"/>
		</g>
	</g>
</g>
<g>
	<path class="st4" d="M120.7,80.4c-0.1,1.3,0.4,1.8,0.7,1.9c1.5,0.6,3.3,1.3,4.7,3.2c1.3,1.6,2.1,3.6,1,8.7
		c-1.1,5.2-4.1,14.6-6.2,16.1c-2.1,1.7-6.4,1.1-6.4,1.1c-0.8-0.1-1.8,0.4-2.2,1.1l-7.2,12.1c-0.5,0.7-0.1,1.5,0.6,1.7
		c0,0,6.8,2.2,10,1.6c3.2-0.6,5.6-1.8,10.7-12c5.2-10.2,8.9-26.3,8.6-35c-0.2-8.5-0.7-10.8-5.8-13.2c-4.2-2.1-7-2.4-7-2.4
		c-0.8-0.1-1.5,0.4-1.5,1.2V80.4z"/>
</g>
<path class="st4" d="M41.5,46.1c-0.1-0.5-0.5-1.1-0.5-1.1s-1,2.2-1.9,3c-1.3,1.2-3,1.1-4.5-0.6c-1.6-2.1-1-3.4,0.5-4.5
	c1.1-0.8,3.2-1.3,3.2-1.3l-0.5-0.5c-0.6-0.6-2.5-0.8-4.9-0.5c-1.3,0.2-3.6,0.5-4.1,3.9s-1,4.2-1.8,5c-0.7,0.6-14.6,13.5-19.2,17.7
	c-0.6,0.1-0.8,0.1-1.1,0.1c-0.1,0-0.6-0.1-0.7-0.1C3.2,67,0.8,69,0.5,71.8c-0.2,2.8,1.8,5.2,4.6,5.5s5.2-1.8,5.5-4.6
	c0-0.1,0-0.6,0-0.7c0-0.2,0.1-0.5,0.5-0.8c4.7-3.9,19.9-15.8,20.6-16.5c0.8-0.7,1.8-1.1,5.1-1.1c3.4,0,4-2.1,4.4-3.3
	C41.7,48.9,41.8,47.3,41.5,46.1z M5.3,75c-1.5-0.1-2.7-1.5-2.5-2.9c0.1-1.5,1.5-2.7,2.9-2.5c1.5,0.1,2.7,1.5,2.5,2.9
	C8.2,74,6.8,75.1,5.3,75z"/>
<path class="st2" d="M13.7,51.3c0.6,0,1.6-0.1,3.3-0.8c2.4-1.1,2.1-2.8,2.2-3.9s0.1-1.9,0.7-2.5c0.5-0.6,19.2-16.1,20-16.9
	c0.7-0.7,1.6-1,4.7-1.1c3.2,0,3.6-1.9,4-3.2c0.5-1.2,0.6-2.8,0.2-3.9c-0.1-0.5-0.5-1-0.5-1s-0.8,1.9-1.7,2.8
	c-1.2,1.2-2.7,1.1-4.1-0.5c-1.6-1.8-1-3.2,0.2-4.2c1-0.7,2.8-1.3,2.8-1.3l-0.5-0.5c-0.6-0.6-2.4-0.7-4.5-0.4
	c-1.2,0.2-3.4,0.6-3.8,3.6c-0.4,3.2-0.8,3.9-1.6,4.6C34.6,23,17.3,40,16.7,40.4c-0.6,0.5-1.6,0.4-2.7,0.4s-2.5-0.4-3.9,1.9
	c-1.2,2.1-1.5,3.6-1.3,4.1c0,0.2,0.1,0.4,0.2,0.5c0.4,0.4,0.6-2.2,2.7-2.9c0.2-0.1,3.3,1.1,3.6,4c0,0.4-2.7,2.7-2.4,2.7
	C13,51.3,13.3,51.3,13.7,51.3z"/>
<g>
	<g>
		<g>
			<polygon class="st10" points="168,150.6 168.2,162.2 162.9,162.4 162.2,151 			"/>
			<g>
				<g>
					<path class="st11" d="M168.5,161.1l0.6,6.1h-17l0,0c-0.2-0.7,0.2-1.4,0.8-1.7l9.6-4.4L168.5,161.1z"/>
					<rect x="151.9" y="167.2" class="st12" width="17.4" height="1.8"/>
				</g>
			</g>
		</g>
		<g>
			<polygon class="st10" points="185.1,150.6 185.3,162.2 180,162.4 179.3,151 			"/>
			<g>
				<g>
					<path class="st11" d="M185.6,161.1l0.6,6.1h-16.9l0,0c-0.2-0.7,0.2-1.4,0.8-1.7l9.6-4.4L185.6,161.1z"/>
					<rect x="169.1" y="167.2" class="st12" width="17.4" height="1.8"/>
				</g>
			</g>
		</g>
		<g>
			<polygon class="st13" points="157.6,128.5 160.8,156.3 170.2,156.3 168.6,131.2 173.4,112.9 177,155.6 188,155.6 185.4,99 
				165.2,97.4 			"/>
			<line class="st14" x1="173.4" y1="112.9" x2="168.9" y2="110.4"/>
		</g>
	</g>
	<g>
		<g>
			<g>
				<g>
					<path class="st10" d="M162.3,62.7l-12.9,13.8l-1.7-1.1c-1.5-1-1.4-3.3,0.1-4.6l11.9-10L162.3,62.7z"/>
					<g>
						<path class="st10" d="M165.1,62.1c0.7-1.6,0-3.3-1.5-4.1c-1.6-0.7-3.3,0-4.1,1.5c-0.7,1.6,0,3.3,1.5,4.1
							C162.5,64.4,164.4,63.7,165.1,62.1z"/>
					</g>
				</g>
				<path class="st10" d="M149.3,76.4c4,1.7,11.6,2.6,11.6,2.6l3.6-4.9l-13.4-2.5C151.1,71.6,145.2,74.8,149.3,76.4z"/>
			</g>
		</g>
		<g>
			<path class="st15" d="M158.3,79.7l0.4-7.7c4.6-1.3,8.6-2,8.6-2l-1.9,9c-0.9,0.3-2.1,0.7-3.6,0.8C160.4,80,159.2,79.9,158.3,79.7z
				"/>
		</g>
		<g>
			<path class="st15" d="M171.5,68l-6,2.7c-0.4,0.2-0.7,0.7-0.7,1.2l-0.2,28.2l21.4,1.6l0.2-32.3c0,0-5.7-1.8-10.8-1.8
				C174.4,67.6,171.5,68,171.5,68z"/>
		</g>
		<g>
			<g>
				<path class="st10" d="M189.7,79.7c0,0,2.3,13.1-0.4,16.4c-2.7,3.3-4.2,0.1-4.2,0.1l-1.4-16L189.7,79.7z"/>
				<g>
					<path class="st15" d="M192.5,85.3c0-7.6-3.6-16.7-7.5-16c-3.7,0.7-2,14.3-2,14.3L192.5,85.3z"/>
					<polyline class="st16" points="182.3,76.8 182.6,83.2 184,83.7 					"/>
				</g>
			</g>
			<g>
				<g>
					<path class="st10" d="M173,84.1c-2.7,1.2-4.6-1.1-5.1-2.6s0.3-3.7,3.1-3.4c2.8,0.3,3.6,3.1,3.6,3.1S175.8,83,173,84.1z"/>
					<path class="st10" d="M169.3,79.9l-3.8,0.7c-0.3,0-0.6-0.2-0.6-0.5l0,0c0-0.3,0.1-0.5,0.3-0.6c2-1,4.8-1.3,4.8-1.3L169.3,79.9z
						"/>
				</g>
				<g>
					<polygon class="st10" points="186.9,89.1 174.6,81.2 173,84.2 185.7,97 					"/>
					<line class="st17" x1="186.9" y1="89.1" x2="184.3" y2="87.5"/>
				</g>
			</g>
		</g>
	</g>
	<g>
		<path class="st10" d="M176.5,59.5l0.8,8.2c0.2,1.6-1.3,2.5-2.8,2.7l0,0c-1.8,0.3-3-0.6-3.2-2.4l-0.6-5.2L176.5,59.5z"/>
		<path class="st18" d="M170.7,62.6c0,0,5.9-4,6-2.4c0.5,5.3-5.4,7.4-5.4,7.4L170.7,62.6z"/>
		<path class="st10" d="M174.1,72c6.6-0.2,5.6-4.1,5.6-4.1l-2.6-0.4l-4.5-0.1l-2.5,1.2C170.1,68.6,168.8,72.2,174.1,72z"/>
		<g>
			<path class="st19" d="M171,48.2c0,0-4.2-3-6.5,0.5c-2.3,3.5,2.8,7.3,2.8,7.3L171,48.2z"/>
			<path class="st19" d="M177.7,51.9l1.6,4.5c6.3-11.1-8-9.1-8-9.1L177.7,51.9z"/>
			<path class="st19" d="M168.4,51.2l-0.8,5.6c-3-4.4-0.6-6.4-0.6-6.4L168.4,51.2z"/>
			<path class="st20" d="M167.3,56.2c-1.2,0.1-2,1.2-1.9,2.4c0.2,1.2,1.2,2,2.4,1.9s2-1.2,1.9-2.4C169.5,56.9,168.5,56,167.3,56.2z"
				/>
			<path class="st10" d="M179,57.5l-0.3-4.1c-0.4-3.2-3.8-5.5-6.9-5.1l0,0c-3,0.3-5.3,3.1-5,6.3l0.4,5.3c0.2,2.5,2.8,4.9,5.8,4.7
				l0,0C176.5,64.2,179.2,61.3,179,57.5z"/>
			<path class="st19" d="M166.8,50.3l4.4-3l7.3,2.4l1.3,5.7l-2.4,2.4V54c-2-2.4-5.5-2.6-8.2-2.3c-2.7,0.3-2.5,1.7-2.5,1.7
				L166.8,50.3z"/>
			<g>
				<path class="st10" d="M179.4,55.4c-1.1,0.1-1.9,1.2-1.8,2.4s1.1,2,2.3,1.9c1.1-0.1,1.9-1.2,1.8-2.4
					C181.5,56.1,180.5,55.3,179.4,55.4z"/>
			</g>
			<path class="st19" d="M179.2,48.3c-4.4-3-6.4-3.3-8.4-2.5c-2.2,0.9-1.6,2.6-1.6,2.6L179.2,48.3z"/>
			<path class="st19" d="M169.7,65.3c1.3,0.6,2.9,0.9,4.3,0.6c4.8-1,4.7-6.2,4.7-6.2c-1.9-1.1-0.7-3.6-0.7-3.6l0.2-2.3l-1.5-1.1
				c0.9,3.7-0.3,6.8-1,8.2c-0.2,0.4-0.7,0.6-1.1,0.5c-1-0.3-2.9-0.7-4.2-0.5c-1.1,0.2-1.8,0.4-2.2,0.6c-0.3,0.2-0.5,0.5-0.5,0.8
				C167.7,63.6,168.6,64.8,169.7,65.3z"/>
			<path class="st19" d="M178,52.1c0,0-1.5-3.9-2.7-0.8s2,3.8,2,3.8L178,52.1z"/>
		</g>
	</g>
</g>
</svg>
