<?xml version="1.0" encoding="utf-8"?>
<!-- Generator: Adobe Illustrator 23.0.3, SVG Export Plug-In . SVG Version: 6.00 Build 0)  -->
<svg version="1.1" id="Layer_1" xmlns="http://www.w3.org/2000/svg" xmlns:xlink="http://www.w3.org/1999/xlink" x="0px" y="0px"
	 viewBox="0 0 219.2 164.6" style="enable-background:new 0 0 219.2 164.6;" xml:space="preserve">
<style type="text/css">
	.st0{fill:#795026;}
	.st1{fill:#CA8340;}
	.st2{fill:#B47638;}
	.st3{fill:#D0D0D0;}
	.st4{fill:#FFFFFF;}
	.st5{fill:#2C3C46;}
	.st6{fill:#A8B19B;}
	.st7{fill:#98A08C;}
	.st8{fill:#73796A;}
	.st9{fill:none;stroke:#CEE2E9;stroke-width:4;stroke-miterlimit:10;}
	.st10{fill:#CEE2E9;}
	.st11{fill:#44C5E1;}
	.st12{fill:#FBBC9C;}
	.st13{fill:#010101;}
	.st14{fill:#A59AA5;}
	.st15{fill:#F8C02E;}
	.st16{fill:none;stroke:#E9AF29;stroke-width:0.75;stroke-miterlimit:10;}
	.st17{fill:#499FD8;}
	.st18{fill:none;stroke:#1D96D4;stroke-width:0.75;stroke-miterlimit:10;}
	.st19{fill:#F37E95;}
	.st20{fill:#C7677A;}
	.st21{fill:#FEDBC2;}
	.st22{fill:#C2CEC7;}
	.st23{fill:#1E292F;}
	.st24{opacity:0.1;enable-background:new    ;}
	.st25{fill:#211C30;}
	.st26{fill:#EFAA87;}
</style>
<g>
	<path class="st0" d="M131.6,144.8c0,2.2-1.8,4.1-4.1,4.1H33.9c-2.2,0-4.1-1.8-4.1-4.1V20.5c0-2.2,1.8-4.1,4.1-4.1h93.6
		c2.2,0,4.1,1.8,4.1,4.1V144.8z"/>
	<path class="st1" d="M130.5,143.7c0,2.2-1.8,4.1-4.1,4.1H32.8c-2.2,0-4.1-1.8-4.1-4.1V19.4c0-2.2,1.8-4.1,4.1-4.1h93.6
		c2.2,0,4.1,1.8,4.1,4.1L130.5,143.7L130.5,143.7z"/>
	<path class="st2" d="M127.3,15.4c-8.9,17.7-34.9,58.4-98.5,97v31.3c0,2.2,1.8,4.1,4.1,4.1h93.6c2.2,0,4.1-1.8,4.1-4.1V19.4
		C130.5,17.4,129.1,15.8,127.3,15.4z"/>
	<rect x="37.1" y="26.8" class="st3" width="87" height="113.8"/>
	<rect x="36.1" y="25.4" class="st4" width="87" height="113.8"/>
	<g>
		<path class="st5" d="M62.3,41.2c-0.6,0.3-1.2,0.4-1.9,0.4c-2.1,0-3.5-1.4-3.5-3.3c0-1.9,1.4-3.3,3.5-3.3c0.6,0,1.3,0.2,1.8,0.4
			v1.4c-0.5-0.3-1.1-0.6-1.8-0.6c-1.2,0-2.1,0.9-2.1,2s0.8,2.1,2.2,2.1c0.7,0,1.3-0.2,1.8-0.6V41.2z"/>
		<path class="st5" d="M63.2,34.7h1.4v2.8l0,0c0.3-0.3,0.8-0.5,1.3-0.5s0.9,0.2,1.1,0.4c0.3,0.3,0.4,0.7,0.4,1.3v2.7H66v-2.5
			c0-0.3,0-0.5-0.2-0.6c-0.1-0.1-0.3-0.2-0.5-0.2c-0.3,0-0.7,0.2-0.9,0.4v2.9H63v-6.7H63.2z"/>
		<path class="st5" d="M69.7,39.7c0.2,0.6,0.6,0.9,1.3,0.9c0.5,0,1-0.2,1.5-0.5v1.1c-0.4,0.3-1.1,0.4-1.7,0.4
			c-1.4,0-2.5-0.9-2.5-2.3c0-1.4,1.1-2.3,2.3-2.3c1.1,0,2.1,0.7,2.1,2.2c0,0.2,0,0.3,0,0.5C72.7,39.7,69.7,39.7,69.7,39.7z
			 M71.4,38.8C71.3,38.3,71,38,70.5,38c-0.4,0-0.8,0.3-0.9,0.8H71.4z"/>
		<path class="st5" d="M77.2,41.3c-0.4,0.2-0.9,0.3-1.4,0.3c-1.4,0-2.4-1-2.4-2.3c0-1.4,1.1-2.3,2.5-2.3c0.5,0,0.9,0.1,1.3,0.3v1.3
			c-0.4-0.2-0.8-0.4-1.2-0.4c-0.7,0-1.2,0.5-1.2,1.1c0,0.7,0.5,1.1,1.2,1.1c0.4,0,0.9-0.2,1.3-0.4v1.3H77.2z"/>
		<path class="st5" d="M78.1,34.7h1.4V39l0,0l1.5-1.9h1.5l-1.7,2l1.8,2.4H81l-1.6-2.2l0,0v2.2H78L78.1,34.7L78.1,34.7z"/>
		<path class="st5" d="M85.4,35.1h1.4v5.2h2.8v1.2h-4.2C85.4,41.5,85.4,35.1,85.4,35.1z"/>
		<path class="st5" d="M91,35c0.4,0,0.8,0.3,0.8,0.8c0,0.4-0.4,0.8-0.8,0.8s-0.8-0.3-0.8-0.8C90.2,35.3,90.6,35,91,35z M90.3,37.1
			h1.4v4.4h-1.4V37.1z"/>
		<path class="st5" d="M92.7,40c0.6,0.4,1.3,0.5,1.7,0.5c0.4,0,0.6-0.1,0.6-0.3c0-0.3-0.5-0.3-1.1-0.5c-0.8-0.2-1.3-0.6-1.3-1.3
			c0-0.9,0.8-1.5,1.9-1.5c0.5,0,1.2,0.1,1.7,0.3v1.2c-0.6-0.3-1.3-0.5-1.6-0.5c-0.4,0-0.6,0.1-0.6,0.3c0,0.3,0.5,0.3,1.1,0.5
			c0.8,0.2,1.3,0.5,1.3,1.3c0,1-0.8,1.5-2,1.5c-0.5,0-1.2-0.1-1.7-0.4V40z"/>
		<path class="st5" d="M100,41.4c-0.2,0.1-0.6,0.2-1,0.2s-0.9-0.1-1.1-0.4c-0.2-0.2-0.4-0.6-0.4-1.3v-1.6h-0.7v-1.1h0.7v-1.1
			l1.4-0.2v1.4h1.2v1.1h-1.2v1.5c0,0.4,0.1,0.7,0.5,0.7c0.2,0,0.5-0.1,0.6-0.2V41.4z"/>
	</g>
	<g>
		<path class="st6" d="M114.4,14.3c0-1.5-1.2-2.6-2.6-2.6H89.6c0.1-0.5,0.1-1.1,0.1-1.6c0-5.7-4.5-10.3-10.1-10.3
			S69.5,4.4,69.5,10.1c0,0.5,0,1.1,0.1,1.6H47.4c-1.4,0-2.6,1.2-2.6,2.6v13.5h69.6V14.3z M79.6,10.9c-1.8,0-3.2-1.4-3.2-3.2
			s1.4-3.2,3.2-3.2c1.8,0,3.2,1.4,3.2,3.2S81.4,10.9,79.6,10.9z"/>
		<path class="st7" d="M112.3,11.7c-0.8,4.2-3.7,12.1-14.4,12.1s-38.5,0-53,0v4h69.6V14.3C114.4,13,113.5,11.9,112.3,11.7z"/>
		<rect x="44.8" y="26.6" class="st8" width="69.6" height="1.2"/>
	</g>
	<g>
		<g>
			<path class="st9" d="M60.5,57.6c0,3.8-3.1,6.9-6.9,6.9s-6.9-3.1-6.9-6.9c0-3.8,3.1-6.9,6.9-6.9C57.4,50.6,60.5,53.7,60.5,57.6z"
				/>
			<g>
				<path class="st10" d="M104.3,53.3c0,0.4-0.4,0.8-0.8,0.8H66.4c-0.4,0-0.8-0.4-0.8-0.8l0,0c0-0.4,0.4-0.8,0.8-0.8h37.1
					C103.9,52.5,104.3,52.9,104.3,53.3L104.3,53.3z"/>
				<path class="st10" d="M97.5,57.6c0,0.4-0.4,0.8-0.8,0.8H66.4c-0.4,0-0.8-0.4-0.8-0.8l0,0c0-0.4,0.4-0.8,0.8-0.8h30.3
					C97.1,56.8,97.5,57.1,97.5,57.6L97.5,57.6z"/>
				<path class="st10" d="M107.1,61.8c0,0.4-0.4,0.8-0.8,0.8H66.4c-0.4,0-0.8-0.4-0.8-0.8l0,0c0-0.4,0.4-0.8,0.8-0.8h39.9
					C106.7,61,107.1,61.3,107.1,61.8L107.1,61.8z"/>
			</g>
		</g>
		<path class="st11" d="M61.3,50.6c-2.6,1.5-5.1,3.6-7.1,5.9c-0.3,0.3-0.6,0.6-0.9,0.8c0,0,0,0,0-0.1c-0.6-0.9-0.9-2.1-1.7-2.9
			C51,53.6,50,53.4,49.2,54c-1.1,0.8-2.1,1.1-1.9,2.6c0.1,0.6,0.6,1.1,1.2,1.2h0.1c0.3,0,0.6,0,0.8-0.2c1,2.2,2.4,4.8,5,3.6
			c1.6-0.7,6.8-7.5,7.9-9.7C62.4,51,61.8,50.3,61.3,50.6z"/>
	</g>
	<g>
		<g>
			<path class="st9" d="M60.5,78.8c0,3.8-3.1,6.9-6.9,6.9s-6.9-3.1-6.9-6.9s3.1-6.9,6.9-6.9S60.5,75,60.5,78.8z"/>
			<g>
				<path class="st10" d="M93.1,74.6c0,0.4-0.4,0.8-0.8,0.8H66.4c-0.4,0-0.8-0.4-0.8-0.8l0,0c0-0.4,0.4-0.8,0.8-0.8h25.9
					C92.7,73.8,93.1,74.2,93.1,74.6L93.1,74.6z"/>
				<path class="st10" d="M104.1,78.8c0,0.4-0.4,0.8-0.8,0.8h-37c-0.4,0-0.8-0.4-0.8-0.8l0,0c0-0.4,0.4-0.8,0.8-0.8h37
					C103.8,78.1,104.1,78.4,104.1,78.8L104.1,78.8z"/>
				<path class="st10" d="M90,83.1c0,0.4-0.4,0.8-0.8,0.8H66.4c-0.4,0-0.8-0.4-0.8-0.8l0,0c0-0.4,0.4-0.8,0.8-0.8h22.8
					C89.6,82.3,90,82.6,90,83.1L90,83.1z"/>
			</g>
		</g>
		<path class="st11" d="M61.3,71.9c-2.6,1.5-5.1,3.5-7.1,5.9c-0.3,0.3-0.6,0.6-0.9,0.8c0,0,0,0,0-0.1c-0.6-0.9-0.9-2.1-1.7-2.9
			c-0.6-0.7-1.6-0.9-2.4-0.3c-1.1,0.8-2.1,1.1-1.9,2.6c0.1,0.6,0.6,1.1,1.2,1.2h0.1c0.3,0,0.6,0,0.8-0.2c1,2.2,2.4,4.8,5,3.6
			c1.6-0.7,6.8-7.5,7.9-9.7C62.4,72.3,61.8,71.6,61.3,71.9z"/>
	</g>
	<g>
		<g>
			<path class="st9" d="M60.5,99.7c0,3.8-3.1,6.9-6.9,6.9s-6.9-3.1-6.9-6.9s3.1-6.9,6.9-6.9S60.5,95.9,60.5,99.7z"/>
			<g>
				<path class="st10" d="M84.5,95.5c0,0.4-0.4,0.8-0.8,0.8H66.4c-0.4,0-0.8-0.4-0.8-0.8l0,0c0-0.4,0.4-0.8,0.8-0.8h17.3
					C84.1,94.7,84.5,95.1,84.5,95.5L84.5,95.5z"/>
				<path class="st10" d="M97.5,99.7c0,0.4-0.4,0.8-0.8,0.8H66.4c-0.4,0-0.8-0.4-0.8-0.8l0,0c0-0.4,0.4-0.8,0.8-0.8h30.3
					C97.1,98.9,97.5,99.3,97.5,99.7L97.5,99.7z"/>
				<path class="st10" d="M92.3,103.9c0,0.4-0.4,0.8-0.8,0.8H66.4c-0.4,0-0.8-0.4-0.8-0.8l0,0c0-0.4,0.4-0.8,0.8-0.8h25.1
					C91.9,103.1,92.3,103.5,92.3,103.9L92.3,103.9z"/>
			</g>
		</g>
		<path class="st11" d="M61.3,92.8c-2.6,1.5-5.1,3.6-7.1,5.9c-0.3,0.3-0.6,0.6-0.9,0.8c0,0,0,0,0-0.1c-0.6-0.9-0.9-2.1-1.7-2.9
			c-0.6-0.7-1.6-0.9-2.4-0.3c-1.1,0.8-2.1,1.1-1.9,2.6c0.1,0.6,0.6,1.1,1.2,1.2h0.1c0.3,0,0.6,0,0.8-0.2c1,2.2,2.4,4.8,5,3.6
			c1.6-0.7,6.8-7.5,7.9-9.7C62.4,93.2,61.8,92.5,61.3,92.8z"/>
	</g>
	<g>
		<g>
			<ellipse class="st9" cx="53.6" cy="119.1" rx="6.9" ry="6.9"/>
			<g>
				<path class="st10" d="M104.3,114.9c0,0.4-0.4,0.8-0.8,0.8H66.4c-0.4,0-0.8-0.4-0.8-0.8l0,0c0-0.4,0.4-0.8,0.8-0.8h37.1
					C103.9,114.1,104.3,114.5,104.3,114.9L104.3,114.9z"/>
				<path class="st10" d="M97.5,119.1c0,0.4-0.4,0.8-0.8,0.8H66.4c-0.4,0-0.8-0.4-0.8-0.8l0,0c0-0.4,0.4-0.8,0.8-0.8h30.3
					C97.1,118.4,97.5,118.7,97.5,119.1L97.5,119.1z"/>
				<path class="st10" d="M90.3,123.4c0,0.4-0.4,0.8-0.8,0.8H66.4c-0.4,0-0.8-0.4-0.8-0.8l0,0c0-0.4,0.4-0.8,0.8-0.8h23.1
					C89.9,122.6,90.3,122.9,90.3,123.4L90.3,123.4z"/>
			</g>
		</g>
		<path class="st11" d="M61.3,112.2c-2.6,1.5-5.1,3.5-7.1,5.9c-0.3,0.3-0.6,0.6-0.9,0.8c0,0,0,0,0-0.1c-0.6-0.9-0.9-2.1-1.7-2.9
			c-0.6-0.7-1.6-0.9-2.4-0.3c-1.1,0.8-2.1,1.1-1.9,2.6c0.1,0.6,0.6,1.1,1.2,1.2h0.1c0.3,0,0.6,0,0.8-0.2c1,2.2,2.4,4.8,5,3.6
			c1.6-0.7,6.8-7.5,7.9-9.7C62.4,112.6,61.8,111.9,61.3,112.2z"/>
	</g>
</g>
<g>
	<g>
		<g>
			<g>
				<polygon class="st12" points="154.1,159.7 154.7,149.2 160.4,149.9 159.2,161 153.8,160 				"/>
				<g>
					<path class="st13" d="M160,158.3c0,0-3.8,2-5.9-1l-10.2,5.5l17.5-0.1L160,158.3z"/>
					
						<rect x="143.9" y="162.8" transform="matrix(1 -6.329169e-03 6.329169e-03 1 -1.0323 0.9695)" class="st14" width="17.5" height="1.6"/>
				</g>
			</g>
			<path class="st15" d="M160.2,89.3c0,0-5.1,3-5.7,19.7c-0.6,16.7-1.6,44.8-1.6,44.8h8.5l4.4-54.5l-1.2-10H160.2z"/>
		</g>
		<g>
			<g>
				<polygon class="st12" points="168.9,159.7 168.3,149.2 173.9,149.9 174,161 168.6,160 				"/>
				<g>
					<path class="st13" d="M174.8,158.3c0,0-3.8,2-5.9-1l-10.2,5.5l17.5-0.1L174.8,158.3z"/>
					
						<rect x="158.6" y="162.8" transform="matrix(1 -6.329169e-03 6.329169e-03 1 -1.032 1.0625)" class="st14" width="17.5" height="1.6"/>
				</g>
			</g>
			<g>
				<path class="st15" d="M171.8,91.4c0,0,5.1,5.9,4.4,16.3l-0.2,46.1l-9.7-0.3l-3.2-62.7L171.8,91.4z"/>
				<polyline class="st16" points="164.3,118.1 163.8,104.7 160.1,99.6 				"/>
			</g>
		</g>
	</g>
	<g>
		<g>
			<g>
				<path class="st12" d="M128.4,70.5l10.9,10.4c1.4,1.4,3.7,1,4.7-0.7l1.1-1.9l-14.8-10.8L128.4,70.5z"/>
				<g>
					<path class="st12" d="M130.6,69c-0.6,1.8-2.4,2.7-4.2,2.1c-1.8-0.6-2.7-2.4-2.1-4.2c0.6-1.8,2.4-2.7,4.2-2.1
						C130.2,65.4,131.1,67.3,130.6,69z"/>
					<path class="st12" d="M128.3,64.8l-3.1-1.9c-0.2-0.2-0.6-0.1-0.8,0.1l0,0c-0.2,0.2-0.1,0.5,0.1,0.7l2.9,2.6L128.3,64.8z"/>
				</g>
			</g>
			<path class="st12" d="M141,76.1l14.1-5.2l-0.7,6.6c0,0-7.6,3.3-12.3,4C137.3,82.4,141,76.1,141,76.1z"/>
		</g>
		<path class="st17" d="M158.8,70.7c0,0-1.3-2-4.6-0.6s-9.4,3.4-9.4,3.4l5.3,9.1l10-3.8L158.8,70.7z"/>
	</g>
	<g>
		<path class="st17" d="M172.2,68.7l-7.4-0.7l-9.3,1.7c0,0-0.6,13.4,0.9,20.3c0.3,1.2,1.4,2,2.6,1.9l13.3,0.2c0,0,1.8-1.3,1.9-4.1
			l-1-18.2C173.2,69.2,172.7,68.7,172.2,68.7z"/>
		<line class="st18" x1="155" y1="80.3" x2="154.5" y2="75.2"/>
	</g>
	<g>
		<g>
			<path class="st12" d="M184.6,87.2c-0.1-0.2,1.3-3.4,1.3-3.4l-6.1-9.3c-0.9-1.9-6-8.3-7.6-6.8c-1.1,1,0.7,8.7,1.5,10l6.4,9.1
				L184.6,87.2z"/>
			<g>
				<path class="st17" d="M170.3,65.8c0,0,4.3-0.2,6.3,2.1c2.5,3,6.8,7.8,6.8,7.8l-10.3,5.5L170.3,65.8z"/>
				<line class="st18" x1="174.4" y1="80.5" x2="169.5" y2="74"/>
			</g>
		</g>
		<g>
			<path class="st19" d="M187.9,99.4l4.8,3.8c1,0.8,1.1,2.5,0,3.9l-2.7,3.4c-1,1.3-2.7,1.7-3.8,0.9l-4.8-3.8L187.9,99.4z"/>
			<path class="st19" d="M187.9,99.4l4.8,3.8c1,0.8,1.1,2.5,0,3.9l-2.7,3.4c-1,1.3-2.7,1.7-3.8,0.9l-4.8-3.8L187.9,99.4z"/>
			<path class="st20" d="M183.7,104.7l6.7,5.2l-0.4,0.5c-1,1.3-2.7,1.7-3.8,0.9l-4.8-3.8L183.7,104.7z"/>
			
				<rect x="145.1" y="33.5" transform="matrix(0.6131 -0.79 0.79 0.6131 -2.5206 148.5703)" class="st5" width="10.6" height="86.8"/>
			<polygon class="st21" points="104.4,41.2 119.3,46.1 112.8,54.5 			"/>
			<polygon class="st5" points="104.4,41.2 109.1,42.7 107,45.3 			"/>
			<path class="st22" d="M182.5,108.9c0.3,0.3,0.9,0.1,1.2-0.3l5.6-7.3c0.3-0.4,0.3-1,0-1.3l-1.7-1.3c-0.3-0.3-0.9-0.1-1.2,0.3
				l-5.6,7.3c-0.3,0.4-0.3,1,0,1.3L182.5,108.9z"/>
			
				<rect x="146.4" y="36.1" transform="matrix(0.6131 -0.79 0.79 0.6131 -5.4612 147.9326)" class="st23" width="3.8" height="86.8"/>
			<path class="st22" d="M182.5,108.9c0.3,0.3,0.9,0.1,1.2-0.3l5.6-7.3c0.3-0.4,0.3-1,0-1.3l-1.7-1.3c-0.3-0.3-0.9-0.1-1.2,0.3
				l-5.6,7.3c-0.3,0.4-0.3,1,0,1.3L182.5,108.9z"/>
			<path class="st24" d="M180.8,106.3l1.9-2.4l2.9,2.3l-1.9,2.4c-0.3,0.4-0.9,0.6-1.2,0.3l-1.7-1.3
				C180.5,107.3,180.5,106.8,180.8,106.3z"/>
			<polygon class="st24" points="104.4,41.2 115.1,51.5 112.8,54.5 			"/>
		</g>
		<g>
			<g>
				<path class="st12" d="M180.8,82.6l-10.7,10.1l2.2,2.5l12.1-7.2c1.9-1.1,2.1-3.8,0.5-5.2l0,0C183.8,81.7,182.1,81.6,180.8,82.6z"
					/>
			</g>
			<g>
				<path class="st12" d="M172.7,94.7c0,0-1.1,4-4.2,4.1c-3.6,0-4.2-2.7-2.7-3.5l2.4-0.1c0,0-0.2-1.5,1.2-2.4
					c0.3-0.2,0.7-0.4,1.2-0.4L172.7,94.7z"/>
				<path class="st12" d="M169.9,92.5l-3.2,1c-0.2,0.1-0.3,0.3-0.3,0.5l0,0c0,0.2,0.2,0.4,0.5,0.4l3.2-0.1L169.9,92.5z"/>
			</g>
		</g>
	</g>
	<g>
		<path class="st25" d="M171.4,54.7c0,0-0.6,12.9,3.5,12.5c0,0-3.4,2.5-9.1-0.2l-3.7-9.2L171.4,54.7z"/>
		<path class="st26" d="M160,58.9c0.1,1.1-0.7,2.1-1.9,2.2c-1.1,0.1-2.1-0.7-2.2-1.9c-0.1-1.1,0.7-2.1,1.9-2.2
			C158.9,56.9,159.9,57.8,160,58.9z"/>
		<g>
			<path class="st12" d="M170,59.1c0.1,1.1-0.7,2.1-1.9,2.2c-1.1,0.1-2.1-0.7-2.2-1.9c-0.1-1.1,0.7-2.1,1.9-2.2
				C168.9,57.1,169.9,57.9,170,59.1z"/>
		</g>
		<path class="st12" d="M168.4,68.3l-4.1-0.4l-5.5,1.2c0,0,0,3.9,4.5,3.7C167.7,72.5,168.4,68.3,168.4,68.3z"/>
		<path class="st12" d="M160.7,64.6L161,69c0.1,1.6,1.1,2.3,2.7,2.2l0,0c1.3-0.1,2.5-0.9,2.5-2.2l-0.9-7L160.7,64.6z"/>
		<polygon class="st26" points="160.9,67.8 166,63.1 160.6,64.1 		"/>
		<path class="st25" d="M158.9,50.5c0,0,8.9-3.8,12,2.1c1.8,3.5-0.3,9.6-4.7,11.3c-1.4,0.5-3-12-3-12L158.9,50.5z"/>
		<path class="st12" d="M162,65.3L162,65.3c-2.6,0-4.8-2-4.9-4.1l-0.2-5.1c-0.1-2.7,1.9-5,4.6-5.2l0,0c2.7-0.2,5.6,1.8,5.9,4.5
			l0.1,4.1C167.5,62.6,165.2,65,162,65.3z"/>
		<path class="st25" d="M167.4,59.2c0,0-0.3-2.1-1.9-3c-1.5-0.9-5.7-2.2-5.3-5.5c0,0,6.5-1.9,8.9,2.3
			C171.6,57.4,167.4,59.2,167.4,59.2z"/>
		<path class="st25" d="M161.3,50.8c0,0-0.5,2.7-4.6,4.5c0,0-1-1.9,1.7-4.5c0.3-0.2,0.6-0.4,0.9-0.4h3.2L161.3,50.8z"/>
	</g>
</g>
</svg>
