<?xml version="1.0" encoding="utf-8"?>
<!-- Generator: Adobe Illustrator 23.0.3, SVG Export Plug-In . SVG Version: 6.00 Build 0)  -->
<svg version="1.1" id="Layer_1" xmlns="http://www.w3.org/2000/svg" xmlns:xlink="http://www.w3.org/1999/xlink" x="0px" y="0px"
	 viewBox="0 0 219.2 205.7" style="enable-background:new 0 0 219.2 205.7;" xml:space="preserve">
<style type="text/css">
	.st0{fill:#DFF2F8;}
	.st1{fill:#795026;}
	.st2{fill:#CA8340;}
	.st3{fill:#B47638;}
	.st4{fill:#D0D0D0;}
	.st5{fill:#FFFFFF;}
	.st6{fill:#2C3C46;}
	.st7{fill:#A8B19B;}
	.st8{fill:#98A08C;}
	.st9{fill:#73796A;}
	.st10{fill:none;stroke:#CEE2E9;stroke-width:4;stroke-miterlimit:10;}
	.st11{fill:#CEE2E9;}
	.st12{fill:#44C5E1;}
	.st13{fill:#FBBC9C;}
	.st14{fill:#010101;}
	.st15{fill:#A59AA5;}
	.st16{fill:#F8C02E;}
	.st17{fill:none;stroke:#E9AF29;stroke-width:0.75;stroke-miterlimit:10;}
	.st18{fill:#499FD8;}
	.st19{fill:none;stroke:#1D96D4;stroke-width:0.75;stroke-miterlimit:10;}
	.st20{fill:#F37E95;}
	.st21{fill:#C7677A;}
	.st22{fill:#FEDBC2;}
	.st23{fill:#C2CEC7;}
	.st24{fill:#1E292F;}
	.st25{opacity:0.1;}
	.st26{fill:#211C30;}
	.st27{fill:#EFAA87;}
</style>
<circle class="st0" cx="102.9" cy="102.9" r="102.9"/>
<g>
	<path class="st1" d="M157.3,165.6c0,2.2-1.8,4.1-4.1,4.1H59.6c-2.2,0-4.1-1.8-4.1-4.1V41.3c0-2.2,1.8-4.1,4.1-4.1h93.6
		c2.2,0,4.1,1.8,4.1,4.1V165.6z"/>
	<path class="st2" d="M156.2,164.5c0,2.2-1.8,4.1-4.1,4.1H58.5c-2.2,0-4.1-1.8-4.1-4.1V40.2c0-2.2,1.8-4.1,4.1-4.1h93.6
		c2.2,0,4.1,1.8,4.1,4.1V164.5z"/>
	<path class="st3" d="M153,36.2c-8.9,17.7-34.9,58.4-98.5,97v31.3c0,2.2,1.8,4.1,4.1,4.1h93.6c2.2,0,4.1-1.8,4.1-4.1V40.2
		C156.2,38.3,154.8,36.6,153,36.2z"/>
	<rect x="62.8" y="47.6" class="st4" width="87" height="113.8"/>
	<rect x="61.8" y="46.2" class="st5" width="87" height="113.8"/>
	<g>
		<path class="st6" d="M88,62c-0.6,0.3-1.2,0.4-1.9,0.4c-2.1,0-3.5-1.4-3.5-3.3c0-1.9,1.4-3.3,3.5-3.3c0.6,0,1.3,0.2,1.8,0.4v1.4
			c-0.5-0.3-1.1-0.6-1.8-0.6c-1.2,0-2.1,0.9-2.1,2c0,1.1,0.8,2.1,2.2,2.1c0.7,0,1.3-0.2,1.8-0.6V62z"/>
		<path class="st6" d="M88.9,55.5h1.4v2.8l0,0c0.3-0.3,0.8-0.5,1.3-0.5c0.5,0,0.9,0.2,1.1,0.4c0.3,0.3,0.4,0.7,0.4,1.3v2.7h-1.4
			v-2.5c0-0.3,0-0.5-0.2-0.6c-0.1-0.1-0.3-0.2-0.5-0.2c-0.3,0-0.7,0.2-0.9,0.4v2.9h-1.4V55.5z"/>
		<path class="st6" d="M95.4,60.5c0.2,0.6,0.6,0.9,1.3,0.9c0.5,0,1-0.2,1.5-0.5V62c-0.4,0.3-1.1,0.4-1.7,0.4c-1.4,0-2.5-0.9-2.5-2.3
			c0-1.4,1.1-2.3,2.3-2.3c1.1,0,2.1,0.7,2.1,2.2c0,0.2,0,0.3,0,0.5H95.4z M97.1,59.6c-0.1-0.5-0.4-0.8-0.9-0.8
			c-0.4,0-0.8,0.3-0.9,0.8H97.1z"/>
		<path class="st6" d="M102.9,62.1c-0.4,0.2-0.9,0.3-1.4,0.3c-1.4,0-2.4-1-2.4-2.3c0-1.4,1.1-2.3,2.5-2.3c0.5,0,0.9,0.1,1.3,0.3v1.3
			c-0.4-0.2-0.8-0.4-1.2-0.4c-0.7,0-1.2,0.5-1.2,1.1c0,0.7,0.5,1.1,1.2,1.1c0.4,0,0.9-0.2,1.3-0.4V62.1z"/>
		<path class="st6" d="M103.8,55.5h1.4v4.3l0,0l1.5-1.9h1.5l-1.7,2l1.8,2.4h-1.6l-1.6-2.2l0,0v2.2h-1.4V55.5z"/>
		<path class="st6" d="M111.1,55.9h1.4v5.2h2.8v1.2h-4.2V55.9z"/>
		<path class="st6" d="M116.7,55.8c0.4,0,0.8,0.3,0.8,0.8c0,0.4-0.4,0.8-0.8,0.8s-0.8-0.3-0.8-0.8C115.9,56.1,116.3,55.8,116.7,55.8
			z M116,57.9h1.4v4.4H116V57.9z"/>
		<path class="st6" d="M118.4,60.9c0.6,0.4,1.3,0.5,1.7,0.5c0.4,0,0.6-0.1,0.6-0.3c0-0.3-0.5-0.3-1.1-0.5c-0.8-0.2-1.3-0.6-1.3-1.3
			c0-0.9,0.8-1.5,1.9-1.5c0.5,0,1.2,0.1,1.7,0.3v1.2c-0.6-0.3-1.3-0.5-1.6-0.5c-0.4,0-0.6,0.1-0.6,0.3c0,0.3,0.5,0.3,1.1,0.5
			c0.8,0.2,1.3,0.5,1.3,1.3c0,1-0.8,1.5-2,1.5c-0.5,0-1.2-0.1-1.7-0.4V60.9z"/>
		<path class="st6" d="M125.7,62.2c-0.2,0.1-0.6,0.2-1,0.2c-0.4,0-0.9-0.1-1.1-0.4c-0.2-0.2-0.4-0.6-0.4-1.3v-1.6h-0.7v-1.1h0.7
			v-1.1l1.4-0.2v1.4h1.2v1.1h-1.2v1.5c0,0.4,0.1,0.7,0.5,0.7c0.2,0,0.5-0.1,0.6-0.2V62.2z"/>
	</g>
	<g>
		<path class="st7" d="M140.1,35.1c0-1.5-1.2-2.6-2.6-2.6h-22.2c0.1-0.5,0.1-1.1,0.1-1.6c0-5.7-4.5-10.3-10.1-10.3
			c-5.6,0-10.1,4.6-10.1,10.3c0,0.5,0,1.1,0.1,1.6H73.1c-1.4,0-2.6,1.2-2.6,2.6v13.5h69.6V35.1z M105.3,31.8c-1.8,0-3.2-1.4-3.2-3.2
			c0-1.8,1.4-3.2,3.2-3.2c1.8,0,3.2,1.4,3.2,3.2C108.5,30.3,107.1,31.8,105.3,31.8z"/>
		<path class="st8" d="M138,32.5c-0.8,4.2-3.7,12.1-14.4,12.1c-10.7,0-38.5,0-53,0v4h69.6V35.1C140.1,33.8,139.2,32.7,138,32.5z"/>
		<rect x="70.5" y="47.4" class="st9" width="69.6" height="1.2"/>
	</g>
	<g>
		<g>
			<path class="st10" d="M86.2,78.4c0,3.8-3.1,6.9-6.9,6.9c-3.8,0-6.9-3.1-6.9-6.9c0-3.8,3.1-6.9,6.9-6.9
				C83.1,71.4,86.2,74.5,86.2,78.4z"/>
			<g>
				<path class="st11" d="M130,74.1c0,0.4-0.4,0.8-0.8,0.8H92.1c-0.4,0-0.8-0.4-0.8-0.8l0,0c0-0.4,0.4-0.8,0.8-0.8h37.1
					C129.6,73.4,130,73.7,130,74.1L130,74.1z"/>
				<path class="st11" d="M123.2,78.4c0,0.4-0.4,0.8-0.8,0.8H92.1c-0.4,0-0.8-0.4-0.8-0.8l0,0c0-0.4,0.4-0.8,0.8-0.8h30.3
					C122.8,77.6,123.2,77.9,123.2,78.4L123.2,78.4z"/>
				<path class="st11" d="M132.8,82.6c0,0.4-0.4,0.8-0.8,0.8H92.1c-0.4,0-0.8-0.4-0.8-0.8l0,0c0-0.4,0.4-0.8,0.8-0.8H132
					C132.4,81.8,132.8,82.2,132.8,82.6L132.8,82.6z"/>
			</g>
		</g>
		<path class="st12" d="M87,71.4c-2.6,1.5-5.1,3.6-7.1,5.9c-0.3,0.3-0.6,0.6-0.9,0.8c0,0,0,0,0-0.1c-0.6-0.9-0.9-2.1-1.7-2.9
			c-0.6-0.7-1.6-0.9-2.4-0.3c-1.1,0.8-2.1,1.1-1.9,2.6c0.1,0.6,0.6,1.1,1.2,1.2c0,0,0.1,0,0.1,0c0.3,0,0.6,0,0.8-0.2
			c1,2.2,2.4,4.8,5,3.6c1.6-0.7,6.8-7.5,7.9-9.7C88.1,71.8,87.5,71.1,87,71.4z"/>
	</g>
	<g>
		<g>
			<path class="st10" d="M86.2,99.7c0,3.8-3.1,6.9-6.9,6.9c-3.8,0-6.9-3.1-6.9-6.9c0-3.8,3.1-6.9,6.9-6.9
				C83.1,92.7,86.2,95.8,86.2,99.7z"/>
			<g>
				<path class="st11" d="M118.8,95.4c0,0.4-0.4,0.8-0.8,0.8H92.1c-0.4,0-0.8-0.4-0.8-0.8l0,0c0-0.4,0.4-0.8,0.8-0.8H118
					C118.4,94.6,118.8,95,118.8,95.4L118.8,95.4z"/>
				<path class="st11" d="M129.8,99.7c0,0.4-0.4,0.8-0.8,0.8h-37c-0.4,0-0.8-0.4-0.8-0.8l0,0c0-0.4,0.4-0.8,0.8-0.8h37
					C129.5,98.9,129.8,99.2,129.8,99.7L129.8,99.7z"/>
				<path class="st11" d="M115.7,103.9c0,0.4-0.4,0.8-0.8,0.8H92.1c-0.4,0-0.8-0.4-0.8-0.8l0,0c0-0.4,0.4-0.8,0.8-0.8h22.8
					C115.3,103.1,115.7,103.4,115.7,103.9L115.7,103.9z"/>
			</g>
		</g>
		<path class="st12" d="M87,92.7c-2.6,1.5-5.1,3.5-7.1,5.9c-0.3,0.3-0.6,0.6-0.9,0.8c0,0,0,0,0-0.1c-0.6-0.9-0.9-2.1-1.7-2.9
			c-0.6-0.7-1.6-0.9-2.4-0.3c-1.1,0.8-2.1,1.1-1.9,2.6c0.1,0.6,0.6,1.1,1.2,1.2c0,0,0.1,0,0.1,0c0.3,0,0.6,0,0.8-0.2
			c1,2.2,2.4,4.8,5,3.6c1.6-0.7,6.8-7.5,7.9-9.7C88.1,93.1,87.5,92.4,87,92.7z"/>
	</g>
	<g>
		<g>
			<path class="st10" d="M86.2,120.5c0,3.8-3.1,6.9-6.9,6.9c-3.8,0-6.9-3.1-6.9-6.9c0-3.8,3.1-6.9,6.9-6.9
				C83.1,113.6,86.2,116.7,86.2,120.5z"/>
			<g>
				<path class="st11" d="M110.2,116.3c0,0.4-0.4,0.8-0.8,0.8H92.1c-0.4,0-0.8-0.4-0.8-0.8l0,0c0-0.4,0.4-0.8,0.8-0.8h17.3
					C109.8,115.5,110.2,115.9,110.2,116.3L110.2,116.3z"/>
				<path class="st11" d="M123.2,120.5c0,0.4-0.4,0.8-0.8,0.8H92.1c-0.4,0-0.8-0.4-0.8-0.8l0,0c0-0.4,0.4-0.8,0.8-0.8h30.3
					C122.8,119.7,123.2,120.1,123.2,120.5L123.2,120.5z"/>
				<path class="st11" d="M118,124.7c0,0.4-0.4,0.8-0.8,0.8H92.1c-0.4,0-0.8-0.4-0.8-0.8l0,0c0-0.4,0.4-0.8,0.8-0.8h25.1
					C117.6,124,118,124.3,118,124.7L118,124.7z"/>
			</g>
		</g>
		<path class="st12" d="M87,113.6c-2.6,1.5-5.1,3.6-7.1,5.9c-0.3,0.3-0.6,0.6-0.9,0.8c0,0,0,0,0-0.1c-0.6-0.9-0.9-2.1-1.7-2.9
			c-0.6-0.7-1.6-0.9-2.4-0.3c-1.1,0.8-2.1,1.1-1.9,2.6c0.1,0.6,0.6,1.1,1.2,1.2c0,0,0.1,0,0.1,0c0.3,0,0.6,0,0.8-0.2
			c1,2.2,2.4,4.8,5,3.6c1.6-0.7,6.8-7.5,7.9-9.7C88.1,114,87.5,113.3,87,113.6z"/>
	</g>
	<g>
		<g>
			
				<ellipse transform="matrix(0.7071 -0.7071 0.7071 0.7071 -75.7329 97.0616)" class="st10" cx="79.3" cy="139.9" rx="6.9" ry="6.9"/>
			<g>
				<path class="st11" d="M130,135.7c0,0.4-0.4,0.8-0.8,0.8H92.1c-0.4,0-0.8-0.4-0.8-0.8l0,0c0-0.4,0.4-0.8,0.8-0.8h37.1
					C129.6,134.9,130,135.3,130,135.7L130,135.7z"/>
				<path class="st11" d="M123.2,139.9c0,0.4-0.4,0.8-0.8,0.8H92.1c-0.4,0-0.8-0.4-0.8-0.8l0,0c0-0.4,0.4-0.8,0.8-0.8h30.3
					C122.8,139.2,123.2,139.5,123.2,139.9L123.2,139.9z"/>
				<path class="st11" d="M116,144.2c0,0.4-0.4,0.8-0.8,0.8H92.1c-0.4,0-0.8-0.4-0.8-0.8l0,0c0-0.4,0.4-0.8,0.8-0.8h23.1
					C115.6,143.4,116,143.7,116,144.2L116,144.2z"/>
			</g>
		</g>
		<path class="st12" d="M87,133c-2.6,1.5-5.1,3.5-7.1,5.9c-0.3,0.3-0.6,0.6-0.9,0.8c0,0,0,0,0-0.1c-0.6-0.9-0.9-2.1-1.7-2.9
			c-0.6-0.7-1.6-0.9-2.4-0.3c-1.1,0.8-2.1,1.1-1.9,2.6c0.1,0.6,0.6,1.1,1.2,1.2c0,0,0.1,0,0.1,0c0.3,0,0.6,0,0.8-0.2
			c1,2.2,2.4,4.8,5,3.6c1.6-0.7,6.8-7.5,7.9-9.7C88.1,133.4,87.5,132.7,87,133z"/>
	</g>
</g>
<g>
	<g>
		<g>
			<g>
				<polygon class="st13" points="179.8,180.5 180.4,170 186.1,170.7 184.9,181.8 179.5,180.8 				"/>
				<g>
					<path class="st14" d="M185.7,179.1c0,0-3.8,2-5.9-1l-10.2,5.5l17.5-0.1L185.7,179.1z"/>
					
						<rect x="169.6" y="183.6" transform="matrix(1 -6.329295e-03 6.329295e-03 1 -1.1634 1.1325)" class="st15" width="17.5" height="1.6"/>
				</g>
			</g>
			<path class="st16" d="M185.9,110.1c0,0-5.1,3-5.7,19.7c-0.6,16.7-1.6,44.8-1.6,44.8h8.5l4.4-54.5l-1.2-10H185.9z"/>
		</g>
		<g>
			<g>
				<polygon class="st13" points="194.6,180.5 194,170 199.6,170.7 199.7,181.8 194.3,180.8 				"/>
				<g>
					<path class="st14" d="M200.5,179.1c0,0-3.8,2-5.9-1l-10.2,5.5l17.5-0.1L200.5,179.1z"/>
					
						<rect x="184.3" y="183.6" transform="matrix(1 -6.329295e-03 6.329295e-03 1 -1.1631 1.2259)" class="st15" width="17.5" height="1.6"/>
				</g>
			</g>
			<g>
				<path class="st16" d="M197.5,112.2c0,0,5.1,5.9,4.4,16.3l-0.2,46.1l-9.7-0.3l-3.1-62.8L197.5,112.2z"/>
				<polyline class="st17" points="190,138.9 189.5,125.5 185.8,120.4 				"/>
			</g>
		</g>
	</g>
	<g>
		<g>
			<g>
				<path class="st13" d="M154.1,91.3l10.9,10.4c1.4,1.4,3.7,1,4.7-0.7l1.1-1.9L156,88.3L154.1,91.3z"/>
				<g>
					<path class="st13" d="M156.3,89.8c-0.6,1.8-2.4,2.7-4.2,2.1c-1.8-0.6-2.7-2.4-2.1-4.2c0.6-1.8,2.4-2.7,4.2-2.1
						C155.9,86.2,156.8,88.1,156.3,89.8z"/>
					<path class="st13" d="M154,85.6l-3.1-1.9c-0.2-0.2-0.6-0.1-0.8,0.1l0,0c-0.2,0.2-0.1,0.5,0.1,0.7l2.9,2.6L154,85.6z"/>
				</g>
			</g>
			<path class="st13" d="M166.7,96.9l14.1-5.2l-0.7,6.6c0,0-7.6,3.3-12.3,4C163,103.2,166.7,96.9,166.7,96.9z"/>
		</g>
		<path class="st18" d="M184.5,91.5c0,0-1.3-2-4.6-0.6c-3.3,1.4-9.4,3.4-9.4,3.4l5.3,9.1l10-3.8L184.5,91.5z"/>
	</g>
	<g>
		<path class="st18" d="M197.9,89.5l-7.4-0.7l-9.3,1.7c0,0-0.6,13.4,0.9,20.3c0.3,1.2,1.4,2,2.6,1.9l13.3,0.2c0,0,1.8-1.3,1.9-4.1
			l-1-18.2C198.9,90,198.4,89.5,197.9,89.5z"/>
		<line class="st19" x1="180.7" y1="101.1" x2="180.2" y2="96"/>
	</g>
	<g>
		<g>
			<path class="st13" d="M210.3,108c-0.1-0.2,1.3-3.4,1.3-3.4l-6.1-9.3c-0.9-1.9-6-8.3-7.6-6.8c-1.1,1,0.7,8.7,1.5,10l6.4,9.1
				L210.3,108z"/>
			<g>
				<path class="st18" d="M196,86.6c0,0,4.3-0.2,6.3,2.1c2.5,3,6.8,7.8,6.8,7.8l-10.3,5.5L196,86.6z"/>
				<line class="st19" x1="200.1" y1="101.3" x2="195.2" y2="94.8"/>
			</g>
		</g>
		<g>
			<path class="st20" d="M213.6,120.2l4.8,3.8c1,0.8,1.1,2.5,0,3.9l-2.7,3.4c-1,1.3-2.7,1.7-3.8,0.9l-4.8-3.8L213.6,120.2z"/>
			<path class="st20" d="M213.6,120.2l4.8,3.8c1,0.8,1.1,2.5,0,3.9l-2.7,3.4c-1,1.3-2.7,1.7-3.8,0.9l-4.8-3.8L213.6,120.2z"/>
			<path class="st21" d="M209.4,125.5l6.7,5.2l-0.4,0.5c-1,1.3-2.7,1.7-3.8,0.9l-4.8-3.8L209.4,125.5z"/>
			
				<rect x="170.8" y="54.3" transform="matrix(0.6131 -0.79 0.79 0.6131 -9.043 176.9036)" class="st6" width="10.6" height="86.8"/>
			<polygon class="st22" points="130.1,62 145,66.9 138.5,75.3 			"/>
			<polygon class="st6" points="130.1,62 134.8,63.5 132.7,66.1 			"/>
			<path class="st23" d="M208.2,129.7c0.3,0.3,0.9,0.1,1.2-0.3l5.6-7.3c0.3-0.4,0.3-1,0-1.3l-1.7-1.3c-0.3-0.3-0.9-0.1-1.2,0.3
				l-5.6,7.3c-0.3,0.4-0.3,1,0,1.3L208.2,129.7z"/>
			
				<rect x="172.1" y="57" transform="matrix(0.6131 -0.79 0.79 0.6131 -12.0084 176.2709)" class="st24" width="3.8" height="86.8"/>
			<path class="st23" d="M208.2,129.7c0.3,0.3,0.9,0.1,1.2-0.3l5.6-7.3c0.3-0.4,0.3-1,0-1.3l-1.7-1.3c-0.3-0.3-0.9-0.1-1.2,0.3
				l-5.6,7.3c-0.3,0.4-0.3,1,0,1.3L208.2,129.7z"/>
			<path class="st25" d="M206.5,127.1l1.9-2.4l2.9,2.3l-1.9,2.4c-0.3,0.4-0.9,0.6-1.2,0.3l-1.7-1.3
				C206.2,128.2,206.2,127.6,206.5,127.1z"/>
			<polygon class="st25" points="130.1,62 140.8,72.3 138.5,75.3 			"/>
		</g>
		<g>
			<g>
				<path class="st13" d="M206.5,103.4l-10.7,10.1l2.2,2.5l12.1-7.2c1.9-1.1,2.1-3.8,0.5-5.2l0,0
					C209.5,102.5,207.8,102.4,206.5,103.4z"/>
			</g>
			<g>
				<path class="st13" d="M198.4,115.5c0,0-1.1,4-4.2,4.1c-3.6,0-4.2-2.7-2.7-3.5l2.4-0.1c0,0-0.2-1.5,1.2-2.4
					c0.3-0.2,0.7-0.4,1.2-0.4L198.4,115.5z"/>
				<path class="st13" d="M195.6,113.3l-3.2,1c-0.2,0.1-0.3,0.3-0.3,0.5l0,0c0,0.2,0.2,0.4,0.5,0.4l3.2-0.1L195.6,113.3z"/>
			</g>
		</g>
	</g>
	<g>
		<path class="st26" d="M197.1,75.5c0,0-0.6,12.9,3.5,12.5c0,0-3.4,2.5-9.1-0.2l-3.7-9.2L197.1,75.5z"/>
		<path class="st27" d="M185.7,79.7c0.1,1.1-0.7,2.1-1.9,2.2c-1.1,0.1-2.1-0.7-2.2-1.9c-0.1-1.1,0.7-2.1,1.9-2.2
			C184.6,77.7,185.6,78.6,185.7,79.7z"/>
		<g>
			<path class="st13" d="M195.7,79.9c0.1,1.1-0.7,2.1-1.9,2.2c-1.1,0.1-2.1-0.7-2.2-1.9s0.7-2.1,1.9-2.2
				C194.6,77.9,195.6,78.7,195.7,79.9z"/>
		</g>
		<path class="st13" d="M194.1,89.1l-4.1-0.4l-5.5,1.2c0,0,0,3.9,4.5,3.7C193.4,93.3,194.1,89.1,194.1,89.1z"/>
		<path class="st13" d="M186.4,85.4l0.3,4.4c0.1,1.6,1.1,2.3,2.7,2.2l0,0c1.3-0.1,2.5-0.9,2.5-2.2l-0.9-7L186.4,85.4z"/>
		<polygon class="st27" points="186.6,88.6 191.7,83.9 186.3,85 		"/>
		<path class="st26" d="M184.6,71.3c0,0,8.9-3.8,12,2.1c1.8,3.5-0.3,9.6-4.7,11.3c-1.4,0.5-3-12-3-12L184.6,71.3z"/>
		<path class="st13" d="M187.7,86.1L187.7,86.1c-2.6,0-4.8-2-4.9-4.1l-0.2-5.1c-0.1-2.7,1.9-5,4.6-5.2l0,0c2.7-0.2,5.6,1.8,5.9,4.5
			l0.1,4.1C193.2,83.4,190.9,85.8,187.7,86.1z"/>
		<path class="st26" d="M193.1,80c0,0-0.3-2.1-1.9-3c-1.5-0.9-5.7-2.2-5.3-5.5c0,0,6.5-1.9,8.9,2.3C197.3,78.2,193.1,80,193.1,80z"
			/>
		<path class="st26" d="M187,71.6c0,0-0.5,2.7-4.6,4.5c0,0-1-1.9,1.7-4.5c0.3-0.2,0.6-0.4,0.9-0.4l3.2,0L187,71.6z"/>
	</g>
</g>
</svg>
