<?xml version="1.0" encoding="utf-8"?>
<!-- Generator: Adobe Illustrator 23.0.3, SVG Export Plug-In . SVG Version: 6.00 Build 0)  -->
<svg version="1.1" id="Layer_1" xmlns="http://www.w3.org/2000/svg" xmlns:xlink="http://www.w3.org/1999/xlink" x="0px" y="0px"
	 viewBox="0 0 219.2 164.6" style="enable-background:new 0 0 219.2 164.6;" xml:space="preserve">
<style type="text/css">
	.st0{fill:#FFFFFF;}
	.st1{fill:#2B3C46;}
	.st2{fill:#F05E59;}
	.st3{fill:#FDBF39;}
	.st4{fill:#51B751;}
	.st5{fill:#43C4E0;}
	.st6{fill:#DDDDDC;}
	.st7{fill:#FABB9B;}
	.st8{fill:#010101;}
	.st9{fill:#C1B6C1;}
	.st10{fill:#313E5E;}
	.st11{fill:#BC202E;}
	.st12{fill:#F9B58D;}
	.st13{fill:#FABF9D;}
	.st14{fill:#A97C50;}
	.st15{fill:#A11D2A;}
	.st16{fill:#F89E00;}
	.st17{fill:#7D5849;}
	.st18{fill:#604C44;}
	.st19{opacity:0.15;fill:#231F20;}
	.st20{fill:#BFC7D1;}
	.st21{fill:#A5ADB9;}
	.st22{opacity:0.2;fill:#231F20;}
	.st23{fill:#C0EBF9;}
</style>
<path class="st0" d="M67.2,30.9h123.5v87.3c0,1.5-1.2,2.7-2.7,2.7H69.9c-1.5,0-2.7-1.2-2.7-2.7V30.9z"/>
<path class="st1" d="M190.7,31.7H67.2v-9.2c0-1.5,1.2-2.7,2.7-2.7h118.2c1.5,0,2.7,1.2,2.7,2.7V31.7z"/>
<path class="st0" d="M162.3,28.7H76.6c-1.6,0-2.9-1.3-2.9-2.9v0c0-1.6,1.3-2.9,2.9-2.9h85.7c1.6,0,2.9,1.3,2.9,2.9v0
	C165.2,27.4,163.9,28.7,162.3,28.7z"/>
<circle class="st2" cx="173.9" cy="25.8" r="2"/>
<circle class="st3" cx="178.9" cy="25.8" r="2"/>
<circle class="st4" cx="183.9" cy="25.8" r="2"/>
<path class="st5" d="M114.6,82.4H77.2c-1.9,0-3.5-1.6-3.5-3.5V41.5c0-1.9,1.6-3.5,3.5-3.5h37.3c1.9,0,3.5,1.6,3.5,3.5v37.3
	C118.1,80.8,116.5,82.4,114.6,82.4z"/>
<g>
	<g>
		<g>
			<path class="st0" d="M104.1,64.2c0.8-0.6,1.4-1.4,1.6-2.3l3.1-9.1H89.1l-0.2-2.4c-0.1-0.8-0.5-1.6-1.1-2.2
				c-0.6-0.6-1.4-0.9-2.3-0.9H83v2h2.6c0.7,0,1.3,0.5,1.4,1.3l1.6,17.5c0,0,0,0,0,0c0.2,1.5,1.3,2.8,2.8,3c0.4,1.2,1.5,2,2.8,2
				c1.3,0,2.4-0.8,2.8-2h2.4c0.4,1.1,1.5,2,2.8,2c1.6,0,3-1.3,3-3s-1.3-3-3-3c-1.3,0-2.4,0.8-2.8,2h-2.4c-0.4-1.1-1.5-2-2.8-2
				c-1.2,0-2.3,0.8-2.8,1.9c-0.5-0.2-0.8-0.6-0.9-1.1l-0.3-2.8h11.1C102.4,65.1,103.3,64.8,104.1,64.2z M102.1,69.2c0.5,0,1,0.4,1,1
				c0,0.5-0.4,1-1,1s-1-0.4-1-1C101.1,69.6,101.6,69.2,102.1,69.2z M94.1,69.2c0.5,0,1,0.4,1,1c0,0.5-0.4,1-1,1c-0.5,0-1-0.4-1-1
				C93.2,69.6,93.6,69.2,94.1,69.2z M90.1,63.1L90.1,63.1l-0.7-8.3H106l-2.2,6.4l0,0c-0.3,1.1-1.3,1.8-2.5,1.8H90.1z"/>
		</g>
	</g>
</g>
<rect x="128" y="38" class="st6" width="57.9" height="4"/>
<rect x="128" y="44.4" class="st6" width="36.4" height="4"/>
<rect x="128" y="50.5" class="st6" width="47.7" height="4"/>
<rect x="128" y="65" class="st6" width="47.7" height="4"/>
<rect x="128" y="71.3" class="st6" width="36.4" height="4"/>
<g>
	<g>
		<g>
			<g>
				<polygon class="st7" points="35,118.2 34.8,128 39.3,128.3 40,118.6 				"/>
				<g>
					<g>
						<path class="st8" d="M34.6,127.2l-0.5,5.2h14.4l0,0c0.1-0.6-0.2-1.2-0.7-1.5l-8.1-3.7H34.6z"/>
						<rect x="33.9" y="132.3" class="st9" width="14.8" height="1.5"/>
					</g>
				</g>
			</g>
			<g>
				<polygon class="st7" points="22.8,118.2 22.6,128 27.1,128.3 27.8,118.6 				"/>
				<g>
					<g>
						<path class="st8" d="M22.4,127.2l-0.5,5.2h14.4l0,0c0.1-0.6-0.2-1.2-0.7-1.5l-8.1-3.7H22.4z"/>
						<rect x="21.6" y="132.3" class="st9" width="14.8" height="1.5"/>
					</g>
				</g>
			</g>
			<g>
				<polygon class="st10" points="43.4,99.4 41,123.1 34.1,123.1 35.3,101.7 31.7,86.2 29.1,122.5 20.9,122.5 22.9,74.4 37.8,73.1 
									"/>
			</g>
		</g>
		<path class="st11" d="M27.2,42.2c-2.8,2.1-4.2,7.5-4.7,13l-1.6,21.7c10.2,3.7,19.7-0.7,19.7-0.7V49.2c0.1-2.5-1.7-8.1-5.3-8l0,0
			C35.3,41.2,31.3,39.2,27.2,42.2z"/>
		<g>
			<g>
				<polygon class="st12" points="29.5,43.2 34.8,43.1 34.8,31.7 29.5,31.7 				"/>
				<path class="st13" d="M36,39.8L36,39.8c3.6,0.1,6.5-2.8,6.5-6.4l0.1-8l-13-0.1l-0.1,8C29.5,36.9,32.4,39.8,36,39.8z"/>
				<path class="st14" d="M29.8,31.1l1.9,0.1c0.5,0,2.4-0.8,2.3-1.3c-0.2-1.3,0.1-3.2,1-3.5c1.2-0.4,5.7,1.4,8-0.3
					c3.2-2.4,1-6.3-1.9-6.5c0.2,0.7-0.3,1.4-1.1,1.9c-0.2,0.1-0.7-0.8-0.7-0.8s-0.6,1.4-1,1.5c-0.9,0.3-1.9,0.4-3,0.4
					c-3.3-0.1-8.4-1.5-6.3,7.3L29.8,31.1z"/>
			</g>
			<path class="st13" d="M27.4,31.5c0,1.1,0.9,2,2,2c1.1,0,2-0.9,2-2c0-1.1-0.9-2-2-2C28.3,29.5,27.4,30.4,27.4,31.5z"/>
		</g>
		<polygon class="st12" points="29.5,40.9 33.8,44.1 34.8,40.9 		"/>
		<polygon class="st11" points="33.8,44.1 29,45.7 29.5,40.9 		"/>
		<polygon class="st11" points="33.8,44.1 36,45.2 34.8,40.9 		"/>
	</g>
	<path class="st7" d="M32.7,70.8l1.7-15L28.1,58c0,0-2,6.9-1,13.1C27.9,75.7,32.7,70.8,32.7,70.8z"/>
	<g>
		<path class="st15" d="M35.5,59.3l-8.9-1.6l2-7.8c0.5-2.1,2.7-3.3,4.8-2.7l0,0c1.8,0.5,2.9,2.2,2.7,4L35.5,59.3z"/>
	</g>
	<g>
		<path class="st16" d="M53.9,66.2c-1.9-0.1-4.9,1-10.1,4.4c-9,5.9-16.6,13.6-15.1,15.8c1.5,2.3,11.6-1.7,20.5-7.7
			c5.2-3.4,7.4-5.7,8-7.5l0.3-4.1L53.9,66.2z"/>
		<path class="st17" d="M57.5,63l0.5,3.9l3.3,1.7c0,0,4.1,2,7.8-2.3c3.7-4.2,1-9.5,1-9.5c-1.6,1.9-2.2,1.6-4.9,1.6
			C62.4,58.6,58.2,59.8,57.5,63z"/>
		<path class="st18" d="M59.9,66.5l1.4,2.1c0,0,4.1,2,7.8-2.3c3.7-4.2,1-9.5,1-9.5C70.5,63.7,62.2,65.9,59.9,66.5z"/>
		<path class="st5" d="M67,68.1c0.7-0.4,1.3-1,2-1.7c3.7-4.2,1-9.5,1-9.5c-1.6,1.9-2.2,1.6-4.9,1.6c-0.4,0-0.9,0.1-1.4,0.1
			c0,0.5-0.1,1-0.6,1.6c0,0,1.8,0.9,2.8,2.5c0.2,0.4,0.3,0.7,0.4,1.1C66.4,65,65.9,66.4,67,68.1z"/>
		<path class="st19" d="M67,68.1c0.7-0.4,1.3-1,2-1.7c3.7-4.2,1-9.5,1-9.5c0.2,3.3-1.6,5.5-3.8,6.9C66.4,65,65.9,66.4,67,68.1z"/>
		<path class="st20" d="M53.7,65.8l3.8,5.8c0.3,0.5,0.9,0.6,1.4,0.3l2.3-1.5c0.5-0.3,0.6-0.9,0.3-1.4l-3.8-5.8
			c-0.3-0.5-0.9-0.6-1.4-0.3l-2.3,1.5C53.5,64.7,53.4,65.3,53.7,65.8z"/>
		<path class="st21" d="M59.6,68l-2.3,1.5c-0.5,0.3-1.1,0.2-1.4-0.3l1.5,2.3c0.3,0.5,0.9,0.6,1.4,0.3l2.3-1.5
			c0.5-0.3,0.6-0.9,0.3-1.4l-1.5-2.3C60.2,67.1,60.1,67.7,59.6,68z"/>
		<path class="st22" d="M47.9,76.7c5.2-3.4,7.6-5.4,8.5-6.7l0.8,1.3c-0.6,1.8-2.8,4.1-8,7.5c-9,5.9-19,9.9-20.5,7.7
			C29.5,87.5,38.9,82.6,47.9,76.7z"/>
	</g>
	<path class="st7" d="M42.6,80.9l-13.8-6.4c-1.8-0.8-2.3-3.1-1-4.7l1.4-1.7L44.7,78L42.6,80.9z"/>
	<g>
		<path class="st7" d="M43.1,78.4c-1.5,1.2-1.6,3.3-0.5,4.7c1.2,1.5,3.3,1.6,4.7,0.5c1.4-1.2,1.6-3.3,0.5-4.7
			C46.7,77.4,44.6,77.2,43.1,78.4z"/>
	</g>
</g>
<circle class="st23" cx="180.9" cy="126" r="19.4"/>
<g>
	<g>
		<path class="st1" d="M175.9,131.5l-7.9-4.3v-2.4l7.9-4.3v2.8l-5.5,2.6l5.5,2.7C175.9,128.7,175.9,131.5,175.9,131.5z"/>
		<path class="st1" d="M177.3,133l5.2-13.9h1.6l-5.2,13.9H177.3z"/>
		<path class="st1" d="M185.9,131.5v-2.8l5.5-2.7l-5.5-2.7v-2.8l7.9,4.3v2.4L185.9,131.5z"/>
	</g>
</g>
<rect x="128" y="85.9" class="st6" width="57.9" height="4"/>
<rect x="128" y="92.2" class="st6" width="36.4" height="4"/>
<rect x="128" y="98.4" class="st6" width="47.7" height="4"/>
</svg>
