<?xml version="1.0" encoding="utf-8"?>
<!-- Generator: Adobe Illustrator 23.0.3, SVG Export Plug-In . SVG Version: 6.00 Build 0)  -->
<svg version="1.1" id="Layer_1" xmlns="http://www.w3.org/2000/svg" xmlns:xlink="http://www.w3.org/1999/xlink" x="0px" y="0px"
	 viewBox="0 0 196.9 170" style="enable-background:new 0 0 196.9 170;" xml:space="preserve">
<style type="text/css">
	.st0{fill:#BCD9E2;}
	.st1{fill:#DFF2F8;}
	.st2{fill:#2C3D47;}
	.st3{fill:#ECF2F0;}
	.st4{fill:#05062A;}
	.st5{fill:#FBFBFB;}
	.st6{fill:#415A69;}
	.st7{fill:#44C5E1;}
	.st8{fill:#E93859;}
	.st9{fill:#0082B7;}
	.st10{fill:#313965;}
	.st11{fill:#FBBC9C;}
	.st12{fill:#499FD8;}
	.st13{fill:#010101;}
	.st14{fill:#A59AA5;}
	.st15{fill:#F8C02E;}
	.st16{fill:none;stroke:#E9AF29;stroke-width:0.75;stroke-miterlimit:10;}
	.st17{fill:#211C30;}
	.st18{fill:#EFAA87;}
	.st19{fill:#3EB1CA;}
	.st20{fill:#FFFFFF;}
</style>
<g>
	<polygon class="st0" points="53.7,104 56.1,109 56.6,109.5 136,69.2 144.4,82.6 184.2,64.1 186.7,69.6 187.3,70.1 197.2,50.9 
		196.6,50.4 177.1,52.6 180.2,57.6 145.5,71.4 138.2,60 	"/>
	<polygon class="st1" points="53.1,103.5 56.1,109 136.2,68.6 144.6,81.9 183.6,63.6 186.7,69.6 196.6,50.4 176.5,52.2 179.6,57.1 
		145.3,70.8 138,59.4 	"/>
</g>
<g>
	<path class="st2" d="M87.6,75.6c4.2-4.2,4.2-11,0-15.2c-4.2-4.2-11-4.2-15.2,0c-4.2,4.2-4.2,11,0,15.2
		C76.6,79.8,83.4,79.8,87.6,75.6z"/>
	<path class="st3" d="M86.4,74.4c3.5-3.5,3.5-9.3,0-12.8c-3.5-3.5-9.3-3.5-12.8,0c-3.5,3.5-3.5,9.3,0,12.8
		C77.1,78,82.9,78,86.4,74.4z"/>
	<path class="st4" d="M80.2,68.3c0.1-0.1,0.1-0.4,0-0.5c-0.1-0.1-0.4-0.1-0.5,0c-0.1,0.1-0.1,0.4,0,0.5
		C79.9,68.4,80.1,68.4,80.2,68.3z"/>
	<g>
		<g>
			<path class="st2" d="M79.5,67.2c-0.5,0.3-0.6,0.9-0.4,1.3c0.3,0.5,0.9,0.6,1.3,0.4c0.5-0.3,0.6-0.9,0.4-1.3
				C80.6,67.1,80,67,79.5,67.2z"/>
		</g>
		<polygon class="st2" points="80.4,68 85,61.2 84.7,61 79.9,67.6 75.4,64.6 75.1,64.9 80.1,68.5 80.1,68.4 80.1,68.5 80.3,68.2 
			80.4,68 		"/>
	</g>
	<g>
		<path class="st3" d="M79.5,68c0,0.3,0.1,0.5,0.4,0.5c0.3,0,0.5-0.1,0.5-0.4c0-0.3-0.1-0.5-0.4-0.5C79.8,67.6,79.6,67.8,79.5,68z"
			/>
	</g>
	<g>
		<rect x="79.8" y="59.5" class="st2" width="0.4" height="1.5"/>
		<rect x="79.8" y="74.7" class="st2" width="0.4" height="1.5"/>
	</g>
	<g>
		<rect x="71.6" y="67.7" class="st2" width="1.5" height="0.4"/>
		<rect x="86.9" y="67.7" class="st2" width="1.5" height="0.4"/>
	</g>
	<g>
		<rect x="84.6" y="62.3" transform="matrix(0.7071 -0.7071 0.7071 0.7071 -19.17 78.6672)" class="st2" width="1.5" height="0.4"/>
		<rect x="73.8" y="73" transform="matrix(0.7071 -0.7071 0.7071 0.7071 -29.9493 74.2022)" class="st2" width="1.5" height="0.4"/>
	</g>
	<g>
		
			<rect x="74.4" y="61.7" transform="matrix(0.7071 -0.7071 0.7071 0.7071 -22.3276 71.0451)" class="st2" width="0.4" height="1.5"/>
		<rect x="85.2" y="72.5" transform="matrix(0.7071 -0.7071 0.7071 0.7071 -26.7917 81.83)" class="st2" width="0.4" height="1.5"/>
	</g>
</g>
<g>
	<path class="st2" d="M145.9,51L137,39.6c-0.3-0.3-0.2-0.8,0.1-1L151.9,27c0.3-0.3,0.8-0.2,1,0.1l8.9,11.4c0.3,0.3,0.2,0.8-0.1,1
		l-14.8,11.6C146.6,51.3,146.2,51.3,145.9,51z"/>
	
		<rect x="142.7" y="29.9" transform="matrix(0.6167 0.7872 -0.7872 0.6167 88.0341 -102.6583)" class="st5" width="13.4" height="18.4"/>
	<g>
		
			<rect x="149.7" y="35.7" transform="matrix(0.6167 0.7872 -0.7872 0.6167 87.4617 -107.943)" class="st0" width="9.8" height="0.3"/>
		
			<rect x="148.7" y="36.6" transform="matrix(0.6167 0.7872 -0.7872 0.6167 87.7993 -106.7701)" class="st0" width="9.8" height="0.3"/>
		
			<rect x="147.5" y="37.4" transform="matrix(0.6167 0.7872 -0.7872 0.6167 88.0112 -105.5835)" class="st0" width="9.8" height="0.3"/>
		
			<rect x="146.5" y="38.4" transform="matrix(0.6167 0.7872 -0.7872 0.6167 88.3481 -104.4103)" class="st0" width="9.8" height="0.3"/>
		
			<rect x="145.3" y="39.2" transform="matrix(0.6167 0.7872 -0.7872 0.6167 88.5802 -103.1284)" class="st0" width="9.8" height="0.3"/>
		
			<rect x="144.3" y="40.2" transform="matrix(0.6167 0.7872 -0.7872 0.6167 88.9177 -101.9555)" class="st0" width="9.8" height="0.3"/>
		
			<rect x="143.2" y="41" transform="matrix(0.6167 0.7872 -0.7872 0.6167 89.1297 -100.7689)" class="st0" width="9.8" height="0.3"/>
		
			<rect x="142.1" y="41.9" transform="matrix(0.6167 0.7872 -0.7872 0.6167 89.4669 -99.5958)" class="st0" width="9.8" height="0.3"/>
		
			<rect x="141" y="42.8" transform="matrix(0.6167 0.7872 -0.7872 0.6167 89.6894 -98.3599)" class="st0" width="9.8" height="0.3"/>
		
			<rect x="139.9" y="43.7" transform="matrix(0.6167 0.7872 -0.7872 0.6167 90.0267 -97.1868)" class="st0" width="9.8" height="0.3"/>
	</g>
	<g>
		
			<rect x="150.3" y="31.1" transform="matrix(-0.6167 -0.7872 0.7872 -0.6167 219.491 169.401)" class="st0" width="1.4" height="0.3"/>
		
			<rect x="149.2" y="32" transform="matrix(-0.6167 -0.7872 0.7872 -0.6167 217.0406 169.9017)" class="st0" width="1.4" height="0.3"/>
		
			<rect x="148.1" y="32.8" transform="matrix(-0.6167 -0.7872 0.7872 -0.6167 214.6243 170.4329)" class="st0" width="1.4" height="0.3"/>
		
			<rect x="147" y="33.7" transform="matrix(-0.6167 -0.7872 0.7872 -0.6167 212.1738 170.9336)" class="st0" width="1.4" height="0.3"/>
		
			<rect x="145.8" y="34.6" transform="matrix(-0.6167 -0.7872 0.7872 -0.6167 209.5601 171.5077)" class="st0" width="1.4" height="0.3"/>
		
			<rect x="144.7" y="35.4" transform="matrix(-0.6167 -0.7872 0.7872 -0.6167 207.1097 172.0083)" class="st0" width="1.4" height="0.3"/>
		
			<rect x="143.7" y="36.3" transform="matrix(-0.6167 -0.7872 0.7872 -0.6167 204.6934 172.5396)" class="st0" width="1.4" height="0.3"/>
		
			<rect x="142.5" y="37.1" transform="matrix(-0.6167 -0.7872 0.7872 -0.6167 202.2429 173.0402)" class="st0" width="1.4" height="0.3"/>
		
			<rect x="141.4" y="38" transform="matrix(-0.6167 -0.7872 0.7872 -0.6167 199.7254 173.5932)" class="st0" width="1.4" height="0.3"/>
		
			<rect x="140.3" y="38.9" transform="matrix(-0.6167 -0.7872 0.7872 -0.6167 197.2769 174.093)" class="st0" width="1.4" height="0.3"/>
	</g>
	<rect x="153.2" y="31.4" transform="matrix(0.6227 0.7825 -0.7825 0.6227 85.1691 -110.722)" class="st2" width="8.3" height="3"/>
	
		<rect x="152.6" y="32.7" transform="matrix(0.6227 0.7825 -0.7825 0.6227 85.3149 -110.0785)" class="st6" width="8.3" height="1.5"/>
</g>
<g>
	<g>
		<g>
			<g>
				
					<rect x="97.4" y="130.3" transform="matrix(0.8841 -0.4672 0.4672 0.8841 -54.6513 63.0342)" class="st7" width="4.7" height="22.8"/>
			</g>
		</g>
	</g>
	<g>
		<g>
			<g>
				
					<rect x="97.1" y="130.4" transform="matrix(0.8841 -0.4672 0.4672 0.8841 -54.3849 62.7949)" class="st2" width="4.7" height="21.3"/>
			</g>
		</g>
	</g>
	<g>
		<g>
			<g>
				
					<rect x="104.8" y="135.3" transform="matrix(0.8841 -0.4672 0.4672 0.8841 -54.1815 66.5811)" class="st7" width="4.7" height="14.4"/>
			</g>
		</g>
	</g>
	<g>
		<g>
			<g>
				
					<rect x="105.5" y="113.2" transform="matrix(0.8841 -0.4672 0.4672 0.8841 -48.5495 65.5129)" class="st7" width="4.7" height="34.8"/>
			</g>
		</g>
	</g>
	<g>
		<g>
			<g>
				
					<rect x="112.7" y="117.6" transform="matrix(0.8841 -0.4672 0.4672 0.8841 -47.9563 68.9509)" class="st7" width="4.7" height="27.2"/>
			</g>
		</g>
	</g>
	<g>
		<g>
			<g>
				
					<rect x="121.3" y="127.3" transform="matrix(0.8841 -0.4672 0.4672 0.8841 -48.3904 73.3053)" class="st7" width="4.7" height="13.8"/>
			</g>
		</g>
	</g>
	<g>
		<g>
			<g>
				
					<rect x="123.2" y="110.2" transform="matrix(0.8841 -0.4672 0.4672 0.8841 -43.7052 73.0863)" class="st7" width="4.7" height="28.9"/>
			</g>
		</g>
	</g>
	<g>
		<g>
			<g>
				
					<rect x="126.5" y="99.1" transform="matrix(0.8841 -0.4672 0.4672 0.8841 -40.1669 73.8902)" class="st7" width="4.7" height="37.6"/>
			</g>
		</g>
	</g>
	<g>
		<g>
			<g>
				
					<rect x="102.4" y="135.6" transform="matrix(0.8841 -0.4672 0.4672 0.8841 -52.3012 64.8994)" class="st2" width="4.7" height="4.7"/>
			</g>
		</g>
	</g>
	<g>
		<g>
			<g>
				
					<rect x="98" y="115.1" transform="matrix(0.8841 -0.4672 0.4672 0.8841 -42.7794 60.3585)" class="st2" width="4.7" height="2.7"/>
			</g>
		</g>
	</g>
	<g>
		<g>
			<g>
				
					<rect x="108.4" y="118.6" transform="matrix(0.8841 -0.4672 0.4672 0.8841 -44.664 66.0082)" class="st2" width="4.7" height="8.8"/>
			</g>
		</g>
	</g>
	<g>
		<g>
			<g>
				
					<rect x="118.4" y="122.1" transform="matrix(0.8841 -0.4672 0.4672 0.8841 -46.174 71.3248)" class="st2" width="4.7" height="13.4"/>
			</g>
		</g>
	</g>
	<g>
		<g>
			<g>
				
					<rect x="118" y="111.5" transform="matrix(0.8841 -0.4672 0.4672 0.8841 -39.7219 69.527)" class="st2" width="4.7" height="6.7"/>
			</g>
		</g>
	</g>
	<g>
		<g>
			<g>
				
					<rect x="125.5" y="99.4" transform="matrix(0.8841 -0.4672 0.4672 0.8841 -39.3849 73.1895)" class="st2" width="4.7" height="33.3"/>
			</g>
		</g>
	</g>
</g>
<g>
	<g>
		<path class="st8" d="M165.2,122.1c-10.3,0-18.6-8.4-18.6-18.6c0-10.3,8.4-18.6,18.6-18.6c10.3,0,18.6,8.4,18.6,18.6
			C183.9,113.8,175.5,122.1,165.2,122.1z M165.2,88.3c-8.4,0-15.2,6.8-15.2,15.2s6.8,15.2,15.2,15.2c8.4,0,15.2-6.8,15.2-15.2
			S173.6,88.3,165.2,88.3z"/>
	</g>
	<g>
		<path class="st8" d="M165.2,122.1c-10.3,0-18.6-8.4-18.6-18.6c0-10.3,8.4-18.6,18.6-18.6c10.3,0,18.6,8.4,18.6,18.6
			C183.9,113.8,175.5,122.1,165.2,122.1z M165.2,88.9c-8,0-14.6,6.5-14.6,14.6s6.5,14.6,14.6,14.6c8,0,14.6-6.5,14.6-14.6
			S173.3,88.9,165.2,88.9z"/>
	</g>
	<g>
		<path class="st8" d="M165.2,115.9c-6.8,0-12.4-5.6-12.4-12.4c0-6.8,5.6-12.4,12.4-12.4c6.8,0,12.4,5.6,12.4,12.4
			C177.6,110.3,172,115.9,165.2,115.9z M165.2,92.8c-5.9,0-10.7,4.8-10.7,10.7c0,5.9,4.8,10.7,10.7,10.7c5.9,0,10.7-4.8,10.7-10.7
			C175.9,97.6,171.1,92.8,165.2,92.8z"/>
	</g>
	<g>
		<path class="st8" d="M165.2,111c-4.1,0-7.5-3.4-7.5-7.5c0-4.1,3.4-7.5,7.5-7.5c4.1,0,7.5,3.4,7.5,7.5
			C172.7,107.6,169.4,111,165.2,111z M165.2,97.7c-3.2,0-5.8,2.6-5.8,5.8c0,3.2,2.6,5.8,5.8,5.8s5.8-2.6,5.8-5.8
			C171,100.3,168.4,97.7,165.2,97.7z"/>
	</g>
	<g>
		<path class="st8" d="M165.2,105.8c-1.3,0-2.3-1-2.3-2.3c0-1.3,1-2.3,2.3-2.3c1.3,0,2.3,1,2.3,2.3
			C167.5,104.8,166.5,105.8,165.2,105.8z"/>
	</g>
	<g>
		<path class="st9" d="M178.5,86.7L164.8,103c-0.2,0.2-0.2,0.6,0.1,0.8l14.4-17.2C179,86.4,178.7,86.4,178.5,86.7z"/>
		<path class="st10" d="M179.3,86.6l-14.4,17.2c0.2,0.2,0.6,0.2,0.8-0.1l13.7-16.3C179.6,87.2,179.6,86.8,179.3,86.6
			C179.3,86.6,179.3,86.6,179.3,86.6z"/>
	</g>
	<polygon class="st9" points="177.5,87.9 173.8,92.3 173.1,87.2 176.8,82.8 	"/>
	<polygon class="st10" points="178.5,88.5 174.8,92.9 179.9,92.7 183.6,88.3 	"/>
</g>
<g>
	<g>
		<path class="st11" d="M7.4,94.1l5.3-10c0.6-1.5,1.5-9.4,0.2-10.3c-1.7-1.3-6.1,5.9-6.8,7.9L1.2,91.8c0,0,1.8,3,1.7,3.3L7.4,94.1z"
			/>
		<g>
			<path class="st12" d="M13.8,87.6L2.7,83.4c0,0,3.7-5.5,5.9-8.9c1.7-2.6,6.1-3,6.1-3L13.8,87.6z"/>
		</g>
	</g>
	<g>
		<g>
			<path class="st11" d="M1.9,90.7L1.9,90.7C0.4,92.3,1,95,3.1,95.9l13.2,5.7l2-2.9L6.1,90C4.8,89.2,3,89.5,1.9,90.7z"/>
		</g>
		<g>
			<path class="st11" d="M17.7,98.5c0.6,0,1,0.1,1.3,0.3c1.5,0.6,1.5,2.2,1.5,2.2l2.4-0.2c1.6,0.6,1.3,3.5-2.3,3.9
				c-3.1,0.4-4.7-3.6-4.7-3.6L17.7,98.5z"/>
			<path class="st11" d="M18.5,100.4l3.3-0.3c0.2,0,0.4-0.2,0.4-0.5l0,0c0-0.3-0.1-0.4-0.3-0.5l-3.3-0.6L18.5,100.4z"/>
		</g>
	</g>
	<g>
		<g>
			<g>
				<path class="st11" d="M20.6,103.3l14.2-5.9c1.9-0.8,2.4-3.1,1.2-4.7l-1.4-1.7l-16.1,9.4L20.6,103.3z"/>
				<g>
					<path class="st11" d="M20.1,100.8c1.4,1.2,1.5,3.4,0.2,4.8c-1.2,1.4-3.4,1.5-4.8,0.2c-1.4-1.2-1.5-3.4-0.2-4.8
						C16.5,99.6,18.7,99.5,20.1,100.8z"/>
				</g>
			</g>
			<path class="st11" d="M31.1,93.9L32,78.6l5.9,3.4c0,0-0.1,8.4-1.3,13.2C35.4,99.9,31.1,93.9,31.1,93.9z"/>
		</g>
		<path class="st12" d="M26.3,82l4.6,3.2l8.6-1.6c0,0-3.9-9.1-7.3-10.5c-3.4-1.4-4.7,0.6-4.7,0.6L26.3,82z"/>
	</g>
	<g>
		<g>
			<g>
				<polygon class="st11" points="32.6,164.9 27.1,165.9 26,154.6 31.7,153.9 32.3,164.6 				"/>
				<g>
					<path class="st13" d="M24.8,167.7l17.9,0.1l-10.5-5.6c-2.2,3-6.1,1-6.1,1L24.8,167.7z"/>
					
						<rect x="33" y="159.6" transform="matrix(6.329042e-03 -1 1 6.329042e-03 -135.0112 201.2819)" class="st14" width="1.6" height="17.9"/>
				</g>
			</g>
			<path class="st15" d="M26.1,92.7l-4.5,0l-1.2,10.2l4.5,55.6h8.7c0,0-1-28.7-1.7-45.7C31.3,95.7,26.1,92.7,26.1,92.7L26.1,92.7z"
				/>
		</g>
		<g>
			<g>
				<polygon class="st11" points="17.5,164.9 12,165.9 12.1,154.6 17.8,153.9 17.2,164.6 				"/>
				<g>
					<path class="st13" d="M9.8,167.7l17.9,0.1l-10.5-5.6c-2.2,3-6.1,1-6.1,1L9.8,167.7z"/>
					
						<rect x="17.9" y="159.6" transform="matrix(6.329042e-03 -1 1 6.329042e-03 -149.9754 186.2227)" class="st14" width="1.6" height="17.9"/>
				</g>
			</g>
			<g>
				<path class="st15" d="M23.1,94.4L20,158.4l-9.9,0.3l-0.3-47.1C9,101,14.2,94.9,14.2,94.9L23.1,94.4z"/>
				<polyline class="st16" points="26.2,103.3 22.4,108.5 21.8,122.1 				"/>
			</g>
		</g>
	</g>
	<g>
		<path class="st12" d="M12.8,72.8l-1,18.6c0.1,2.9,2,4.2,2,4.2l13.6-0.2c1.3,0.1,2.4-0.8,2.6-2c1.6-7,1-20.7,1-20.7l-9.5-1.7
			l-7.6,0.7C13.3,71.7,12.8,72.2,12.8,72.8z"/>
	</g>
	<g>
		<path class="st17" d="M24,60.7L20.2,70c-5.9,2.8-9.3,0.2-9.3,0.2c4.2,0.3,3.6-12.8,3.6-12.8L24,60.7z"/>
		<path class="st18" d="M28.5,59.8c1.1,0.1,2,1.1,1.9,2.2s-1.1,2-2.2,1.9c-1.1-0.1-2-1.1-1.9-2.2C26.4,60.5,27.3,59.6,28.5,59.8z"/>
		<g>
			<path class="st11" d="M18.4,60c1.1,0.1,2,1.1,1.9,2.2c-0.1,1.1-1.1,2-2.2,1.9c-1.1-0.1-2-1.1-1.9-2.2
				C16.2,60.7,17.2,59.8,18.4,60z"/>
		</g>
		<path class="st11" d="M23,75.9c4.5,0.3,4.5-3.8,4.5-3.8L22,70.9l-4.3,0.4C17.7,71.3,18.4,75.5,23,75.9z"/>
		<path class="st11" d="M20.9,64.9L20,72c0.1,1.3,1.3,2.1,2.6,2.2l0,0c1.5,0.1,2.6-0.6,2.7-2.2l0.3-4.5L20.9,64.9z"/>
		<polygon class="st18" points="25.7,67 20.1,66 25.3,70.8 		"/>
		<path class="st17" d="M23,54.5c0,0-1.6,12.8-3.1,12.2c-4.5-1.7-6.6-8-4.8-11.6c3.1-6,12.3-2.1,12.3-2.1L23,54.5z"/>
		<path class="st11" d="M18.6,62.2l0.1-4.2c0.2-2.8,3.2-4.8,6-4.6l0,0c2.7,0.3,4.8,2.6,4.7,5.4L29.2,64c-0.1,2.2-2.4,4.3-5,4.3l0,0
			C21,67.9,18.6,65.5,18.6,62.2z"/>
		<path class="st17" d="M17,55.8c2.4-4.3,9.1-2.4,9.1-2.4c0.4,3.3-3.9,4.7-5.4,5.6c-1.5,0.9-1.9,3-1.9,3S14.5,60.1,17,55.8z"/>
		<path class="st17" d="M23.6,53h3.3c0.3,0,0.7,0.1,1,0.3c2.8,2.6,1.7,4.6,1.7,4.6c-4.2-1.8-4.7-4.5-4.7-4.5L23.6,53z"/>
	</g>
</g>
<g>
	<g>
		<g>
			<g>
				<g>
					<g>
						<path class="st7" d="M123.4,25.5l-3.9,22.2c-0.3,1.8-2.2,3-4.1,2.7L90.2,46c-2-0.3-3.3-2.1-3-3.9l3.9-22.2
							c0.3-1.8,2.2-3,4.1-2.7l25.2,4.4C122.4,22,123.7,23.7,123.4,25.5z"/>
					</g>
				</g>
				<g>
					<g>
						<path class="st19" d="M123.5,24.6l-1.4,7.9l-32.3-5.6l1.4-7.9c0.2-1.3,2-2.1,4-1.8l25.2,4.4C122.4,22,123.8,23.3,123.5,24.6z"
							/>
					</g>
				</g>
			</g>
			<g>
				<g>
					<g>
						<path class="st20" d="M94.7,34.8l-2.3-0.4c-0.3-0.1-0.5-0.4-0.5-0.7l0.2-1.4c0.1-0.3,0.4-0.5,0.7-0.5l2.3,0.4
							c0.3,0.1,0.5,0.4,0.5,0.7l-0.2,1.4C95.3,34.6,95,34.9,94.7,34.8z"/>
					</g>
				</g>
				<g>
					<g>
						<path class="st20" d="M99.3,35.6L97,35.2c-0.3-0.1-0.5-0.4-0.5-0.7l0.2-1.4c0.1-0.3,0.4-0.5,0.7-0.5l2.3,0.4
							c0.3,0.1,0.5,0.4,0.5,0.7l-0.2,1.4C99.9,35.4,99.6,35.7,99.3,35.6z"/>
					</g>
				</g>
				<g>
					<g>
						<path class="st20" d="M103.9,36.4l-2.3-0.4c-0.3-0.1-0.5-0.4-0.5-0.7l0.2-1.4c0.1-0.3,0.4-0.5,0.7-0.5l2.3,0.4
							c0.3,0.1,0.5,0.4,0.5,0.7l-0.2,1.4C104.5,36.2,104.2,36.4,103.9,36.4z"/>
					</g>
				</g>
				<g>
					<g>
						<path class="st20" d="M108.4,37.2l-2.3-0.4c-0.3-0.1-0.5-0.4-0.5-0.7l0.2-1.4c0.1-0.3,0.4-0.5,0.7-0.5l2.3,0.4
							c0.3,0.1,0.5,0.4,0.5,0.7l-0.2,1.4C109,37,108.7,37.2,108.4,37.2z"/>
					</g>
				</g>
				<g>
					<g>
						<path class="st20" d="M112.8,38l-2.3-0.4c-0.3-0.1-0.5-0.4-0.5-0.7l0.2-1.4c0.1-0.3,0.4-0.5,0.7-0.5l2.3,0.4
							c0.3,0.1,0.5,0.4,0.5,0.7l-0.2,1.4C113.4,37.8,113.1,38,112.8,38z"/>
					</g>
				</g>
				<g>
					<g>
						<path class="st20" d="M117.2,38.7l-2.3-0.4c-0.3-0.1-0.5-0.4-0.5-0.7l0.2-1.4c0.1-0.3,0.4-0.5,0.7-0.5l2.3,0.4
							c0.3,0.1,0.5,0.4,0.5,0.7l-0.2,1.4C117.8,38.6,117.5,38.8,117.2,38.7z"/>
					</g>
				</g>
				<g>
					<g>
						<path class="st20" d="M94,38.9l-2.3-0.4c-0.3-0.1-0.5-0.4-0.5-0.7l0.2-1.4c0.1-0.3,0.4-0.5,0.7-0.5l2.3,0.4
							c0.3,0.1,0.5,0.4,0.5,0.7l-0.2,1.4C94.6,38.8,94.3,39,94,38.9z"/>
					</g>
				</g>
				<g>
					<g>
						<path class="st20" d="M98.6,39.7l-2.3-0.4c-0.3-0.1-0.5-0.4-0.5-0.7l0.2-1.4c0.1-0.3,0.4-0.5,0.7-0.5l2.3,0.4
							c0.3,0.1,0.5,0.4,0.5,0.7l-0.2,1.4C99.2,39.6,98.9,39.8,98.6,39.7z"/>
					</g>
				</g>
				<g>
					<g>
						<path class="st20" d="M103.1,40.5l-2.3-0.4c-0.3-0.1-0.5-0.4-0.5-0.7l0.2-1.4c0.1-0.3,0.4-0.5,0.7-0.5l2.3,0.4
							c0.3,0.1,0.5,0.4,0.5,0.7l-0.2,1.4C103.8,40.4,103.5,40.6,103.1,40.5z"/>
					</g>
				</g>
				<g>
					<g>
						<path class="st20" d="M107.7,41.3l-2.3-0.4c-0.3-0.1-0.5-0.4-0.5-0.7l0.2-1.4c0.1-0.3,0.4-0.5,0.7-0.5l2.3,0.4
							c0.3,0.1,0.5,0.4,0.5,0.7l-0.2,1.4C108.3,41.2,108,41.4,107.7,41.3z"/>
					</g>
				</g>
				<g>
					<g>
						<path class="st20" d="M112.1,42.1l-2.3-0.4c-0.3-0.1-0.5-0.4-0.5-0.7l0.2-1.4c0.1-0.3,0.4-0.5,0.7-0.5l2.3,0.4
							c0.3,0.1,0.5,0.4,0.5,0.7l-0.2,1.4C112.7,41.9,112.4,42.1,112.1,42.1z"/>
					</g>
				</g>
				<g>
					<g>
						<path class="st20" d="M116.5,42.9l-2.3-0.4c-0.3-0.1-0.5-0.4-0.5-0.7l0.2-1.4c0.1-0.3,0.4-0.5,0.7-0.5l2.3,0.4
							c0.3,0.1,0.5,0.4,0.5,0.7l-0.2,1.4C117.1,42.7,116.8,42.9,116.5,42.9z"/>
					</g>
				</g>
				<g>
					<g>
						<path class="st20" d="M93.3,43.1L91,42.7c-0.3-0.1-0.5-0.4-0.5-0.7l0.2-1.4c0.1-0.3,0.4-0.5,0.7-0.5l2.3,0.4
							c0.3,0.1,0.5,0.4,0.5,0.7l-0.2,1.4C93.9,42.9,93.6,43.1,93.3,43.1z"/>
					</g>
				</g>
				<g>
					<g>
						<path class="st20" d="M97.8,43.9l-2.3-0.4c-0.3-0.1-0.5-0.4-0.5-0.7l0.2-1.4c0.1-0.3,0.4-0.5,0.7-0.5l2.3,0.4
							c0.3,0.1,0.5,0.4,0.5,0.7l-0.2,1.4C98.5,43.7,98.2,43.9,97.8,43.9z"/>
					</g>
				</g>
				<g>
					<g>
						<path class="st20" d="M102.4,44.7l-2.3-0.4c-0.3-0.1-0.5-0.4-0.5-0.7l0.2-1.4c0.1-0.3,0.4-0.5,0.7-0.5l2.3,0.4
							c0.3,0.1,0.5,0.4,0.5,0.7l-0.2,1.4C103,44.5,102.7,44.7,102.4,44.7z"/>
					</g>
				</g>
				<g>
					<g>
						<path class="st20" d="M107,45.5l-2.3-0.4c-0.3-0.1-0.5-0.4-0.5-0.7l0.2-1.4c0.1-0.3,0.4-0.5,0.7-0.5l2.3,0.4
							c0.3,0.1,0.5,0.4,0.5,0.7l-0.2,1.4C107.6,45.3,107.3,45.5,107,45.5z"/>
					</g>
				</g>
				<g>
					<g>
						<path class="st20" d="M111.4,46.2l-2.3-0.4c-0.3-0.1-0.5-0.4-0.5-0.7l0.2-1.4c0.1-0.3,0.4-0.5,0.7-0.5l2.3,0.4
							c0.3,0.1,0.5,0.4,0.5,0.7l-0.2,1.4C112,46.1,111.7,46.3,111.4,46.2z"/>
					</g>
				</g>
				<g>
					<g>
						<path class="st20" d="M115.8,47l-2.3-0.4c-0.3-0.1-0.5-0.4-0.5-0.7l0.2-1.4c0.1-0.3,0.4-0.5,0.7-0.5l2.3,0.4
							c0.3,0.1,0.5,0.4,0.5,0.7l-0.2,1.4C116.4,46.8,116.1,47,115.8,47z"/>
					</g>
				</g>
			</g>
		</g>
		<g>
			<g>
				<g>
					<path class="st2" d="M96.3,22.8L96.3,22.8c-1-0.2-1.6-1.1-1.4-2l0.9-4.9c0.2-1,1.1-1.6,2-1.4l0,0c1,0.2,1.6,1.1,1.4,2l-0.9,4.9
						C98.2,22.3,97.3,22.9,96.3,22.8z"/>
				</g>
			</g>
			<g>
				<g>
					<path class="st2" d="M106.9,24.6L106.9,24.6c-1-0.2-1.6-1.1-1.4-2l0.9-4.9c0.2-1,1.1-1.6,2-1.4h0c1,0.2,1.6,1.1,1.4,2l-0.9,4.9
						C108.8,24.1,107.9,24.8,106.9,24.6z"/>
				</g>
			</g>
			<g>
				<g>
					<path class="st2" d="M117.5,26.5L117.5,26.5c-1-0.2-1.6-1.1-1.4-2l0.9-4.9c0.2-1,1.1-1.6,2-1.4l0,0c1,0.2,1.6,1.1,1.4,2
						l-0.9,4.9C119.4,26,118.4,26.6,117.5,26.5z"/>
				</g>
			</g>
		</g>
	</g>
</g>
</svg>
