<?xml version="1.0" encoding="utf-8"?>
<!-- Generator: Adobe Illustrator 23.0.3, SVG Export Plug-In . SVG Version: 6.00 Build 0)  -->
<svg version="1.1" id="Layer_1" xmlns="http://www.w3.org/2000/svg" xmlns:xlink="http://www.w3.org/1999/xlink" x="0px" y="0px"
	 viewBox="0 0 196.9 170" style="enable-background:new 0 0 196.9 170;" xml:space="preserve">
<style type="text/css">
	.st0{fill:#CCCCCB;}
	.st1{fill:#F2F2F3;}
	.st2{fill:#2C3D47;}
	.st3{fill:#FFFFFF;}
	.st4{fill:#F15F5A;}
	.st5{fill:#FCBE38;}
	.st6{fill:#52B750;}
	.st7{fill:#44C5E1;}
	.st8{fill:url(#SVGID_1_);}
	.st9{fill:#FBBC9C;}
	.st10{fill:#030303;}
	.st11{fill:#C3B8C2;}
	.st12{fill:#324060;}
	.st13{fill:#BC2032;}
	.st14{fill:none;}
	.st15{fill:#EFAA87;}
	.st16{fill:#FBC19E;}
	.st17{fill:#A97E52;}
</style>
<polygon class="st0" points="108.9,129 135.4,74.8 161.9,129 166.2,129 137.3,69.9 135.4,70.8 133.6,69.9 104.7,129 "/>
<path class="st1" d="M73.4,11.1h123.5V88c0,1.5-1.2,2.7-2.7,2.7H76.1c-1.5,0-2.7-1.2-2.7-2.7V11.1z"/>
<path class="st2" d="M196.9,11.8H73.4V2.7c0-1.5,1.2-2.7,2.7-2.7h118.2c1.5,0,2.7,1.2,2.7,2.7V11.8z"/>
<path class="st3" d="M168.5,8.8H82.8c-1.6,0-2.9-1.3-2.9-2.9v0c0-1.6,1.3-2.9,2.9-2.9h85.7c1.6,0,2.9,1.3,2.9,2.9v0
	C171.4,7.5,170.1,8.8,168.5,8.8z"/>
<circle class="st4" cx="180.1" cy="5.9" r="2"/>
<circle class="st5" cx="185.1" cy="5.9" r="2"/>
<circle class="st6" cx="190.1" cy="5.9" r="2"/>
<path class="st7" d="M111,77.5H83.7c-1.9,0-3.5-1.6-3.5-3.5V21.7c0-1.9,1.6-3.5,3.5-3.5H111c1.9,0,3.5,1.6,3.5,3.5V74
	C114.5,75.9,113,77.5,111,77.5z"/>
<g>
	<g>
		<g>
			<path class="st3" d="M103.7,38.4c0.6-0.5,1.1-1.1,1.3-1.8l2.4-7H92.1L92,27.7c-0.1-0.7-0.4-1.3-0.8-1.7c-0.5-0.4-1.1-0.7-1.8-0.7
				h-2v1.6h2c0.6,0,1,0.4,1.1,1l1.2,13.6c0,0,0,0,0,0c0.1,1.2,1,2.1,2.2,2.3c0.3,0.9,1.2,1.6,2.2,1.6c1,0,1.9-0.6,2.2-1.5h1.8
				c0.3,0.9,1.2,1.5,2.2,1.5c1.3,0,2.3-1,2.3-2.3s-1-2.3-2.3-2.3c-1,0-1.9,0.6-2.2,1.5h-1.8c-0.3-0.9-1.2-1.5-2.2-1.5
				c-1,0-1.8,0.6-2.1,1.4c-0.4-0.1-0.6-0.5-0.7-0.9L93,39.2h8.6C102.4,39.2,103.1,38.9,103.7,38.4z M102.2,42.3
				c0.4,0,0.7,0.3,0.7,0.7c0,0.4-0.3,0.7-0.7,0.7c-0.4,0-0.7-0.3-0.7-0.7C101.4,42.7,101.8,42.3,102.2,42.3z M96,42.3
				c0.4,0,0.7,0.3,0.7,0.7c0,0.4-0.3,0.7-0.7,0.7c-0.4,0-0.7-0.3-0.7-0.7C95.2,42.7,95.6,42.3,96,42.3z M92.8,37.6L92.8,37.6
				l-0.6-6.4h12.9l-1.7,5l0,0c-0.3,0.8-1,1.4-1.9,1.4H92.8z"/>
		</g>
	</g>
</g>
<path class="st7" d="M149.1,77.5h-27.4c-1.9,0-3.5-1.6-3.5-3.5V21.7c0-1.9,1.6-3.5,3.5-3.5h27.4c1.9,0,3.5,1.6,3.5,3.5V74
	C152.6,75.9,151,77.5,149.1,77.5z"/>
<g>
	<g>
		<g>
			<path class="st3" d="M141.8,38.4c0.6-0.5,1.1-1.1,1.3-1.8l2.4-7h-15.3l-0.2-1.9c-0.1-0.7-0.4-1.3-0.8-1.7
				c-0.5-0.4-1.1-0.7-1.8-0.7h-2v1.6h2c0.6,0,1,0.4,1.1,1l1.2,13.6c0,0,0,0,0,0c0.1,1.2,1,2.1,2.2,2.3c0.3,0.9,1.2,1.6,2.2,1.6
				c1,0,1.9-0.6,2.2-1.5h1.8c0.3,0.9,1.2,1.5,2.2,1.5c1.3,0,2.3-1,2.3-2.3s-1-2.3-2.3-2.3c-1,0-1.9,0.6-2.2,1.5h-1.8
				c-0.3-0.9-1.2-1.5-2.2-1.5c-1,0-1.8,0.6-2.1,1.4c-0.4-0.1-0.6-0.5-0.7-0.9l-0.2-2.2h8.6C140.4,39.2,141.2,38.9,141.8,38.4z
				 M140.2,42.3c0.4,0,0.7,0.3,0.7,0.7c0,0.4-0.3,0.7-0.7,0.7c-0.4,0-0.7-0.3-0.7-0.7C139.5,42.7,139.8,42.3,140.2,42.3z M134,42.3
				c0.4,0,0.7,0.3,0.7,0.7c0,0.4-0.3,0.7-0.7,0.7c-0.4,0-0.7-0.3-0.7-0.7C133.3,42.7,133.6,42.3,134,42.3z M130.9,37.6L130.9,37.6
				l-0.6-6.4h12.9l-1.7,5l0,0c-0.3,0.8-1,1.4-1.9,1.4H130.9z"/>
		</g>
	</g>
</g>
<path class="st7" d="M187.4,77.5H160c-1.9,0-3.5-1.6-3.5-3.5V21.7c0-1.9,1.6-3.5,3.5-3.5h27.4c1.9,0,3.5,1.6,3.5,3.5V74
	C190.9,75.9,189.3,77.5,187.4,77.5z"/>
<g>
	<g>
		<g>
			<path class="st3" d="M180.1,38.4c0.6-0.5,1.1-1.1,1.3-1.8l2.4-7h-15.3l-0.2-1.9c-0.1-0.7-0.4-1.3-0.8-1.7
				c-0.5-0.4-1.1-0.7-1.8-0.7h-2v1.6h2c0.6,0,1,0.4,1.1,1l1.2,13.6c0,0,0,0,0,0c0.1,1.2,1,2.1,2.2,2.3c0.3,0.9,1.2,1.6,2.2,1.6
				c1,0,1.9-0.6,2.2-1.5h1.8c0.3,0.9,1.2,1.5,2.2,1.5c1.3,0,2.3-1,2.3-2.3s-1-2.3-2.3-2.3c-1,0-1.9,0.6-2.2,1.5h-1.8
				c-0.3-0.9-1.2-1.5-2.2-1.5c-1,0-1.8,0.6-2.1,1.4c-0.4-0.1-0.6-0.5-0.7-0.9l-0.2-2.2h8.6C178.7,39.2,179.4,38.9,180.1,38.4z
				 M178.5,42.3c0.4,0,0.7,0.3,0.7,0.7c0,0.4-0.3,0.7-0.7,0.7s-0.7-0.3-0.7-0.7C177.7,42.7,178.1,42.3,178.5,42.3z M172.3,42.3
				c0.4,0,0.7,0.3,0.7,0.7c0,0.4-0.3,0.7-0.7,0.7s-0.7-0.3-0.7-0.7C171.6,42.7,171.9,42.3,172.3,42.3z M169.2,37.6L169.2,37.6
				l-0.6-6.4h12.9l-1.7,5l0,0c-0.3,0.8-1,1.4-1.9,1.4H169.2z"/>
		</g>
	</g>
</g>
<path class="st2" d="M107.2,71.2H87.5c-0.9,0-1.6-0.7-1.6-1.6v-3.9c0-0.9,0.7-1.6,1.6-1.6h19.7c0.9,0,1.6,0.7,1.6,1.6v3.9
	C108.8,70.5,108.1,71.2,107.2,71.2z"/>
<path class="st2" d="M145.3,71.2h-19.7c-0.9,0-1.6-0.7-1.6-1.6v-3.9c0-0.9,0.7-1.6,1.6-1.6h19.7c0.9,0,1.6,0.7,1.6,1.6v3.9
	C146.9,70.5,146.2,71.2,145.3,71.2z"/>
<path class="st2" d="M183.5,71.2h-19.7c-0.9,0-1.6-0.7-1.6-1.6v-3.9c0-0.9,0.7-1.6,1.6-1.6h19.7c0.9,0,1.6,0.7,1.6,1.6v3.9
	C185.2,70.5,184.4,71.2,183.5,71.2z"/>
<g>
	<linearGradient id="SVGID_1_" gradientUnits="userSpaceOnUse" x1="64.8013" y1="59.2281" x2="86.371" y2="37.6585">
		<stop  offset="0" style="stop-color:#C72037"/>
		<stop  offset="1" style="stop-color:#B81F33"/>
	</linearGradient>
	<path class="st8" d="M77.7,33.9L77.7,33.9c0.7,1.1,2.1,1.5,3.3,0.9l0,0c1.6-0.9,3.6,0.3,3.7,2.1l0,0c0,1.3,1.1,2.4,2.4,2.4l0,0
		c1.8,0.1,3,2,2.1,3.7v0c-0.6,1.2-0.2,2.6,0.9,3.3l0,0c1.6,1,1.6,3.3,0,4.3h0c-1.1,0.7-1.5,2.1-0.9,3.3l0,0c0.9,1.6-0.3,3.6-2.1,3.7
		l0,0c-1.3,0-2.4,1.1-2.4,2.4l0,0c-0.1,1.8-2,3-3.7,2.1l0,0c-1.2-0.6-2.6-0.2-3.3,0.9l0,0c-1,1.6-3.3,1.6-4.3,0l0,0
		c-0.7-1.1-2.1-1.5-3.3-0.9l0,0c-1.6,0.9-3.6-0.3-3.7-2.1l0,0c0-1.3-1.1-2.4-2.4-2.4h0c-1.8-0.1-3-2-2.1-3.7l0,0
		c0.6-1.2,0.2-2.6-0.9-3.3l0,0c-1.6-1-1.6-3.3,0-4.3v0c1.1-0.7,1.5-2.1,0.9-3.3v0c-0.9-1.6,0.3-3.6,2.1-3.7h0c1.3,0,2.4-1.1,2.4-2.4
		l0,0c0.1-1.8,2-3,3.7-2.1l0,0c1.2,0.6,2.6,0.2,3.3-0.9l0,0C74.4,32.4,76.7,32.4,77.7,33.9z"/>
	<path class="st3" d="M75.6,63c-0.2,0-0.8-0.1-1.1-0.6c-0.7-1.1-1.9-1.7-3.1-1.7c-0.6,0-1.2,0.1-1.7,0.4c-0.6,0.3-1.1,0.1-1.3,0
		c-0.2-0.1-0.6-0.4-0.7-1.1c-0.1-1.9-1.6-3.5-3.6-3.6c-0.7,0-1-0.5-1.1-0.7c-0.1-0.2-0.3-0.7,0-1.3c0.9-1.7,0.3-3.8-1.3-4.9
		c-0.6-0.4-0.6-0.9-0.6-1.1c0-0.2,0.1-0.8,0.6-1.1c1.6-1,2.2-3.2,1.3-4.9c-0.3-0.6-0.1-1.1,0-1.3s0.4-0.6,1.1-0.7
		c1.9-0.1,3.5-1.6,3.6-3.6c0-0.7,0.5-1,0.7-1.1c0.2-0.1,0.7-0.3,1.3,0c1.7,0.9,3.8,0.3,4.9-1.3c0.4-0.6,0.9-0.6,1.1-0.6
		c0.2,0,0.8,0.1,1.1,0.6c1,1.6,3.2,2.2,4.9,1.3c0.6-0.3,1.1-0.1,1.3,0c0.2,0.1,0.6,0.4,0.7,1.1c0.1,1.9,1.6,3.5,3.6,3.6
		c0.7,0,1,0.5,1.1,0.7c0.1,0.2,0.3,0.7,0,1.3c-0.9,1.7-0.3,3.8,1.3,4.9c0.6,0.4,0.6,0.9,0.6,1.1c0,0.2-0.1,0.8-0.6,1.1
		c-1.6,1-2.2,3.2-1.3,4.9c0.3,0.6,0.1,1.1,0,1.3c-0.1,0.2-0.4,0.6-1.1,0.7c-1.9,0.1-3.5,1.6-3.6,3.6c0,0.7-0.5,1-0.7,1.1
		c-0.2,0.1-0.7,0.3-1.3,0c-1.7-0.9-3.8-0.3-4.9,1.3C76.4,62.9,75.8,63,75.6,63z M71.3,60c1.5,0,2.9,0.7,3.6,2
		c0.2,0.3,0.5,0.3,0.6,0.3c0.2,0,0.4,0,0.6-0.3c1.2-1.9,3.7-2.5,5.6-1.5c0.3,0.2,0.6,0.1,0.7,0c0.1-0.1,0.4-0.2,0.4-0.6
		c0.1-2.2,1.9-4,4.1-4.1c0.4,0,0.5-0.2,0.6-0.4c0.1-0.1,0.2-0.4,0-0.7c-1-2-0.4-4.4,1.5-5.6c0.3-0.2,0.3-0.5,0.3-0.6
		c0-0.2,0-0.4-0.3-0.6l0,0c-1.9-1.2-2.5-3.7-1.5-5.6c0.2-0.3,0.1-0.6,0-0.7c-0.1-0.1-0.3-0.4-0.6-0.4c-2.2-0.1-4-1.9-4.1-4.1
		c0-0.4-0.2-0.5-0.4-0.6c-0.1-0.1-0.4-0.2-0.7,0c-2,1-4.4,0.4-5.6-1.5c-0.2-0.3-0.5-0.3-0.6-0.3c-0.2,0-0.4,0-0.6,0.3
		c-1.2,1.9-3.7,2.5-5.6,1.5c-0.3-0.2-0.6-0.1-0.7,0c-0.1,0.1-0.4,0.3-0.4,0.6c-0.1,2.2-1.9,4-4.1,4.1c-0.4,0-0.5,0.2-0.6,0.4
		c-0.1,0.1-0.2,0.4,0,0.7c1,2,0.4,4.4-1.5,5.6c-0.3,0.2-0.3,0.5-0.3,0.6s0,0.4,0.3,0.6c1.9,1.2,2.5,3.7,1.5,5.6
		c-0.2,0.3-0.1,0.6,0,0.7c0.1,0.1,0.3,0.4,0.6,0.4c2.2,0.1,4,1.9,4.1,4.1c0,0.4,0.3,0.5,0.4,0.6c0.1,0.1,0.4,0.2,0.7,0
		C69.9,60.2,70.6,60,71.3,60z"/>
	<g>
		<path class="st3" d="M65.5,49.9c0.7,0.5,1.5,0.7,2,0.7c0.5,0,0.9-0.2,0.9-0.7c0-0.6-0.6-0.6-1.4-0.9c-0.9-0.3-1.7-0.7-1.7-1.8
			c0-1.2,0.9-1.9,2.2-1.9c0.6,0,1.4,0.2,1.9,0.5V47c-0.7-0.4-1.5-0.6-2-0.6c-0.5,0-0.8,0.2-0.8,0.6c0,0.6,0.6,0.6,1.4,0.9
			c1,0.3,1.7,0.8,1.7,1.9c0,1.2-0.9,2-2.3,2c-0.6,0-1.4-0.2-2-0.5V49.9z"/>
		<path class="st3" d="M72.7,45.3h1.4l2.6,6.4h-1.5l-0.5-1.3h-2.6l-0.5,1.3h-1.4L72.7,45.3z M72.5,49.2h1.7L74,48.5
			c-0.2-0.5-0.4-1.1-0.6-1.6h0c-0.2,0.5-0.4,1.1-0.6,1.7L72.5,49.2z"/>
		<path class="st3" d="M77.3,45.3h1.4v5.2h2.8v1.2h-4.2V45.3z"/>
		<path class="st3" d="M82.2,45.3h3.9v1.2h-2.5v1.3h2.2v1.2h-2.2v1.5h2.6v1.2h-4V45.3z"/>
	</g>
</g>
<g>
	<path class="st9" d="M0.4,81.7c0.3-5.6,3-15,3-15L11,65L6.9,82.1C7,82.2,0.3,87.4,0.4,81.7z"/>
	<g>
		<g>
			<polygon class="st9" points="28.8,148.6 28.6,162.1 34.3,162.4 35.1,149 			"/>
			<g>
				<g>
					<path class="st10" d="M28.3,160.9l-0.7,7.2h18.2l0,0c0.1-0.8-0.2-1.6-0.9-2L34.6,161L28.3,160.9L28.3,160.9z"/>
					<rect x="27.4" y="167.9" class="st11" width="18.7" height="2.1"/>
				</g>
			</g>
		</g>
		<g>
			<polygon class="st9" points="10.3,148.6 10.1,162.1 15.8,162.4 16.6,149 			"/>
			<g>
				<g>
					<path class="st10" d="M9.8,160.9l-0.7,7.2h18.3l0,0c0.1-0.8-0.2-1.6-0.9-2L16.2,161L9.8,160.9L9.8,160.9z"/>
					<rect x="8.9" y="167.9" class="st11" width="18.7" height="2.1"/>
				</g>
			</g>
		</g>
		<g>
			<polygon class="st12" points="40,122.7 36.5,155.2 26.3,155.2 28.1,125.8 22.9,104.4 19.1,154.4 7.2,154.4 10.1,88.1 31.8,86.4 
							"/>
		</g>
	</g>
	<g>
		<path class="st13" d="M9.9,53.3c0,0-9.1,1.8-8.1,14.9l7.9-1.4L9.9,53.3z"/>
	</g>
	<g>
		<path class="st13" d="M25.8,52l6.6,3c0.5,0.2,0.8,0.8,0.8,1.4l0.1,36.3l-24,1.9L9.2,53.5c0,0,6.5-2.1,12.1-2.1
			C22.5,51.4,25.8,52,25.8,52z"/>
		<line class="st14" x1="33.3" y1="61.4" x2="33.3" y2="68.8"/>
	</g>
	<g>
		<g>
			<g>
				<path class="st9" d="M58.6,54.9L44,70.6l1.6,1.9c1.5,1.8,4.3,1.8,5.6-0.2l10.2-14.5L58.6,54.9z"/>
				<g>
					<path class="st9" d="M60.1,51.4c1.9-1.1,4.3-0.5,5.3,1.5c1.2,1.9,0.5,4.3-1.5,5.4c-1.9,1.1-4.3,0.5-5.3-1.5
						C57.7,54.8,58.3,52.4,60.1,51.4z"/>
				</g>
			</g>
			<path class="st9" d="M46.4,73.4c-5.1-2.4-12.5-8.7-12.5-8.7l1.4-7.7l14.1,10.5C49.4,67.6,51.5,75.8,46.4,73.4z"/>
		</g>
		<path class="st13" d="M28.1,63.3l10.1,7.6l8-7.6c0,0-6.2-4.3-9.5-7c-3.3-2.7-5.5-0.8-5.5-0.8L28.1,63.3z"/>
	</g>
	<g>
		<path class="st9" d="M20.7,42l-0.9,9.6c-0.3,1.9,1.4,3,3.2,3.2l0,0c2,0.3,3.5-0.6,3.7-2.8l0.7-6.1L20.7,42z"/>
		<path class="st15" d="M27.4,45.5c0,0-6.8-4.6-7-2.7c-0.6,6.1,6.3,8.6,6.3,8.6L27.4,45.5z"/>
		<path class="st9" d="M23.6,56.6c-7.7-0.2-6.6-4.9-6.6-4.9l3.1-0.4l5.2-0.2l3.1,1.8C28.3,53.1,29.7,56.9,23.6,56.6z"/>
	</g>
	<g>
		<g>
			<path class="st16" d="M25.4,49L25.4,49c4.2,0.1,7.7-3.3,7.7-7.6l0.1-9.5l-15.3-0.1l-0.1,9.5C17.8,45.6,21.2,49,25.4,49z"/>
			<path class="st17" d="M18.1,38.7l2.2,0.1c0.6,0,2.8-0.9,2.7-1.5c-0.2-1.6,0.2-3.8,1.1-4.1c1.4-0.5,6.8,1.7,9.5-0.3
				c3.8-2.8,1.2-7.4-2.2-7.6c0.2,0.8-0.3,1.7-1.4,2.3c-0.3,0.2-0.8-0.9-0.8-0.9s-0.7,1.6-1.1,1.7c-1.1,0.3-2.3,0.5-3.6,0.4
				c-3.9-0.1-9.9-1.8-7.5,8.7L18.1,38.7z"/>
		</g>
		<path class="st16" d="M15.2,39.2c0,1.4,1.1,2.4,2.4,2.4c1.4,0,2.4-1.1,2.4-2.4c0-1.4-1.1-2.4-2.4-2.4
			C16.4,36.8,15.3,37.8,15.2,39.2z"/>
	</g>
	<g>
		<path class="st9" d="M9.6,99.2L6,78l-2.6,0.1c-2.3,0.1-3.9,2.3-3.3,4.6l5.2,17L9.6,99.2z"/>
		<g>
			<path class="st9" d="M11.4,102.6c-0.3,2.2-2.3,3.7-4.5,3.3c-2.2-0.3-3.7-2.3-3.3-4.5c0.3-2.2,2.3-3.7,4.5-3.3
				C10.2,98.5,11.7,100.6,11.4,102.6z"/>
		</g>
	</g>
</g>
</svg>
