<?xml version="1.0" encoding="utf-8"?>
<!-- Generator: Adobe Illustrator 23.0.3, SVG Export Plug-In . SVG Version: 6.00 Build 0)  -->
<svg version="1.1" id="Layer_1" xmlns="http://www.w3.org/2000/svg" xmlns:xlink="http://www.w3.org/1999/xlink" x="0px" y="0px"
	 viewBox="0 0 219.2 164.6" style="enable-background:new 0 0 219.2 164.6;" xml:space="preserve">
<style type="text/css">
	.st0{fill:#E93859;}
	.st1{fill:#2C3C46;}
	.st2{fill:#FABB9B;}
	.st3{fill:#010101;}
	.st4{fill:#C1B6C1;}
	.st5{fill:#313E5E;}
	.st6{fill:#006838;}
	.st7{fill:#F9B58D;}
	.st8{fill:#FABF9D;}
	.st9{fill:#603913;}
	.st10{fill:#00502B;}
	.st11{fill:#F38020;}
	.st12{fill:#EEB31F;}
	.st13{fill:#F7CB6B;}
	.st14{fill:#E6C536;}
	.st15{fill:#CDAF2F;}
	.st16{fill:#42C5E1;}
	.st17{fill:#A5DBE2;}
</style>
<g>
	<g>
		<rect x="169.2" y="96.8" transform="matrix(0.918 -0.3967 0.3967 0.918 -25.9985 75.8942)" class="st0" width="2.6" height="8"/>
		<path class="st1" d="M164.9,94l-2.9,1.2l-12.9-29.9c-0.1-0.3-0.4-0.4-0.7-0.3c-0.3,0.1-0.4,0.4-0.3,0.7l12.9,29.9l-0.6,0.3
			c-0.6,0.2-0.8,0.9-0.6,1.5l5.8,13.5c0.2,0.6,0.9,0.8,1.5,0.6l4.5-1.9c0.6-0.2,0.8-0.9,0.6-1.5l-5.8-13.5
			C166.2,94,165.5,93.8,164.9,94z"/>
	</g>
	<g>
		<g>
			<g>
				<polygon class="st2" points="177.7,149.5 178.3,159.2 182.8,159 182.7,149.2 				"/>
				<g>
					<g>
						<path class="st3" d="M178,158.1l-8.1,3.7c-0.5,0.3-0.8,0.9-0.7,1.5l0,0h14.4l-0.5-5.2H178z"/>
						<rect x="169" y="163.3" class="st4" width="14.8" height="1.5"/>
					</g>
				</g>
			</g>
			<g>
				<polygon class="st2" points="189.9,149.5 190.5,159.2 195,159 194.8,149.2 				"/>
				<g>
					<g>
						<path class="st3" d="M190.2,158.1l-8.1,3.7c-0.5,0.3-0.8,0.9-0.7,1.5l0,0h14.4l-0.5-5.2H190.2z"/>
						<rect x="181.3" y="163.3" class="st4" width="14.8" height="1.5"/>
					</g>
				</g>
			</g>
			<g>
				<polygon class="st5" points="179.8,104 194.8,105.3 196.8,153.5 188.6,153.5 185.9,117.2 182.4,132.7 183.6,154 176.6,154 
					174.2,130.4 				"/>
			</g>
		</g>
		<path class="st6" d="M182.4,72.2L182.4,72.2c-3.6-0.1-5.4,5.5-5.3,8v26.9c0,0,9.5,4.4,19.7,0.7l-1.6-21.7c-0.5-5.5-1.9-11-4.7-13
			C186.4,70.2,182.3,72.2,182.4,72.2z"/>
		<g>
			<g>
				<polygon class="st7" points="188.1,62.7 182.8,62.7 182.9,74.1 188.2,74.1 				"/>
				<path class="st8" d="M188.1,64.3l-0.1-8l-13,0.1l0.1,8c0,3.6,2.9,6.4,6.5,6.4l0,0C185.2,70.8,188.1,67.9,188.1,64.3z"/>
				<path class="st9" d="M174,51.8c2.4-4.1,10.6-1.7,11.5-1.9c0.8-0.1,4.9-1.4,5.8,6.6s0.3,6.8,0.3,6.8s-0.3-0.5-0.7-1.1
					c-0.8,1.5-0.7,3.3-1.8,3.2c-1.7-0.2,0.3-2.6-2.5-0.8c-2.6,1.7-1.5-4.2-2.7-6.2c-0.3-0.5-2.4-0.1-3.2-0.5c-2,0.1-4.3-0.1-5.6,1.1
					C175,58.8,171.6,55.9,174,51.8z"/>
			</g>
		</g>
		<polygon class="st7" points="182.9,71.9 183.8,75.1 188.2,71.9 		"/>
		<polygon class="st6" points="188.2,71.9 188.7,76.7 183.8,75.1 		"/>
		<polygon class="st6" points="182.9,71.9 181.7,76.2 183.8,75.1 		"/>
	</g>
	<path class="st2" d="M190.5,102c0.1-6.1-1-13.1-1-13.1l-5.7-2l2.2,14.4C186,101.3,190,104,190.5,102z"/>
	<g>
		<path class="st10" d="M181.4,82c-0.2-1.8,1-3.5,2.7-4l0,0c2.1-0.6,4.3,0.6,4.8,2.7l2,7.8l-8.9,1.6L181.4,82z"/>
	</g>
	<path class="st2" d="M173,109l14.6-8.6l2.3,0.4c1.3,1.5,0.7,3.9-1,4.7l-13.8,6.4L173,109z"/>
	<g>
		<path class="st2" d="M169.8,108.8c-1.2,1.4-0.9,3.5,0.5,4.7s3.5,1,4.7-0.5c1.2-1.4,1-3.5-0.5-4.7
			C173.1,107.2,171,107.4,169.8,108.8z"/>
	</g>
</g>
<path class="st11" d="M107.8,127.9c0,11.5-16.3,35.8-16.3,35.8s-16.3-24.3-16.3-35.8c0-11.5,7.3-14.7,16.3-14.7
	C100.5,113.2,107.8,116.4,107.8,127.9z"/>
<path class="st12" d="M102.7,125.6c0,7.9-11.2,27.5-11.2,27.5s-11.2-19.5-11.2-27.5c0-7.9,5-10.1,11.2-10.1
	C97.7,115.5,102.7,117.7,102.7,125.6z"/>
<path class="st13" d="M98,121.8c0,4.6-6.5,19.6-6.5,19.6s-6.5-15-6.5-19.6c0-4.6,2.9-5.9,6.5-5.9C95.1,116,98,117.2,98,121.8z"/>
<g>
	<path class="st0" d="M78.2,86.8c0,0-22.4,11.8-22.4,37.3c0,0,1.4,2.8,3.6-0.6c2.2-3.4,4.2-12.6,18.5-12.6L78.2,86.8z"/>
	<path class="st0" d="M104.6,86.8c0,0,22.4,11.8,22.4,37.3c0,0-1.4,2.8-3.6-0.6c-2.2-3.4-4.2-12.6-18.5-12.6L104.6,86.8z"/>
</g>
<path class="st1" d="M111.9,33.1H91.4H70.9c-2.6,8.6-4.4,18.4-4.4,28.9c0,21.6,4.6,40.6,11.5,51.5h13.4h13.4
	c6.9-10.9,11.5-29.9,11.5-51.5C116.3,51.5,114.6,41.7,111.9,33.1z M91.4,69.3c-7.6,0-13.7-6.2-13.7-13.7c0-7.6,6.2-13.7,13.7-13.7
	c7.6,0,13.7,6.2,13.7,13.7C105.2,63.1,99,69.3,91.4,69.3z"/>
<path class="st14" d="M78.2,113.5c-0.3,0-0.6,0.3-0.6,0.6v2.9c0,0.3,0.3,0.6,0.6,0.6h13.2v-4.2H78.2z"/>
<path class="st15" d="M104.6,113.5H91.4v4.2h13.2c0.3,0,0.6-0.3,0.6-0.6v-2.9C105.3,113.8,105,113.5,104.6,113.5z"/>
<path class="st16" d="M91.4,41.8c-7.6,0-13.7,6.2-13.7,13.7c0,7.6,6.2,13.7,13.7,13.7c7.6,0,13.7-6.2,13.7-13.7
	C105.2,48,99,41.8,91.4,41.8z M91.4,65c-5.2,0-9.4-4.2-9.4-9.4c0-5.2,4.2-9.4,9.4-9.4c5.2,0,9.4,4.2,9.4,9.4
	C100.8,60.8,96.6,65,91.4,65z"/>
<path class="st17" d="M91.4,46.1c-5.2,0-9.4,4.2-9.4,9.4c0,5.2,4.2,9.4,9.4,9.4c5.2,0,9.4-4.2,9.4-9.4
	C100.8,50.4,96.6,46.1,91.4,46.1z"/>
<g>
	<g>
		<g>
			<path class="st0" d="M91.4,0.9c-4.5,0-14.6,13-20.5,32.2h20.5h20.5C106.1,13.9,95.9,0.9,91.4,0.9z"/>
		</g>
		<g>
			<path class="st0" d="M92.3,93.7c-0.1,0-0.1,0-0.2,0h0h-0.6h-0.7h0c-0.1,0-0.1,0-0.2,0c-0.1,0-0.3,0.1-0.4,0.2
				c-0.8,0.3-2.1,0.9-2.1,2.9l2,25.3l0,1.3v1c0,0.3,0.2,0.6,0.4,0.7c0.1,0.1,0.2,0.1,0.3,0.1h0h0.6h0.7h0c0.4,0,0.7-0.3,0.7-0.7v-1
				l0-1.4l2-25.3C94.9,94.3,92.7,93.9,92.3,93.7z"/>
		</g>
	</g>
</g>
</svg>
