<?xml version="1.0"?>
<svg xmlns="http://www.w3.org/2000/svg" xmlns:xlink="http://www.w3.org/1999/xlink" xmlns:svgjs="http://svgjs.com/svgjs" version="1.1" width="512" height="512" x="0" y="0" viewBox="0 0 512 512" style="enable-background:new 0 0 512 512" xml:space="preserve" class=""><g>
<g xmlns="http://www.w3.org/2000/svg">
	<g>
		<path d="M185.059,198.307h-52.67c-8.284,0-15,6.716-15,15v45.711c0,8.284,6.716,15,15,15h52.67c8.284,0,15-6.716,15-15v-45.711    C200.059,205.022,193.342,198.307,185.059,198.307z M170.059,244.018h-22.67v-15.711h22.67V244.018z" fill="#ffffff" data-original="#000000"/>
	</g>
</g>
<g xmlns="http://www.w3.org/2000/svg">
	<g>
		<path d="M282.335,198.307h-52.67c-8.284,0-15,6.716-15,15v45.711c0,8.284,6.716,15,15,15h52.67c8.284,0,15-6.716,15-15v-45.711    C297.335,205.023,290.618,198.307,282.335,198.307z M267.335,244.018h-22.67v-15.711h22.67V244.018z" fill="#ffffff" data-original="#000000"/>
	</g>
</g>
<g xmlns="http://www.w3.org/2000/svg">
	<g>
		<path d="M379.611,198.307h-52.67c-8.284,0-15,6.716-15,15v45.711c0,8.284,6.716,15,15,15h52.67c8.284,0,15-6.716,15-15v-45.711    C394.611,205.022,387.895,198.307,379.611,198.307z M364.611,244.018h-22.67v-15.711h22.67V244.018z" fill="#ffffff" data-original="#000000"/>
	</g>
</g>
<g xmlns="http://www.w3.org/2000/svg">
	<g>
		<path d="M185.059,285.97h-52.67c-8.284,0-15,6.716-15,15v45.711c0,8.284,6.716,15,15,15h52.67c8.284,0,15-6.716,15-15V300.97    C200.059,292.686,193.342,285.97,185.059,285.97z M170.059,331.681h-22.67V315.97h22.67V331.681z" fill="#ffffff" data-original="#000000"/>
	</g>
</g>
<g xmlns="http://www.w3.org/2000/svg">
	<g>
		<path d="M282.335,285.97h-52.67c-8.284,0-15,6.716-15,15v45.711c0,8.284,6.716,15,15,15h52.67c8.284,0,15-6.716,15-15V300.97    C297.335,292.686,290.618,285.97,282.335,285.97z M267.335,331.681h-22.67V315.97h22.67V331.681z" fill="#ffffff" data-original="#000000"/>
	</g>
</g>
<g xmlns="http://www.w3.org/2000/svg">
	<g>
		<path d="M379.611,285.97h-52.67c-8.284,0-15,6.716-15,15v45.711c0,8.284,6.716,15,15,15h52.67c8.284,0,15-6.716,15-15V300.97    C394.611,292.686,387.895,285.97,379.611,285.97z M364.611,331.681h-22.67V315.97h22.67V331.681z" fill="#ffffff" data-original="#000000"/>
	</g>
</g>
<g xmlns="http://www.w3.org/2000/svg">
	<g>
		<path d="M185.059,373.632h-52.67c-8.284,0-15,6.716-15,15v45.711c0,8.284,6.716,15,15,15h52.67c8.284,0,15-6.716,15-15v-45.711    C200.059,380.348,193.342,373.632,185.059,373.632z M170.059,419.344h-22.67v-15.711h22.67V419.344z" fill="#ffffff" data-original="#000000"/>
	</g>
</g>
<g xmlns="http://www.w3.org/2000/svg">
	<g>
		<path d="M379.611,373.632H229.664c-8.284,0-15,6.716-15,15v45.711c0,8.284,6.716,15,15,15h149.946c8.284,0,15-6.716,15-15v-45.711    C394.611,380.348,387.895,373.632,379.611,373.632z M364.611,419.344H244.664v-15.711h119.946V419.344z" fill="#ffffff" data-original="#000000"/>
	</g>
</g>
<g xmlns="http://www.w3.org/2000/svg">
	<g>
		<path d="M404.322,0H107.677c-24.813,0-45,20.187-45,45v422c0,24.813,20.187,45,45,45h296.645c24.813,0,45-20.187,45-45V45    C449.322,20.187,429.134,0,404.322,0z M419.322,467L419.322,467c-0.001,8.271-6.73,15-15.001,15H107.677c-8.271,0-15-6.729-15-15    V45c0-8.271,6.729-15,15-15h296.645c8.271,0,15,6.729,15,15V467z" fill="#ffffff" data-original="#000000"/>
	</g>
</g>
<g xmlns="http://www.w3.org/2000/svg">
	<g>
		<path d="M380.244,61.35H135.77c-14.888,0-27,12.112-27,27v45.749c0,14.888,12.112,27,27,27h244.473c14.888,0,27-12.112,27-27    V88.35C407.244,73.462,395.132,61.35,380.244,61.35z M138.77,131.099V91.35h238.473v39.749H138.77z" fill="#ffffff" data-original="#000000"/>
	</g>
</g>
<g xmlns="http://www.w3.org/2000/svg">
</g>
<g xmlns="http://www.w3.org/2000/svg">
</g>
<g xmlns="http://www.w3.org/2000/svg">
</g>
<g xmlns="http://www.w3.org/2000/svg">
</g>
<g xmlns="http://www.w3.org/2000/svg">
</g>
<g xmlns="http://www.w3.org/2000/svg">
</g>
<g xmlns="http://www.w3.org/2000/svg">
</g>
<g xmlns="http://www.w3.org/2000/svg">
</g>
<g xmlns="http://www.w3.org/2000/svg">
</g>
<g xmlns="http://www.w3.org/2000/svg">
</g>
<g xmlns="http://www.w3.org/2000/svg">
</g>
<g xmlns="http://www.w3.org/2000/svg">
</g>
<g xmlns="http://www.w3.org/2000/svg">
</g>
<g xmlns="http://www.w3.org/2000/svg">
</g>
<g xmlns="http://www.w3.org/2000/svg">
</g>
<style id="stylebot-css-*">#report-abuse {
  display: none !important;
}

</style></g></svg>
