<?xml version="1.0"?>
<svg xmlns="http://www.w3.org/2000/svg" xmlns:xlink="http://www.w3.org/1999/xlink" xmlns:svgjs="http://svgjs.com/svgjs" version="1.1" width="512" height="512" x="0" y="0" viewBox="0 0 512 512" style="enable-background:new 0 0 512 512" xml:space="preserve" class=""><g><g xmlns="http://www.w3.org/2000/svg"><path d="m316 422c-24.813 0-45 20.187-45 45 12.543-9.401 28.13-15 45-15h196v-30z" fill="#FF9D0B" data-original="#000000" style="" class=""/><path d="m196 392c5.101 0 10.082.519 14.9 1.494-19.065-19.424-45.598-31.494-74.9-31.494h-106v-332h-30v362z" fill="#FF9D0B" data-original="#000000" style="" class=""/><path d="m316 482c-19.555 0-36.228 12.541-42.42 30h238.42v-30z" fill="#FF9D0B" data-original="#000000" style="" class=""/><path d="m196 482h-196v30h238.42c-6.192-17.459-22.865-30-42.42-30z" fill="#FF9D0B" data-original="#000000" style="" class=""/><path d="m196 452c16.87 0 32.457 5.599 45 15.036 0-24.849-20.187-45.036-45-45.036h-196v30z" fill="#FF9D0B" data-original="#000000" style="" class=""/><path d="m482 362h-106c-29.303 0-55.835 12.07-74.901 31.494 4.818-.975 9.8-1.494 14.901-1.494h196v-362h-30z" fill="#FF9D0B" data-original="#000000" style="" class=""/><path d="m241 105c0-57.897-47.103-105-105-105h-76v332h76c42.367 0 80.231 19.623 105 50.251z" fill="#FF9D0B" data-original="#000000" style="" class=""/><path d="m271 105v277.237c24.77-30.623 62.638-50.237 105-50.237h76v-332h-76c-57.897 0-105 47.103-105 105z" fill="#FF9D0B" data-original="#000000" style="" class=""/></g><style id="stylebot-css-*">#report-abuse {
  display: none !important;
}

</style></g></svg>
