<?xml version="1.0" encoding="utf-8"?>
<!-- Generator: Adobe Illustrator 19.2.1, SVG Export Plug-In . SVG Version: 6.00 Build 0)  -->
<svg version="1.1" id="Layer_1" xmlns="http://www.w3.org/2000/svg" xmlns:xlink="http://www.w3.org/1999/xlink" x="0px" y="0px"
	 viewBox="0 0 21.9 21.9" style="enable-background:new 0 0 21.9 21.9;" xml:space="preserve">
<style type="text/css">
	.st0{fill:#ffffff;}
</style>
<g>
	<g>
		<rect x="0.2" y="7.2" class="st0" width="4.7" height="14.2"/>
		<path class="st0" d="M20.4,8.5c-1-1.1-2.3-1.6-4-1.6c-0.6,0-1.1,0.1-1.7,0.3c-0.5,0.2-0.9,0.4-1.2,0.6s-0.6,0.5-0.8,0.7
			c-0.2,0.2-0.4,0.4-0.5,0.8v-2H7.5V8c0,0.4,0,1.9,0,4.2s0,5.5,0,9.3h4.7v-8c0-0.5,0.1-0.9,0.2-1.1c0.2-0.5,0.5-0.9,0.9-1.2
			c0.4-0.4,0.9-0.5,1.5-0.5c0.8,0,1.4,0.3,1.8,0.9c0.4,0.5,0.6,1.3,0.6,2.4v7.6h4.7v-8.1C21.8,11.1,21.4,9.5,20.4,8.5z"/>
		<path class="st0" d="M2.6,0.4c-0.8,0-1.4,0.3-1.9,0.7S0,2.2,0,2.9s0.3,1.2,0.7,1.8C1.1,5,1.8,5.4,2.6,5.4l0,0
			c0.8,0,1.4-0.3,1.9-0.7C5,4.3,5.2,3.5,5.2,2.8S4.9,1.5,4.5,1S3.4,0.4,2.6,0.4z"/>
	</g>
</g>
</svg>
