<?xml version="1.0" encoding="utf-8"?>
<!-- Generator: Adobe Illustrator 19.2.1, SVG Export Plug-In . SVG Version: 6.00 Build 0)  -->
<svg version="1.1" id="Layer_1" xmlns="http://www.w3.org/2000/svg" xmlns:xlink="http://www.w3.org/1999/xlink" x="0px" y="0px"
	 viewBox="0 0 23.5 23.5" style="enable-background:new 0 0 23.5 23.5;" xml:space="preserve">
<style type="text/css">
	.st0{fill:#ffffff;}
</style>
<g>
	<g>
		<path class="st0" d="M23.5,4.6c-0.9,0.4-1.8,0.6-2.8,0.7c1-0.6,1.8-1.5,2.1-2.7c-0.9,0.5-2,1-3,1.2c-0.9-0.9-2.1-1.5-3.5-1.5
			c-2.7,0-4.8,2.1-4.8,4.8c0,0.4,0,0.7,0.1,1.1c-4-0.2-7.5-2.1-9.9-5C1.3,3.9,1.1,4.7,1.1,5.6c0,1.7,0.8,3.1,2.1,4
			C2.4,9.6,1.7,9.3,1.1,9v0.1c0,2.3,1.7,4.3,3.8,4.7C4.5,13.9,4.1,14,3.7,14c-0.3,0-0.6,0-0.9-0.1c0.6,1.9,2.4,3.3,4.4,3.3
			c-1.6,1.2-3.7,2-6,2c-0.4,0-0.8,0-1.2-0.1c2.1,1.3,4.6,2.1,7.3,2.1c8.8,0,13.6-7.3,13.6-13.6V7C22,6.4,22.8,5.5,23.5,4.6z"/>
	</g>
</g>
</svg>
