<?xml version="1.0" encoding="utf-8"?>
<!-- Generator: Adobe Illustrator 24.2.1, SVG Export Plug-In . SVG Version: 6.00 Build 0)  -->
<svg version="1.1" id="Layer_1" xmlns="http://www.w3.org/2000/svg" xmlns:xlink="http://www.w3.org/1999/xlink" x="0px" y="0px"
	 viewBox="0 0 505 500" style="enable-background:new 0 0 505 500;" xml:space="preserve">
<style type="text/css">
	.st0{fill:#111111;}
	.st1{fill:#00ACEE;}
	.st2{fill:#26719E;}
</style>
<path class="st0" d="M58.3,119.3L-58.9,236.5c-10.9,10.9-28.6,10.9-39.5,0l-117.2-117.2c-10.9-10.9-10.9-28.6,0-39.5L-98.3-37.3
	c10.9-10.9,28.6-10.9,39.5,0L58.3,79.9C69.3,90.8,69.3,108.4,58.3,119.3z"/>
<path class="st1" d="M303.3,307.7l-142,142c-15.6,15.6-40.9,15.6-56.5,0l-142-142c-15.6-15.6-15.6-40.9,0-56.5l142-142
	c15.6-15.6,40.9-15.6,56.5,0l142,142C318.9,266.7,318.9,292.1,303.3,307.7z"/>
<path class="st2" d="M27.8,457.7l-56.9,56.9c-10.9,10.9-28.6,10.9-39.5,0l-56.9-56.9c-10.9-10.9-10.9-28.6,0-39.5l56.9-56.9
	c10.9-10.9,28.6-10.9,39.5,0l56.9,56.9C38.7,429.1,38.7,446.8,27.8,457.7z"/>
</svg>
