<?xml version="1.0" encoding="utf-8"?>
<!-- Generator: Adobe Illustrator 24.2.1, SVG Export Plug-In . SVG Version: 6.00 Build 0)  -->
<svg version="1.1" id="Layer_1" xmlns="http://www.w3.org/2000/svg" xmlns:xlink="http://www.w3.org/1999/xlink" x="0px" y="0px"
	 viewBox="0 0 146.2 146.2" style="enable-background:new 0 0 146.2 146.2;" xml:space="preserve">
<style type="text/css">
	.st0{fill:#DFF2F8;}
	.st1{fill:#FBBC9C;}
	.st2{fill:#020202;}
	.st3{fill:#C3B8C2;}
	.st4{fill:#313F5F;}
	.st5{fill:#046938;}
	.st6{fill:none;}
	.st7{fill:#EFAA87;}
	.st8{fill:#FBC09D;}
	.st9{fill:#603B17;}
</style>
<ellipse class="st0" cx="73.1" cy="139.8" rx="42.6" ry="6.4"/>
<g>
	<g>
		<g>
			<path class="st1" d="M70.2,72.1L85,57.5l-1.5-2c-1.4-1.8-4-1.8-5.4-0.1L67.5,69L70.2,72.1z"/>
			<g>
				<path class="st1" d="M68.5,75.4c-1.9,1-4.2,0.2-5.1-1.7c-1-1.9-0.2-4.2,1.7-5.1c1.9-1,4.2-0.2,5.1,1.7
					C71.1,72.2,70.3,74.5,68.5,75.4z"/>
			</g>
		</g>
		<path class="st1" d="M78.8,58.1c-0.7-5.5,0.4-14.8,0.4-14.8l7-2.9l-1.1,17C85.1,57.5,79.5,63.5,78.8,58.1z"/>
	</g>
	<g>
		<g>
			<polygon class="st1" points="76.7,120.6 76.5,133.6 81.8,133.9 82.5,121 			"/>
			<g>
				<g>
					<path class="st2" d="M76.2,132.4l-0.6,6.9h16.9l0,0c0.1-0.8-0.2-1.6-0.8-1.9l-9.5-5H76.2z"/>
					<rect x="75.4" y="139.3" class="st3" width="17.4" height="2"/>
				</g>
			</g>
		</g>
		<g>
			<polygon class="st1" points="59.6,120.6 59.4,133.6 64.7,133.9 65.5,121 			"/>
			<g>
				<g>
					<path class="st2" d="M59.1,132.4l-0.6,6.9h16.9l0,0c0.1-0.8-0.2-1.6-0.8-1.9l-9.5-5H59.1z"/>
					<rect x="58.3" y="139.3" class="st3" width="17.4" height="2"/>
				</g>
			</g>
		</g>
		<g>
			<polygon class="st4" points="87.1,95.6 83.8,127 74.4,127 76.1,98.6 71.3,77.9 67.7,126.2 56.7,126.2 59.4,62.2 79.5,60.5 			"/>
		</g>
	</g>
	<g>
		<g>
			<path class="st5" d="M80.7,43.2l6.3,1.2c-0.5-10.7-6.8-14.3-6.8-14.3L80.7,43.2z"/>
		</g>
		<g>
			<path class="st5" d="M74.1,27.2l6.1,2.9c0.4,0.2,0.7,0.8,0.7,1.3L81,66.5l-22.3,1.9l-0.1-39.7c0,0,6-2,11.3-2
				C71.1,26.7,74.1,27.2,74.1,27.2z"/>
			<line class="st6" x1="81.1" y1="36.4" x2="81.1" y2="43.5"/>
		</g>
		<g>
			<g>
				<g>
					<path class="st1" d="M32.9,26.6l7.3,15.5c1,2,3.6,2.6,5.3,1.1l1-1.8L36.2,24.2L32.9,26.6z"/>
					<g>
						<path class="st1" d="M35.8,26c-1.3,1.7-3.7,1.9-5.4,0.5c-1.7-1.3-1.9-3.7-0.5-5.4c1.3-1.7,3.7-1.9,5.4-0.5
							C36.8,21.9,37.1,24.3,35.8,26z"/>
					</g>
				</g>
				<path class="st1" d="M42.9,38.9l15.2-7.7v6.5c0,0-8.1,4.7-13.4,6.1C39.4,45.3,42.9,38.9,42.9,38.9z"/>
			</g>
			<path class="st5" d="M62.1,29.4c0,0-1.7-2.1-5.3-0.1S47,34.9,47,34.9l5.7,7.9l10.9-5.5L62.1,29.4z"/>
		</g>
	</g>
	<g>
		<path class="st1" d="M69.7,17.6l-0.9,9.2c-0.3,1.9,1.4,2.9,3.1,3.1l0,0c1.9,0.3,3.3-0.6,3.6-2.7l0.7-5.9L69.7,17.6z"/>
		<path class="st7" d="M76.2,22c0,0-6.6-4.4-6.8-2.6c-0.5,5.9,6.1,8.3,6.1,8.3L76.2,22z"/>
		<path class="st1" d="M72.5,31.7C65,31.5,66.1,27,66.1,27l3-0.3l5-0.2l3,1.8C77.1,28.3,78.5,32,72.5,31.7z"/>
	</g>
	<g>
		<g>
			<path class="st8" d="M74.5,24.8L74.5,24.8c4,0,7.2-3.1,7.2-7.1l0.1-8.9L67.3,8.7l-0.1,8.9C67.3,21.5,70.5,24.8,74.5,24.8z"/>
			<path class="st9" d="M81.7,11.6c-1.4-1.3-4-1.1-6.2-1.2c-0.9,0.4-3.2,0-3.6,0.6c-1.3,2.2-0.1,8.8-3,6.9c-3.1-2-0.9,0.7-2.8,0.9
				c-1.2,0.1-1.1-1.9-2-3.6c-0.4,0.7-0.8,1.2-0.8,1.2s-0.7,1.3,0.3-7.6c1-8.9,5.6-7.5,6.5-7.3c1,0.2,10.1-2.4,12.8,2.1
				C85.6,8.2,81.9,11.4,81.7,11.6z"/>
		</g>
	</g>
</g>
</svg>
