<?xml version="1.0" encoding="utf-8"?>
<!-- Generator: Adobe Illustrator 23.0.3, SVG Export Plug-In . SVG Version: 6.00 Build 0)  -->
<svg version="1.1" id="Layer_1" xmlns="http://www.w3.org/2000/svg" xmlns:xlink="http://www.w3.org/1999/xlink" x="0px" y="0px"
	 viewBox="0 0 158.1 158.1" style="enable-background:new 0 0 158.1 158.1;" xml:space="preserve">
<style type="text/css">
	.st0{fill:#DFF2F8;}
	.st1{fill:#FBBC9C;}
	.st2{fill:#030303;}
	.st3{fill:#C3B8C2;}
	.st4{fill:#3F66B0;}
	.st5{fill:none;stroke:#1B5FA9;stroke-width:0.75;stroke-miterlimit:10;}
	.st6{fill:#F7A1A2;}
	.st7{fill:none;stroke:#EF9191;stroke-width:0.75;stroke-miterlimit:10;}
	.st8{fill:#EFAA87;}
	.st9{fill:#181E21;}
	.st10{fill:#E49E7D;}
</style>
<ellipse class="st0" cx="83.3" cy="151.7" rx="42.6" ry="6.4"/>
<g>
	<g>
		<g>
			<path class="st1" d="M99.3,83.4l-6.2-21.8L90.4,62c-2.4,0.4-3.9,2.9-2.9,5.2l7.4,17.2L99.3,83.4z"/>
			<g>
				<path class="st1" d="M101.6,86.8c-0.1,2.3-2,4.1-4.3,4s-4.1-2-4-4.3s2-4.1,4.3-4C99.8,82.6,101.7,84.6,101.6,86.8z"/>
			</g>
		</g>
		<path class="st1" d="M86.3,62.6c-0.8-5.9,0.4-16.1,0.4-16.1l7.6-3.1L93.2,62C93.2,62,87.1,68.5,86.3,62.6z"/>
	</g>
	<g>
		<g>
			<polygon class="st1" points="86.6,129.7 86.3,143.9 92.8,144.2 93.8,130.2 			"/>
			<g>
				<g>
					<path class="st2" d="M86.1,142.6l-0.8,7.5h20.8l0,0c0.2-0.8-0.2-1.7-1-2.1l-11.8-5.4H86.1z"/>
					<rect x="84.9" y="150.1" class="st3" width="21.4" height="2.2"/>
				</g>
			</g>
		</g>
		<g>
			<polygon class="st1" points="65.4,129.7 65.2,143.9 71.8,144.2 72.7,130.2 			"/>
			<g>
				<g>
					<path class="st2" d="M64.9,142.6l-0.8,7.5h20.8l0,0c0.2-0.8-0.2-1.7-1-2.1l-11.8-5.4H64.9z"/>
					<rect x="63.8" y="150.1" class="st3" width="21.4" height="2.2"/>
				</g>
			</g>
		</g>
		<g>
			<polygon class="st4" points="99.3,102.4 95.3,136.7 83.8,136.7 85.8,105.7 79.8,83.2 75.4,135.9 61.8,135.9 65.1,66 90.1,64.1 
							"/>
			<line class="st5" x1="79.8" y1="83.2" x2="85.4" y2="80.1"/>
		</g>
	</g>
	<g>
		<g>
			<path class="st6" d="M89.4,45.2l5.8,1.3c1-11.7-5.3-15.4-5.3-15.4L89.4,45.2z"/>
		</g>
		<g>
			<path class="st6" d="M82.3,27.9l7.3,3.1c0.5,0.2,0.8,0.8,0.8,1.4l0.3,34.8l-26.4,2l-0.3-39.8c0,0,7.1-2.2,13.4-2.2
				C78.7,27.2,82.3,27.8,82.3,27.9z"/>
			<line class="st7" x1="90.6" y1="37.8" x2="90.6" y2="45.5"/>
		</g>
		<g>
			<g>
				<g>
					<path class="st1" d="M36,23.8l6,17.7c0.8,2.3,3.6,3.2,5.6,1.9l2.2-1.5l-10-20.3L36,23.8z"/>
					<g>
						<path class="st1" d="M39.3,23.4c-1.7,1.6-4.3,1.6-5.9-0.1c-1.6-1.7-1.6-4.3,0.1-5.9c1.7-1.6,4.3-1.6,5.9,0.1
							C40.8,19.1,40.8,21.8,39.3,23.4z"/>
					</g>
				</g>
				<path class="st1" d="M45.3,37.1l17.5-6.4L62,38.9c0,0-9.4,4.1-15.3,5S45.3,37.1,45.3,37.1z"/>
			</g>
			<path class="st6" d="M67.4,30.4c0,0-1.6-2.5-5.8-0.8s-11.7,4.2-11.7,4.2l6.5,11.3l12.5-4.7L67.4,30.4z"/>
		</g>
	</g>
	<g>
		<path class="st1" d="M75.9,17.3L75,27.4c-0.3,2,1.5,3.1,3.4,3.4l0,0c2.1,0.3,3.6-0.7,3.9-3l0.8-6.4L75.9,17.3z"/>
		<path class="st8" d="M83.2,21c0,0-7.2-4.8-7.4-2.9c-0.6,6.5,6.6,9.1,6.6,9.1L83.2,21z"/>
		<path class="st1" d="M79.1,32.8c-8.1-0.3-6.9-5.1-6.9-5.1l3.2-0.4l5.5-0.2l3.1,1.4C83.9,28.5,85.6,33,79.1,32.8z"/>
		<g>
			<path class="st9" d="M82.8,3.4c0,0,5.1-3.7,8,0.6s-3.4,9-3.4,9L82.8,3.4z"/>
			<path class="st9" d="M74.4,7.9l-2,5.6C64.7-0.2,82.3,2.3,82.3,2.3L74.4,7.9z"/>
			<path class="st9" d="M85.9,7.1l1,6.9c3.8-5.4,0.8-7.9,0.8-7.9L85.9,7.1z"/>
			<path class="st10" d="M87.4,13.2c1.5,0.1,2.5,1.5,2.3,3c-0.3,1.5-1.5,2.5-3,2.4s-2.5-1.5-2.3-3C84.6,14,85.9,13,87.4,13.2z"/>
			<path class="st1" d="M73.2,14.9l0.3-5.1c0.5-4,4.6-6.7,8.5-6.3l0,0c3.8,0.4,6.5,3.9,6.2,7.8l-0.5,6.5c-0.3,3.1-3.5,6-7.2,5.8l0,0
				C76.1,23.1,72.8,19.5,73.2,14.9z"/>
			<path class="st9" d="M87.8,6.1l-5.3-3.8l-9,3l-1.6,7l3,3l0.1-4.7c2.4-3.1,6.7-3.3,10.1-2.9c3.4,0.4,3.1,2.1,3.1,2.1L87.8,6.1z"/>
			<g>
				<path class="st1" d="M72.6,12.2c1.5,0.2,2.5,1.6,2.3,3c-0.2,1.6-1.5,2.6-2.9,2.4c-1.5-0.2-2.5-1.6-2.3-3
					C69.8,13.1,71.2,12.1,72.6,12.2z"/>
			</g>
			<path class="st9" d="M72.8,3.6c5.4-3.7,7.8-4.1,10.3-3.1c2.8,1.2,2,3.2,2,3.2L72.8,3.6z"/>
			<path class="st9" d="M84.3,24.5c-1.6,0.8-3.6,1-5.3,0.7c-5.9-1.2-5.8-7.6-5.8-7.6c2.2-1.4,0.8-4.5,0.8-4.5l-0.3-2.9l1.9-1.4
				c-1.2,4.6,0.4,8.5,1.2,10.2c0.3,0.5,0.9,0.8,1.4,0.6c1.3-0.3,3.7-0.9,5.3-0.6c1.3,0.3,2.2,0.5,2.7,0.8c0.4,0.1,0.7,0.5,0.7,0.9
				C86.9,22.3,85.8,23.8,84.3,24.5z"/>
			<path class="st9" d="M74.1,8.2c0,0,1.9-4.8,3.4-1s-2.4,4.7-2.4,4.7L74.1,8.2z"/>
		</g>
	</g>
</g>
</svg>
