<?xml version="1.0" encoding="utf-8"?>
<!-- Generator: Adobe Illustrator 24.2.1, SVG Export Plug-In . SVG Version: 6.00 Build 0)  -->
<svg version="1.1" id="Layer_1" xmlns="http://www.w3.org/2000/svg" xmlns:xlink="http://www.w3.org/1999/xlink" x="0px" y="0px"
	 viewBox="0 0 146.2 146.2" style="enable-background:new 0 0 146.2 146.2;" xml:space="preserve">
<style type="text/css">
	.st0{fill:#DFF2F8;}
	.st1{fill:#171D20;}
	.st2{fill:#FABB9B;}
	.st3{fill:#020202;}
	.st4{fill:#C1B6C1;}
	.st5{fill:#222222;}
	.st6{fill:#676767;}
	.st7{fill:none;}
	.st8{fill:#EEA985;}
	.st9{fill:#FAC09C;}
	.st10{fill:#444445;}
</style>
<ellipse class="st0" cx="73.1" cy="139.8" rx="42.6" ry="6.4"/>
<g>
	<path class="st1" d="M64.3,10.9c0,0-4.2-4.6-0.5-8.2C68.5-2,72,2.2,72,2.2L64.3,10.9z"/>
	<g>
		<g>
			<g>
				<path class="st2" d="M60.7,78.8l5-16.5c0.6-2.2-1-4.4-3.2-4.5L60,57.7l-3.5,20.6L60.7,78.8z"/>
				<g>
					<path class="st2" d="M58,77.2c2.1-0.4,4.1,1.1,4.4,3.2c0.4,2.1-1.1,4.1-3.2,4.4c-2.1,0.4-4.1-1.1-4.4-3.2
						C54.5,79.7,55.9,77.6,58,77.2z"/>
				</g>
			</g>
			<path class="st2" d="M59.9,59.2l-1.2-17.1l7,2.9c0,0,1.1,9.4,0.4,14.8C65.4,65.3,59.8,59.2,59.9,59.2z"/>
		</g>
		<g>
			<g>
				<polygon class="st2" points="61.6,121.9 62.3,134.9 67.9,134.6 67.7,121.6 				"/>
				<g>
					<g>
						<path class="st3" d="M68.2,133.5l-6.1,0.1l-10,4.9c-0.7,0.4-1,1.2-0.9,1.9l0,0h17.6L68.2,133.5L68.2,133.5z"/>
						<rect x="50.9" y="140.3" class="st4" width="18.1" height="2"/>
					</g>
				</g>
			</g>
			<g>
				<polygon class="st2" points="79.5,121.9 80.3,134.9 85.8,134.6 85.6,121.6 				"/>
				<g>
					<g>
						<path class="st3" d="M86.1,133.5l-6.2,0.1l-10,4.9c-0.7,0.4-1,1.2-0.9,1.9l0,0h17.7L86.1,133.5L86.1,133.5z"/>
						<rect x="68.8" y="140.3" class="st4" width="18.1" height="2"/>
					</g>
				</g>
			</g>
			<g>
				<polygon class="st5" points="64.8,61.2 85.8,62.9 88.6,127.2 77.1,127.2 73.4,78.7 68.4,99.4 70.1,127.9 60.2,127.9 56.8,96.4 
									"/>
			</g>
		</g>
		<g>
			<g>
				<path class="st6" d="M64.1,30.8c0,0-7.3,1.6-6.3,14.3l6.4-1.2L64.1,30.8z"/>
			</g>
			<g>
				<path class="st6" d="M75,27.3c5.4,0,11.7,2,11.7,2l-0.1,39.9H63l0.4-37c0-0.6,0.3-1.2,0.8-1.4l6.4-2.9
					C70.6,27.9,73.8,27.3,75,27.3z"/>
				<line class="st7" x1="63.3" y1="44.2" x2="63.3" y2="37"/>
			</g>
			<g>
				<g>
					<g>
						<path class="st2" d="M96.5,9.9l4.4,20.4l2.4-0.2c2.2-0.2,3.8-2.4,3-4.6l-5.8-16.2L96.5,9.9z"/>
						<g>
							<path class="st2" d="M94.5,6.7c0.2-2.1,2-3.7,4.2-3.4c2.1,0.1,3.7,2,3.5,4.2c-0.2,2.1-2,3.7-4.2,3.4
								C95.9,10.6,94.3,8.8,94.5,6.7z"/>
						</g>
					</g>
					<path class="st2" d="M103.6,29.3c-4.8,2.7-13.1,5.8-13.1,5.8l-5.3-5.4l16.2-5.3C101.4,24.3,108.4,26.6,103.6,29.3z"/>
				</g>
				<path class="st6" d="M102.2,10l-6.6,1L98,23.4c0.1,0.4-0.1,0.8-0.5,1c-2,0.9-8.1,3.4-11.4,4.4c-4,1.2-4.4,3.3-4.4,3.3l4.5,6.8
					l21.1-10.4c0.5-0.2,0.7-0.8,0.5-1.3L102.2,10z"/>
			</g>
		</g>
		<g>
			<path class="st2" d="M69,22l0.7,5.9c0.2,2.1,1.6,3,3.6,2.7l0,0c1.7-0.2,3.4-1.3,3.1-3.1l-0.9-9.3L69,22z"/>
			<path class="st8" d="M69.7,27.3c0,0,6.7-2.4,6.1-8.3c-0.2-1.8-6.8,2.6-6.8,2.6L69.7,27.3z"/>
		</g>
		<path class="st9" d="M78.5,13.1c-1.3,0-2.3,1-2.3,2.3s1,2.3,2.3,2.3s2.3-1,2.3-2.3C80.8,14.1,79.7,13.1,78.5,13.1z"/>
		<polygon class="st6" points="57.8,45 59.1,58.5 55.9,77.2 61,78 65,60.1 64.1,43.5 		"/>
		<path class="st9" d="M78.3,9.5L78.3,9.5c0,0,0.5-5.5-7.4-5.5c-6.9,0.1-7.4,4.6-7.4,5.4l0,0v0.1v0.1l0,0l0.1,8.1
			c0,4.2,3.4,7.5,7.5,7.4c4.1,0,7.4-3.3,7.4-7.5L78.3,9.5z"/>
	</g>
	<polygon class="st10" points="73.3,31.7 69.7,28.1 68.1,28.9 72.3,33.5 	"/>
	<polygon class="st10" points="73.3,31.7 76.4,27.4 78.3,27.6 74.6,33.5 	"/>
	<path class="st1" d="M71.6,2c0,0,13.3-2.1,7.4,9.3l-1.5-4.7L71.6,2z"/>
	<path class="st1" d="M62.9,8.1c0,0-0.4-0.5,3-0.9c3.4-0.3,7.7-0.2,10.1,2.3l0.1,3.7l3-2.3l-1.6-5.5l-9-2.3l-5.3,3L62.9,8.1z"/>
	<path class="st1" d="M68.5,5.6c0,0,1.5-2.8,4.3-4c2.5-1,4-0.1,5.6,4.7L68.5,5.6z"/>
	<path class="st1" d="M75.9,9.8c0,0-3.9-0.9-2.4-4.7s3.4,1,3.4,1L75.9,9.8z"/>
</g>
</svg>
