<?xml version="1.0" encoding="utf-8"?>
<!-- Generator: Adobe Illustrator 24.2.1, SVG Export Plug-In . SVG Version: 6.00 Build 0)  -->
<svg version="1.1" id="Layer_1" xmlns="http://www.w3.org/2000/svg" xmlns:xlink="http://www.w3.org/1999/xlink" x="0px" y="0px"
	 viewBox="0 0 146.2 146.2" style="enable-background:new 0 0 146.2 146.2;" xml:space="preserve">
<style type="text/css">
	.st0{fill:#DFF2F8;}
	.st1{fill:#FBBC9C;}
	.st2{fill:#020202;}
	.st3{fill:#C3B8C2;}
	.st4{fill:#313F5F;}
	.st5{fill:#BC2030;}
	.st6{fill:none;}
	.st7{fill:#EFAA87;}
	.st8{fill:#FBC09D;}
	.st9{fill:#A97D51;}
</style>
<ellipse class="st0" cx="73.1" cy="139.8" rx="42.6" ry="6.4"/>
<g>
	<g>
		<g>
			<path class="st1" d="M64.7,77.8l5.1-16.5c0.6-2.2-1-4.4-3.2-4.5l-2.5-0.1l-3.5,20.6L64.7,77.8z"/>
			<g>
				<path class="st1" d="M62,76.2c2.1-0.4,4.1,1.1,4.4,3.2c0.4,2.1-1.1,4.1-3.2,4.4c-2.1,0.4-4.1-1.1-4.4-3.2
					C58.5,78.6,60,76.6,62,76.2z"/>
			</g>
		</g>
		<path class="st1" d="M64,58.1L62.8,41l7,2.9c0,0,1.1,9.4,0.4,14.9C69.4,64.2,63.9,58.1,64,58.1z"/>
	</g>
	<g>
		<g>
			<polygon class="st1" points="65.6,121.1 66.4,134.1 72,133.8 71.8,120.7 			"/>
			<g>
				<g>
					<path class="st2" d="M72.2,132.7l-6.1,0.1l-10,5c-0.7,0.4-1,1.2-0.9,1.9l0,0h17.7L72.2,132.7L72.2,132.7z"/>
					<rect x="54.9" y="139.5" class="st3" width="18.2" height="2"/>
				</g>
			</g>
		</g>
		<g>
			<polygon class="st1" points="83.6,121.1 84.4,134.1 90,133.8 89.8,120.7 			"/>
			<g>
				<g>
					<path class="st2" d="M90.2,132.7l-6.2,0.1l-10,5c-0.7,0.4-1,1.2-0.9,1.9l0,0h17.8L90.2,132.7L90.2,132.7z"/>
					<rect x="72.9" y="139.5" class="st3" width="18.2" height="2"/>
				</g>
			</g>
		</g>
		<g>
			<polygon class="st4" points="68.8,60.2 90,61.8 92.8,126.3 81.2,126.3 77.5,77.7 72.4,98.5 74.2,127.1 64.3,127.1 60.9,95.5 			
				"/>
		</g>
	</g>
	<g>
		<g>
			<path class="st5" d="M68.2,29.6c0,0-7.3,1.6-6.3,14.3l6.4-1.2L68.2,29.6z"/>
		</g>
		<g>
			<path class="st5" d="M79.1,26.1c5.4,0,11.8,2,11.8,2l-0.1,40l-23.4-1.8L67.5,31c0-0.6,0.3-1.2,0.8-1.4l6.4-2.9
				C74.7,26.7,77.9,26.1,79.1,26.1z"/>
			<line class="st6" x1="67.4" y1="43" x2="67.4" y2="35.8"/>
		</g>
		<g>
			<g>
				<g>
					<path class="st1" d="M100.7,8.7l4.4,20.4l2.4-0.2c2.2-0.2,3.8-2.4,3-4.6l-5.8-16.3L100.7,8.7z"/>
					<g>
						<path class="st1" d="M98.7,5.5c0.2-2.1,2-3.7,4.2-3.4c2.1,0.1,3.7,2,3.5,4.2s-2,3.7-4.2,3.4C100.1,9.4,98.5,7.5,98.7,5.5z"/>
					</g>
				</g>
				<path class="st1" d="M108.6,28.7c-4.8,2.7-13.9,5.2-13.9,5.2l-5.4-5.4l16.3-5.4C105.6,23.1,113.4,26,108.6,28.7z"/>
			</g>
			<path class="st5" d="M90.3,37.7l11.7-3.8l-1.6-10.6c0,0-6.9,2.5-10.9,3.7c-4,1.2-3.7,3.9-3.7,3.9L90.3,37.7z"/>
		</g>
	</g>
	<g>
		<path class="st1" d="M73.1,20.7l0.7,5.9c0.2,2.1,1.7,3,3.6,2.7l0,0c1.8-0.2,3.4-1.3,3.1-3.1l-0.9-9.3L73.1,20.7z"/>
		<path class="st7" d="M73.8,26.1c0,0,6.7-2.4,6.1-8.4c-0.2-1.8-6.8,2.6-6.8,2.6L73.8,26.1z"/>
		<path class="st1" d="M72.1,27.6l3-1.8l5.1,0.2l3,0.4c0,0,1.1,4.6-6.4,4.8C70.9,31.4,72.2,27.7,72.1,27.6z"/>
	</g>
	<g>
		<g>
			<path class="st8" d="M82.5,16.3L82.4,7L67.5,7.1l0.1,9.2c0,4.2,3.4,7.5,7.5,7.4l0,0C79.2,23.8,82.5,20.4,82.5,16.3z"/>
			<path class="st9" d="M83.2,12.6c2.3-10.2-3.5-8.6-7.3-8.5c-1.3,0.1-2.4-0.1-3.5-0.4c-0.4-0.1-1.1-1.7-1.1-1.7s-0.5,1.1-0.8,0.9
				c-1.1-0.6-1.6-1.5-1.4-2.2c-3.3,0.2-5.8,4.7-2.1,7.4c2.6,1.9,7.9-0.2,9.2,0.3c0.9,0.3,1.3,2.4,1.1,4c-0.1,0.6,2,1.5,2.6,1.5
				l2.1-0.1L83.2,12.6z"/>
		</g>
		<path class="st8" d="M82.7,11.9c-1.3,0-2.3,1-2.3,2.3c0,1.3,1,2.3,2.3,2.3c1.3,0,2.3-1,2.3-2.3C84.9,12.9,83.8,11.9,82.7,11.9z"/>
	</g>
</g>
</svg>
