<?xml version="1.0" encoding="utf-8"?>
<!-- Generator: Adobe Illustrator 24.2.1, SVG Export Plug-In . SVG Version: 6.00 Build 0)  -->
<svg version="1.1" id="Layer_1" xmlns="http://www.w3.org/2000/svg" xmlns:xlink="http://www.w3.org/1999/xlink" x="0px" y="0px"
	 viewBox="0 0 645.6 158.8" style="enable-background:new 0 0 645.6 158.8;" xml:space="preserve">
<style type="text/css">
	.st0{fill:#43B6E8;}
	.st1{fill:#FFFFFF;}
</style>
<g>
	<g>
		<path class="st0" d="M198.9,75.3l28.6-16.5c-11.5-21-33.8-35.3-59.4-35.3c-15,0-28.8,4.9-40,13.2c8.1,8.6,14.1,18.4,17.4,28.2
			c6.1-5.2,13.9-8.4,22.6-8.4C181.5,56.4,193.1,64.1,198.9,75.3z"/>
		<path class="st0" d="M198.9,106.8c-5.7,11.2-17.3,18.8-30.8,18.8c-7.3,0-14-2.3-19.6-6.1c0,3.8,0,36.2,0,36.2
			c6.2,1.9,12.8,2.9,19.6,2.9c25.6,0,47.9-14.3,59.4-35.3L198.9,106.8z"/>
	</g>
	<path class="st1" d="M134.4,81c-0.6-23.2-29.3-57.7-66.8-57.7C33.3,23.2,0,52.1,0,90.8c0,37.3,30.3,67.6,67.6,67.6
		c6.6,0,12.9-1,18.9-2.8v-35.9c-5.4,3.6-11.9,5.7-18.9,5.7c-19.1,0-34.6-15.5-34.6-34.6c0-20.4,18-34.5,34.6-34.6
		c16.1-0.1,32.4,13,33.1,24.8c0,0.5,0,1,0,1.4c0,16.1,0,32.3,0,48.4l0,0c0.1,15.5,15.1,28.1,33.6,28.1c0,0-0.1-54.6,0-76
		C134.4,81.9,134.4,81.5,134.4,81z"/>
</g>
<g>
	<path class="st1" d="M287.6,94.7c-5.1,0-9.7-1.3-13.8-3.8c-4.1-2.5-7.3-6.1-9.7-10.8c-2.4-4.7-3.6-10.1-3.6-16.2
		c0-5.7,1.2-10.8,3.5-15.5s5.6-8.5,9.9-11.4c4.3-2.9,9.1-4.3,14.5-4.3c4,0,7.6,0.8,10.8,2.5c3.2,1.6,5.8,4,7.7,6.9l0.2-7.6h15.3
		v58.4h-15.3l-0.2-7.5c-2,3.1-4.6,5.4-7.9,6.9C295.8,94,292,94.7,287.6,94.7z M292,80.5c4.5,0,8.2-1.6,11.1-4.7s4.4-7.2,4.4-12.2
		c0-4.9-1.4-8.9-4.3-12c-2.9-3.1-6.6-4.7-11.2-4.7s-8.3,1.6-11.2,4.7c-2.9,3.1-4.3,7.2-4.3,12c0,5,1.5,9,4.4,12.2
		C283.7,79,287.4,80.5,292,80.5z"/>
	<path class="st1" d="M358,94.7c-6.9,0-12.1-2.1-15.8-6.4c-3.6-4.2-5.4-10.4-5.4-18.4V34.5h15.9V67c0,9.1,3.5,13.6,10.4,13.6
		c3.8,0,6.8-1.3,8.8-3.8c2.1-2.6,3.1-6.2,3.1-10.8V34.5h15.9v58.4h-15.4l-0.1-7.1c-1.7,2.9-4,5.1-7.1,6.7
		C365.5,94,362,94.7,358,94.7z"/>
	<path class="st1" d="M429.5,94.7c-5.1,0-9.7-1.3-13.8-3.8c-4.1-2.5-7.3-6.1-9.7-10.8c-2.4-4.7-3.6-10.1-3.6-16.2
		c0-5.7,1.2-10.8,3.5-15.5s5.6-8.5,9.9-11.4c4.3-2.9,9.1-4.3,14.5-4.3c3.8,0,7.3,0.8,10.5,2.3s5.7,3.7,7.6,6.4V0h15.9v92.9H449
		l-0.2-7.5c-2,3.1-4.6,5.4-7.9,6.9C437.7,94,433.8,94.7,429.5,94.7z M433.8,80.5c4.5,0,8.2-1.6,11.1-4.7s4.4-7.2,4.4-12.2
		c0-4.9-1.4-8.9-4.3-12c-2.9-3.1-6.6-4.7-11.2-4.7s-8.3,1.6-11.2,4.7c-2.9,3.1-4.3,7.2-4.3,12c0,5,1.5,9,4.4,12.2
		C425.6,79,429.3,80.5,433.8,80.5z"/>
	<path class="st1" d="M509.7,94.7c-6.8,0-12.8-1.2-17.8-3.7c-5.1-2.4-9-6-11.9-10.7c-2.8-4.7-4.2-10.2-4.2-16.6
		c0-5.9,1.2-11.2,3.7-15.9c2.4-4.7,5.9-8.4,10.4-11.1c4.5-2.7,9.7-4.1,15.7-4.1c5.5,0,10.3,1.2,14.5,3.5s7.4,5.7,9.7,10
		c2.3,4.4,3.5,9.5,3.5,15.5c0,2.5-0.2,4.8-0.6,6.9h-41.2c2,8.7,8.6,13.1,19.8,13.1c3.5,0,6.9-0.4,10.3-1.1c3.3-0.7,6.3-1.8,9-3.2
		l1.6,12.5c-2.8,1.5-6.1,2.7-10.1,3.6C518.2,94.3,514,94.7,509.7,94.7z M518,57.5c-0.4-4.1-1.7-7.2-4-9.3c-2.3-2.2-5.3-3.3-9-3.3
		s-6.7,1.1-9.1,3.3s-3.9,5.3-4.6,9.3H518z"/>
	<path class="st1" d="M545.4,34.5h15.4l0.1,9.6c1.6-3.4,3.8-6.1,6.5-7.9c2.7-1.8,5.9-2.8,9.5-2.8c2.4,0,4.7,0.4,6.8,1.3l-1.4,15
		c-2.4-0.9-4.7-1.4-7.1-1.4c-4.4,0-7.7,1.6-10.2,4.7c-2.4,3.1-3.6,7.5-3.6,13.2v26.6h-15.9L545.4,34.5L545.4,34.5z"/>
	<path class="st1" d="M621.9,94.7c-6.8,0-12.8-1.2-17.8-3.7c-5.1-2.4-9-6-11.9-10.7c-2.8-4.7-4.2-10.2-4.2-16.6
		c0-5.9,1.2-11.2,3.7-15.9c2.4-4.7,5.9-8.4,10.4-11.1c4.5-2.7,9.7-4.1,15.7-4.1c5.5,0,10.3,1.2,14.5,3.5s7.4,5.7,9.7,10
		c2.3,4.4,3.5,9.5,3.5,15.5c0,2.5-0.2,4.8-0.6,6.9h-41.2c2,8.7,8.6,13.1,19.8,13.1c3.5,0,6.9-0.4,10.3-1.1c3.3-0.7,6.3-1.8,9-3.2
		l1.6,12.5c-2.8,1.5-6.1,2.7-10.1,3.6C630.5,94.3,626.3,94.7,621.9,94.7z M630.3,57.5c-0.4-4.1-1.7-7.2-4-9.3
		c-2.3-2.2-5.3-3.3-9-3.3s-6.7,1.1-9.1,3.3c-2.4,2.2-3.9,5.3-4.6,9.3H630.3z"/>
</g>
<g>
	<path class="st0" d="M279.5,150.3c-3.3,0-6.2-0.6-8.7-1.9c-2.5-1.3-4.5-3.2-6-5.6c-1.4-2.4-2.2-5.3-2.2-8.6c0-3.1,0.7-5.9,2.1-8.4
		c1.4-2.5,3.4-4.5,6-5.9s5.6-2.2,9-2.2c1.7,0,3.5,0.2,5.3,0.7s3.3,1.1,4.6,1.9l-1,5.4c-3-1.5-6-2.3-8.8-2.3c-2.1,0-3.9,0.4-5.5,1.3
		s-2.9,2.1-3.8,3.7c-0.9,1.6-1.4,3.5-1.4,5.7c0,3.3,1,5.8,2.9,7.7s4.6,2.9,7.9,2.9c1.4,0,3-0.2,4.6-0.6c1.6-0.4,3.2-1,4.6-1.8
		l0.7,5.5c-1.4,0.8-3,1.4-4.9,1.9C283.3,150.1,281.4,150.3,279.5,150.3z"/>
	<path class="st0" d="M317.5,150.5c-3.1,0-5.9-0.7-8.4-2.1c-2.5-1.4-4.6-3.3-6.1-5.8s-2.3-5.4-2.3-8.6c0-3,0.7-5.7,2.1-8.2
		s3.4-4.5,5.9-6c2.6-1.5,5.4-2.3,8.7-2.3c3.1,0,5.9,0.7,8.4,2.1s4.6,3.3,6.1,5.8s2.3,5.4,2.3,8.6c0,3-0.7,5.7-2.1,8.2s-3.4,4.5-6,6
		C323.6,149.8,320.7,150.5,317.5,150.5z M317.5,144.9c1.9,0,3.6-0.4,5.2-1.3s2.8-2.2,3.7-3.8c0.9-1.7,1.4-3.6,1.4-5.7
		c0-2-0.4-3.8-1.3-5.5c-0.8-1.6-2-2.9-3.6-3.9s-3.3-1.5-5.3-1.5c-1.9,0-3.6,0.4-5.1,1.3s-2.7,2.2-3.6,3.8c-0.9,1.7-1.4,3.6-1.4,5.7
		c0,2,0.4,3.8,1.3,5.5c0.8,1.6,2,2.9,3.6,3.9S315.5,144.9,317.5,144.9z"/>
	<path class="st0" d="M347.9,118.2h5.9l10.7,20.2l10.4-20.2h5.9l1.8,31.7h-6.1l-0.8-21.9l-8.7,16.6h-4.9l-8.7-16.2l-0.8,21.5h-6.1
		L347.9,118.2z"/>
	<path class="st0" d="M397.1,118.2h5.9l10.7,20.2l10.4-20.2h5.9l1.8,31.7h-6.1l-0.8-21.9l-8.7,16.6h-4.9l-8.7-16.2l-0.8,21.5h-6.1
		L397.1,118.2z"/>
	<path class="st0" d="M445.3,118.2h20.9v5.3h-14.8v7.6h13.1v5.3h-13.1v8.1h15.3v5.3h-21.5v-31.6H445.3z"/>
	<path class="st0" d="M480,118.2h10.3c3.6,0,6.5,0.9,8.6,2.7c2.1,1.8,3.1,4.3,3.1,7.4c0,1.9-0.5,3.5-1.4,5s-2.2,2.7-3.9,3.6l8.5,13
		H498l-6.8-11.4c-0.5,0-0.9,0-1.2,0.1c-0.3,0-0.6,0-0.9,0h-3v11.3H480V118.2z M486.1,133.4h3.1c4.4,0,6.5-1.7,6.5-5.1
		c0-1.6-0.5-2.9-1.6-3.7c-1.1-0.8-2.6-1.3-4.7-1.3h-3.3V133.4z"/>
	<path class="st0" d="M530.8,150.3c-3.3,0-6.2-0.6-8.7-1.9c-2.5-1.3-4.5-3.2-6-5.6c-1.4-2.4-2.2-5.3-2.2-8.6c0-3.1,0.7-5.9,2.1-8.4
		c1.4-2.5,3.4-4.5,6-5.9s5.6-2.2,9-2.2c1.7,0,3.5,0.2,5.3,0.7s3.3,1.1,4.6,1.9l-1,5.4c-3-1.5-6-2.3-8.8-2.3c-2.1,0-3.9,0.4-5.5,1.3
		s-2.9,2.1-3.8,3.7c-0.9,1.6-1.4,3.5-1.4,5.7c0,3.3,1,5.8,2.9,7.7s4.6,2.9,7.9,2.9c1.4,0,3-0.2,4.6-0.6c1.6-0.4,3.2-1,4.6-1.8
		l0.7,5.5c-1.4,0.8-3,1.4-4.9,1.9C534.5,150.1,532.7,150.3,530.8,150.3z"/>
	<path class="st0" d="M554.1,118.2H575v5.3h-14.8v7.6h13.1v5.3h-13.1v8.1h15.3v5.3H554L554.1,118.2L554.1,118.2z"/>
</g>
</svg>
