<?xml version="1.0" encoding="utf-8"?>
<!-- Generator: Adobe Illustrator 24.2.1, SVG Export Plug-In . SVG Version: 6.00 Build 0)  -->
<svg version="1.1" xmlns="http://www.w3.org/2000/svg" xmlns:xlink="http://www.w3.org/1999/xlink" x="0px" y="0px"
	 viewBox="0 0 455.7 145.6" style="enable-background:new 0 0 455.7 145.6;" xml:space="preserve">
<style type="text/css">
	.st0{fill:#aaa;}
	.st1{fill:#aaa;}
</style>
<g id="Layer_1">
</g>
<g id="Layer_2">
</g>
<g id="Layer_3">
</g>
<g id="Layer_4">
	<g>
		<path class="st0" d="M347.3,101V48h11.6V101H347.3z"/>
		<path class="st0" d="M222.1,101V48h11.6V101H222.1z"/>
		<path class="st0" d="M146.6,57.5V101h-11.6l0-43.5h-18.4V48h48.3v9.4L146.6,57.5z"/>
		<polygon class="st0" points="342.9,101 342.9,90.9 314.2,90.9 314.3,48 302.6,48 302.6,101 		"/>
		<path class="st0" d="M202.5,80.2l1.5-0.2c8.2-1.4,12.4-8.7,12.4-16.9c0-10.3-8.4-15.1-18-15.1c0,0-14.3,0-22.2,0h-4.6h-2.1v1.8
			v3.6V101H181V81.1h8.9l12.6,19.9h14.1L202.5,80.2z M196.2,70.9c0,0-6.4,0-9.9,0l-5.2,5.2V57.5h17.7c4.1,0.3,5.8,2.4,5.8,6.3
			C204.3,70.1,200.5,70.9,196.2,70.9z"/>
		<path class="st0" d="M427.3,57.6L427.3,57.6L427.3,57.6l28.4-0.1V48h-40v0v9.5v34v9.5h40v-9.5h-28.4v-4.3h0v-8h23.4v-9.5
			c-6.8,0-21.2,0-23.5,0L427.3,57.6z"/>
		<polygon id="XMLID_6_" class="st0" points="293.8,48 268.2,71.6 242.5,48 239.8,48 239.8,100.9 250.9,100.9 250.9,70 267.2,85.2 
			269.2,85.2 285.5,70 285.5,100.9 296.5,100.9 296.5,48 		"/>
		<polygon id="XMLID_4_" class="st0" points="364,47.9 364,101 375.1,101 375.1,70.9 408.5,101 411.1,101 411.1,48 400,48 400,78 
			366.6,47.9 		"/>
		<g>
			<path class="st1" d="M149.6,126H162v17.7c-1.9,0.6-3.9,1.1-5.9,1.4c-2,0.3-4.3,0.5-6.9,0.5c-5.5,0-9.8-1.6-12.9-4.9
				c-3.1-3.3-4.6-7.9-4.6-13.8c0-3.8,0.8-7.1,2.3-10c1.5-2.9,3.7-5,6.6-6.5c2.9-1.5,6.2-2.3,10.1-2.3c3.9,0,7.5,0.7,10.9,2.1
				l-1.6,3.7c-3.3-1.4-6.5-2.1-9.5-2.1c-4.4,0-7.9,1.3-10.4,4c-2.5,2.6-3.7,6.3-3.7,11c0,4.9,1.2,8.7,3.6,11.2
				c2.4,2.5,5.9,3.8,10.6,3.8c2.5,0,5-0.3,7.4-0.9v-11.2h-8.2V126z"/>
			<path class="st1" d="M175,129.9v15.2h-4.2v-36.5h10c4.5,0,7.8,0.9,9.9,2.6c2.1,1.7,3.2,4.3,3.2,7.7c0,4.8-2.4,8.1-7.3,9.8
				l9.9,16.4h-5l-8.8-15.2H175z M175,126.3h5.8c3,0,5.2-0.6,6.6-1.8c1.4-1.2,2.1-3,2.1-5.3c0-2.4-0.7-4.1-2.1-5.2
				c-1.4-1.1-3.7-1.6-6.8-1.6H175V126.3z"/>
			<path class="st1" d="M232.5,126.8c0,5.8-1.5,10.4-4.4,13.8c-3,3.3-7.1,5-12.3,5c-5.4,0-9.5-1.6-12.4-4.9
				c-2.9-3.3-4.4-7.9-4.4-13.9c0-5.9,1.5-10.5,4.4-13.8c2.9-3.3,7.1-4.9,12.5-4.9c5.2,0,9.3,1.7,12.3,5
				C231,116.4,232.5,121,232.5,126.8z M203.4,126.8c0,4.9,1.1,8.7,3.2,11.2c2.1,2.6,5.2,3.8,9.2,3.8c4,0,7.1-1.3,9.2-3.8
				c2.1-2.5,3.1-6.3,3.1-11.2c0-4.9-1-8.6-3.1-11.2c-2.1-2.5-5.1-3.8-9.1-3.8c-4,0-7.1,1.3-9.2,3.8
				C204.5,118.2,203.4,122,203.4,126.8z"/>
			<path class="st1" d="M266.3,108.7v23.6c0,4.2-1.3,7.4-3.8,9.8c-2.5,2.4-6,3.6-10.3,3.6c-4.4,0-7.8-1.2-10.2-3.6s-3.6-5.7-3.6-9.9
				v-23.5h4.2v23.8c0,3,0.8,5.4,2.5,7c1.7,1.6,4.1,2.4,7.3,2.4c3.1,0,5.4-0.8,7.1-2.5c1.7-1.6,2.5-4,2.5-7v-23.7H266.3z"/>
			<path class="st1" d="M296.4,119.3c0,3.7-1.3,6.5-3.8,8.5c-2.5,2-6.1,3-10.8,3h-4.3v14.3h-4.2v-36.5h9.5
				C291.9,108.7,296.4,112.2,296.4,119.3z M277.5,127.1h3.8c3.8,0,6.5-0.6,8.2-1.8c1.7-1.2,2.5-3.2,2.5-5.8c0-2.4-0.8-4.2-2.4-5.4
				c-1.6-1.2-4-1.8-7.4-1.8h-4.7V127.1z"/>
		</g>
		<polygon class="st1" points="0,145.6 0,97 48.5,97 		"/>
		<polygon class="st1" points="48.5,97 48.5,48.5 97,48.5 		"/>
		<polygon class="st0" points="0,48.5 0,97 48.5,48.5 48.5,0 		"/>
		<polygon class="st0" points="48.5,97 0,145.6 48.5,145.6 97,97 		"/>
	</g>
</g>
</svg>
