<?xml version="1.0" encoding="utf-8"?>
<!-- Generator: Adobe Illustrator 21.1.0, SVG Export Plug-In . SVG Version: 6.00 Build 0)  -->
<svg version="1.1" id="Layer_1" xmlns="http://www.w3.org/2000/svg" xmlns:xlink="http://www.w3.org/1999/xlink" x="0px" y="0px"
	 viewBox="0 0 265.8 51.3" style="enable-background:new 0 0 265.8 51.3;" xml:space="preserve">
<style type="text/css">
	.st0{fill:#aaa;}
</style>
<g>
	<path class="st0" d="M11.8,42.1L2.5,10.2H10l4.1,15.1c0.2,0.8,0.4,1.5,0.5,2.2c0.2-0.5,0.8-1.4,1.2-1.9l10.9-15.4h8.4L11.8,42.1z"
		/>
	<path class="st0" d="M51.1,41.2H30.5l7.1-31h19.9l-1.5,6.4H43.4L42.2,22h12l-1.5,6.4h-12l-1.5,6.4h13.4L51.1,41.2z"/>
	<path class="st0" d="M68,25c-0.5-0.5-0.9-1-1.1-1.5c0,0.6-0.1,1.3-0.3,2.2L63,41.2h-7.3l7.3-31.9l16.4,17.1c0.5,0.5,0.9,1,1.1,1.5
		c0-0.6,0.1-1.3,0.3-2.2l3.6-15.5h7.3l-7.3,31.9L68,25z"/>
	<path class="st0" d="M113.6,28.4H99.2l-2.9,12.8H89l7.1-31h7.3L100.7,22h14.4l2.7-11.7h7.3l-7.1,31h-7.3L113.6,28.4z"/>
	<path class="st0" d="M130.8,10.2h7.3l-7.1,31h-7.3L130.8,10.2z"/>
	<path class="st0" d="M151.1,10.2l-5.7,24.6h13.1l-1.4,6.4h-20.4l7.1-31H151.1z"/>
	<path class="st0" d="M175.3,10.2l-5.7,24.6h13.1l-1.4,6.4h-20.4l7.1-31H175.3z"/>
</g>
<path class="st0" d="M256.2,0h-6.1H216h-6.1c-4.3,0-8,2.9-9.2,7l-8.9,32.3c-1.7,6,2.9,12,9.2,12h6.1h34.1h6.1c4.3,0,8-2.9,9.2-7
	l8.9-32.3C267.1,6,262.5,0,256.2,0z M258.9,17.6c0,0-4,10.2-25.5,21.3s-28.5,7.9-28.5,7.9s-5-0.7-4.2-8.6c0.8-7.9,3-17.2,14.8-25.1
	c3.9-2.6,4.7-0.1,1.1,2.9c-6.4,5.3-7.4,19.5-7.4,19.5s-0.6,9.9,6.8,5.9c5.5-3,16.8-11.3,23.2-18.6c6.8-7.7,8.5-12.2,9-14.1
	c0.3-1.3-0.2-1.3-1.4-1.3c-2.8-0.1-8.5-0.1-10.4-0.1c-0.2,0-0.3-0.3-0.1-0.4c1.5-0.9,6.3-3.2,16.8-2.6
	C266.1,5.1,258.9,17.6,258.9,17.6z"/>
<polygon class="st0" points="0,0 1,4 191.5,4 191.6,4 192.6,0 "/>
<polygon class="st0" points="12.3,47.3 13.3,51.3 180.6,51.3 181.6,47.3 "/>
</svg>
