<?xml version="1.0" encoding="utf-8"?>
<!-- Generator: Adobe Illustrator 21.1.0, SVG Export Plug-In . SVG Version: 6.00 Build 0)  -->
<svg version="1.1" id="Layer_1" xmlns="http://www.w3.org/2000/svg" xmlns:xlink="http://www.w3.org/1999/xlink" x="0px" y="0px"
	 viewBox="0 0 208 51.1" style="enable-background:new 0 0 208 51.1;" xml:space="preserve">
<style type="text/css">
	.st0{fill:#EC2027;}
	.st1{fill:#222222;}
</style>
<g>
	<polygon class="st0" points="28.1,31.2 19,31.2 19,19.5 9.1,19.5 9.1,31.2 0,31.2 0,0.4 9.1,0.4 9.1,11.6 19,11.6 19,0.4 28.1,0.4 
			"/>
	<g>
		<path class="st0" d="M59,18.9c0,4.7-0.9,7.9-2.7,9.8c-1.8,1.9-5,2.8-9.5,2.8h-4.1c-4.5,0-7.7-0.9-9.5-2.8
			c-1.8-1.9-2.7-5.2-2.7-9.9v-6.3c0-4.7,0.9-7.9,2.7-9.8C35,0.9,38.1,0,42.7,0h4.1c4.5,0,7.7,0.9,9.5,2.8c1.8,1.9,2.7,5.1,2.7,9.8
			L59,18.9L59,18.9z M49.7,18.3v-5c0-2.2-0.2-3.7-0.6-4.3c-0.5-0.8-1.7-1.1-3.6-1.1H44c-1.8,0-3,0.3-3.5,1c-0.5,0.7-0.7,2.2-0.7,4.4
			v5c0,2.2,0.2,3.6,0.6,4.2c0.5,0.8,1.7,1.1,3.6,1.1h1.5c1.9,0,3-0.3,3.5-1C49.5,21.9,49.7,20.5,49.7,18.3"/>
	</g>
	<polygon class="st0" points="101.7,0.4 96.5,31.2 83.9,31.2 80.5,12.8 77,31.2 64.3,31.2 59.5,0.4 68.7,0.4 71.3,21.2 75.7,0.4 
		85.6,0.4 89.7,21.1 92.5,0.4 	"/>
	<g>
		<path class="st0" d="M128.4,22.9c0,2.6-0.8,4.7-2.5,6.3c-1.7,1.6-3.9,2.4-6.7,2.4h-6.7c-3.7,0-6.4-0.6-8.1-1.9
			c-1.7-1.3-2.6-3.3-2.6-6.1v-2.5h8.8v0.7c0,1,0.3,1.6,0.8,2c0.5,0.4,1.5,0.5,2.8,0.5h2.1c1.1,0,1.9-0.1,2.3-0.4
			c0.4-0.2,0.6-0.7,0.6-1.5v-1.3c0-0.8-0.4-1.3-1.1-1.5c-0.4-0.1-1-0.2-1.8-0.3l-6.7-0.7c-2.6-0.3-4.5-1.1-5.8-2.4
			c-1.2-1.3-1.8-3.3-1.8-5.9V8.5c0-3,0.9-5.2,2.8-6.8c0.8-0.7,1.9-1.1,3-1.4c1.2-0.2,2.7-0.3,4.7-0.3h5c3.2,0,5.7,0.6,7.4,1.9
			c1.7,1.3,2.5,3.1,2.5,5.5v2.5h-8.8V9.2c0-0.8-0.2-1.3-0.5-1.6c-0.4-0.3-1-0.4-2-0.4h-1.9c-1.1,0-1.9,0.1-2.3,0.3
			c-0.5,0.2-0.7,0.6-0.7,1.3V10c0,0.6,0.3,1.1,0.8,1.3c0.2,0.1,1,0.2,2.2,0.3l6.1,0.7c5.5,0.6,8.2,3.2,8.2,7.7L128.4,22.9
			L128.4,22.9z"/>
	</g>
	<path class="st0" d="M159,31.2h-9.8l-1.4-5.3h-9l-1.4,5.3h-9.8l9.1-30.8h13.4L159,31.2z M146.1,19l-2.8-11.6L140.5,19H146.1z"/>
	<polygon class="st0" points="181.3,7.8 168.8,7.8 168.8,12.8 180.6,12.8 180.6,20.3 168.8,20.3 168.8,31.2 159.7,31.2 159.7,0.4 
		181.3,0.4 	"/>
	<polygon class="st0" points="183.7,0.4 183.7,31.2 208,31.2 208,23.7 192.8,23.7 192.8,18.9 207.2,18.9 207.2,12.3 192.8,12.3 
		192.8,7.8 207.7,7.8 207.7,0.4 	"/>
</g>
<g>
	<path class="st1" d="M4.1,41.5H0.5v-1.9H10v1.9H6.4v9.4H4.1V41.5z"/>
	<path class="st1" d="M11.6,38.9h2.1v5.3c0.2-0.3,0.5-0.6,0.9-0.8c0.4-0.2,0.8-0.3,1.3-0.3c0.9,0,1.6,0.3,2,0.8
		c0.5,0.5,0.7,1.3,0.7,2.4v4.6h-2.1v-4.2c0-1.2-0.4-1.8-1.3-1.8c-0.5,0-0.9,0.2-1.1,0.5c-0.3,0.3-0.4,0.8-0.4,1.4v4.1h-2.1V38.9z"/>
	<path class="st1" d="M24.8,51.1c-0.9,0-1.6-0.2-2.3-0.5c-0.7-0.3-1.2-0.8-1.5-1.4c-0.4-0.6-0.5-1.3-0.5-2.1c0-0.8,0.2-1.4,0.5-2.1
		c0.3-0.6,0.8-1.1,1.3-1.4c0.6-0.4,1.3-0.5,2-0.5c0.7,0,1.3,0.2,1.9,0.5c0.5,0.3,1,0.7,1.3,1.3c0.3,0.6,0.5,1.2,0.5,2
		c0,0.3,0,0.6-0.1,0.9h-5.3c0.3,1.1,1.1,1.7,2.6,1.7c0.5,0,0.9,0,1.3-0.1c0.4-0.1,0.8-0.2,1.2-0.4l0.2,1.6c-0.4,0.2-0.8,0.4-1.3,0.5
		S25.3,51.1,24.8,51.1z M25.8,46.3c0-0.5-0.2-0.9-0.5-1.2c-0.3-0.3-0.7-0.4-1.2-0.4c-0.5,0-0.9,0.1-1.2,0.4
		c-0.3,0.3-0.5,0.7-0.6,1.2H25.8z"/>
	<path class="st1" d="M32.2,39.6h2.4l2.2,8.4l2.5-8.3h2l2.5,8.1l2.1-8.3h2.4l-3.4,11.3h-2.1l-2.5-8.1l-2.4,8.1h-2.2L32.2,39.6z"/>
	<path class="st1" d="M52.4,51.1c-0.7,0-1.4-0.2-2-0.5c-0.6-0.3-1.1-0.8-1.5-1.4c-0.4-0.6-0.5-1.3-0.5-2.1c0-0.7,0.2-1.4,0.5-2
		c0.3-0.6,0.8-1.1,1.4-1.5c0.6-0.4,1.3-0.5,2.1-0.5c0.7,0,1.4,0.2,2,0.5c0.6,0.3,1.1,0.8,1.5,1.4c0.4,0.6,0.5,1.3,0.5,2.1
		c0,0.7-0.2,1.4-0.5,2c-0.3,0.6-0.8,1.1-1.4,1.5C53.9,50.9,53.2,51.1,52.4,51.1z M52.4,49.3c0.6,0,1.1-0.2,1.4-0.6
		c0.4-0.4,0.6-0.9,0.6-1.6c0-0.6-0.2-1.2-0.6-1.6c-0.4-0.4-0.9-0.6-1.4-0.6c-0.6,0-1.1,0.2-1.4,0.6s-0.6,0.9-0.6,1.6
		c0,0.6,0.2,1.2,0.6,1.6C51.3,49.1,51.8,49.3,52.4,49.3z"/>
	<path class="st1" d="M58.2,43.3h2l0,1.2c0.2-0.4,0.5-0.8,0.8-1c0.4-0.2,0.8-0.4,1.2-0.4c0.3,0,0.6,0.1,0.9,0.2L63,45.3
		c-0.3-0.1-0.6-0.2-0.9-0.2c-0.6,0-1,0.2-1.3,0.6c-0.3,0.4-0.5,1-0.5,1.7v3.4h-2.1V43.3z"/>
	<path class="st1" d="M64.7,38.9h2.1v7.3l2.7-2.8H72l-3.4,3.4l3.9,4.2h-2.7l-3.2-3.4v3.4h-2.1V38.9z"/>
	<path class="st1" d="M72.8,43.3h2.1l1.4,5.2l1.6-5.2h1.7l1.7,5.2l1.4-5.2h2.1l-2.5,7.5h-1.9l-1.7-5l-1.6,5h-1.8L72.8,43.3z"/>
	<path class="st1" d="M89.9,51.1c-0.9,0-1.6-0.2-2.3-0.5c-0.7-0.3-1.2-0.8-1.5-1.4s-0.5-1.3-0.5-2.1c0-0.8,0.2-1.4,0.5-2.1
		c0.3-0.6,0.8-1.1,1.3-1.4c0.6-0.4,1.3-0.5,2-0.5c0.7,0,1.3,0.2,1.9,0.5c0.5,0.3,1,0.7,1.3,1.3c0.3,0.6,0.5,1.2,0.5,2
		c0,0.3,0,0.6-0.1,0.9h-5.3c0.3,1.1,1.1,1.7,2.6,1.7c0.5,0,0.9,0,1.3-0.1c0.4-0.1,0.8-0.2,1.2-0.4l0.2,1.6c-0.4,0.2-0.8,0.4-1.3,0.5
		C91.1,51.1,90.5,51.1,89.9,51.1z M91,46.3c0-0.5-0.2-0.9-0.5-1.2c-0.3-0.3-0.7-0.4-1.2-0.4c-0.5,0-0.9,0.1-1.2,0.4
		c-0.3,0.3-0.5,0.7-0.6,1.2H91z"/>
	<path class="st1" d="M98.1,51.1c-0.7,0-1.3-0.2-1.8-0.5c-0.5-0.3-0.9-0.8-1.3-1.4c-0.3-0.6-0.5-1.3-0.5-2.1c0-0.7,0.2-1.4,0.5-2
		c0.3-0.6,0.7-1.1,1.3-1.5c0.6-0.4,1.2-0.6,1.9-0.6c0.5,0,1,0.1,1.4,0.3c0.4,0.2,0.8,0.5,1,0.9l0-1h2v7.5h-2l0-1
		c-0.3,0.4-0.6,0.7-1,0.9C99.1,51,98.6,51.1,98.1,51.1z M98.6,49.3c0.6,0,1.1-0.2,1.4-0.6c0.4-0.4,0.6-0.9,0.6-1.6
		c0-0.6-0.2-1.2-0.6-1.6s-0.9-0.6-1.4-0.6c-0.6,0-1.1,0.2-1.4,0.6c-0.4,0.4-0.6,0.9-0.6,1.6c0,0.6,0.2,1.2,0.6,1.6
		C97.6,49.1,98.1,49.3,98.6,49.3z"/>
	<path class="st1" d="M104.8,43.3h2l0,1.2c0.2-0.4,0.5-0.8,0.8-1c0.3-0.2,0.8-0.4,1.2-0.4c0.3,0,0.6,0.1,0.9,0.2l-0.2,1.9
		c-0.3-0.1-0.6-0.2-0.9-0.2c-0.6,0-1,0.2-1.3,0.6c-0.3,0.4-0.5,1-0.5,1.7v3.4h-2.1V43.3z"/>
	<path class="st1" d="M118,51.1c-0.7,0-1.4-0.1-2.1-0.3c-0.7-0.2-1.3-0.4-1.7-0.7l0.2-1.9c0.5,0.3,1,0.5,1.7,0.7
		c0.6,0.2,1.2,0.3,1.8,0.3c0.7,0,1.2-0.1,1.6-0.4c0.4-0.3,0.6-0.6,0.6-1.1c0-0.4-0.2-0.7-0.5-0.9s-0.9-0.5-1.8-0.8
		c-1.2-0.4-2.1-0.8-2.6-1.4c-0.5-0.5-0.8-1.2-0.8-2.1c0-0.6,0.2-1.2,0.5-1.7c0.3-0.5,0.8-0.9,1.4-1.1c0.6-0.3,1.3-0.4,2.1-0.4
		c0.6,0,1.2,0.1,1.8,0.2c0.6,0.1,1.1,0.4,1.6,0.6l-0.3,1.9c-0.4-0.2-0.9-0.4-1.4-0.6s-1-0.2-1.5-0.2c-0.6,0-1.1,0.1-1.4,0.3
		c-0.3,0.2-0.5,0.6-0.5,1c0,0.3,0.1,0.5,0.2,0.7c0.1,0.2,0.3,0.3,0.6,0.5c0.3,0.1,0.7,0.3,1.2,0.5c1.3,0.4,2.3,0.9,2.9,1.5
		c0.6,0.5,0.8,1.3,0.8,2.1c0,1-0.4,1.9-1.1,2.5C120.4,50.8,119.3,51.1,118,51.1z"/>
	<path class="st1" d="M127.5,51.1c-0.9,0-1.6-0.2-2.1-0.7c-0.5-0.5-0.7-1.2-0.7-2.2V45h-1.5v-1.7h1.5v-2h2.1v2h2.4V45h-2.4v2.8
		c0,0.5,0.1,0.9,0.3,1.1c0.2,0.2,0.5,0.3,0.9,0.3c0.5,0,0.9-0.1,1.3-0.3l0.2,1.7c-0.2,0.1-0.5,0.2-0.9,0.3
		C128.2,51.1,127.9,51.1,127.5,51.1z"/>
	<path class="st1" d="M134.5,51.1c-0.7,0-1.4-0.2-2-0.5c-0.6-0.3-1.1-0.8-1.5-1.4c-0.4-0.6-0.5-1.3-0.5-2.1c0-0.7,0.2-1.4,0.5-2
		c0.3-0.6,0.8-1.1,1.4-1.5c0.6-0.4,1.3-0.5,2.1-0.5c0.7,0,1.4,0.2,2,0.5c0.6,0.3,1.1,0.8,1.5,1.4c0.4,0.6,0.5,1.3,0.5,2.1
		c0,0.7-0.2,1.4-0.5,2c-0.3,0.6-0.8,1.1-1.4,1.5C136,50.9,135.3,51.1,134.5,51.1z M134.5,49.3c0.6,0,1.1-0.2,1.4-0.6
		c0.4-0.4,0.6-0.9,0.6-1.6c0-0.6-0.2-1.2-0.6-1.6c-0.4-0.4-0.9-0.6-1.4-0.6c-0.6,0-1.1,0.2-1.4,0.6c-0.4,0.4-0.6,0.9-0.6,1.6
		c0,0.6,0.2,1.2,0.6,1.6C133.5,49.1,134,49.3,134.5,49.3z"/>
	<path class="st1" d="M140.4,43.3h2l0,1.2c0.2-0.4,0.5-0.8,0.8-1c0.4-0.2,0.8-0.4,1.2-0.4c0.3,0,0.6,0.1,0.9,0.2l-0.2,1.9
		c-0.3-0.1-0.6-0.2-0.9-0.2c-0.6,0-1,0.2-1.3,0.6c-0.3,0.4-0.5,1-0.5,1.7v3.4h-2.1V43.3z"/>
	<path class="st1" d="M150.5,51.1c-0.9,0-1.6-0.2-2.3-0.5c-0.7-0.3-1.2-0.8-1.5-1.4s-0.5-1.3-0.5-2.1c0-0.8,0.2-1.4,0.5-2.1
		c0.3-0.6,0.8-1.1,1.3-1.4c0.6-0.4,1.3-0.5,2-0.5c0.7,0,1.3,0.2,1.9,0.5c0.5,0.3,1,0.7,1.3,1.3c0.3,0.6,0.5,1.2,0.5,2
		c0,0.3,0,0.6-0.1,0.9h-5.3c0.3,1.1,1.1,1.7,2.6,1.7c0.5,0,0.9,0,1.3-0.1c0.4-0.1,0.8-0.2,1.2-0.4l0.2,1.6c-0.4,0.2-0.8,0.4-1.3,0.5
		C151.6,51.1,151.1,51.1,150.5,51.1z M151.6,46.3c0-0.5-0.2-0.9-0.5-1.2c-0.3-0.3-0.7-0.4-1.2-0.4c-0.5,0-0.9,0.1-1.2,0.4
		c-0.3,0.3-0.5,0.7-0.6,1.2H151.6z"/>
</g>
</svg>
