<?xml version="1.0" encoding="utf-8"?>
<!-- Generator: Adobe Illustrator 23.0.3, SVG Export Plug-In . SVG Version: 6.00 Build 0)  -->
<svg version="1.1" id="Layer_1" xmlns="http://www.w3.org/2000/svg" xmlns:xlink="http://www.w3.org/1999/xlink" x="0px" y="0px"
	 viewBox="0 0 146.2 146.2" style="enable-background:new 0 0 146.2 146.2;" xml:space="preserve">
<style type="text/css">
	.st0{fill:#DFF2F8;}
	.st1{fill:#FBBC9C;}
	.st2{fill:#4C9FD8;}
	.st3{fill:none;stroke:#2596D3;stroke-width:0.75;stroke-miterlimit:10;}
	.st4{fill:#030303;}
	.st5{fill:#A59AA5;}
	.st6{fill:#F6BF2C;}
	.st7{fill:none;stroke:#E8B029;stroke-width:0.75;stroke-miterlimit:10;}
	.st8{fill:#221C30;}
	.st9{fill:#EFAA87;}
</style>
<ellipse class="st0" cx="73.1" cy="139.8" rx="42.6" ry="6.4"/>
<g>
	<g>
		<g>
			<path class="st1" d="M100.5,51.8c-0.1-0.3,2.1-3.9,2.1-3.9l-5.9-12.2c-0.8-2.4-6-10.9-8-9.4c-1.6,1.1,0.6,10,1.3,11.7l6,10.9
				L100.5,51.8z"/>
			<g>
				<path class="st2" d="M86.6,23.8c0,0,5.2,0.4,7.2,3.6c2.6,4,7,10.5,7,10.5l-13.3,5L86.6,23.8z"/>
				<line class="st3" x1="89.3" y1="42.1" x2="84.4" y2="33.6"/>
			</g>
		</g>
		<g>
			<g>
				<path class="st1" d="M97.8,46.8l-15.5,9.3l2.3,3.4l15.7-6.8c2.5-1.1,3.2-4.2,1.4-6.2l0,0C100.4,45.1,99.4,45.9,97.8,46.8z"/>
			</g>
			<g>
				<path class="st1" d="M85,59c0,0-2,4.7-5.6,4.2c-4.3-0.5-4.6-4-2.7-4.6l2.9,0.2c0,0,0.1-1.9,1.8-2.7c0.4-0.2,0.9-0.3,1.6-0.3
					L85,59z"/>
				<path class="st1" d="M82,55.9l-4,0.7c-0.2,0.1-0.4,0.2-0.4,0.6l0,0c0,0.3,0.2,0.6,0.5,0.6l3.9,0.3V55.9z"/>
			</g>
		</g>
	</g>
	<g>
		<g>
			<g>
				<g>
					<polygon class="st1" points="64.4,134.3 65.1,121.5 71.9,122.4 70.6,135.8 64.1,134.6 					"/>
					<g>
						<path class="st4" d="M71.6,132.6c0,0-4.6,2.4-7.2-1.2L52,138.1l21.3-0.2L71.6,132.6z"/>
						
							<rect x="52" y="138" transform="matrix(1 -6.328788e-03 6.328788e-03 1 -0.8781 0.3993)" class="st5" width="21.3" height="1.9"/>
					</g>
				</g>
				<path class="st6" d="M71.8,48.7c0,0-6.1,3.7-6.9,24c-0.7,20.3-2,54.4-2,54.4h10.4l5.3-66.2l-1.4-12.2H71.8L71.8,48.7z"/>
			</g>
			<g>
				<g>
					<polygon class="st1" points="82.3,134.3 81.7,121.5 88.5,122.4 88.5,135.8 82,134.6 					"/>
					<g>
						<path class="st4" d="M89.5,132.6c0,0-4.6,2.4-7.2-1.2l-12.4,6.7l21.3-0.2L89.5,132.6z"/>
						
							<rect x="69.9" y="138" transform="matrix(1 -6.328788e-03 6.328788e-03 1 -0.8778 0.5126)" class="st5" width="21.3" height="1.9"/>
					</g>
				</g>
				<g>
					<path class="st6" d="M85.9,51.3c0,0,6.2,7.2,5.3,19.8l-0.3,56.1l-11.8-0.3l-3.7-76.3L85.9,51.3z"/>
					<polyline class="st7" points="76.8,83.7 76.2,67.5 71.7,61.3 					"/>
				</g>
			</g>
		</g>
		<g>
			<g>
				<g>
					<g>
						<path class="st1" d="M40.4,19l4.3,17.8c0.6,2.3,3.2,3.4,5.3,2.3l1.4-1.5l-7.1-20.4L40.4,19z"/>
						<g>
							<path class="st1" d="M43.5,18.9c-1.7,1.5-4.3,1.2-5.7-0.6c-1.5-1.7-1.2-4.3,0.6-5.7c1.7-1.5,4.3-1.2,5.7,0.6
								C45.5,14.8,45.2,17.4,43.5,18.9z"/>
						</g>
					</g>
					<path class="st1" d="M48.5,33.7l17.1-6.3l-0.8,7.1c0,0-9.2,4-15,4.9C44,40.3,48.5,33.7,48.5,33.7z"/>
				</g>
				<path class="st2" d="M70,26.1c0,0-1.6-2.4-5.6-0.7c-4.1,1.7-11.5,4.1-11.5,4.1l6.4,11l12.2-4.6L70,26.1z"/>
			</g>
			<g>
				<path class="st2" d="M86.3,23.6l-9-0.8L66,24.9c0,0-0.7,16.3,1.2,24.6c0.3,1.5,1.7,2.5,3.2,2.4l16.2,0.2c0,0,2.2-1.6,2.3-5
					l-1.2-22.2C87.5,24.3,87,23.7,86.3,23.6z"/>
				<line class="st3" x1="65.5" y1="37.8" x2="64.9" y2="31.6"/>
			</g>
		</g>
		<g>
			<path class="st8" d="M85.5,6.7c0,0-0.7,15.7,4.3,15.3c0,0-4.1,3.1-11-0.2l-4.5-11.1L85.5,6.7z"/>
			<path class="st9" d="M71.6,11.7c0.1,1.3-0.9,2.6-2.2,2.7c-1.3,0.1-2.6-0.9-2.7-2.2c-0.1-1.3,0.9-2.6,2.2-2.7
				C70.3,9.3,71.4,10.4,71.6,11.7z"/>
			<g>
				<path class="st1" d="M83.6,12c0.1,1.3-0.9,2.6-2.2,2.7c-1.3,0.1-2.6-0.9-2.7-2.2c-0.1-1.3,0.9-2.6,2.2-2.7
					C82.3,9.6,83.6,10.6,83.6,12z"/>
			</g>
			<path class="st1" d="M81.7,23.2l-5.1-0.5L70,24.2c0,0,0,4.8,5.4,4.5C80.9,28.3,81.7,23.2,81.7,23.2z"/>
			<path class="st1" d="M72.4,18.7l0.4,5.4c0.2,1.9,1.4,2.8,3.2,2.7l0,0c1.6-0.2,3-1.1,3.1-2.7L78,15.6L72.4,18.7z"/>
			<polygon class="st9" points="72.7,22.6 78.9,16.9 72.3,18.1 			"/>
			<path class="st8" d="M70.2,1.5c0,0,10.9-4.6,14.6,2.5c2.2,4.2-0.4,11.7-5.7,13.8c-1.7,0.7-3.7-14.5-3.7-14.5L70.2,1.5z"/>
			<path class="st1" d="M74,19.5L74,19.5c-3.2,0.1-5.9-2.4-6-5.1l-0.2-6.1c-0.2-3.2,2.3-6.1,5.6-6.4l0,0c3.3-0.2,6.9,2.2,7.1,5.5
				l0.2,5C80.7,16.3,77.8,19.2,74,19.5z"/>
			<path class="st8" d="M80.6,12.2c0,0-0.4-2.5-2.2-3.6c-1.8-1.1-7-2.7-6.5-6.6c0,0,7.9-2.3,10.8,2.8C85.6,9.9,80.6,12.2,80.6,12.2z
				"/>
			<path class="st8" d="M73.2,1.9c0,0-0.6,3.2-5.6,5.4c0,0-1.2-2.3,2.1-5.5c0.3-0.2,0.7-0.4,1.2-0.4h3.9L73.2,1.9z"/>
		</g>
	</g>
</g>
</svg>
