<?xml version="1.0" encoding="utf-8"?>
<!-- Generator: Adobe Illustrator 24.2.1, SVG Export Plug-In . SVG Version: 6.00 Build 0)  -->
<svg version="1.1" id="Layer_1" xmlns="http://www.w3.org/2000/svg" xmlns:xlink="http://www.w3.org/1999/xlink" x="0px" y="0px"
	 viewBox="0 0 322.5 192.2" style="enable-background:new 0 0 322.5 192.2;" xml:space="preserve">
<style type="text/css">
	.st0{fill:#46B6E8;}
	.st1{fill:#FFFFFF;}
</style>
<g>
	<g>
		<path class="st0" d="M282,73.7l40.5-23.4c-16.3-29.8-47.9-50-84.2-50c-21.3,0-40.8,6.9-56.7,18.7c11.5,12.2,20,26.1,24.7,40
			c8.6-7.4,19.7-11.9,32-11.9C257.3,46.9,273.8,57.8,282,73.7z"/>
		<path class="st0" d="M282,118.4c-8.1,15.9-24.5,26.7-43.7,26.7c-10.3,0-19.8-3.3-27.8-8.6c0,5.4,0,51.3,0,51.3
			c8.8,2.7,18.1,4.1,27.8,4.1c36.3,0,67.9-20.3,84.2-50L282,118.4z"/>
	</g>
	<path class="st1" d="M190.5,81.8C189.7,48.9,149,0,95.8,0C47.2-0.1,0,40.8,0,95.7c0,52.9,43,95.8,95.8,95.8c9.4,0,18.3-1.4,26.8-4
		v-50.9c-7.7,5.1-16.9,8.1-26.8,8.1c-27.1,0-49.1-22-49.1-49.1c0-28.9,25.5-48.9,49.1-49.1c22.8-0.1,45.9,18.4,46.9,35.2
		c0,0.7,0,1.4,0,2c0,22.8,0,45.8,0,68.6l0,0c0.1,22,21.4,39.8,47.6,39.8c0,0-0.1-77.4,0-107.7C190.5,83.1,190.5,82.5,190.5,81.8z"/>
</g>
</svg>
