<?xml version="1.0" encoding="utf-8"?>
<!-- Generator: Adobe Illustrator 23.0.3, SVG Export Plug-In . SVG Version: 6.00 Build 0)  -->
<svg version="1.1" id="Layer_1" xmlns="http://www.w3.org/2000/svg" xmlns:xlink="http://www.w3.org/1999/xlink" x="0px" y="0px"
	 viewBox="0 0 356.8 216" style="enable-background:new 0 0 356.8 216;" xml:space="preserve">
<style type="text/css">
	.st0{fill:none;stroke:#CCCCCB;stroke-linecap:round;stroke-miterlimit:10;stroke-dasharray:6.0267,6.0267;}
	.st1{fill:#EFAA86;}
	.st2{fill:#030303;}
	.st3{fill:#C3B8C2;}
	.st4{fill:#2D3E48;}
	.st5{fill:#FBBC9C;}
	.st6{fill:#A59AA5;}
	.st7{fill:#F6BF2C;}
	.st8{fill:none;stroke:#E8B029;stroke-width:0.75;stroke-miterlimit:10;}
	.st9{fill:#4C9FD8;}
	.st10{fill:none;stroke:#2596D3;stroke-width:0.75;stroke-miterlimit:10;}
	.st11{fill:#48C5E1;}
	.st12{fill:#221C30;}
	.st13{fill:#EFAA87;}
	.st14{fill:#486372;}
	.st15{fill:#FFFFFF;}
	.st16{opacity:0.4;fill:#FFFFFF;enable-background:new    ;}
	.st17{fill:#222222;}
	.st18{fill:#DFF2F8;}
	.st19{fill:#3F66B0;}
	.st20{fill:none;stroke:#1B5FA9;stroke-width:0.75;stroke-miterlimit:10;}
	.st21{fill:#F8AC9E;}
	.st22{fill:#F7A1A2;}
	.st23{fill:none;stroke:#EF9191;stroke-width:0.75;stroke-miterlimit:10;}
	.st24{fill:none;stroke:#EFAA87;stroke-width:0.4825;stroke-miterlimit:10;}
	.st25{fill:#111213;}
	.st26{fill:#3F535A;}
	.st27{fill:#181E21;}
	.st28{fill:#E49E7D;}
	.st29{fill:#EFF9FC;}
	.st30{fill:#E93959;}
	.st31{fill:#2D2C47;}
	.st32{fill:#323F5F;}
	.st33{fill:#4C5B7B;}
	.st34{fill:#BE232F;}
	.st35{fill:#FBB78F;}
	.st36{fill:#FBC09E;}
	.st37{fill:#A97E52;}
	.st38{fill:#A31D2D;}
	.st39{fill:#096A38;}
	.st40{fill:#817369;}
	.st41{fill:#603C19;}
	.st42{fill:#07522B;}
	.st43{fill:#333958;}
	.st44{fill:#B7DFEC;}
	.st45{fill:#E93B5A;}
	.st46{fill:#20B574;}
</style>
<g>
	<circle class="st0" cx="176.7" cy="101" r="82.5"/>
</g>
<g>
	<g>
		<path class="st1" d="M39.1,190.5l0.6,2.3c0,0-2.3,1.2-3.2,0.6L36,191L39.1,190.5z"/>
	</g>
</g>
<g>
	<g>
		<g>
			<path class="st2" d="M39.7,192.7l5.6,2.5c0.4,0.2,0.6,0.6,0.5,1l0,0h-9.9l0.4-3.6L39.7,192.7z"/>
			<rect x="35.7" y="196.3" class="st3" width="10.2" height="1.1"/>
		</g>
	</g>
</g>
<g>
	<path class="st4" d="M320.9,197.1c-0.3,0-0.6-0.2-0.8-0.6l-22.2-61l-22.2,61c-0.2,0.4-0.6,0.6-1.1,0.5c-0.4-0.2-0.6-0.6-0.5-1.1
		l23-63.1c0.1-0.3,0.4-0.6,0.8-0.6s0.6,0.2,0.8,0.6l23,63.1c0.2,0.4-0.1,0.9-0.5,1.1C321.1,197,321,197.1,320.9,197.1z"/>
	<path class="st4" d="M300.6,141.2h-12.1c-0.5,0-0.8-0.4-0.8-0.8c0-0.5,0.4-0.8,0.8-0.8h12.1c0.5,0,0.8,0.4,0.8,0.8
		S301,141.2,300.6,141.2z"/>
	<path class="st4" d="M303.7,150.1h-11.5c-0.5,0-0.8-0.4-0.8-0.8c0-0.5,0.4-0.8,0.8-0.8h11.5c0.5,0,0.8,0.4,0.8,0.8
		C304.5,149.7,304.1,150.1,303.7,150.1z"/>
	<path class="st4" d="M290.9,150.1h-11c-0.4,0-0.8-0.4-0.8-0.8c0-0.5,0.3-0.8,0.8-0.8h11c0.4,0,0.8,0.4,0.8,0.8
		C291.7,149.7,291.3,150.1,290.9,150.1z"/>
	<path class="st4" d="M306.8,159h-11.5c-0.5,0-0.8-0.4-0.8-0.8c0-0.5,0.4-0.8,0.8-0.8h11.5c0.5,0,0.8,0.4,0.8,0.8
		C307.6,158.6,307.2,159,306.8,159z"/>
	<path class="st4" d="M288.5,159H277c-0.5,0-0.8-0.4-0.8-0.8c0-0.5,0.4-0.8,0.8-0.8h11.5c0.5,0,0.8,0.4,0.8,0.8S288.9,159,288.5,159
		z"/>
	<path class="st4" d="M309.9,167.9h-11.5c-0.5,0-0.8-0.4-0.8-0.8c0-0.4,0.4-0.8,0.8-0.8h11.5c0.5,0,0.8,0.4,0.8,0.8
		C310.7,167.5,310.4,167.9,309.9,167.9z"/>
	<path class="st4" d="M285.1,167.9h-11.5c-0.5,0-0.8-0.4-0.8-0.8c0-0.4,0.4-0.8,0.8-0.8h11.5c0.5,0,0.8,0.4,0.8,0.8
		S285.5,167.9,285.1,167.9z"/>
	<path class="st4" d="M313.1,176.8h-11.5c-0.5,0-0.8-0.4-0.8-0.8c0-0.5,0.4-0.8,0.8-0.8h11.5c0.5,0,0.8,0.4,0.8,0.8
		C313.9,176.5,313.5,176.8,313.1,176.8z"/>
	<path class="st4" d="M282,176.8h-11.5c-0.5,0-0.8-0.4-0.8-0.8c0-0.5,0.4-0.8,0.8-0.8H282c0.5,0,0.8,0.4,0.8,0.8
		C282.8,176.5,282.4,176.8,282,176.8z"/>
	<path class="st4" d="M316.2,185.7h-11.5c-0.5,0-0.8-0.4-0.8-0.8c0-0.5,0.4-0.8,0.8-0.8h11.5c0.5,0,0.8,0.4,0.8,0.8
		S316.6,185.7,316.2,185.7z"/>
	<path class="st4" d="M278.8,185.7h-11.5c-0.5,0-0.8-0.4-0.8-0.8c0-0.5,0.4-0.8,0.8-0.8h11.5c0.5,0,0.8,0.4,0.8,0.8
		C279.6,185.3,279.2,185.7,278.8,185.7z"/>
	<path class="st4" d="M297.9,133.9h-12.1c-0.5,0-0.8-0.4-0.8-0.8c0-0.5,0.4-0.8,0.8-0.8h12.1c0.5,0,0.8,0.4,0.8,0.8
		C298.7,133.6,298.3,133.9,297.9,133.9z"/>
</g>
<g>
	<g>
		<g>
			<g>
				<g>
					<polygon class="st5" points="301.5,172.3 301.9,165.7 305.4,166.1 304.7,173 301.3,172.4 					"/>
					<g>
						<path class="st2" d="M305.2,171.4c0,0-2.4,1.2-3.7-0.6l-6.4,3.4l10.9-0.1L305.2,171.4z"/>
						
							<rect x="295.1" y="174.2" transform="matrix(1 -6.328788e-03 6.328788e-03 1 -1.0996 1.9057)" class="st6" width="10.9" height="1"/>
					</g>
				</g>
				<path class="st7" d="M305.3,128.4c0,0-3.1,1.9-3.5,12.3c-0.4,10.4-1,27.9-1,27.9h5.3l2.7-33.9l-0.7-6.2L305.3,128.4L305.3,128.4
					z"/>
			</g>
			<g>
				<g>
					<polygon class="st5" points="310.7,172.3 310.4,165.7 313.8,166.1 313.9,173 310.5,172.4 					"/>
					<g>
						<path class="st2" d="M314.4,171.4c0,0-2.4,1.2-3.7-0.6l-6.4,3.4l10.9-0.1L314.4,171.4z"/>
						
							<rect x="304.3" y="174.2" transform="matrix(1 -6.328788e-03 6.328788e-03 1 -1.0995 1.9639)" class="st6" width="10.9" height="1"/>
					</g>
				</g>
				<g>
					<path class="st7" d="M312.5,129.8c0,0,3.2,3.7,2.7,10.2l-0.2,28.7l-6-0.2l-1.9-39L312.5,129.8z"/>
					<polyline class="st8" points="307.9,146.3 307.5,138.1 305.3,134.9 					"/>
				</g>
			</g>
		</g>
		<g>
			<g>
				<g>
					<g>
						<path class="st5" d="M285.5,116.7l6.8,6.5c0.9,0.8,2.3,0.6,2.9-0.5l0.6-1.2l-9.2-6.7L285.5,116.7z"/>
						<g>
							<path class="st5" d="M286.9,115.8c-0.3,1.1-1.5,1.7-2.6,1.3c-1.1-0.3-1.7-1.5-1.3-2.6c0.3-1.1,1.5-1.7,2.6-1.3
								C286.6,113.6,287.2,114.7,286.9,115.8z"/>
							<path class="st5" d="M285.4,113.2l-1.9-1.2c-0.2-0.1-0.4-0.1-0.5,0.1l0,0c-0.1,0.1-0.1,0.3,0,0.4l1.8,1.6L285.4,113.2z"/>
						</g>
					</g>
					<path class="st5" d="M293.4,120.3l8.8-3.2l-0.4,4.1c0,0-4.7,2-7.7,2.5C291.1,124.1,293.4,120.3,293.4,120.3z"/>
				</g>
				<path class="st9" d="M304.4,116.9c0,0-0.8-1.2-2.9-0.4s-5.9,2.1-5.9,2.1l3.3,5.6l6.2-2.3L304.4,116.9z"/>
			</g>
			<g>
				<path class="st9" d="M312.7,115.6l-4.6-0.4l-5.8,1.1c0,0-0.4,8.3,0.6,12.6c0.2,0.8,0.8,1.3,1.6,1.2l8.3,0.1c0,0,1.1-0.8,1.2-2.5
					l-0.6-11.3C313.4,115.9,313.1,115.6,312.7,115.6z"/>
				<line class="st10" x1="302.1" y1="122.9" x2="301.8" y2="119.7"/>
			</g>
			<path class="st11" d="M326.9,135.4l-26.9-2.8c-0.6,0-1.1-0.6-1-1.2l0.3-3.2c0-0.6,0.6-1.1,1.2-1l26.9,2.8c0.6,0,1.1,0.6,1,1.2
				l-0.3,3.2C328,135,327.5,135.5,326.9,135.4z"/>
			<g>
				<g>
					<path class="st5" d="M319.4,129.9c0-0.2,1.1-2,1.1-2l-3-6.2c-0.4-1.2-3.1-5.6-4.1-4.8c-0.8,0.6-0.3,5.4,0.1,6.3l3.2,6.1
						L319.4,129.9z"/>
					<g>
						<path class="st9" d="M312.3,115.5c0,0,2.7,0.2,3.7,1.8c1.3,2,3.6,5.4,3.6,5.4l-6.8,2.5L312.3,115.5z"/>
						<line class="st10" x1="313.7" y1="124.9" x2="311.2" y2="120.6"/>
					</g>
				</g>
				<g>
					<g>
						<path class="st5" d="M317.5,126.8l-7.4,5.4l1.2,1.7l8-3.5c1.3-0.6,1.6-2.2,0.7-3.2l0,0C319.4,126.5,318.3,126.3,317.5,126.8z"
							/>
					</g>
					<g>
						<path class="st5" d="M311.5,133.6c0,0-1,2.4-2.9,2.2c-2.2-0.3-2.4-2-1.4-2.4l1.5,0.1c0,0,0-1,0.9-1.4c0.2-0.1,0.5-0.2,0.8-0.2
							L311.5,133.6z"/>
						<path class="st5" d="M309.9,132l-2,0.4c-0.1,0-0.2,0.1-0.2,0.3l0,0c0,0.2,0.1,0.3,0.3,0.3l2,0.2L309.9,132L309.9,132z"/>
					</g>
				</g>
			</g>
		</g>
		<g>
			<path class="st12" d="M312.3,106.9c0,0-0.3,8,2.2,7.8c0,0-2.1,1.6-5.6-0.1l-2.3-5.7L312.3,106.9z"/>
			<path class="st13" d="M305.2,109.5c0,0.7-0.5,1.3-1.1,1.4s-1.3-0.5-1.4-1.1c0-0.7,0.5-1.3,1.1-1.4
				C304.5,108.3,305.1,108.8,305.2,109.5z"/>
			<g>
				<path class="st5" d="M311.4,109.6c0,0.7-0.5,1.3-1.1,1.4c-0.7,0-1.3-0.5-1.4-1.1c0-0.7,0.5-1.3,1.1-1.4
					C310.7,108.4,311.3,108.9,311.4,109.6z"/>
			</g>
			<path class="st5" d="M310.4,115.4l-2.6-0.3l-3.4,0.8c0,0,0,2.5,2.8,2.3C310,118,310.4,115.4,310.4,115.4z"/>
			<path class="st5" d="M305.6,113.1l0.2,2.8c0.1,1,0.7,1.4,1.7,1.4l0,0c0.8-0.1,1.5-0.6,1.6-1.4l-0.6-4.3L305.6,113.1z"/>
			<polygon class="st13" points="305.8,115.1 308.9,112.2 305.6,112.8 			"/>
			<path class="st12" d="M304.5,104.3c0,0,5.6-2.4,7.5,1.3c1.1,2.2-0.2,6-2.9,7.1c-0.9,0.3-1.9-7.4-1.9-7.4L304.5,104.3z"/>
			<path class="st5" d="M306.4,113.5L306.4,113.5c-1.6,0-3-1.2-3.1-2.6l-0.1-3.1c-0.1-1.7,1.2-3.1,2.8-3.3l0,0
				c1.7-0.1,3.5,1.1,3.7,2.8l0.1,2.5C309.9,111.9,308.4,113.3,306.4,113.5z"/>
			<path class="st12" d="M309.8,109.7c0,0-0.2-1.3-1.1-1.8c-0.9-0.6-3.6-1.4-3.3-3.4c0,0,4-1.2,5.5,1.4
				C312.3,108.6,309.8,109.7,309.8,109.7z"/>
			<path class="st12" d="M306,104.5c0,0-0.3,1.7-2.8,2.8c0,0-0.6-1.2,1.1-2.8c0.2-0.1,0.4-0.2,0.6-0.2h2L306,104.5z"/>
		</g>
	</g>
	<path class="st14" d="M308.7,197.1c-0.3,0-0.6-0.2-0.8-0.6l-22.2-61l-22.2,61c-0.2,0.4-0.6,0.6-1.1,0.5c-0.4-0.2-0.6-0.6-0.5-1.1
		l23-63.1c0.1-0.3,0.4-0.6,0.8-0.6c0.3,0,0.6,0.2,0.8,0.6l23,63.1c0.2,0.4-0.1,0.9-0.5,1.1C308.9,197,308.7,197.1,308.7,197.1z"/>
</g>
<g>
	<path class="st15" d="M203.1,212.2h-57.9c-2.4,0-4.3-1.9-4.3-4.3V71.7c0-2.4,1.9-4.3,4.3-4.3h57.9c2.4,0,4.3,1.9,4.3,4.3v136.2
		C207.4,210.3,205.5,212.2,203.1,212.2z"/>
	<g>
		<path class="st4" d="M211.2,98.2h-0.1V75.6c0-6.5-5.3-11.8-11.8-11.8h-50.2c-6.5,0-11.8,5.3-11.8,11.8v7.3h-0.2
			c-0.4,0-0.7,0.3-0.7,0.7v3.5c0,0.4,0.3,0.7,0.7,0.7h0.2v6.8h-0.2c-0.4,0-0.7,0.3-0.7,0.7v8.2c0,0.4,0.3,0.7,0.7,0.7h0.2v1.8h-0.2
			c-0.4,0-0.7,0.3-0.7,0.7v8.2c0,0.4,0.3,0.7,0.7,0.7h0.2v88.8c0,6.5,5.3,11.8,11.8,11.8h50.2c6.5,0,11.8-5.3,11.8-11.8v-89h0.1
			c0.3,0,0.6-0.3,0.6-0.6v-16C211.8,98.5,211.5,98.2,211.2,98.2z M207.1,204c0,3.9-3.1,7.1-7.1,7.1h-51.7c-3.9,0-7.1-3.1-7.1-7.1
			V75.8c0-3.9,3.1-7.1,7.1-7.1h7.5c0.3,2.8,2.5,4.9,5.4,4.9h25.9c2.8,0,5.1-2.2,5.4-4.9h7.5c3.9,0,7.1,3.1,7.1,7.1L207.1,204
			L207.1,204z"/>
		<path class="st16" d="M178.1,70.4h-8.5c-0.1,0-0.2-0.1-0.2-0.2v-0.6c0-0.1,0.1-0.2,0.2-0.2h8.5c0.1,0,0.2,0.1,0.2,0.2v0.6
			C178.3,70.3,178.2,70.4,178.1,70.4z"/>
		<circle class="st16" cx="182" cy="69.8" r="1"/>
	</g>
</g>
<g>
	<g>
		<g>
			<rect x="194.8" y="70.5" class="st17" width="0.5" height="1.9"/>
		</g>
		<g>
			<rect x="194.1" y="70.9" class="st17" width="0.5" height="1.5"/>
		</g>
		<g>
			<rect x="193.3" y="71.4" class="st17" width="0.5" height="1"/>
		</g>
		<g>
			<rect x="192.5" y="71.8" class="st17" width="0.5" height="0.6"/>
		</g>
	</g>
	<g>
		<path class="st17" d="M197.7,72.1c0,0.2-0.1,0.3-0.3,0.3s-0.3-0.1-0.3-0.3s0.1-0.3,0.3-0.3C197.6,71.8,197.7,71.9,197.7,72.1z"/>
		<g>
			<g>
				<path class="st17" d="M198,71.7C198,71.7,197.9,71.7,198,71.7c-0.3-0.3-0.8-0.3-1,0c0,0-0.1,0-0.2,0c0,0,0-0.1,0-0.2
					c0.3-0.4,1-0.4,1.3,0c0,0,0,0.1,0,0.2H198z"/>
			</g>
			<g>
				<path class="st17" d="M198.2,71.2L198.2,71.2c-0.5-0.4-1.1-0.4-1.5,0c0,0-0.1,0-0.2,0c0,0,0-0.1,0-0.2c0.5-0.4,1.3-0.4,1.8,0
					c0,0,0,0.1,0,0.2C198.3,71.2,198.3,71.2,198.2,71.2z"/>
			</g>
			<g>
				<path class="st17" d="M198.5,70.8L198.5,70.8c-0.6-0.5-1.5-0.5-2.1,0c0,0-0.1,0-0.2,0c0,0,0-0.1,0-0.2c0.7-0.5,1.7-0.5,2.3,0
					C198.5,70.6,198.6,70.7,198.5,70.8C198.6,70.8,198.6,70.8,198.5,70.8z"/>
			</g>
		</g>
	</g>
	<g>
		<path class="st17" d="M148.4,71.1L148.4,71.1l-0.3,0.1v-0.3l0.4-0.2h0.3v1.4h-0.3L148.4,71.1L148.4,71.1z"/>
		<path class="st17" d="M150.2,71.4c0,0.4-0.2,0.7-0.5,0.7s-0.5-0.3-0.5-0.7s0.2-0.7,0.5-0.7C150.1,70.7,150.2,71.1,150.2,71.4z
			 M149.5,71.4c0,0.3,0.1,0.5,0.2,0.5s0.2-0.2,0.2-0.5s-0.1-0.5-0.2-0.5S149.5,71.1,149.5,71.4z"/>
		<path class="st17" d="M150.4,71.3c0-0.1,0.1-0.2,0.2-0.2s0.2,0.1,0.2,0.2s-0.1,0.2-0.2,0.2S150.4,71.4,150.4,71.3z M150.4,72
			c0-0.1,0.1-0.2,0.2-0.2s0.2,0.1,0.2,0.2s-0.1,0.2-0.2,0.2S150.4,72.1,150.4,72z"/>
		<path class="st17" d="M151.4,71.1L151.4,71.1l-0.3,0.1v-0.3l0.4-0.2h0.3v1.4h-0.3L151.4,71.1L151.4,71.1z"/>
		<path class="st17" d="M152.1,72.2V72l0.2-0.2c0.3-0.3,0.5-0.4,0.5-0.6c0-0.1-0.1-0.2-0.2-0.2c-0.1,0-0.2,0-0.3,0.1l-0.1-0.2
			c0.1-0.1,0.3-0.1,0.5-0.1c0.3,0,0.5,0.2,0.5,0.4c0,0.2-0.2,0.4-0.4,0.6l-0.1,0.1l0,0h0.5v0.3L152.1,72.2L152.1,72.2z"/>
	</g>
	<g>
		<g>
			<g>
				<path class="st17" d="M202.7,72.3h-2.5c-0.3,0-0.5-0.2-0.5-0.5v-0.7c0-0.3,0.2-0.5,0.5-0.5h2.5c0.3,0,0.5,0.2,0.5,0.5v0.7
					C203.2,72.1,203,72.3,202.7,72.3z M200.2,70.7c-0.2,0-0.4,0.2-0.4,0.4v0.7c0,0.2,0.2,0.4,0.4,0.4h2.5c0.2,0,0.4-0.2,0.4-0.4
					v-0.7c0-0.2-0.2-0.4-0.4-0.4H200.2z"/>
			</g>
		</g>
		<g>
			<path class="st17" d="M202.3,72.1c0.2,0,0.3-0.1,0.3-0.3v-0.6c0-0.2-0.1-0.3-0.3-0.3h-1.9c-0.2,0-0.3,0.1-0.3,0.3v0.6
				c0,0.2,0.1,0.3,0.3,0.3H202.3z"/>
		</g>
		<g>
			<path class="st17" d="M203.5,71.9h-0.4V71h0.4V71.9z M203.2,71.7h0.2v-0.6h-0.2V71.7z"/>
		</g>
	</g>
</g>
<path class="st18" d="M201.5,160.1h-54.7c-0.5,0-0.8-0.4-0.8-0.8v-42.4c0-0.4,0.4-0.8,0.8-0.8h54.7c0.5,0,0.8,0.4,0.8,0.8v42.4
	C202.3,159.7,202,160.1,201.5,160.1z"/>
<path class="st11" d="M201.5,111.3h-54.7c-0.5,0-0.8-0.5-0.8-1.1v-14c0-0.6,0.4-1.1,0.8-1.1h54.7c0.5,0,0.8,0.5,0.8,1.1v14
	C202.3,110.9,202,111.3,201.5,111.3z"/>
<g>
	<g>
		<path class="st1" d="M34.5,191.5l0.3,1.3c0,0-2.4,0.5-3.3,0.2l-0.2-1.3L34.5,191.5z"/>
	</g>
</g>
<g>
	<g>
		<g>
			<path class="st2" d="M34.8,192.7l5.6,2.5c0.4,0.2,0.6,0.6,0.5,1l0,0H31l0.4-3.6L34.8,192.7z"/>
			<rect x="30.9" y="196.3" class="st3" width="10.2" height="1.1"/>
		</g>
	</g>
</g>
<g>
	<g>
		<g>
			<polygon class="st5" points="338.1,185.5 338.6,192.5 341.8,192.4 341.7,185.2 			"/>
			<g>
				<g>
					<path class="st2" d="M338.3,191.7l-5.9,2.7c-0.4,0.2-0.6,0.6-0.5,1.1l0,0h10.4l-0.4-3.8H338.3z"/>
					<rect x="331.8" y="195.5" class="st3" width="10.7" height="1.1"/>
				</g>
			</g>
		</g>
		<g>
			<polygon class="st5" points="348.7,185.5 349.1,192.5 352.4,192.4 352.3,185.2 			"/>
			<g>
				<g>
					<path class="st2" d="M348.9,191.7l-5.9,2.7c-0.4,0.2-0.6,0.6-0.5,1.1l0,0H353l-0.4-3.8H348.9z"/>
					<rect x="342.4" y="195.5" class="st3" width="10.7" height="1.1"/>
				</g>
			</g>
		</g>
		<g>
			<polygon class="st19" points="340,152.3 352.4,153.3 354.1,188.3 347.3,188.3 345.1,161.9 342.1,173.2 343.1,188.7 337.3,188.7 
				335.3,171.5 			"/>
			<line class="st20" x1="342.2" y1="160.4" x2="345.1" y2="161.9"/>
		</g>
	</g>
	<g>
		<g>
			<polygon class="st21" points="340.1,141.6 340.2,145.1 338.3,145.1 338.4,141.4 			"/>
			<path class="st22" d="M340,135.8c0,0-3.1,1.9-2.7,7.7l2.9-0.6L340,135.8z"/>
		</g>
		<g>
			<path class="st22" d="M346.3,133.9c3.1,0,6.7,1.1,6.7,1.1l-0.1,20l-13.3-1l0.1-17.5c0-0.3,0.2-0.6,0.4-0.7l3.7-1.6
				C343.9,134.2,345.6,133.9,346.3,133.9z"/>
			<line class="st23" x1="339.7" y1="143" x2="339.7" y2="139.2"/>
		</g>
		<g>
			<g>
				<path class="st5" d="M351.4,141.7l0.8,9.9c0,0,0.9,2,2.6-0.1s0.3-10.2,0.3-10.2L351.4,141.7z"/>
				<g>
					<path class="st22" d="M351,143.8c0,0-1.1-8.4,1.2-8.8c2.4-0.4,4.6,5.2,4.6,9.9L351,143.8z"/>
					<polyline class="st23" points="351.6,143.8 350.7,143.5 350.6,139.6 					"/>
				</g>
			</g>
			<g>
				<g>
					<path class="st5" d="M345.8,142.3c0,0-0.5-1.7-2.2-1.9s-2.3,1.2-1.9,2.1s1.4,2.4,3.2,1.6C346.5,143.4,345.8,142.3,345.8,142.3z
						"/>
					<path class="st5" d="M343,140.4c0,0-1.7,0.2-3,0.8c-0.1,0-0.2,0.2-0.2,0.3l0,0c0,0.2,0.2,0.3,0.4,0.3l2.4-0.4L343,140.4z"/>
				</g>
				<g>
					<polygon class="st5" points="352.7,152.1 344.8,144.1 345.8,142.3 353.4,147.2 					"/>
					<line class="st24" x1="351.8" y1="146.2" x2="353.4" y2="147.2"/>
				</g>
			</g>
		</g>
		<g>
			<g>
				<path class="st25" d="M335,144.3l3.3,9.8c0.1,0.3,0.5,0.6,0.8,0.5l8-1.1c0.5,0,0.8-0.6,0.6-1l-3.4-9.8c-0.1-0.3-0.5-0.6-0.8-0.5
					l-7.9,1.1C335.2,143.4,334.9,143.9,335,144.3z"/>
				<polygon class="st25" points="335.2,143.6 334.8,144.1 347.3,153.8 347.7,153.2 				"/>
				<path class="st26" d="M334.6,144.8l3.3,9.8c0.1,0.3,0.5,0.6,0.8,0.5l8-1.1c0.5,0,0.8-0.6,0.6-1l-3.4-9.8
					c-0.1-0.3-0.5-0.6-0.8-0.5l-7.9,1.1C334.8,143.9,334.5,144.4,334.6,144.8z"/>
			</g>
			<path class="st5" d="M335,147.7l0.8,2c0.1,0.3,0.3,0.4,0.6,0.4l0,0c0.8-0.1,1.3-0.9,1-1.6l-0.2-0.7c-0.2-0.6-0.7-0.9-1.3-0.9
				h-0.4C335.2,146.9,334.9,147.3,335,147.7z"/>
		</g>
	</g>
	<g>
		<path class="st5" d="M343.4,130.9l0.4,3.2c0.1,1.1,0.9,1.7,2,1.5l0,0c0.9-0.1,1.9-0.7,1.7-1.7l-0.5-5.1L343.4,130.9z"/>
		<path class="st13" d="M343.8,133.9c0,0,3.6-1.3,3.3-4.5c-0.1-1-3.7,1.4-3.7,1.4L343.8,133.9z"/>
		<path class="st5" d="M343,134.5l1.6-0.7l2.8,0.1l1.6,0.2c0,0,0.6,2.4-3.5,2.5C342.2,136.7,343,134.5,343,134.5z"/>
		<g>
			<path class="st27" d="M341.2,126.7c0,0-3.1-2.3-1.7-4.5s4-0.3,4-0.3L341.2,126.7z"/>
			<path class="st27" d="M343.8,121.4c0,0,8.9-1.3,5,5.6l-1-2.8L343.8,121.4z"/>
			<path class="st27" d="M341.1,123.2c0,0-1.5,1.2,0.4,4l0.5-3.5L341.1,123.2z"/>
			<path class="st28" d="M342.8,128c0.1,0.8-0.4,1.4-1.1,1.5s-1.4-0.5-1.5-1.2c-0.1-0.8,0.4-1.4,1.1-1.5S342.7,127.2,342.8,128z"/>
			<path class="st5" d="M344.8,132L344.8,132c-1.9,0.1-3.4-1.4-3.6-2.9l-0.3-3.3c-0.2-2,1.2-3.7,3.1-3.9l0,0c2-0.2,4,1.1,4.2,3.1
				l0.2,2.5C348.6,129.9,347,131.8,344.8,132z"/>
			<path class="st27" d="M340.9,125.1c0,0-0.1-0.8,1.6-1.1c1.7-0.2,3.9-0.1,5.1,1.4v2.4l1.5-1.5l-0.8-3.5l-4.5-1.5l-2.7,1.9
				L340.9,125.1z"/>
			<g>
				<path class="st5" d="M350.1,127.5c0.1,0.7-0.4,1.4-1.1,1.5s-1.4-0.4-1.4-1.2c-0.1-0.7,0.4-1.4,1.1-1.5
					C349.4,126.3,350.1,126.8,350.1,127.5z"/>
			</g>
			<path class="st27" d="M342.4,122c0,0-0.4-1,1-1.6c1.2-0.5,2.5-0.3,5.2,1.6H342.4z"/>
			<path class="st27" d="M341.5,130.6c0-0.2,0.1-0.4,0.3-0.5c0.3-0.1,0.7-0.3,1.4-0.4c0.8-0.1,2,0.1,2.6,0.3c0.3,0.1,0.6,0,0.7-0.3
				c0.4-0.8,1.2-2.8,0.6-5.1l0.9,0.7l-0.1,1.4c0,0-0.7,1.6,0.4,2.3c0,0,0,3.2-2.9,3.8c-0.8,0.2-1.9,0-2.6-0.3
				C342.1,132.1,341.5,131.4,341.5,130.6z"/>
			<path class="st27" d="M347.4,126.2c0,0-2-0.5-1.2-2.4s1.7,0.5,1.7,0.5L347.4,126.2z"/>
		</g>
	</g>
</g>
<g>
	<g>
		<path class="st29" d="M222.6,76.5c0.6,0.6,0.9,1.2,0.9,1.9V86h-0.1c0,2-3.1,3.6-6.9,3.6c-3.8,0-6.8-1.6-6.8-3.6h-0.1v-7.9
			c0-0.5-0.2-1-0.5-1.4l-10.3-14.1v-0.1h9.6v0.1L222.6,76.5z"/>
	</g>
</g>
<g>
	<g>
		<path class="st30" d="M209,76.7c0.3,0.5,0.5,0.9,0.5,1.4V86h-0.1c0,2-3.1,3.6-6.8,3.6c-3.8,0-6.8-1.6-6.8-3.6h-0.1v-8.1
			c0-0.3-0.1-0.6-0.2-0.9l-6.3-14.3v-0.1h9.6v0.1L209,76.7z"/>
	</g>
</g>
<g>
	<g>
		<path class="st29" d="M195.4,76.9c0.1,0.3,0.2,0.6,0.2,0.9V86h-0.1c0,2-3.1,3.6-6.8,3.6c-3.8,0-6.9-1.6-6.9-3.6h-0.1v-8.5
			c0-0.1,0-0.2,0-0.3l-2.1-14.6v-0.1h9.6v0.1L195.4,76.9z"/>
	</g>
</g>
<g>
	<g>
		<path class="st30" d="M181.6,77.2c0,0.1,0,0.2,0,0.3V86h-0.1c0,2-3.1,3.6-6.8,3.6c-3.8,0-6.9-1.6-6.9-3.6h-0.1v-8.5
			c0-0.1,0-0.2,0-0.3l2.1-14.6v-0.1h9.6v0.1L181.6,77.2z"/>
	</g>
</g>
<g>
	<g>
		<path class="st29" d="M169.9,62.5L169.9,62.5l-2.1,14.7c0,0.1,0,0.2,0,0.3V86h-0.1c0,2-3.1,3.6-6.8,3.6c-3.8,0-6.9-1.6-6.9-3.6
			h-0.1v-8.1c0-0.3,0.1-0.6,0.2-0.9l6.3-14.3v-0.1h9.5V62.5z"/>
	</g>
</g>
<g>
	<g>
		<path class="st30" d="M160.2,62.5L160.2,62.5L154,76.9c-0.1,0.3-0.2,0.6-0.2,0.9V86h-0.1c0,2-3.1,3.6-6.9,3.6
			c-3.8,0-6.8-1.6-6.8-3.6h-0.1v-7.9c0-0.5,0.2-1,0.5-1.4l10.3-14.1v-0.1H160.2z"/>
	</g>
</g>
<g>
	<g>
		<path class="st29" d="M150.6,62.5L150.6,62.5l-10.3,14.2c-0.3,0.5-0.5,0.9-0.5,1.4V86h-0.1c0,2-3.1,3.6-6.9,3.6
			c-3.8,0-6.8-1.6-6.8-3.6h-0.1v-7.6c0-0.7,0.3-1.3,0.9-1.9L141,62.6v-0.1H150.6z"/>
	</g>
</g>
<g>
	<g>
		<path class="st30" d="M208.3,58.9v3.9h-9.6h-9.6h-9.6h-9.6h-9.6h-9.6H141v-3.9c0-2.9,2.2-5.3,5-5.3h57.4
			C206.1,53.6,208.3,56,208.3,58.9z"/>
	</g>
</g>
<g>
	<path class="st4" d="M187.3,127.4h-17.8l0,0h-6.3l-0.6-2.2c-0.1-0.3-0.4-0.5-0.7-0.5c0,0,0,0-0.1,0h-5.3c-0.4,0-0.7,0.3-0.7,0.7
		s0.3,0.7,0.7,0.7h4.9l0.5,2.2l2.7,14.1l-1.3,3.9c-0.1,0.4,0.1,0.7,0.4,0.9c0.1,0,0.1,0,0.2,0c0.3,0,0.6-0.2,0.6-0.5l1.2-3.6
		l21.5-2.7c0.3,0,0.6-0.3,0.6-0.7v-4.1l0,0v-7.5C188,127.7,187.7,127.4,187.3,127.4z M163.5,128.8h5.4l0.3,3.3l-5.1,0.1L163.5,128.8
		z M164.4,133.5l5-0.1l0.3,3.1l-4.6,0.4L164.4,133.5z M165.9,141.7l-0.7-3.4l4.5-0.4l0.3,3.3c0,0,0,0,0,0.1L165.9,141.7z
		 M170.2,128.8h5.4l0,0l0.2,3l-5.2,0.2L170.2,128.8z M170.7,133.3l5.1-0.2l0.2,2.7l-5,0.5L170.7,133.3z M171.5,141L171.5,141
		l-0.3-3.3l4.9-0.4l0.2,3.1L171.5,141z M177,128.8h4.8v2.9l-4.6,0.1L177,128.8z M177.2,133.2l4.5-0.1v2.4l-4.4,0.4L177.2,133.2z
		 M177.6,140.2l-0.2-3.1l4.3-0.4v2.9l0,0L177.6,140.2z M186.6,139.1l-3.5,0.5v-2.9l3.5-0.3V139.1z M186.6,135l-3.5,0.3V133l3.5-0.1
		V135z M186.6,131.5l-3.5,0.1v-2.8h3.5V131.5z"/>
	<path class="st30" d="M184.5,145.6v1.4c0,0.2-0.2,0.3-0.3,0.3h-20.4c-0.2,0-0.3-0.2-0.3-0.3v-1.4c0-0.2,0.2-0.3,0.3-0.3h20.4
		C184.3,145.3,184.5,145.4,184.5,145.6z M159.5,124.2h-2.9c-0.7,0-1.3,0.6-1.3,1.3l0,0c0,0.7,0.6,1.3,1.3,1.3h2.9
		c0.7,0,1.3-0.6,1.3-1.3l0,0C160.8,124.7,160.2,124.2,159.5,124.2z"/>
	<path class="st30" d="M181.7,146.4v3.9c0,0.2-0.2,0.3-0.3,0.3H180c-0.2,0-0.3-0.1-0.3-0.3v-3.9c0-0.2,0.2-0.3,0.3-0.3h1.4
		C181.6,146.1,181.7,146.2,181.7,146.4z M168.5,146.1h-1.4c-0.2,0-0.3,0.1-0.3,0.3v3.9c0,0.2,0.2,0.3,0.3,0.3h1.4
		c0.2,0,0.3-0.1,0.3-0.3v-3.9C168.8,146.2,168.7,146.1,168.5,146.1z"/>
	<path class="st4" d="M183.1,150.9c0,1.3-1.1,2.4-2.4,2.4c-1.3,0-2.4-1.1-2.4-2.4c0-1.3,1.1-2.4,2.4-2.4S183.1,149.6,183.1,150.9z
		 M167.8,148.5c-1.3,0-2.4,1.1-2.4,2.4c0,1.3,1.1,2.4,2.4,2.4s2.4-1.1,2.4-2.4S169.1,148.5,167.8,148.5z"/>
	<path class="st30" d="M182.1,150.9c0,0.8-0.6,1.4-1.4,1.4c-0.8,0-1.4-0.6-1.4-1.4s0.6-1.4,1.4-1.4S182.1,150.1,182.1,150.9z
		 M167.8,149.5c-0.8,0-1.4,0.6-1.4,1.4s0.6,1.4,1.4,1.4s1.4-0.6,1.4-1.4S168.5,149.5,167.8,149.5z"/>
</g>
<path class="st18" d="M201.5,204h-54.7c-0.5,0-0.8-0.5-0.8-1.1v-14c0-0.6,0.4-1.1,0.8-1.1h54.7c0.5,0,0.8,0.5,0.8,1.1v14
	C202.3,203.6,202,204,201.5,204z"/>
<g>
	<path class="st29" d="M114.2,72.1c4.5,11.9-1.6,25.2-13.5,29.7S75.5,100.2,71,88.3s1.6-25.2,13.5-29.7S109.7,60.2,114.2,72.1z"/>
</g>
<g>
	<ellipse class="st29" cx="207.8" cy="22.9" rx="22.9" ry="22.9"/>
</g>
<g>
	<path class="st29" d="M270.7,120.9c4.2,11.3-1.5,23.8-12.8,28c-11.3,4.2-23.8-1.5-28-12.7c-4.2-11.3,1.5-23.8,12.7-28
		C253.9,103.9,266.4,109.6,270.7,120.9z"/>
</g>
<g>
	<circle class="st29" cx="251.4" cy="68.9" r="20.9"/>
</g>
<g>
	<path class="st29" d="M121.2,133c3.6,9.5-1.3,20.2-10.8,23.8s-20.2-1.3-23.8-10.8c-3.6-9.5,1.3-20.2,10.8-23.8
		C107,118.6,117.6,123.5,121.2,133z"/>
</g>
<g>
	<path class="st29" d="M157.7,17.9c4.1,10.8-1.4,22.9-12.3,27s-22.9-1.4-27-12.3c-4.1-10.8,1.4-22.9,12.3-27S153.6,7.1,157.7,17.9z"
		/>
</g>
<g>
	<circle class="st15" cx="247" cy="124.9" r="9.2"/>
	<polygon class="st11" points="241.8,121.6 242.3,128.2 245.4,130 250.8,129.8 251.9,127.2 251.9,121.9 249.3,121.6 248.6,119.2 
		246.2,118.5 244.8,120.4 244.4,121.8 	"/>
	<path class="st4" d="M251.9,120.8h-1.6c0-1.8-1.5-3.3-3.3-3.3s-3.3,1.5-3.3,3.3h-1.6c-0.5,0-0.8,0.4-0.8,0.8v6c0,1.6,1.3,3,3,3h5.4
		c1.6,0,3-1.3,3-3v-6C252.7,121.2,252.4,120.8,251.9,120.8z M247,119.2c0.9,0,1.6,0.7,1.6,1.6h-3.3
		C245.4,119.9,246.1,119.2,247,119.2z M251.1,127.6c0,0.8-0.6,1.4-1.4,1.4h-5.5c-0.8,0-1.4-0.6-1.4-1.4v-5.2h0.8
		c0,0.5,0.4,0.8,0.8,0.8c0.5,0,0.8-0.4,0.8-0.8h3.3c0,0.5,0.4,0.8,0.8,0.8s0.8-0.4,0.8-0.8h0.8L251.1,127.6L251.1,127.6z"/>
	<polygon class="st15" points="260.9,141.3 256,135.9 256.3,134.1 258.4,133.9 262.6,138.1 263.3,140.5 	"/>
	<path class="st4" d="M263.5,137.8l-4.1-4.1c-0.8-0.8-2-0.9-2.9-0.5l-1.4-1.4c1.6-1.9,2.6-4.3,2.6-6.9c0-5.9-4.8-10.6-10.6-10.6
		s-10.6,4.8-10.6,10.6s4.8,10.6,10.6,10.6c2.7,0,5.1-1,6.9-2.6l1.4,1.4c-0.5,0.9-0.3,2.1,0.5,2.9l4.1,4.1c1,1,2.6,1,3.6,0
		C264.5,140.4,264.5,138.8,263.5,137.8L263.5,137.8z M247,133.9c-5,0-9-4-9-9s4-9,9-9s9,4,9,9S251.9,133.9,247,133.9z M262.3,140.2
		c-0.3,0.3-0.9,0.3-1.3,0l-4.1-4.1c-0.3-0.3-0.3-0.9,0-1.3s0.9-0.3,1.3,0l4.1,4.1C262.7,139.3,262.7,139.9,262.3,140.2z"/>
</g>
<g>
	<polygon class="st15" points="240.9,57.6 240.9,80.6 243.4,81.9 259.8,81.9 261.8,79.8 261.8,62.7 254.8,55.8 243.4,55.5 	"/>
	<rect x="244.4" y="68" class="st11" width="3.3" height="3.3"/>
	<rect x="244.4" y="75" class="st11" width="3.3" height="3.3"/>
	<g>
		<path class="st4" d="M262.3,62.1l-7-7c-0.1-0.1-0.4-0.2-0.6-0.2h-11.8c-1.7,0-3,1.4-3,3v21.9c0,1.7,1.4,3,3,3h16.6
			c1.7,0,3-1.4,3-3V62.6C262.6,62.4,262.5,62.2,262.3,62.1L262.3,62.1z M255.6,57.6l4.2,4.2H257c-0.8,0-1.4-0.6-1.4-1.4V57.6z
			 M259.6,81.1H243c-0.8,0-1.4-0.6-1.4-1.4V57.8c0-0.8,0.6-1.4,1.4-1.4h11v4c0,1.7,1.4,3,3,3h4v16.3
			C260.9,80.5,260.3,81.1,259.6,81.1L259.6,81.1z"/>
		<path class="st4" d="M247.7,67.1h-3.5c-0.5,0-0.8,0.4-0.8,0.8v3.5c0,0.5,0.4,0.8,0.8,0.8h3.5c0.5,0,0.8-0.4,0.8-0.8v-3.5
			C248.6,67.4,248.2,67.1,247.7,67.1L247.7,67.1z M246.9,70.6h-1.8v-1.9h1.8V70.6z"/>
		<path class="st4" d="M247.7,74.1h-3.5c-0.5,0-0.8,0.4-0.8,0.8v3.5c0,0.5,0.4,0.8,0.8,0.8h3.5c0.5,0,0.8-0.4,0.8-0.8v-3.5
			C248.6,74.5,248.2,74.1,247.7,74.1z M246.9,77.6h-1.8v-1.9h1.8V77.6z"/>
		<path class="st4" d="M250.4,67.9c0,0.5,0.4,0.8,0.8,0.8h3.5c0.5,0,0.8-0.4,0.8-0.8c0-0.5-0.4-0.8-0.8-0.8h-3.5
			C250.8,67.1,250.4,67.4,250.4,67.9z"/>
		<path class="st4" d="M258.2,70.6h-7c-0.5,0-0.8,0.4-0.8,0.8c0,0.5,0.4,0.8,0.8,0.8h7c0.5,0,0.8-0.4,0.8-0.8
			C259.1,70.9,258.7,70.6,258.2,70.6z"/>
		<path class="st4" d="M251.3,75.7h3.5c0.5,0,0.8-0.4,0.8-0.8c0-0.5-0.4-0.8-0.8-0.8h-3.5c-0.5,0-0.8,0.4-0.8,0.8
			C250.4,75.4,250.8,75.7,251.3,75.7z"/>
		<path class="st4" d="M258.2,77.6h-7c-0.5,0-0.8,0.4-0.8,0.8c0,0.5,0.4,0.8,0.8,0.8h7c0.5,0,0.8-0.4,0.8-0.8
			C259.1,77.9,258.7,77.6,258.2,77.6z"/>
		<path class="st4" d="M244.3,60.8h4.4c0.5,0,0.8-0.4,0.8-0.8s-0.4-0.8-0.8-0.8h-4.4c-0.5,0-0.8,0.4-0.8,0.8S243.8,60.8,244.3,60.8z
			"/>
		<path class="st4" d="M244.3,64.3h7c0.5,0,0.8-0.4,0.8-0.8s-0.4-0.8-0.8-0.8h-7c-0.5,0-0.8,0.4-0.8,0.8S243.8,64.3,244.3,64.3z"/>
	</g>
</g>
<g>
	<g>
		<circle class="st15" cx="137.2" cy="19.4" r="5.4"/>
		<path class="st4" d="M137.2,25.5c-3.4,0-6.1-2.7-6.1-6.1s2.7-6.1,6.1-6.1s6.1,2.7,6.1,6.1S140.6,25.5,137.2,25.5z M137.2,14.6
			c-2.6,0-4.8,2.1-4.8,4.8s2.1,4.8,4.8,4.8s4.8-2.1,4.8-4.8S139.9,14.6,137.2,14.6z"/>
	</g>
	<path class="st15" d="M137.2,27.6c0,0-10.8-0.4-12.5,7.1h12.5h12.5C148.1,27.2,137.2,27.6,137.2,27.6z"/>
	<path class="st4" d="M151.9,25.1c-0.2-0.3-0.6-0.3-0.9-0.1c-0.6,0.5-1.4,0.5-2,0c-0.4-0.3-0.9-0.5-1.4-0.6c0.2-0.5,0.2-1.1,0.1-1.6
		h2c0.3,0,0.6-0.3,0.6-0.6s-0.3-0.6-0.6-0.6h-2.3l-0.3-1.2c-0.1-0.4,0-0.9,0.2-1.3s0.6-0.6,1-0.7c0.5-0.1,0.9,0,1.3,0.4
		c0.4,0.3,0.6,0.7,0.6,1.2c0,0.3,0.3,0.6,0.6,0.6s0.6-0.3,0.6-0.6c0-0.8-0.4-1.6-1-2.1s-1.5-0.8-2.3-0.6c-0.7,0.1-1.4,0.6-1.8,1.2
		c-0.4,0.7-0.6,1.5-0.4,2.2l0.2,0.9h-0.8c-0.3,0-0.6,0.3-0.6,0.6s0.3,0.6,0.6,0.6h1.2l0.1,0.2c0.2,0.7-0.1,1.3-0.7,1.7
		c-0.1,0.1-0.3,0.2-0.4,0.3c-0.2,0.2-0.3,0.5-0.1,0.8s0.6,0.4,0.8,0.2l0.3-0.2c0.6-0.3,1.2-0.2,1.7,0.2l0,0c0.5,0.4,1.1,0.6,1.7,0.6
		c0.6,0,1.2-0.2,1.7-0.6c0.1-0.1,0.2-0.2,0.2-0.4C152,25.3,152,25.2,151.9,25.1z"/>
	<polygon class="st11" points="137.2,33.7 134.1,27.9 140,27.8 	"/>
	<polygon class="st4" points="140.5,27.3 139.4,28.4 137.2,33.2 135.1,28.4 135.1,28.4 134.5,27.2 133.3,27.3 136.5,34.5 138,34.5 
		141.2,27.3 	"/>
	<path class="st4" d="M149.7,35.4h-25c-0.2,0-0.4-0.1-0.5-0.2s-0.2-0.4-0.1-0.5c0.7-3.3,3.3-5.7,7.3-6.9c2.9-0.8,5.5-0.8,5.8-0.8
		s2.9-0.1,5.8,0.8c4.1,1.2,6.6,3.5,7.3,6.9c0,0.2,0,0.4-0.1,0.5C150.1,35.3,149.9,35.4,149.7,35.4z M125.6,34.1h23.2
		c-0.8-2.4-2.9-4.2-6.2-5.1c-2.8-0.8-5.4-0.7-5.4-0.7l0,0l0,0c0,0-2.7-0.1-5.4,0.7C128.5,29.9,126.4,31.6,125.6,34.1z"/>
</g>
<polygon class="st31" points="40.1,191.5 30.4,169.5 16.3,168.3 5.2,173.3 8.8,176 26.9,173.8 36,192.3 "/>
<g>
	<g>
		<g>
			<g>
				<polygon class="st5" points="75.6,183.7 75,190 72.2,189.8 72.4,183.4 				"/>
				<g>
					<g>
						<path class="st2" d="M75.3,189.3l5.2,2.5c0.3,0.2,0.5,0.6,0.4,0.9l0,0l-9.3-0.3L72,189L75.3,189.3z"/>
						
							<rect x="75.7" y="188.4" transform="matrix(2.857549e-02 -0.9996 0.9996 2.857549e-02 -119.1094 263.7667)" class="st3" width="1" height="9.6"/>
					</g>
				</g>
			</g>
			<g>
				<polygon class="st5" points="59.2,185.9 57.8,192.1 54.9,191.5 56,185.3 				"/>
				<g>
					<g>
						<path class="st2" d="M58.1,191.5l4.9,3.2c0.3,0.2,0.4,0.6,0.3,1l0,0l-9.3-1.4l0.8-3.3L58.1,191.5z"/>
						
							<rect x="58" y="190.7" transform="matrix(0.1499 -0.9887 0.9887 0.1499 -143.5582 223.9949)" class="st3" width="1" height="9.6"/>
					</g>
				</g>
			</g>
			<polygon class="st32" points="70.8,154.8 71.9,158.9 59.4,159.5 59.7,154.4 			"/>
			<polygon class="st32" points="62.9,157.6 72.4,169.1 71.3,187.6 76.1,186.2 78.5,168.8 69.9,155.9 			"/>
			<polygon class="st32" points="59.4,159.5 58.8,170.1 54.3,189.3 59.2,190.1 64.7,170.5 66.1,157.4 			"/>
			<polygon class="st33" points="71.1,187.6 71.3,185.7 76.4,185.9 76.3,187.9 			"/>
			<polygon class="st33" points="53.9,189.3 54.4,187.4 60,188.4 59.6,190.3 			"/>
		</g>
		<path class="st34" d="M62.5,132.2c-1.9,1.4-2.8,5-3.1,8.7l-1.1,14.4c6.8,2.5,13.1-0.5,13.1-0.5v-17.9c0-1.7-1.1-5.4-3.5-5.4l0,0
			C67.9,131.5,65.2,130.3,62.5,132.2z"/>
		<g>
			<g>
				<polygon class="st35" points="64,132.8 67.5,132.8 67.6,125.2 64,125.2 				"/>
				<path class="st36" d="M68.3,130.6L68.3,130.6c2.4,0,4.3-1.9,4.3-4.2V121l-8.6-0.1v5.4C64,128.7,65.9,130.6,68.3,130.6z"/>
				<path class="st37" d="M64.1,124.9h1.2c0.3,0,1.6-0.5,1.5-0.8c-0.1-0.9,0.1-2.2,0.6-2.3c0.8-0.3,3.8,0.9,5.4-0.2
					c2.1-1.6,0.7-4.2-1.2-4.3c0.1,0.5-0.2,0.9-0.8,1.3c-0.1,0.1-0.5-0.5-0.5-0.5s-0.4,0.9-0.6,1c-0.6,0.2-1.3,0.3-2,0.3
					c-2.2,0-5.6-1-4.2,4.9L64.1,124.9z"/>
			</g>
			<path class="st36" d="M62.6,125.1c0,0.8,0.6,1.4,1.4,1.4s1.4-0.6,1.4-1.4s-0.6-1.4-1.4-1.4C63.2,123.8,62.6,124.3,62.6,125.1z"/>
		</g>
		<polygon class="st35" points="64,131.4 66.9,133.5 67.5,131.4 		"/>
		<polygon class="st34" points="66.9,133.5 63.7,134.6 64,131.4 		"/>
		<polygon class="st34" points="66.9,133.5 68.3,134.2 67.5,131.4 		"/>
	</g>
	<path class="st5" d="M85.3,138.5l-7.3,7c-0.9,0.9-2.5,0.7-3.1-0.5l-0.7-1.3l9.9-7.2L85.3,138.5z"/>
	<g>
		<path class="st5" d="M83.9,137.5c0.4,1.2,1.7,1.8,2.8,1.4c1.2-0.4,1.8-1.7,1.4-2.8s-1.7-1.8-2.8-1.4S83.5,136.3,83.9,137.5z"/>
	</g>
	<path class="st5" d="M76.7,142.1l-8.9-4.7l-0.2,4.5c0,0,3.8,2.9,7.9,3.8C78.5,146.3,76.7,142.1,76.7,142.1z"/>
	<g>
		<path class="st38" d="M70.2,137.5l-3.2,5.1l-4.4-3.1c-1.2-0.8-1.4-2.5-0.5-3.7l0,0c0.8-1,2.1-1.3,3.1-0.7L70.2,137.5z"/>
	</g>
</g>
<path class="st5" d="M17.6,148.6L17.6,148.6c1.7,0.3,3.4-0.7,3.7-2.2l0.7-3c0.4-1.8-0.6-3.6-2.3-4l0,0c-1.7-0.5-3.9,0.5-4.4,2.3
	l-0.5,2.3C14.4,146.1,15.6,148,17.6,148.6z"/>
<path class="st39" d="M15.5,149.3c0,0,2.5,5.3,2.3,7.2c-0.2,2-2.3,7.4-2.5,8.5c-0.1,1.1,0.9,3.2,0.9,3.2l-11,5.1c0,0-0.4-3.2,0-6.9
	s0.8-7.7,1.3-9.8c1.7-7.2,6.1-10.1,6.1-10.1L15.5,149.3z"/>
<path class="st5" d="M21.9,165.6c0,0,0.8,0.2,1.1,0.2c0.4,0,2.2-0.7,2.7-0.6c0.6,0.1,4.2,1.8,4.3,2c0.2,0.1-0.1,0.3-0.1,0.3
	l-8.4-0.3L21.9,165.6z"/>
<rect x="24.7" y="160.9" transform="matrix(4.037357e-02 -0.9992 0.9992 4.037357e-02 -143.3762 186.4696)" class="st40" width="1.3" height="14"/>
<rect x="27.2" y="161.4" transform="matrix(0.338 -0.9412 0.9412 0.338 -129.875 139.4206)" class="st40" width="14" height="1.3"/>
<path class="st5" d="M16.4,146.6c0,0-0.1,0.2-0.2,0.5c-0.1,0.2-0.2,0.5-0.3,0.8c-0.3,0.8-0.6,1.8-0.6,2.3c0,0.9-2.8-3.6-2.8-3.6
	s1-2.7,1.6-5.9C14.9,137.5,16.4,146.6,16.4,146.6z"/>
<path class="st1" d="M17.1,141.3c0-0.3,0.1-1.4-1-1.1c-1.1,0.3-0.4,2.6-0.3,2.7C16,143,17.1,143.5,17.1,141.3z"/>
<path class="st11" d="M19.1,197.4H4.8c-2.7,0-4.8-2.2-4.8-4.8V181c0-2.7,2.2-4.8,4.8-4.8H19c2.7,0,4.8,2.2,4.8,4.8v11.6
	C23.9,195.2,21.7,197.4,19.1,197.4z"/>
<path class="st5" d="M12.6,146.5c0,0,4.8,8.8,4.7,7.5c-0.1-1-2.2-5.7-2.2-5.7L12.6,146.5z"/>
<path class="st39" d="M15.1,150.9l0.8-0.8c0,0,1.4,3.2,1.6,4.4h-2.2L15.1,150.9z"/>
<path class="st41" d="M22.5,137.9c-1.2-2.1-5.5-0.9-5.9-1c-0.4,0-2.5-0.7-3,3.4s-0.2,3.5-0.2,3.5s0.2-0.3,0.4-0.6
	c0.4,0.8,1,1.8,1.6,1.7c0.9-0.1,0-0.9,1.4,0s0.6-2.3,1.3-3.3c0.2-0.3,0.5-0.5,1-0.7c1,0,2.2-0.1,2.9,0.6
	C22,141.5,23.7,140,22.5,137.9z"/>
<polygon class="st39" points="17.8,156.5 16.3,168.3 8.4,169.4 "/>
<path class="st5" d="M9.7,154.6c0-1,0.1-5.7,2.5-5.4c2.5,0.3,1.1,3.4,0.8,5.6c-0.3,2.3-0.9,7.8-0.5,8.1s3.8,1.4,4.5,1.5
	c0.6,0.1,4.5,1.1,4.8,1.1c0.3,0.1-0.3,1.6-0.3,1.6s-9.6-1.1-11.4-2C8.4,164.4,9.7,154.6,9.7,154.6z"/>
<path class="st42" d="M8.8,156.5l5.8,0.2c0,0,1-7.9-2.4-7.7C8.9,149.1,8.8,156.5,8.8,156.5z"/>
<polygon class="st43" points="16.3,168.3 32.3,168.9 35.1,191.7 31.2,192.2 26.9,173.8 17.1,176 8.8,176 5.2,173.3 "/>
<path class="st44" d="M162.4,181.8h-16.1c-0.1,0-0.2-0.5-0.2-1.1v-14c0-0.6,0.1-1.1,0.2-1.1h16.1c0.1,0,0.2,0.5,0.2,1.1v14
	C162.6,181.4,162.5,181.8,162.4,181.8z"/>
<path class="st44" d="M182.2,181.8h-16.1c-0.1,0-0.2-0.5-0.2-1.1v-14c0-0.6,0.1-1.1,0.2-1.1h16.1c0.1,0,0.2,0.5,0.2,1.1v14
	C182.4,181.4,182.3,181.8,182.2,181.8z"/>
<path class="st44" d="M202.1,181.8H186c-0.1,0-0.2-0.5-0.2-1.1v-14c0-0.6,0.1-1.1,0.2-1.1h16.1c0.1,0,0.2,0.5,0.2,1.1v14
	C202.3,181.4,202.2,181.8,202.1,181.8z"/>
<g>
	<polygon class="st15" points="84.4,70.6 84.4,91.6 86,93.5 104.1,92.9 103.7,88.7 100.8,88.4 100.9,70.1 	"/>
	<polygon class="st11" points="84.4,70.6 84.4,73.3 80,73.3 80,67.4 105.3,67.4 105.3,73.3 100.9,73.3 100.9,70.3 	"/>
	<g>
		<g>
			<g>
				<path class="st4" d="M104.1,66.2h-23c-1.4,0-2.5,1.1-2.5,2.5V72c0,1.4,1.1,2.5,2.5,2.5h2.5v17.3c0,1.4,1.1,2.5,2.5,2.5
					c0.6,0,15.7,0,16.4,0c1.4,0,2.5-1.1,2.5-2.5v-3.3c0-0.5-0.4-0.8-0.8-0.8h-2.5V74.4h2.5c1.4,0,2.5-1.1,2.5-2.5v-3.3
					C106.6,67.3,105.5,66.2,104.1,66.2z M86.1,92.5c-0.5,0-0.8-0.4-0.8-0.8V71.1H100v17.3v3.3c0,0.3,0,0.6,0.1,0.8
					C99.8,92.5,86.5,92.5,86.1,92.5z M103.2,89.2v2.5c0,0.5-0.4,0.8-0.8,0.8c-0.5,0-0.8-0.4-0.8-0.8v-2.5H103.2z M104.9,72
					c0,0.5-0.4,0.8-0.8,0.8h-2.5v-1.6h0.9c0.5,0,0.8-0.4,0.8-0.8s-0.4-0.8-0.8-0.8c-0.6,0-18.8,0-19.7,0c-0.5,0-0.8,0.4-0.8,0.8
					s0.4,0.8,0.8,0.8h0.9v1.6h-2.5c-0.5,0-0.8-0.4-0.8-0.8v-3.3c0-0.5,0.4-0.8,0.8-0.8h23c0.5,0,0.8,0.4,0.8,0.8V72H104.9z"/>
			</g>
		</g>
		<g>
			<g>
				<path class="st4" d="M97.5,86h-9.8c-0.5,0-0.8,0.4-0.8,0.8s0.4,0.8,0.8,0.8h9.8c0.5,0,0.8-0.4,0.8-0.8S98,86,97.5,86z"/>
			</g>
		</g>
		<g>
			<g>
				<path class="st4" d="M97.5,89.2h-9.8c-0.5,0-0.8,0.4-0.8,0.8s0.4,0.8,0.8,0.8h9.8c0.5,0,0.8-0.4,0.8-0.8S98,89.2,97.5,89.2z"/>
			</g>
		</g>
		<path class="st4" d="M96.2,82c-0.2-0.3-0.6-0.3-0.9-0.1c-0.6,0.5-1.5,0.5-2.1,0c-0.4-0.3-0.9-0.6-1.5-0.6c0.2-0.6,0.3-1.2,0.1-1.7
			h2.1c0.4,0,0.6-0.3,0.6-0.6c0-0.4-0.3-0.6-0.6-0.6h-2.4L91.1,77c-0.1-0.5,0-1,0.2-1.4c0.3-0.4,0.7-0.7,1.1-0.7
			c0.5-0.1,1,0.1,1.4,0.4s0.6,0.8,0.6,1.3c0,0.4,0.3,0.6,0.6,0.6c0.4,0,0.6-0.3,0.6-0.6c0-0.9-0.4-1.7-1.1-2.3
			c-0.7-0.6-1.6-0.8-2.4-0.7c-0.8,0.1-1.5,0.6-2,1.3c-0.5,0.7-0.6,1.6-0.4,2.4l0.2,1H89c-0.4,0-0.6,0.3-0.6,0.6
			c0,0.4,0.3,0.6,0.6,0.6h1.2l0.1,0.2c0.2,0.7-0.1,1.4-0.7,1.8c-0.1,0.1-0.3,0.2-0.4,0.3c-0.3,0.2-0.3,0.6-0.1,0.9
			c0.2,0.3,0.6,0.4,0.9,0.2l0.3-0.2c0.6-0.3,1.3-0.2,1.8,0.2l0,0c0.6,0.4,1.2,0.7,1.9,0.7c0.7,0,1.3-0.2,1.9-0.7
			c0.1-0.1,0.2-0.3,0.2-0.4C96.3,82.3,96.3,82.1,96.2,82z"/>
	</g>
</g>
<g>
	<polygon class="st15" points="195,24 195.4,35 221.1,35 221.1,23.8 211.2,23.3 211.2,11.9 198.4,11.9 198.2,24 	"/>
	<circle class="st15" cx="218.2" cy="13.7" r="2.8"/>
	<g>
		<rect x="199.6" y="23.5" class="st45" width="3.7" height="5.3"/>
		<rect x="212.7" y="23.5" class="st46" width="3.7" height="5.3"/>
		<path class="st4" d="M216.4,31.2c-0.4,0-0.8,0.4-0.8,0.8c0,0.4,0.4,0.8,0.8,0.8h2.1c0.4,0,0.8-0.4,0.8-0.8s-0.4-0.8-0.8-0.8H216.4
			z"/>
		<path class="st4" d="M205.3,31.2h-2.1c-0.4,0-0.8,0.4-0.8,0.8c0,0.4,0.4,0.8,0.8,0.8h2.1c0.4,0,0.8-0.4,0.8-0.8
			S205.7,31.2,205.3,31.2z"/>
		<path class="st4" d="M222.2,18.2l-1.2-1.7c0.7-0.7,1.1-1.7,1.1-2.7c0-2.1-1.7-3.9-3.9-3.9c-2.1,0-3.9,1.7-3.9,3.9
			c0,2.1,1.7,3.9,3.9,3.9c0.5,0,1-0.1,1.5-0.3l1.3,1.8c0.1,0.2,0.4,0.3,0.6,0.3c0.2,0,0.3,0,0.4-0.1C222.3,19,222.4,18.5,222.2,18.2
			z M215.8,13.7c0-1.3,1.1-2.4,2.4-2.4s2.4,1.1,2.4,2.4s-1.1,2.4-2.4,2.4S215.8,15,215.8,13.7z"/>
		<rect x="202.9" y="11.9" class="st11" width="3.7" height="5.3"/>
		<path class="st4" d="M206.4,21.1h2.1c0.4,0,0.8-0.4,0.8-0.8s-0.4-0.8-0.8-0.8h-2.1c-0.4,0-0.8,0.4-0.8,0.8S206,21.1,206.4,21.1z"
			/>
		<path class="st4" d="M199.2,12.6h2.7v4.5c0,0.4,0.4,0.8,0.8,0.8h4.2c0.4,0,0.8-0.4,0.8-0.8v-4.5h2.7v10.1h1.6V11.9
			c0-0.4-0.4-0.8-0.8-0.8h-12.7c-0.4,0-0.8,0.4-0.8,0.8v10.9h1.6V12.6H199.2z M203.5,12.6h2.7v3.7h-2.7V12.6z"/>
		<path class="st4" d="M221.2,22.7h-5.5h-0.3h-1.6h-11.1H201h-5.8c-0.4,0-0.8,0.4-0.8,0.8v11.7c0,0.4,0.4,0.8,0.8,0.8h26
			c0.4,0,0.8-0.4,0.8-0.8V23.5C222,23.1,221.6,22.7,221.2,22.7z M213.2,24.3h2.7V28h-2.7V24.3z M200.2,24.3h2.7V28h-2.7V24.3z
			 M207.4,34.4H196V24.3h2.7v4.5c0,0.4,0.4,0.8,0.8,0.8h4.2c0.4,0,0.8-0.4,0.8-0.8v-4.5h2.9V34.4z M220.4,34.4H209V24.3h2.7v4.5
			c0,0.4,0.4,0.8,0.8,0.8h4.2c0.4,0,0.8-0.4,0.8-0.8v-4.5h2.9V34.4z"/>
	</g>
</g>
<g>
	<path class="st15" d="M103.2,131.5l0.2-0.1l-0.8-1.4l-0.2,0.1c-0.5,0.3-1.1,0.3-1.6,0s-0.8-0.8-0.8-1.4v-0.2h-1.6v0.2
		c0,0.6-0.3,1.1-0.8,1.4c-0.5,0.3-1.1,0.3-1.6,0l-0.2-0.1l-0.8,1.4l0.2,0.1c0.5,0.3,0.8,0.8,0.8,1.4c0,0.6-0.3,1.1-0.8,1.4l-0.2,0.1
		l0.8,1.4l0.2-0.1c0.5-0.3,1.1-0.3,1.6,0s0.8,0.8,0.8,1.4v0.2h1.6V137c0-0.6,0.3-1.1,0.8-1.4c0.5-0.3,1.1-0.3,1.6,0l0.2,0.1l0.8-1.4
		l-0.2-0.1c-0.5-0.3-0.8-0.8-0.8-1.4C102.4,132.3,102.7,131.8,103.2,131.5z"/>
	<circle class="st45" cx="99.2" cy="132.9" r="1.5"/>
	<path class="st15" d="M112.8,141.1l0.3-0.2l-1.2-2l-0.3,0.2c-0.7,0.4-1.6,0.4-2.3,0c-0.7-0.4-1.2-1.2-1.2-2v-0.3h-2.3v0.3
		c0,0.8-0.4,1.6-1.2,2c-0.7,0.4-1.6,0.4-2.3,0l-0.3-0.2l-1.2,2l0.3,0.2c0.7,0.4,1.2,1.2,1.2,2s-0.4,1.6-1.2,2l-0.3,0.2l1.2,2
		l0.3-0.2c0.7-0.4,1.6-0.4,2.3,0c0.7,0.4,1.2,1.2,1.2,2v0.3h2.3v-0.3c0-0.8,0.4-1.6,1.2-2c0.7-0.4,1.6-0.4,2.3,0l0.3,0.2l1.2-2
		l-0.3-0.2c-0.7-0.4-1.2-1.2-1.2-2C111.6,142.2,112.1,141.5,112.8,141.1z"/>
	<g>
		<path class="st4" d="M104,133.9l-0.5-0.3c-0.2-0.1-0.4-0.4-0.4-0.7s0.1-0.5,0.4-0.7l0.5-0.3c0.2-0.1,0.2-0.3,0.1-0.5l-1.1-2
			c-0.1-0.2-0.3-0.2-0.5-0.1l-0.5,0.3c-0.2,0.1-0.5,0.1-0.8,0c-0.2-0.1-0.4-0.4-0.4-0.7v-0.6c0-0.2-0.2-0.4-0.4-0.4h-2.3
			c-0.2,0-0.4,0.2-0.4,0.4v0.6c0,0.3-0.1,0.5-0.4,0.7c-0.2,0.1-0.5,0.1-0.8,0l-0.5-0.3c-0.1-0.1-0.2-0.1-0.3,0
			c-0.1,0-0.2,0.1-0.2,0.2l-1.1,2c-0.1,0.1-0.1,0.2,0,0.3c0,0.1,0.1,0.2,0.2,0.2l0.5,0.3c0.2,0.1,0.4,0.4,0.4,0.7s-0.1,0.5-0.4,0.7
			l-0.5,0.3c-0.2,0.1-0.2,0.3-0.1,0.5l1.1,2c0.1,0.1,0.1,0.2,0.2,0.2s0.2,0,0.3,0l0.5-0.3c0.2-0.1,0.5-0.1,0.8,0
			c0.2,0.1,0.4,0.4,0.4,0.7v0.6c0,0.2,0.2,0.4,0.4,0.4h2.3c0.2,0,0.4-0.2,0.4-0.4v-0.6c0-0.3,0.1-0.5,0.4-0.7c0.2-0.1,0.5-0.1,0.8,0
			l0.5,0.3c0.1,0.1,0.2,0.1,0.3,0c0.1,0,0.2-0.1,0.2-0.2l1.1-2C104.2,134.2,104.2,134,104,133.9z M97.7,135.5
			c-0.5-0.3-1.1-0.3-1.5,0l-0.2,0.1l-0.8-1.3l0.2-0.1c0.5-0.3,0.8-0.8,0.8-1.3c0-0.6-0.3-1-0.8-1.3l-0.2-0.1l0.8-1.3l0.2,0.1
			c0.5,0.3,1.1,0.3,1.5,0c0.5-0.3,0.8-0.8,0.8-1.3v-0.2h1.5v0.2c0,0.6,0.3,1.1,0.8,1.3c0.5,0.3,1.1,0.3,1.5,0l0.2-0.1l0.8,1.3
			l-0.2,0.1c-0.5,0.3-0.8,0.8-0.8,1.3c0,0.6,0.3,1,0.8,1.3l0.2,0.1l-0.8,1.3l-0.2-0.1c-0.5-0.3-1.1-0.3-1.5,0
			c-0.5,0.3-0.8,0.8-0.8,1.3v0.2h-1.5v-0.2C98.5,136.3,98.2,135.8,97.7,135.5z"/>
		<path class="st4" d="M101.3,132.9c0-1.2-0.9-2.1-2.1-2.1s-2.1,0.9-2.1,2.1c0,1.2,0.9,2.1,2.1,2.1S101.3,134.1,101.3,132.9z
			 M100.6,132.9c0,0.7-0.6,1.3-1.3,1.3c-0.7,0-1.3-0.6-1.3-1.3s0.6-1.3,1.3-1.3C100,131.6,100.6,132.2,100.6,132.9z"/>
	</g>
	<g>
		<path class="st4" d="M114,144.5l-0.8-0.5c-0.4-0.2-0.6-0.6-0.6-1s0.2-0.8,0.6-1l0.8-0.5c0.3-0.2,0.4-0.5,0.2-0.8l-1.7-2.9
			c-0.2-0.3-0.5-0.4-0.8-0.2l-0.8,0.5c-0.4,0.2-0.8,0.2-1.1,0c-0.4-0.2-0.6-0.6-0.6-1v-0.9c0-0.3-0.3-0.6-0.6-0.6h-3.4
			c-0.3,0-0.6,0.3-0.6,0.6v0.9c0,0.4-0.2,0.8-0.6,1s-0.8,0.2-1.1,0l-0.8-0.5c-0.1-0.1-0.3-0.1-0.4-0.1s-0.3,0.1-0.3,0.3l-1.7,2.9
			c-0.1,0.1-0.1,0.3-0.1,0.4c0,0.1,0.1,0.3,0.3,0.3l0.8,0.5c0.4,0.2,0.6,0.6,0.6,1s-0.2,0.8-0.6,1l-0.8,0.5
			c-0.3,0.2-0.4,0.5-0.2,0.8l1.7,2.9c0.1,0.1,0.2,0.2,0.3,0.3c0.1,0,0.3,0,0.4-0.1l0.8-0.5c0.4-0.2,0.8-0.2,1.1,0
			c0.4,0.2,0.6,0.6,0.6,1v0.9c0,0.3,0.3,0.6,0.6,0.6h3.4c0.3,0,0.6-0.3,0.6-0.6V149c0-0.4,0.2-0.8,0.6-1s0.8-0.2,1.1,0l0.8,0.5
			c0.1,0.1,0.3,0.1,0.4,0.1s0.3-0.1,0.3-0.3l1.7-2.9C114.4,145,114.3,144.7,114,144.5z M104.8,147c-0.7-0.4-1.6-0.4-2.3,0l-0.3,0.2
			l-1.1-1.9l0.3-0.2c0.7-0.4,1.1-1.1,1.1-2c0-0.8-0.4-1.6-1.1-2l-0.3-0.2l1.1-1.9l0.3,0.2c0.7,0.4,1.6,0.4,2.3,0
			c0.7-0.4,1.1-1.1,1.1-2v-0.3h2.2v0.3c0,0.8,0.4,1.6,1.1,2s1.6,0.4,2.3,0l0.3-0.2l1.1,1.9l-0.3,0.2c-0.7,0.4-1.1,1.1-1.1,2
			c0,0.8,0.4,1.6,1.1,2l0.3,0.2l-1.1,1.9l-0.3-0.2c-0.7-0.4-1.6-0.4-2.3,0c-0.7,0.4-1.1,1.1-1.1,2v0.3h-2.2V149
			C105.9,148.1,105.5,147.4,104.8,147z"/>
		<path class="st4" d="M110.1,143.1c0-1.7-1.4-3.1-3.1-3.1s-3.1,1.4-3.1,3.1c0,1.7,1.4,3.1,3.1,3.1
			C108.7,146.2,110.1,144.8,110.1,143.1z M109,143.1c0,1.1-0.9,2-2,2s-2-0.9-2-2s0.9-2,2-2S109,142,109,143.1z"/>
	</g>
	<circle class="st11" cx="107" cy="143.1" r="2.2"/>
</g>
</svg>
