<?xml version="1.0" encoding="utf-8"?>
<!-- Generator: Adobe Illustrator 23.0.3, SVG Export Plug-In . SVG Version: 6.00 Build 0)  -->
<svg version="1.1" id="Layer_1" xmlns="http://www.w3.org/2000/svg" xmlns:xlink="http://www.w3.org/1999/xlink" x="0px" y="0px"
	 viewBox="0 0 317.2 198.7" style="enable-background:new 0 0 317.2 198.7;" xml:space="preserve">
<style type="text/css">
	.st0{fill:#BEDAE0;}
	.st1{fill:#CAE6EC;}
	.st2{fill:#D7F1F7;}
	.st3{fill:#F8FCFD;}
	.st4{fill:#E7E7E7;}
	.st5{fill:#FBBC9C;}
	.st6{fill:#020202;}
	.st7{fill:#C3B8C2;}
	.st8{fill:#3D65B0;}
	.st9{fill:none;stroke:#195DA9;stroke-width:0.75;stroke-miterlimit:10;}
	.st10{fill:#F7A1A1;}
	.st11{fill:none;stroke:#EF9090;stroke-width:0.75;stroke-miterlimit:10;}
	.st12{fill:#EFAA87;}
	.st13{fill:#181E21;}
	.st14{fill:#E49E7D;}
	.st15{fill:#4B9FD8;}
	.st16{fill:none;stroke:#2296D3;stroke-width:0.75;stroke-miterlimit:10;}
	.st17{fill:#A59AA5;}
	.st18{fill:#F7C02D;}
	.st19{fill:none;stroke:#E9B029;stroke-width:0.75;stroke-miterlimit:10;}
	.st20{fill:#221C30;}
	.st21{fill:#313F5F;}
	.st22{fill:#046938;}
	.st23{fill:none;}
	.st24{fill:#FBC09D;}
	.st25{fill:#603B17;}
	.st26{fill:#BC2030;}
	.st27{fill:#A97D51;}
	.st28{fill:#666666;}
	.st29{fill:#C5C7CB;}
	.st30{fill:#444444;}
</style>
<g>
	<g>
		<path class="st0" d="M258.8,128.3c3.1-1,5.3-4,3.3-7c-3.2-5,4.9-6.1,2.6-14.5c-3.2-11.9-13.1-1.6-15.6-13
			c-1.8-8.3-15.7-13.7-16.3-2.8c-0.6,11.9-6.6,4.1-7.9,17.4c-0.9,9.2,12.1,10.5,8.2,13.4c-2.8,2.1-4.5,5.7-0.6,8.2
			c5.4,3.4,0.3,6.1,4,8.4c3.6,2.3,4.3-1.4,10,0.4c5.1,1.6,9.4-3.4,8.4-6.6C254.1,129.4,255.7,129.3,258.8,128.3z"/>
		<g>
			<path class="st1" d="M229.3,133.7c0,0,0.4,38.4,16.5,38.4s16.5-38.4,16.5-38.4L229.3,133.7L229.3,133.7z"/>
		</g>
	</g>
	<g>
		<rect x="54.9" class="st0" width="71.3" height="76.3"/>
		<rect x="56.6" class="st2" width="73.2" height="76.3"/>
		<rect x="54.9" y="76.3" class="st0" width="71.3" height="6.6"/>
		<rect x="62.5" y="76.3" class="st1" width="73.2" height="6.6"/>
		<rect x="61.6" y="5" class="st3" width="63.3" height="66.3"/>
		<path class="st1" d="M63.9,66.4c-0.2,0-0.4-0.2-0.4-0.4V8.2c0-0.2,0.2-0.4,0.4-0.4s0.4,0.2,0.4,0.4V66
			C64.2,66.2,64,66.4,63.9,66.4z"/>
		<rect x="124.3" y="5" class="st0" width="0.6" height="66.3"/>
		<polygon class="st1" points="131,12.5 59.6,12.5 59.2,6.9 130.5,6.9 		"/>
		<polygon class="st1" points="131,21.6 59.6,21.6 59.2,16 130.5,16 		"/>
		<polygon class="st1" points="131,30.8 59.6,30.8 59.2,25.2 130.5,25.2 		"/>
		<polygon class="st1" points="131,39.9 59.6,39.9 59.2,34.3 130.5,34.3 		"/>
		<polygon class="st1" points="131,49 59.6,49 59.2,43.4 130.5,43.4 		"/>
		<polygon class="st1" points="131,58.2 59.6,58.2 59.2,52.6 130.5,52.6 		"/>
	</g>
	<g>
		<rect x="212.1" y="103.8" class="st0" width="26.3" height="68.3"/>
		<polygon class="st2" points="231.4,172.2 238.4,172.2 238.4,160.4 224,160.4 		"/>
		<rect x="144.4" y="103.8" class="st0" width="26.3" height="68.3"/>
		<rect x="164.6" y="103.8" class="st2" width="73.8" height="64.3"/>
		<rect x="170.1" y="109.8" class="st1" width="62.9" height="13.5"/>
		<polygon class="st2" points="171.6,172.2 164.6,172.2 164.6,160.4 179,160.4 		"/>
		<rect x="170.1" y="129.2" class="st1" width="62.9" height="13.5"/>
		<rect x="170.1" y="148.7" class="st1" width="62.9" height="13.5"/>
	</g>
	<g>
		<rect x="135.3" y="103.8" class="st0" width="26.3" height="68.3"/>
		<polygon class="st2" points="154.6,172.2 161.6,172.2 161.6,160.4 147.2,160.4 		"/>
		<rect x="67.6" y="103.8" class="st0" width="26.3" height="68.3"/>
		<rect x="87.8" y="103.8" class="st2" width="73.8" height="64.3"/>
		<rect x="93.2" y="109.8" class="st1" width="62.9" height="13.5"/>
		<polygon class="st2" points="94.8,172.2 87.8,172.2 87.8,160.4 102.2,160.4 		"/>
		<rect x="93.2" y="129.2" class="st1" width="62.9" height="13.5"/>
		<rect x="93.2" y="148.7" class="st1" width="62.9" height="13.5"/>
	</g>
	<path class="st0" d="M191.2,92.2c-0.2,0-0.3,0-0.5,0v-1c0-0.8-0.6-1.4-1.4-1.4h-7.5c-0.8,0-1.4,0.6-1.4,1.4v12.5h10.3v-2.5
		c0.2,0,0.3,0,0.5,0c2.3,0,4.1-1.9,4.1-4.1v-0.9C195.3,94.1,193.5,92.2,191.2,92.2z M193.6,97.2c0,1.3-1.1,2.4-2.4,2.4
		c-0.2,0-0.3,0-0.5-0.1V94c0.2,0,0.3-0.1,0.5-0.1c1.3,0,2.4,1.1,2.4,2.4V97.2z"/>
	<g>
		<rect x="187.8" y="10.5" class="st0" width="74.8" height="55.9"/>
		<rect x="188.7" y="10.5" class="st2" width="74.8" height="58.8"/>
		<path class="st4" d="M199.8,15.4h52.5c3.4,0,6.2,2.8,6.2,6.2v36.5c0,3.4-2.8,6.2-6.2,6.2h-52.5c-3.4,0-6.2-2.8-6.2-6.2V21.6
			C193.6,18.2,196.4,15.4,199.8,15.4z"/>
		<path class="st3" d="M199.8,15.4h52.5c3.4,0,6.2,2.8,6.2,6.2v35.6c0,3.4-2.8,6.2-6.2,6.2h-52.5c-3.4,0-6.2-2.8-6.2-6.2V21.6
			C193.6,18.2,196.4,15.4,199.8,15.4z"/>
		<path class="st2" d="M236.7,48.2l11.6-8.4c0.2-0.2,0.2-0.5,0-0.6l-11.6-8.4c-5.8-4.2-15.3-4.2-21.2,0l-11.6,8.4
			c-0.2,0.2-0.2,0.5,0,0.6l11.6,8.4C221.3,52.4,230.8,52.4,236.7,48.2z M235.8,31.4h-19.5C221.7,27.5,230.5,27.5,235.8,31.4z
			 M235.8,47.5c-5.4,3.9-14.1,3.9-19.5,0H235.8z"/>
	</g>
	<ellipse id="_x3C_Path_x3E__151_" class="st2" cx="164.8" cy="192" rx="150.3" ry="6.7"/>
</g>
<g>
	<g>
		<g>
			<path class="st5" d="M201.8,122.3l7.4-17.2c1-2.3-0.5-4.8-2.9-5.2l-2.7-0.4l-6.2,21.8L201.8,122.3z"/>
			<g>
				<path class="st5" d="M199.2,120.4c2.3-0.1,4.2,1.7,4.3,4s-1.7,4.2-4,4.3c-2.3,0.1-4.2-1.7-4.3-4
					C195.1,122.5,196.9,120.5,199.2,120.4z"/>
			</g>
		</g>
		<path class="st5" d="M203.6,99.9l-1.2-18.6l7.6,3.1c0,0,1.2,10.2,0.4,16.1C209.7,106.4,203.6,99.9,203.6,99.9z"/>
	</g>
	<g>
		<g>
			<polygon class="st5" points="203,168.1 204,182.1 210.5,181.8 210.2,167.6 			"/>
			<g>
				<g>
					<path class="st6" d="M203.5,180.5l-11.8,5.4c-0.8,0.4-1.2,1.3-1,2.1l0,0h20.8l-0.8-7.5H203.5z"/>
					<rect x="190.4" y="188" class="st7" width="21.4" height="2.2"/>
				</g>
			</g>
		</g>
		<g>
			<polygon class="st5" points="224.1,168.1 225,182.1 231.6,181.8 231.3,167.6 			"/>
			<g>
				<g>
					<path class="st6" d="M224.6,180.5l-11.8,5.4c-0.8,0.4-1.2,1.3-1,2.1l0,0h20.8l-0.8-7.5H224.6z"/>
					<rect x="211.6" y="188" class="st7" width="21.4" height="2.2"/>
				</g>
			</g>
		</g>
		<g>
			<polygon class="st8" points="206.7,102 231.7,103.9 235,173.8 221.3,173.8 216.9,121.1 211,143.6 213,174.6 201.4,174.6 
				197.4,140.3 			"/>
			<line class="st9" x1="211.3" y1="118" x2="216.9" y2="121.1"/>
		</g>
	</g>
	<g>
		<g>
			<path class="st10" d="M206.8,69c0,0-6.3,3.7-5.3,15.4l5.8-1.3L206.8,69z"/>
		</g>
		<g>
			<path class="st10" d="M219.4,65.1c6.3,0,13.4,2.2,13.4,2.2l-0.3,39.8l-26.4-2l0.3-34.8c0-0.6,0.3-1.2,0.8-1.4l7.3-3.1
				C214.5,65.7,218.1,65.1,219.4,65.1z"/>
			<line class="st11" x1="206.2" y1="83.4" x2="206.2" y2="75.7"/>
		</g>
		<g>
			<g>
				<g>
					<path class="st5" d="M256.9,59.5l-10,20.3l2.2,1.5c2,1.3,4.8,0.4,5.6-1.9l6-17.7L256.9,59.5z"/>
					<g>
						<path class="st5" d="M257.4,55.4c1.6-1.7,4.2-1.7,5.9-0.1c1.7,1.6,1.7,4.2,0.1,5.9s-4.2,1.7-5.9,0.1
							C255.9,59.7,255.9,57,257.4,55.4z"/>
					</g>
				</g>
				<path class="st5" d="M250.1,81.8c-5.9-0.9-15.3-5-15.3-5l-0.8-8.2l17.5,6.4C251.4,75,256,82.7,250.1,81.8z"/>
			</g>
			<path class="st10" d="M227.8,78.3l12.5,4.7l6.5-11.3c0,0-7.5-2.5-11.7-4.2s-5.8,0.8-5.8,0.8L227.8,78.3z"/>
		</g>
	</g>
	<g>
		<path class="st5" d="M213.6,59.3l0.8,6.4c0.3,2.3,1.8,3.3,3.9,3l0,0c1.9-0.3,3.7-1.4,3.4-3.4l-0.9-10.1L213.6,59.3z"/>
		<path class="st12" d="M214.4,65.1c0,0,7.2-2.6,6.6-9.1c-0.2-1.9-7.4,2.9-7.4,2.9L214.4,65.1z"/>
		<path class="st5" d="M212.8,66.4l3.1-1.4l5.5,0.2l3.2,0.4c0,0,1.2,4.8-6.9,5.1C211.2,70.9,212.8,66.4,212.8,66.4z"/>
		<g>
			<path class="st13" d="M209.3,50.9c0,0-6.3-4.7-3.4-9s8-0.6,8-0.6L209.3,50.9z"/>
			<path class="st13" d="M214.4,40.2c0,0,17.7-2.5,9.9,11.2l-2-5.6L214.4,40.2z"/>
			<path class="st13" d="M209,44c0,0-3,2.5,0.8,7.9l1-6.9L209,44z"/>
			<path class="st14" d="M212.3,53.5c0.2,1.5-0.8,2.9-2.3,3s-2.7-0.9-3-2.4c-0.2-1.5,0.8-2.9,2.3-3
				C210.8,50.9,212.2,51.9,212.3,53.5z"/>
			<path class="st5" d="M216.3,61.5L216.3,61.5c-3.7,0.2-6.9-2.7-7.2-5.8l-0.5-6.5c-0.3-3.9,2.4-7.4,6.2-7.8l0,0
				c3.9-0.4,8,2.3,8.5,6.3l0.3,5.1C224,57.4,220.7,61,216.3,61.5z"/>
			<path class="st13" d="M208.6,47.7c0,0-0.3-1.7,3.1-2.1c3.4-0.4,7.7-0.2,10.1,2.9l0.1,4.7l3-3l-1.6-7l-9-3L209,44L208.6,47.7z"/>
			<g>
				<path class="st5" d="M227.1,52.5c0.2,1.4-0.8,2.8-2.3,3c-1.4,0.2-2.7-0.8-2.9-2.4c-0.2-1.4,0.8-2.8,2.3-3
					C225.6,50,226.9,51,227.1,52.5z"/>
			</g>
			<path class="st13" d="M211.7,41.6c0,0-0.8-2,2-3.2c2.5-1,4.9-0.6,10.3,3.1L211.7,41.6z"/>
			<path class="st13" d="M209.8,58.6c0-0.4,0.3-0.8,0.7-0.9c0.5-0.3,1.4-0.5,2.7-0.8c1.6-0.3,4,0.3,5.3,0.6c0.5,0.2,1.1-0.1,1.4-0.6
				c0.8-1.7,2.4-5.6,1.2-10.2l1.9,1.4l-0.3,2.9c0,0-1.4,3.1,0.8,4.5c0,0,0.1,6.4-5.8,7.6c-1.7,0.3-3.7,0.1-5.3-0.7
				C211,61.7,209.8,60.2,209.8,58.6z"/>
			<path class="st13" d="M221.7,49.8c0,0-3.9-0.9-2.4-4.7s3.4,1,3.4,1L221.7,49.8z"/>
		</g>
	</g>
</g>
<g>
	<g>
		<g>
			<path class="st5" d="M187.6,101.9c-0.1-0.3,2.1-3.9,2.1-3.9l-5.9-12.2c-0.8-2.4-6-10.9-8-9.4c-1.6,1.1,0.6,10,1.3,11.7l6,10.9
				L187.6,101.9z"/>
			<g>
				<path class="st15" d="M173.7,73.9c0,0,5.2,0.4,7.2,3.6c2.6,4,7,10.5,7,10.5l-13.3,5L173.7,73.9z"/>
				<line class="st16" x1="176.4" y1="92.2" x2="171.5" y2="83.7"/>
			</g>
		</g>
		<g>
			<g>
				<path class="st5" d="M184.9,96.9l-15.5,9.3l2.3,3.4l15.7-6.8c2.5-1.1,3.2-4.2,1.4-6.2l0,0C187.5,95.2,186.5,96,184.9,96.9z"/>
			</g>
			<g>
				<path class="st5" d="M172.1,109.1c0,0-2,4.7-5.6,4.2c-4.3-0.5-4.6-4-2.7-4.6l2.9,0.2c0,0,0.1-1.9,1.8-2.7
					c0.4-0.2,0.9-0.3,1.6-0.3L172.1,109.1z"/>
				<path class="st5" d="M169.1,106l-4,0.7c-0.2,0.1-0.4,0.2-0.4,0.6l0,0c0,0.3,0.2,0.6,0.5,0.6l3.9,0.3V106z"/>
			</g>
		</g>
	</g>
	<g>
		<g>
			<g>
				<g>
					<polygon class="st5" points="151.5,184.4 152.2,171.6 159,172.5 157.7,185.9 151.2,184.7 					"/>
					<g>
						<path class="st6" d="M158.7,182.7c0,0-4.6,2.4-7.2-1.2l-12.4,6.7l21.3-0.2L158.7,182.7z"/>
						
							<rect x="139.1" y="188.1" transform="matrix(1 -6.328788e-03 6.328788e-03 1 -1.1935 0.9517)" class="st17" width="21.3" height="1.9"/>
					</g>
				</g>
				<path class="st18" d="M158.9,98.8c0,0-6.1,3.7-6.9,24c-0.7,20.3-2,54.4-2,54.4h10.4l5.3-66.2l-1.4-12.2L158.9,98.8L158.9,98.8z"
					/>
			</g>
			<g>
				<g>
					<polygon class="st5" points="169.4,184.4 168.8,171.6 175.6,172.5 175.6,185.9 169.1,184.7 					"/>
					<g>
						<path class="st6" d="M176.6,182.7c0,0-4.6,2.4-7.2-1.2l-12.4,6.7l21.3-0.2L176.6,182.7z"/>
						
							<rect x="157" y="188.1" transform="matrix(1 -6.328788e-03 6.328788e-03 1 -1.1931 1.065)" class="st17" width="21.3" height="1.9"/>
					</g>
				</g>
				<g>
					<path class="st18" d="M173,101.4c0,0,6.2,7.2,5.3,19.8l-0.3,56.1l-11.8-0.3l-3.7-76.3L173,101.4z"/>
					<polyline class="st19" points="163.9,133.8 163.3,117.6 158.8,111.4 					"/>
				</g>
			</g>
		</g>
		<g>
			<g>
				<g>
					<g>
						<path class="st5" d="M127.5,69.1l4.3,17.8c0.6,2.3,3.2,3.4,5.3,2.3l1.4-1.5l-7.1-20.4L127.5,69.1z"/>
						<g>
							<path class="st5" d="M130.6,69c-1.7,1.5-4.3,1.2-5.7-0.6c-1.5-1.7-1.2-4.3,0.6-5.7c1.7-1.5,4.3-1.2,5.7,0.6
								C132.6,64.9,132.3,67.5,130.6,69z"/>
						</g>
					</g>
					<path class="st5" d="M135.6,83.8l17.1-6.3l-0.8,7.1c0,0-9.2,4-15,4.9S135.6,83.8,135.6,83.8z"/>
				</g>
				<path class="st15" d="M157.1,76.2c0,0-1.6-2.4-5.6-0.7c-4.1,1.7-11.5,4.1-11.5,4.1l6.4,11l12.2-4.6L157.1,76.2z"/>
			</g>
			<g>
				<path class="st15" d="M173.4,73.7l-9-0.8L153.1,75c0,0-0.7,16.3,1.2,24.6c0.3,1.5,1.7,2.5,3.2,2.4l16.2,0.2c0,0,2.2-1.6,2.3-5
					L174.8,75C174.6,74.4,174.1,73.8,173.4,73.7z"/>
				<line class="st16" x1="152.6" y1="87.9" x2="152" y2="81.7"/>
			</g>
		</g>
		<g>
			<path class="st20" d="M172.6,56.8c0,0-0.7,15.7,4.3,15.3c0,0-4.1,3.1-11-0.2l-4.5-11.1L172.6,56.8z"/>
			<path class="st12" d="M158.7,61.8c0.1,1.3-0.9,2.6-2.2,2.7s-2.6-0.9-2.7-2.2c-0.1-1.3,0.9-2.6,2.2-2.7
				C157.4,59.4,158.5,60.5,158.7,61.8z"/>
			<g>
				<path class="st5" d="M170.7,62.1c0.1,1.3-0.9,2.6-2.2,2.7s-2.6-0.9-2.7-2.2c-0.1-1.3,0.9-2.6,2.2-2.7
					C169.4,59.7,170.7,60.7,170.7,62.1z"/>
			</g>
			<path class="st5" d="M168.8,73.3l-5.1-0.5l-6.6,1.5c0,0,0,4.8,5.4,4.5C168,78.4,168.8,73.3,168.8,73.3z"/>
			<path class="st5" d="M159.5,68.8l0.4,5.4c0.2,1.9,1.4,2.8,3.2,2.7l0,0c1.6-0.2,3-1.1,3.1-2.7l-1.1-8.5L159.5,68.8z"/>
			<polygon class="st12" points="159.8,72.7 166,67 159.4,68.2 			"/>
			<path class="st20" d="M157.3,51.6c0,0,10.9-4.6,14.6,2.5c2.2,4.2-0.4,11.7-5.7,13.8c-1.7,0.7-3.7-14.5-3.7-14.5L157.3,51.6z"/>
			<path class="st5" d="M161.1,69.6L161.1,69.6c-3.2,0.1-5.9-2.4-6-5.1l-0.2-6.1c-0.2-3.2,2.3-6.1,5.6-6.4l0,0
				c3.3-0.2,6.9,2.2,7.1,5.5l0.2,5C167.8,66.4,164.9,69.3,161.1,69.6z"/>
			<path class="st20" d="M167.7,62.3c0,0-0.4-2.5-2.2-3.6s-7-2.7-6.5-6.6c0,0,7.9-2.3,10.8,2.8C172.7,60,167.7,62.3,167.7,62.3z"/>
			<path class="st20" d="M160.3,52c0,0-0.6,3.2-5.6,5.4c0,0-1.2-2.3,2.1-5.5c0.3-0.2,0.7-0.4,1.2-0.4h3.9L160.3,52z"/>
		</g>
	</g>
</g>
<g>
	<g>
		<g>
			<path class="st5" d="M50.9,121.5l9.3-14.5c1.1-1.9,0.3-4.3-1.9-5.1l-1.4,0.3L47.1,120L50.9,121.5z"/>
			<g>
				<path class="st5" d="M48.8,119.4c2.1,0.2,3.6,2.1,3.3,4.2c-0.2,2.1-2.1,3.6-4.2,3.3c-2.1-0.2-3.6-2.1-3.3-4.2
					C44.8,120.7,46.7,119.2,48.8,119.4z"/>
			</g>
		</g>
		<path class="st5" d="M55.2,106.2c-1.2-5.6-3.2-14-3.2-14l4-4.7l4.4,16.5C60.4,104,57.6,111.1,55.2,106.2z"/>
	</g>
	<g>
		<g>
			<polygon class="st5" points="47.7,169.5 47.5,182.5 52.8,182.8 53.5,169.9 			"/>
			<g>
				<g>
					<path class="st6" d="M47.2,181.3l-0.6,6.9h16.9l0,0c0.1-0.8-0.2-1.6-0.8-1.9l-9.5-5H47.2z"/>
					<rect x="46.4" y="188.2" class="st7" width="17.4" height="2"/>
				</g>
			</g>
		</g>
		<g>
			<polygon class="st5" points="30.6,169.5 30.4,182.5 35.7,182.8 36.5,169.9 			"/>
			<g>
				<g>
					<path class="st6" d="M30.1,181.3l-0.6,6.9h16.9l0,0c0.1-0.8-0.2-1.6-0.8-1.9l-9.5-5H30.1z"/>
					<rect x="29.3" y="188.2" class="st7" width="17.4" height="2"/>
				</g>
			</g>
		</g>
		<g>
			<polygon class="st21" points="58.1,144.5 54.8,175.9 45.4,175.9 47.1,147.5 42.3,126.8 38.7,175.1 27.7,175.1 30.4,111.1 
				50.5,109.4 			"/>
		</g>
	</g>
	<g>
		<g>
			<path class="st22" d="M51.7,92.1l6.3,1.2C57.5,82.6,51.2,79,51.2,79L51.7,92.1z"/>
		</g>
		<g>
			<path class="st22" d="M45.1,76.1l6.1,2.9c0.4,0.2,0.7,0.8,0.7,1.3l0.1,35.1l-22.3,1.9l-0.1-39.7c0,0,6-2,11.3-2
				C42.1,75.6,45.1,76.1,45.1,76.1z"/>
			<line class="st23" x1="52.1" y1="85.3" x2="52.1" y2="92.4"/>
		</g>
		<g>
			<g>
				<g>
					<path class="st5" d="M3.9,75.5L11.2,91c1,2,3.6,2.6,5.3,1.1l1-1.8L7.2,73.1L3.9,75.5z"/>
					<g>
						<path class="st5" d="M6.8,74.9c-1.3,1.7-3.7,1.9-5.4,0.5c-1.7-1.3-1.9-3.7-0.5-5.4c1.3-1.7,3.7-1.9,5.4-0.5
							C7.8,70.8,8.1,73.2,6.8,74.9z"/>
					</g>
				</g>
				<path class="st5" d="M13.9,87.8l15.2-7.7v6.5c0,0-8.1,4.7-13.4,6.1C10.4,94.2,13.9,87.8,13.9,87.8z"/>
			</g>
			<path class="st22" d="M33.1,78.3c0,0-1.7-2.1-5.3-0.1S18,83.8,18,83.8l5.7,7.9l10.9-5.5L33.1,78.3z"/>
		</g>
	</g>
	<g>
		<path class="st5" d="M40.7,66.5l-0.9,9.2c-0.3,1.9,1.4,2.9,3.1,3.1l0,0c1.9,0.3,3.3-0.6,3.6-2.7l0.7-5.9L40.7,66.5z"/>
		<path class="st12" d="M47.2,70.9c0,0-6.6-4.4-6.8-2.6c-0.5,5.9,6.1,8.3,6.1,8.3L47.2,70.9z"/>
		<path class="st5" d="M43.5,80.6c-7.5-0.2-6.4-4.7-6.4-4.7l3-0.3l5-0.2l3,1.8C48.1,77.2,49.5,80.9,43.5,80.6z"/>
	</g>
	<g>
		<g>
			<path class="st24" d="M45.5,73.7L45.5,73.7c4,0,7.2-3.1,7.2-7.1l0.1-8.9l-14.5-0.1l-0.1,8.9C38.3,70.4,41.5,73.7,45.5,73.7z"/>
			<path class="st25" d="M52.7,60.5c-1.4-1.3-4-1.1-6.2-1.2c-0.9,0.4-3.2,0-3.6,0.6c-1.3,2.2-0.1,8.8-3,6.9c-3.1-2-0.9,0.7-2.8,0.9
				c-1.2,0.1-1.1-1.9-2-3.6c-0.4,0.7-0.8,1.2-0.8,1.2s-0.7,1.3,0.3-7.6s5.6-7.5,6.5-7.3c1,0.2,10.1-2.4,12.8,2.1
				C56.6,57.1,52.9,60.3,52.7,60.5z"/>
		</g>
	</g>
</g>
<g>
	<g>
		<g>
			<path class="st5" d="M116.1,123.4l-3.6-21.2l-2.6,0.1c-2.3,0.1-3.9,2.3-3.3,4.6l5.2,17L116.1,123.4z"/>
			<g>
				<path class="st5" d="M117.9,126.8c-0.3,2.2-2.3,3.7-4.5,3.3c-2.2-0.3-3.7-2.3-3.3-4.5c0.3-2.2,2.3-3.7,4.5-3.3
					C116.7,122.7,118.2,124.8,117.9,126.8z"/>
			</g>
		</g>
		<path class="st5" d="M106.2,104.4c-0.7-5.6,0.4-15.3,0.4-15.3l7.2-3l-1.2,17.6C112.7,103.7,107,110,106.2,104.4z"/>
	</g>
	<g>
		<g>
			<polygon class="st5" points="104.6,168 104.4,181.5 110.1,181.8 110.9,168.4 			"/>
			<g>
				<g>
					<path class="st6" d="M104.1,180.3l-0.7,7.2h18.2l0,0c0.1-0.8-0.2-1.6-0.9-2l-10.3-5.1L104.1,180.3L104.1,180.3z"/>
					<rect x="103.2" y="187.3" class="st7" width="18.7" height="2.1"/>
				</g>
			</g>
		</g>
		<g>
			<polygon class="st5" points="86.1,168 85.9,181.5 91.6,181.8 92.4,168.4 			"/>
			<g>
				<g>
					<path class="st6" d="M85.6,180.3l-0.7,7.2h18.3l0,0c0.1-0.8-0.2-1.6-0.9-2L92,180.4L85.6,180.3L85.6,180.3z"/>
					<rect x="84.7" y="187.3" class="st7" width="18.7" height="2.1"/>
				</g>
			</g>
		</g>
		<g>
			<polygon class="st21" points="115.8,142.1 112.3,174.6 102.1,174.6 103.9,145.2 98.7,123.8 94.9,173.8 83,173.8 85.9,107.5 
				107.6,105.8 			"/>
		</g>
	</g>
	<g>
		<g>
			<path class="st26" d="M108.2,87.9l6.6,1.2c1-13.1-6.5-14.7-6.5-14.7L108.2,87.9z"/>
		</g>
		<g>
			<path class="st26" d="M101.6,71.4l6.6,3c0.5,0.2,0.8,0.8,0.8,1.4l0.1,36.3l-24,1.9L85,72.9c0,0,6.5-2.1,12.1-2.1
				C98.3,70.8,101.6,71.4,101.6,71.4z"/>
			<line class="st23" x1="109.1" y1="80.8" x2="109.1" y2="88.2"/>
		</g>
		<g>
			<g>
				<g>
					<path class="st5" d="M70.8,52.3l-6,16.7c-0.8,2.2,0.8,4.5,3.1,4.7l2.5,0.2l4.5-21L70.8,52.3z"/>
					<g>
						<path class="st5" d="M73.3,53.9c-2.2,0.3-4.1-1.3-4.3-3.5c-0.2-2.2,1.4-4.2,3.6-4.3c2.2-0.3,4.1,1.3,4.3,3.5
							C77.1,51.7,75.5,53.6,73.3,53.9z"/>
					</g>
				</g>
				<path class="st5" d="M69.8,67.7l16.7,5.5L81,78.8c0,0-9.4-2.5-14.3-5.3C61.8,70.7,69.8,67.7,69.8,67.7z"/>
			</g>
			<path class="st26" d="M90.1,75.7c0,0,0.3-2.8-3.8-4c-4.1-1.2-11.2-3.8-11.2-3.8l-1.6,10.9l12,3.9L90.1,75.7z"/>
		</g>
	</g>
	<g>
		<path class="st5" d="M96.5,61.4L95.6,71c-0.3,1.9,1.4,3,3.2,3.2l0,0c2,0.3,3.5-0.6,3.7-2.8l0.7-6.1L96.5,61.4z"/>
		<path class="st12" d="M103.2,64.9c0,0-6.8-4.6-7-2.7c-0.6,6.1,6.3,8.6,6.3,8.6L103.2,64.9z"/>
		<path class="st5" d="M99.4,76c-7.7-0.2-6.6-4.9-6.6-4.9l3.1-0.4l5.2-0.2l3.1,1.8C104.1,72.5,105.5,76.3,99.4,76z"/>
	</g>
	<g>
		<path class="st24" d="M101.2,68.4L101.2,68.4c4.2,0.1,7.7-3.3,7.7-7.6l0.1-9.5l-15.3-0.1l-0.1,9.5C93.6,65,97,68.4,101.2,68.4z"/>
		<path class="st27" d="M93.9,58.1l2.2,0.1c0.6,0,2.8-0.9,2.7-1.5c-0.2-1.6,0.2-3.8,1.1-4.1c1.4-0.5,6.8,1.7,9.5-0.3
			c3.8-2.8,1.2-7.4-2.2-7.6c0.2,0.8-0.3,1.7-1.4,2.3c-0.3,0.2-0.8-0.9-0.8-0.9s-0.7,1.6-1.1,1.7c-1.1,0.3-2.3,0.5-3.6,0.4
			c-3.9-0.1-9.9-1.8-7.5,8.7L93.9,58.1z"/>
	</g>
	<path class="st24" d="M91,58.6c0,1.4,1.1,2.4,2.4,2.4c1.4,0,2.4-1.1,2.4-2.4c0-1.4-1.1-2.4-2.4-2.4C92.2,56.2,91.1,57.2,91,58.6z"
		/>
</g>
<g>
	<g>
		<g>
			<g>
				<path class="st5" d="M270,126l5-16.5c0.6-2.2-1-4.4-3.2-4.5l-2.5-0.1l-3.5,20.6L270,126z"/>
				<g>
					<path class="st5" d="M267.3,124.4c2.1-0.4,4.1,1.1,4.4,3.2c0.4,2.1-1.1,4.1-3.2,4.4c-2.1,0.4-4.1-1.1-4.4-3.2
						C263.8,126.9,265.2,124.8,267.3,124.4z"/>
				</g>
			</g>
			<path class="st5" d="M269.2,106.4l-1.2-17.1l7,2.9c0,0,1.1,9.4,0.4,14.8C274.7,112.5,269.1,106.4,269.2,106.4z"/>
		</g>
		<g>
			<g>
				<polygon class="st5" points="270.9,169.1 271.6,182.1 277.2,181.8 277,168.8 				"/>
				<g>
					<g>
						<path class="st6" d="M277.5,180.7l-6.1,0.1l-10,4.9c-0.7,0.4-1,1.2-0.9,1.9l0,0h17.6L277.5,180.7L277.5,180.7z"/>
						<rect x="260.2" y="187.5" class="st7" width="18.1" height="2"/>
					</g>
				</g>
			</g>
			<g>
				<polygon class="st5" points="288.8,169.1 289.6,182.1 295.1,181.8 294.9,168.8 				"/>
				<g>
					<g>
						<path class="st6" d="M295.4,180.7l-6.2,0.1l-10,4.9c-0.7,0.4-1,1.2-0.9,1.9l0,0h17.7L295.4,180.7L295.4,180.7z"/>
						<rect x="278.1" y="187.5" class="st7" width="18.1" height="2"/>
					</g>
				</g>
			</g>
			<g>
				<polygon class="st21" points="274.1,108.4 295.1,110.1 297.9,174.4 286.4,174.4 282.7,125.9 277.7,146.6 279.4,175.1 
					269.5,175.1 266.1,143.6 				"/>
			</g>
		</g>
		<g>
			<g>
				<path class="st28" d="M273.4,78c0,0-7.3,1.6-6.3,14.3l6.4-1.2L273.4,78z"/>
			</g>
			<g>
				<path class="st28" d="M284.3,74.5c5.4,0,11.7,2,11.7,2l-0.1,39.9h-23.6l0.4-37c0-0.6,0.3-1.2,0.8-1.4l6.4-2.9
					C279.9,75.1,283.1,74.5,284.3,74.5z"/>
				<line class="st28" x1="272.6" y1="91.4" x2="272.6" y2="84.2"/>
			</g>
			<g>
				<g>
					<g>
						<path class="st5" d="M305.8,57.1l4.4,20.4l2.4-0.2c2.2-0.2,3.8-2.4,3-4.6l-5.8-16.2L305.8,57.1z"/>
						<g>
							<path class="st5" d="M303.8,53.9c0.2-2.1,2-3.7,4.2-3.4c2.1,0.1,3.7,2,3.5,4.2c-0.2,2.1-2,3.7-4.2,3.4
								C305.2,57.8,303.6,56,303.8,53.9z"/>
						</g>
					</g>
					<path class="st5" d="M312.9,76.5c-4.8,2.7-13.1,5.8-13.1,5.8l-5.3-5.4l16.2-5.3C310.7,71.5,317.7,73.8,312.9,76.5z"/>
				</g>
				<path class="st28" d="M311.5,57.2l-6.6,1l2.4,12.4c0.1,0.4-0.1,0.8-0.5,1c-2,0.9-8.1,3.4-11.4,4.4c-4,1.2-4.4,3.3-4.4,3.3
					l4.5,6.8l21.1-10.4c0.5-0.2,0.7-0.8,0.5-1.3L311.5,57.2z"/>
			</g>
		</g>
		<g>
			<path class="st5" d="M278.3,69.2l0.7,5.9c0.2,2.1,1.6,3,3.6,2.7l0,0c1.7-0.2,3.4-1.3,3.1-3.1l-0.9-9.3L278.3,69.2z"/>
			<path class="st12" d="M279,74.5c0,0,6.7-2.4,6.1-8.3c-0.2-1.8-6.8,2.6-6.8,2.6L279,74.5z"/>
		</g>
		<path class="st24" d="M287.8,60.3c-1.3,0-2.3,1-2.3,2.3c0,1.3,1,2.3,2.3,2.3c1.3,0,2.3-1,2.3-2.3C290.1,61.3,289,60.3,287.8,60.3z
			"/>
		<polygon class="st28" points="267.1,92.2 268.4,105.7 265.2,124.4 270.3,125.2 274.3,107.3 273.4,90.7 		"/>
		<path class="st24" d="M287.6,56.7L287.6,56.7c0,0,0.5-5.5-7.4-5.5c-6.9,0.1-7.4,4.6-7.4,5.4h0l0,0.1c0,0,0,0.1,0,0.1h0l0.1,8.1
			c0,4.2,3.4,7.5,7.5,7.4c4.1,0,7.4-3.3,7.4-7.5L287.6,56.7z"/>
		<path class="st29" d="M281.3,50.7c-0.9,0.1-1.8,0-2.6-0.2c-2.5,0.1-4.1,1.8-5,3.3c-0.5,0.8,0.1,1.7,1,1.8c3,0.1,7.1-1.7,8.2-1.3
			c0.9,0.3,1,3.3,0.8,4.9c-0.1,0.6,1.3,1.6,1.9,1.6l1.9-0.1c0.2,0,0.4-0.1,0.5-0.2l0.8-0.8c0.1-0.1,0.2-0.2,0.2-0.4
			C291.1,48.9,285.1,50.6,281.3,50.7z"/>
	</g>
	<polygon class="st30" points="282.6,78.9 279,75.3 277.4,76.1 281.6,80.7 	"/>
	<polygon class="st30" points="282.6,78.9 285.7,74.6 287.6,74.8 283.9,80.7 	"/>
	<path class="st28" d="M288.4,60H283v-0.3c0-0.6-0.5-1-1-1h-2.3c-0.6,0-1,0.5-1,1V60h-1.8v-0.3c0-0.6-0.5-1-1-1h-2.3
		c-0.6,0-1,0.5-1,1v1.2c0,0.6,0.5,1,1,1h2.3c0.6,0,1-0.5,1-1v-0.3h1.8v0.3c0,0.6,0.5,1,1,1h2.3c0.6,0,1-0.5,1-1v-0.4h5.4V60z
		 M276.4,60.8c0,0.3-0.2,0.5-0.5,0.5h-2.3c-0.3,0-0.5-0.2-0.5-0.5v-1.2c0-0.3,0.2-0.5,0.5-0.5h2.3c0.3,0,0.5,0.2,0.5,0.5V60.8z
		 M282.5,60.8c0,0.3-0.2,0.5-0.5,0.5h-2.3c-0.3,0-0.5-0.2-0.5-0.5v-1.2c0-0.3,0.2-0.5,0.5-0.5h2.3c0.3,0,0.5,0.2,0.5,0.5V60.8z"/>
</g>
</svg>
