<?xml version="1.0" encoding="utf-8"?>
<!-- Generator: Adobe Illustrator 24.2.1, SVG Export Plug-In . SVG Version: 6.00 Build 0)  -->
<svg version="1.1" id="Layer_1" xmlns="http://www.w3.org/2000/svg" xmlns:xlink="http://www.w3.org/1999/xlink" x="0px" y="0px"
	 viewBox="0 0 750 500" style="enable-background:new 0 0 750 500;" xml:space="preserve">
<style type="text/css">
	.st0{fill:#cbdee7;}
	.st1{fill:#dde9f2;}
	.st2{fill:#d4e4ec;}
	.st3{fill:#263238;}
	.st4{fill:#AE7461;}
	.st5{fill:#FFBE9D;}
	.st6{fill:#EB996E;}
	.st7{fill:#6F4439;}
	.st8{fill:#455A64;}
	.st9{opacity:0.3;}
	.st10{fill:#15ABEA;}
	.st11{opacity:0.3;enable-background:new    ;}
	.st12{fill:#FFFFFF;}
	.st13{opacity:0.2;}
</style>
<g id="freepik--background-complete--inject-2">
	<path class="st0" d="M242.6,69c-2.1,0.5-4,1.4-5.7,2.8c-0.6,0.5-1.2,0.8-1.9,1.1l-7.4-30.3c-0.6-2.2-2.8-3.5-5-3L191,47.2l0.9,3.6
		c0.2,0.8,0.6,1.6,1.1,2.3c1,1.4,1.8,3,2.2,4.8c1.8,7.4-2.7,14.9-10.1,16.7c-7.4,1.8-14.9-2.7-16.7-10.1c-0.5-2-0.5-4-0.1-6
		c0.2-1,0.2-2,0-3l-0.6-2.5l-32,7.7c-2.7,0.7-4.4,3.4-3.8,6.2c0,0,0,0,0,0l6.9,28.1l-2.2,0.5l-0.8,0.2c-8.6-3.5-18.4,0.6-21.9,9.2
		s0.6,18.4,9.2,21.9c6.1,2.5,13.1,1.2,17.9-3.4c0.4-0.2,0.8-0.4,1.3-0.5l2.8-0.7l7.7,31.4c0.7,2.7,3.4,4.4,6.2,3.7l87.3-21.4
		c2.2-0.5,3.6-2.8,3.1-5l-7.8-32c0.6,0,1.1,0.1,1.7,0.2c3.1,0.7,6.4,0.3,9.4-1c7.8-3.6,11.1-12.9,7.4-20.6
		C256.9,71,249.7,67.5,242.6,69z"/>
	<path class="st0" d="M631.3,236.6c1.2,0.6,2.6,0.9,3.9,0.9c0.5,0,0.9,0.1,1.3,0.2l-8.3,17.8c-0.6,1.3,0,2.9,1.3,3.5l18.6,8.6l1-2.1
		c0.2-0.5,0.4-1,0.4-1.5c0.3-4.8,4.3-8.5,9.1-8.2c1.2,0.1,2.4,0.4,3.5,1c3.9,2,5.7,6.7,4.2,10.8c-0.5,1.4-1.4,2.6-2.5,3.5
		c-0.5,0.4-0.9,0.9-1.2,1.5l-0.7,1.5l18.8,8.8c1.6,0.8,3.5,0.1,4.3-1.6c0,0,0,0,0,0l7.7-16.5l1.3,0.6c0.2,0.1,0.3,0.1,0.4,0.2
		c2.8,5.1,9.3,7,14.4,4.1c5.1-2.8,7-9.3,4.1-14.4c-2-3.6-6-5.8-10.1-5.4c-0.3-0.1-0.6-0.2-0.8-0.3l-1.6-0.8l8.6-18.5
		c0.7-1.6,0-3.5-1.6-4.3l-51.4-23.9c-1.3-0.6-2.9,0-3.5,1.3l-8.7,18.8c-0.3-0.2-0.5-0.5-0.8-0.8c-1.3-1.6-3-2.7-5-3.2
		c-5.2-1.4-10.6,1.7-12,6.9C624.7,229.8,627,234.6,631.3,236.6L631.3,236.6z"/>
	<path class="st1" d="M662.7,436.4c0.8-0.7,1.4-1.5,1.9-2.5c0.1-0.3,0.3-0.6,0.6-0.9l10.2,11.6c0.7,0.9,2,1,2.8,0.3
		c0,0,0.1,0,0.1-0.1l12.1-10.6l-1.2-1.4c-0.3-0.3-0.6-0.6-1-0.8c-3.3-1.7-4.6-5.9-2.9-9.2c1.7-3.3,5.9-4.6,9.2-2.9
		c0.6,0.3,1.1,0.7,1.6,1.2c0.8,0.8,1.4,1.8,1.7,2.9c0.1,0.5,0.4,0.9,0.7,1.3l0.8,1l12.3-10.7c1-0.9,1.2-2.5,0.2-3.6c0,0,0,0,0,0
		l-9.4-10.8l0.8-0.7l0.3-0.2c4.6-0.4,7.9-4.5,7.5-9c-0.4-4.6-4.5-7.9-9-7.5c-1.7,0.2-3.4,0.9-4.7,2c-1.1,0.9-1.9,2.2-2.4,3.5
		c-0.1,0.2-0.3,0.3-0.5,0.5l-1.1,0.9l-10.5-12c-0.9-1-2.5-1.2-3.6-0.2l-33.4,29.3c-0.9,0.7-0.9,2-0.2,2.9l10.7,12.2
		c-0.3,0.1-0.5,0.2-0.8,0.3c-1.5,0.4-2.9,1.3-3.9,2.5c-2.7,3.3-2.1,8.1,1.1,10.8C655.7,439,659.9,438.9,662.7,436.4z"/>
	<path class="st1" d="M543.6,90.6c-1.6-0.5-3.3-0.6-5-0.3c-0.6,0.1-1.1,0.1-1.7,0l6.6-23.7c0.5-1.7-0.6-3.5-2.3-4l-24.7-6.8
		l-0.8,2.8c-0.2,0.7-0.2,1.3-0.2,2c0.7,6-3.6,11.3-9.6,12c-6,0.7-11.3-3.6-12-9.6c-0.3-3,0.6-6,2.5-8.3c0.5-0.6,0.9-1.3,1.1-2.1
		l0.5-2l-25-7c-2.1-0.6-4.3,0.6-5,2.7c0,0,0,0.1,0,0.1l-6.1,22l-1.7-0.5l-0.6-0.2c-4.5-5.7-12.9-6.7-18.6-2.2
		c-5.7,4.5-6.7,12.9-2.2,18.6c3.2,4.1,8.6,5.9,13.7,4.6c0.4,0,0.7,0.1,1.1,0.2l2.2,0.6l-6.8,24.6c-0.6,2.1,0.6,4.3,2.7,5
		c0,0,0.1,0,0.1,0l68.3,18.9c1.7,0.5,3.5-0.6,4-2.3l6.9-25c0.4,0.2,0.8,0.5,1.1,0.8c1.9,1.7,4.3,2.7,6.8,3c6.7,0.6,12.7-4.3,13.3-11
		c0.6-5.9-3.2-11.3-8.9-12.9L543.6,90.6z"/>
	<path class="st1" d="M32.8,346c1.5,0.6,3.1,0.8,4.6,0.7c0.5,0,1.1,0,1.6,0.1l-8,21.7c-0.6,1.6,0.2,3.4,1.8,4c0,0,0,0,0,0l22.5,8.4
		l1-2.6c0.2-0.6,0.3-1.2,0.3-1.9c-0.2-5.6,4.3-10.3,9.9-10.5s10.3,4.3,10.5,9.9c0.1,2.8-1,5.6-3.1,7.6c-0.5,0.5-1,1.1-1.2,1.8
		l-0.7,1.8l22.8,8.6c2,0.7,4.1-0.3,4.9-2.2l7.5-20.1l1.6,0.6c0.2,0.1,0.3,0.1,0.5,0.2c3.8,5.7,11.5,7.3,17.2,3.5
		c5.7-3.8,7.3-11.5,3.5-17.2c-2.7-4.1-7.6-6.2-12.4-5.4c-0.3,0-0.7-0.1-1-0.2l-2-0.8l8.3-22.4c0.7-2-0.3-4.1-2.2-4.9l-62.3-23.2
		c-1.6-0.6-3.4,0.2-4,1.8c0,0,0,0,0,0L46,328.1c-0.4-0.2-0.7-0.5-1-0.8c-1.6-1.7-3.8-2.9-6.1-3.3c-6.3-1-12.2,3.2-13.2,9.4
		C24.8,338.8,27.8,344,32.8,346z"/>
</g>
<g id="freepik--Puzzle--inject-2">
	<path class="st2" d="M358.8,297.6c5.6-0.4,10.4,1.1,15,3.3c2.1,1,4.5,1.6,6.8,1.7l6.1-0.1l0.1-67.7c0-6.4-5.2-11.6-11.6-11.6
		c0,0,0,0,0,0l-64.4,0.2V222c0-2.7,0.7-5.4,1.9-7.8c3.3-6.7,4.4-14.4,3.1-21.7c-3.5-19.7-22.3-32.8-42-29.2
		c-17.2,3.1-29.7,18-29.8,35.4c0,5,1.1,9.9,3.1,14.4c1,2.3,1.6,4.7,1.6,7.3l0.4,3.1h-77.6c-6.4,0-11.6,5.2-11.6,11.6c0,0,0,0,0,0
		v66.2h-5.5c-2.6,0-5.1-0.6-7.4-1.8c-6.5-3.1-13.9-4.1-21-2.9c-18.6,3.4-31,21.2-27.6,39.8c2.9,16.2,17,28,33.5,28.1
		c4.7,0,9.4-1,13.7-2.9c2.2-1,4.5-1.5,6.9-1.5h7.1l0.1,81c0,5.2,4.3,9.4,9.5,9.4c0,0,0,0,0,0h207.6c5.2,0,9.4-6.6,9.4-11.8V365h-8.4
		c-1.9,0-3.9,0.4-5.7,1.1c-16.1,6.5-34.4-1.3-40.9-17.4c-1.6-4.1-2.4-8.4-2.3-12.8C329.4,320.1,343,298.7,358.8,297.6z"/>
	<path class="st3" d="M358.8,297.6l-0.5,0.1c-0.5,0.1-1.1,0.1-1.6,0.3c-2.1,0.4-4.2,1.1-6.1,2.2c-5.1,2.6-11.7,8.5-16.7,18.4
		c-2.9,5.5-4.5,11.5-4.9,17.6c-0.1,3.5,0.4,7,1.4,10.4c1.1,3.7,2.9,7.1,5.3,10c5.4,6.7,13.3,11,21.9,11.6c4.7,0.4,9.4-0.2,13.7-1.9
		c2.3-1,4.7-1.5,7.2-1.4h7.7v0.1c0,11.6,0,24,0,37.1c0,6.5,0,13.2,0,20.1v15.7c0,0.9,0,1.8-0.2,2.7c-0.2,0.9-0.4,1.8-0.7,2.6
		c-0.6,1.7-1.6,3.3-2.9,4.6c-1.3,1.4-3,2.4-4.8,2.7c-1,0.1-1.9,0.1-2.8,0.1H295H189.1h-14c-2.4,0-4.7,0-7.1,0
		c-5.1-0.5-8.9-4.9-8.8-10c0-2.4,0-4.8,0-7.2c0-4.8,0-9.6,0-14.4c0-19.3,0-39-0.1-59l0.3,0.3H155c-1.5,0-2.9,0-4.4,0.1
		c-1.5,0.2-2.9,0.5-4.3,1.1c-1.4,0.6-2.8,1.2-4.2,1.6c-12.1,3.9-25.3,0.6-34.3-8.3c-2.2-2.2-4.2-4.7-5.8-7.5c-0.8-1.4-1.4-2.8-2-4.3
		c-0.3-0.7-0.6-1.5-0.8-2.2l-0.6-2.3c-3.9-15.5,3.5-31.7,17.7-39c3.4-1.7,7-2.8,10.8-3.4c3.7-0.5,7.6-0.4,11.3,0.3
		c1.8,0.3,3.7,0.8,5.4,1.5c0.9,0.3,1.8,0.7,2.6,1.1c0.8,0.4,1.7,0.8,2.5,1.1c3.4,1.4,7.2,0.9,10.9,1l-0.3,0.3c0-14.3,0-28.5,0-42.4
		V238c-0.1-1.7,0-3.5,0.2-5.2c0.3-1.7,1-3.4,2.1-4.8c2.1-2.9,5.3-4.6,8.8-4.9H249l-0.2,0.3c-0.1-1-0.3-2-0.4-3l0,0l0,0
		c0-1.9-0.3-3.7-0.9-5.5c-0.3-0.9-0.7-1.7-1-2.6s-0.7-1.8-1-2.6c-1.1-3.6-1.7-7.3-1.7-11l0.1-2.8c0-0.5,0-0.9,0.1-1.4l0.2-1.4
		c0.2-0.9,0.3-1.8,0.5-2.7l0.7-2.6c0.1-0.4,0.3-0.9,0.4-1.3l0.5-1.3c0.3-0.9,0.7-1.7,1.1-2.5l1.3-2.4l1.5-2.4c2-2.9,4.5-5.6,7.3-7.8
		l1-0.8l1.1-0.7c0.8-0.5,1.5-1,2.2-1.4c1.5-0.9,3.1-1.6,4.8-2.3c3.2-1.3,6.6-2.1,10.1-2.4c1.7-0.2,3.4-0.2,5.1-0.1
		c0.9,0.1,1.7,0.1,2.5,0.2l2.5,0.4c6.6,1.3,12.7,4.3,17.7,8.8c9.6,8.7,13.8,21.8,11,34.5c-0.7,2.9-1.7,5.8-3,8.5
		c-0.6,1.3-1,2.7-1.3,4.2c-0.2,1.4-0.3,2.9-0.3,4.3l-0.2-0.2l49-0.2h11.1h2.7c0.9,0,1.8,0,2.7,0.1c1.8,0.2,3.5,0.8,5,1.7
		c3,1.8,5,4.9,5.5,8.4c0.1,1.6,0.2,3.3,0.1,4.9c0,1.6,0,3.2,0,4.8c0,25.3-0.1,45.4-0.1,59.6v0.1h-0.1c-2.5,0-4.7,0.1-6.9,0.1
		c-2-0.2-3.9-0.7-5.7-1.5c-2.7-1.3-5.5-2.3-8.4-3c-1.7-0.4-3.5-0.6-5.2-0.6c-0.6,0-1,0-1.3,0L358.8,297.6c0.6-0.1,1.2-0.1,1.8-0.1
		c1.8,0,3.5,0.2,5.3,0.5c2.9,0.7,5.8,1.7,8.4,3c1.8,0.8,3.7,1.3,5.7,1.5c2.1,0,4.4-0.1,6.9-0.1l-0.1,0.1V238c0-1.6,0-3.3-0.1-4.9
		c-0.5-3.4-2.4-6.4-5.4-8.1c-1.5-0.9-3.2-1.5-4.9-1.6c-0.9-0.1-1.8-0.1-2.7-0.1h-2.8h-11.1l-49,0.2h-0.2v-0.2
		c-0.1-1.5,0-2.9,0.3-4.4c0.3-1.5,0.7-2.9,1.3-4.3c1.3-2.7,2.3-5.5,3-8.4c2.8-12.5-1.4-25.5-10.9-34.1c-4.9-4.4-11-7.5-17.5-8.7
		l-2.5-0.4c-0.8-0.1-1.7-0.1-2.5-0.2c-1.7-0.1-3.4-0.1-5.1,0.1c-3.4,0.3-6.8,1.1-10,2.4c-1.6,0.6-3.2,1.4-4.7,2.2
		c-0.8,0.4-1.5,1-2.2,1.4l-1.1,0.7l-1,0.8c-2.8,2.2-5.2,4.8-7.2,7.7l-1.5,2.2l-1.3,2.4c-0.4,0.8-0.8,1.6-1.1,2.5l-0.5,1.3
		c-0.2,0.4-0.3,0.8-0.4,1.3l-0.7,2.6c-0.2,0.9-0.3,1.8-0.5,2.7l-0.2,1.4c-0.1,0.4-0.1,0.9-0.1,1.4l-0.1,2.7c0,3.7,0.6,7.4,1.7,10.9
		c0.3,0.9,0.6,1.8,1,2.6s0.8,1.7,1.1,2.6c0.6,1.8,1,3.7,1,5.6l0,0c0.1,1,0.3,2,0.4,3.1v0.3H249l-78.4,0.1c-3.4,0.2-6.5,1.9-8.4,4.7
		c-1,1.3-1.7,2.9-2,4.6c-0.2,1.7-0.3,3.4-0.2,5.2c0,6.9,0,13.8,0,20.8v42.7h-5.8c-1.9,0-3.8-0.4-5.5-1c-0.9-0.3-1.8-0.7-2.6-1.1
		s-1.7-0.7-2.6-1c-1.7-0.6-3.5-1.1-5.4-1.5c-3.7-0.7-7.4-0.8-11.1-0.3c-18.5,2.7-31.4,19.9-28.7,38.4c0.2,1.1,0.4,2.2,0.6,3.3
		l0.6,2.3c0.2,0.8,0.6,1.5,0.8,2.2c0.6,1.5,1.2,2.9,2,4.2c4.7,8.1,12.5,14,21.6,16.2c5.9,1.4,12.1,1.2,17.9-0.6
		c1.4-0.5,2.8-1,4.2-1.6c1.4-0.6,2.9-0.9,4.4-1.1c1.5-0.2,3-0.1,4.5-0.1h4.7v0.3c0,20,0,39.7,0.1,59c0,4.8,0,9.7,0,14.4
		c0,2.4,0,4.8,0,7.2c-0.1,4.8,3.5,9,8.3,9.5c2.3,0.1,4.7,0,7,0h14H295h79.7c0.9,0,1.8,0,2.7-0.1c1.8-0.3,3.4-1.2,4.6-2.6
		c1.2-1.3,2.2-2.8,2.8-4.5c0.3-0.8,0.6-1.7,0.7-2.5c0.1-0.9,0.2-1.7,0.2-2.6c0-1.8,0-3.5,0-5.3v-10.4c0-6.9,0-13.6,0-20.1
		c0-13,0-25.4,0-37.1l0.2,0.2h-7.5c-2.4-0.1-4.9,0.4-7.1,1.3c-4.4,1.7-9.2,2.3-13.9,1.9c-8.6-0.7-16.6-5-22-11.8
		c-2.4-3-4.2-6.5-5.4-10.1c-1-3.4-1.5-6.9-1.4-10.4c0.4-6.2,2.1-12.2,5-17.6c5-9.9,11.7-15.8,16.8-18.3c1.9-1,4-1.7,6.1-2.1
		c0.5-0.1,1.1-0.2,1.6-0.2L358.8,297.6z"/>
	<path class="st1" d="M630.8,300.3c-4.9,0-9.7,1-14.1,3c-1.5,0.7-3.1,1.1-4.7,1.4v-71.2c0-5.2-4.2-9.5-9.5-9.5c0,0,0,0,0,0h-74.1
		v8.4c0,1.9,0.4,3.9,1.1,5.7c1.5,3.7,2.3,7.7,2.3,11.7c0,17.4-14.1,31.5-31.4,31.5c-17.4,0-31.5-14.1-31.5-31.4
		c0-4.6,1-9.2,2.9-13.3c1-2.1,1.5-4.3,1.5-6.6v-5.9l-75-0.2c-6.4,0-11.6,5.2-11.6,11.6l-0.1,66h-5.1c-0.6,0-1.2,0-1.8-0.1
		c-17.1-12.5-41.1-8.7-53.5,8.4s-8.7,41.1,8.4,53.5c12.2,8.9,28.5,9.8,41.6,2.3c1-0.2,2.1-0.3,3.1-0.3h6.6V439
		c0,6.4,5.2,11.6,11.6,11.6h204.9c5.2,0,9.5-4.2,9.5-9.5c0,0,0,0,0,0v-75c1.3,0.3,2.5,0.8,3.7,1.4c6.6,3.2,14,4.3,21.2,3
		c19.2-3.5,32-21.8,28.5-41.1C662.3,312.7,647.8,300.5,630.8,300.3L630.8,300.3z"/>
	<path class="st3" d="M630.8,300.3l2.2,0.1c0.9,0,1.8,0.1,2.7,0.3l1.8,0.3c0.7,0.1,1.3,0.2,2,0.5l2.2,0.6c0.8,0.3,1.6,0.6,2.4,0.9
		c0.4,0.2,0.8,0.3,1.3,0.5l1.3,0.7c0.9,0.4,1.8,0.9,2.7,1.5c9.6,6,15.8,16.3,16.5,27.7c0,0.9,0.1,1.7,0.1,2.6s-0.1,1.8-0.1,2.6
		c0,0.4,0,0.9-0.1,1.3s-0.1,0.9-0.2,1.4l-0.2,1.4c-0.1,0.4-0.2,0.9-0.3,1.4c-1.9,7.9-6.4,14.9-12.9,19.9c-3.6,2.7-7.6,4.8-11.9,6
		c-1.1,0.3-2.3,0.5-3.4,0.8s-2.3,0.4-3.5,0.4c-2.4,0.2-4.8,0.1-7.2-0.2c-2.5-0.3-4.9-0.9-7.2-1.8c-2.4-0.8-4.6-2.2-7.1-2.8l0.2-0.2
		c0,11.5,0,23.7,0,36.6c0,6.4,0,13,0,19.8c0,3.4,0,6.8,0,10.3v7.9c0,0.4,0,0.9,0,1.3c0,0.5-0.1,0.9-0.2,1.3
		c-0.9,3.6-3.8,6.5-7.4,7.2c-0.9,0.2-1.8,0.2-2.8,0.2h-78.3h-104h-20.6c-1.2,0-2.4,0-3.5-0.2c-1.2-0.3-2.3-0.7-3.3-1.2
		c-2.1-1.2-3.8-2.9-4.9-5.1c-0.5-1.1-0.9-2.2-1.1-3.4c-0.2-1.2-0.2-2.4-0.2-3.5v-72.1l0.3,0.3h-4.7c-0.8,0-1.6,0-2.5,0
		c-0.8,0-1.6,0.1-2.4,0.3h0.1c-4.8,2.7-10.1,4.4-15.6,4.9c-17.7,1.6-34.2-9.1-40-25.9c-1.3-3.9-2-8.1-2.1-12.2
		c0-4.1,0.6-8.2,1.9-12.2c1.3-3.9,3.1-7.6,5.5-10.9c1.2-1.6,2.6-3.2,4-4.7l2.3-2.1c0.8-0.7,1.6-1.2,2.4-1.9c3.3-2.4,7-4.2,10.8-5.5
		c3.9-1.2,7.9-1.8,11.9-1.8c8.1,0.1,15.9,2.6,22.4,7.4l-0.1,0c2.3,0.1,4.6,0,6.9,0.1l-0.3,0.3c0-14.1,0-28,0-41.7
		c0-6.9,0-13.7,0-20.4v-2.5c0-0.8,0-1.7,0.1-2.6c0.6-5.3,4.6-9.5,9.8-10.4c1.7-0.2,3.3-0.2,5-0.2h5h9.9l19.4,0.1l37.8,0.1h0.2v5.5
		c0.1,1.8-0.2,3.6-0.7,5.3c-0.3,0.8-0.6,1.7-1,2.4c-0.4,0.8-0.7,1.6-1,2.4c-4,11.4-1,24.1,7.6,32.6c2.3,2.3,5,4.2,7.9,5.7
		c5.7,2.9,12.2,4,18.6,3c6.2-0.9,11.9-3.7,16.5-7.9c2.2-2,4.1-4.4,5.7-7c1.5-2.5,2.7-5.3,3.4-8.2c1.5-5.6,1.4-11.5-0.4-17.1
		c-0.4-1.4-1-2.6-1.4-4c-0.4-1.4-0.6-2.8-0.6-4.2v-8.5h0.2h54.2h18.1c1,0,1.9,0,2.9,0.1c1,0.1,1.9,0.4,2.8,0.8
		c3.5,1.6,5.8,5,5.8,8.9c0,3.6,0,7,0,10.4c0,27,0,47.6-0.1,60.7l-0.1-0.1c3.3-0.4,5.8-2,8.2-2.7c1.9-0.6,3.9-1.1,5.9-1.3
		c1.2-0.2,2.4-0.2,3.6-0.3C630.4,300.3,630.8,300.3,630.8,300.3l-1.2-0.1c-3.2,0.1-6.4,0.7-9.5,1.7c-2.3,0.6-4.9,2.3-8.2,2.7h-0.1
		v-0.1c0-13.1,0-33.7-0.1-60.7c0-3.4,0-6.9,0-10.4c0-3.7-2.2-7.1-5.6-8.6c-0.9-0.4-1.8-0.6-2.7-0.7c-0.9-0.1-1.9-0.1-2.9-0.1h-18.1
		h-54.2l0.2-0.2v8.3c0,1.4,0.2,2.8,0.6,4.1c0.4,1.3,1,2.6,1.4,4c1.8,5.6,1.9,11.6,0.4,17.3c-0.7,2.9-1.9,5.7-3.5,8.3
		c-1.6,2.6-3.5,5-5.8,7.1c-4.6,4.3-10.5,7.1-16.7,8c-6.4,1-13-0.1-18.8-3c-2.9-1.5-5.6-3.4-8-5.8c-2.4-2.4-4.4-5.1-6-8.1
		c-4-7.7-4.7-16.8-1.7-25c0.3-0.8,0.6-1.6,1-2.4c0.4-0.8,0.7-1.6,1-2.4c0.5-1.7,0.8-3.4,0.7-5.1v-5.3l0.2,0.2l-37.8-0.1l-19.4-0.1
		h-9.9h-5c-1.6-0.1-3.3,0-4.9,0.2c-5,0.9-8.8,5-9.4,10c-0.1,0.8-0.1,1.6-0.1,2.5v2.5c0,6.8,0,13.6,0,20.4c0,13.7,0,27.6,0,41.8v0.3
		h-0.3c-2.3,0-4.5,0.1-6.9-0.1h-0.1l-0.1,0c-6.4-4.7-14.2-7.2-22.1-7.3c-4,0-7.9,0.6-11.8,1.8c-3.8,1.3-7.5,3.1-10.7,5.5
		c-0.8,0.6-1.6,1.2-2.4,1.8l-2.2,2c-1.4,1.4-2.7,3-3.9,4.6c-2.4,3.3-4.3,6.9-5.5,10.8c-1.2,3.9-1.8,7.9-1.8,12
		c0.1,9.9,4,19.4,11,26.5c8,8,19.2,12.1,30.5,11.1c5.4-0.5,10.7-2.1,15.4-4.8l0,0l0,0c0.8-0.2,1.7-0.3,2.5-0.3c0.9,0,1.7,0,2.5,0h5
		v72.4c0,1.2,0,2.3,0.2,3.5c0.2,1.1,0.5,2.2,1.1,3.3c1.1,2,2.7,3.7,4.8,4.8c1,0.5,2.1,0.9,3.2,1.2c1.1,0.2,2.3,0.3,3.4,0.2h20.7h104
		h78.4c0.9,0,1.8,0,2.7-0.2c3.5-0.7,6.3-3.4,7.1-6.9c0.2-0.8,0.3-1.7,0.3-2.6v-18.1c0-6.8,0-13.4,0-19.8c0-12.9,0-25.1,0-36.6V366
		h0.2c2.6,0.6,4.7,2,7.1,2.8c2.3,0.8,4.7,1.4,7.2,1.8c2.4,0.3,4.8,0.4,7.2,0.2c1.2-0.1,2.3-0.2,3.5-0.4s2.3-0.4,3.4-0.8
		c12.2-3.5,21.7-13.3,24.6-25.7c0.1-0.5,0.2-0.9,0.3-1.4l0.2-1.4l0.2-1.3c0.1-0.5,0.1-0.9,0.1-1.3c0-0.9,0.1-1.8,0.2-2.6
		c0-0.9-0.1-1.7-0.1-2.6c-0.7-11.3-6.8-21.5-16.4-27.6c-0.9-0.6-1.7-1.1-2.7-1.5l-1.3-0.7c-0.4-0.2-0.9-0.4-1.3-0.5
		c-0.8-0.3-1.6-0.7-2.4-0.9l-2.2-0.6c-0.7-0.2-1.3-0.4-2-0.5l-1.8-0.3c-0.9-0.2-1.8-0.3-2.7-0.3L630.8,300.3z"/>
</g>
<g id="freepik--Characters--inject-2">
	<path class="st4" d="M381,313.5c0,0,3.4-1.7,6.3-1.1s13.8,7.7,13.8,7.7l8.7-1.6l5.2,24.6L381,357.1V313.5z"/>
	<path class="st5" d="M356,322c0,0,7.8-1,10.6-2.4s9.5-7.4,10.9-7.3s6.5,1.1,6.5,1.1l-2.1,6.2c0,0,10.2,6.2,13.2,8.4
		s12.5,12.4,13,14.9s-0.3,5.4-1.5,6.4s-5.5-1-5.5-1c0.3,1.6,0,3.2-1,4.4c-1.6,2.2-5.4,1.4-5.4,1.4s-0.3,3.6-2.1,4.2
		s-5.6-1.3-5.6-1.3s-1.2,3-2.6,3.4s-5.4-2-5.4-2s-17.3-12.4-21.2-14.3s-5.1-2-5.1-2L356,322z"/>
	<path class="st6" d="M387,357.2c-0.1,0-0.1-0.3-0.3-0.8c-0.2-0.6-0.5-1.2-0.9-1.7c-0.6-0.8-1-1.6-1.3-2.5c0.8,0.6,1.4,1.3,1.8,2.2
		c0.4,0.6,0.6,1.2,0.8,1.9C387.1,356.8,387.1,357.2,387,357.2z"/>
	<path class="st6" d="M394.2,355.1c-0.8-1-1.5-2.1-2.2-3.3c-1.2-1.8-2.5-3-2.4-3.1c1.2,0.7,2.1,1.7,2.8,2.8
		C393.2,352.6,393.8,353.8,394.2,355.1z"/>
	<path class="st6" d="M401.1,348.8c-0.1,0-0.6-1.8-1.8-3.9s-2.6-3.4-2.5-3.5C399.2,343.2,400.8,345.9,401.1,348.8L401.1,348.8z"/>
	<path class="st6" d="M396.1,335.3c0.7,1.9,0.8,3.9,0.3,5.8c-0.2-1-0.2-1.9-0.2-2.9C396,337.3,396,336.3,396.1,335.3z"/>
	<path class="st4" d="M370.9,325.6c0,0,2.7-8.6,3.7-9.7s10-3.5,10-3.5l2.8,7.3l-2,2.1l-4.3-0.3C381,321.5,378.3,328.6,370.9,325.6z"
		/>
	<path class="st4" d="M354.3,342.7c0,0-1.2,1,0,3.2s4.6,0.6,5.7,0c0,0-1.6,3.8,0.4,5c1.4,0.7,3,1,4.5,0.9c0,0-0.1,2.3,2.8,3.8
		s3.7,0,3.7,0s0.3,3.8,3.7,4.1s4.5-0.8,4.5-0.8l-1.5-2.2c0,0,2-4,0.4-5.7c-1.1-1.1-2.5-1.6-4-1.5c0,0,0.7-3.5-1.3-4.5
		c-1.7-1-3.9-0.5-4.9,1.1c-0.1,0.1-0.2,0.3-0.2,0.4c0,0-0.2-3.9-3-3.8c-1.6,0-3.2,0.7-4.3,1.8L354.3,342.7z"/>
	<path class="st7" d="M368.2,346.5c-0.2,1-0.7,2-1.3,2.9c-0.5,1-1.1,1.8-1.9,2.5c0.3-1,0.8-1.9,1.4-2.8
		C366.9,348.1,367.5,347.3,368.2,346.5z"/>
	<path class="st7" d="M374.6,349.9c-0.3,1.1-0.8,2.1-1.5,3c-0.6,1-1.3,1.8-2.3,2.5C372.1,353.5,373.3,351.7,374.6,349.9L374.6,349.9
		z"/>
	<path class="st3" d="M307.6,390.7h-16.4l-4.2,59.7h16.5c2.8-9.1,9.8-56.5,9.8-56.5L307.6,390.7z"/>
	<path class="st3" d="M214.7,390.7c0,0-10.5,24.6-9.5,34.6s6.9,25.1,6.9,25.1h81.3c1.7-6.8,3.1-13.7,4-20.6c1.8-12.3,6.5-39,6.5-39
		L214.7,390.7z"/>
	<path class="st3" d="M322.1,153c-2.8-3.5-6.1-6.8-6.8-11.2c-0.6-4,1.1-8.4-0.7-12c-2.2-4.5-8.6-5.4-11.3-9.5c-1.3-2-1.6-4.6-3-6.6
		c-2.2-3.5-6.9-4.6-11-4.3s-8.1,1.5-12.2,1.6c-5.7,0.1-11.4-2-16.9-0.7c-6.1,1.5-10,6.6-14.1,11.5l-5.4,5.7c-1.1,1-2.3,1.8-3.5,2.6
		c-2.2,1.3-4.7,2.1-6.6,3.8c-4.1,3.6-4.1,10.8,0,14.4c-4.5,1.3-7.6,5.4-7.7,10.1c0,2.5,1,4.9,1.6,7.3s1,5.1-0.1,7.4
		s-4.1,3.7-6.3,2.4c0.7,3.3,2.8,6.2,5.8,7.8c-1.3,1.2-2.9,1.8-4.6,1.8c4.1,11,16.2,17.2,27.9,17.8c11.7,0.6,23.1-3.3,34.1-7.1
		l31.8-6.7c2.8-0.5,4.1-3.8,4.2-6.6s-0.5-5.8,0.7-8.4c1.5-3.6,5.9-5.3,7.5-8.8C327.1,161.2,324.8,156.5,322.1,153z"/>
	<path class="st3" d="M246.3,178.2c-1.9-7.2-3.9-14.5-4.5-21.9s0-15.1,2.9-22c0.4-1,4.2-8,5.3-7.8c0.8,0.1-1.6,6.6-1.2,7.4
		c3.5,6.9,4.2,14.9,3.2,22.6C250.9,163.8,249,171.1,246.3,178.2"/>
	<path class="st5" d="M247.1,149.7c0.4-18.7,11.5-34.1,30.3-33.3l1.7,0.2c17.4,1.8,30.4,16.7,30,34.1c-0.4,16.2-1,34.2-2.1,42.8
		c-2.1,17.9-20.3,18.8-20.3,18.8l-0.5,29.5l-42.5-29.5L247.1,149.7z"/>
	<path class="st6" d="M286.7,212.3c-8.3-0.9-16.1-4.1-22.5-9.3c0,0,4.2,15.1,22.2,15.4L286.7,212.3z"/>
	<path class="st3" d="M302.8,164.6c-0.1,1.4-1.4,2.4-2.7,2.3c-1.3,0-2.4-1.1-2.4-2.5c0,0,0-0.1,0-0.1c0.1-1.4,1.3-2.4,2.7-2.3
		C301.8,162,302.9,163.2,302.8,164.6C302.8,164.6,302.8,164.6,302.8,164.6z"/>
	<path class="st3" d="M304.4,157.7c-0.4,0.3-2.1-1.3-4.9-1.6s-4.9,0.9-5.2,0.5c-0.1-0.2,0.3-0.7,1.2-1.3c1.3-0.7,2.7-1,4.2-0.8
		c1.4,0.1,2.8,0.7,3.8,1.7C304.4,157,304.6,157.6,304.4,157.7z"/>
	<path class="st3" d="M278,164.6c-0.1,1.4-1.3,2.4-2.7,2.3c-1.4,0-2.4-1.2-2.4-2.5c0,0,0,0,0-0.1c0.1-1.4,1.3-2.4,2.7-2.3
		C277,162,278,163.2,278,164.6C278,164.6,278,164.6,278,164.6z"/>
	<path class="st3" d="M277.4,156c-0.4,0.3-2.1-1.3-4.9-1.6s-4.9,0.9-5.2,0.5c-0.1-0.2,0.3-0.7,1.2-1.3c1.3-0.7,2.7-1,4.2-0.8
		c1.4,0.1,2.8,0.7,3.8,1.7C277.3,155.3,277.6,155.9,277.4,156z"/>
	<path class="st3" d="M285,178.2c0-0.2,1.7-0.3,4.5-0.3c0.7,0,1.4-0.1,1.6-0.5c0.1-0.7,0-1.5-0.3-2.1c-0.5-1.8-1-3.6-1.5-5.6
		c-2.1-7.9-3.5-14.4-3.2-14.5s2.3,6.3,4.3,14.2c0.5,1.9,1,3.8,1.4,5.6c0.4,0.9,0.4,1.9,0.1,2.8c-0.3,0.5-0.7,0.8-1.3,0.9
		c-0.4,0.1-0.8,0.1-1.2,0C286.8,178.5,285,178.3,285,178.2z"/>
	<path class="st3" d="M276.7,179.2c0.5,0,0.1,3,2.5,5.4s5.5,2.4,5.5,2.8c0,0.2-0.8,0.5-2.1,0.4c-1.7-0.2-3.4-0.9-4.6-2.2
		c-1.2-1.2-1.9-2.8-1.9-4.5C276.1,179.9,276.5,179.2,276.7,179.2z"/>
	<path class="st3" d="M278.4,144.9c-0.4,0.7-3,0.1-6.3,0.1s-6,0.6-6.3-0.1c-0.1-0.3,0.4-1,1.5-1.6c3-1.5,6.6-1.5,9.6-0.1
		C278,143.9,278.6,144.5,278.4,144.9z"/>
	<path class="st3" d="M304.3,148.5c-0.5,0.6-2.4-0.3-4.6-0.6s-4.2,0-4.6-0.7c-0.2-0.3,0.2-0.9,1.1-1.4c2.5-1.2,5.4-0.8,7.5,1
		C304.3,147.5,304.5,148.2,304.3,148.5z"/>
	<path class="st5" d="M247.1,163.1c-0.3-0.2-11.9-4.9-12.8,7.3s11.6,10.6,11.7,10.3S247.1,163.1,247.1,163.1z"/>
	<path class="st6" d="M242.6,175.8c0-0.1-0.2,0.1-0.6,0.3c-0.5,0.2-1.1,0.1-1.6-0.1c-1.3-0.6-2.2-2.7-2.1-4.9c0-1,0.3-2.1,0.8-3
		c0.3-0.8,0.9-1.3,1.7-1.5c0.5-0.1,1,0.2,1.2,0.7c0.1,0.4,0.1,0.6,0.1,0.6s0.3-0.2,0.2-0.7c0-0.3-0.2-0.6-0.4-0.8
		c-0.3-0.3-0.7-0.4-1.2-0.4c-1,0.1-1.9,0.8-2.4,1.7c-0.6,1-0.9,2.2-1,3.4c-0.1,2.5,1,4.9,2.7,5.5c0.7,0.2,1.4,0.2,2-0.2
		C242.5,176.1,242.6,175.8,242.6,175.8z"/>
	<path class="st3" d="M302.4,129.9c2.1-1-3.5-7.8-8.2-10.3c-7.2-3.8-18.3-6.6-25.2-5.1c-8.3,1.8-15.4,5.4-20,12.6
		c-4.6,7.2-6.7,15.8-7,24.3c-0.1,2.6,0,5.3,1.2,7.6c1.5,2.8,4.7,4.7,4.3,8.5c-0.2,1.4,0.2,2.7,1,3.8c2.1,2.5,5,0.5,6.4-1.7
		c3-4.6,3.7-10.4,4.3-15.8c0.4-3.9,0.8-7.9,0-11.7c-0.5-2.1-1.3-4.1-1.7-6.2c-0.5-2.1,0-4.3,1.3-6.1c0.3-0.4,0.7-0.7,1.1-1
		c3.7-2.8,8.6-3.4,12.9-1.6c6.8,2.9,18.3,7.3,21.5,5.2c4.6-3.1,5.9-5.2,5.9-5.2L302.4,129.9z"/>
	<path class="st3" d="M269.7,112.8c6.9-1.8,14.6-1.2,20.7,2.5c3.2,2,6.1,4.9,6.9,8.6s-1,8.1-4.6,9.3l-0.3,0.1
		c-5.4,1.4-8.7,0.5-13.8-1.6c-4.3-1.8-8-4.8-12.3-6.6c-4.6-1.9-9.7-2.4-14.6-1.4C256.7,118.8,262.8,114.7,269.7,112.8z"/>
	<path class="st8" d="M272.8,110.7c0.4,0,0.8,0,1.3,0.1c1.1,0.2,2.2,0.5,3.3,0.9c1.6,0.6,3.1,1.4,4.5,2.3c1.7,1.2,3.3,2.6,4.5,4.3
		c1.2,1.7,2,3.7,2.5,5.7c0.4,1.6,0.7,3.3,0.8,5c0.1,1.4,0.1,2.6,0.1,3.4c0,0.4,0,0.8-0.1,1.3c-0.1-0.4-0.1-0.8-0.1-1.3
		c0-0.8-0.1-2-0.3-3.4c-0.2-1.7-0.4-3.3-0.9-4.9c-0.5-2-1.3-3.9-2.4-5.5c-1.2-1.6-2.7-3.1-4.4-4.2c-1.4-1-2.8-1.8-4.4-2.4
		C275.8,111.5,274.3,111.1,272.8,110.7z"/>
	<path class="st8" d="M284.1,110c0.4,0.1,0.7,0.2,1.1,0.3c0.4,0.1,0.8,0.3,1.2,0.5l1.5,0.8c2.9,1.8,5.1,4.4,6.4,7.5
		c0.4,0.9,0.7,1.8,0.9,2.7c0.2,0.9,0.3,1.7,0.4,2.6c0.1,0.8,0.1,1.6,0,2.4c-0.1,0.7-0.1,1.4-0.3,2.1c-0.1,0.6-0.3,1.1-0.5,1.7
		c-0.1,0.4-0.3,0.8-0.5,1.2c-0.1,0.4-0.3,0.7-0.6,1c0.5-1.3,0.9-2.5,1.2-3.9c0.1-0.7,0.2-1.3,0.2-2c0-0.8,0-1.6-0.1-2.3
		c-0.1-0.9-0.2-1.7-0.4-2.5c-0.2-0.9-0.5-1.8-0.9-2.6c-1.2-3-3.4-5.6-6.1-7.4l-1.5-0.8c-0.4-0.2-0.8-0.4-1.2-0.5
		C284.7,110.4,284.4,110.2,284.1,110z"/>
	<path class="st8" d="M292.1,238.8c0,1.7,8.4,38.7,11.7,47.8s13.5,100.3,12.1,106.8s-4.8,6.2-4.8,6.2s-82.6-5.2-91.5-4.4
		s-12.6,0.5-14.8-9.6s0.1-62.8-1.8-75.6s-1.9-18.9-2.6-37.8c-0.6-16.4,3.1-29.6,10.9-39.1s25.1-19.1,25.1-19.1l6.1-8.9l43.3,22.9
		l1-5.2l2.6,8.1L292.1,238.8z"/>
	<g class="st9">
		<path d="M310.7,351.7c-0.7-1.8-3.1-2.3-5-2.5c-18.4-2-37.5-6.6-50.9-19.3c-5.2-5-9.4-11-13.4-17c-8.7-13.2-16.9-26.7-25.1-40.2
			L210,275c3.9,19.1,7.8,32.9,14.1,48.5s11.3,30.8,27.4,35.9c10.4,3.3,30.2,0.8,41.1-0.1c4.5-0.2,9-0.9,13.4-2.1
			c1.3-0.3,2.6-1,3.7-1.9C310.7,354.5,311.1,353,310.7,351.7z"/>
	</g>
	<path class="st8" d="M207.7,270c0.5,0.9,37.2,79.4,53.6,82.6s67.4,4,77.4,2.1s19.7-3.6,19.7-3.6s7.2-17.1,0.6-31.7l-13.7,0.4
		c0,0-38.1-2.1-43.5-3.5s-10-6.5-14.9-6.2l-29-67.4c0,0-18.8-17.5-32.3-12.1S203.8,263,207.7,270z"/>
	<path class="st3" d="M346.4,353.8c0-0.4,0.1-0.9,0.3-1.3c0.2-0.8,0.5-2.1,0.8-3.6s0.5-3.3,0.7-5.4c0.2-2.2,0.2-4.4,0.1-6.6
		c-0.2-4-0.8-8-1.9-11.9c-0.4-1.5-0.8-2.7-1.1-3.5c-0.2-0.4-0.3-0.8-0.4-1.3c0.2,0.4,0.4,0.8,0.6,1.2c0.5,1.1,0.9,2.3,1.2,3.5
		c1.2,3.9,1.8,7.9,2,12c0.1,2.2,0,4.5-0.2,6.7c-0.2,1.8-0.5,3.6-0.9,5.4c-0.2,1.2-0.6,2.4-0.9,3.5
		C346.7,352.9,346.6,353.4,346.4,353.8z"/>
	<path class="st3" d="M258,242.6c0,0,0.2,0.4,0.5,1.2l1.5,3.5l5.9,13.5c5.1,11.7,12.3,28.6,21.2,49.1l-0.2-0.1
		c2.3,0.1,4.5,0.8,6.4,2c2,1.1,3.9,2.4,6,3.4c2.2,0.9,4.5,1.5,6.9,1.6c2.4,0.3,4.9,0.5,7.4,0.7c10,0.8,20.6,1.5,31.6,2.1l0,0
		l13.7-0.4h0.2l0.1,0.1c2.1,5,3,10.3,2.7,15.7c-0.2,5.5-1.4,11-3.4,16.2v0.1h-0.1l-8.7,1.6l-9.5,1.8c-3.2,0.6-6.3,0.9-9.5,1
		c-6.3,0.3-12.6,0.3-18.7,0.3s-12.2-0.2-18.1-0.4s-11.7-0.5-17.3-0.9c-2.8-0.2-5.6-0.5-8.3-0.8c-2.7-0.3-5.4-0.7-8-1.3
		c-1.3-0.5-2.4-1.2-3.5-2c-1.1-0.8-2.1-1.7-3-2.6c-1.8-1.8-3.5-3.7-5.1-5.7c-5.7-7.4-10.8-15.1-15.4-23.2
		c-8.6-14.7-14.8-27-19.1-35.6c-2.1-4.3-3.7-7.6-4.8-9.9s-1.6-3.5-1.6-3.5s0.2,0.3,0.4,0.9s0.7,1.4,1.3,2.6l4.9,9.8
		c4.3,8.5,10.6,20.8,19.2,35.5c4.6,8,9.8,15.8,15.4,23.1c1.6,2,3.3,3.9,5.1,5.7c0.9,0.9,1.9,1.8,2.9,2.6c1,0.8,2.2,1.5,3.4,1.9
		c2.6,0.6,5.3,1,8,1.3c2.7,0.3,5.5,0.6,8.3,0.8c5.6,0.4,11.4,0.7,17.3,0.9s11.9,0.4,18,0.4s12.4,0,18.7-0.3c3.2-0.1,6.3-0.4,9.5-1
		l9.5-1.8l8.7-1.6l-0.2,0.2c2-5.1,3.1-10.5,3.3-16c0.3-5.3-0.6-10.6-2.7-15.5l0.2,0.1l-13.7,0.4l0,0c-11-0.6-21.6-1.3-31.6-2.1
		c-2.5-0.2-5-0.4-7.4-0.7c-1.2-0.1-2.4-0.3-3.6-0.5c-1.2-0.2-2.3-0.6-3.4-1.1c-2.2-1-4.1-2.3-6.1-3.4c-1.9-1.2-4-1.9-6.2-1.9h-0.1
		l-0.1-0.1c-8.8-20.6-16-37.5-21-49.2l-5.7-13.5l-1.5-3.5C258.2,243,258,242.6,258,242.6z"/>
	<path class="st3" d="M254.2,237.3c0,0-0.5-0.5-1.4-1.3c-1.3-1.2-2.7-2.3-4.2-3.2c-2.2-1.4-4.6-2.4-7.1-3.1
		c-6.2-1.7-12.8-1.1-18.5,1.9c-2.3,1.2-4.5,2.7-6.4,4.4c-1.3,1.2-2.5,2.5-3.5,4c-0.4,0.5-0.7,1.1-1.1,1.6c0.1-0.2,0.1-0.3,0.2-0.4
		c0.2-0.3,0.4-0.7,0.7-1.2c1-1.5,2.1-2.9,3.4-4.1c8.7-8.5,22.2-9.9,32.5-3.3c1.5,1,2.9,2.1,4.1,3.3c0.4,0.3,0.7,0.7,1,1.1
		C254,237,254.1,237.2,254.2,237.3z"/>
	<path class="st3" d="M286.9,310.1c-0.4,2-1.1,3.9-1.9,5.7c-0.6,1.9-1.4,3.7-2.3,5.5c0.4-1.9,1.1-3.9,1.9-5.7
		C285.2,313.7,286,311.8,286.9,310.1z"/>
	<path class="st3" d="M353.5,323c0,0,0.1-0.1,0.4,0c0.3,0.1,0.6,0.4,0.7,0.7c0.3,0.5,0.3,1.1,0,1.6c-0.4,0.6-1,0.9-1.7,0.8
		c-0.7-0.1-1.2-0.7-1.3-1.4c-0.1-0.5,0.1-1.1,0.5-1.5c0.3-0.2,0.6-0.4,1-0.3C353.3,322.9,353.4,323,353.5,323c-0.1,0-0.7,0-1.2,0.5
		c-0.3,0.3-0.4,0.7-0.3,1.1c0.1,0.5,0.4,0.9,0.9,1c0.5,0.1,1-0.2,1.3-0.6c0.2-0.3,0.2-0.8,0.1-1.1C354,323.2,353.5,323.1,353.5,323z
		"/>
	<path class="st3" d="M286.8,230.7c-0.3-0.1-0.7-0.3-1-0.5l-2.7-1.6l0.2-0.1c-0.5,2.7-1.1,6.8-2,11.6l-0.1,0.3l-0.3-0.2
		c-4-2.5-8.9-5.4-14-8.6c-3.8-2.3-7.4-4.6-10.7-6.6s-6.4-3.7-8.9-5.1l-6.1-3.4l-1.6-0.9c-0.2-0.1-0.4-0.2-0.6-0.4
		c0.2,0.1,0.4,0.1,0.6,0.3l1.7,0.8c1.5,0.7,3.6,1.8,6.2,3.2s5.6,3.1,9,5l10.8,6.6c5.1,3.1,10,6,14,8.6l-0.3,0.1
		c1-4.8,1.5-8.8,2.2-11.5v-0.2l0.2,0.1l2.7,1.7C286.2,230.2,286.5,230.4,286.8,230.7z"/>
	<g class="st9">
		<path d="M245.1,218.5l22.6,16.9c5,3.7,10.1,7.5,16,9.4l-0.4-15.7l-2.3,11L245.1,218.5z"/>
	</g>
	<path class="st3" d="M478,139.8c-4.4,0.6-8.5-2.5-9.1-7c-0.5-3.8,1.7-7.5,5.4-8.7c-3.3-3.3-3.3-8.6-0.1-11.9
		c1.9-1.9,4.5-2.8,7.1-2.4c0.1-5.6,4.7-10,10.3-9.9c1.7,0,3.3,0.5,4.8,1.3c4-3.4,9.8-3.6,14-0.6c4.4-0.9,8.6,1.9,9.5,6.3
		c0.5,2.6-0.3,5.4-2.1,7.3"/>
	<path class="st4" d="M476.9,140.9c1.1-17.9,15.7-32,33.6-32.3h1.8c19.2,0.7,29.3,17.5,28.1,36.7l1.1,68.5l0,0l-46.7,16.7l-0.4-24.7
		c0,0-18.5-2.5-19.1-21C475,176,475.9,157.6,476.9,140.9z"/>
	<path class="st7" d="M494.2,205.8c8.6-0.2,16.9-2.8,24-7.6c0,0-5.4,13.4-23.9,12.1L494.2,205.8z"/>
	<path class="st3" d="M482.1,157.6c0,1.4,1.2,2.6,2.6,2.6c1.4,0.1,2.6-1,2.7-2.4c0,0,0-0.1,0-0.1c0-1.4-1.2-2.6-2.6-2.6
		C483.3,155.1,482.1,156.2,482.1,157.6C482.1,157.6,482.1,157.6,482.1,157.6z"/>
	<path class="st3" d="M481,149.9c0.3,0.3,2.3-1.2,5.1-1.2s5,1.3,5.3,1c0.1-0.2-0.2-0.8-1.1-1.4c-1.2-0.8-2.7-1.2-4.2-1.2
		c-1.5,0-2.9,0.5-4.1,1.4C481.1,149.1,480.9,149.7,481,149.9z"/>
	<path class="st3" d="M507.9,157.6c0,1.4,1.2,2.6,2.6,2.6c1.4,0.1,2.6-1,2.7-2.4c0,0,0,0,0-0.1c0-1.4-1.2-2.6-2.6-2.6
		C509.2,155.1,508,156.2,507.9,157.6C507.9,157.6,507.9,157.6,507.9,157.6z"/>
	<path class="st3" d="M508.9,149.9c0.3,0.3,2.3-1.2,5.1-1.2c2.8-0.1,5,1.3,5.3,1c0.2-0.2-0.2-0.8-1.1-1.4c-1.2-0.8-2.7-1.2-4.2-1.2
		c-1.5,0-2.9,0.5-4.1,1.4C509,149.1,508.8,149.7,508.9,149.9z"/>
	<path class="st3" d="M499,171.1c0-0.2-1.8-0.4-4.6-0.7c-0.7-0.1-1.4-0.2-1.5-0.7c-0.1-0.7,0.1-1.5,0.4-2.2c0.6-1.8,1.3-3.6,2-5.6
		c2.8-7.9,4.8-14.4,4.5-14.5s-2.9,6.2-5.7,14.1c-0.7,1.9-1.3,3.8-1.9,5.6c-0.4,0.9-0.5,1.9-0.3,2.9c0.2,0.5,0.7,0.9,1.2,1
		c0.4,0.1,0.8,0.1,1.2,0.1C497.3,171.3,499,171.3,499,171.1z"/>
	<path class="st3" d="M507.9,140.2c0.4,0.7,2.8-0.1,5.8-0.3s5.5,0.3,5.8-0.5c0.1-0.4-0.4-1-1.5-1.6c-1.4-0.7-3-1-4.5-0.9
		c-1.5,0.1-3,0.6-4.3,1.4C508.1,139.2,507.7,139.9,507.9,140.2z"/>
	<path class="st3" d="M480.5,139.9c0.6,0.6,2.9-0.1,5.8-0.2s5.2,0.3,5.7-0.4c0.2-0.3-0.1-1-1.2-1.6c-3-1.4-6.4-1.3-9.3,0.4
		C480.5,138.9,480.2,139.6,480.5,139.9z"/>
	<path class="st3" d="M478.5,132.4c0,0,4.6-11.7,10.1-14.5c6.7-3.4,9.7,3.9,16.1,2s12.8-5.2,19.4-0.3c7.3,5.3,4,9.2,4.6,17.4
		c2.5,33.2,8.7,42.4,10.1,26.8c0.2-1.7,4.9-3.2,5.4-10.4c0.7-9.4,0.8-20.8-1.4-27.4c-1.9-5.6-5.2-9.4-11-13.6
		c-9.2-6.6-21.6-6.4-30.1-5.4S477.4,118,478.5,132.4z"/>
	<path class="st4" d="M537.8,163.3c0-2.8,2.3-5,5.1-4.9c0.1,0,0.2,0,0.3,0c3.5,0.3,7.3,2.1,7.2,9.3c-0.2,12.6-12.8,9.9-12.8,9.5
		S537.7,168.6,537.8,163.3z"/>
	<path class="st7" d="M540.3,172.4c0,0,0.2,0.1,0.6,0.3c0.5,0.2,1.1,0.2,1.6,0c1.3-0.5,2.5-2.6,2.6-4.9c0-1.1-0.1-2.2-0.6-3.2
		c-0.2-0.8-0.8-1.4-1.6-1.7c-0.5-0.1-1.1,0.1-1.3,0.6c-0.2,0.4-0.1,0.6-0.2,0.6s-0.3-0.2-0.2-0.7c0.1-0.3,0.3-0.6,0.5-0.8
		c0.3-0.3,0.8-0.4,1.2-0.3c1.1,0.2,1.9,1,2.3,2c0.5,1.1,0.8,2.3,0.7,3.5c-0.1,2.5-1.4,4.9-3.3,5.4c-0.7,0.2-1.4,0.1-2-0.4
		C540.3,172.7,540.3,172.4,540.3,172.4z"/>
	<path class="st3" d="M537,138.8c-1.5,1.3-3.3,2.2-5.3,2.6c-2,0.2-4.3-0.9-4.6-2.8c-0.2-0.9,0-1.9-0.6-2.6s-2-0.5-3-0.4
		c-3.8,0.4-7.3-2-8.5-5.6c-0.9,1.4-3.1,1.4-4.5,0.5s-2.4-2.4-3.5-3.6s-2.7-2.3-4.4-2.1c-0.9,0.2-1.8,0.7-2.7,0.7
		c-1.7-0.1-2.5-2-2.8-3.7s-0.5-3.6-1.9-4.4s-3-0.3-4.5,0s-3.5-0.1-3.9-1.5c-0.1-0.8,0-1.6,0.5-2.3c2-3.2,6-4.6,9.6-3.3
		c1.6-5.9,7.7-9.4,13.6-7.8c2.8,0.8,5.2,2.6,6.7,5.2c4.5-4.3,11.7-4,15.9,0.5c0.9,1,1.6,2.1,2.1,3.3c4.3-1.2,8.8,1.3,10.1,5.6
		c0.6,2,0.3,4.2-0.6,6.1c2.3,1.3,4.3,3.5,4.4,6.1s-2.4,5.3-4.9,4.6c1.2,2.2,0.4,4.9-1.8,6.1c-2,1.1-4.6,0.5-5.9-1.4"/>
	<path class="st8" d="M496,114c0,0.1,0,0.2,0,0.2c0,0.2,0,0.4,0.1,0.7c0.2,0.9,0.5,1.7,1,2.4c0.7,1.2,1.7,2.2,2.9,2.9
		c1.5,1,3.4,1.5,5.2,1.4l-0.2-0.3c-0.4,1.2-0.2,2.4,0.3,3.5c0.6,1.1,1.3,2.2,2.2,3.1c0.4,0.5,0.9,1,1.4,1.4c0.6,0.4,1.3,0.6,2,0.7
		c1.5,0.2,3-0.4,4-1.5l-0.5-0.1c0.4,2.6,1.9,5,4.2,6.5c1.2,0.9,2.7,1.3,4.2,1.3c1.4-0.1,2.8-0.4,4.1-1l-0.3-0.1
		c0.7,1.5,1.7,2.8,3.1,3.8c1.2,1,2.9,1.5,4.4,1.1c2.7-0.6,4.8-2.8,5.2-5.6l-0.3,0.1c1.3,0.7,2.9,0.9,4.3,0.6c1.1-0.2,2.1-0.7,3-1.4
		c0.5-0.4,1-1,1.4-1.6c0.1-0.2,0.2-0.4,0.3-0.7c-0.5,0.8-1.1,1.5-1.8,2.1c-0.9,0.7-1.9,1.1-2.9,1.3c-1.4,0.3-2.8,0.1-4.1-0.6
		l-0.2-0.1v0.3c-0.5,2.6-2.5,4.6-5,5.1c-1.4,0.3-2.9-0.1-4-1.1c-1.2-1-2.2-2.2-2.9-3.6l-0.1-0.2l-0.2,0.1c-1.2,0.5-2.5,0.8-3.9,0.9
		c-1.4,0-2.7-0.4-3.8-1.2c-2.1-1.4-3.5-3.6-3.9-6.1l-0.1-0.6l-0.4,0.5c-0.9,1-2.2,1.5-3.6,1.4c-0.6-0.1-1.2-0.3-1.8-0.6
		c-0.5-0.4-1-0.8-1.4-1.3c-0.9-0.9-1.6-1.9-2.2-2.9c-0.5-1-0.7-2.1-0.3-3.1l0.1-0.3h-0.3c-1.8,0.1-3.5-0.3-5-1.2
		c-1.1-0.7-2.1-1.6-2.8-2.8C496.7,116.2,496.2,115.1,496,114z"/>
	<path class="st3" d="M508.8,172.1c-0.5,0.1,0.1,3-2.1,5.6s-5.4,2.8-5.4,3.2c0,0.2,0.8,0.4,2.1,0.3c1.7-0.3,3.3-1.2,4.5-2.5
		c1.1-1.3,1.7-2.9,1.6-4.6C509.5,172.7,509,172,508.8,172.1z"/>
	<path class="st10" d="M405.7,315.7c1.6-0.6,54.5-7,54.5-7l21.4-18.2l-2,52.6l-67.5,6.5L405.7,315.7z"/>
	<path class="st11" d="M472.1,298.6c-0.6,0.3-5.9,5-5.9,5l1.6,40.5L472.1,298.6z"/>
	<path class="st3" d="M562.2,393.7h-89.3c0,0,4.7,25.2,6.5,36.8c1,6.7,2.4,13.3,4.3,19.9h80.8c0,0,6-14.6,7.1-24
		S562.2,393.7,562.2,393.7z"/>
	<path class="st3" d="M466.3,396.8c0,0-2.5,28.7,0,53.6h30.9v-22.9L466.3,396.8z"/>
	<path class="st0" d="M483.4,256l9.6-21l1.2-13c0,0,18.5-11.6,27.2-16c6.7-3.2,13.6-6,20.6-8.4v12.3L483.4,256z"/>
	<path class="st10" d="M563.8,363.6c0,0,5.2-70.2,5.6-75.4c0,0,3.1-37.5-3.6-51.8s-21.6-26.9-21.6-26.9l-1.4-7.5l-29.1,18.4
		l-13.5,11.7c-4.6,4.9-8.9,10.2-12.7,15.8c-3.8,5.3-8.1,12.1-10,20.6c-0.7,3.1-8.7,40.5-8.9,66.6c0,0-1.2,22.7-2.5,35.6
		c-1.6,15.9-4.1,52.3-3.6,73.8l94.4-2.9c23.3-3.6,19.2-5.9,19.2-5.9L563.8,363.6z"/>
	<path class="st3" d="M542,209.9l-0.7,0.3l-1.9,0.8c-0.8,0.4-1.8,0.9-3,1.5s-2.5,1.4-3.9,2.4c-7.7,5.4-14.7,11.9-20.7,19.2l0,0.1
		h-0.1l-9.1,1.7l0.2-0.2c-0.1,4.2-0.3,8.6-0.5,13.2v0.1l-0.1,0.1c-4.8,4.5-9.3,9.4-13.3,14.6c-1.7,2.2-3.2,4.5-4.6,6.9l-0.5,0.9
		l-0.4,0.9c-0.3,0.6-0.5,1.2-0.7,1.9c-0.4,1.3-0.8,2.5-1.1,3.8c-1.4,5.1-2.5,10.1-3.6,14.8c-2.1,9.5-3.9,18.1-5.4,25.3
		c-3,14.4-4.6,23.4-4.6,23.4c0-0.5,0.1-1.1,0.2-1.6c0.2-1.1,0.4-2.6,0.8-4.7c0.7-4,1.8-9.9,3.3-17.1s3.2-15.8,5.3-25.3
		c1.1-4.8,2.2-9.7,3.6-14.9c0.3-1.3,0.7-2.6,1.1-3.9c0.2-0.7,0.4-1.3,0.7-1.9l0.4-1l0.5-0.9c1.4-2.4,2.9-4.8,4.6-7
		c4.1-5.2,8.6-10.1,13.4-14.6l-0.1,0.2c0.2-4.6,0.3-9,0.5-13.2v-0.2h0.2l9.1-1.6l-0.1,0.1c6.1-7.3,13.1-13.7,20.9-19.1
		c1.4-1,2.8-1.7,3.9-2.4s2.2-1.1,3-1.5l2-0.8L542,209.9z"/>
	<path class="st10" d="M510.3,265.4l1.1,93.7l-14.3,91.3h37.6c0,0,17.1-69.3,21.1-83.9c3.9-14.1,9.7-85.3,10.2-88.8
		c0.2-1.4,4.3-26-7.7-37.6"/>
	<path class="st3" d="M558.3,240.2c0,0,0.3,0.3,0.8,0.8c0.7,0.8,1.4,1.6,2.1,2.5c2.3,3.5,3.9,7.4,4.7,11.5
		c1.3,6.5,1.5,13.2,0.7,19.8c-0.6,3.8-0.8,7.9-1.3,12.3s-0.8,9-1.3,13.8c-0.9,9.7-1.9,20.3-3.1,31.7c-0.6,5.7-1.3,11.6-2.1,17.6
		c-0.7,6.3-1.8,12.5-3.3,18.6c-6.3,25-13.2,52.6-20.5,81.5v0.2h-38.2v-0.3c5.3-33.7,10.2-64.7,14.3-91.3l0,0
		c-0.3-28.4-0.5-51.8-0.7-68.1c-0.1-8.2-0.1-14.5-0.2-18.9c0-2.2,0-3.8,0-5s0-1.7,0-1.7s0,0.6,0.1,1.7s0,2.8,0.1,5
		c0.1,4.4,0.2,10.8,0.3,18.9c0.2,16.3,0.5,39.8,0.9,68.1l0,0l0,0c-4.1,26.5-9,57.6-14.2,91.3l-0.3-0.3h37.6l-0.3,0.2l20.5-81.5
		c1.5-6.1,2.6-12.3,3.3-18.5c0.8-6,1.5-12,2.1-17.6c1.2-11.4,2.3-22,3.2-31.7c0.5-4.9,0.9-9.5,1.3-13.8c0.4-4.4,0.7-8.5,1.3-12.3
		c0.8-6.6,0.6-13.2-0.6-19.7c-0.8-4.1-2.3-8-4.6-11.5c-0.6-0.9-1.3-1.7-2-2.6C558.5,240.5,558.3,240.2,558.3,240.2z"/>
	<path class="st3" d="M530.2,368.3c-1-0.2-2-0.5-2.9-0.8c-1.8-0.6-4.2-1.5-6.8-2.7s-4.9-2.3-6.5-3.2c-0.9-0.4-1.8-1-2.6-1.6
		c0.9,0.4,1.9,0.8,2.8,1.3c1.7,0.8,4,1.9,6.6,3.1s5,2.1,6.7,2.8C528.4,367.5,529.3,367.9,530.2,368.3z"/>
	<path class="st3" d="M465.8,374.5c0-0.1,0-0.2,0-0.2c0-0.2,0-0.4,0-0.7c0-0.7,0.1-1.6,0.1-2.8c0.1-2.4,0.4-5.9,0.6-10.1
		c0.6-8.5,1.4-20.4,2.6-33.4s2.5-24.8,3.6-33.3c0.5-4.3,1-7.7,1.4-10.1c0.2-1.1,0.3-2.1,0.4-2.7c0-0.3,0.1-0.5,0.1-0.7
		c0-0.1,0-0.2,0.1-0.2c0,0,0,0.1,0,0.2s0,0.4-0.1,0.7c-0.1,0.7-0.2,1.6-0.3,2.7c-0.3,2.4-0.7,5.9-1.2,10.1c-1,8.5-2.3,20.3-3.4,33.3
		s-2,24.8-2.7,33.4c-0.3,4.2-0.6,7.7-0.8,10.1c-0.1,1.2-0.2,2.1-0.3,2.8c0,0.3,0,0.5-0.1,0.7C465.8,374.4,465.8,374.5,465.8,374.5z"
		/>
	<path class="st3" d="M542,228.4c-1-2.6-2.1-5.1-3.5-7.5c-1.5-2.3-3.3-4.4-5.2-6.4c0.7,0.4,1.4,0.9,1.9,1.5c1.4,1.4,2.7,2.9,3.7,4.6
		c1.1,1.7,1.9,3.5,2.5,5.4C541.7,226.7,541.9,227.5,542,228.4z"/>
	<path class="st3" d="M475.6,344.8c0.1,0.2,0.1,0.4,0.1,0.7c-0.1,0.6-0.4,1.2-0.8,1.7c-0.7,0.7-1.8,1-2.7,0.6c-0.6-0.2-1-0.5-1.4-1
		c-0.4-0.5-0.6-1.1-0.6-1.8c0-0.8,0.3-1.5,0.7-2.2c0.2-0.3,0.5-0.5,0.9-0.7c0.4-0.1,0.6-0.2,0.9-0.3h0.1c0.6,0,1.3,0.2,1.8,0.5
		c0.4,0.3,0.7,0.7,0.8,1.2C475.6,343.9,475.7,344.4,475.6,344.8c-0.1,0-0.1-0.4-0.4-1.1c-0.2-0.4-0.4-0.8-0.8-1
		c-0.5-0.3-1-0.4-1.6-0.4h0.1c-0.3,0.1-0.6,0.2-0.9,0.3c-0.3,0.1-0.5,0.3-0.7,0.6c-0.4,0.5-0.6,1.2-0.6,1.9c0,1,0.6,2,1.6,2.3
		c0.8,0.3,1.7,0.1,2.3-0.4c0.4-0.4,0.7-0.9,0.9-1.5C475.6,345,475.6,344.8,475.6,344.8z"/>
	<path class="st3" d="M474.2,377.9c0.1,0.2,0.1,0.4,0.1,0.7c-0.1,0.6-0.4,1.2-0.8,1.7c-0.7,0.7-1.8,1-2.7,0.6c-0.6-0.2-1-0.5-1.4-1
		c-0.4-0.5-0.6-1.1-0.6-1.8c0-0.8,0.3-1.5,0.7-2.2c0.2-0.3,0.5-0.5,0.9-0.7c0.4-0.1,0.6-0.2,0.9-0.3h0.1c0.6,0,1.3,0.2,1.8,0.5
		c0.4,0.3,0.7,0.7,0.8,1.2C474.2,377.1,474.3,377.5,474.2,377.9c-0.1,0-0.1-0.4-0.4-1.1c-0.2-0.4-0.4-0.8-0.8-1
		c-0.5-0.3-1-0.4-1.6-0.4h0.1c-0.3,0.1-0.6,0.2-0.9,0.3c-0.3,0.1-0.5,0.3-0.7,0.6c-0.4,0.5-0.6,1.2-0.6,1.9c0,1,0.6,2,1.6,2.3
		c0.8,0.3,1.7,0.1,2.3-0.4c0.4-0.4,0.7-0.9,0.9-1.5C474.2,378.1,474.2,377.9,474.2,377.9z"/>
	<path class="st3" d="M554.1,234.6c0,0.1-1.3-0.7-3.5-1.6c-1.3-0.5-2.6-0.9-4-1.1c-1.6-0.3-3.3-0.5-5-0.4c-1.7,0-3.4,0.2-5,0.6
		c-1.3,0.3-2.7,0.7-3.9,1.2c-2.2,0.9-3.4,1.7-3.5,1.6c0.2-0.2,0.5-0.5,0.8-0.6c0.3-0.2,0.7-0.4,1-0.6c0.5-0.3,0.9-0.5,1.4-0.7
		c1.3-0.6,2.6-1,4-1.4c3.4-0.8,6.8-0.9,10.2-0.1c1.4,0.3,2.7,0.7,4,1.3c0.5,0.2,1,0.4,1.5,0.7c0.4,0.2,0.7,0.4,1.1,0.6
		C553.5,234.2,553.8,234.4,554.1,234.6z"/>
	<g class="st9">
		<path d="M471.7,322.3c4.1-5.9,5.6-11.5,7.8-18.4c3.2-10.2,4.1-21.7,9.2-31.1c3-5.5,6.5-11.2,11.7-14.8s5.8-7.9,5.7-19.8
			c3.6,0,7.5-2.8,7.9-3.3c2.1-2.4,3.6-5.2,4.5-8.3c-2.5,2.8-6.8,7.4-6.8,7.4s-9.2,1.7-9.1,1.6c-0.2,4.6-0.2,8.6-0.5,13.2
			c0,0-17.6,18.7-19,22.5S471.7,322.3,471.7,322.3z"/>
	</g>
	<g class="st9">
		<path d="M537.1,439.1c22.3-42.3,29.3-97.9,28-150.9c0,0-6.4,64.4-8.6,75.4S537.1,439.1,537.1,439.1z"/>
	</g>
	<path class="st3" d="M540.5,203.1c-0.1,0.2-0.3,0.3-0.5,0.4l-1.5,1l-5.6,3.6L514.7,220l-7.9,5l0,0l-2.5,2c-0.8,0.6-1.6,1.2-2.3,1.9
		c-1.4,1.3-2.6,2.6-3.7,3.8l-0.2,0.2l-0.1-0.3l-2.9-6.7c-0.3-0.8-0.6-1.4-0.8-1.8c-0.1-0.2-0.2-0.4-0.2-0.6c0.1,0.2,0.2,0.4,0.3,0.6
		c0.2,0.4,0.5,1,0.9,1.8l3,6.6l-0.3-0.1c1.1-1.2,2.3-2.5,3.7-3.9c0.7-0.7,1.5-1.4,2.3-2l2.5-2l0,0l7.9-5.1l18.4-11.7l5.6-3.5
		l1.5-0.9C540.1,203.3,540.3,203.2,540.5,203.1z"/>
</g>
<g id="freepik--light-bulb--inject-2">
	<path class="st3" d="M70.3,159.6c-0.1,0.1-4.4-7.3-9.5-16.5s-9.2-16.6-9.1-16.7s4.4,7.3,9.5,16.5S70.4,159.6,70.3,159.6z"/>
	<path class="st3" d="M84.7,127.8c0.1,0-0.1,5.7-0.4,12.6S83.4,153,83.3,153s0.1-5.6,0.4-12.6S84.6,127.8,84.7,127.8z"/>
	<path class="st3" d="M60.1,167.5c0,0.1-4.8-1.4-10.7-3.4s-10.6-3.7-10.5-3.8s4.8,1.4,10.7,3.4S60.1,167.3,60.1,167.5z"/>
	<path class="st10" d="M131.9,181.6c-8.8-20.2-32.4-29.4-52.5-20.5S50,193.5,58.9,213.7c6.2,14.1,20,23.4,35.4,23.9l4,9.2l32-14
		c0,0-2.1-5.3-4-9.9C135.7,211.2,137.9,195.3,131.9,181.6z"/>
	<path class="st12" d="M125.6,234.8c0,0-0.1-0.1-0.3-0.4s-0.4-0.7-0.7-1.3c-0.6-1.1-1.6-2.8-2.7-4.9c-2.3-4.3-5.6-10.6-9.2-18.5
		c-0.9-2-1.8-4.1-2.7-6.3c-0.5-1.1-0.9-2.2-1.4-3.4c-0.5-1.2-0.9-2.4-1.1-3.6c-0.1-0.7,0-1.4,0.3-2c0.2-0.7,0.7-1.2,1.4-1.5
		c0.7-0.2,1.4-0.1,2,0.2c0.6,0.4,1.1,0.9,1.4,1.5c0.6,1.3,0.6,2.8-0.1,4.1c-0.6,1.3-1.7,2.4-2.9,3.1c-1.3,0.7-2.8,1.1-4.3,0.9
		c-1.5-0.1-3-0.7-4.2-1.7c-1.2-0.9-2.2-2.2-2.9-3.6c-0.4-0.7-0.6-1.5-0.7-2.3c-0.1-0.8,0.1-1.6,0.5-2.3c0.3-0.3,0.6-0.6,1-0.7
		c0.4-0.1,0.8-0.2,1.2-0.1c0.8,0.1,1.6,0.5,2.2,1.1c0.6,0.6,1,1.3,1.4,2c0.4,0.7,0.7,1.5,1,2.2c0.6,1.5,1,3.1,1.2,4.8
		c0.2,1.7-0.1,3.4-0.8,4.9c-0.4,0.7-0.9,1.4-1.5,2c-0.6,0.6-1.4,1-2.2,1.3c-0.8,0.2-1.7,0.3-2.5,0.1c-0.8-0.2-1.6-0.5-2.3-1
		c-1.3-0.9-2.5-2-3.5-3.3c-0.5-0.6-1-1.3-1.4-1.9c-0.5-0.6-0.9-1.3-1.3-2c-0.4-0.7-0.5-1.6-0.4-2.4c0.1-0.4,0.2-0.8,0.5-1.1
		c0.2-0.3,0.6-0.6,1-0.6c0.4-0.1,0.8,0,1.2,0.2c0.4,0.2,0.7,0.4,1,0.6c0.6,0.5,1.1,1.1,1.5,1.7c1.8,2.5,2.7,5.5,2.6,8.5
		c-0.1,1.4-0.6,2.8-1.4,4c-0.8,1.2-2,2.1-3.3,2.5c-1.3,0.4-2.8,0.3-4-0.3c-1.2-0.5-2.2-1.5-2.9-2.6c-0.3-0.6-0.5-1.2-0.6-1.8
		c-0.1-0.7,0-1.3,0.3-1.9c0.4-0.6,1.1-0.8,1.7-0.6c0.6,0.2,1.1,0.6,1.5,1.1c0.7,0.9,1.3,1.9,1.8,3l1.5,3c3.9,7.8,6.9,14.2,8.9,18.6
		c1,2.2,1.8,4,2.3,5.1c0.2,0.6,0.4,1,0.6,1.4l0.2,0.5l-0.2-0.4c-0.1-0.3-0.3-0.8-0.6-1.3c-0.5-1.2-1.3-2.9-2.3-5.1
		c-2-4.4-5.1-10.8-9-18.6c-0.5-1-1-2-1.5-3c-0.5-1.1-1-2.1-1.8-3c-0.4-0.5-0.8-0.8-1.4-1c-0.6-0.2-1.2,0-1.5,0.5
		c-0.3,0.6-0.4,1.2-0.3,1.8c0.1,0.6,0.3,1.2,0.6,1.8c0.6,1.1,1.6,2,2.8,2.5c1.2,0.6,2.6,0.7,3.8,0.3c1.3-0.4,2.4-1.3,3.2-2.4
		c0.8-1.2,1.3-2.5,1.4-3.9c0.1-2.9-0.7-5.8-2.5-8.2c-0.4-0.6-0.9-1.2-1.4-1.7c-0.5-0.5-1.3-0.8-2-0.7c-0.7,0.2-1.2,0.8-1.3,1.5
		c-0.1,0.8,0,1.5,0.4,2.2c0.3,0.7,0.8,1.4,1.2,2c0.4,0.6,0.9,1.3,1.4,1.9c1,1.2,2.1,2.3,3.4,3.2c0.7,0.4,1.4,0.7,2.2,0.9
		c0.8,0.2,1.6,0.1,2.4-0.1c1.5-0.5,2.8-1.7,3.5-3.2c0.7-1.5,1-3.1,0.8-4.8c-0.2-1.6-0.6-3.2-1.2-4.7c-0.5-1.5-1.3-2.9-2.4-4.1
		c-0.5-0.6-1.2-0.9-2-1.1c-0.7-0.2-1.5,0.1-2,0.7c-0.4,0.6-0.6,1.4-0.5,2.1c0.1,0.8,0.3,1.5,0.6,2.2c0.6,1.4,1.6,2.6,2.9,3.5
		c1.2,0.9,2.5,1.5,4,1.6c1.4,0.1,2.9-0.2,4.1-0.9c1.2-0.7,2.2-1.7,2.8-3c0.6-1.2,0.7-2.7,0.1-3.9c-0.3-0.6-0.8-1.1-1.3-1.4
		c-0.5-0.3-1.2-0.4-1.8-0.2c-0.6,0.3-1,0.7-1.3,1.3c-0.2,0.6-0.3,1.2-0.3,1.9c0.2,1.2,0.5,2.4,1.1,3.6l1.4,3.4
		c0.9,2.2,1.8,4.3,2.7,6.3c3.6,8,6.8,14.2,9.1,18.6c1.2,2.1,2.1,3.8,2.7,4.9l0.7,1.3C125.5,234.6,125.6,234.8,125.6,234.8z"/>
	<path class="st3" d="M97.5,234.7c-0.2,0-0.3,0-0.5,0.1c-0.3,0-0.8,0.1-1.4,0.1c-1.7,0-3.5-0.1-5.2-0.3c-2.5-0.3-5-0.9-7.5-1.8
		c-8.4-3-15.5-8.9-20-16.6c-0.9-1.5-1.6-3.1-2.3-4.7c-0.2-0.6-0.4-1-0.5-1.3c-0.1-0.2-0.1-0.3-0.1-0.5c0.1,0.1,0.1,0.3,0.2,0.4
		c0.1,0.3,0.3,0.7,0.5,1.3c0.7,1.6,1.4,3.1,2.3,4.6c1.3,2.2,2.8,4.3,4.5,6.2c7.2,7.9,17.3,12.4,27.9,12.5c0.6,0,1.1,0,1.4,0
		L97.5,234.7z"/>
	<path class="st3" d="M58.6,202c0.3,0.6,0.4,1.3,0.5,2c0.2,0.7,0.2,1.4,0.2,2.1c-0.3-0.6-0.4-1.3-0.5-2
		C58.6,203.4,58.5,202.7,58.6,202z"/>
	<path class="st3" d="M131.6,191.9c0-0.1-0.1-0.3-0.1-0.4c-0.1-0.3-0.1-0.7-0.3-1.2c-0.1-0.3-0.1-0.6-0.2-0.9s-0.2-0.6-0.3-1
		c-0.2-0.8-0.5-1.7-0.8-2.5l-0.5-1.4c-0.2-0.5-0.4-1-0.6-1.5c-0.4-1-1-2.1-1.6-3.1c-2.7-4.7-6.3-8.8-10.7-12c-1-0.7-2-1.4-2.9-1.9
		c-0.5-0.3-0.9-0.6-1.4-0.8l-1.3-0.7c-0.8-0.4-1.6-0.7-2.3-1c-0.3-0.1-0.7-0.3-1-0.4l-0.8-0.3l-1.2-0.4c-0.1,0-0.3-0.1-0.4-0.2
		c0.1,0,0.3,0.1,0.4,0.1l1.2,0.3l0.8,0.3c0.3,0.1,0.6,0.2,1,0.4c0.7,0.3,1.5,0.6,2.3,1l1.3,0.6c0.5,0.2,0.9,0.5,1.4,0.8
		c1,0.6,2,1.2,3,1.9c4.4,3.2,8.1,7.3,10.7,12.1c0.6,1,1.1,2.1,1.6,3.2c0.2,0.5,0.4,1,0.6,1.5l0.5,1.4c0.3,0.8,0.5,1.6,0.7,2.4
		c0.1,0.4,0.2,0.7,0.3,1s0.1,0.6,0.1,0.9c0.1,0.5,0.2,0.9,0.2,1.2C131.6,191.6,131.6,191.8,131.6,191.9z"/>
	<g class="st13">
		<path class="st12" d="M82.5,172c-1.3-1.3-3.5-1.6-5.8-1.4c-3.3,0.4-6.2,2.2-8.2,4.8c-6,7.6-8.3,14.5-7.1,24.5
			c0.4,3.4,2.1,8.6,4.9,10.9c1.4,1.2,3.2,1.8,5,1.6c4.7-0.6,6.2-6.1,5.8-10.4c-0.4-4.1-1.7-8.3-0.4-12.2c1.1-3.2,3.8-5.6,5.7-8.4
			S84.9,174.4,82.5,172z"/>
	</g>
	<g class="st13">
		<path class="st12" d="M96.5,164.2c-2.4-1.8-6.2-1.2-7.8,0.5c-1.3,1.5-1.8,3.5-1.4,5.5c0.6,2.4,2.5,4.1,4.9,4.5
			c2.4,0.3,4.7-1,5.8-3.2C98.9,169.4,98.4,165.6,96.5,164.2z"/>
	</g>
	<g id="freepik--2ggvdetif--inject-2">
		<path class="st3" d="M115.4,261.4c1,0.2,2,0.5,2.9,0.9c0.6,0.3,1.4,0.4,2.1,0.1l6.4-2.8c0.7-0.3,1.2-1,1.4-1.7
			c0.2-1,0.7-2,1.4-2.7L115.4,261.4z"/>
	</g>
	<path class="st2" d="M100.6,246.5c0.1,0.1,6,9.5,8.2,13.1c0.9,1.5,2.5,2.4,4.3,2.5c0.7,0,1.4-0.1,2-0.4l14.1-6.2
		c0,0,3.7-1.6,3.2-4.9c-0.5-3.5-4.1-16.3-4.1-16.3L100.6,246.5z"/>
	<path class="st2" d="M107.5,258.3l24.5-10.9c0.4-0.2,0.8,0,1,0.4l0,0.1c0.2,0.4,0,0.8-0.4,1l-24.5,10.9c-0.4,0.2-0.8,0-1-0.4l0-0.1
		C107,258.9,107.1,258.5,107.5,258.3z"/>
	<path class="st3" d="M132.7,248.9c0.2-0.1,0.3-0.2,0.4-0.4c0.1-0.2,0.1-0.5-0.1-0.7c-0.1-0.3-0.5-0.4-0.8-0.4
		c-1.3,0.6-3.3,1.5-5.7,2.6l-18.9,8.4c-0.2,0.1-0.3,0.3-0.4,0.5c0,0.1,0,0.2,0,0.3c0,0.1,0.1,0.2,0.2,0.3c0.1,0.2,0.3,0.2,0.6,0.2
		c0.2-0.1,0.4-0.2,0.7-0.3l2.7-1.2l5-2.2l8.5-3.7l5.8-2.5l1.6-0.7l0.4-0.2C132.6,248.9,132.6,248.9,132.7,248.9l-0.2,0.1l-0.4,0.2
		l-1.6,0.7l-5.7,2.6l-8.5,3.8l-5,2.2l-2.7,1.2l-0.3,0.1c-0.1,0.1-0.2,0.1-0.4,0.1c-0.3,0-0.6-0.1-0.8-0.3c-0.1-0.1-0.2-0.2-0.2-0.4
		c0-0.1,0-0.3,0-0.4c0-0.3,0.2-0.6,0.5-0.7l18.9-8.4c2.4-1.1,4.4-1.9,5.8-2.5c0.4-0.1,0.7,0.1,0.9,0.4c0.1,0.2,0.2,0.5,0.1,0.7
		C133,248.7,132.9,248.8,132.7,248.9z"/>
	<path class="st2" d="M105.6,255.4l25.5-11.3c0.4-0.2,0.8,0,1,0.4l0,0.1c0.2,0.4,0,0.8-0.4,1l-25.5,11.3c-0.4,0.2-0.8,0-1-0.4l0-0.1
		C105,256,105.2,255.5,105.6,255.4z"/>
	<path class="st3" d="M131.8,245.5c0.2-0.1,0.3-0.3,0.4-0.4c0.1-0.2,0-0.5-0.1-0.7c-0.2-0.3-0.5-0.4-0.8-0.3l-5.9,2.7l-19.7,8.8
		c-0.2,0.1-0.3,0.3-0.4,0.5c0,0.1,0,0.2,0,0.3c0,0.1,0.1,0.2,0.2,0.3c0.2,0.2,0.4,0.2,0.6,0.2c0.2-0.1,0.5-0.2,0.7-0.3l2.8-1.2
		l5.2-2.3l8.8-3.9l6-2.6l1.6-0.7l0.4-0.2L131.8,245.5l-0.2,0.1l-0.4,0.2l-1.6,0.7l-5.9,2.7l-8.8,3.9l-5.2,2.3l-2.8,1.2
		c-0.3,0.1-0.4,0.2-0.7,0.3c-0.3,0.1-0.6,0-0.8-0.2c-0.1-0.1-0.2-0.2-0.2-0.4c-0.1-0.1-0.1-0.3-0.1-0.4c0-0.3,0.2-0.6,0.5-0.7
		l19.7-8.7c2.5-1.1,4.6-2,6-2.6c0.4-0.1,0.7,0,0.9,0.4c0.1,0.2,0.2,0.5,0.1,0.8C132.2,245.3,132,245.4,131.8,245.5z"/>
	<path class="st2" d="M103.9,252.3l26.2-11.6c0.4-0.2,0.8,0,1,0.4l0,0.1c0.2,0.4,0,0.8-0.4,1l-26.2,11.6c-0.4,0.2-0.8,0-1-0.4l0-0.1
		C103.3,253,103.5,252.5,103.9,252.3z"/>
	<path class="st3" d="M130.8,242.2c0.4-0.2,0.5-0.7,0.3-1c0-0.1-0.1-0.1-0.1-0.1c-0.2-0.3-0.5-0.4-0.9-0.3l-6.1,2.7l-20.1,9
		c-0.2,0.1-0.4,0.3-0.4,0.5c0,0.1,0,0.2,0,0.3c0,0.1,0.1,0.2,0.2,0.3c0.2,0.1,0.4,0.2,0.6,0.1c0.2-0.1,0.5-0.2,0.7-0.3l2.8-1.3
		l5.3-2.4l9.1-4l6.1-2.7l1.7-0.7l0.4-0.2L130.8,242.2c-0.1,0-0.1,0-0.2,0.1l-0.4,0.2l-1.6,0.8l-6,2.8l-9,4l-5.3,2.4l-2.8,1.3
		l-0.7,0.3c-0.3,0.1-0.6,0-0.9-0.2c-0.1-0.1-0.2-0.2-0.3-0.4c-0.1-0.1-0.1-0.3-0.1-0.5c0-0.3,0.2-0.6,0.5-0.7l20.1-8.9l6.1-2.7
		c0.4-0.2,0.8,0,1,0.3c0.1,0.2,0.2,0.5,0.1,0.8C131.2,242,131,242.1,130.8,242.2z"/>
	<path class="st2" d="M102,249.4l27.3-12.1c0.4-0.2,0.8,0,1,0.4l0,0.1c0.2,0.4,0,0.8-0.4,1l-27.3,12.1c-0.4,0.2-0.8,0-1-0.4l0-0.1
		C101.4,250,101.6,249.6,102,249.4z"/>
	<path class="st3" d="M129.9,238.8c0.2-0.1,0.3-0.3,0.4-0.5c0.1-0.3,0-0.5-0.2-0.7c-0.2-0.3-0.6-0.4-0.9-0.2l-6.3,2.8l-20.9,9.3
		c-0.2,0.1-0.4,0.3-0.4,0.5c0,0.2,0.1,0.5,0.3,0.6c0.2,0.1,0.4,0.2,0.7,0.1l0.8-0.3l2.9-1.3l5.6-2.4l9.4-4.1l6.3-2.8l1.7-0.7
		l0.4-0.2L129.9,238.8l-0.2,0.1l-0.4,0.2l-1.7,0.8l-6.3,2.8l-9.4,4.2l-5.5,2.5l-2.9,1.3l-0.8,0.3c-0.3,0.1-0.6,0.1-0.9-0.1
		c-0.1-0.1-0.2-0.2-0.3-0.4c-0.2-0.4-0.1-1,0.4-1.2c0,0,0,0,0.1,0l20.9-9.2l6.3-2.8c0.3-0.2,0.8-0.1,1,0.2c0.2,0.2,0.2,0.5,0.1,0.8
		C130.2,238.5,130.1,238.6,129.9,238.8C130,238.7,129.9,238.8,129.9,238.8z"/>
	<path class="st10" d="M93.2,239.4c0.1,0.3,3.4,6.2,5.1,9.2c0.6,1.1,1.7,1.9,3,2.1l1.8,0.3l27.2-12l1-1.5c0.7-1.1,0.9-2.4,0.5-3.6
		l-3.4-9.9L93.2,239.4z"/>
	<g class="st9">
		<path d="M109.1,259.3c2.9-0.6,5.7-1.6,8.4-2.9c2.3-1,4.6-2,7.1-3.1c1.8-0.9,3.5-1.7,5.3-2.6c0.7-0.3,1.4-0.8,1.9-1.4L109.1,259.3z
			"/>
	</g>
	<g class="st9">
		<path d="M106.7,256.5c3.1-0.7,6.1-1.8,9-3.2c2.5-1.1,5-2.1,7.7-3.4c2-0.9,3.8-1.8,5.7-2.8c0.8-0.3,1.5-0.8,2.1-1.5L106.7,256.5z"
			/>
	</g>
	<g class="st9">
		<path d="M105.3,253.4c3.1-0.7,6.1-1.8,9-3.2c2.5-1.1,5-2.1,7.7-3.4c2-0.9,3.8-1.8,5.7-2.8c0.8-0.3,1.5-0.9,2.1-1.5L105.3,253.4z"
			/>
	</g>
	<g class="st9">
		<path d="M103.9,250.3c3.1-0.8,6.1-1.8,9-3.2c2.5-1.1,5-2.1,7.7-3.4c2-0.9,3.8-1.8,5.7-2.8c0.8-0.3,1.5-0.8,2.1-1.5L103.9,250.3z"
			/>
	</g>
	<path class="st11" d="M93.2,239.4c0.1,0.3,3.4,6.2,5.1,9.2c0.6,1.1,1.7,1.9,3,2.1l1.8,0.3l27.2-12l1-1.5c0.7-1.1,0.9-2.4,0.5-3.6
		l-3.4-9.9L93.2,239.4z"/>
	<path class="st3" d="M131.7,235.4c0,0.1-7.2,3.3-16.2,7.3s-16.3,7.1-16.3,7s7.2-3.3,16.2-7.3S131.7,235.4,131.7,235.4z"/>
	<path class="st3" d="M128.1,223.8c0,0.1-7.8,3.6-17.6,8s-17.7,7.8-17.7,7.7s7.8-3.6,17.6-8S128.1,223.8,128.1,223.8z"/>
</g>
<g id="freepik--speech-bubble--inject-2">
	<path class="st12" d="M448.3,157l-12.5-1.5c-15.6,15.8-41,16-56.8,0.5c-15.8-15.6-16-41-0.5-56.8c15.6-15.8,41-16,56.8-0.5
		c11.9,11.7,15.3,29.6,8.5,44.9l0,0L448.3,157z"/>
	<path class="st3" d="M448.3,157c0,0-0.1-0.3-0.3-0.9l-0.9-2.6l-3.3-9.9h0.2l0,0c0,0-0.1,0-0.2,0c0,0,0,0,0,0c0,0,0-0.1,0-0.1
		c2.7-6.1,3.8-12.8,3.3-19.5c-0.2-2.1-0.5-4.1-1-6.1c-0.6-2.1-1.3-4.2-2.1-6.3c-8.7-20.2-32.1-29.6-52.3-20.9
		c-12.9,5.5-22,17.5-23.8,31.4c-0.8,6.1-0.2,12.4,1.8,18.2c1.9,5.5,5,10.5,9.1,14.7c7.2,7.4,17.1,11.8,27.4,12.1h1.7
		c0.6,0,1.1,0,1.7-0.1l3.3-0.3c2-0.3,4.1-0.8,6.1-1.3c6.4-1.9,12.2-5.4,16.9-10.1c0,0,0.1,0,0.1,0l9.3,1.1l2.4,0.3L448.3,157
		l-0.7-0.1l-2.4-0.3l-9.4-1h0.1c-4.7,4.8-10.5,8.3-17,10.3c-2,0.6-4.1,1-6.1,1.4l-3.3,0.3c-0.6,0.1-1.1,0.1-1.7,0.1h-1.7
		c-16.7-0.5-31.5-11.2-37-27c-2-5.9-2.7-12.3-1.9-18.5c0.8-6.5,3.3-12.7,7.1-18.1c0.4-0.7,0.9-1.3,1.5-1.9l1.5-1.9l1.7-1.7
		c0.6-0.6,1.1-1.1,1.8-1.6l1.9-1.5c0.6-0.5,1.3-0.9,2-1.4s1.3-0.9,2-1.3l2.1-1.1c5.5-2.9,11.5-4.4,17.7-4.5
		c11.3-0.2,22.1,4.3,29.9,12.4c3.4,3.5,6.1,7.6,8,12.1c0.9,2.1,1.6,4.2,2.1,6.3c0.5,2,0.8,4.1,1,6.2c0.5,6.7-0.7,13.5-3.5,19.6
		l-0.2-0.1l0,0c0.1,0,0.1,0,0.2,0c0,0,0,0,0,0.1c1.4,4.4,2.5,7.7,3.2,10c0.4,1.1,0.6,2,0.8,2.6S448.3,157,448.3,157z"/>
	<polygon class="st3" points="388.8,128.3 393.6,122.9 403.8,131.1 418.9,113.8 423.9,118.6 403.6,140.9 	"/>
	<path class="st1" d="M338.3,160.4l7.9-1c0,0,0.1,0,0.1,0c4,4,9,7,14.5,8.7c1.7,0.5,3.5,0.9,5.2,1.1l2.8,0.3c0.5,0,1,0,1.4,0h1.5
		c4.2-0.1,8.3-1,12.2-2.6c1-0.4,2.1-0.9,3.1-1.5L386,165c-4.9-2.1-9.4-5.1-13.1-8.9c-4-4.1-7.1-9.1-9-14.6c-2-5.8-2.6-12-1.8-18.1
		c0.8-6.4,3.2-12.5,7-17.8c0.4-0.7,0.9-1.3,1.5-1.9l1.5-1.8l0.6-0.7h-1.1c-9.5-0.2-18.7,3.6-25.4,10.5c-2.9,3-5.2,6.4-6.9,10.2
		c-0.7,1.7-1.4,3.5-1.8,5.4c-1.8,7.3-1.1,15,1.9,21.9c0,0,0,0.1,0,0.1l-2.8,8.4c-0.3,1-0.6,1.7-0.8,2.2s-0.3,0.8-0.3,0.8l0.7-0.1
		L338.3,160.4z"/>
	<path class="st3" d="M338.3,160.4c0,0-0.2,0.1-0.7,0.1l-2.1,0.3h-0.1v-0.1c0.8-2.3,2.1-6.2,3.8-11.4v-0.1c0,0,0,0.1,0,0l-0.1-0.2
		l-0.1-0.3l-0.3-0.7c-0.2-0.4-0.4-0.9-0.5-1.4c-0.3-1-0.6-2-0.9-3c-0.6-2.3-0.9-4.6-1-6.9c-0.1-2.6,0.1-5.2,0.6-7.8
		c0.3-1.4,0.6-2.7,1.1-4.1c0.4-1.4,1-2.8,1.6-4.1c2.7-5.9,7.1-10.8,12.5-14.3c6.1-3.9,13.3-5.8,20.5-5.4h0.6l-0.4,0.4l-0.6,0.7l0,0
		c-4.8,5.4-8.1,11.9-9.5,18.9c-3.7,18.7,6.7,37.3,24.5,44.2l0.5,0.2l-0.5,0.2c-1.7,0.9-3.6,1.7-5.4,2.4c-1.8,0.6-3.6,1-5.4,1.4
		c-3.4,0.5-6.8,0.6-10.2,0.1l0,0c-1.2-0.2-2.3-0.4-3.4-0.7c-1.1-0.3-2.1-0.6-3.2-0.9c-1.9-0.7-3.7-1.5-5.5-2.5
		c-2.8-1.6-5.4-3.5-7.6-5.8c0-0.1-0.2,0-0.4,0l-0.5,0.1l-0.9,0.1l-1.6,0.2l-2.5,0.3l-1.5,0.2C338.5,160.4,338.3,160.4,338.3,160.4
		l0.5-0.1l1.5-0.2l2.5-0.3l1.6-0.2l0.9-0.1l0.5-0.1h0.2c0,0,0.1,0,0.1,0c0,0,0.1,0,0.1,0h0c2.3,2.2,4.8,4.2,7.6,5.7
		c3.7,2.1,7.8,3.4,12,4l0,0c1.6,0.2,3.3,0.3,4.9,0.3c1.7,0,3.5-0.2,5.2-0.4c1.8-0.3,3.6-0.8,5.4-1.4c1.8-0.7,3.6-1.4,5.3-2.3v0.4
		c-18-6.9-28.5-25.7-24.8-44.6c1.4-7.1,4.8-13.7,9.6-19.2l0,0l0.7-0.7l0.2,0.4c-13.8-0.8-26.7,6.9-32.6,19.4c-0.6,1.3-1.2,2.6-1.6,4
		c-0.4,1.3-0.8,2.6-1.1,4c-0.9,4.8-0.8,9.8,0.4,14.6c0.3,1,0.5,2.1,0.9,3c0.2,0.5,0.3,0.9,0.5,1.4l0.3,0.7l0.1,0.3l0.1,0.2
		c0.1,0.1,0,0.2,0,0.3v-0.1c-1.8,5.2-3.1,9.1-3.9,11.3l-0.1-0.1l2.1-0.3L338.3,160.4z"/>
</g>
<g id="freepik--chart--inject-2">
	<path class="st10" d="M661.9,89.5h12.4c2.5,0,4.5,2,4.5,4.4v68c0,2.5-2,4.4-4.5,4.4h-12.4c-2.5,0-4.5-2-4.5-4.4V94
		C657.4,91.5,659.4,89.5,661.9,89.5z"/>
	<path class="st10" d="M595.2,134.8h12.1c2.5,0,4.6,2.1,4.6,4.6v25.7c0,2.5-2.1,4.6-4.6,4.6h-12.1c-2.5,0-4.6-2.1-4.6-4.6v-25.7
		C590.6,136.9,592.6,134.8,595.2,134.8z"/>
	<path class="st10" d="M628.5,115.8H640c2.7,0,4.9,2.2,4.9,4.9v44.1c0,2.7-2.2,4.9-4.9,4.9h-11.5c-2.7,0-4.9-2.2-4.9-4.9v-44.1
		C623.5,118,625.8,115.8,628.5,115.8z"/>
	<path class="st3" d="M670.9,64.1c-0.1,0.2-0.3,0.5-0.5,0.7l-1.6,1.9l-6,6.9l-20.9,23.6l-0.2,0.3l-0.3-0.2l-13.1-8.6l0.6-0.1
		l-0.5,0.6c-10.8,12.7-20.5,24.1-27.7,32.5l-0.2,0.2l-0.2-0.2l-10.4-7.7l-2.8-2.1c-0.3-0.2-0.7-0.5-0.9-0.8c0.4,0.2,0.7,0.4,1,0.7
		l2.9,2l10.6,7.5h-0.4l27.5-32.7l0.5-0.6l0.3-0.3l0.3,0.2l13.1,8.6l-0.5,0.1l21.2-23.4l6.2-6.8l1.7-1.8
		C670.5,64.5,670.7,64.3,670.9,64.1z"/>
	<path class="st3" d="M671.6,80.4c-0.2-1.6-0.3-3.3-0.3-4.9c-0.1-3-0.1-7.2-0.1-11.9l0.5,0.4l-0.4,0.1c-4.7,0.8-9,1.4-12,1.9
		c-1.6,0.3-3.3,0.5-5,0.5c1.6-0.5,3.3-0.9,4.9-1.1c3.1-0.6,7.3-1.3,12-2.1l0.4-0.1l0.5-0.1v0.5c0,4.7,0,8.9-0.1,11.9
		C671.9,77.1,671.8,78.7,671.6,80.4z"/>
</g>
</svg>
