<?xml version="1.0" encoding="utf-8"?>
<!-- Generator: Adobe Illustrator 24.2.1, SVG Export Plug-In . SVG Version: 6.00 Build 0)  -->
<svg version="1.1" id="Layer_1" xmlns="http://www.w3.org/2000/svg" xmlns:xlink="http://www.w3.org/1999/xlink" x="0px" y="0px"
	 viewBox="0 0 558.4 425.4" style="enable-background:new 0 0 558.4 425.4;" xml:space="preserve">
<style type="text/css">
	.st0{fill:#D4E4EC;}
	.st1{fill:#C6DBE6;}
	.st2{fill:#E0ECF3;}
	.st3{fill:#F5F5F5;}
	.st4{fill:#15ABEA;}
	.st5{opacity:0.3;}
	.st6{fill:#263238;}
	.st7{fill:#FFFFFF;}
	.st8{fill:#455A64;}
	.st9{fill:none;}
	.st10{opacity:0.4;}
	.st11{opacity:0.5;}
	.st12{fill:#FAFAFA;}
	.st13{fill:#FFBE9D;}
	.st14{fill:#EB996E;}
	.st15{opacity:0.6;}
	.st16{opacity:0.3;enable-background:new    ;}
</style>
<g>
	<g>
		<g>
			<path class="st0" d="M56.9,119.7c-3.9,1-6.3,5-5.2,9c1,3.9,5,6.3,9,5.2c3.9-1,6.3-5,5.2-9C64.8,121.1,60.8,118.7,56.9,119.7z"/>
		</g>
	</g>
	<g>
		<g>
			<path class="st0" d="M60.5,82.6c-0.1,0-0.4,0-0.6,0.1L17,94.1l-1.9-4.4c-1.2-2.9-4.4-4.5-7.5-3.6l-5.5,1.5
				c-1.5,0.4-2.4,1.9-2,3.4s1.9,2.4,3.4,2L9,91.5c0.3-0.1,0.7,0.1,0.8,0.4l11.8,27.6c1.5,3.5,5.4,5.4,9,4.4l28.3-7.5
				c3.5-0.9,5.9-4.3,5.8-7.9l-1.2-23.3C63.4,83.7,62,82.5,60.5,82.6z"/>
		</g>
	</g>
	<g>
		<g>
			<path class="st0" d="M41.4,131.1c-1.1-3.7-5.1-5.9-8.8-4.9c-3.9,1.3-6,5.3-4.9,9.2c1.1,3.7,5,5.9,8.7,4.9h0.1
				C40.4,139,42.6,134.9,41.4,131.1z"/>
		</g>
	</g>
</g>
<g>
	<g id="_02-shop">
		<g id="Glyph">
			<path class="st0" d="M557,42.8l-67.3-23.1l-1,2.8c-1.1,3.1,0.5,6.5,3.7,7.6l8.4,2.9c3.1,1.1,6.5-0.5,7.6-3.7
				c-1.1,3.1,0.5,6.5,3.7,7.6l16.8,5.7c3.1,1.1,6.5-0.5,7.6-3.7c-1.1,3.1,0.5,6.5,3.7,7.6l8.4,2.9c3.1,1.1,6.5-0.5,7.6-3.7L557,42.8
				L557,42.8z"/>
			<path class="st0" d="M557.3,39.8l1.1-19.3c0.1-1.3-0.7-2.6-2-3l-12.9-4.4L540.7,34L557.3,39.8z"/>
			<path class="st0" d="M518.7,4.5l-12.9-4.4c-1.3-0.4-2.7,0-3.4,1.1l-11.1,15.9l16.6,5.7L518.7,4.5z"/>
			<path class="st0" d="M537.7,11l-13.3-4.6l-10.6,18.3L535,32L537.7,11z"/>
			<path class="st0" d="M539.2,49.1c-2-0.7-3.8-2.1-4.9-4c-2,0.9-4.3,1-6.4,0.2l-16.8-5.7c-2-0.7-3.8-2.1-4.9-4
				c-2,0.9-4.3,1-6.4,0.2l-8.4-2.9c-1-0.3-1.8-0.9-2.7-1.5l-10.6,31.3c-0.5,1.6,0.3,3.2,1.8,3.7l5.6,1.9l8.6-25.2
				c0.5-1.6,2.2-2.3,3.7-1.8l14.1,4.8c1.6,0.5,2.3,2.2,1.8,3.7L505.1,75L536,85.7c1.6,0.5,3.2-0.3,3.7-1.8l10.8-31.3
				c-1,0-2-0.1-3-0.4L539.2,49.1z M536.2,66.9c-0.5,1.6-2.2,2.3-3.7,1.8l-14.1-4.8c-1.6-0.5-2.3-2.2-1.8-3.7l2.9-8.4
				c0.5-1.6,2.2-2.3,3.7-1.8l14.1,4.8c1.6,0.5,2.3,2.2,1.8,3.7L536.2,66.9z"/>
		</g>
	</g>
</g>
<g>
	<path class="st0" d="M121.4,50.9l-9,4.5c-1.5,0.8-3.3,0.1-4.1-1.3c-0.8-1.5-0.1-3.3,1.3-4.1l9-4.5c1.5-0.8,3.3-0.1,4.1,1.3
		S122.9,50.1,121.4,50.9z"/>
	<path class="st0" d="M124.6,57.2c-1.5,0.8-3.3,0.1-4.1-1.3l-8.2-16.2c-0.8-1.5-0.1-3.3,1.3-4.1c1.5-0.8,3.3-0.1,4.1,1.3l8.2,16.2
		C126.7,54.6,126.1,56.4,124.6,57.2z"/>
	<path class="st0" d="M115.6,61.7c-1.5,0.8-3.3,0.1-4.1-1.3l-8.2-16.2c-0.8-1.5-0.1-3.3,1.3-4.1c1.5-0.8,3.3-0.1,4.1,1.3l8.2,16.2
		C117.7,59.1,117.1,61,115.6,61.7z"/>
	<path class="st0" d="M139,49.9l-1.8,0.9c-3.5,1.8-7.7,0.3-9.5-3.1l-4.5-9c-1.8-3.5-0.3-7.7,3.1-9.5l1.8-0.9
		c3.5-1.8,7.7-0.3,9.5,3.1l4.5,9C143.9,43.9,142.5,48.2,139,49.9z M129,34.6c-0.5,0.3-0.7,0.9-0.4,1.4l4.5,9
		c0.3,0.5,0.9,0.7,1.4,0.4l1.8-0.9c0.5-0.3,0.7-0.9,0.4-1.4l-4.5-9c-0.3-0.5-0.9-0.7-1.4-0.4L129,34.6z"/>
	<path class="st0" d="M102.8,68.1l-5.3,2.6c-1.5,0.8-3.3,0.1-4.1-1.3c-0.8-1.5-0.1-3.3,1.3-4.1l5.3-2.6c0.6-0.3,0.7-1.1,0.4-1.9
		c-0.4-0.7-1.2-1.1-1.7-0.8l-1.5,0.8c-3.6,1.8-8,0.2-9.9-3.5s-0.5-8.2,3.1-10l5.3-2.6c1.5-0.8,3.3-0.1,4.1,1.3s0.1,3.3-1.3,4.1
		l-5.3,2.6c-0.6,0.3-0.7,1.1-0.4,1.9c0.4,0.7,1.2,1.1,1.7,0.8l1.5-0.8c3.6-1.8,8-0.2,9.9,3.5C107.8,61.9,106.4,66.3,102.8,68.1z"/>
	<path class="st0" d="M151.6,43.6c-1.5,0.8-3.3,0.1-4.1-1.3L139.4,26c-0.8-1.5-0.1-3.3,1.3-4.1l4.5-2.3c4-2,8.8-0.4,10.8,3.6
		s0.4,8.8-3.6,10.8l-1.8,0.9l2.3,4.5C153.7,41,153.1,42.8,151.6,43.6z M148,29.6l1.8-0.9c1-0.5,1.4-1.7,0.9-2.7s-1.7-1.4-2.7-0.9
		l-1.8,0.9L148,29.6z"/>
	<path class="st0" d="M191.4,78.4c1.2-0.4,2-1.6,2-2.9s-0.8-2.4-2-2.8l-35.5-12.2c-1.2-0.4-2.5-0.1-3.3,0.9c-0.8,0.9-1,2.3-0.4,3.4
		L169.4,99c0.6,1.2,1.9,1.8,3.2,1.6c0.3,0,0.6-0.1,0.9-0.3c0.9-0.4,1.5-1.3,1.6-2.3l2.1-14.4L191.4,78.4z"/>
	<path class="st0" d="M146.1,5.7L79.5,39.3c-5.5,2.8-7.7,9.4-4.9,14.9l11.8,23.4c2.8,5.5,9.4,7.7,14.9,4.9l40.6-20.4
		c0.3-2.6,1.4-5.2,3.2-7.3c1-1.2,2.1-2.1,3.5-2.8L98.7,77.1c-2.5,1.3-5.5,0.2-6.8-2.2l-12-23.5c-1.3-2.5-0.2-5.5,2.2-6.8L148.8,11
		c2.5-1.3,5.5-0.2,6.8,2.2l11.8,23.4c1.3,2.5,0.2,5.5-2.2,6.8l-15.6,7.9c2.9-1.3,6.3-1.5,9.5-0.4l2.8,0.9l6-3
		c5.5-2.8,7.7-9.4,4.9-14.9L161,10.5C158.2,5.1,151.6,2.9,146.1,5.7z"/>
</g>
<path class="st1" d="M483.5,365.4c1.9,2.7,2.6,6,2,9.2s-2,6.2-3.9,8.8c-3.6,5.1-9.8,8.9-15.5,11.4c-2.4-6.5,0.5-14.1,2.1-17.8
	C470.9,371,479.2,361.9,483.5,365.4"/>
<path class="st1" d="M466.5,406.6c1.1-3.5,4-6.1,7.6-6.9c3.6-0.7,7.3,0.1,10.3,2.1c1.4,0.9,2.7,2.2,2.9,3.9c0.1,1.6-0.7,3.1-2.1,3.9
	s-2.9,1.2-4.5,1.2C475.4,411.2,470.2,410.4,466.5,406.6"/>
<path class="st2" d="M454.1,416.2c1.6-2.4,3.6-4.5,6-6.2c1.5-1.1,3.1-2,4.7-2.9c3-1.6,6.3-2.4,9.7-2.4c1,0,2,0.2,3,0.4
	c0.4,0.1,0.7,0.2,1,0.4c0,0.1-1.6-0.3-4.1-0.3c-3.3,0.1-6.5,1-9.4,2.5c-1.6,0.9-3.1,1.8-4.6,2.8c-1.2,0.8-2.4,1.7-3.4,2.8
	C456.1,414.3,455.1,415.3,454.1,416.2z"/>
<path class="st2" d="M477.8,372.8c-0.2,0.7-0.5,1.3-0.8,1.9c-0.6,1.2-1.4,3-2.5,5.1c-2.1,4.3-5.2,10.2-8.7,16.6s-6.9,12.2-9.4,16.3
	c-1.3,2-2.3,3.7-3,4.8c-0.3,0.6-0.7,1.2-1.2,1.7c0.3-0.6,0.6-1.3,1-1.9l2.8-4.9c2.4-4.2,5.7-9.9,9.2-16.4l8.9-16.5l2.7-5
	C477,374,477.4,373.4,477.8,372.8z"/>
<path class="st3" d="M458.4,404.9c1.6-7.6-0.6-15.5-5.9-21.1c-1.3-1.4-3.3-2.8-5.1-2s-2.4,3-2.4,4.9c0.2,8.3,5.3,15.7,13,18.7"/>
<path class="st2" d="M451.7,389.3c0,0,0.3,0.3,0.7,0.8s1,1.4,1.7,2.5c1.8,2.8,3.2,5.8,3.9,9.1c0.4,1.8,0.4,3.7,0.2,5.5
	c-0.2,1.5-0.6,2.9-1.3,4.3c-0.4,0.9-0.9,1.8-1.5,2.6c-0.4,0.6-0.6,0.9-0.7,0.9s0.8-1.4,1.7-3.7c0.5-1.4,0.9-2.8,1-4.2
	c0.2-1.8,0.1-3.5-0.2-5.3c-0.7-3.2-1.9-6.2-3.6-9C453,391.7,452.3,390.5,451.7,389.3z"/>
<g id="freepik--Plant--inject-7">
	<path class="st4" d="M93.7,400.7c0.7-2.7-1.1-5.4-3-7.3s-4.3-3.6-5.4-6.2c-1.6-4.1,0.6-9.5-2.2-13c-1.6-2.1-4.7-2.7-6.1-4.9
		c-0.7-1.2-1.2-2.6-1.4-3.9c-1.5-6.9-4.9-13.2-9.8-18.4c-0.4,6.2,1.1,12.3,3.9,17.8c1.2,2.2,2.6,4.3,2.9,6.8c0.6,4-1.6,8.1-0.6,11.9
		c1.2,4.4,6.1,7.4,6.3,11.9c0.2,3.9-3.2,7.3-2.9,11.1c0.2,1.6,0.8,3.2,1.8,4.6c2.9,4.9,7.4,8.4,14.1,8.3l8.2,0.2L93.7,400.7z"/>
	<g class="st5">
		<path d="M93.7,400.7c0.7-2.7-1.1-5.4-3-7.3s-4.3-3.6-5.4-6.2c-1.6-4.1,0.6-9.5-2.2-13c-1.6-2.1-4.7-2.7-6.1-4.9
			c-0.7-1.2-1.2-2.6-1.4-3.9c-1.5-6.9-4.9-13.2-9.8-18.4c-0.4,6.2,1.1,12.3,3.9,17.8c1.2,2.2,2.6,4.3,2.9,6.8
			c0.6,4-1.6,8.1-0.6,11.9c1.2,4.4,6.1,7.4,6.3,11.9c0.2,3.9-3.2,7.3-2.9,11.1c0.2,1.6,0.8,3.2,1.8,4.6c2.9,4.9,7.4,8.4,14.1,8.3
			l8.2,0.2L93.7,400.7z"/>
	</g>
	<path class="st6" d="M100.8,419.7c0.7,0.1,1.5,0.1,2.2,0c0.9-0.1,1.8-0.4,2.7-0.7c1.2-0.5,2.3-1.1,3.3-1.8c0.6-0.5,1.1-1.1,1.3-1.8
		c0.2-0.8,0.4-1.6,0.4-2.5c0-0.9,0.1-1.8,0.2-2.7c0.1-0.9,0.5-1.8,0.9-2.6c0.9-1.6,2.6-3.3,3-5.6c0.4-2.3,0.4-4.8-0.2-7.1
		c-0.6-2.6-0.6-5.2,0.2-7.6c0.9-2.6,2.7-4.8,3.5-7.7s0.5-6,0.7-9.1c0.1-1.5,0.5-3,1.1-4.6c0.7-1.4,1.5-2.8,2.3-4.3
		c1.4-3,1.8-6.6,2.1-10c0.2-1.8,0.4-3.5,0.6-5.3c0.1-1.8,0.5-3.5,0.9-5.3c0.6-1.8,1.2-3.4,2-5c0.4-0.8,0.7-1.8,0.9-2.7
		c0.1-0.9,0.2-1.9,0.2-2.8c0.1-1.9,0-3.7-0.2-5.6c-0.2-1.9-0.6-3.7-0.8-5.6v-0.1v-0.4l-0.4,0.1c-1.8,0.9-3.3,2.1-4.3,3.7
		c-1.2,1.5-2,3.2-2.7,4.9c-1.2,3.5-2.1,7-2.7,10.7c-0.5,3.5-1.6,6.8-3.4,9.8c-0.9,1.4-2,2.8-2.9,4.2c-1.1,1.4-1.8,3-2,4.7
		c-0.5,3.5,1.4,6.4,1.1,9.5c-0.2,1.5-0.7,2.9-1.5,4.2c-0.7,1.3-1.6,2.5-2.5,3.7c-0.8,1.2-1.5,2.5-2.2,3.7c-0.6,1.3-0.9,2.7-1.1,4.1
		c-0.2,2.8,0.2,5.4,0,7.8c-0.2,2.3-0.9,4.6-2,6.7c-0.9,2-2.1,3.9-3,5.6c-0.5,0.9-0.9,1.8-1.2,2.6c-0.4,0.8-0.6,1.6-0.7,2.6
		c-0.2,1.5-0.2,3.2-0.1,4.7c0.2,2.1,1.1,4.2,2.3,6c0.2,0.2,0.5,0.5,0.7,0.7c0.1,0.1,0.4,0.4,0.6,0.5L100.8,419.7
		c-0.5-0.5-1.1-0.9-1.5-1.5c-1.3-1.8-2-3.7-2.2-5.9c-0.2-1.5-0.1-3,0.1-4.6c0.1-0.8,0.4-1.8,0.7-2.5c0.4-0.8,0.8-1.8,1.3-2.6
		c0.9-1.8,2-3.5,3-5.6s1.8-4.4,2-6.9c0.2-2.5-0.1-5.2,0-7.8c0.1-1.4,0.5-2.7,0.9-4c0.6-1.3,1.3-2.5,2.1-3.6c0.8-1.2,1.8-2.5,2.5-3.7
		c0.8-1.3,1.4-2.8,1.5-4.4c0.4-3.3-1.5-6.3-0.9-9.5c0.4-1.6,1.1-3.2,2-4.4c0.9-1.4,2-2.7,2.9-4.2c1.8-3.2,2.9-6.6,3.4-10.1
		c0.5-3.6,1.4-7.1,2.6-10.5c0.6-1.8,1.5-3.4,2.6-4.8c1.2-1.5,2.6-2.7,4.2-3.5l-0.4-0.2v0.4c0.2,1.9,0.6,3.7,0.8,5.6
		c0.2,1.9,0.4,3.7,0.2,5.5c0,0.9-0.1,1.9-0.2,2.7c-0.2,0.8-0.5,1.6-0.8,2.5c-0.7,1.6-1.4,3.4-2,5.2c-0.5,1.8-0.8,3.5-0.9,5.3
		c-0.2,1.8-0.4,3.5-0.6,5.3c-0.4,3.4-0.7,6.9-2,9.8c-0.7,1.5-1.6,2.8-2.3,4.3c-0.7,1.5-1.1,3-1.1,4.7c-0.2,3.2,0.2,6.2-0.6,9
		c-0.8,2.8-2.6,5.2-3.5,7.7c-0.7,2.6-0.8,5.3-0.2,7.8c0.6,2.3,0.6,4.7,0.2,7c-0.5,2.2-2,3.7-3,5.5c-0.5,0.8-0.8,1.8-1.1,2.7
		c-0.1,0.9-0.1,1.8-0.2,2.7c0,0.8-0.1,1.6-0.4,2.3c-0.2,0.7-0.7,1.3-1.3,1.8c-0.9,0.8-2,1.4-3.2,1.8c-0.8,0.4-1.8,0.6-2.6,0.7
		c-0.6,0.1-1.1,0.1-1.6,0.1h-0.5V419.7z"/>
	<path class="st6" d="M126.6,323.7c0,0.1,0,0.1-0.1,0.2c0,0.2-0.1,0.5-0.2,0.7c-0.1,0.6-0.4,1.6-0.7,2.8c-0.4,1.2-1.1,2.6-1.6,4.2
		c-0.7,1.9-1.4,3.9-2,5.7c-0.6,2.2-1.2,4.6-1.8,7.1c-0.5,2.8-1.4,5.4-2.6,8c-0.7,1.3-1.4,2.7-2,4.1c-0.6,1.5-0.9,3-1.2,4.7
		c-0.5,3.3-1.1,6.6-1.8,9.8c-1.6,6.7-3.2,13-4.6,18.9l-3.9,15.3c-1.1,4.3-2,7.8-2.6,10.4c-0.2,1.2-0.5,2.1-0.7,2.8
		c-0.1,0.4-0.1,0.6-0.1,0.7c0,0.1,0,0.1,0,0.2c0-0.1,0.1-0.1,0.1-0.2l0.2-0.7l0.8-2.8c0.7-2.5,1.5-6,2.7-10.3
		c1.2-4.3,2.5-9.6,4-15.3c1.5-5.7,3-12.2,4.7-18.9c0.8-3.3,1.4-6.6,1.8-10c0.2-1.5,0.6-3,1.2-4.6c0.6-1.4,1.3-2.8,2-4.1
		c1.3-2.6,2.1-5.3,2.6-8.1c0.6-2.6,1.1-5,1.6-7.1c0.6-2.1,1.2-4.1,1.9-5.7c0.7-1.6,1.3-3,1.6-4.3c0.4-1.3,0.5-2.2,0.6-2.8
		c0.1-0.4,0.1-0.6,0.1-0.7C126.7,324,126.7,323.8,126.6,323.7z"/>
	<path class="st4" d="M102.4,419.7c5.4-3.2,6.8-12.8,4.7-18.5c-2.1-5.7-6.2-11.1-6.8-17.2c-0.5-4.7,1.1-9.6,0-14.2
		c-1.5-6.2-7.6-11.1-7.5-17.6c0-3.6,2.1-7,1.9-10.5c-0.2-4.4-3.6-8-5.7-11.8c-3.2-6-3.4-13-4.6-19.7c-1.2-6.7-3.6-13.8-9.6-17.1
		c-0.9,5.6-2.3,9.5-1.9,17.2c0.1,2.8,3.4,8.1,3.9,14.1c0.2,3.6,0.5,7.3,0.7,10.9c0,3.5,0.6,7,1.8,10.4c0.9,2.6,2.6,4.8,3.3,7.4
		c1.4,4.9-0.5,10.2,0.7,15.2c0.9,4.2,3.9,7.8,4.4,12.1c0.8,6-3,12.2-1.1,17.9c0.9,2.8,3.3,5.2,4,8.1c0.5,2.2,0,4.7,0.5,6.9
		c0.7,3.6,7.7,6.6,11.5,6.3"/>
	<path class="st6" d="M76.4,298.7c0,0.1,0,0.2,0,0.4c0,0.2,0.1,0.6,0.1,0.9c0.1,0.8,0.2,2,0.6,3.5s1.1,3.3,1.8,5.4
		c0.7,2.1,1.4,4.6,2,7.3c0.6,2.7,1.2,5.7,1.6,9c0.5,3.5,1.3,6.9,2.7,10.2c0.7,1.8,1.5,3.4,2.2,5.3c0.6,1.9,1.1,3.7,1.2,5.7
		c0.4,4.2,0.8,8.3,1.5,12.4c1.6,8.4,3.2,16.4,4.6,23.7c1.4,7.3,2.8,13.8,4,19.3l2.7,13l0.8,3.5c0.1,0.4,0.1,0.7,0.2,0.9
		c0,0.1,0,0.2,0.1,0.4c0-0.1,0-0.2,0-0.4c0-0.2-0.1-0.6-0.1-0.9c-0.1-0.8-0.4-2-0.7-3.5c-0.6-3.2-1.5-7.6-2.6-13s-2.5-12.1-3.9-19.3
		c-1.4-7.3-2.9-15.2-4.6-23.7c-0.7-4.1-1.3-8.2-1.5-12.4c-0.1-2-0.6-4-1.2-5.9c-0.6-1.9-1.5-3.5-2.2-5.3c-1.4-3.2-2.3-6.6-2.7-10.1
		c-0.6-3.3-1.1-6.3-1.8-9c-0.7-2.7-1.3-5.2-2-7.3c-0.7-2.1-1.5-3.9-1.9-5.4c-0.4-1.5-0.5-2.7-0.6-3.5c-0.1-0.4-0.1-0.7-0.2-0.9
		C76.5,298.9,76.4,298.8,76.4,298.7z"/>
</g>
<g id="freepik--Device--inject-7">
	<path class="st6" d="M209.3,37.3h243.5c6.4,0,11.5,5.2,11.5,11.6v359.5c0,6.4-5.2,11.5-11.5,11.5H209.3c-6.4,0-11.6-5.2-11.6-11.5
		V48.9C197.8,42.5,203,37.3,209.3,37.3z"/>
	<rect x="206.2" y="63.5" class="st7" width="249.8" height="319.5"/>
	<circle class="st8" cx="331.1" cy="400.7" r="10.2"/>
	<path class="st8" d="M292.2,48.4h77.9c0.7,0,1.2,0.5,1.2,1.2v1.8c0,0.7-0.5,1.2-1.2,1.2h-77.9c-0.7,0-1.2-0.5-1.2-1.2v-1.8
		C291,48.9,291.5,48.4,292.2,48.4z"/>
	<path class="st2" d="M362.4,357.3h-62.6c-7.4,0-13.4-6-13.4-13.4l0,0c0-7.4,6-13.4,13.4-13.4h62.6c7.4,0,13.4,6,13.4,13.4l0,0
		C375.8,351.3,369.8,357.3,362.4,357.3z"/>
	<rect x="261.4" y="209.4" class="st2" width="35.6" height="6.5"/>
	<path class="st2" d="M399.7,250.6c0.3,0,0.6-0.1,0.8-0.1c0.8-0.3,1.4-0.8,1.8-1.6c0.2-0.6,0.3-1.2,0.2-1.8c0-0.7,0-1.4,0-2.2
		c0-1.6,0-3.4,0-5.5v-8.8c0.1-0.6-0.1-1.3-0.4-1.8c-0.4-0.6-0.9-1-1.5-1.2c-0.7-0.1-1.4-0.2-2.1-0.1h-20L263,227.1
		c-1.3,0-2.4,1-2.5,2.2c0,1.3,0,2.8,0,4.1c0,2.8,0,5.5,0,8.3c0,1.4,0,2.7,0,4.1c0,0.6,0,1.3,0.1,1.9c0.2,0.6,0.5,1.1,1,1.4
		c0.5,0.3,1.1,0.5,1.7,0.5h2h4l30.7,0.2l51.9,0.3l35,0.3l9.5,0.1h2.5L399.7,250.6c0,0-0.3,0-0.8,0h-2.5h-9.5h-35l-51.9-0.2
		l-30.7-0.1h-6c-0.8,0-1.5-0.2-2.1-0.6c-0.6-0.4-1.1-1.1-1.3-1.8c-0.1-0.7-0.2-1.4-0.1-2.1c0-1.4,0-2.7,0-4.1c0-2.8,0-5.5,0-8.3
		c0-1.4,0-2.8,0-4.2c0.2-1.7,1.6-2.9,3.3-2.8l115.5,0.6l20,0.1c0.7,0,1.5,0,2.2,0.1c0.7,0.2,1.3,0.7,1.7,1.3c0.3,0.6,0.5,1.3,0.4,2
		c0,0.7,0,1.3,0,1.9c0,2.5,0,4.8-0.1,6.9s0,3.9,0,5.5c0,0.8,0,1.5,0,2.2c0,0.6-0.1,1.2-0.3,1.8c-0.4,0.8-1,1.4-1.9,1.6
		C400.3,250.6,400,250.6,399.7,250.6z"/>
	
		<rect x="274.5" y="258" transform="matrix(4.537793e-03 -1 1 4.537793e-03 0.688 552.3181)" class="st2" width="6.5" height="35.6"/>
	<path class="st2" d="M399.4,312.8c0.3,0,0.6-0.1,0.8-0.1c0.8-0.3,1.4-0.8,1.8-1.6c0.2-0.6,0.3-1.2,0.2-1.8c0-0.7,0-1.4,0-2.2
		c0-1.6,0-3.4,0-5.5v-8.8c0.1-0.6-0.1-1.3-0.4-1.8c-0.3-0.6-0.9-1-1.5-1.2c-0.7-0.1-1.4-0.2-2.1-0.1h-19.9l-115.5-0.4
		c-1.3,0-2.4,1-2.5,2.2c0,1.3,0,2.8,0,4.1c0,2.8,0,5.5,0,8.3c0,1.4,0,2.7,0,4.1c0,0.6,0,1.3,0.1,1.9c0.2,0.6,0.5,1.1,1,1.4
		s1.1,0.5,1.7,0.4h2h4l30.7,0.2l51.9,0.3l35,0.3l9.5,0.1h2.5c0.6,0,0.8,0,0.8,0h-0.8h-2.6h-9.5h-35h-52l-30.7-0.1h-4h-2
		c-0.7,0.1-1.5-0.1-2.1-0.6c-0.6-0.4-1.1-1.1-1.3-1.8c-0.1-0.7-0.2-1.4-0.1-2.1c0-1.4,0-2.7,0-4.1c0-2.7,0-5.5,0-8.3
		c0-1.4,0-2.8,0-4.2c0.2-1.6,1.6-2.9,3.3-2.9l115.5,0.6l20,0.1c0.7,0,1.5,0,2.2,0.1c0.7,0.2,1.3,0.7,1.7,1.3c0.4,0.6,0.5,1.3,0.5,2
		c0,0.6,0,1.3,0,1.9c0,2.5,0,4.8-0.1,6.9s0,3.9-0.1,5.5c0,0.8,0,1.5,0,2.2c0,0.6-0.1,1.2-0.3,1.8c-0.4,0.8-1,1.4-1.9,1.6
		C399.9,312.8,399.7,312.8,399.4,312.8z"/>
	
		<rect x="299.3" y="206" transform="matrix(4.537793e-03 -1 1 4.537793e-03 62.3622 539.7932)" class="st2" width="6.1" height="65.2"/>
	<circle class="st2" cx="337.4" cy="139.1" r="48.9"/>
	<g>
		<g>
			<g>
				<path class="st7" d="M350,151c-3.1,0-5.7,2.5-5.7,5.7c0,3.1,2.5,5.7,5.7,5.7c3.1,0,5.7-2.5,5.7-5.7S353.1,151,350,151z"/>
			</g>
		</g>
		<g>
			<g>
				<path class="st7" d="M360,123.7c-0.1,0-0.3-0.1-0.4-0.1H325l-0.5-3.7c-0.3-2.4-2.4-4.2-4.9-4.2h-4.4c-1.2,0-2.2,1-2.2,2.2
					s1,2.2,2.2,2.2h4.4c0.3,0,0.5,0.2,0.5,0.5l3.4,23.2c0.4,2.9,3,5.1,5.9,5.1h22.8c2.9,0,5.3-2,5.9-4.8l3.6-17.8
					C362,125.1,361.3,123.9,360,123.7z"/>
			</g>
		</g>
		<g>
			<g>
				<path class="st7" d="M336,156.4c-0.1-3-2.6-5.4-5.7-5.4c-3.2,0.2-5.6,2.8-5.5,5.9c0.1,3,2.6,5.4,5.6,5.4h0.1
					C333.7,162.1,336.2,159.5,336,156.4z"/>
			</g>
		</g>
	</g>
	
		<rect x="299.3" y="268" transform="matrix(4.537793e-03 -1 1 4.537793e-03 0.3426 601.6123)" class="st2" width="6.1" height="65.2"/>
	<g>
		<path class="st7" d="M303.8,341h1.3l2.4,6.1h-1.3l-0.6-1.6h-2.5l-0.6,1.6h-1.2L303.8,341z M305.3,344.6l-0.9-2.4l-0.9,2.4H305.3z"
			/>
		<path class="st7" d="M308.4,341h2.3c1.1,0,1.9,0.3,2.5,0.8s0.9,1.3,0.9,2.2c0,1-0.3,1.7-0.9,2.2s-1.4,0.8-2.5,0.8h-2.2L308.4,341
			L308.4,341z M309.6,346.1h1c1.5,0,2.2-0.7,2.2-2.1s-0.7-2.1-2.2-2.1h-1V346.1z"/>
		<path class="st7" d="M315.2,341h2.3c1.1,0,1.9,0.3,2.5,0.8s0.9,1.3,0.9,2.2c0,1-0.3,1.7-0.9,2.2s-1.4,0.8-2.5,0.8h-2.2L315.2,341
			L315.2,341z M316.4,346.1h1c1.5,0,2.2-0.7,2.2-2.1s-0.7-2.1-2.2-2.1h-1V346.1z"/>
		<path class="st7" d="M325.2,342h-2v-1h5.1v1h-2v5.1h-1.2V342H325.2z"/>
		<path class="st7" d="M332,347.2c-0.6,0-1.1-0.1-1.6-0.4s-0.9-0.6-1.2-1.1c-0.3-0.5-0.4-1-0.4-1.7c0-0.6,0.1-1.1,0.4-1.6
			s0.6-0.9,1.1-1.2c0.5-0.3,1-0.4,1.7-0.4c0.6,0,1.1,0.1,1.6,0.4s0.9,0.6,1.2,1.1c0.3,0.5,0.4,1,0.4,1.7c0,0.6-0.1,1.1-0.4,1.6
			s-0.7,0.9-1.1,1.2C333.2,347.1,332.6,347.2,332,347.2z M332,346.2c0.4,0,0.7-0.1,1-0.3s0.5-0.4,0.7-0.7c0.2-0.3,0.3-0.7,0.3-1.1
			s-0.1-0.7-0.2-1s-0.4-0.6-0.7-0.8s-0.6-0.3-1-0.3s-0.7,0.1-1,0.3c-0.3,0.2-0.5,0.4-0.7,0.7c-0.2,0.3-0.3,0.7-0.3,1.1
			s0.1,0.7,0.2,1s0.4,0.6,0.7,0.8S331.6,346.2,332,346.2z"/>
		<path class="st7" d="M341,347.2c-0.6,0-1.2-0.1-1.7-0.4s-0.9-0.6-1.1-1.1c-0.3-0.5-0.4-1-0.4-1.6s0.1-1.1,0.4-1.6s0.7-0.9,1.2-1.1
			s1.1-0.4,1.7-0.4c0.3,0,0.7,0,1,0.1s0.6,0.2,0.9,0.4l-0.2,1c-0.6-0.3-1.1-0.4-1.7-0.4c-0.4,0-0.7,0.1-1.1,0.2
			c-0.3,0.2-0.6,0.4-0.7,0.7s-0.3,0.7-0.3,1.1c0,0.6,0.2,1.1,0.6,1.5s0.9,0.5,1.5,0.5c0.3,0,0.6,0,0.9-0.1s0.6-0.2,0.9-0.3l0.1,1.1
			c-0.3,0.2-0.6,0.3-0.9,0.4C341.7,347.2,341.4,347.2,341,347.2z"/>
		<path class="st7" d="M346.1,341h1.3l2.4,6.1h-1.3l-0.6-1.6h-2.4l-0.6,1.6h-1.2L346.1,341z M347.6,344.6l-0.9-2.4l-0.9,2.4H347.6z"
			/>
		<path class="st7" d="M350.7,341h2c0.7,0,1.2,0.2,1.6,0.5s0.6,0.8,0.6,1.4c0,0.4-0.1,0.7-0.3,1c-0.2,0.3-0.4,0.5-0.8,0.7l1.6,2.5
			H354l-1.3-2.2c-0.1,0-0.2,0-0.2,0c-0.1,0-0.1,0-0.2,0h-0.6v2.2h-1.2V341H350.7z M351.9,344h0.6c0.8,0,1.3-0.3,1.3-1
			c0-0.3-0.1-0.6-0.3-0.7c-0.2-0.2-0.5-0.2-0.9-0.2H352v1.9H351.9z"/>
		<path class="st7" d="M357.6,342h-2v-1h5.1v1h-2v5.1h-1.2V342H357.6z"/>
	</g>
</g>
<g id="freepik--Sign--inject-7">
	<rect x="161.4" y="186.6" class="st6" width="12.9" height="233.3"/>
	<rect x="157.9" y="186.6" class="st8" width="12.9" height="233.3"/>
	<path class="st4" d="M231.4,164.2c0-8.8,0-17.5,0-26.3c0-0.8-0.3-1.6-0.8-2.2c-12.5-12.5-24.9-25-37.5-37.4
		c-0.7-0.7-1.7-1.1-2.7-1.1c-17.3-0.1-34.6,0-51.9-0.1c-1.2,0-2.4,0.5-3.3,1.4c-12.2,12.3-24.5,24.6-36.8,36.9c-0.6,0.7-1,1.6-1,2.6
		c-0.1,17.5-0.1,35,0,52.4c0,0.9,0.4,1.8,1.1,2.5c12.2,12.3,24.5,24.6,36.8,36.9c0.8,0.9,2,1.5,3.2,1.5c17.2,0,34.4,0,51.6,0
		c1.2,0.1,2.5-0.4,3.3-1.4c12.2-12.3,24.6-24.6,36.8-36.9c0.7-0.7,1.1-1.7,1.1-2.7C231.4,181.7,231.4,173,231.4,164.2z"/>
	<g id="freepik--4mamg4tif--inject-7">
		<path class="st4" d="M87.7,164.1c0-10,0-20.1,0-30.1c0-0.9,0.4-1.8,1-2.4c11.1-11.2,22.3-22.4,33.6-33.6c3.1-3.1,6.1-6.2,9.2-9.1
			c0.7-0.6,1.6-1,2.5-1.1c20.1-0.1,40.1,0,60.2-0.1c1.2,0,2.3,0.4,3.1,1.3c14.1,14.2,28.3,28.4,42.5,42.6c0.6,0.7,1,1.5,1,2.4
			c0,20.2,0,40.3,0,60.5c0,1-0.4,2-1.1,2.7c-11.1,11-22.2,22.1-33.2,33.2c-3.2,3.2-6.4,6.3-9.6,9.4c-0.6,0.6-1.4,0.9-2.2,1
			c-20.3,0-40.6,0-60.8,0c-0.8,0-1.5-0.3-2.1-0.9c-11.9-11.8-23.7-23.6-35.5-35.4c-2.5-2.5-5-4.9-7.4-7.5c-0.6-0.7-1-1.6-1.1-2.5
			C87.7,184.3,87.7,174.2,87.7,164.1z M164.4,92.2c-9.5,0-19.1,0-28.6,0c-0.7,0-1.4,0.3-2,0.7c-13.5,13.5-27.1,27-40.5,40.5
			c-0.6,0.7-1,1.5-1,2.4c-0.1,18.9-0.1,37.8,0,56.7c0,0.9,0.4,1.8,1,2.5c13.3,13.4,26.7,26.8,40.2,40.2c0.7,0.6,1.5,1,2.4,1
			c18.8,0,37.7,0,56.5,0.1c1.1,0,2.1-0.4,2.9-1.2c13.3-13.3,26.5-26.6,39.9-39.9c0.8-0.8,1.3-1.9,1.2-3c0-18.9,0-37.7-0.1-56.6
			c0-0.8-0.4-1.6-0.9-2.3c-3.5-3.6-7.1-7.1-10.6-10.7c-9.7-9.7-19.3-19.4-29-29.1c-1-1-2.3-1.6-3.7-1.5
			C182.8,92.2,173.6,92.2,164.4,92.2L164.4,92.2z"/>
		<path class="st7" d="M164.4,92.2c9.2,0,18.4,0,27.6,0c1.4-0.1,2.8,0.5,3.7,1.5c9.7,9.7,19.3,19.4,29,29.1
			c3.6,3.6,7.1,7.1,10.6,10.7c0.6,0.6,0.9,1.4,0.9,2.3c0.1,18.9,0,37.7,0.1,56.6c0.1,1.1-0.4,2.2-1.2,3
			c-13.3,13.3-26.6,26.5-39.9,39.9c-0.7,0.8-1.8,1.2-2.9,1.2c-18.9,0-37.7,0-56.5-0.1c-0.9,0-1.8-0.4-2.4-1
			c-13.4-13.3-26.8-26.7-40.2-40.2c-0.6-0.7-1-1.6-1-2.5c-0.1-18.9-0.1-37.8,0-56.7c0-0.9,0.4-1.8,1-2.4
			c13.5-13.5,27-27.1,40.5-40.5c0.6-0.5,1.3-0.7,2-0.7C145.3,92.2,154.9,92.2,164.4,92.2z M231.3,164.2c0-8.8,0-17.5,0-26.3
			c0-0.8-0.3-1.6-0.8-2.2c-12.4-12.5-24.9-25-37.4-37.4c-0.7-0.7-1.7-1.1-2.7-1.1c-17.3-0.1-34.6,0-51.9-0.1c-1.2,0-2.4,0.5-3.3,1.4
			c-12.3,12.3-24.5,24.6-36.8,36.9c-0.6,0.7-1,1.6-1,2.6c-0.1,17.5-0.1,35,0,52.4c0,0.9,0.4,1.8,1.1,2.5
			c12.2,12.3,24.5,24.6,36.8,36.9c0.8,0.9,2,1.4,3.2,1.4c17.2,0,34.4,0,51.6,0c1.2,0.1,2.5-0.4,3.3-1.4
			c12.3-12.3,24.6-24.6,36.8-36.9c0.7-0.7,1.1-1.7,1.1-2.7C231.3,181.7,231.3,173,231.3,164.2L231.3,164.2z"/>
	</g>
	<g>
		<path class="st7" d="M132.8,126.7h6.9l13.9,18.5v-18.5h7.3v30.4H154l-13.9-18.5V157h-7.3V126.7z"/>
		<path class="st7" d="M180.7,157.7c-3.1,0-5.8-0.7-8.3-2s-4.5-3.2-5.9-5.6c-1.5-2.4-2.2-5.2-2.2-8.3c0-2.9,0.7-5.5,2.1-7.9
			c1.4-2.4,3.3-4.3,5.8-5.8s5.4-2.2,8.5-2.2s5.8,0.7,8.3,2s4.5,3.2,5.9,5.6c1.5,2.4,2.2,5.2,2.2,8.3c0,2.9-0.7,5.5-2.1,7.9
			c-1.4,2.4-3.3,4.3-5.8,5.8S183.9,157.7,180.7,157.7z M180.7,150.6c1.5,0,2.9-0.4,4.2-1.1s2.2-1.7,2.9-3.1c0.7-1.3,1.1-2.8,1.1-4.6
			c0-1.7-0.3-3.1-1-4.5c-0.7-1.3-1.6-2.4-2.9-3.2c-1.2-0.8-2.7-1.2-4.3-1.2c-1.5,0-2.9,0.4-4.2,1.1c-1.2,0.7-2.2,1.7-2.9,3.1
			c-0.7,1.3-1.1,2.8-1.1,4.6c0,1.7,0.3,3.1,1,4.5c0.7,1.3,1.6,2.4,2.9,3.2C177.7,150.2,179.1,150.6,180.7,150.6z"/>
		<path class="st7" d="M129.3,179.3c-1.1,0-2.1-0.2-3-0.7s-1.6-1.2-2.2-2.1s-0.8-1.9-0.8-3.1c0-1.1,0.3-2,0.8-2.9s1.2-1.6,2.1-2.2
			c0.9-0.5,1.9-0.8,3.1-0.8c1.1,0,2.1,0.2,3,0.7s1.6,1.2,2.2,2.1c0.5,0.9,0.8,1.9,0.8,3.1c0,1.1-0.3,2-0.8,2.9s-1.2,1.6-2.1,2.2
			C131.5,179,130.5,179.3,129.3,179.3z M129.3,177.6c0.7,0,1.4-0.2,2-0.5s1.1-0.9,1.4-1.5s0.5-1.4,0.5-2.2s-0.2-1.5-0.5-2.2
			s-0.8-1.2-1.4-1.5c-0.6-0.4-1.3-0.6-2.1-0.6c-0.7,0-1.4,0.2-2,0.5c-0.6,0.4-1.1,0.9-1.4,1.5c-0.4,0.6-0.5,1.4-0.5,2.2
			s0.2,1.5,0.5,2.2s0.8,1.2,1.4,1.5C127.9,177.4,128.6,177.6,129.3,177.6z"/>
		<path class="st7" d="M136.9,167.7h3.5c1.3,0,2.2,0.3,3,1c0.7,0.6,1.1,1.5,1.1,2.6c0,0.7-0.2,1.3-0.5,1.8c-0.4,0.6-0.9,1-1.5,1.2
			l3.2,4.8h-2.2l-2.7-4.3c-0.2,0-0.5,0-0.8,0h-1.3v4.3h-1.8V167.7z M138.7,173.3h1.4c1.7,0,2.6-0.7,2.6-2c0-0.7-0.2-1.2-0.6-1.5
			s-1-0.5-1.9-0.5h-1.5V173.3z"/>
		<path class="st7" d="M147,167.7h4.3c1.3,0,2.3,0.2,3.3,0.7s1.6,1.1,2.1,1.9c0.5,0.9,0.8,1.9,0.8,3.1c0,1.8-0.6,3.2-1.7,4.2
			c-1.1,1-2.7,1.5-4.7,1.5h-4v-11.4H147z M148.9,177.5h2.2c2.9,0,4.4-1.4,4.4-4.2s-1.5-4.2-4.4-4.2h-2.2V177.5z"/>
		<path class="st7" d="M159.1,167.7h7.3v1.6h-5.5v3.2h4.9v1.6h-4.9v3.4h5.7v1.6h-7.5V167.7z"/>
		<path class="st7" d="M168.5,167.7h3.5c1.3,0,2.2,0.3,3,1c0.7,0.6,1.1,1.5,1.1,2.6c0,0.7-0.2,1.3-0.5,1.8c-0.4,0.6-0.9,1-1.5,1.2
			l3.2,4.8h-2.2l-2.7-4.3c-0.2,0-0.5,0-0.8,0h-1.3v4.3h-1.8V167.7z M170.3,173.3h1.4c1.7,0,2.6-0.7,2.6-2c0-0.7-0.2-1.2-0.6-1.5
			s-1-0.5-1.9-0.5h-1.5V173.3z"/>
		<path class="st7" d="M178.6,167.7h1.9v11.4h-1.9V167.7z"/>
		<path class="st7" d="M182.8,167.7h1.7l6.5,8.7v-8.7h1.7v11.4H191l-6.6-8.7v8.7h-1.7v-11.4H182.8z"/>
		<path class="st7" d="M200.5,179.2c-1.2,0-2.2-0.2-3.2-0.7c-0.9-0.5-1.7-1.1-2.2-2s-0.8-1.9-0.8-3.1c0-1.1,0.3-2.2,0.8-3.1
			c0.5-0.9,1.2-1.6,2.2-2.1s2.1-0.8,3.3-0.8c0.7,0,1.4,0.1,2,0.2c0.7,0.2,1.3,0.4,1.8,0.7l-0.3,1.6c-0.5-0.3-1.1-0.5-1.7-0.7
			c-0.6-0.1-1.3-0.2-1.9-0.2c-0.8,0-1.5,0.2-2.2,0.5c-0.6,0.3-1.1,0.8-1.5,1.5c-0.4,0.6-0.5,1.4-0.5,2.2c0,1.3,0.4,2.3,1.1,3.1
			s1.8,1.1,3.1,1.1c0.4,0,0.8,0,1.2-0.1c0.3,0,0.7-0.1,1.2-0.2v-2.9h-2.4v-1.6h4.3v5.5C203.5,179,202.1,179.2,200.5,179.2z"/>
		<path class="st7" d="M140.9,201.3c-1.1,0-2.1-0.2-3-0.7s-1.6-1.2-2.2-2.1s-0.8-1.9-0.8-3.1c0-1.1,0.3-2,0.8-2.9s1.2-1.6,2.1-2.2
			c0.9-0.5,1.9-0.8,3.1-0.8c1.1,0,2.1,0.2,3,0.7s1.6,1.2,2.2,2.1c0.5,0.9,0.8,1.9,0.8,3.1c0,1.1-0.3,2-0.8,2.9s-1.2,1.6-2.1,2.2
			C143,201,142,201.3,140.9,201.3z M140.9,199.6c0.7,0,1.4-0.2,2-0.5s1.1-0.9,1.4-1.5s0.5-1.4,0.5-2.2s-0.2-1.5-0.5-2.2
			s-0.8-1.2-1.4-1.5c-0.6-0.4-1.3-0.6-2.1-0.6c-0.7,0-1.4,0.2-2,0.5c-0.6,0.4-1.1,0.9-1.4,1.5c-0.4,0.6-0.5,1.4-0.5,2.2
			s0.2,1.5,0.5,2.2s0.8,1.2,1.4,1.5C139.4,199.4,140.1,199.6,140.9,199.6z"/>
		<path class="st7" d="M148.4,189.7h1.7l6.5,8.7v-8.7h1.7v11.4h-1.7l-6.6-8.7v8.7h-1.7v-11.4H148.4z"/>
		<path class="st7" d="M160.7,189.7h1.9v9.8h5.4v1.6h-7.2L160.7,189.7L160.7,189.7z"/>
		<path class="st7" d="M169.4,189.7h1.9v11.4h-1.9V189.7z"/>
		<path class="st7" d="M173.5,189.7h1.7l6.5,8.7v-8.7h1.7v11.4h-1.7l-6.6-8.7v8.7h-1.7v-11.4H173.5z"/>
		<path class="st7" d="M185.8,189.7h7.3v1.6h-5.5v3.2h4.9v1.6h-4.9v3.4h5.7v1.6h-7.5V189.7z"/>
	</g>
</g>
<g id="freepik--Padlock--inject-7">
	<path class="st3" d="M382.9,195.9c-3.3-6.7-11.5-9.4-18.1-6l0,0l-18.3,9.2c-6.7,3.4-9.4,11.5-6,18.1l0,0l0,0
		c3.3,6.7,11.5,9.4,18.1,6l0,0l18.3-9.2C383.6,210.7,386.3,202.6,382.9,195.9z M374.2,208.4l-18.2,9.2c-3.6,1.8-7.9,0.4-9.7-3.2
		c-1.8-3.6-0.4-7.9,3.2-9.7l0,0l18.2-9.2c3.6-1.8,7.9-0.4,9.7,3.2C379.2,202.3,377.7,206.6,374.2,208.4z"/>
	<path class="st2" d="M375.4,196.3l6-2.8c-0.4-0.6-0.9-1.1-1.5-1.6l-6.2,3.3C373.8,195.3,375.2,195.9,375.4,196.3z"/>
	<path class="st2" d="M377.9,203.8l6.3-0.1c0.1-1.2,0-2.5-0.1-3.8l-6.1,2.9L377.9,203.8z"/>
	<path class="st9" d="M382.9,195.9c-3.3-6.7-11.5-9.4-18.1-6l0,0l-18.3,9.2c-6.7,3.4-9.4,11.5-6,18.1l0,0l0,0
		c3.3,6.7,11.5,9.4,18.1,6l0,0l18.3-9.2C383.6,210.7,386.3,202.6,382.9,195.9z M374.2,208.4l-18.2,9.2c-3.6,1.8-7.9,0.4-9.7-3.2
		c-1.8-3.6-0.4-7.9,3.2-9.7l0,0l18.2-9.2c3.6-1.8,7.9-0.4,9.7,3.2C379.2,202.3,377.7,206.6,374.2,208.4z"/>
	<path class="st6" d="M374.2,208.4c1-0.6,1.8-1.3,2.5-2.2c0.8-1.1,1.2-2.3,1.3-3.6c0.3-3.9-2.5-7.2-6.4-7.6
		c-1.3-0.1-2.5,0.1-3.7,0.7l-3.4,1.7l-15,7.6c-2.6,1.3-4.1,4-3.8,6.9c0.1,1.3,0.6,2.6,1.5,3.6c0.8,1,1.9,1.8,3.1,2.2
		c1.1,0.4,2.4,0.5,3.6,0.3c1.1-0.3,2.2-0.7,3.2-1.3l5.7-2.8l8.3-4.1l2.3-1.1C373.6,208.6,373.9,208.5,374.2,208.4
		c-0.2,0.2-0.5,0.3-0.8,0.4l-2.2,1.2l-8.2,4.2l-5.7,2.9c-1,0.6-2.2,1.1-3.3,1.3c-1.3,0.2-2.6,0.1-3.8-0.4c-3.9-1.4-5.8-5.7-4.4-9.6
		c0.1-0.3,0.3-0.6,0.4-0.9c0.7-1.3,1.8-2.4,3.2-3.1l15-7.5l3.3-1.6c3.2-1.5,7-0.6,9.1,2.3c1.1,1.4,1.6,3.2,1.4,5
		c-0.1,1.3-0.6,2.6-1.4,3.7c-0.5,0.7-1.1,1.3-1.9,1.7c-0.2,0.1-0.4,0.2-0.6,0.3C374.3,208.4,374.2,208.4,374.2,208.4z"/>
	<path class="st6" d="M382.9,195.9c0.1,0.1,0.1,0.2,0.1,0.3c0.1,0.2,0.2,0.5,0.4,0.9s0.3,0.9,0.5,1.5c0.2,0.7,0.3,1.4,0.4,2.1
		c0.2,1.9,0,3.9-0.6,5.8c-0.4,1.2-0.9,2.3-1.6,3.3c-0.8,1.1-1.7,2.1-2.8,3c-1.2,0.9-2.5,1.7-3.9,2.3l-4.3,2.2l-9.6,4.9
		c-1.7,0.9-3.5,1.8-5.3,2.4c-2,0.6-4.1,0.7-6.1,0.4c-2.1-0.3-4.1-1.2-5.8-2.4c-3.6-2.6-5.7-6.8-5.7-11.3c0-2.1,0.5-4.2,1.5-6.1
		c0.9-1.8,2.3-3.4,3.9-4.7c1.6-1.1,3.3-2,5.1-2.8l9.6-4.8l4.3-2.2c1.3-0.7,2.7-1.3,4.1-1.8c1.3-0.3,2.7-0.5,4.1-0.4
		c1.2,0.1,2.4,0.3,3.6,0.7c1.9,0.6,3.6,1.6,5,2.9c0.5,0.5,1,1,1.5,1.6c0.4,0.5,0.7,0.9,0.9,1.3l0.5,0.8
		C382.8,195.7,382.8,195.8,382.9,195.9c-0.9-1.4-1.9-2.7-3.1-3.8c-1.4-1.3-3.2-2.2-5-2.8c-1.1-0.3-2.3-0.5-3.5-0.6
		c-1.3,0-2.7,0.1-4,0.4c-1.4,0.4-2.8,1-4.1,1.8l-4.3,2.2l-9.5,4.8c-1.7,0.8-3.4,1.7-5,2.8c-1.6,1.2-2.9,2.7-3.8,4.5
		s-1.4,3.8-1.5,5.9c-0.1,4.3,2,8.3,5.5,10.9c1.7,1.2,3.6,2,5.6,2.3s4,0.2,5.9-0.3c1.8-0.6,3.5-1.4,5.2-2.4l9.6-4.8l4.3-2.2
		c1.4-0.6,2.6-1.3,3.8-2.2c2-1.6,3.5-3.7,4.3-6.1c0.6-1.8,0.9-3.8,0.7-5.7C383.9,199,383.6,197.4,382.9,195.9z"/>
	<path class="st3" d="M441.5,167c-3.3-6.7-11.5-9.4-18.1-6l0,0l-18.3,9.2c-6.7,3.3-9.4,11.5-6,18.1l0,0l0,0c3.4,6.7,11.5,9.4,18.1,6
		l0,0l18.4-9.2C442.2,181.8,444.9,173.6,441.5,167L441.5,167z M432.8,179.4l-18.2,9.2c-3.5,1.9-7.9,0.6-9.8-2.9s-0.6-7.9,2.9-9.8
		c0.1-0.1,0.3-0.1,0.4-0.2l18.2-9.2c3.6-1.7,7.9-0.1,9.6,3.5C437.5,173.5,436.2,177.6,432.8,179.4L432.8,179.4z"/>
	<path class="st2" d="M434,167.3l6-2.8c-0.4-0.6-0.9-1.1-1.5-1.6l-6.1,3.4C432.4,166.3,433.8,166.9,434,167.3z"/>
	<path class="st2" d="M436.5,174.9l6.3-0.1c0.1-1.3,0.1-2.5,0-3.8l-6.1,2.9L436.5,174.9z"/>
	<path class="st9" d="M441.5,167c-3.3-6.7-11.5-9.4-18.1-6l0,0l-18.3,9.2c-6.7,3.3-9.4,11.5-6,18.1l0,0l0,0c3.4,6.7,11.5,9.4,18.1,6
		l0,0l18.4-9.2C442.2,181.8,444.9,173.6,441.5,167L441.5,167z M432.8,179.4l-18.2,9.2c-3.5,1.9-7.9,0.6-9.8-2.9s-0.6-7.9,2.9-9.8
		c0.1-0.1,0.3-0.1,0.4-0.2l18.2-9.2c3.6-1.7,7.9-0.1,9.6,3.5C437.5,173.5,436.2,177.6,432.8,179.4L432.8,179.4z"/>
	<path class="st6" d="M432.8,179.4c1-0.6,1.8-1.3,2.5-2.2c2.4-3.1,1.8-7.5-1.3-9.8c-2.1-1.6-5.1-1.9-7.5-0.7l-3.4,1.7l-14.9,7.6
		c-2.6,1.3-4.1,4-3.8,6.9c0.1,1.3,0.6,2.6,1.5,3.6c0.8,1,1.8,1.8,3,2.2c1.1,0.4,2.4,0.5,3.6,0.3c1.1-0.2,2.2-0.7,3.2-1.3l5.7-2.8
		l8.3-4.1l2.3-1.1C432.2,179.6,432.5,179.5,432.8,179.4c-0.3,0.2-0.5,0.3-0.8,0.4l-2.2,1.2l-8.1,4.2l-5.7,2.9
		c-1,0.6-2.2,1.1-3.3,1.3c-1.3,0.2-2.6,0.1-3.8-0.3c-3.9-1.4-5.9-5.7-4.4-9.6c0.6-1.8,2-3.2,3.6-4.1l15-7.5l3.4-1.7
		c1.1-0.5,2.3-0.8,3.5-0.7c2.2,0.1,4.3,1.2,5.6,3c1.1,1.5,1.6,3.3,1.4,5.1c-0.1,1.3-0.6,2.6-1.4,3.7c-0.5,0.7-1.1,1.2-1.9,1.7
		c-0.2,0.1-0.4,0.2-0.6,0.3C432.9,179.4,432.8,179.4,432.8,179.4z"/>
	<path class="st6" d="M441.5,167c0,0,0.1,0.1,0.2,0.3l0.4,0.9c0.1,0.4,0.3,0.9,0.5,1.5c0.2,0.7,0.3,1.4,0.4,2.1
		c0.2,1.9,0,3.9-0.6,5.8c-0.4,1.2-0.9,2.3-1.6,3.3c-0.8,1.1-1.7,2.1-2.8,3c-1.2,0.9-2.5,1.7-3.9,2.3l-4.3,2.2l-9.5,4.8
		c-1.7,1-3.5,1.8-5.3,2.4c-2,0.6-4.1,0.7-6.1,0.4c-2.1-0.3-4.1-1.2-5.8-2.4c-1.8-1.3-3.2-3-4.2-4.9c-1-2-1.5-4.1-1.5-6.3
		c0-2.1,0.5-4.2,1.5-6.1c0.9-1.8,2.3-3.4,3.9-4.7c1.6-1.1,3.3-2,5.1-2.8l9.6-4.8l4.3-2.2c1.3-0.7,2.7-1.3,4.1-1.8
		c1.3-0.3,2.7-0.5,4.1-0.4c1.2,0.1,2.4,0.3,3.6,0.6c1.9,0.6,3.6,1.6,5,2.9c0.5,0.5,1,1,1.4,1.6c0.4,0.5,0.7,0.9,0.9,1.3l0.5,0.8
		C441.4,166.7,441.5,166.8,441.5,167c-0.8-1.5-1.9-2.8-3.1-3.9c-1.4-1.3-3.2-2.2-5-2.8c-1.1-0.3-2.3-0.5-3.5-0.6
		c-1.3,0-2.7,0.1-4,0.5c-1.4,0.4-2.8,1-4.1,1.8l-4.3,2.2L408,169c-1.7,0.8-3.4,1.7-5,2.8c-1.6,1.2-2.9,2.7-3.8,4.5s-1.4,3.9-1.5,5.9
		c-0.1,4.3,2,8.3,5.5,10.9c1.7,1.2,3.6,2,5.6,2.3s4,0.2,5.9-0.3c1.8-0.6,3.5-1.4,5.2-2.4l9.6-4.8l4.3-2.2c1.3-0.6,2.6-1.4,3.8-2.2
		c1-0.8,2-1.8,2.7-2.9c0.7-1,1.2-2.1,1.6-3.2c0.6-1.8,0.9-3.7,0.7-5.7C442.6,170,442.2,168.5,441.5,167z"/>
	<path class="st3" d="M466.1,160.1l-31.3,14.7c-1.8,0.8-3.8,0.1-4.7-1.7l0,0l0,0c-0.8-1.8-0.1-3.9,1.7-4.7l0,0l31.3-14.7
		c1.8-0.8,3.9-0.1,4.7,1.7l0,0l0,0C468.6,157.2,467.9,159.3,466.1,160.1L466.1,160.1z"/>
	<path class="st6" d="M466.1,160.1c0,0,0.3-0.1,0.7-0.5c1.4-1.2,1.6-3.4,0.3-4.9c-0.3-0.3-0.6-0.6-1-0.8c-0.8-0.4-1.6-0.5-2.4-0.3
		c-0.4,0.1-0.9,0.3-1.3,0.6l-1.4,0.6l-29.2,13.8c-1.6,0.8-2.3,2.7-1.6,4.4c0.5,1,1.5,1.7,2.6,1.9c0.7,0.1,1.4-0.1,2-0.4l2-0.9
		l3.8-1.8l13.2-6.1l8.9-4.1l2.4-1.1l0.6-0.3C466,160.1,466.1,160.1,466.1,160.1l-0.2,0.1l-0.6,0.3l-2.4,1.2l-8.8,4.2l-13.1,6.2
		l-3.8,1.8l-2,0.9c-0.7,0.4-1.5,0.6-2.3,0.5c-2.1-0.2-3.6-2-3.4-4.1c0.1-1.3,0.9-2.5,2.2-3.1l29.3-13.6l1.4-0.6
		c0.4-0.2,0.9-0.4,1.4-0.6c0.9-0.2,1.8-0.1,2.6,0.3c1.3,0.7,2.1,2.2,1.9,3.7c-0.1,0.9-0.6,1.7-1.3,2.3
		C466.7,159.8,466.4,160,466.1,160.1z"/>
	<path class="st3" d="M407.5,189.1l-31.3,14.7c-1.8,0.8-3.8,0.1-4.7-1.7l0,0l0,0c-0.8-1.8-0.1-3.8,1.7-4.7l0,0l31.3-14.7
		c1.8-0.8,3.9-0.1,4.7,1.7l0,0C410,186.1,409.3,188.2,407.5,189.1L407.5,189.1z"/>
	<path class="st6" d="M407.5,189.1c0.3-0.2,0.5-0.3,0.8-0.5c0.7-0.6,1.1-1.4,1.1-2.3c0.1-1.4-0.6-2.7-1.8-3.4
		c-0.8-0.4-1.6-0.5-2.4-0.3c-0.4,0.1-0.9,0.3-1.3,0.6l-1.4,0.6l-29.2,13.8c-1.6,0.8-2.3,2.7-1.6,4.4c0.5,1,1.5,1.7,2.6,1.9
		c0.7,0.1,1.4-0.1,2-0.4l2-0.9l3.8-1.8l13.2-6.1l8.9-4.1l2.4-1.1l0.6-0.3L407.5,189.1c0,0,0,0-0.2,0.1l-0.6,0.3l-2.4,1.2l-8.8,4.2
		l-13.1,6.2l-3.8,1.8l-2,0.9c-0.7,0.4-1.5,0.6-2.3,0.5c-1.7-0.1-3-1.4-3.4-3c-0.3-1.7,0.5-3.4,2.1-4.1l29.3-13.6l1.4-0.6
		c0.4-0.2,0.9-0.4,1.4-0.6c1.9-0.5,3.9,0.7,4.4,2.6c0.1,0.5,0.1,0.9,0.1,1.4c-0.1,0.9-0.6,1.7-1.3,2.3
		C408.1,188.8,407.8,189,407.5,189.1z"/>
	<path class="st3" d="M267,251.4c-3.4-6.7-11.5-9.3-18.1-6l-18.3,9.2c-6.7,3.3-9.4,11.5-6,18.1l0,0l0,0c3.3,6.7,11.5,9.4,18.1,6l0,0
		l18.3-9.2C267.6,266.2,270.3,258.1,267,251.4z M258.2,263.9l-18.2,9.2c-3.6,1.8-7.9,0.4-9.7-3.2s-0.4-7.9,3.2-9.7l0,0l18.2-9.2
		c3.6-1.8,7.9-0.4,9.7,3.2C263.2,257.8,261.8,262.1,258.2,263.9z"/>
	<path class="st2" d="M259.4,251.8l6-2.8c-0.5-0.6-0.9-1.1-1.5-1.6l-6.1,3.4C257.8,250.8,259.3,251.3,259.4,251.8z"/>
	<path class="st2" d="M262,259.3l6.3-0.1c0.1-1.2,0.1-2.5,0-3.8l-6.2,2.9L262,259.3z"/>
	<path class="st9" d="M267,251.4c-3.4-6.7-11.5-9.3-18.1-6l-18.3,9.2c-6.7,3.3-9.4,11.5-6,18.1l0,0l0,0c3.3,6.7,11.5,9.4,18.1,6l0,0
		l18.3-9.2C267.6,266.2,270.3,258.1,267,251.4z M258.2,263.9l-18.2,9.2c-3.6,1.8-7.9,0.4-9.7-3.2s-0.4-7.9,3.2-9.7l0,0l18.2-9.2
		c3.6-1.8,7.9-0.4,9.7,3.2C263.2,257.8,261.8,262.1,258.2,263.9z"/>
	<path class="st6" d="M258.2,263.9c1-0.6,1.8-1.3,2.5-2.2c0.8-1.1,1.2-2.3,1.3-3.6c0.3-3.9-2.5-7.2-6.4-7.6
		c-1.3-0.1-2.5,0.1-3.7,0.7l-3.3,1.7c-4.6,2.3-9.6,4.9-14.9,7.5c-2.6,1.3-4.1,4-3.8,6.9c0.1,1.3,0.7,2.6,1.5,3.6s1.9,1.8,3.1,2.2
		c1.1,0.4,2.4,0.5,3.6,0.3c1.1-0.3,2.2-0.7,3.2-1.3l5.7-2.8l8.3-4.1l2.3-1.1C257.7,264.1,258,264,258.2,263.9
		c-0.2,0.2-0.5,0.3-0.7,0.4l-2.2,1.2l-8.2,4.2l-5.7,2.9c-1,0.6-2.2,1.1-3.3,1.3c-1.3,0.2-2.6,0.1-3.8-0.3c-1.3-0.5-2.4-1.3-3.3-2.3
		c-0.9-1.1-1.4-2.5-1.6-3.9c-0.3-3.1,1.3-6,4.1-7.4l15-7.5l3.4-1.7c1.1-0.5,2.3-0.8,3.5-0.7c2.2,0.1,4.3,1.2,5.6,3
		c1.1,1.4,1.6,3.2,1.4,5c-0.2,2.2-1.4,4.2-3.3,5.4c-0.2,0.1-0.4,0.2-0.6,0.3L258.2,263.9z"/>
	<path class="st6" d="M267,251.4c0,0,0.1,0.1,0.1,0.3s0.2,0.5,0.4,0.9c0.2,0.4,0.3,0.9,0.5,1.5c0.2,0.7,0.3,1.4,0.4,2.1
		c0.2,1.9,0,3.9-0.6,5.8c-0.4,1.2-0.9,2.3-1.6,3.3c-0.8,1.1-1.7,2.1-2.8,3c-1.2,0.9-2.5,1.7-3.9,2.3l-4.3,2.2l-9.5,4.8
		c-1.7,0.9-3.5,1.8-5.3,2.4c-2,0.6-4.1,0.7-6.1,0.4c-2.1-0.3-4.1-1.2-5.8-2.4c-3.6-2.6-5.7-6.8-5.7-11.3c0-2.1,0.5-4.2,1.5-6.1
		c0.9-1.8,2.3-3.4,3.9-4.7c1.6-1.1,3.3-2,5.1-2.8l9.6-4.8l4.3-2.2c1.3-0.7,2.7-1.3,4.1-1.8c1.3-0.3,2.7-0.5,4.1-0.4
		c1.2,0.1,2.4,0.3,3.6,0.6c1.9,0.6,3.6,1.6,5,3c0.5,0.5,1,1,1.5,1.6c0.4,0.5,0.7,0.9,0.9,1.3l0.4,0.9
		C266.9,251.3,267,251.4,267,251.4c-0.8-1.4-1.9-2.7-3.1-3.8c-1.4-1.3-3.1-2.3-5-2.8c-2.4-0.8-5-0.8-7.5-0.1c-1.4,0.4-2.8,1-4.1,1.8
		l-4.3,2.2l-9.5,4.8c-1.7,0.8-3.4,1.7-5,2.8c-1.6,1.2-2.9,2.7-3.8,4.5c-0.9,1.8-1.4,3.8-1.5,5.9c-0.1,4.3,2,8.3,5.5,10.9
		c1.7,1.2,3.6,2,5.6,2.3s4,0.2,5.9-0.3c1.8-0.6,3.5-1.4,5.2-2.4l9.6-4.8l4.3-2.2c1.3-0.6,2.6-1.4,3.8-2.2c1-0.8,2-1.8,2.7-2.9
		c0.7-1,1.2-2.1,1.6-3.2c0.6-1.8,0.9-3.8,0.7-5.7C268,254.5,267.6,252.9,267,251.4z"/>
	<path class="st3" d="M325.6,222.5c-3.3-6.7-11.5-9.4-18.1-6l0,0l-18.3,9.2c-6.7,3.3-9.4,11.5-6,18.1l0,0l0,0
		c3.3,6.7,11.5,9.4,18.1,6l0,0l18.3-9.2C326.3,237.2,329,229.1,325.6,222.5L325.6,222.5z M316.9,234.9l-18.3,9.2
		c-3.5,1.9-7.9,0.6-9.8-2.9s-0.6-7.9,2.9-9.8c0.1-0.1,0.3-0.1,0.4-0.2l18.2-9.2c3.6-1.7,7.9-0.1,9.6,3.5
		C321.5,229,320.2,233.1,316.9,234.9L316.9,234.9z"/>
	<path class="st2" d="M318,222.8l6-2.8c-0.4-0.6-0.9-1.1-1.5-1.6l-6.1,3.4C316.4,221.9,317.9,222.4,318,222.8z"/>
	<path class="st2" d="M320.6,230.3l6.3-0.1c0.1-1.2,0.1-2.5-0.1-3.8l-6.1,2.9L320.6,230.3z"/>
	<path class="st9" d="M325.6,222.5c-3.3-6.7-11.5-9.4-18.1-6l0,0l-18.3,9.2c-6.7,3.3-9.4,11.5-6,18.1l0,0l0,0
		c3.3,6.7,11.5,9.4,18.1,6l0,0l18.3-9.2C326.3,237.2,329,229.1,325.6,222.5L325.6,222.5z M316.9,234.9l-18.3,9.2
		c-3.5,1.9-7.9,0.6-9.8-2.9s-0.6-7.9,2.9-9.8c0.1-0.1,0.3-0.1,0.4-0.2l18.2-9.2c3.6-1.7,7.9-0.1,9.6,3.5
		C321.5,229,320.2,233.1,316.9,234.9L316.9,234.9z"/>
	<path class="st6" d="M316.8,234.9c1-0.6,1.8-1.3,2.5-2.2c0.8-1.1,1.2-2.3,1.3-3.6c0.3-3.9-2.5-7.2-6.4-7.6c-0.1,0-0.2,0-0.3,0
		c-1.2,0-2.3,0.2-3.3,0.7l-3.4,1.7l-14.9,7.5c-2.6,1.3-4.1,4-3.8,6.9c0.4,3.8,3.8,6.6,7.7,6.2c0.1,0,0.3,0,0.4-0.1
		c1.1-0.3,2.2-0.7,3.2-1.3l5.7-2.8l8.3-4.1l2.3-1.1C316.3,235.1,316.5,235,316.8,234.9c-0.2,0.2-0.5,0.3-0.8,0.4l-2.2,1.2l-8.2,4.2
		l-5.7,2.9c-1,0.6-2.2,1.1-3.3,1.3c-4,0.7-7.9-2-8.6-6c0-0.2-0.1-0.4-0.1-0.6c-0.3-3.1,1.3-6,4.1-7.4l15-7.5l3.4-1.7
		c1.1-0.5,2.3-0.8,3.5-0.7c2.2,0.1,4.3,1.2,5.6,3c1.1,1.4,1.6,3.2,1.4,5c-0.1,1.3-0.6,2.6-1.4,3.7c-0.5,0.7-1.1,1.3-1.9,1.7
		c-0.2,0.1-0.4,0.2-0.6,0.3C316.9,234.9,316.8,234.9,316.8,234.9z"/>
	<path class="st6" d="M325.6,222.5c0,0,0.1,0.1,0.2,0.3l0.4,0.9c0.2,0.4,0.3,0.9,0.5,1.5c0.2,0.7,0.3,1.4,0.4,2.1
		c0.2,1.9,0,3.9-0.6,5.8c-0.8,2.5-2.3,4.7-4.4,6.3c-1.2,0.9-2.5,1.7-3.9,2.3l-4.3,2.2l-9.5,4.8c-1.7,1-3.5,1.8-5.3,2.4
		c-2,0.6-4.1,0.7-6.1,0.4c-2.1-0.3-4.1-1.2-5.8-2.4c-1.8-1.3-3.2-3-4.2-4.9c-1-2-1.5-4.1-1.5-6.3c0-2.1,0.5-4.2,1.5-6.1
		c0.9-1.8,2.3-3.4,3.9-4.7c1.6-1.1,3.3-2,5.1-2.8l9.6-4.8l4.3-2.2c1.3-0.7,2.7-1.3,4.1-1.8c1.3-0.3,2.7-0.5,4.1-0.4
		c1.2,0.1,2.4,0.3,3.6,0.7c1.9,0.6,3.6,1.6,5,2.9c0.5,0.5,1,1,1.5,1.6c0.4,0.5,0.7,0.9,0.9,1.3L325.6,222.5
		C325.5,222.3,325.6,222.4,325.6,222.5c-0.8-1.4-1.8-2.7-3-3.8c-1.4-1.3-3.2-2.2-5-2.8c-1.1-0.3-2.3-0.5-3.5-0.6
		c-1.3,0-2.7,0.1-4,0.5c-1.4,0.4-2.8,1-4.1,1.8l-4.3,2.2l-9.5,4.8c-1.7,0.8-3.4,1.7-5,2.8c-3.2,2.5-5.2,6.3-5.2,10.4
		c-0.1,4.3,2,8.3,5.5,10.9c1.7,1.2,3.6,2,5.6,2.3s4,0.2,5.9-0.3c1.8-0.6,3.5-1.4,5.2-2.4l9.5-4.8l4.3-2.2c1.3-0.6,2.6-1.4,3.8-2.2
		c1-0.8,2-1.8,2.7-2.9c0.7-1,1.2-2.1,1.6-3.2c0.6-1.8,0.9-3.8,0.7-5.7C326.7,225.5,326.2,224,325.6,222.5z"/>
	<path class="st3" d="M350.1,215.6l-31.3,14.7c-1.8,0.8-3.8,0.1-4.7-1.7l0,0l0,0c-0.8-1.8-0.1-3.9,1.7-4.7l0,0l31.3-14.7
		c1.8-0.8,3.9-0.1,4.7,1.7l0,0l0,0C352.7,212.7,351.9,214.8,350.1,215.6C350.2,215.6,350.2,215.6,350.1,215.6z"/>
	<path class="st6" d="M350.1,215.6c0,0,0.3-0.1,0.7-0.5c1.4-1.2,1.6-3.4,0.3-4.8c-0.3-0.3-0.6-0.6-1-0.8c-0.8-0.4-1.6-0.5-2.4-0.3
		c-0.4,0.1-0.9,0.3-1.3,0.6l-1.4,0.6l-29.2,13.8c-1.6,0.8-2.3,2.7-1.6,4.4c0.5,1,1.5,1.7,2.6,1.9c0.7,0.1,1.4-0.1,2-0.4l2-0.9
		l3.8-1.8l13.2-6.1l8.9-4.1l2.4-1.1l0.6-0.3C350.1,215.6,350.2,215.6,350.1,215.6l-0.2,0.1l-0.6,0.3l-2.4,1.2l-8.8,4.2l-13.1,6.2
		l-3.8,1.8l-2,0.9c-0.7,0.4-1.5,0.6-2.3,0.5s-1.6-0.4-2.2-0.9c-1.6-1.4-1.7-3.8-0.3-5.3c0.3-0.4,0.8-0.7,1.2-0.9l29.3-13.6l1.4-0.6
		c0.4-0.2,0.9-0.4,1.4-0.6c2-0.5,3.9,0.7,4.5,2.6c0.1,0.5,0.1,0.9,0.1,1.4c-0.1,0.9-0.6,1.7-1.3,2.3
		C350.7,215.3,350.4,215.5,350.1,215.6z"/>
	<path class="st3" d="M291.5,244.6l-31.3,14.7c-1.8,0.8-3.9,0.1-4.7-1.7l0,0l0,0c-0.8-1.8-0.1-3.8,1.7-4.7l0,0l31.4-14.7
		c1.8-0.8,3.8-0.1,4.7,1.7l0,0l0,0C294.1,241.6,293.3,243.7,291.5,244.6C291.6,244.5,291.5,244.5,291.5,244.6z"/>
	<path class="st6" d="M291.5,244.6c0.3-0.2,0.5-0.3,0.7-0.5c0.7-0.6,1.1-1.4,1.2-2.3c0.2-1.9-1.2-3.5-3-3.7c-0.4,0-0.8,0-1.2,0.1
		c-0.4,0.2-0.9,0.3-1.3,0.5l-1.4,0.6l-29.2,13.8c-1.6,0.8-2.3,2.7-1.6,4.3c0.5,1.1,1.5,1.8,2.7,1.9c0.7,0.1,1.4-0.1,2-0.4l2-0.9
		l3.8-1.8l13.2-6.1l8.9-4.1l2.4-1.1l0.6-0.3L291.5,244.6c0,0.1-0.1,0.1-0.2,0.1l-0.6,0.3l-2.4,1.2l-8.8,4.2l-13.1,6.2l-3.8,1.8
		l-2,0.9c-0.7,0.4-1.5,0.6-2.3,0.5s-1.6-0.4-2.2-0.9c-0.6-0.6-1-1.3-1.2-2.1c-0.3-1.7,0.5-3.4,2.1-4.1l29.3-13.6l1.4-0.6
		c0.4-0.2,0.9-0.4,1.4-0.5c0.9-0.2,1.8-0.1,2.7,0.3c1.3,0.7,2.1,2.2,1.9,3.6c-0.1,0.9-0.6,1.7-1.3,2.3
		C292.1,244.3,291.8,244.4,291.5,244.6z"/>
	<path class="st3" d="M233.1,272.1l-31.3,14.7c-1.8,0.8-3.8,0.1-4.7-1.7l0,0l0,0c-0.8-1.8-0.1-3.8,1.7-4.7l0,0l31.3-14.7
		c1.8-0.8,3.9-0.1,4.7,1.7l0,0C235.6,269.1,234.8,271.2,233.1,272.1z"/>
	<path class="st6" d="M233.1,272.1c0,0,0.3-0.1,0.8-0.5c0.7-0.6,1.1-1.4,1.2-2.3c0.1-1.4-0.6-2.7-1.8-3.4c-0.7-0.4-1.6-0.5-2.4-0.3
		c-0.4,0.1-0.9,0.3-1.3,0.5l-1.4,0.6L199,280.5c-1.6,0.8-2.3,2.7-1.6,4.4c0.5,1,1.5,1.7,2.6,1.9c0.7,0.1,1.4-0.1,2-0.4l2-0.9
		l3.8-1.8l13.2-6.1l8.9-4.1l2.4-1.1l0.6-0.3L233.1,272.1c0,0,0,0-0.2,0.1l-0.6,0.3l-2.4,1.2l-8.8,4.2l-13.1,6.2l-3.8,1.8l-2,0.9
		c-0.7,0.4-1.5,0.6-2.3,0.5c-2.1-0.2-3.6-2-3.4-4.1c0.1-1.3,0.9-2.5,2.2-3.1l29.3-13.6l1.4-0.6c0.4-0.2,0.9-0.4,1.4-0.6
		c0.9-0.2,1.8-0.1,2.7,0.3c1.3,0.7,2.1,2.2,1.9,3.6c-0.1,0.9-0.6,1.7-1.3,2.3C233.7,271.8,233.4,271.9,233.1,272.1z"/>
	<path class="st4" d="M340.5,230.6c-4.3-6-12.6-7.4-18.6-3.1l-25.4,18.1l-3.3-4.7l25.4-18.1c8.6-6.1,20.5-4.1,26.6,4.5"/>
	<g class="st10">
		<path d="M340.5,230.6c-4.3-6-12.6-7.4-18.6-3.1l-25.4,18.1l-3.3-4.7l25.4-18.1c8.6-6.1,20.5-4.1,26.6,4.5"/>
	</g>
	<path class="st4" d="M278.5,243.2l17.5-12.5c2.6-1.8,6.2-1.2,8,1.4l23.1,32.5c1.8,2.6,1.2,6.2-1.4,8L308.3,285
		c-2.6,1.8-6.2,1.2-8-1.4l-23.1-32.5C275.3,248.6,275.9,245,278.5,243.2z"/>
	<path class="st6" d="M300.3,283.7c0.4,0.4,0.7,0.8,1.1,1.1c1.2,0.9,2.8,1.3,4.3,1.1c0.5-0.1,1-0.2,1.5-0.4c0.5-0.3,1-0.6,1.5-0.9
		l3.2-2.3l7.9-5.6l4.6-3.3c0.8-0.5,1.6-1.1,2.3-1.9c0.7-0.8,1.1-1.7,1.3-2.7c0.2-1,0-2.1-0.4-3c-0.5-1-1.1-1.9-1.8-2.7
		c-1.3-1.8-2.7-3.7-4-5.6l-17.9-25.2c-0.8-1.1-1.9-1.8-3.2-2.1c-1.3-0.3-2.6-0.2-3.7,0.4c-0.6,0.3-1.1,0.7-1.6,1.1l-1.6,1.1
		l-3.2,2.3l-12.1,8.6c-1.8,1.5-2.4,3.8-1.7,6c0.4,1,1,1.9,1.7,2.8l1.9,2.6c2.4,3.4,4.7,6.7,6.8,9.6l9.8,13.9l2.6,3.8l0.7,1
		C300.1,283.4,300.2,283.5,300.3,283.7c-0.1-0.1-0.2-0.2-0.3-0.3l-0.7-1l-2.6-3.7l-9.9-13.8l-6.8-9.6l-1.9-2.6
		c-0.3-0.4-0.6-0.9-1-1.3c-0.3-0.5-0.6-1-0.8-1.5c-0.8-2.3-0.1-4.9,1.8-6.5c3.9-2.8,7.9-5.7,12.1-8.7l3.2-2.3l1.6-1.1
		c0.5-0.4,1.1-0.8,1.7-1.1c1.3-0.6,2.7-0.8,4.1-0.5s2.6,1.2,3.5,2.4c6.4,8.9,12.4,17.4,17.9,25.2l4,5.7l1,1.4
		c0.3,0.5,0.6,0.9,0.9,1.5c0.8,2.1,0.5,4.5-1,6.2c-0.7,0.7-1.5,1.4-2.4,1.9l-4.6,3.3l-7.9,5.6l-3.3,2.3c-0.5,0.4-1,0.7-1.5,0.9
		c-0.5,0.2-1,0.4-1.6,0.4c-1.6,0.2-3.2-0.3-4.4-1.3C300.9,284.5,300.6,284.1,300.3,283.7z"/>
	<g class="st11">
		<path d="M308.1,258.9c1.9-1.4,2.4-4,1-6c-1.4-1.9-4-2.4-6-1c-1.6,1.1-2.2,3.1-1.6,4.9l-5.2,3.7l1.4,1.9l5.2-3.7
			C304.5,259.9,306.6,260,308.1,258.9z"/>
	</g>
	<path class="st12" d="M278,246.9c-0.1-0.1,4.4-3.4,9.9-7.3c5.5-3.9,10.1-7,10.1-6.9s-4.4,3.4-9.9,7.3
		C282.6,243.9,278,247,278,246.9z"/>
	<path class="st12" d="M299.2,255.8c-0.1-0.2-0.1-0.4-0.1-0.6c0-0.5,0.1-1.1,0.3-1.6c1-3.2,4.3-4.9,7.5-4c0.4,0.1,0.7,0.3,1.1,0.5
		c0.5,0.2,0.9,0.6,1.3,0.9c0.3,0.3,0.4,0.4,0.4,0.5c-0.6-0.4-1.2-0.8-1.8-1.1c-3-1.4-6.6-0.1-8,2.9c-0.1,0.1-0.1,0.3-0.2,0.5
		C299.5,254.5,299.3,255.1,299.2,255.8z"/>
	<path class="st3" d="M365.6,370.5l6.4,18.7c2.4,6.9,9.9,10.6,16.8,8.3l0,0c6.9-2.4,10.6-9.9,8.3-16.8l0,0l-6.5-19.1
		c-2.4-6.9-9.9-10.6-16.8-8.2c-0.5,0.2-0.9,0.4-1.4,0.6C366.2,356.9,363.3,364,365.6,370.5z M376.7,358.8c3.5-0.6,6.9,1.5,8,4.9
		l6.3,18.4c1.2,3.4-0.3,7.2-3.5,8.9c-3.5,1.7-7.8,0.2-9.5-3.3c-0.1-0.3-0.2-0.5-0.3-0.8l-6.5-18.9c-1.3-3.7,0.7-7.7,4.4-9
		C376,359,376.4,358.9,376.7,358.8L376.7,358.8z"/>
	<path class="st2" d="M378.8,358.8l-2.3-6c0.7-0.1,1.4-0.1,2.1-0.1l2,6.6C380.6,359.2,379.2,358.5,378.8,358.8z"/>
	<path class="st2" d="M371.8,362.3l-4.4-4.4c0.8-0.9,1.7-1.8,2.6-2.6l2.3,6.2L371.8,362.3z"/>
	<path class="st9" d="M365.6,370.5l6.4,18.7c2.4,6.9,9.9,10.6,16.8,8.3l0,0c6.9-2.4,10.6-9.9,8.3-16.8l0,0l-6.5-19.1
		c-2.4-6.9-9.9-10.6-16.8-8.2c-0.5,0.2-0.9,0.4-1.4,0.6C366.2,356.9,363.3,364,365.6,370.5z M376.7,358.8c3.5-0.6,6.9,1.5,8,4.9
		l6.3,18.4c1.2,3.4-0.3,7.2-3.5,8.9c-3.5,1.7-7.8,0.2-9.5-3.3c-0.1-0.3-0.2-0.5-0.3-0.8l-6.5-18.9c-1.3-3.7,0.7-7.7,4.4-9
		C376,359,376.4,358.9,376.7,358.8L376.7,358.8z"/>
	<path class="st6" d="M376.8,358.8c-1.1,0.3-2.1,0.8-2.9,1.4c-1,0.8-1.8,1.8-2.2,3c-0.6,1.6-0.6,3.3,0,4.9c1.3,3.6,2.7,7.9,4.4,12.6
		l1.3,3.7c0.4,1.3,0.9,2.5,1.4,3.7c1.5,2.4,4.2,3.7,7,3.2c1.4-0.2,2.6-0.9,3.6-1.9c0.9-1,1.6-2.2,1.8-3.5c0.6-2.7-0.9-5.1-1.5-7.5
		c-1.6-4.8-3.1-9.1-4.3-12.7c-0.3-0.9-0.6-1.8-0.9-2.5s-0.7-1.4-1.3-2c-0.8-1-1.9-1.7-3.1-2.1c-0.8-0.3-1.6-0.4-2.4-0.3
		C377.3,358.8,377,358.8,376.8,358.8c0.1-0.1,0.1-0.1,0.2-0.1c0.2,0,0.4-0.1,0.6-0.1c0.8-0.1,1.7,0,2.5,0.3c1.3,0.4,2.4,1.1,3.3,2.1
		c0.6,0.6,1,1.3,1.4,2.1c0.3,0.8,0.6,1.7,0.9,2.6c1.3,3.6,2.7,7.9,4.4,12.6l1.3,3.7c0.5,1.3,0.6,2.7,0.3,4.1c-0.3,1.4-0.9,2.8-2,3.8
		c-1.1,1.1-2.4,1.8-3.9,2c-3,0.5-6-0.8-7.5-3.4c-0.3-0.6-0.6-1.2-0.8-1.9c-0.2-0.6-0.4-1.3-0.6-1.9c-0.4-1.2-0.8-2.5-1.2-3.7
		c-1.6-4.8-3.1-9.1-4.3-12.7c-1.1-3-0.1-6.3,2.5-8.2c0.7-0.5,1.4-0.9,2.2-1.1c0.3-0.1,0.5-0.1,0.6-0.1L376.8,358.8z"/>
	<path class="st6" d="M365.6,370.5c-0.1-0.1-0.1-0.2-0.1-0.3l-0.3-0.9c-0.3-1.2-0.4-2.4-0.4-3.6c0-1.9,0.4-3.8,1.2-5.6
		c0.5-1.1,1.1-2.1,1.9-3c0.9-1,1.9-1.9,3-2.6c1.3-0.8,2.6-1.3,4.1-1.7c1.6-0.4,3.2-0.4,4.8-0.2c3.6,0.5,6.8,2.3,9,5.2l0.8,1.2
		l0.7,1.3c0.2,0.5,0.4,0.9,0.5,1.4s0.3,0.9,0.5,1.4l1.9,5.6c1.3,3.8,2.7,7.7,4,11.8c2.6,7-1,14.7-8,17.3c-6.1,2.2-12.9-0.2-16.2-5.8
		c-0.7-1.3-1.3-2.7-1.7-4.1c-1.8-5.3-3.2-9.5-4.2-12.5c-0.5-1.5-0.9-2.6-1.1-3.4l-0.3-0.9C365.6,370.7,365.6,370.6,365.6,370.5
		c0,0.1,0.1,0.2,0.1,0.3l0.3,0.9c0.3,0.8,0.7,1.9,1.2,3.4l4.4,12.5c0.4,1.4,1,2.7,1.7,4c3.5,6.3,11.4,8.6,17.7,5.1
		c5.7-3.2,8.2-10.1,5.8-16.2l-4-11.8c-0.7-1.9-1.3-3.8-1.9-5.6l-0.5-1.4c-0.2-0.4-0.4-0.9-0.5-1.3s-0.4-0.8-0.6-1.2l-0.8-1.1
		c-2.1-2.8-5.2-4.6-8.7-5.1c-1.5-0.2-3.1-0.1-4.6,0.2c-1.4,0.3-2.8,0.9-4,1.6c-1.1,0.7-2.1,1.5-3,2.5c-0.8,0.9-1.4,1.9-1.9,2.9
		c-0.8,1.7-1.3,3.6-1.3,5.5C364.9,367.3,365.1,368.9,365.6,370.5z"/>
	<path class="st3" d="M382.7,391.1l11.2,32c0.6,1.8,2.6,2.7,4.4,2.1l0,0c1.8-0.6,2.7-2.6,2.1-4.4l-11.2-32c-0.6-1.8-2.6-2.7-4.4-2.1
		l0,0l0,0C383,387.4,382.1,389.3,382.7,391.1z"/>
	<path class="st6" d="M382.7,391.1c-0.1-0.3-0.2-0.6-0.2-0.9c-0.1-0.9,0.2-1.8,0.7-2.5c1.2-1.5,3.5-1.8,5-0.6c0.4,0.3,0.6,0.6,0.9,1
		c0.2,0.4,0.4,0.9,0.5,1.3c0.2,0.5,0.3,0.9,0.5,1.4c2.7,7.7,6.4,18.2,10.5,29.8c0.7,1.9-0.4,4-2.3,4.7c-1.2,0.4-2.6,0.2-3.6-0.7
		c-0.6-0.5-1-1.2-1.2-1.9c-0.2-0.7-0.5-1.3-0.7-2l-1.4-3.9c-1.7-5-3.3-9.6-4.6-13.4s-2.3-6.9-3.1-9.1l-0.8-2.5L382.7,391.1
		C382.7,391.2,382.7,391.2,382.7,391.1c0.1,0,0.1,0.1,0.1,0.2l0.3,0.6l0.9,2.5c0.8,2.2,1.9,5.2,3.2,9s3,8.4,4.8,13.4
		c0.4,1.3,0.9,2.5,1.4,3.9l0.7,2c0.2,0.7,0.5,1.2,1.1,1.7c1.3,1.1,3.4,1,4.5-0.4c0.7-0.9,0.9-2,0.6-3.1L389.8,391
		c-0.2-0.5-0.3-0.9-0.5-1.4c-0.1-0.4-0.3-0.9-0.5-1.3c-0.9-1.6-2.9-2.2-4.5-1.3c-0.4,0.2-0.7,0.5-0.9,0.8c-0.6,0.7-0.8,1.5-0.8,2.4
		C382.6,390.5,382.7,390.8,382.7,391.1z"/>
	<path class="st3" d="M301.3,189.7l6.5,19c2.3,6.9,9.9,10.7,16.8,8.3l0,0l0,0c6.9-2.4,10.6-9.9,8.3-16.8l-6.5-19.1
		c-2.5-6.9-10.1-10.4-17-7.9C302.7,175.6,299.1,182.9,301.3,189.7L301.3,189.7z M311.5,178.6c3.7-1.3,7.7,0.7,9,4.3c0,0,0,0,0,0.1
		l6.5,18.9c1.4,3.6-0.4,7.7-4.1,9.1s-7.7-0.4-9.1-4.1c-0.1-0.2-0.1-0.3-0.2-0.5l-6.5-18.9C305.9,183.9,307.8,179.9,311.5,178.6z"/>
	<path class="st2" d="M314.5,178.3l-2.3-6.1c0.7-0.1,1.4-0.1,2.1-0.1l2,6.6C316.3,178.7,314.9,178.1,314.5,178.3z"/>
	<path class="st2" d="M307.6,181.8l-4.4-4.5c0.8-0.9,1.7-1.8,2.6-2.6l2.3,6.2L307.6,181.8z"/>
	<path class="st9" d="M301.3,189.7l6.5,19c2.3,6.9,9.9,10.7,16.8,8.3l0,0l0,0c6.9-2.4,10.6-9.9,8.3-16.8l-6.5-19.1
		c-2.5-6.9-10.1-10.4-17-7.9C302.7,175.6,299.1,182.9,301.3,189.7L301.3,189.7z M311.5,178.6c3.7-1.3,7.7,0.7,9,4.3c0,0,0,0,0,0.1
		l6.5,18.9c1.4,3.6-0.4,7.7-4.1,9.1s-7.7-0.4-9.1-4.1c-0.1-0.2-0.1-0.3-0.2-0.5l-6.5-18.9C305.9,183.9,307.8,179.9,311.5,178.6z"/>
	<path class="st6" d="M311.5,178.6c-1,0.4-1.9,1.1-2.7,1.8c-0.9,0.9-1.5,2.1-1.8,3.3c-0.2,0.8-0.2,1.6-0.1,2.4
		c0.2,0.9,0.4,1.7,0.7,2.6c1.3,3.6,2.7,7.9,4.4,12.7l1.3,3.7c0.2,0.6,0.4,1.3,0.7,1.9c0.3,0.6,0.6,1.2,1,1.7
		c2.4,2.9,6.7,3.2,9.6,0.8c1.4-1.2,2.3-3,2.4-4.9c0-0.7,0-1.3-0.2-1.9c-0.2-0.6-0.4-1.3-0.6-1.9c-0.4-1.3-0.8-2.5-1.3-3.7l-4.3-12.7
		c-0.3-0.9-0.6-1.7-1-2.5c-0.4-0.7-0.9-1.3-1.5-1.8c-1-0.8-2.2-1.4-3.4-1.6C313.6,178.2,312.5,178.3,311.5,178.6l0.1-0.1
		c0.2-0.1,0.4-0.1,0.6-0.2c0.8-0.2,1.6-0.2,2.5-0.1c1.3,0.2,2.6,0.7,3.6,1.5c0.6,0.5,1.2,1.1,1.6,1.9c0.4,0.8,0.8,1.7,1,2.6
		c1.3,3.6,2.7,7.9,4.4,12.7l1.3,3.7c0.2,0.6,0.5,1.2,0.6,1.9c1,3.9-1.3,7.9-5.2,8.9c-1.3,0.3-2.6,0.3-3.9-0.1
		c-1.4-0.4-2.6-1.2-3.6-2.3c-0.5-0.5-0.8-1.1-1.1-1.8c-0.3-0.7-0.5-1.3-0.7-1.9l-1.2-3.7l-4.3-12.7c-0.3-0.9-0.6-1.7-0.7-2.7
		c-0.3-2.2,0.5-4.3,2-5.9c0.6-0.6,1.3-1.1,2-1.4c0.2-0.1,0.4-0.2,0.6-0.2L311.5,178.6z"/>
	<path class="st6" d="M301.3,189.7c0-0.1-0.1-0.2-0.1-0.3c-0.1-0.2-0.2-0.5-0.3-0.9c-0.3-1.2-0.4-2.4-0.4-3.6c0-1.9,0.5-3.8,1.4-5.5
		c0.5-1.1,1.2-2.1,2-3c0.9-1,2-1.9,3.1-2.6c6-3.6,13.7-2,17.8,3.7c0.5,0.8,1,1.6,1.4,2.5s0.7,1.8,1,2.7c0.6,1.8,1.3,3.7,1.9,5.6
		c1.3,3.8,2.6,7.7,4,11.8c0.7,2,0.9,4.2,0.6,6.4c-1.1,7.4-8,12.4-15.3,11.3c-2.5-0.4-4.8-1.4-6.7-3c-1.2-1.1-2.2-2.3-3-3.7
		c-0.7-1.3-1.2-2.7-1.6-4.1c-1.8-5.3-3.2-9.6-4.2-12.6c-0.5-1.5-0.9-2.6-1.1-3.4l-0.3-0.9C301.3,189.9,301.3,189.8,301.3,189.7
		c0.1,0.1,0.1,0.2,0.2,0.3l0.3,0.9c0.3,0.8,0.7,1.9,1.2,3.4l4.4,12.5c0.4,1.4,1,2.7,1.6,4c3.5,6.3,11.4,8.6,17.7,5.1
		c1.7-1,3.2-2.3,4.4-4c1.2-1.6,1.9-3.5,2.2-5.5c0.3-2.1,0.1-4.1-0.5-6.1c-1.4-4-2.7-8-4-11.8c-0.6-1.9-1.3-3.8-1.9-5.6
		c-0.3-0.9-0.6-1.8-1-2.7c-0.4-0.8-0.8-1.6-1.4-2.4c-2-2.8-5.1-4.7-8.5-5.3c-3-0.5-6.1,0.1-8.7,1.6c-2.1,1.3-3.9,3.1-5,5.4
		c-0.9,1.7-1.3,3.5-1.4,5.4C300.7,186.5,300.8,188.1,301.3,189.7z"/>
	<path class="st3" d="M280.1,129.2l6.5,19c2.4,6.9,9.9,10.6,16.8,8.3l0,0l0,0c6.9-2.4,10.6-9.9,8.2-16.8l-6.5-19
		c-2.5-6.9-10.1-10.4-17-7.9C281.4,115.2,277.9,122.4,280.1,129.2L280.1,129.2z M290.3,118.1c3.7-1.3,7.7,0.7,9,4.3c0,0,0,0,0,0.1
		l6.5,18.9c1.3,3.7-0.7,7.7-4.4,9c-3.7,1.3-7.7-0.7-9-4.4l-6.5-18.9C284.7,123.4,286.6,119.4,290.3,118.1L290.3,118.1z"/>
	<path class="st2" d="M293.3,117.8l-2.3-6c0.7-0.1,1.4-0.1,2.1-0.1l2,6.6C295.1,118.3,293.7,117.6,293.3,117.8z"/>
	<path class="st2" d="M286.4,121.3l-4.4-4.4c0.8-0.9,1.7-1.8,2.6-2.6l2.3,6.2L286.4,121.3z"/>
	<path class="st9" d="M280.1,129.2l6.5,19c2.4,6.9,9.9,10.6,16.8,8.3l0,0l0,0c6.9-2.4,10.6-9.9,8.2-16.8l-6.5-19
		c-2.5-6.9-10.1-10.4-17-7.9C281.4,115.2,277.9,122.4,280.1,129.2L280.1,129.2z M290.3,118.1c3.7-1.3,7.7,0.7,9,4.3c0,0,0,0,0,0.1
		l6.5,18.9c1.3,3.7-0.7,7.7-4.4,9c-3.7,1.3-7.7-0.7-9-4.4l-6.5-18.9C284.7,123.4,286.6,119.4,290.3,118.1L290.3,118.1z"/>
	<path class="st6" d="M290.3,118.1c-1,0.4-1.9,1.1-2.7,1.8c-1.4,1.5-2.1,3.6-1.9,5.7c0.2,0.9,0.4,1.7,0.8,2.6
		c1.3,3.6,2.7,7.9,4.4,12.7l1.3,3.7c0.2,0.6,0.4,1.3,0.7,1.9c0.3,0.6,0.6,1.2,1,1.7c2.4,2.9,6.7,3.2,9.6,0.8c1.4-1.2,2.3-3,2.4-4.9
		c0-0.7,0-1.3-0.2-1.9c-0.2-0.6-0.4-1.3-0.6-1.9c-0.4-1.3-0.8-2.5-1.2-3.7c-1.6-4.8-3.1-9.1-4.3-12.7c-0.2-0.9-0.6-1.7-1-2.5
		c-1.1-1.8-2.9-3.1-5-3.4C292.3,117.8,291.2,117.8,290.3,118.1c-0.1,0,0,0,0.1-0.1s0.3-0.1,0.6-0.2c0.8-0.2,1.6-0.2,2.5-0.1
		c1.3,0.2,2.6,0.7,3.6,1.5c0.6,0.5,1.2,1.1,1.6,1.9s0.7,1.7,1,2.6c1.3,3.6,2.7,7.9,4.4,12.7l1.3,3.7c0.2,0.6,0.4,1.2,0.6,1.9
		s0.3,1.4,0.2,2.1c-0.1,1.4-0.5,2.8-1.4,4c-2.4,3.3-6.9,4-10.2,1.6c-0.5-0.4-0.9-0.8-1.3-1.2c-0.4-0.5-0.8-1.1-1.1-1.8
		c-0.3-0.6-0.5-1.3-0.7-1.9c-0.4-1.3-0.8-2.5-1.3-3.7c-1.6-4.8-3.1-9.1-4.3-12.7c-0.3-0.9-0.6-1.8-0.7-2.7c-0.3-2.2,0.5-4.3,2-5.9
		c0.6-0.6,1.3-1.1,2-1.4c0.2-0.1,0.4-0.2,0.6-0.2L290.3,118.1z"/>
	<path class="st6" d="M280.1,129.2c-0.1-0.1-0.1-0.2-0.1-0.3c-0.1-0.2-0.2-0.5-0.3-0.9c-0.3-1.2-0.4-2.4-0.4-3.6
		c0.1-1.9,0.5-3.8,1.4-5.5c0.5-1.1,1.2-2.1,2-3c0.9-1,2-1.9,3.1-2.6c6-3.6,13.7-2,17.8,3.7c0.5,0.8,1,1.6,1.4,2.5s0.7,1.8,1,2.7
		l1.9,5.6c1.3,3.8,2.7,7.7,4,11.8c0.7,2,0.9,4.2,0.6,6.4c-1.1,7.4-7.9,12.4-15.3,11.4c-4.2-0.6-7.8-3.1-9.8-6.8
		c-0.7-1.3-1.2-2.7-1.6-4.1c-1.8-5.3-3.2-9.6-4.2-12.6c-0.5-1.5-0.9-2.6-1.1-3.4l-0.3-0.9C280.1,129.3,280,129.2,280.1,129.2
		c0,0.1,0.1,0.2,0.1,0.3l0.3,0.9c0.3,0.8,0.7,1.9,1.2,3.4l4.4,12.5c0.4,1.4,1,2.7,1.6,4c0.8,1.4,1.8,2.6,3,3.6
		c5.5,4.7,13.7,4,18.3-1.5c1.6-1.9,2.6-4.1,3-6.5c0.3-2.1,0.1-4.1-0.5-6.1c-1.4-4-2.7-8-4-11.8c-0.6-1.9-1.3-3.8-1.9-5.6
		c-0.3-0.9-0.6-1.8-1-2.7c-0.4-0.8-0.8-1.6-1.4-2.4c-3.9-5.5-11.4-7.1-17.2-3.6c-1.1,0.7-2.1,1.5-3,2.5c-0.8,0.9-1.4,1.8-2,2.9
		c-0.9,1.7-1.3,3.5-1.4,5.4C279.4,126,279.6,127.6,280.1,129.2z"/>
	<path class="st3" d="M261.2,75.1l6.5,19.1c2.4,6.9,9.9,10.6,16.8,8.3l0,0c6.9-2.4,10.6-9.9,8.2-16.8l0,0l-6.5-19.1
		c-2.5-6.9-10.1-10.4-17-7.9C262.6,61.1,259,68.4,261.2,75.1z M271.4,64.1c3.7-1.3,7.7,0.7,9,4.4l0,0l6.5,18.9
		c1.3,3.7-0.7,7.7-4.4,9s-7.7-0.7-9-4.4L267,73.1C265.7,69.4,267.7,65.4,271.4,64.1L271.4,64.1L271.4,64.1z"/>
	<path class="st2" d="M274.4,63.8l-2.3-6.1c0.7-0.1,1.4-0.1,2.1-0.1l2,6.6C276.3,64.2,274.9,63.5,274.4,63.8z"/>
	<path class="st2" d="M267.5,67.3l-4.4-4.4c0.8-0.9,1.7-1.8,2.6-2.6l2.3,6.2L267.5,67.3z"/>
	<path class="st9" d="M261.2,75.1l6.5,19.1c2.4,6.9,9.9,10.6,16.8,8.3l0,0c6.9-2.4,10.6-9.9,8.2-16.8l0,0l-6.5-19.1
		c-2.5-6.9-10.1-10.4-17-7.9C262.6,61.1,259,68.4,261.2,75.1z M271.4,64.1c3.7-1.3,7.7,0.7,9,4.4l0,0l6.5,18.9
		c1.3,3.7-0.7,7.7-4.4,9s-7.7-0.7-9-4.4L267,73.1C265.7,69.4,267.7,65.4,271.4,64.1L271.4,64.1L271.4,64.1z"/>
	<path class="st6" d="M271.4,64.1c-1,0.4-1.9,1.1-2.7,1.8c-0.9,0.9-1.5,2.1-1.8,3.3c-0.2,0.8-0.2,1.6-0.1,2.4
		c0.2,0.9,0.4,1.7,0.7,2.6c1.3,3.6,2.7,7.9,4.4,12.7l1.3,3.7c0.2,0.6,0.4,1.3,0.7,1.9c0.3,0.6,0.6,1.2,1,1.7
		c2.4,2.9,6.7,3.2,9.6,0.8c1.4-1.2,2.3-3,2.4-4.9c0-0.7,0-1.3-0.2-2c-0.2-0.6-0.4-1.3-0.6-1.9c-0.4-1.3-0.8-2.5-1.3-3.7
		c-1.6-4.8-3.1-9.1-4.3-12.7c-0.2-0.9-0.6-1.7-1-2.5c-0.4-0.7-0.9-1.3-1.5-1.8c-1-0.8-2.2-1.4-3.4-1.6
		C273.5,63.7,272.4,63.8,271.4,64.1c-0.1-0.1,0-0.1,0.1-0.1c0.2-0.1,0.4-0.1,0.6-0.2c0.8-0.2,1.6-0.2,2.5-0.1
		c1.3,0.2,2.6,0.7,3.6,1.5c0.6,0.5,1.2,1.2,1.6,1.9c0.4,0.8,0.8,1.7,1.1,2.5c1.3,3.6,2.7,7.9,4.4,12.7l1.3,3.7
		c0.2,0.6,0.4,1.2,0.6,1.9c0.2,0.7,0.3,1.4,0.2,2.1c-0.1,4-3.5,7.2-7.6,7c-0.6,0-1.2-0.1-1.8-0.3c-2.1-0.6-3.8-2.1-4.7-4.1
		c-0.3-0.6-0.4-1.3-0.7-1.9c-0.4-1.3-0.8-2.5-1.3-3.7l-4.2-12.6c-0.3-0.9-0.6-1.7-0.7-2.7c-0.1-0.8,0-1.7,0.1-2.5
		c0.3-1.3,1-2.5,1.9-3.4c0.6-0.6,1.3-1.1,2-1.4c0.2-0.1,0.4-0.2,0.6-0.2L271.4,64.1z"/>
	<path class="st6" d="M261.2,75.1c0,0,0-0.1-0.1-0.3c-0.1-0.2-0.2-0.5-0.3-0.9c-0.3-1.2-0.4-2.4-0.4-3.6c0-1.9,0.5-3.8,1.4-5.5
		c0.5-1.1,1.2-2.1,2-3c0.9-1,2-1.9,3.1-2.6c6-3.6,13.7-2,17.8,3.7c0.5,0.8,1,1.6,1.4,2.5c0.4,0.9,0.7,1.8,1,2.7
		c0.6,1.8,1.3,3.7,1.9,5.6l4,11.8c0.7,2,0.9,4.2,0.6,6.4c-1.1,7.4-8,12.4-15.3,11.3c-4.1-0.6-7.8-3.1-9.8-6.8
		c-0.7-1.3-1.2-2.7-1.6-4.1c-1.8-5.3-3.2-9.6-4.2-12.5c-0.5-1.5-0.9-2.6-1.1-3.4l-0.3-0.9C261.2,75.3,261.1,75.2,261.2,75.1
		c0,0.1,0.1,0.2,0.1,0.3l0.3,0.9c0.3,0.8,0.7,2,1.2,3.4l4.4,12.5c0.4,1.4,1,2.7,1.6,4c3.5,6.3,11.4,8.6,17.7,5.1
		c3.6-2,6-5.5,6.6-9.5c0.3-2.1,0.1-4.1-0.5-6.1c-1.4-4-2.7-8-4-11.8c-0.7-1.9-1.3-3.8-1.9-5.6c-0.3-0.9-0.6-1.8-1-2.7
		c-0.4-0.8-0.8-1.6-1.4-2.4c-2-2.8-5.1-4.7-8.5-5.3c-3-0.5-6.1,0.1-8.7,1.6c-2.1,1.3-3.9,3.1-5,5.3c-0.9,1.7-1.3,3.5-1.4,5.4
		C260.5,71.9,260.7,73.6,261.2,75.1z"/>
	<path class="st3" d="M256.9,36.7l11.9,31.8c0.7,1.8,2.7,2.7,4.5,2l0,0c1.8-0.7,2.7-2.7,2-4.4l-11.9-31.7c-0.7-1.8-2.7-2.7-4.4-2
		l0,0C257.2,32.9,256.3,34.9,256.9,36.7z"/>
	<path class="st6" d="M256.9,36.7c-0.1-0.3-0.2-0.6-0.3-0.9c-0.1-0.9,0.1-1.8,0.7-2.5c1.2-1.6,3.4-1.9,5-0.7c0.4,0.3,0.7,0.6,0.9,1
		c0.2,0.4,0.4,0.9,0.6,1.3l0.5,1.4l11.2,29.6c0.6,1.6,0,3.4-1.4,4.3c-0.7,0.5-1.5,0.7-2.3,0.7s-1.6-0.3-2.2-0.8s-1-1.1-1.3-1.9
		c-0.3-0.7-0.5-1.3-0.7-2c-0.5-1.3-1-2.6-1.4-3.8c-1.9-5-3.5-9.5-4.9-13.3l-3.3-9c-0.4-1-0.7-1.8-0.9-2.4l-0.2-0.7
		C256.9,36.8,256.9,36.7,256.9,36.7s0,0.1,0.1,0.2l0.3,0.6l0.9,2.4l3.4,9l5,13.3c0.5,1.3,1,2.5,1.5,3.8c0.3,0.7,0.5,1.3,0.8,2
		c0.2,0.7,0.6,1.2,1.1,1.7c1.4,1.1,3.4,0.9,4.5-0.5c0.7-0.9,0.9-2,0.5-3.1c-4.3-11.6-8.2-22-11-29.7c-0.2-0.5-0.4-0.9-0.5-1.4
		c-0.1-0.4-0.3-0.9-0.5-1.3c-0.9-1.6-3-2.1-4.6-1.1c-0.3,0.2-0.6,0.5-0.9,0.8c-0.5,0.7-0.8,1.5-0.7,2.4
		C256.8,36.3,256.9,36.7,256.9,36.7z"/>
	<path class="st3" d="M297,151.2l11.9,31.8c0.7,1.8,2.7,2.7,4.5,2l0,0c1.8-0.7,2.7-2.7,2-4.4l-11.9-31.8c-0.7-1.8-2.7-2.7-4.4-2l0,0
		C297.2,147.4,296.3,149.4,297,151.2z"/>
	<path class="st6" d="M297,151.2c-0.1-0.3-0.2-0.6-0.3-0.9c-0.1-0.9,0.1-1.8,0.7-2.5c1.2-1.6,3.5-1.9,5-0.7c0.4,0.3,0.6,0.6,0.9,1
		c0.2,0.4,0.4,0.9,0.6,1.3l0.5,1.4l11.2,29.6c0.7,1.9-0.3,4.1-2.2,4.8c-0.5,0.2-0.9,0.2-1.4,0.2c-0.8,0-1.6-0.3-2.2-0.8
		s-1-1.2-1.3-1.9s-0.5-1.3-0.7-2c-0.5-1.3-1-2.6-1.4-3.9l-4.9-13.3l-3.3-9l-0.9-2.5c-0.1-0.3-0.2-0.5-0.2-0.6
		C297,151.3,297,151.2,297,151.2c0.1,0.1,0.1,0.1,0.1,0.2c0.1,0.2,0.2,0.4,0.3,0.6c0.2,0.6,0.6,1.4,1,2.4c0.8,2.2,2,5.2,3.4,9
		s3.1,8.3,5,13.3l1.4,3.9l0.8,2c0.2,0.7,0.6,1.2,1.1,1.7c1.4,1.1,3.4,0.9,4.5-0.5c0.7-0.9,0.9-2,0.5-3.1c-4.3-11.6-8.2-22-11-29.6
		l-0.5-1.4c-0.1-0.4-0.3-0.9-0.5-1.3c-0.4-0.7-1.1-1.3-1.9-1.5c-1.3-0.4-2.7,0.1-3.6,1.1c-0.5,0.7-0.8,1.5-0.7,2.4
		C296.9,150.9,297,151.2,297,151.2z"/>
	<path class="st3" d="M344.6,308.4l6.4,18.7c2.4,6.9,9.9,10.6,16.8,8.3l0,0c6.9-2.4,10.6-9.9,8.3-16.8l0,0l-6.5-19
		c-2.4-6.9-9.9-10.6-16.8-8.2c-0.5,0.2-0.9,0.4-1.4,0.6C345.2,294.8,342.3,302,344.6,308.4z M355.7,296.7c3.5-0.6,6.9,1.5,8,4.9
		L370,320c1.2,3.4-0.3,7.2-3.5,8.9c-3.5,1.7-7.8,0.2-9.5-3.3c-0.1-0.3-0.2-0.5-0.3-0.8l-6.5-18.9c-1.3-3.7,0.7-7.7,4.4-9
		C355,296.9,355.4,296.8,355.7,296.7L355.7,296.7z"/>
	<path class="st2" d="M357.7,296.7l-2.3-6c0.7-0.1,1.4-0.1,2.1-0.1l2,6.6C359.5,297.1,358.1,296.5,357.7,296.7z"/>
	<path class="st2" d="M350.8,300.2l-4.4-4.4c0.8-0.9,1.7-1.8,2.6-2.6l2.3,6.2L350.8,300.2z"/>
	<path class="st9" d="M344.6,308.4l6.4,18.7c2.4,6.9,9.9,10.6,16.8,8.3l0,0c6.9-2.4,10.6-9.9,8.3-16.8l0,0l-6.5-19
		c-2.4-6.9-9.9-10.6-16.8-8.2c-0.5,0.2-0.9,0.4-1.4,0.6C345.2,294.8,342.3,302,344.6,308.4z M355.7,296.7c3.5-0.6,6.9,1.5,8,4.9
		L370,320c1.2,3.4-0.3,7.2-3.5,8.9c-3.5,1.7-7.8,0.2-9.5-3.3c-0.1-0.3-0.2-0.5-0.3-0.8l-6.5-18.9c-1.3-3.7,0.7-7.7,4.4-9
		C355,296.9,355.4,296.8,355.7,296.7L355.7,296.7z"/>
	<path class="st6" d="M355.7,296.7c-1.1,0.3-2,0.8-2.9,1.4c-1,0.8-1.8,1.8-2.2,3c-0.6,1.6-0.6,3.3,0,4.9c1.3,3.6,2.7,7.9,4.4,12.6
		l1.3,3.7c0.4,1.3,0.9,2.5,1.4,3.7c1.5,2.4,4.2,3.7,7,3.2c1.4-0.2,2.6-0.9,3.6-1.9c0.9-1,1.6-2.2,1.8-3.5c0.6-2.7-0.9-5.1-1.5-7.5
		c-1.6-4.8-3.1-9.1-4.3-12.7c-0.3-0.9-0.6-1.8-0.9-2.5s-0.7-1.4-1.3-2c-0.8-1-1.9-1.7-3.1-2.1c-0.8-0.3-1.6-0.4-2.4-0.3
		C356.3,296.7,356,296.7,355.7,296.7l0.2-0.1c0.2,0,0.4-0.1,0.6-0.1c0.8-0.1,1.7,0,2.5,0.3c1.3,0.4,2.4,1.1,3.3,2.1
		c0.6,0.6,1,1.3,1.4,2.1c0.3,0.8,0.6,1.7,0.9,2.6c1.3,3.6,2.7,7.9,4.4,12.6l1.3,3.7c0.5,1.3,0.6,2.7,0.3,4.1c-0.3,1.4-1,2.8-2,3.8
		c-1.1,1.1-2.4,1.8-3.9,2c-3,0.5-6-0.8-7.5-3.4c-0.3-0.6-0.6-1.2-0.8-1.9c-0.2-0.6-0.4-1.3-0.6-1.9c-0.4-1.3-0.8-2.5-1.2-3.7
		c-1.6-4.8-3.1-9.1-4.3-12.7c-0.6-1.7-0.6-3.5,0.1-5.1c0.5-1.2,1.3-2.3,2.4-3.1c0.7-0.5,1.4-0.9,2.2-1.1c0.3-0.1,0.5-0.1,0.6-0.1
		L355.7,296.7z"/>
	<path class="st6" d="M344.6,308.4c0,0,0-0.1-0.1-0.3s-0.2-0.5-0.3-0.9c-0.3-1.2-0.4-2.4-0.4-3.6c0-1.9,0.4-3.8,1.2-5.6
		c0.5-1.1,1.1-2.1,1.9-3c0.9-1,1.9-1.9,3-2.6c1.3-0.8,2.6-1.3,4.1-1.7c1.6-0.4,3.2-0.4,4.8-0.2c3.6,0.5,6.8,2.3,9,5.2l0.8,1.2
		l0.7,1.3c0.2,0.5,0.4,0.9,0.5,1.4s0.3,0.9,0.5,1.4l1.9,5.6c1.3,3.8,2.6,7.7,4,11.8c2.6,7-1,14.7-8,17.3c-6.1,2.2-12.9-0.2-16.2-5.8
		c-0.7-1.3-1.2-2.7-1.7-4.1l-4.2-12.5c-0.5-1.5-0.9-2.6-1.1-3.4c-0.1-0.4-0.2-0.7-0.3-0.9C344.6,308.6,344.6,308.5,344.6,308.4
		c0,0.1,0.1,0.2,0.1,0.3l0.3,0.9c0.3,0.8,0.7,1.9,1.2,3.4l4.4,12.5c0.4,1.4,1,2.7,1.7,4c3.5,6.3,11.4,8.5,17.7,5
		c5.7-3.2,8.2-10.1,5.8-16.1c-1.4-4-2.7-8-4-11.8c-0.7-1.9-1.3-3.8-1.9-5.6c-0.1-0.5-0.3-0.9-0.5-1.4s-0.4-0.9-0.5-1.3
		s-0.4-0.8-0.6-1.2l-0.8-1.1c-2.1-2.8-5.2-4.6-8.7-5.1c-1.5-0.2-3.1-0.1-4.6,0.2c-1.4,0.3-2.8,0.9-4,1.6c-1.1,0.7-2.1,1.5-3,2.5
		c-0.8,0.9-1.4,1.9-1.9,2.9c-0.8,1.7-1.3,3.6-1.3,5.5C343.9,305.2,344.1,306.8,344.6,308.4z"/>
	<path class="st3" d="M360.4,327.5l11.2,32c0.6,1.8,2.6,2.7,4.4,2.1l0,0c1.8-0.6,2.7-2.6,2.1-4.4l0,0l-11.2-32
		c-0.6-1.8-2.6-2.7-4.4-2.1l0,0C360.8,323.7,359.8,325.7,360.4,327.5L360.4,327.5z"/>
	<path class="st6" d="M360.4,327.5c-0.1-0.3-0.2-0.6-0.2-0.9c-0.1-0.9,0.2-1.8,0.7-2.5c1.2-1.5,3.5-1.8,5-0.6c0.4,0.3,0.6,0.6,0.9,1
		c0.2,0.4,0.4,0.9,0.5,1.3l0.5,1.4c2.7,7.7,6.4,18.2,10.5,29.8c0.7,1.9-0.3,4-2.3,4.7c-0.5,0.2-1,0.2-1.5,0.2
		c-0.8-0.1-1.5-0.4-2.1-0.9s-1-1.2-1.2-1.9c-0.2-0.7-0.5-1.3-0.7-2l-1.3-3.9c-1.8-5-3.3-9.6-4.6-13.4s-2.4-6.9-3.1-9.1
		c-0.3-1-0.6-1.9-0.8-2.5c-0.1-0.3-0.1-0.5-0.2-0.6C360.5,327.6,360.4,327.5,360.4,327.5c0,0.1,0.1,0.1,0.1,0.2l0.3,0.6l0.9,2.5
		l3.2,9c1.4,3.8,3,8.4,4.8,13.4c0.4,1.3,0.9,2.5,1.4,3.9c0.2,0.7,0.5,1.3,0.7,2s0.5,1.3,1.1,1.7c1.4,1.1,3.4,0.9,4.5-0.4
		c0.7-0.8,0.9-1.9,0.6-3c-4-11.6-7.7-22.2-10.4-29.9l-0.5-1.4c-0.1-0.4-0.3-0.9-0.5-1.3c-0.4-0.7-1.1-1.3-1.9-1.5
		c-1.3-0.4-2.7,0-3.6,1c-0.5,0.7-0.8,1.5-0.8,2.4C360.3,327.2,360.5,327.5,360.4,327.5z"/>
	<path class="st3" d="M323.3,247.6l6.5,19.1c2.4,6.9,9.9,10.6,16.8,8.3l0,0c6.9-2.4,10.6-9.9,8.3-16.8l0,0l-6.5-19
		c-2.4-6.9-9.9-10.6-16.8-8.3C324.6,233.1,320.9,240.6,323.3,247.6L323.3,247.6z M333.5,236.5c3.7-1.3,7.7,0.7,9,4.4l0,0l6.5,18.9
		c1.3,3.7-0.7,7.7-4.4,9s-7.7-0.7-9-4.4l0,0l-6.5-18.9C327.8,241.8,329.8,237.8,333.5,236.5z"/>
	<path class="st2" d="M336.5,236.2l-2.3-6c0.7-0.1,1.4-0.1,2.1-0.1l2,6.6C338.3,236.6,336.9,236,336.5,236.2z"/>
	<path class="st2" d="M329.6,239.7l-4.4-4.4c0.8-0.9,1.7-1.8,2.6-2.6l2.3,6.2L329.6,239.7z"/>
	<path class="st9" d="M323.3,247.6l6.5,19.1c2.4,6.9,9.9,10.6,16.8,8.3l0,0c6.9-2.4,10.6-9.9,8.3-16.8l0,0l-6.5-19
		c-2.4-6.9-9.9-10.6-16.8-8.3C324.6,233.1,320.9,240.6,323.3,247.6L323.3,247.6z M333.5,236.5c3.7-1.3,7.7,0.7,9,4.4l0,0l6.5,18.9
		c1.3,3.7-0.7,7.7-4.4,9s-7.7-0.7-9-4.4l0,0l-6.5-18.9C327.8,241.8,329.8,237.8,333.5,236.5z"/>
	<path class="st6" d="M333.5,236.5c-1,0.4-1.9,1.1-2.7,1.8c-1.4,1.5-2.1,3.6-1.9,5.7c0.2,0.9,0.4,1.7,0.8,2.6
		c1.3,3.6,2.7,7.9,4.4,12.7l1.3,3.7c0.2,0.6,0.4,1.3,0.7,1.9c0.2,0.6,0.6,1.2,1,1.7c2.4,2.9,6.7,3.2,9.6,0.8c1.4-1.2,2.3-3,2.4-4.9
		c0-0.7,0-1.3-0.2-2c-0.1-0.6-0.4-1.3-0.6-1.9l-1.2-3.7c-1.6-4.8-3.1-9.1-4.3-12.7c-0.2-0.9-0.6-1.7-1-2.5c-0.4-0.7-0.9-1.3-1.5-1.8
		c-1-0.8-2.2-1.4-3.4-1.6C335.6,236.2,334.5,236.2,333.5,236.5c-0.1,0,0,0,0.1-0.1c0.2-0.1,0.4-0.1,0.6-0.2c0.8-0.2,1.6-0.2,2.5-0.1
		c2.2,0.3,4.1,1.5,5.2,3.4c0.4,0.8,0.8,1.7,1.1,2.5c1.3,3.6,2.7,7.9,4.4,12.7c0.4,1.2,0.8,2.4,1.3,3.7c0.2,0.6,0.5,1.2,0.6,1.9
		c0.5,2.1,0.1,4.4-1.2,6.1c-2.4,3.3-6.9,4-10.2,1.6c-0.5-0.4-0.9-0.8-1.3-1.2c-0.5-0.5-0.8-1.1-1.1-1.8c-0.3-0.6-0.5-1.3-0.7-1.9
		c-0.4-1.3-0.8-2.5-1.2-3.7c-1.6-4.8-3.1-9.1-4.3-12.7c-0.3-0.9-0.6-1.7-0.7-2.6c-0.1-0.8,0-1.7,0.1-2.5c0.5-2.1,1.9-3.9,3.9-4.8
		c0.2-0.1,0.4-0.2,0.6-0.2C333.4,236.5,333.5,236.5,333.5,236.5z"/>
	<path class="st6" d="M323.3,247.6c0-0.1-0.1-0.2-0.1-0.3c-0.1-0.2-0.2-0.5-0.3-0.9c-0.3-1.2-0.4-2.4-0.4-3.6
		c0.1-1.9,0.5-3.8,1.4-5.5c0.5-1.1,1.2-2.1,2-3c0.9-1,2-1.9,3.1-2.6c6-3.6,13.7-2,17.8,3.7c0.6,0.8,1,1.6,1.4,2.5s0.7,1.8,1,2.7
		l1.9,5.6l4,11.8c0.7,2,0.9,4.2,0.6,6.4c-1.1,7.4-8,12.4-15.4,11.2c-4.1-0.6-7.6-3.1-9.7-6.7c-0.7-1.3-1.2-2.7-1.6-4.1
		c-1.8-5.3-3.2-9.5-4.2-12.5c-0.5-1.5-0.9-2.6-1.1-3.4l-0.3-0.9C323.4,247.8,323.3,247.7,323.3,247.6c0.1,0.1,0.2,0.2,0.2,0.3
		c0.1,0.2,0.2,0.5,0.3,0.9c0.3,0.8,0.7,2,1.2,3.4l4.4,12.5c0.4,1.4,1,2.7,1.6,4c2.5,4.5,7.4,7.1,12.5,6.7c6-0.5,10.8-5.1,11.7-11
		c0.3-2.1,0.1-4.1-0.5-6.1c-1.4-4-2.7-8-4-11.8c-0.7-1.9-1.3-3.8-1.9-5.6c-0.3-0.9-0.6-1.8-1-2.7c-0.4-0.8-0.8-1.6-1.4-2.4
		c-3.9-5.5-11.4-7.1-17.2-3.6c-2.1,1.3-3.9,3.1-5,5.3c-0.9,1.7-1.3,3.5-1.4,5.4C322.6,244.4,322.8,246,323.3,247.6z"/>
	<path class="st3" d="M319,209.1l11.9,31.8c0.7,1.8,2.7,2.7,4.4,2l0,0c1.8-0.7,2.7-2.7,2-4.4l0,0l-11.9-31.8c-0.7-1.8-2.7-2.7-4.4-2
		l0,0C319.2,205.3,318.3,207.3,319,209.1z"/>
	<path class="st6" d="M319,209.1c-0.1-0.3-0.2-0.6-0.3-0.9c-0.1-0.9,0.1-1.8,0.7-2.5c0.9-1.2,2.4-1.7,3.8-1.3
		c0.9,0.3,1.6,0.8,2.1,1.6c0.2,0.4,0.4,0.9,0.6,1.3l0.5,1.4l11.2,29.6c0.7,1.9-0.3,4-2.2,4.8c-1.2,0.5-2.6,0.2-3.6-0.6
		c-0.6-0.5-1-1.2-1.2-1.9c-0.3-0.7-0.5-1.3-0.7-2l-1.4-3.9l-4.9-13.3c-1.4-3.8-2.5-6.8-3.3-9l-0.9-2.4l-0.2-0.6
		C319,209.2,319,209.2,319,209.1c0.1,0.1,0.1,0.1,0.1,0.2l0.3,0.6c0.2,0.6,0.6,1.4,1,2.4l3.4,9c1.4,3.8,3.1,8.3,5,13.3
		c0.5,1.3,1,2.5,1.5,3.9c0.2,0.7,0.5,1.3,0.7,2s0.6,1.2,1.1,1.7c1.4,1.1,3.4,0.9,4.5-0.5c0.7-0.9,0.9-2.1,0.5-3.1
		c-4.3-11.6-8.2-22-11-29.7l-0.5-1.4c-0.1-0.4-0.3-0.9-0.5-1.3c-1-1.6-3-2.1-4.6-1.1c-1.1,0.7-1.7,1.9-1.6,3.1
		C318.9,208.5,318.9,208.8,319,209.1z"/>
	<path class="st3" d="M340.2,269.6l11.9,31.7c0.7,1.8,2.7,2.7,4.4,2l0,0c1.8-0.7,2.7-2.7,2-4.4l-11.9-31.8c-0.7-1.8-2.7-2.7-4.4-2
		l0,0C340.4,265.8,339.5,267.8,340.2,269.6z"/>
	<path class="st6" d="M340.2,269.6c-0.1-0.3-0.2-0.6-0.3-0.9c-0.1-0.9,0.1-1.8,0.7-2.5c0.9-1.2,2.4-1.7,3.8-1.3
		c0.9,0.2,1.6,0.8,2.1,1.6c0.2,0.4,0.4,0.9,0.6,1.3l0.5,1.4c2.9,7.6,6.8,18.1,11.2,29.6c0.7,1.9-0.2,4-2.2,4.8
		c-1.2,0.5-2.6,0.2-3.7-0.6c-0.6-0.5-1-1.2-1.2-1.9c-0.3-0.7-0.5-1.3-0.7-2l-1.4-3.8l-5-13.3l-3.3-9c-0.4-1-0.7-1.8-0.9-2.5
		c-0.1-0.3-0.2-0.5-0.2-0.6C340.2,269.7,340.2,269.7,340.2,269.6c0,0,0,0.1,0.1,0.2l0.3,0.6c0.2,0.6,0.6,1.4,1,2.4l3.4,9l5,13.3
		c0.5,1.3,1,2.5,1.5,3.9c0.2,0.7,0.5,1.3,0.7,2s0.6,1.2,1.1,1.7c1.4,1.1,3.4,0.9,4.5-0.5c0.7-0.9,0.9-2.1,0.5-3.1l-11-29.7
		c-0.2-0.5-0.4-0.9-0.5-1.4c-0.1-0.4-0.3-0.9-0.5-1.3c-0.9-1.6-3-2.1-4.6-1.1c-0.3,0.2-0.6,0.5-0.9,0.8c-0.5,0.7-0.8,1.5-0.7,2.4
		C340.1,269.3,340.2,269.6,340.2,269.6z"/>
	<path class="st3" d="M275.8,90.7l11.9,31.8c0.7,1.8,2.7,2.7,4.4,2l0,0c1.8-0.7,2.7-2.7,2-4.4l-11.9-31.8c-0.7-1.8-2.7-2.7-4.4-2
		l0,0C276,86.9,275.1,88.9,275.8,90.7L275.8,90.7z"/>
	<path class="st6" d="M275.8,90.7c-0.1-0.3-0.2-0.6-0.3-0.9c-0.1-0.9,0.1-1.8,0.7-2.5c1.2-1.6,3.5-1.9,5-0.7c0.4,0.3,0.6,0.6,0.9,1
		c0.2,0.4,0.4,0.9,0.6,1.3l0.5,1.4l11.2,29.6c0.7,1.9-0.3,4.1-2.2,4.8c-0.5,0.2-1,0.2-1.4,0.2c-0.8,0-1.5-0.3-2.2-0.8
		c-0.6-0.5-1-1.2-1.3-1.9c-0.3-0.7-0.5-1.3-0.7-2c-0.5-1.3-1-2.6-1.4-3.9c-1.9-5-3.5-9.5-4.9-13.3l-3.3-9l-0.9-2.5l-0.2-0.6
		C275.8,90.8,275.8,90.7,275.8,90.7c0,0.1,0.1,0.1,0.1,0.2c0.1,0.2,0.2,0.4,0.3,0.6l1,2.4l3.4,8.9c1.4,3.8,3.1,8.3,5,13.3
		c0.5,1.3,1,2.5,1.5,3.9c0.2,0.6,0.5,1.3,0.8,2c0.2,0.7,0.6,1.2,1.1,1.7c1.4,1.1,3.4,0.9,4.5-0.5c0.7-0.9,0.9-2,0.5-3.1
		c-4.3-11.6-8.2-22-11-29.6c-0.2-0.5-0.4-0.9-0.5-1.4c-0.1-0.4-0.3-0.9-0.5-1.3c-0.9-1.6-3-2.1-4.5-1.2c-0.4,0.2-0.7,0.5-0.9,0.8
		c-0.5,0.7-0.8,1.5-0.7,2.4C275.7,90.4,275.8,90.7,275.8,90.7z"/>
	<path class="st4" d="M345.2,227.2l-4.7,3.3c4.3,6,2.8,14.3-3.1,18.6l-14.3,10.1l3.3,4.7l14.3-10.1
		C349.3,247.7,351.3,235.8,345.2,227.2z"/>
	<g class="st10">
		<path d="M345.2,227.2l-4.7,3.3c4.3,6,2.8,14.3-3.1,18.6l-14.3,10.1l3.3,4.7l14.3-10.1C349.3,247.7,351.3,235.8,345.2,227.2z"/>
	</g>
	<path class="st6" d="M299.4,209.2c-0.4-0.2-0.8-0.5-1.1-0.8l-2.9-2.4c-2.4-2-5.8-4.8-9.6-7.7s-7.2-5.7-9.7-7.6l-2.9-2.3
		c-0.4-0.3-0.7-0.6-1-0.9c0.4,0.2,0.8,0.5,1.2,0.7c0.7,0.5,1.8,1.2,3,2.2c2.5,1.9,6,4.5,9.8,7.5s7.1,5.8,9.5,7.9
		c1.2,1,2.1,1.9,2.8,2.5C298.8,208.5,299.1,208.9,299.4,209.2z"/>
	<path class="st6" d="M292.8,211.8c-0.9,0.1-1.9,0.1-2.8,0l-6.8-0.2l-6.8-0.1c-0.9,0.1-1.9,0-2.8-0.1c0.9-0.2,1.9-0.3,2.8-0.3
		c1.7-0.1,4.1-0.1,6.8-0.1s5.1,0.2,6.8,0.3C290.9,211.4,291.9,211.6,292.8,211.8z"/>
	<path class="st6" d="M343.3,159.7c0.1,0-0.5,7.8-1.5,17.4s-1.9,17.3-2,17.3s0.5-7.8,1.5-17.4S343.1,159.7,343.3,159.7z"/>
	<path class="st6" d="M359,174.7c-1.8,2.3-3.7,4.4-5.8,6.4c-1.9,2.1-4,4.2-6.2,6.1c1.8-2.3,3.7-4.4,5.8-6.4
		C354.7,178.6,356.8,176.6,359,174.7z"/>
</g>
<g id="freepik--Character--inject-7">
	<path class="st13" d="M422.4,134l18.4,30.3c3.1,5.2,1.5,11.9-3.6,15l0,0c-4.9,3-11.4,1.7-14.7-3.1c-1.8-2.6-3.3-4.8-3.3-4.8
		s-7.9,4-13.1-3c-2.5-3.4-7.1-10.8-11.3-17.5c-4.6-7.5-2.4-17.4,5-22.2l0,0c7.5-4.8,17.5-2.6,22.4,4.9
		C422.3,133.8,422.3,133.9,422.4,134z"/>
	<path class="st4" d="M490.1,196c0,0-27.3-38.7-31.1-41c-3.8-2.3-9-1.2-12,0.2c-1.8,0.9-5.6,3.1-6.6,3.8
		c-4.1,12.7-14.5,16.3-20.8,17.3l0.2,0.4l-3.2,5.3c-0.1,0.1-0.2,0.2-0.3,0.4c-0.7,0.9-1.2,1.8-1.6,2.9l-0.3,0.4l0.1,0.1
		c-0.5,1.7-0.8,3.4-0.7,5.2c0.2,6.3,7,38.2,7,38.2l-7.1,4.9l4.3,13.3c0,0,21.1-7.1,20.6-14.1c-0.8-7-2-14-3.5-20.9l9.8,13.3
		c0.4,2.7,4.6,21.4,4.6,21.4l3,1.2l58.3-3.1l1.7-3.7L490.1,196z"/>
	<path class="st14" d="M419.2,171.5c3.3-2.3,5.9-5.6,7.3-9.3c0,0,1.5,6.7-6,11.2L419.2,171.5z"/>
	<path class="st6" d="M399.9,154.6c0.4,0.5,1.2,0.7,1.7,0.3c0.6-0.3,0.7-1.1,0.4-1.6l0,0c-0.4-0.6-1.2-0.7-1.7-0.3
		C399.7,153.3,399.5,154,399.9,154.6L399.9,154.6z"/>
	<path class="st6" d="M398.9,153.4c0.2,0,0.6-1.1,1.7-1.9s2.3-0.8,2.3-1s-0.3-0.2-0.8-0.2c-0.7,0-1.4,0.2-2,0.7
		c-0.6,0.4-1,1-1.2,1.7C398.8,153.1,398.8,153.4,398.9,153.4z"/>
	<path class="st6" d="M410.8,147.4c0.4,0.5,1.1,0.7,1.7,0.3c0.6-0.3,0.7-1.1,0.4-1.6l0,0c-0.4-0.6-1.2-0.7-1.7-0.3
		C410.6,146,410.4,146.8,410.8,147.4C410.8,147.3,410.8,147.4,410.8,147.4z"/>
	<path class="st6" d="M409.8,145.8c0.2,0,0.6-1.1,1.7-1.9s2.3-0.8,2.3-1s-0.3-0.2-0.8-0.2c-0.7,0-1.4,0.2-2,0.7
		c-0.6,0.4-1,1-1.2,1.7C409.6,145.5,409.7,145.8,409.8,145.8z"/>
	<path class="st6" d="M411.7,156.8c-0.7,0.2-1.4,0.6-2,1c-0.3,0.2-0.6,0.3-0.8,0.1c-0.2-0.3-0.4-0.6-0.4-0.9l-0.7-2.7
		c-0.5-2.4-1.2-4.7-2.1-6.9c0.4,2.4,0.9,4.7,1.6,7c0.3,0.9,0.5,1.8,0.8,2.7c0,0.5,0.3,1,0.6,1.3c0.2,0.1,0.5,0.2,0.8,0.1
		c0.2-0.1,0.4-0.2,0.5-0.3C410.5,157.7,411.1,157.3,411.7,156.8z"/>
	<path class="st6" d="M415.6,155.8c-0.7,0.4-1.3,1.1-1.5,1.8c-0.2,0.8-0.2,1.7,0.2,2.4c0.3,0.6,0.5,0.9,0.7,0.8
		c0.2-0.1-0.5-1.5-0.1-3s1.8-2.1,1.7-2.3C416.6,155.5,416.2,155.4,415.6,155.8z"/>
	<path class="st6" d="M407.1,142.4c0.4,0.1,1-1.1,2.1-2.3s2.2-1.9,2-2.3c-0.1-0.2-0.5-0.2-1.1,0c-1.5,0.6-2.7,1.9-3.2,3.5
		C406.9,142,406.9,142.4,407.1,142.4z"/>
	<path class="st6" d="M395.8,149.3c0.4,0.2,1.4-0.5,2.6-1s2.5-0.7,2.6-1.1c0-0.2-0.2-0.4-0.8-0.5c-1.6-0.2-3.2,0.4-4.2,1.6
		C395.6,148.9,395.6,149.2,395.8,149.3z"/>
	<path class="st13" d="M422.5,139.1c0.1-0.1,3.8-5,7.2,0s-2.3,7.3-2.4,7.2S422.5,139.1,422.5,139.1z"/>
	<path class="st14" d="M427.5,143.3c0,0,0.1,0,0.3,0c0.3,0,0.5-0.2,0.6-0.4c0.4-0.9,0.3-1.8-0.3-2.6c-0.3-0.4-0.6-0.8-1.1-1.1
		c-0.3-0.3-0.7-0.3-1.1-0.2c-0.2,0.1-0.4,0.3-0.4,0.6c0,0.2,0.1,0.3,0.1,0.3s-0.2,0-0.3-0.2c-0.1-0.1-0.1-0.3,0-0.4
		c0.1-0.2,0.2-0.4,0.4-0.4c0.5-0.2,1-0.1,1.4,0.2c0.5,0.3,0.9,0.7,1.2,1.2c0.7,0.9,0.7,2.1,0.2,3c-0.2,0.3-0.5,0.4-0.9,0.4
		C427.6,143.5,427.5,143.3,427.5,143.3z"/>
	<path class="st6" d="M420.5,193.7c0.4,0.4,0.8,0.7,1.1,1.1c0.7,0.8,1.6,1.9,2.8,3.3c2.3,2.8,5.4,6.8,8.7,11.2
		c3.4,4.4,6.3,8.4,8.5,11.4c1,1.4,1.9,2.6,2.5,3.5c0.3,0.4,0.6,0.9,0.9,1.3c-0.4-0.4-0.7-0.8-1-1.2l-2.6-3.4l-8.6-11.3l-8.6-11.3
		l-2.6-3.4C421.1,194.6,420.8,194.2,420.5,193.7z"/>
	<g class="st5">
		<path d="M492.2,203.5c-7.1,1-14.2-0.4-21.3-1.4c-11.7-1.7-23.6-2.6-35.5-2.5c-1.1-0.1-2.2,0.1-3.1,0.6c-2.1,1.4-14.3,2.4-16.6,3.7
			l1.1,5.6c0.2-0.1,2.5,0.7,3.7,0.9c9.7,1.1,12.8-4.1,13.6-4.3c1.1-0.2,2.5,0.8,3.5,1.2c7.7,2.8,15.7,4.4,23.8,5.9
			c6.6,1.3,13.4,2.6,20.1,2c3.1-0.3,6.4-1,8.7-3.1S493.8,206.2,492.2,203.5z"/>
	</g>
	<path class="st4" d="M453,174.3l10.7,15.9l-21.2-0.8l1.2,15.7c0,0,36.6,8,42.2,6c6.3-2.2,6.1-5,6.4-8.6s-6.6-14.3-10.6-21.1
		s-20.3-30.7-29-27.7C452.6,153.7,444.2,160.2,453,174.3z"/>
	<path class="st4" d="M453,174.3l10.7,15.9l-21.2-0.8l1.2,15.7c0,0,36.6,8,42.2,6c6.3-2.2,6.1-5,6.4-8.6s-6.6-14.3-10.6-21.1"/>
	<g class="st5">
		<path d="M463.7,190.1c3.7-1.8,7.9-2.3,11.9-1.6c1.5,0.2,3,0.9,4,2.1c0.3,0.4,0.5,1.1,0.1,1.5s-1.1,0.8-1.6,0.6
			C473.6,190.7,468.6,189.8,463.7,190.1"/>
	</g>
	<path class="st6" d="M478.7,192.9c0,0.1-0.9-0.4-2.3-0.9c-1.9-0.6-3.8-1-5.7-1.3c-2.3-0.3-4.4-0.3-5.9-0.4c-0.8,0-1.6,0-2.5-0.2
		c0.8-0.2,1.6-0.2,2.5-0.2c2-0.1,4,0,6,0.3c2,0.2,3.9,0.7,5.8,1.4C477.3,192,478,192.4,478.7,192.9z"/>
	<path class="st6" d="M432,228.6c-1.9-0.5-3.8-0.7-5.7-0.6c-1.9,0.2-3.8,0.6-5.6,1.3C424,227.1,428.3,226.9,432,228.6L432,228.6z"/>
	<g class="st5">
		<path d="M420.7,229.2c2.3-1.9,5.1-3,8.1-3.2c1.1-0.1,2.2,0.1,3.2,0.7c0.4,0.3,0.8,0.8,0.6,1.3s-1.1,0.5-1.6,0.3
			c-3.4-0.8-6.9-0.5-10.2,0.8"/>
	</g>
	<path class="st6" d="M489.9,207.9c-1.6-5.7-5.2-10.6-10.2-13.9c0.8,0.3,1.6,0.7,2.3,1.3c3.4,2.5,6,6,7.4,10
		C489.7,206.1,489.8,207,489.9,207.9z"/>
	<path class="st6" d="M422.3,196.1c-1.2,0.6-2.5,0.9-3.8,1.2c-1.3,0.4-2.6,0.6-3.9,0.6c1.2-0.5,2.5-0.9,3.8-1.1
		C419.6,196.4,420.9,196.2,422.3,196.1z"/>
	<path class="st6" d="M469.7,220c-0.2,0.2-0.5,0.4-0.8,0.6c-0.5,0.3-1.4,0.8-2.4,1.3c-5.3,2.6-11.1,4.1-17,4.5c-1.1,0.1-2,0.1-2.7,0
		c-0.3,0-0.7,0-1-0.1c0-0.1,1.4-0.1,3.6-0.3c2.9-0.3,5.8-0.8,8.6-1.5c2.8-0.8,5.6-1.7,8.3-2.9C468.4,220.6,469.6,219.9,469.7,220z"
		/>
	<path class="st6" d="M498,216.7c-0.3,0.3-0.6,0.6-1,0.8c-0.7,0.5-1.7,1.2-3,2c-6.8,4.1-14.2,7-21.9,8.7c-1.5,0.3-2.7,0.5-3.5,0.6
		c-0.4,0.1-0.9,0.1-1.3,0.1c0.4-0.2,0.8-0.3,1.3-0.3c0.8-0.2,2-0.4,3.5-0.8c3.8-0.9,7.6-2.1,11.2-3.5c3.6-1.5,7.2-3.2,10.6-5.1
		c1.3-0.8,2.4-1.4,3.1-1.8C497.2,217.1,497.6,216.9,498,216.7z"/>
	<path class="st6" d="M356.2,216.4h-16.4c0,0-6,1-6.1,5.8h11.7l13.1-2.9L356.2,216.4z"/>
	<path class="st6" d="M357.7,225.7l-11.6-3l-12.2,1.7c0,0,0.3,5,6.1,5.3s17.9-0.1,17.9-0.1L357.7,225.7z"/>
	<path class="st4" d="M409.8,201l-50.2,15.8v11.8l48.3,12.8l1.9-5.8L365,225.2c-1.8-0.6-2-1.4-2.1-3c-0.1-2.6,3.3-3.1,3.3-3.1
		l46.3-14.7l2.1-4.2L409.8,201z"/>
	<g class="st5">
		<path d="M409.8,201l-50.2,15.8v11.8l48.3,12.8l1.9-5.8L365,225.2c-1.8-0.6-2-1.4-2.1-3c-0.1-2.6,3.3-3.1,3.3-3.1l46.3-14.7
			l2.1-4.2L409.8,201z"/>
	</g>
	<path class="st4" d="M366.1,225h-1.4c-1.2-0.4-2-1.6-1.8-2.9c0.1-2.8,3-2.8,3-2.8c1.2,0,2.3-1,2.3-2.3c0-1.2-1-2.3-2.3-2.3h-7.4
		c-1.2,0-2.3,1-2.3,2.3c0,1.2,1,2.3,2.3,2.3h1.1v5.7h-0.9c-1.3,0.1-2.2,1.2-2.1,2.4c0.1,1.1,1,2,2.1,2.1h7.4
		c1.3-0.1,2.2-1.2,2.1-2.4C368.2,226,367.3,225.1,366.1,225L366.1,225z"/>
	<circle class="st6" cx="359.2" cy="227.5" r="1"/>
	<path class="st6" d="M359.9,217c0,0.6-0.4,1-1,1s-1-0.4-1-1s0.4-1,1-1S359.9,216.4,359.9,217z"/>
	<path class="st8" d="M343.2,231.5L343.2,231.5c-1.6,0-2.9-1.3-2.9-2.9l0,0v-10.9c0-1.6,1.3-2.9,2.9-2.9l0,0l0,0
		c1.6,0,2.9,1.3,2.9,2.9v10.9C346.1,230.2,344.8,231.5,343.2,231.5L343.2,231.5z"/>
	<path class="st6" d="M343.9,218c0,0.6-0.4,1-1,1s-1-0.4-1-1s0.4-1,1-1S343.9,217.4,343.9,218z"/>
	<circle class="st6" cx="343.2" cy="228.6" r="1"/>
	<path class="st4" d="M503,394.3l5.3,17.2c0,0-16,9.9-15.3,13.1l34-7.8l-7.1-27.1L503,394.3z"/>
	<g class="st15">
		<path class="st7" d="M518.3,407.2c0.7,0,1.3,0.6,1.4,1.3c0,0.7-0.6,1.3-1.3,1.4c-0.8,0-1.4-0.6-1.5-1.4c0.1-0.8,0.7-1.3,1.5-1.3"
			/>
	</g>
	<g class="st15">
		<path class="st7" d="M526.9,416.8l-0.7-2.7l-32.5,8.7c-0.6,0.5-0.9,1.3-0.8,2.1L526.9,416.8z"/>
	</g>
	<path class="st6" d="M507.7,411.4c0,0.2,0.9,0,1.8,0.3c0.9,0.3,1.6,0.9,1.7,0.8s-0.4-1-1.5-1.3
		C508.5,410.8,507.6,411.3,507.7,411.4z"/>
	<path class="st6" d="M504.5,413.8c0,0.2,0.8,0.3,1.5,0.8s1.1,1.2,1.3,1.2c0.2-0.1,0-1-0.9-1.7C505.5,413.4,504.5,413.6,504.5,413.8
		z"/>
	<path class="st6" d="M503.7,418.6c0.2,0,0.2-0.9-0.5-1.7c-0.7-0.8-1.5-0.9-1.6-0.8c0,0.1,0.6,0.5,1.1,1.2S503.5,418.6,503.7,418.6z
		"/>
	<path class="st6" d="M506.9,407.3c0.1,0.1,0.8-0.3,1.8-0.5s1.8-0.1,1.8-0.3s-0.8-0.6-1.9-0.3C507.4,406.5,506.8,407.2,506.9,407.3z
		"/>
	<g class="st5">
		<polygon points="507.1,407.6 508,410.6 523.6,404 522.9,401.6 		"/>
	</g>
	<path class="st6" d="M505.9,403.9c0.6,0,1.2-0.2,1.7-0.5c0.6-0.3,1.1-0.6,1.6-1c0.3-0.2,0.6-0.5,0.8-0.8c0.2-0.2,0.3-0.3,0.4-0.5
		c0.2-0.3,0.1-0.7-0.2-0.9c-0.2-0.2-0.5-0.3-0.8-0.2c-0.2,0.1-0.4,0.1-0.6,0.3c-0.3,0.2-0.7,0.4-1,0.6c-0.5,0.4-0.9,0.9-1.3,1.4
		C506,403.3,505.9,403.9,505.9,403.9c0.2,0.1,0.4-0.5,1.1-1.3c0.4-0.5,0.8-0.9,1.3-1.3c0.3-0.2,0.6-0.4,0.9-0.6
		c0.3-0.2,0.6-0.3,0.8-0.1c0.1,0.1,0.1,0.1,0,0.2s-0.2,0.3-0.3,0.4c-0.2,0.3-0.5,0.5-0.8,0.8c-0.5,0.4-0.9,0.7-1.5,1.1
		C506.9,403.3,506.4,403.5,505.9,403.9z"/>
	<path class="st6" d="M506.2,404c0.2-0.6,0.2-1.2,0-1.8c-0.1-0.6-0.4-1.2-0.7-1.8c-0.2-0.3-0.4-0.6-0.7-0.9
		c-0.3-0.4-0.8-0.6-1.3-0.6c-0.3,0.1-0.5,0.3-0.6,0.7c0,0.2,0,0.4,0,0.7c0.1,1.1,0.7,2,1.5,2.7c0.9,0.7,1.6,0.7,1.6,0.6
		c-0.5-0.3-0.9-0.6-1.4-1c-0.4-0.4-0.8-0.9-1-1.4c-0.1-0.3-0.2-0.7-0.2-1c0-0.4,0-0.7,0.2-0.7c0.3,0,0.6,0.2,0.7,0.4
		c0.2,0.2,0.5,0.5,0.7,0.8c0.3,0.5,0.6,1,0.8,1.6C506.1,403.4,506.1,404,506.2,404z"/>
	<path class="st4" d="M438.9,392.8l2.2,17.8c0,0-17.5,6.9-17.4,10.2l34.8-1.7l-2.3-27.9L438.9,392.8z"/>
	<g class="st15">
		<path class="st7" d="M451.7,408.2c0.7,0.1,1.2,0.8,1.1,1.5s-0.8,1.2-1.5,1.1c-0.8-0.2-1.3-0.9-1.2-1.6c0.2-0.7,1-1.2,1.7-1"/>
	</g>
	<g class="st15">
		<path class="st7" d="M458.5,419.2l-0.2-2.8l-33.5,2.8c-0.7,0.4-1.2,1.2-1.2,2L458.5,419.2z"/>
	</g>
	<path class="st6" d="M440.5,410.5c0,0.2,0.9,0.2,1.8,0.6s1.4,1.1,1.5,1.1s-0.2-1-1.3-1.6S440.4,410.3,440.5,410.5z"/>
	<path class="st6" d="M437,412.3c0,0.2,0.7,0.4,1.4,1.1s0.9,1.4,1,1.4s0.2-1-0.6-1.8S437,412.2,437,412.3z"/>
	<path class="st6" d="M435.3,416.9c0.1,0,0.3-0.9-0.2-1.7s-1.3-1.2-1.4-1s0.5,0.6,0.9,1.3S435.1,416.9,435.3,416.9z"/>
	<path class="st6" d="M440.4,406.4c0.1,0.1,0.8-0.2,1.8-0.2s1.7,0.2,1.8,0.1s-0.7-0.7-1.8-0.7S440.3,406.3,440.4,406.4z"/>
	<g class="st5">
		<polygon points="440.6,406.5 440.9,409.6 457.4,405.9 457.2,402.9 		"/>
	</g>
	<path class="st6" d="M440,402.8c0.6,0.1,1.2,0.1,1.7-0.2c0.6-0.2,1.2-0.4,1.8-0.7c0.3-0.2,0.7-0.4,1-0.6c0.2-0.1,0.3-0.3,0.5-0.5
		c0.2-0.3,0.2-0.6,0-0.9c-0.2-0.2-0.5-0.3-0.8-0.3c-0.2,0-0.4,0.1-0.6,0.1c-0.3,0.1-0.7,0.3-1,0.5c-0.6,0.3-1.1,0.7-1.5,1.2
		c-0.7,0.8-1,1.5-0.9,1.5s0.4-0.5,1.2-1.2c0.4-0.4,0.9-0.7,1.5-1c0.3-0.2,0.7-0.3,1-0.4c0.4-0.1,0.7-0.2,0.8,0s0,0.1,0,0.2
		c-0.1,0.1-0.2,0.2-0.4,0.3c-0.3,0.2-0.6,0.4-0.9,0.6c-0.5,0.3-1.1,0.6-1.6,0.8C441.2,402.4,440.6,402.6,440,402.8z"/>
	<path class="st6" d="M440.3,403c0.3-0.5,0.4-1.1,0.3-1.7c0-0.6-0.2-1.3-0.4-1.9c-0.1-0.4-0.3-0.7-0.5-1c-0.2-0.5-0.7-0.8-1.2-0.8
		c-0.3,0-0.6,0.2-0.7,0.5c-0.1,0.2-0.1,0.4-0.1,0.7c-0.1,1.1,0.3,2.1,1,2.9c0.8,0.8,1.5,1,1.5,0.9s-0.6-0.4-1.2-1.2
		c-0.3-0.5-0.6-1-0.7-1.6c-0.1-0.3-0.1-0.7-0.1-1c0-0.4,0.1-0.7,0.3-0.6s0.5,0.2,0.6,0.5c0.2,0.3,0.4,0.6,0.5,0.9
		c0.2,0.5,0.4,1.1,0.5,1.7C440.3,402.3,440.2,403,440.3,403z"/>
	<path class="st8" d="M524.3,391.7l-0.8-3.6l-12.8-64.6l3.7-56.4l-3.7-22.1l-33.9,1.8l0,0l-24.4,1.3c0,0-20.5,71-21.8,74.7
		s6.3,84.4,6.3,84.4l21.5-4.6l-0.3-75l19.4-43.9l7.6,51.9l19,72.9l19.7-7.5l-0.6-4.1L524.3,391.7z"/>
	<path class="st6" d="M471.7,255.4c0.1,0,1.5,6.6,3.2,14.8s3.1,14.9,3,14.9s-1.5-6.6-3.2-14.8S471.7,255.4,471.7,255.4z"/>
	<path class="st6" d="M510.6,254.3c-0.9,0.4-1.8,0.6-2.7,0.7c-2.3,0.3-4.5-0.1-6.6-1s-3.8-2.4-5.2-4.3c-0.6-0.8-1-1.6-1.3-2.5
		c0.1,0.2,0.2,0.4,0.4,0.7c0.3,0.6,0.7,1.2,1.1,1.7c2.7,3.7,7.1,5.7,11.6,5.2c0.7-0.1,1.3-0.2,2-0.4
		C510.1,254.4,510.4,254.4,510.6,254.3z"/>
	<path class="st6" d="M510.6,322.6c0,0-1,3.8-2.4,8.5s-2.5,8.4-2.6,8.4s1-3.8,2.4-8.5S510.6,322.6,510.6,322.6z"/>
	<path class="st6" d="M458.6,325.5c-0.1,0.2-0.2,0.4-0.3,0.5l-0.9,1.4c-0.8,1.2-1.9,2.8-3.2,4.6s-2.5,3.3-3.4,4.4l-1.1,1.3
		c-0.1,0.2-0.3,0.3-0.4,0.5c0.1-0.2,0.2-0.3,0.4-0.5l1-1.3c0.9-1.1,2.1-2.7,3.3-4.5s2.4-3.4,3.2-4.5l1-1.4
		C458.4,325.8,458.5,325.6,458.6,325.5z"/>
	<path class="st6" d="M454,403.6c0,0,0-0.5,0-1.3s0-2.2,0-3.8c0-3.4-0.1-8.2-0.2-14.1c-0.1-12-0.3-28.4-0.5-46.6c0-1.6,0-3.2,0-4.6
		l0,0l0,0c2.2-7.7,4.9-15.2,8.1-22.6c2.9-6.8,5.6-12.8,7.8-17.8s3.9-9.1,5.1-12c0.6-1.4,1-2.5,1.3-3.3s0.5-1.1,0.5-1.1
		s-0.5,1.6-1.7,4.5s-2.8,7-5,12s-4.9,11-7.8,17.8c-3.2,7.3-5.9,14.9-8.1,22.6l0,0c0,1.5,0,3.1,0,4.6c0.2,18.2,0.3,34.6,0.4,46.6
		c0,5.9,0.1,10.7,0.1,14.1c0,1.6,0,2.9,0,3.8S454,403.6,454,403.6z"/>
	<path class="st6" d="M458.1,247.6c0.3,0.9,0.5,1.8,0.5,2.7c0.2,4.5-2.4,8.6-6.5,10.3c-0.8,0.4-1.7,0.6-2.6,0.7
		c0.2-0.1,0.5-0.1,0.7-0.2c0.6-0.2,1.2-0.4,1.8-0.6c4-1.8,6.5-5.8,6.4-10.2c0-0.6-0.1-1.3-0.2-1.9
		C458.1,248.2,458.1,247.9,458.1,247.6z"/>
	<path class="st6" d="M474.4,250.5c0.2-0.1,0.3-0.1,0.5-0.1c0.5,0,1,0.1,1.4,0.4c0.6,0.4,0.9,1.2,0.8,1.9c-0.2,0.9-1,1.6-1.9,1.6
		s-1.7-0.6-2.1-1.4c-0.2-0.7-0.1-1.5,0.4-2c0.3-0.4,0.7-0.6,1.2-0.7c0.2,0,0.3,0,0.5,0c0,0-0.2,0-0.5,0.1c-0.4,0.1-0.8,0.4-1.1,0.7
		c-0.4,0.5-0.6,1.2-0.3,1.9c0.3,0.8,1,1.3,1.9,1.3c0.8-0.1,1.5-0.7,1.7-1.5c0.2-0.7-0.1-1.4-0.6-1.8c-0.4-0.3-0.8-0.4-1.3-0.4
		C474.7,250.4,474.6,250.4,474.4,250.5z"/>
	<path class="st13" d="M442.3,190.3c0,0-8.4-0.9-10.1-0.9s-13.5,2.4-13.5,2.4s-7.1,7-7,9.1l2.8-0.5c0,0-2.6,4.3-2.5,5.4
		s-0.3,2.4,1.2,2.7c2.6,0.6,3.8-2.4,3.8-2.4s-0.3,1.5,0.8,1.7c1.6,0.4,3.4-0.9,3.4-0.9s0.1,1.4,1.3,1.5c1.4,0.1,2.8-0.4,3.8-1.3
		c1,0.6,2.2,0.6,3.2-0.1c1.7-1,3.8-4.7,3.8-4.7l2.2-0.5l7.9,2.2L442.3,190.3z"/>
	<path class="st14" d="M419.8,201.6c-0.8,1.8-1.8,3.5-3.2,5c0.3-0.9,0.8-1.8,1.4-2.6C418.5,203.1,419.1,202.2,419.8,201.6z"/>
	<path class="st14" d="M424.3,203.8c0.1,0.1-0.4,1-1.3,1.9s-1.8,1.4-1.9,1.3s0.6-0.8,1.5-1.6S424.2,203.8,424.3,203.8z"/>
	<path class="st14" d="M427.9,204.8c0.1,0.1,0,0.8-0.6,1.5s-1.2,1.1-1.3,1s0.4-0.6,0.9-1.3S427.8,204.7,427.9,204.8z"/>
	<path class="st14" d="M417.4,196.6c0.1,0.1-0.3,0.5-0.9,1.2s-1.3,1.8-2,3.1c-1.4,2.5-2.4,4.6-2.5,4.5c0.4-1.7,1.1-3.3,2.1-4.8
		c0.6-1.1,1.3-2.1,2.1-3C416.8,196.9,417.3,196.6,417.4,196.6z"/>
	<path class="st13" d="M416,234c1.4,0.1,2.8,0.4,4,1c1.3,0.6,2.2,1.8,2.4,3.2c0.2,1.4-0.7,2.7-2.1,3.1c-1,0.1-2-0.3-2.7-1
		c-1.7-1.6-2.3-4.1-1.4-6.3"/>
	<path class="st13" d="M417.2,235.4c0,0-1-3.1-5.9-3c0,0-3.5,0.1-4,0.4s-1.4,1.6-1.2,2.2c0.7,1.3,2,2.3,3.4,2.7
		c1.4,0.1,2.3-0.1,2.7-0.5S417.2,235.4,417.2,235.4z"/>
	<path class="st14" d="M409.1,233.2c0-0.1,0.4,0,1.1,0.3c0.9,0.3,1.6,1,1.9,1.9c0.4,1-0.1,2-1,2.4l0,0c-0.7,0.3-1.2,0-1.1,0
		s0.4,0,1-0.3c0.7-0.4,1-1.2,0.7-1.9s-0.9-1.4-1.6-1.7C409.5,233.5,409.1,233.3,409.1,233.2z"/>
	<path class="st14" d="M411.3,234.6c-0.1,0-0.3-0.3-0.4-0.7s-0.3-0.7-0.2-0.8s0.5,0.1,0.7,0.6S411.4,234.6,411.3,234.6z"/>
	<path class="st13" d="M409.4,237.4c0.5-0.5,1.2-0.9,1.9-1c0.7-0.1,1.5,0.5,1.4,1.2c0.1-0.7,0.4-1.4,0.9-1.9
		c0.5-0.6,1.2-0.8,1.9-0.6c0.7,0.2,1,0.9,0.8,1.6v0.1c0.3-0.7,1.2-1.1,1.9-0.7c0.6,0.3,1,0.9,0.8,1.6c0.1-0.7,1-1,1.6-0.7
		s1,0.9,1.1,1.6c1,2.8,0.2,6-2,8c-0.5,0.5-1.1,0.8-1.8,0.9c-0.7,0.1-1.3-0.2-1.7-0.8c-0.5,1-1.7,1.3-2.7,0.8
		c-0.3-0.2-0.5-0.4-0.7-0.6c-0.9,1-2.5,1.1-3.5,0.2c-0.6-0.5-0.9-1.3-0.8-2.1c-0.6,0.5-1.4,0.7-2.2,0.5c-0.7-0.4-1.1-1.2-1-2
		c0-1.1,0.4-2.2,1.1-3.1c0.6-0.9,1.4-1.7,2.2-2.5"/>
	<path class="st14" d="M412.7,246.8c0.7-0.8,1.4-1.7,2-2.6c1.4-2.4,1.9-5.1,1.4-7.8l0,0c-0.1-0.4-0.4-0.7-0.8-0.9
		c-0.7-0.3-1.6-0.1-2,0.6c-0.2,0.3-0.3,0.7-0.3,1.1c0,0.4-0.1,0.8-0.2,1.2c-0.3,1.4-0.8,2.7-1.6,3.9c-0.5,0.8-1.2,1.5-1.9,2
		c-0.3,0.2-0.6,0.4-0.9,0.5c1-0.8,1.8-1.8,2.5-2.8c0.7-1.1,1.2-2.4,1.5-3.8c0.1-0.4,0.1-0.8,0.1-1.2c0-0.5,0.2-0.9,0.4-1.3
		c0.2-0.4,0.6-0.8,1.1-0.9c0.5-0.2,1-0.1,1.5,0.1c0.5,0.2,0.8,0.7,1,1.2l0,0l0,0c0.5,2.8-0.1,5.7-1.6,8.1c-0.5,0.7-1,1.3-1.6,1.9
		C413.1,246.4,412.9,246.6,412.7,246.8z"/>
	<path class="st14" d="M416.4,236.6c0,0-0.1-0.1,0-0.3s0.3-0.4,0.6-0.4c0.4-0.1,0.7-0.2,1.1-0.1c0.5,0.2,0.9,0.5,1.1,1l0,0
		c0.4,1.2,0.6,2.5,0.5,3.8c-0.2,1.7-0.8,3.3-1.9,4.7c-0.4,0.6-0.9,1.1-1.6,1.4c0-0.1,0.6-0.6,1.3-1.6c0.9-1.3,1.5-2.9,1.7-4.5
		c0.1-1.2,0-2.5-0.4-3.6l0,0c-0.2-0.4-0.5-0.6-0.8-0.8c-0.3-0.1-0.6-0.1-0.9,0C416.4,236.2,416.4,236.6,416.4,236.6z"/>
	<path class="st14" d="M412.7,237.5c-0.1-0.4-0.4-0.7-0.8-0.9c-0.7-0.3-1.7,0.2-2.6,0.9c-1.1,1-2.1,2-3.1,3.1
		c0.5-1.4,1.5-2.7,2.8-3.5c0.5-0.4,1-0.7,1.6-0.9c0.5-0.2,1-0.2,1.5,0c0.3,0.2,0.6,0.5,0.6,0.8C412.8,237.3,412.7,237.5,412.7,237.5
		z"/>
	<path class="st14" d="M422.2,241.2c-0.1,0-0.1-0.4-0.3-0.9c-0.1-0.7-0.3-1.4-0.6-2c-0.3-0.6-0.8-1.1-1.5-1.2
		c-0.5,0-0.8,0.2-0.8,0.2s0.1-0.5,0.8-0.5c0.8,0,1.6,0.5,2,1.3c0.4,0.7,0.5,1.5,0.5,2.2C422.3,240.8,422.3,241.2,422.2,241.2z"/>
	<path class="st6" d="M382.9,144.4c-0.3,0.6-0.4,1.3-0.2,1.8c0.3,1.4,1.7,2.2,3,1.8c0.7-0.2,1.4-0.7,2.1-0.5c0.8,0.2,1.2,1.1,2,1.4
		c0.7,0.2,1.5,0,1.9-0.6s0.8-1.2,1.1-1.9c0.3-0.7,0.8-1.2,1.5-1.5c1-0.4,2,0.3,3-0.2c1.1-0.4,1.5-1.7,1.7-2.8
		c0.1-1.1,0.4-2.4,1.2-3.1c0.8-0.6,2.2-0.6,2.8-1.4c0.7-0.8,0.3-1.9,0.3-2.9c-0.1-1.4,0.5-2.9,1.4-4c0.5-0.5,1-0.9,1.6-1.2
		c0.7-0.3,1.3-0.5,2-0.5c2.3-0.3,4.4,0.9,5.5,2.8c2.1,3.6,5.6,6.3,9,8.8c0.4,0.3,0.9,0.6,1.5,0.6c1-0.2,1.6-1.1,1.6-2.1
		c0-0.2,0-0.5,0-0.7l1.2-1.6c0.2-2.3-1-3.9-2.3-5.7c-1.4-1.7-2.8-3.4-3.9-5.3c-0.9-1.6-1.3-3.4-2.3-5c-2.1-3.3-6.9-4.4-10.6-3
		c-1.6,0.7-3.1,1.7-4.2,3.1c-1.1-0.5-2.5-0.8-3.7-0.7c-1.9,0.1-3.9,1.3-4.3,3.2c-0.1,0.5-0.1,1.2-0.6,1.6c-0.5,0.2-1,0.4-1.5,0.2
		c-0.5-0.3-0.9-0.4-1.5-0.5c-0.5-0.1-1,0.2-1.2,0.7c-0.2,0.7,0.5,1.3,0.1,1.9s-1.3,0.4-2.1,0.4c-0.1-0.1-0.1,0-0.1,0
		c-1,0.2-1.5,1.2-1.3,2.1c0.1,0.7,0.8,1.2,0.5,2s-1.4,0.7-2.1,0.9c-1.3,0.3-2,1.5-1.9,2.7c0.1,0.9,0.8,1.9,0.3,2.7s-1.8,0.8-2.1,1.6
		c-0.1,0.7,0,1.4,0.5,1.9s0.8,1.2,0.8,1.8C383.4,143.6,383.2,144.1,382.9,144.4L382.9,144.4z"/>
	<path class="st6" d="M448,167.3c-0.1,0.3-0.3,0.6-0.5,0.9c-0.3,0.5-0.9,1.3-1.6,2.2c-3.7,4.7-8.2,8.6-13.4,11.5
		c-1,0.5-1.8,1-2.4,1.2c-0.3,0.2-0.6,0.3-0.9,0.4c0-0.1,1.2-0.7,3.1-1.9c2.5-1.5,4.9-3.3,7.1-5.1c2.2-1.9,4.3-4,6.2-6.2
		C447.1,168.4,447.9,167.3,448,167.3z"/>
	<path class="st6" d="M457.7,179.6c-0.2,0.2-0.5,0.3-0.7,0.5c-0.5,0.3-1.2,0.7-2.2,1.2c-4.9,2.5-10.3,4.3-15.9,5.3
		c-1.1,0.2-2,0.3-2.6,0.4c-0.3,0.1-0.6,0.1-1,0.1c0.3-0.1,0.6-0.2,0.9-0.2c0.6-0.1,1.5-0.3,2.5-0.5c2.8-0.6,5.5-1.3,8.1-2.2
		s5.2-1.9,7.7-3.1c1-0.5,1.7-0.8,2.2-1.1C457.2,179.8,457.5,179.7,457.7,179.6z"/>
	<path class="st16" d="M440.4,159c0,0-4,15.3-20.8,17.3C419.6,176.3,440.4,178.4,440.4,159z"/>
</g>
</svg>
