<?xml version="1.0" encoding="utf-8"?>
<!-- Generator: Adobe Illustrator 24.2.1, SVG Export Plug-In . SVG Version: 6.00 Build 0)  -->
<svg version="1.1" id="Layer_1" xmlns="http://www.w3.org/2000/svg" xmlns:xlink="http://www.w3.org/1999/xlink" x="0px" y="0px"
	 viewBox="0 0 750 500" style="enable-background:new 0 0 750 500;" xml:space="preserve">
<style type="text/css">
	.st0{fill:#d4e4ec;}
	.st1{fill:#ecf2f7;}
	.st2{fill:#d4e4ec;}
	.st3{fill:#dde9f2;}
	.st4{fill:#FFFFFF;}
	.st5{fill:#263238;}
	.st6{fill:#455A64;}
	.st7{opacity:0.3;}
	.st8{fill:#15ABEA;}
	.st9{fill:none;}
	.st10{fill:#AE7461;}
	.st11{fill:#6F4439;}
</style>
<g id="freepik--background-complete--inject-14">
	<path class="st0" d="M630.4,386.3c-4.1-2.6-8.8-4.2-13.7-4.7c-2.2-0.2-4.7-0.2-6.5,1.2c-0.4,0.3-0.8,0.7-0.7,1.2
		c0.1,0.3,0.3,0.6,0.6,0.8C616.1,389,623.9,389.6,630.4,386.3"/>
	<path class="st0" d="M630,385.9c-3.2-2.3-6.1-4.9-8.8-7.8c-2.7-2.9-4.6-6.4-5.5-10.3c-0.4-1.2-0.2-2.4,0.4-3.4
		C623.2,369.9,628.7,377.1,630,385.9"/>
	<path class="st0" d="M630.3,386.3c-0.7-3.9-0.6-7.8,0.2-11.6c0.8-3.9,3-7.3,6.2-9.6c1.2,2.9,0.7,6.1-0.2,9.1
		c-1.3,4.6-3.4,9-6.1,12.9"/>
	<path class="st0" d="M637.3,398.6c-4.2,0.5-7.9,2.7-11,5.6c-3.1,2.9-5.3,6.6-6.3,10.8c4.1-0.3,7.6-3.2,10.2-6.4
		S634.4,401.8,637.3,398.6"/>
	<path class="st0" d="M638.8,400.6c-3.4-8.5-2.2-18.2,3.1-25.6C644.3,383.5,643.4,393.1,638.8,400.6"/>
	<path class="st0" d="M647.9,411.5c-7.8-0.5-15.2,3.7-18.7,10.8c-0.2,0.5-0.4,1.1-0.1,1.5c0.3,0.3,0.8,0.5,1.2,0.4
		c3.7-0.2,7-2.5,9.7-5S645,413.7,647.9,411.5"/>
	<path class="st0" d="M647.6,410.9c-2-6.3-2.1-13.1-0.3-19.5c0.7-2.5,1.8-5.2,4.2-6.3c0.2-0.1,0.4-0.1,0.6-0.1
		c0.2,0.1,0.3,0.3,0.4,0.5c0.8,1.8,1.1,3.7,1,5.6c-0.1,1.9-0.4,3.8-0.9,5.7c-0.7,3.5-1.1,7.2-3,10.2c-0.4,0.7-0.8,1.5-1.2,2.2
		c-0.4,0.8-0.4,1-0.7,1.6"/>
	<path class="st0" d="M671.8,414.5c-1.8-6.8,0.1-15.1,4.4-20.7c0.3-0.4,0.7-0.9,1.3-0.8c0.8,0.1,1,1.1,1,1.9
		C678.1,402,675.8,408.8,671.8,414.5"/>
	<path class="st0" d="M674,416c8.6,2,17.6,0.2,24.7-5c-4.1-2.1-8.9-2.7-13.4-1.6C680.8,410.4,676.8,412.4,674,416"/>
	<path class="st0" d="M675.8,411.5c4.6-7.6,13.5-12.5,22.4-13c-1,3.6-4,6.4-7.3,8.1c-3.4,1.5-7,2.6-10.8,3.1
		C678.7,410,676.7,410.3,675.8,411.5"/>
	<path class="st0" d="M672.3,389.4c1.4-4.3,2.4-8.7,2.9-13.1c0.5-4.5-0.4-9-2.6-13c-4.3,8.4-4.8,18.2-0.4,26.5"/>
	<path class="st0" d="M686.8,382.1c5.1-9.2,15.4-16.6,25.9-17.6C708.7,374.5,697.7,382.3,686.8,382.1"/>
	<path class="st0" d="M683.7,383.9c7.5,1.1,14,6,21,8.9c1.5,0.7,3.1,1,4.8,0.9c2.1,0,3.7-1.7,3.7-3.7c0-1.1-0.5-2.1-1.4-2.8
		c-1-0.9-2.2-1.6-3.5-2.1c-7.7-3.2-15.9-3.3-24-1.3"/>
	<path class="st0" d="M679.3,389.2c1.7,0.5,2.3,1.4,3.7,2.5c4.6,3.9,10.1,6.7,16,8.2c0.6,0.1,1.4,0.2,1.7-0.3s-0.1-1.1-0.4-1.5
		c-2.6-3-5.9-5.3-9.6-6.5c-3.7-1.4-6.9-3-11.3-2.7"/>
	<path class="st0" d="M674.3,357.2c6.3,5.8,14.7,8.6,23.2,7.9c0.4,0,0.7-0.1,1-0.4c0.6-0.6-0.1-1.6-0.8-2.1
		C690.9,357.2,682.7,355,674.3,357.2"/>
	<path class="st0" d="M680.2,355c8.3-6.1,19.1-7.9,28.9-4.8c-3.8,3.5-8.6,5.6-13.8,6C690.2,356.7,685.1,356.3,680.2,355"/>
	<path class="st0" d="M677.9,340.3c-0.7-6.8-0.2-12.2-0.7-19c0-0.5-0.2-1.2-0.7-1.4c-0.7-0.3-1.3,0.6-1.5,1.3
		c-2,6.4-0.9,13.4,2.9,18.9"/>
	<path class="st0" d="M677.4,341.1c4.4-2.9,8.3-6.6,11.3-11c2.2-3,4.1-6.7,3.6-10.4c-3.2,0.1-6.1,1.5-8.1,4
		c-1.9,2.5-3.4,5.3-4.1,8.3C679.1,335,678.4,338.1,677.4,341.1"/>
	<path class="st0" d="M688.4,338c10.1-3.8,19.5-9.3,27.7-16.3c-3.3-1.3-7.1-0.5-10.4,0.8c-7.5,2.8-13.7,8.4-17.5,15.5"/>
	<path class="st0" d="M680.5,344.8c5.1,0.5,10.3,0.9,15.4,0.1s9.7-2.8,14.4-4.8c0.4-0.1,0.8-0.4,1-0.7c0.2-0.4,0-0.9-0.3-1.2
		c-0.4-0.3-0.8-0.5-1.2-0.6c-5.1-1.4-10.5-0.8-15.5,0.9C689.4,340.1,684.8,342.2,680.5,344.8"/>
	<path class="st0" d="M651.3,357.4c-3.5-7-3.3-15.3-0.3-22.5c2.1,3.2,2.4,7.4,2,11.2s-1.6,7.8-1.6,11.7"/>
	<path class="st0" d="M637.3,350.4c-8.8-0.1-17.3,3.5-23.3,10c4.4,0.5,8.9-0.3,12.8-2.4c3.9-2.1,7.6-4.5,11-7.3"/>
	<path class="st0" d="M628,347.2c-4.3-0.4-8.4-0.9-12.5,0.4c-4.2,1.2-7.7,4.1-9.5,8.1c4,0.3,8.1-0.4,11.7-2.2
		C621.3,351.7,624.8,349.6,628,347.2"/>
	<path class="st0" d="M641.8,347.4c-3.8-2.5-7.8-5.1-12.2-6.1s-9.6-0.3-12.8,3.1c3.6,2.1,8,2.4,12.2,2.4s9.3,0,13.3,1.4"/>
	<path class="st0" d="M641.9,347.6c-6.6-6.4-9-18-6.4-26.8C640.6,328.7,642.9,338.2,641.9,347.6"/>
	<path class="st0" d="M659.9,329.3c1.2-2.9,2.1-5.9,3.2-8.8c1-3,2.6-5.7,4.6-8.1c2.1-2.4,5-3.9,8.1-4.2c-2,9-7.8,16.7-15.8,21.2"/>
	<path class="st0" d="M656.6,333.1c-2-2.8-4.4-6.6-7.2-8.7s-6.4-3.4-9.8-2.6C643.2,328.1,649.5,332.3,656.6,333.1"/>
	<path class="st0" d="M657.3,329.6c-1.5-3.4-2.6-6.9-3.3-10.5c-0.7-3.6-0.1-7.4,1.6-10.6c3.6,6.8,4.8,14.1,1.8,21.2"/>
	<path class="st0" d="M659.9,308.4c2-6.8,8.2-11.7,14.9-14c0.8-0.3,1.7-0.5,2.6-0.4c0.9,0.1,1.7,0.7,1.9,1.6
		c0.3,1.1-0.7,2.2-1.6,2.9C672.5,303,666.5,306.4,659.9,308.4"/>
	<path class="st0" d="M660,302.9c0.3-4.4,0.5-8.8,2-12.9s4.1-8,8.1-9.8c0.7,4.4-1.3,8.8-3.6,12.5s-5.2,7.4-6.5,11.6"/>
	<path class="st0" d="M659.9,305.9c-1.7-4.9-1.9-11.2-4.8-15.5c-2-3-5.3-5-7.1-8.2c-1.1,3-0.9,6.4,0.4,9.3c1.3,2.9,3.2,5.5,5.5,7.8
		C656,301.7,657.8,303.5,659.9,305.9"/>
	<path class="st0" d="M659.9,450.7c-0.1,0-0.3-32.8-0.3-73.2s0.1-73.2,0.2-73.2s0.2,32.8,0.3,73.2S660,450.7,659.9,450.7z"/>
	<path class="st0" d="M688.6,352.5c-0.4,0.2-0.8,0.3-1.2,0.5l-3.3,1.1c-2.9,1-6.8,2.4-11.1,4.1s-8.2,3.3-10.5,5.3
		c-0.9,0.8-1.6,1.7-2.1,2.8c-0.3,0.8-0.4,1.2-0.4,1.2s0-0.1,0-0.4c0-0.3,0.1-0.6,0.2-1c0.4-1.2,1.1-2.2,2-3c1.4-1.2,2.9-2.1,4.5-2.8
		c1.8-0.9,3.8-1.7,6-2.6c4.3-1.8,8.2-3.1,11.1-4c1.5-0.5,2.6-0.8,3.5-1C687.8,352.6,688.2,352.5,688.6,352.5z"/>
	<path class="st0" d="M698,329.4c-0.1,0.1-0.2,0.3-0.3,0.4l-1,1l-3.9,3.6L679.7,346c-5.1,4.5-9.5,8.9-12.6,12.2
		c-1.5,1.6-2.7,3-3.6,3.9c-0.4,0.4-0.7,0.8-1,1.1s-0.3,0.4-0.4,0.4c0.1-0.1,0.2-0.3,0.3-0.4c0.2-0.3,0.5-0.7,0.9-1.1
		c0.8-1,2-2.4,3.5-4c3.9-4.3,8.1-8.4,12.5-12.3c5.1-4.5,9.8-8.6,13.2-11.5l4-3.5l1.1-0.9C697.7,329.6,697.8,329.5,698,329.4z"/>
	<path class="st0" d="M674.1,350.6c-0.1-0.1,0.9-2.5,2-5.6s1.6-5.7,1.7-5.7c-0.1,2-0.5,4-1.3,5.9c-0.5,1.3-1,2.7-1.6,3.9
		C674.7,349.6,674.4,350.1,674.1,350.6z"/>
	<path class="st0" d="M660,370.4c-0.3-0.3-0.6-0.6-0.8-0.9l-2-2.6c-1.7-2.2-4-5.2-6.7-8.5s-5-6.3-6.8-8.4l-2.1-2.5
		c-0.3-0.3-0.5-0.6-0.7-1c0.3,0.3,0.6,0.5,0.8,0.9c0.5,0.6,1.3,1.4,2.2,2.5c1.8,2.1,4.3,5,6.9,8.3s4.9,6.4,6.6,8.6
		c0.8,1.1,1.5,2,1.9,2.7C659.6,369.7,659.8,370,660,370.4z"/>
	<path class="st0" d="M653.7,362.4c-1.3-1.4-2.2-3.1-2.6-4.9c-0.5-1.6-0.7-3.3-0.6-5h0.2c-0.1,0.4-0.2,0.6-0.2,0.6s0-0.2,0-0.6h0.2
		c0.1,1.6,0.4,3.3,0.8,4.8C652.1,359,652.8,360.7,653.7,362.4z"/>
	<path class="st0" d="M645.5,352.1c-0.6-0.4-1.2-0.8-1.8-1.1c-1.7-0.5-3.4-0.6-5.1-0.4c-1.7,0.1-3.4,0.4-5.1,0.8
		c-0.7,0.2-1.4,0.4-2.1,0.5c0.6-0.4,1.3-0.7,2-0.8c1.7-0.5,3.4-0.9,5.2-1c1.8-0.2,3.6,0,5.3,0.6C644.5,351,645.2,351.5,645.5,352.1z
		"/>
	<path class="st0" d="M643.6,349.7c0,0.1-1.1-0.4-2.8-1c-4.6-1.6-9.4-1.9-14.2-1.1c-1.8,0.3-2.9,0.7-2.9,0.6
		c0.2-0.1,0.5-0.3,0.7-0.3c0.7-0.2,1.4-0.4,2.1-0.6c4.8-1,9.8-0.7,14.4,1.1c0.7,0.3,1.4,0.6,2,0.9
		C643.4,349.5,643.7,349.6,643.6,349.7z"/>
	<path class="st0" d="M659.9,339.2c-0.8-2.3-1.5-4.7-2.1-7.1c-0.7-2.4-1.2-4.8-1.6-7.3c0.8,2.3,1.5,4.7,2,7.1
		C658.9,334.3,659.5,336.8,659.9,339.2z"/>
	<path class="st0" d="M660,339.2c-0.7-1.5-1.4-2.9-2.3-4.3c-1-1.3-2.1-2.5-3.3-3.5c0.5,0.1,0.9,0.3,1.3,0.7c1,0.7,1.8,1.5,2.5,2.5
		C659.1,336,659.8,337.6,660,339.2z"/>
	<path class="st0" d="M659.9,433.2c0,0-0.2-0.8-0.5-2.2c-0.5-2-1.3-3.9-2.2-5.7c-3.2-5.9-7.1-11.4-11.6-16.3c-2.6-3-5.1-5.8-7.3-8.4
		c-1.9-2.4-3.6-4.9-5.2-7.5c-1-1.8-1.9-3.6-2.6-5.5c-0.2-0.7-0.4-1.2-0.5-1.6c-0.1-0.2-0.1-0.4-0.1-0.6c0,0,0.3,0.8,0.8,2.1
		c0.8,1.9,1.7,3.7,2.7,5.5c1.6,2.6,3.3,5,5.2,7.4c2.2,2.6,4.7,5.4,7.3,8.4c5.3,5.9,9.4,11.8,11.6,16.5c0.9,1.8,1.6,3.8,2.1,5.8
		c0.2,0.7,0.3,1.3,0.3,1.6C659.9,432.8,659.9,433,659.9,433.2z"/>
	<path class="st0" d="M685.8,404c-0.4,0.3-0.9,0.5-1.3,0.8c-1.2,0.7-2.4,1.5-3.5,2.3c-1.7,1.3-3.2,2.7-4.6,4.2
		c-1.6,1.7-3.3,3.7-5,5.8c-3.4,4.3-6.6,8.1-8.5,11.1c-1,1.5-1.7,2.8-2.1,3.6c-0.2,0.5-0.5,0.9-0.8,1.4c0,0,0-0.1,0.1-0.4
		s0.2-0.6,0.5-1.1c0.6-1.3,1.3-2.5,2-3.8c1.8-3.1,5-6.9,8.4-11.2c1.7-2.1,3.4-4.1,5.1-5.8c1.5-1.5,3-2.9,4.7-4.2
		c1.1-0.8,2.4-1.6,3.6-2.2c0.5-0.2,0.8-0.4,1.1-0.5S685.8,403.9,685.8,404z"/>
	<path class="st0" d="M686.3,413.4c-0.9,0.2-1.9,0.3-2.9,0.4c-2.3,0.2-4.6,0.7-6.8,1.3c-2.2,0.7-4.3,1.8-6.1,3.2
		c-1.4,1.1-2.1,2-2.1,1.9s0.1-0.3,0.4-0.7c0.4-0.6,1-1.1,1.5-1.5c1.8-1.5,3.9-2.7,6.2-3.4c2.3-0.7,4.6-1.1,6.9-1.2
		C684.4,413.4,685.4,413.4,686.3,413.4z"/>
	<path class="st0" d="M669.3,419.3c-0.2-0.1,1.2-2.1,2.2-4.7s1.2-5,1.3-5c0.1,0.5,0.1,1,0,1.5c-0.1,1.2-0.4,2.4-0.8,3.6
		c-0.4,1.2-1,2.3-1.7,3.3C670,418.5,669.7,418.9,669.3,419.3z"/>
	<path class="st0" d="M694.2,378.5c-0.1,0.1-0.3,0.2-0.5,0.3l-1.3,0.6c-0.6,0.3-1.3,0.6-2.1,1s-1.8,0.9-2.7,1.4l-1.6,0.9
		c-0.5,0.3-1.1,0.7-1.7,1c-1.2,0.7-2.3,1.6-3.5,2.4c-5.3,3.9-9.9,8.7-13.7,14.1c-0.8,1.3-1.7,2.5-2.3,3.6c-0.3,0.6-0.7,1.1-1,1.7
		l-0.8,1.6c-0.6,1-1,2-1.3,2.8s-0.7,1.5-0.9,2.1l-0.6,1.4c-0.1,0.2-0.1,0.3-0.2,0.5c0-0.2,0.1-0.3,0.1-0.5c0.1-0.4,0.3-0.8,0.5-1.4
		c0.2-0.6,0.5-1.4,0.9-2.2s0.8-1.8,1.3-2.8l0.8-1.6c0.3-0.6,0.6-1.1,1-1.7c0.7-1.2,1.5-2.4,2.3-3.7c1.9-2.7,4-5.3,6.3-7.7
		c2.3-2.4,4.8-4.6,7.5-6.5c1.3-0.9,2.4-1.7,3.6-2.4c0.6-0.4,1.1-0.7,1.7-1l1.6-0.9c1-0.6,2-1,2.8-1.4s1.6-0.7,2.2-0.9l1.4-0.5
		C693.9,378.5,694,378.5,694.2,378.5z"/>
	<path class="st0" d="M673.7,392.2c0.2-0.7,0.6-1.3,1.1-1.7c1.3-1.1,2.9-1.7,4.5-1.8c1.6,0,3.3,0.3,4.8,0.9c0.6,0.2,1.3,0.5,1.8,0.9
		c-0.7-0.1-1.3-0.3-2-0.6c-1.5-0.5-3.1-0.8-4.7-0.8c-1.6,0-3.1,0.6-4.3,1.5C674.5,391.2,674.1,391.7,673.7,392.2z"/>
	<path class="st0" d="M670.6,395.4c1.4-2.6,1.7-5.7,1-8.6c0.3,0.4,0.5,0.8,0.5,1.2c0.5,2.1,0.3,4.4-0.7,6.3
		C671,395,670.7,395.4,670.6,395.4z"/>
	<path class="st0" d="M637.3,437.9c0.7,12.5,4.5,25.3,10.3,38.2h25.3c5.5-12.8,9.1-25.5,9.7-38.2H637.3z"/>
	<path class="st1" d="M678.4,458.2c0,0.1-8.3,0.2-18.6,0.2s-18.6-0.1-18.6-0.2s8.3-0.2,18.6-0.2S678.4,458,678.4,458.2z"/>
	<path class="st1" d="M677.8,462.7c0,0.1-7.8,0.2-17.4,0.2s-17.4-0.1-17.4-0.2s7.8-0.2,17.4-0.2S677.8,462.6,677.8,462.7z"/>
	<path class="st1" d="M648,446.1c0.3,3.9,0.3,7.8,0,11.6C647.7,453.9,647.7,450,648,446.1z"/>
	<path class="st1" d="M661.5,446.1c0.3,4,0.3,8,0,12C661.2,454.2,661.2,450.1,661.5,446.1z"/>
	<path class="st1" d="M674.2,446c0.3,4.1,0.3,8.2,0,12.3C673.9,454.2,673.9,450.1,674.2,446z"/>
	<path class="st1" d="M681.7,446.1c0,0.1-9.8,0.2-21.8,0.2s-21.8-0.1-21.8-0.2s9.8-0.2,21.8-0.2S681.7,446,681.7,446.1z"/>
	<path class="st2" d="M166.9,276.8c2.6-1.6,5.4-2.8,8.3-3.6l1.7-8.2l13.8-0.2l2,8.1c2.9,0.7,5.8,1.8,8.4,3.3l7-4.6l9.9,9.6l-4.3,7.1
		c1.6,2.6,2.8,5.4,3.6,8.3l8.2,1.7l0.2,13.8l-8.1,2c-0.7,2.9-1.8,5.8-3.3,8.4l4.6,7l-9.6,9.9l-7.1-4.3c-2.6,1.6-5.4,2.8-8.3,3.6
		l-1.7,8.2l-13.8,0.3l-2-8.1c-2.9-0.7-5.8-1.8-8.4-3.3l-7,4.6l-9.9-9.6l4.3-7.1c-1.6-2.6-2.8-5.4-3.6-8.3l-8.2-1.7l-0.3-13.8l8.1-2
		c0.7-2.9,1.8-5.7,3.3-8.4l-4.6-7l9.6-9.9L166.9,276.8L166.9,276.8z M174.3,295.2c-5.7,5.9-5.5,15.3,0.4,21c5.9,5.7,15.3,5.5,21-0.4
		c5.7-5.9,5.5-15.3-0.4-20.9C189.4,289.1,180,289.3,174.3,295.2C174.3,295.1,174.3,295.2,174.3,295.2z"/>
	<path class="st0" d="M73.5,88.6c1.6-1,3.4-1.8,5.2-2.3l1.1-5.2l8.8-0.2l1.3,5.2c1.9,0.5,3.6,1.2,5.3,2.1l4.4-2.9l6.3,6.1l-2.7,4.6
		c1,1.6,1.8,3.4,2.3,5.3l5.2,1.1l0.2,8.8l-5.2,1.3c-0.5,1.9-1.2,3.6-2.1,5.3l2.9,4.4l-6.1,6.3l-4.5-2.7c-1.6,1-3.4,1.8-5.2,2.3
		l-1.1,5.2l-8.8,0.2l-1.3-5.1c-1.9-0.5-3.6-1.2-5.3-2.1l-4.4,2.9l-6.3-6.1l2.7-4.5c-1-1.6-1.8-3.4-2.3-5.2l-5.2-1l-0.2-8.8l5.2-1.3
		c0.5-1.9,1.2-3.6,2.1-5.3l-2.9-4.4l6.1-6.3L73.5,88.6L73.5,88.6z M78.2,100.3c-3.6,3.7-3.5,9.7,0.2,13.3c3.7,3.6,9.7,3.5,13.3-0.2
		c3.6-3.7,3.5-9.7-0.2-13.3C87.7,96.5,81.8,96.6,78.2,100.3z"/>
	<path class="st0" d="M628.6,93.8c2.2-1.3,4.5-2.4,7-3.1l1.5-7l11.8-0.2l1.7,6.9c2.5,0.6,4.9,1.6,7.2,2.8l6-3.9l8.5,8.2l-3.7,6.1
		c1.3,2.2,2.4,4.6,3.1,7.1l7,1.4l0.2,11.8l-6.9,1.7c-0.6,2.5-1.6,4.9-2.8,7.2l3.9,6l-8.2,8.5l-6.1-3.7c-2.2,1.3-4.6,2.4-7.1,3.1
		l-1.5,7l-11.8,0.2l-1.7-6.9c-2.5-0.6-4.9-1.6-7.2-2.8l-6,3.9l-8.5-8.2l3.7-6.1c-1.3-2.2-2.4-4.5-3.1-7l-7-1.5l-0.2-11.8l6.9-1.7
		c0.6-2.5,1.6-4.9,2.8-7.2l-3.9-6l8.2-8.5L628.6,93.8L628.6,93.8z M634.9,109.5c-4.9,5-4.7,13,0.3,17.9c5,4.9,13,4.7,17.9-0.3
		c4.9-5,4.7-13-0.3-17.9c0,0,0,0,0,0C647.8,104.4,639.8,104.5,634.9,109.5L634.9,109.5z"/>
	<path class="st3" d="M461.8,281.3c1.9-1.1,4-2,6.1-2.6l1.3-6l10.2-0.2l1.5,6c2.2,0.5,4.2,1.3,6.2,2.4l5.1-3.4l7.3,7.1l-3.2,5.3
		c1.2,1.9,2.1,4,2.7,6.1l6,1.3l0.2,10.2l-6,1.5c-0.5,2.2-1.4,4.2-2.4,6.2l3.4,5.2l-7.1,7.3l-5.3-3.2c-1.9,1.1-4,2-6.1,2.6l-1.3,6
		l-10.2,0.2l-1.5-6c-2.2-0.5-4.2-1.3-6.2-2.4l-5.2,3.4l-7.3-7.1l3.2-5.3c-1.1-1.9-2-4-2.6-6.1l-6-1.3l-0.2-10.2l6-1.5
		c0.5-2.2,1.3-4.2,2.4-6.2l-3.4-5.1l7.1-7.3L461.8,281.3L461.8,281.3z M467.3,294.9c-4.2,4.3-4.1,11.3,0.3,15.5
		c4.3,4.2,11.3,4.1,15.5-0.3c4.2-4.3,4.1-11.3-0.3-15.4C478.4,290.5,471.5,290.6,467.3,294.9C467.3,294.9,467.3,294.9,467.3,294.9z"
		/>
	<path class="st0" d="M671.1,54.6c0.9-0.5,1.8-0.9,2.8-1.2l0.6-2.8l4.7-0.1l0.7,2.7c1,0.2,1.9,0.6,2.8,1.1l2.4-1.5l3.3,3.2l-1.5,2.4
		c0.5,0.9,0.9,1.8,1.2,2.8l2.8,0.6l0.1,4.7l-2.7,0.7c-0.2,1-0.6,1.9-1.1,2.8l1.5,2.3l-3.2,3.3l-2.4-1.4c-0.9,0.5-1.8,0.9-2.8,1.2
		l-0.6,2.8l-4.7,0.1l-0.7-2.7c-1-0.3-1.9-0.6-2.8-1.1l-2.4,1.5l-3.3-3.2l1.5-2.4c-0.5-0.9-1-1.8-1.2-2.8l-2.7-0.6l-0.1-4.7l2.7-0.7
		c0.2-1,0.6-1.9,1.1-2.8l-1.5-2.3l3.2-3.3L671.1,54.6L671.1,54.6z M673.6,60.8c-1.9,2-1.9,5.1,0.1,7.1s5.1,1.9,7.1-0.1
		c1.9-2,1.9-5.1-0.1-7.1c0,0,0,0,0,0C678.7,58.8,675.5,58.8,673.6,60.8z"/>
	<path class="st3" d="M665.5,199.8c0.9-0.5,1.8-0.9,2.8-1.2l0.6-2.8l4.7-0.1l0.7,2.7c1,0.2,1.9,0.6,2.8,1.1l2.4-1.6l3.3,3.2
		l-1.5,2.4c0.5,0.9,0.9,1.8,1.2,2.8l2.8,0.6l0.1,4.7l-2.7,0.7c-0.2,1-0.6,1.9-1.1,2.8l1.5,2.4l-3.2,3.4l-2.4-1.5
		c-0.9,0.5-1.8,0.9-2.8,1.2l-0.6,2.8l-4.7,0.1l-0.7-2.7c-1-0.2-1.9-0.6-2.8-1.1l-2.3,1.6l-3.3-3.2l1.5-2.4c-0.5-0.9-0.9-1.8-1.2-2.8
		l-2.8-0.6l-0.1-4.7l2.7-0.7c0.2-1,0.6-1.9,1.1-2.8l-1.5-2.4l3.2-3.4L665.5,199.8L665.5,199.8z M668,206c-1.9,2-1.9,5.1,0.1,7.1
		c2,1.9,5.1,1.9,7.1-0.1c1.9-2,1.9-5.1-0.1-7.1c0,0,0,0,0,0C673.1,204,669.9,204,668,206z"/>
	<path class="st3" d="M191.7,377.2c1.2-0.7,2.5-1.3,3.8-1.6l0.8-3.7l6.3-0.1l0.9,3.7c1.3,0.3,2.6,0.8,3.8,1.5l3.2-2.1l4.5,4.4
		l-2,3.3c0.7,1.2,1.3,2.5,1.6,3.8l3.7,0.8l0.1,6.3l-3.7,0.9c-0.3,1.3-0.8,2.6-1.5,3.8l2.1,3.2l-4.4,4.5l-3.3-2
		c-1.2,0.7-2.5,1.3-3.8,1.6l-0.8,3.7l-6.3,0.1l-0.9-3.7c-1.3-0.3-2.6-0.8-3.8-1.5l-3.2,2.1l-4.5-4.4l2-3.3c-0.7-1.2-1.3-2.5-1.6-3.8
		l-3.7-0.8l-0.1-6.3l3.7-0.9c0.3-1.3,0.8-2.6,1.5-3.8l-2.1-3.2l4.4-4.5L191.7,377.2L191.7,377.2z M195.1,385.6
		c-2.6,2.7-2.5,7,0.2,9.6c2.7,2.6,7,2.5,9.6-0.2c2.6-2.7,2.5-7-0.2-9.6c0,0,0,0,0,0C202,382.8,197.7,382.9,195.1,385.6L195.1,385.6z
		"/>
	<polygon class="st3" points="347.6,448.7 347.6,475.8 387.3,475.8 431,475.8 431,448.7 	"/>
	<polygon class="st0" points="344.1,441.1 344.1,448.7 433.9,448.7 433.9,441.1 387.3,441.1 	"/>
	<polygon class="st0" points="389,475.8 431,475.8 431,448.7 433.9,448.7 433.9,441.1 387.3,441.1 387.3,448 	"/>
	<rect x="359.3" y="453.1" class="st0" width="16.9" height="4.1"/>
	<rect x="357.1" y="462.3" class="st4" width="21.7" height="8.6"/>
	<polygon class="st3" points="360.4,414.1 360.4,441.2 400.1,441.2 443.8,441.2 443.8,414.1 	"/>
	<polygon class="st0" points="356.9,406.5 356.9,414.1 446.7,414.1 446.7,406.5 400.1,406.5 	"/>
	<polygon class="st0" points="401.8,441.2 443.8,441.2 443.8,414.1 446.7,414.1 446.7,406.5 400.1,406.5 400.1,413.4 	"/>
	<rect x="372.1" y="418.4" class="st0" width="16.9" height="4.1"/>
	<rect x="369.9" y="427.6" class="st4" width="21.7" height="8.6"/>
</g>
<g id="freepik--Floor--inject-14">
	<path class="st5" d="M705.4,475.8c0,0.1-147.9,0.3-330.4,0.3S44.6,476,44.6,475.8s147.9-0.3,330.4-0.3S705.4,475.7,705.4,475.8z"/>
</g>
<g id="freepik--Plant--inject-14">
	<path class="st5" d="M111.3,447.3c0,0-4.2-29-3.9-46s0-35.9,0-35.9h1.9c0,0-1.3,33.5,0.1,53.8s5.2,28.1,5.2,28.1L111.3,447.3"/>
	<path class="st6" d="M123.9,332.7c-0.3-1-0.9-1.9-1.8-2.6c-1.2-0.8-2.8-0.5-4.2,0c-5.9,2.1-11.1,13-13.5,18.8l7.8,26.3
		C126.4,362.2,128.8,345,123.9,332.7z"/>
	<path class="st5" d="M121.7,331.2c0,0.1-0.1,0.2-0.1,0.3c-0.1,0.3-0.2,0.6-0.4,1c-0.3,0.8-0.8,2-1.4,3.5c-1.2,3-2.6,7.2-3.9,11.9
		s-2.2,9-2.8,12.2c-0.3,1.6-0.5,2.9-0.6,3.7c-0.1,0.4-0.1,0.8-0.2,1c0,0.1,0,0.2-0.1,0.4c0-0.1,0-0.2,0-0.4c0-0.3,0.1-0.6,0.1-1
		c0.1-0.9,0.3-2.2,0.5-3.8c0.7-4.1,1.5-8.2,2.7-12.3c1.1-4,2.4-8,4-11.9c0.6-1.5,1.1-2.7,1.5-3.5c0.2-0.4,0.3-0.7,0.4-0.9
		C121.5,331.4,121.6,331.3,121.7,331.2z"/>
	<path class="st6" d="M108.8,381.6c-7.2-4.1-11.8-11.7-12-20c-0.3-5.8,1.5-11.6,3.6-17c0.1-0.5,0.4-0.9,0.8-1.2
		c0.7-0.2,1.4-0.1,2,0.3c5.3,3,8.6,8.8,10.3,14.7c1.2,3.9,1.6,8,1.2,12.1C114,374.6,111.9,378.6,108.8,381.6"/>
	<path class="st5" d="M108.8,381.6c0-0.1,0-0.2,0-0.4c0-0.3,0-0.6,0-1c0-0.9,0-2.1-0.1-3.7c-0.2-4.1-0.7-8.1-1.3-12.2
		c-0.8-4.7-1.8-8.9-2.5-12c-0.4-1.5-0.7-2.7-0.9-3.6c-0.1-0.4-0.2-0.7-0.2-1c0-0.1-0.1-0.2-0.1-0.4c0.1,0.1,0.1,0.2,0.1,0.3l0.3,1
		c0.2,0.8,0.6,2.1,1,3.6c0.8,3,1.8,7.3,2.6,12c0.7,4,1.1,8.1,1.3,12.2c0,1.6,0,2.8,0,3.7c0,0.4,0,0.7,0,1
		C108.9,381.4,108.9,381.5,108.8,381.6z"/>
	<g class="st7">
		<path d="M108.8,381.6c-7.2-4.1-11.8-11.7-12-20c-0.3-5.8,1.5-11.6,3.6-17c0.1-0.5,0.4-0.9,0.8-1.2c0.7-0.2,1.4-0.1,2,0.3
			c5.3,3,8.6,8.8,10.3,14.7c1.2,3.9,1.6,8,1.2,12.1C114,374.6,111.9,378.6,108.8,381.6"/>
	</g>
	<path class="st6" d="M117.1,426c7.2,1.6,13.1,6.7,20.1,9.1c4.6,1.6,9.8,2.2,13.5,5.4c-0.9-2.2-3-3.7-5-5
		c-5.7-3.6-11.8-6.5-18.2-8.7c-3.3-1.1-6.8-2.1-10.2-1.1"/>
	<path class="st6" d="M106.6,432.5c-9-0.1-18.5-7.8-27.5-8.3C88.5,421.2,102,423.6,106.6,432.5"/>
	<path class="st6" d="M110.2,410.8c4.7-1.5,9.6-1.9,14.4-1c4.8,0.9,9.5,2.2,14.1,3.8c-0.5-3.1-3-5.5-5.4-7.6
		c-1.7-1.6-3.6-3.1-5.7-4.4c-2-1.3-4.4-1.9-6.8-1.9c-2.9,0.2-5.6,1.5-7.5,3.8C111.5,405.6,110.4,408.1,110.2,410.8"/>
	<path class="st6" d="M91.6,400.9c-5.6-4.9-14.3-4.4-21.8-4.2c12,5.7,23.3,12.8,33.7,21C103.9,412.4,98.8,407,91.6,400.9z"/>
	<g class="st7">
		<path d="M91.6,400.9c-5.6-4.9-14.3-4.4-21.8-4.2c12,5.7,23.3,12.8,33.7,21C103.9,412.4,98.8,407,91.6,400.9z"/>
	</g>
	<path class="st6" d="M112.7,394.1c2.8-1.9,5.7-3.6,8.7-5.1c3-1.4,5.8-3.5,8.7-5.1c3.7-2,7-4.9,10.4-7.4s7.2-4.8,11.4-5.5
		c-3.5-0.6-7-0.4-10.4,0.6c-3.4,1-6.6,2.3-9.8,3.8c-4.4,2-8.9,4-12.6,7.3S112.3,389.3,112.7,394.1"/>
	<path class="st5" d="M137,432.5c-0.1,0-0.2-0.1-0.3-0.1l-0.8-0.4c-0.7-0.4-1.6-0.9-2.9-1.5c-0.6-0.3-1.3-0.7-2-1s-1.5-0.7-2.4-1.1
		c-1.8-0.8-3.6-1.4-5.6-1.9c-1.9-0.5-3.9-0.6-5.8-0.1c-0.8,0.2-1.7,0.4-2.4,0.7c-0.7,0.3-1.4,0.6-2,1c-0.9,0.6-1.8,1.3-2.5,2.1
		c-0.5,0.6-0.8,0.9-0.8,0.9s0-0.1,0.2-0.3s0.3-0.4,0.5-0.7c0.7-0.8,1.5-1.6,2.5-2.2c0.6-0.4,1.3-0.8,2-1.1c0.8-0.3,1.6-0.6,2.5-0.8
		c2-0.5,4-0.4,5.9,0.1c1.9,0.5,3.8,1.2,5.6,2c0.8,0.4,1.6,0.7,2.3,1.1c0.7,0.4,1.4,0.7,2,1c1.2,0.6,2.2,1.2,2.8,1.6l0.8,0.5
		C136.9,432.4,137,432.4,137,432.5z"/>
	<path class="st5" d="M99.9,428c0.2,0,0.4,0.1,0.6,0.2c0.5,0.2,1,0.4,1.5,0.6c1.6,0.8,3,1.8,4.3,3c1.3,1.2,2.4,2.6,3.2,4.2
		c0.3,0.5,0.5,0.9,0.7,1.4c0.1,0.2,0.2,0.4,0.2,0.6c0,0-0.4-0.7-1.1-1.9c-0.9-1.5-2-2.9-3.3-4.1c-1.3-1.2-2.7-2.2-4.2-3.1
		C100.7,428.3,99.9,428,99.9,428z"/>
	<path class="st5" d="M79.9,400.4c0.1,0,0.3,0.1,0.4,0.1l1.1,0.4l1.7,0.6c0.7,0.3,1.4,0.6,2.2,1c4.2,2,8.2,4.5,11.8,7.5
		c1.9,1.7,3.8,3.5,5.5,5.4c1.4,1.6,2.7,3.2,3.9,4.9c1,1.5,1.8,2.7,2.3,3.5l0.6,1c0.1,0.1,0.1,0.2,0.2,0.4c-0.1-0.1-0.2-0.2-0.3-0.3
		c-0.2-0.2-0.4-0.5-0.7-0.9c-0.6-0.8-1.4-2-2.4-3.5s-2.4-3.1-3.9-4.9c-1.7-1.9-3.5-3.7-5.5-5.4c-3.5-3-7.5-5.5-11.6-7.5
		c-0.8-0.4-1.5-0.8-2.2-1l-1.7-0.8l-1.1-0.4L79.9,400.4z"/>
	<path class="st5" d="M123.7,405.7c-0.2,0-0.5,0-0.7-0.1l-0.8-0.1c-0.3-0.1-0.7-0.1-1.1-0.1c-2.1-0.2-4.3,0.2-6.2,1.2
		c-1.1,0.5-2,1.2-2.8,2.1c-0.7,0.7-1.3,1.4-1.8,2.2c-0.5,0.8-0.9,1.6-1.3,2.4c0-0.2,0.1-0.5,0.2-0.7c0.2-0.6,0.5-1.2,0.9-1.8
		c0.5-0.8,1.1-1.6,1.8-2.3c0.8-0.9,1.8-1.6,2.9-2.2c2-1,4.2-1.4,6.4-1.2c0.4,0,0.7,0.1,1.1,0.1l0.8,0.2
		C123.2,405.6,123.5,405.6,123.7,405.7z"/>
	<path class="st5" d="M132.8,377.6c-0.1,0.1-0.2,0.2-0.3,0.2l-1,0.5c-0.9,0.5-2.1,1.2-3.7,2.1s-3.3,2-5.2,3.4
		c-2.1,1.5-4,3.1-5.8,4.9c-0.9,0.9-1.7,2-2.4,3.1c-0.6,1.1-1.2,2.2-1.7,3.3c-0.9,1.9-1.8,3.8-2.5,5.7c-0.5,1.3-0.9,2.6-1.2,4
		c-0.2,1-0.3,1.5-0.3,1.5c0-0.1,0-0.3,0-0.4c0-0.3,0.1-0.6,0.2-1.1c0.3-1.4,0.7-2.7,1.1-4.1c0.7-2,1.5-3.9,2.4-5.8
		c0.5-1.1,1.1-2.2,1.7-3.3c0.7-1.2,1.5-2.2,2.4-3.2c1.8-1.8,3.8-3.5,5.9-4.9c1.9-1.4,3.8-2.5,5.3-3.4s2.8-1.5,3.7-2l1-0.5
		C132.5,377.7,132.6,377.6,132.8,377.6z"/>
	<path class="st5" d="M107.5,404.9c-0.1-0.2-0.2-0.5-0.2-0.8c-0.1-0.5-0.2-1.3-0.4-2.1c-0.4-2.3-1-4.5-1.7-6.8
		c-0.7-2.2-1.6-4.4-2.6-6.5c-0.3-0.8-0.7-1.4-0.9-1.9c-0.1-0.2-0.2-0.5-0.3-0.7c0.2,0.2,0.3,0.4,0.4,0.7c0.2,0.4,0.6,1.1,1,1.9
		c1.1,2.1,2,4.3,2.7,6.5c0.7,2.2,1.3,4.5,1.6,6.8c0.1,0.9,0.2,1.6,0.3,2.1C107.5,404.4,107.5,404.7,107.5,404.9z"/>
	<path class="st6" d="M106.8,384.4c-0.3-3.4-1.3-6.7-2.9-9.7c-4.5-8.4-12.5-14.3-21.8-16.3c6.7,10,13.5,20,20.2,30.1l2.6,5.4
		C106.5,391,107.2,387.7,106.8,384.4z"/>
	<rect x="88.8" y="443.7" class="st8" width="46.9" height="8.3"/>
	<polygon class="st8" points="92.3,450.3 96.3,476.1 127.5,476.1 132.3,450.3 	"/>
	<path class="st5" d="M135.7,452c0,0.1-10.6,0.2-23.6,0.2s-23.6-0.1-23.6-0.2s10.6-0.2,23.6-0.2S135.7,451.9,135.7,452z"/>
</g>
<g id="freepik--magnifying-glass--inject-14">
	<path class="st6" d="M294.1,471.8c-29.6,6.5-58.8-12.1-65.3-41.7s12.1-58.8,41.7-65.3c11.2-2.5,22.9-1.4,33.4,3.1l0,0
		c27.8,11.9,40.8,44.1,28.9,71.9C325.8,456,311.4,468,294.1,471.8z M271.3,368.3c-27.5,6.1-44.9,33.4-38.8,60.9
		c6.1,27.5,33.4,44.9,60.9,38.8c27.5-6.1,44.9-33.4,38.8-60.9c-3.6-16.1-14.7-29.4-29.8-35.9C292.6,367,281.7,366,271.3,368.3z"/>
	<path class="st5" d="M294.1,471.8c-29.6,6.5-58.8-12.1-65.3-41.7s12.1-58.8,41.7-65.3c11.2-2.5,22.9-1.4,33.4,3.1l0,0
		c27.8,11.9,40.8,44.1,28.9,71.9C325.8,456,311.4,468,294.1,471.8z M271.3,368.3c-27.5,6.1-44.9,33.4-38.8,60.9
		c6.1,27.5,33.4,44.9,60.9,38.8c27.5-6.1,44.9-33.4,38.8-60.9c-3.6-16.1-14.7-29.4-29.8-35.9C292.6,367,281.7,366,271.3,368.3z"/>
	<path class="st6" d="M292.3,474.1c-29.6,6.5-58.8-12.1-65.3-41.7c-6.5-29.6,12.1-58.8,41.7-65.3c11.2-2.5,22.9-1.4,33.4,3.1l0,0
		c27.8,11.9,40.8,44.1,28.9,71.9C323.9,458.3,309.5,470.3,292.3,474.1z M269.4,370.6c-27.6,6.1-44.9,33.4-38.8,60.9
		s33.4,44.9,60.9,38.8c27.6-6.1,44.9-33.4,38.8-60.9c-3.6-16.1-14.7-29.5-29.8-35.9C290.7,369.3,279.9,368.3,269.4,370.6z"/>
	<path class="st6" d="M418.4,470.7l-0.9,2.3c-0.8,2-4.3,2.5-6.5,1.7l-82.1-32l4.1-10.6l82,31.9C417.8,465.1,419.4,468.1,418.4,470.7
		z"/>
	<path class="st5" d="M304.7,399.8c0.1,0.1-10.3,8.7-23.3,19.2s-23.5,18.9-23.6,18.8s10.3-8.7,23.3-19.2S304.6,399.7,304.7,399.8z"
		/>
	<path class="st5" d="M290.5,396.6c0.1,0.1-7.6,6.7-17.2,14.6s-17.4,14.4-17.5,14.3s7.6-6.7,17.2-14.6S290.4,396.5,290.5,396.6z"/>
	<path class="st5" d="M303.5,416.5c0.1,0.1-5.2,4.6-11.8,10.1s-12,9.8-12.1,9.7s5.2-4.6,11.8-10.1S303.5,416.4,303.5,416.5z"/>
</g>
<g id="freepik--chart-6--inject-14">
	<path class="st3" d="M654.3,256.5c0.2,20.8-16.4,37.8-37.2,38.1c-20.8,0.2-37.8-16.4-38.1-37.2c-0.2-20.7,16.3-37.7,37-38.1
		C636.9,219,654,235.6,654.3,256.5z M598.7,257.4c0.2,9.9,8.4,17.8,18.4,17.6c9.9-0.2,17.8-8.4,17.6-18.4
		c-0.2-9.9-8.4-17.8-18.3-17.6C606.4,239.2,598.5,247.4,598.7,257.4z"/>
	<path class="st6" d="M654.3,256.5c0.4,20.8-16.2,38-37,38.4l-0.3-19.7c10-0.5,17.6-9.1,17.1-19c-0.5-9.5-8.2-16.9-17.7-17.1
		l-0.3-19.7C636.9,219,654,235.6,654.3,256.5z"/>
	<path class="st9" d="M654.3,256.5c0.2,20.8-16.4,37.8-37.2,38.1c-20.8,0.2-37.8-16.4-38.1-37.2c-0.2-20.7,16.3-37.7,37-38.1
		C636.9,219,654,235.6,654.3,256.5z M598.7,257.4c0.2,9.9,8.4,17.8,18.4,17.6c9.9-0.2,17.8-8.4,17.6-18.4
		c-0.2-9.9-8.4-17.8-18.3-17.6C606.4,239.2,598.5,247.4,598.7,257.4z"/>
	<path class="st5" d="M598.7,257.4c0-0.1,0-0.2,0-0.3v-0.9c0-0.5,0-0.9,0.1-1.4c0.1-0.6,0.2-1.3,0.3-1.9c0.4-1.7,1-3.4,1.9-4.9
		c4.3-7.6,13.4-11.1,21.7-8.3c1.7,0.6,3.2,1.4,4.7,2.4c0.7,0.5,1.4,1.1,2.1,1.7c0.7,0.7,1.3,1.4,1.8,2.1c4.8,6.4,5,15.1,0.3,21.6
		c-0.5,0.8-1.1,1.5-1.8,2.1c-0.6,0.6-1.3,1.2-2,1.8c-1.4,1.1-2.9,1.9-4.6,2.6c-8.2,3.1-17.4-0.1-21.9-7.6c-0.9-1.5-1.6-3.1-2-4.8
		c-0.2-0.6-0.3-1.2-0.4-1.9c-0.1-0.5-0.1-0.9-0.1-1.4c0-0.4,0-0.6,0-0.9c0-0.1,0-0.2,0-0.3c0.1,1.5,0.4,2.9,0.7,4.4
		c0.5,1.7,1.2,3.3,2.1,4.7c1.2,1.9,2.8,3.6,4.6,5c4.8,3.6,11.1,4.4,16.7,2.3c1.6-0.6,3.1-1.5,4.5-2.5c0.7-0.5,1.4-1.1,2-1.8
		c0.6-0.7,1.2-1.4,1.7-2.1c4.5-6.3,4.3-14.8-0.3-21c-0.5-0.7-1.1-1.4-1.8-2c-0.6-0.6-1.3-1.2-2-1.7c-1.4-1-2.9-1.8-4.5-2.4
		c-5.7-2-12.1-1-16.8,2.8c-1.8,1.4-3.3,3.2-4.5,5.1c-0.9,1.5-1.5,3.1-1.9,4.8C599,254.5,598.8,255.9,598.7,257.4z"/>
	<path class="st5" d="M654.3,256.5c0,0,0-0.2-0.1-0.6l-0.1-1.8c0-0.4-0.1-0.8-0.1-1.3s-0.2-1-0.3-1.6c-0.2-1.3-0.5-2.6-0.8-3.9
		c-0.9-3.5-2.4-6.9-4.3-9.9c-5.7-9.2-15-15.5-25.6-17.3c-1.6-0.3-3.2-0.4-4.8-0.5c-0.8,0-1.6-0.1-2.4,0l-2.5,0.2
		c-0.4,0-0.8,0-1.3,0.1l-1.3,0.2c-0.8,0.1-1.7,0.3-2.5,0.4c-1.7,0.4-3.4,0.9-5,1.6c-1.7,0.6-3.3,1.4-4.8,2.3c-0.8,0.4-1.5,1-2.3,1.4
		c-0.8,0.5-1.5,1-2.2,1.6c-1.5,1.1-2.9,2.4-4.2,3.7l-1.9,2.1l-0.5,0.5l-0.4,0.6l-0.8,1.2l-0.8,1.2l-0.7,1.3l-0.7,1.3l-0.4,0.6
		l-0.3,0.7L582,243l-1,2.8c-2.4,7.7-2.3,16,0.4,23.7c0.4,0.9,0.7,1.8,1.1,2.8s0.9,1.8,1.3,2.6l0.3,0.7l0.4,0.6l0.8,1.2l0.8,1.2
		l0.9,1.1l0.9,1.1l0.4,0.6l0.5,0.5l1.9,2.1c1.4,1.3,2.8,2.5,4.3,3.6c0.7,0.6,1.5,1.1,2.3,1.5c0.8,0.5,1.6,0.9,2.3,1.4
		c1.6,0.8,3.2,1.5,4.9,2.1c1.6,0.6,3.3,1,5,1.4c0.8,0.2,1.7,0.3,2.5,0.4l1.3,0.2c0.4,0,0.8,0,1.3,0.1l2.5,0.1c0.8,0,1.6-0.1,2.5-0.1
		c1.6-0.1,3.2-0.3,4.7-0.6c5.7-1.2,11.1-3.7,15.7-7.3c3.8-3,7-6.7,9.3-10.8c1.8-3.1,3.2-6.5,4-10.1c0.3-1.3,0.6-2.6,0.7-3.9
		c0.1-0.6,0.2-1.1,0.2-1.6s0-0.9,0-1.3c0-0.8,0.1-1.4,0.1-1.8S654.3,256.4,654.3,256.5c-0.1,0-0.1,0.2-0.1,0.6s0,1,0,1.8
		c0,0.4,0,0.8,0,1.3s-0.1,1-0.2,1.6c-0.1,1.3-0.4,2.6-0.7,3.9c-0.8,3.6-2.1,7-4,10.2c-5.4,9.5-14.5,16.2-25.2,18.4
		c-1.6,0.3-3.2,0.5-4.8,0.6c-0.8,0-1.6,0.1-2.5,0.1l-2.5-0.1c-0.4,0-0.8,0-1.3-0.1l-1.3-0.2c-0.8-0.1-1.7-0.2-2.6-0.4
		c-1.7-0.4-3.4-0.8-5.1-1.4c-1.7-0.6-3.4-1.3-5-2.1c-0.8-0.4-1.6-0.9-2.4-1.4c-0.8-0.5-1.6-1-2.3-1.5c-1.5-1.1-3-2.3-4.4-3.6l-2-2.1
		l-0.5-0.5l-0.5-0.6l-0.9-1.1l-0.9-1.2l-0.8-1.2l-0.8-1.3l-0.4-0.6l-0.3-0.7l-1.3-2.6l-1.1-2.8c-2.7-7.7-2.9-16.2-0.4-24l1-2.8
		l1.2-2.7l0.3-0.7l0.4-0.6l0.8-1.3l0.7-1.3l0.8-1.2l0.8-1.2l0.4-0.6l0.5-0.5l1.9-2.2c1.3-1.3,2.7-2.6,4.2-3.7
		c0.7-0.6,1.5-1.1,2.3-1.6c0.8-0.5,1.5-1,2.3-1.5c1.6-0.9,3.2-1.6,4.9-2.3c1.6-0.6,3.3-1.2,5-1.6c0.8-0.2,1.7-0.3,2.5-0.5l1.3-0.2
		c0.4-0.1,0.8-0.1,1.3-0.1l2.5-0.2c0.8,0,1.7,0,2.5,0.1c1.6,0.1,3.2,0.2,4.8,0.5c10.7,1.9,20.1,8.3,25.8,17.6
		c1.9,3.1,3.4,6.5,4.3,10c0.4,1.3,0.6,2.6,0.8,3.9c0.1,0.6,0.2,1.1,0.2,1.6s0,0.9,0.1,1.3c0,0.8,0.1,1.4,0.1,1.8
		C654.3,256.2,654.3,256.5,654.3,256.5z"/>
	<path class="st8" d="M620.7,297.9c-23.7,0.6-43.4-18.2-44-42c0-0.3,0-0.6,0-0.9l23-0.4c0.2,11.7,9.1,19,20.7,18.8L620.7,297.9z"/>
	<path class="st5" d="M620.7,297.9c0-0.1,0-0.3,0-0.5v-1.3c0-1.1-0.1-2.8-0.1-4.9c-0.1-4.2-0.2-10.3-0.4-17.8l0.2,0.2
		c-2.3,0-4.7-0.2-6.9-0.8c-2.5-0.7-4.8-1.8-6.9-3.3c-2.2-1.7-4-3.9-5.2-6.3c-1.3-2.6-2-5.5-2-8.5l0.3,0.3l-17.8,0.3l-5.2,0.1
		l0.3-0.3c0.1,4.6,0.9,9.2,2.3,13.6c0.4,1,0.8,2.1,1.2,3.1s1,2,1.4,2.9c0.5,1,1,1.9,1.6,2.8c0.5,0.9,1.1,1.8,1.7,2.6l1.8,2.4
		c0.6,0.8,1.3,1.5,2,2.2l1,1l1.1,0.9l2.1,1.8c2.6,2.1,5.5,3.8,8.5,5.3l2,0.9c0.7,0.3,1.3,0.5,2,0.7l1.9,0.7c0.6,0.2,1.2,0.3,1.8,0.5
		l1.7,0.4l0.8,0.2l0.8,0.1l2.8,0.4c0.7,0.1,1.5,0.2,2.2,0.2l1.7,0.1l1,0.1L620.7,297.9l-1.3,0h-1.7c-0.8,0-1.5,0-2.3-0.1l-2.8-0.4
		c-0.3,0-0.5-0.1-0.8-0.1l-0.8-0.2l-1.7-0.4c-0.6-0.1-1.2-0.3-1.8-0.5l-1.9-0.6c-0.7-0.2-1.3-0.4-2-0.7l-2.1-0.9
		c-3.1-1.4-6-3.2-8.6-5.3l-2.1-1.8l-1.1-0.9l-1-1.1c-0.7-0.7-1.4-1.4-2-2.2l-1.9-2.4c-0.6-0.8-1.2-1.7-1.7-2.6
		c-0.6-0.9-1.1-1.8-1.6-2.8c-0.5-1-1-2-1.4-3s-0.8-2.1-1.2-3.1c-1.5-4.4-2.3-9.1-2.4-13.8v-0.3h0.3l5.2-0.1l17.8-0.3h0.3v0.3
		c0,2.9,0.7,5.7,1.9,8.3c1.2,2.4,2.9,4.5,5,6.2c2,1.5,4.3,2.6,6.7,3.3c2.2,0.6,4.5,0.9,6.8,0.9h0.2v0.2c0.1,7.5,0.1,13.6,0.2,17.9
		c0,2.1,0,3.7,0,4.9v1.3C620.7,297.8,620.7,297.9,620.7,297.9z"/>
</g>
<g id="freepik--char-5--inject-14">
	<rect x="441.1" y="39.4" class="st4" width="199.3" height="148.9"/>
	<rect x="441.1" y="39.4" class="st0" width="199.3" height="18.4"/>
	<circle class="st4" cx="452" cy="48.6" r="2.6"/>
	<circle class="st4" cx="461" cy="48.6" r="2.6"/>
	<circle class="st4" cx="469.9" cy="48.6" r="2.6"/>
	<path class="st5" d="M640.4,188.4c0,0,0-0.9,0-2.7s0-4.4,0-7.9c0-6.9,0-17.1,0-30.1c0-25.9-0.1-63.2-0.1-108.2l0.2,0.2l-199.2,0
		l0,0l0.3-0.3c0,53.5,0,104.2,0,148.9l-0.2-0.2l143.8,0.1l40.8,0.1h10.8h2.8l0,0h-2.8H626l-40.8,0.1l-144,0.1H441v-0.2
		c0-44.7,0-95.4,0-148.9v-0.3h0.3h199.2h0.2v0.2c0,45.1-0.1,82.4-0.1,108.3c0,13,0,23.1,0,30c0,3.4,0,6.1,0,7.9
		S640.4,188.4,640.4,188.4z"/>
	<path class="st0" d="M629.4,129.2c0,0.1-39.7,0.3-88.5,0.3s-88.6-0.1-88.6-0.3s39.6-0.3,88.6-0.3S629.4,129.1,629.4,129.2z"/>
	<path class="st0" d="M629.4,113.9c0,0.1-39.7,0.3-88.5,0.3s-88.6-0.1-88.6-0.3s39.6-0.3,88.6-0.3S629.4,113.8,629.4,113.9z"/>
	<path class="st0" d="M629.4,98.6c0,0.1-39.7,0.3-88.5,0.3s-88.6-0.1-88.6-0.3s39.6-0.3,88.6-0.3S629.4,98.5,629.4,98.6z"/>
	<path class="st0" d="M629.4,83.3c0,0.1-39.7,0.3-88.5,0.3s-88.6-0.1-88.6-0.3s39.6-0.3,88.6-0.3S629.4,83.2,629.4,83.3z"/>
	<path class="st8" d="M617,128.6c-3.5-8.3-5.8-17.4-8.5-26.1c-2.3-7.5-2.5-11-4.5-17.4c-3.1-10-11.4-11.1-17.4-8.4
		c-5.3,2.4-7.6,8.7-9.4,14.3l-6.4,20.3c-0.9,3.2-2.2,6.4-3.9,9.2c-1.8,2.8-4.7,5.1-7.9,5.5c-5.4,0.7-10.3-3.8-12.6-8.8
		s-3-10.7-5-15.8s-6.3-10-11.8-10.1c-6.7-0.1-11.3,6.7-14.1,12.9c-3.5,7.8-6.4,15.9-8.5,24.2c-0.6,2.9-1.5,5.7-2.8,8.3
		c-1.4,2.5-3.8,4.7-6.7,5.1c-3.7,0.4-7.1-2.2-9.3-5.3s-3.5-6.7-5.7-9.7s-5.7-5.6-9.4-4.9c-3.3,0.6-5.6,3.5-7.6,6.2
		c-5.3,7.4-9.9,15.4-13.7,23.7h183.2C626.8,149,620.4,137,617,128.6z"/>
	<rect x="494.9" y="163.9" class="st8" width="8.6" height="8.6"/>
	<path class="st5" d="M557.6,168.2h-45.1c-0.6,0-1-0.4-1-1l0,0c0-0.6,0.4-1,1-1h45.1c0.6,0,1,0.4,1,1l0,0
		C558.6,167.8,558.2,168.2,557.6,168.2z"/>
	<path class="st5" d="M627.3,151.9h-0.7h-1.9l-7.4,0.1l-27.4,0.1l-90.3,0.1H452h-0.2v-0.2c0-23.5,0.1-43.5,0.1-57.6
		c0-7.1,0-12.7,0.1-16.5c0-1.9,0-3.4,0-4.4c0-0.5,0-0.8,0-1.1s0-0.4,0-0.4s0,0.1,0,0.4s0,0.7,0,1.1c0,1,0,2.5,0,4.4
		c0,3.9,0,9.5,0.1,16.5c0,14.2,0,34.2,0.1,57.6l-0.2-0.2h47.6l90.3,0.1l27.4,0.1h7.4h1.9C627.1,151.9,627.3,151.9,627.3,151.9z"/>
	<g class="st7">
		<polygon class="st4" points="605.8,91.9 540.8,151.9 573.3,151.9 612.4,115.7 		"/>
	</g>
	<g class="st7">
		<polyline class="st4" points="548.5,120.8 512.7,151.9 503.5,151.9 545.8,115.7 549.4,121.9 		"/>
	</g>
	<path class="st5" d="M452,151.9c1.8-4.1,3.8-8.1,6-12c2.6-4.6,5.4-9,8.5-13.2c0.9-1.3,2.1-2.4,3.4-3.4c1.4-1.1,3.1-1.6,4.8-1.6
		c1.8,0.1,3.6,0.8,5,1.9c1.5,1.2,2.8,2.6,3.8,4.2c2.1,3.2,3.5,7.2,6.3,10.3c1.4,1.6,3.2,2.8,5.3,3.4c1,0.2,2.1,0.2,3.2,0
		c1.1-0.3,2.1-0.7,2.9-1.4c1.8-1.4,3.1-3.3,3.9-5.5c0.8-2.2,1.5-4.5,2-6.8c1.2-4.8,2.7-9.6,4.5-14.2c0.9-2.4,1.8-4.8,2.9-7.2
		c1-2.5,2.2-4.8,3.6-7.1c1.4-2.4,3.2-4.4,5.4-6.1c1.1-0.8,2.4-1.4,3.8-1.8c1.4-0.3,2.8-0.4,4.2-0.1c2.8,0.7,5.3,2.2,7.1,4.5
		c1.8,2.2,3.2,4.8,4,7.6c0.9,2.7,1.5,5.6,2.3,8.3c0.7,2.8,1.8,5.5,3.3,8c1.5,2.5,3.8,4.4,6.4,5.6c2.6,1.1,5.6,0.8,8.1-0.7
		c2.4-1.5,4.2-3.7,5.4-6.3c1.2-2.5,2.1-5.1,2.9-7.8c1.7-5.3,3.3-10.5,4.9-15.6c0.8-2.5,1.5-5.1,2.5-7.5c0.8-2.5,2-4.8,3.6-6.9
		c0.8-1,1.7-2,2.7-2.7c1-0.7,2.2-1.3,3.4-1.7c1.2-0.4,2.4-0.6,3.7-0.7c1.2-0.1,2.5,0,3.7,0.3c2.4,0.6,4.5,2,6,3.8
		c1.4,1.8,2.5,4,3.1,6.2c1.3,4.3,2.1,8.7,3.2,12.7c0.5,2,1.1,4,1.7,5.9s1.1,3.8,1.7,5.7c1.8,6.7,4.1,13.2,6.7,19.7
		c2,4.8,4.5,9.4,7.6,13.7c1.9,2.7,4.3,5,7,6.9c0.7,0.5,1.5,0.9,2.3,1.2l0.8,0.4l-0.8-0.3c-0.8-0.3-1.6-0.7-2.3-1.2
		c-2.8-1.9-5.2-4.2-7.1-6.9c-3.1-4.2-5.7-8.8-7.7-13.7c-2.6-6.4-4.9-13-6.8-19.7c-0.6-1.8-1.1-3.7-1.7-5.7s-1.2-3.9-1.7-5.9
		c-1.1-4.1-1.8-8.4-3.2-12.7c-0.6-2.2-1.6-4.2-3-6c-1.5-1.8-3.5-3.1-5.8-3.7c-1.2-0.3-2.4-0.3-3.5-0.3c-1.2,0.1-2.4,0.3-3.6,0.7
		c-2.4,0.8-4.4,2.3-5.9,4.3c-1.5,2.1-2.7,4.4-3.5,6.8c-0.9,2.4-1.6,5-2.4,7.5c-1.6,5.1-3.2,10.3-4.9,15.6c-0.8,2.7-1.7,5.3-2.9,7.9
		c-1.2,2.6-3.2,4.9-5.6,6.5c-2.6,1.6-5.7,1.9-8.5,0.7c-2.7-1.2-5.1-3.2-6.6-5.8c-1.6-2.5-2.7-5.3-3.4-8.1c-0.8-2.8-1.4-5.6-2.3-8.3
		c-0.8-2.7-2.1-5.2-3.8-7.4c-1.7-2.2-4.1-3.7-6.8-4.3c-1.3-0.2-2.7-0.2-4,0.1c-1.3,0.3-2.5,0.9-3.6,1.7c-2.1,1.6-3.9,3.6-5.3,5.9
		c-1.4,2.2-2.5,4.6-3.5,7c-1,2.4-2,4.8-2.9,7.2c-1.8,4.8-3.3,9.5-4.5,14.2c-0.5,2.3-1.2,4.6-2,6.9c-0.8,2.2-2.2,4.2-4,5.6
		c-0.9,0.7-2,1.2-3.1,1.5c-1.1,0.3-2.3,0.3-3.4,0c-2.1-0.6-4-1.8-5.4-3.5c-2.9-3.2-4.2-7.1-6.3-10.4c-1-1.6-2.2-3-3.7-4.1
		c-1.4-1.1-3.1-1.8-4.8-1.9c-1.7-0.1-3.3,0.5-4.6,1.5c-1.3,1-2.4,2.1-3.3,3.3c-3.1,4.2-6,8.6-8.6,13.1c-2.1,3.7-3.7,6.7-4.7,8.8
		l-1.1,2.3C452.2,151.6,452,151.9,452,151.9z"/>
</g>
<g id="freepik--chart-4--inject-14">
	<rect x="194.8" y="244.3" class="st4" width="179.2" height="107.7"/>
	<rect x="194.8" y="244.3" class="st0" width="179.2" height="16.6"/>
	<path class="st4" d="M207,252.6c0,1.3-1.1,2.4-2.4,2.4c-1.3,0-2.4-1.1-2.4-2.4c0-1.3,1.1-2.4,2.4-2.4c0,0,0,0,0,0
		C205.9,250.2,207,251.3,207,252.6z"/>
	<path class="st4" d="M215.1,252.6c0,1.3-1.1,2.4-2.4,2.4s-2.4-1.1-2.4-2.4c0-1.3,1.1-2.4,2.4-2.4c0,0,0,0,0,0
		C214,250.2,215.1,251.3,215.1,252.6C215.1,252.6,215.1,252.6,215.1,252.6z"/>
	<path class="st4" d="M223.1,252.6c0,1.3-1.1,2.4-2.4,2.4c-1.3,0-2.4-1.1-2.4-2.4c0-1.3,1.1-2.4,2.4-2.4c0,0,0,0,0,0
		C222,250.2,223.1,251.3,223.1,252.6z"/>
	<path class="st5" d="M374,352.1c0,0,0-0.7,0-2s0-3.2,0-5.6c0-5,0-12.2-0.1-21.6c0-18.7-0.1-45.6-0.1-78.6l0.2,0.2H194.8l0,0
		l0.3-0.3c0,38.2,0,74.6,0,107.7l-0.2-0.3l129,0.1l37,0.1h9.9h2.5h0.9h-3.4H361l-37,0.2l-129.1,0.1h-0.2v-0.2c0-33.1,0-69.6,0-107.7
		v-0.3h0.3l179.2,0.1h0.2v0.2c0,33-0.1,60-0.1,78.7c0,9.3,0,16.6-0.1,21.5c0,2.5,0,4.3,0,5.6S374,352.1,374,352.1z"/>
	<rect x="214.4" y="279" class="st8" width="7.6" height="55.8"/>
	<rect x="229.1" y="298" class="st8" width="7.6" height="36.8"/>
	<rect x="243.9" y="286" class="st8" width="7.6" height="49.1"/>
	<rect x="258.6" y="281.2" class="st8" width="7.6" height="53.6"/>
	<rect x="273.3" y="299.1" class="st8" width="7.6" height="35.7"/>
	<rect x="288" y="306.1" class="st8" width="7.6" height="28.7"/>
	<rect x="302.7" y="284.8" class="st8" width="7.6" height="50"/>
	<rect x="317.4" y="293.8" class="st8" width="7.6" height="41"/>
	<rect x="332.1" y="286.6" class="st8" width="7.6" height="48.2"/>
	<rect x="346.8" y="302" class="st8" width="7.6" height="32.9"/>
	<g class="st7">
		<rect x="229.1" y="298" class="st4" width="7.6" height="36.8"/>
	</g>
	<g class="st7">
		<rect x="258.6" y="281.2" class="st4" width="7.6" height="53.6"/>
	</g>
	<g class="st7">
		<rect x="288" y="306.1" class="st4" width="7.6" height="28.7"/>
	</g>
	<g class="st7">
		<rect x="317.4" y="293.8" class="st4" width="7.6" height="41"/>
	</g>
	<g class="st7">
		<rect x="346.8" y="302" class="st4" width="7.6" height="32.9"/>
	</g>
	<path class="st5" d="M365.4,334.8c0,0.1-35.5,0.3-79.2,0.3S207,335,207,334.8s35.4-0.3,79.2-0.3S365.4,334.7,365.4,334.8z"/>
</g>
<g id="freepik--chart-1--inject-14">
	<rect x="58" y="165.6" class="st4" width="95.5" height="95.5"/>
	<path class="st6" d="M107.8,220.8l26.3,0.4c-0.2,14-12,25.5-26.3,25.5h-0.2L107.8,220.8z"/>
	<path class="st8" d="M103.6,217l-0.4,25.8c-14.3-0.2-26-11.8-26-25.8s11.9-25.8,26.3-25.8s26.3,11.7,26.3,25.8H103.6z"/>
	<rect x="58" y="165.6" class="st0" width="95.4" height="18.8"/>
	<circle class="st4" cx="69.1" cy="175" r="2.7"/>
	<circle class="st4" cx="78.2" cy="175" r="2.7"/>
	<path class="st4" d="M90.1,175c0,1.5-1.2,2.7-2.7,2.7s-2.7-1.2-2.7-2.7c0-1.5,1.2-2.7,2.7-2.7S90.1,173.5,90.1,175L90.1,175z"/>
	<path class="st5" d="M153.5,261.1c0,0,0-0.2,0-0.5s0-0.8,0-1.3c0-1.2,0-2.9,0-5.1c0-4.5,0-11.1-0.1-19.4c0-16.7-0.1-40.6-0.1-69.2
		l0.2,0.2H58l0,0l0.3-0.3c0,35,0,67.8,0,95.5l-0.2-0.2l69.2,0.1l19.4,0.1h5.1h1.2h0.5h-1.7h-5.1l-19.4,0.1L58,261.3h-0.2v-0.2
		c0-27.8,0-60.5,0-95.5v-0.3H58h95.5h0.2v0.2c0,28.7-0.1,52.6-0.1,69.3c0,8.3-0.1,14.9-0.1,19.4c0,2.2,0,3.9,0,5.1c0,0.6,0,1,0,1.3
		S153.5,261.1,153.5,261.1z"/>
</g>
<g id="freepik--chart-2--inject-14">
	<rect x="126.5" y="34.4" class="st4" width="260.4" height="187.9"/>
	<path class="st2" d="M278.3,77H340c10.3,0,18.6,8.3,18.6,18.6v6.2c0,10.3-8.3,18.6-18.6,18.6h-61.7c-10.3,0-18.6-8.3-18.6-18.6
		v-6.2C259.8,85.3,268.1,77,278.3,77z"/>
	<path class="st3" d="M145.2,125.4c-0.3-22.3,17.6-40.5,39.8-40.8c22.3-0.3,40.5,17.6,40.8,39.8c0.3,22.2-17.5,40.4-39.6,40.7
		C163.8,165.5,145.5,147.7,145.2,125.4z M204.7,124.4c-0.2-10.6-9-19.1-19.7-18.9c-10.6,0.2-19.1,9-18.9,19.7
		c0.2,10.6,8.9,19,19.5,18.9C196.4,143.8,204.9,135.1,204.7,124.4L204.7,124.4z"/>
	<path class="st6" d="M145.2,125.4c-0.4-22.3,17.3-40.7,39.6-41.1l0.3,21.1c-10.7,0.2-19.2,9-19,19.7s9,19.2,19.7,19l0.3,21.1
		C163.8,165.5,145.5,147.7,145.2,125.4z"/>
	<path class="st9" d="M145.2,125.4c-0.3-22.3,17.6-40.5,39.8-40.8c22.3-0.3,40.5,17.6,40.8,39.8c0.3,22.2-17.5,40.4-39.6,40.7
		C163.8,165.5,145.5,147.7,145.2,125.4z M204.7,124.4c-0.2-10.6-9-19.1-19.7-18.9c-10.6,0.2-19.1,9-18.9,19.7
		c0.2,10.6,8.9,19,19.5,18.9C196.4,143.8,204.9,135.1,204.7,124.4L204.7,124.4z"/>
	<path class="st5" d="M204.7,124.4c0,0.1,0,0.2,0,0.3v0.9c0,0.5,0,1-0.1,1.5c-0.1,0.7-0.2,1.3-0.3,2c-0.4,1.8-1.1,3.6-2,5.2
		c-1.2,2.2-2.8,4.1-4.8,5.6c-5.2,4.2-12.1,5.4-18.4,3.2c-0.9-0.3-1.7-0.7-2.6-1.1c-0.8-0.4-1.6-1-2.4-1.5c-0.8-0.6-1.5-1.2-2.2-1.9
		c-0.7-0.7-1.3-1.5-1.9-2.2c-1.2-1.6-2.2-3.4-2.9-5.4c-0.7-2-1-4.1-1.1-6.2c0-2.1,0.3-4.2,0.9-6.2c0.6-1.9,1.5-3.8,2.7-5.4
		c1.1-1.6,2.5-3,4.1-4.2c0.7-0.6,1.5-1.1,2.3-1.5c0.8-0.4,1.7-0.8,2.5-1.2c8.7-3.3,18.6,0.1,23.5,8.1c1,1.6,1.7,3.3,2.2,5.2
		c0.2,0.7,0.3,1.3,0.4,2c0.1,0.5,0.1,1,0.1,1.5c0,0.4,0,0.7,0,0.9C204.7,124.2,204.7,124.3,204.7,124.4c-0.1-0.1-0.1-0.2-0.1-0.3
		c0-0.2-0.1-0.5-0.1-0.9c0-0.5-0.1-1-0.2-1.5c-0.1-0.7-0.3-1.3-0.4-2c-0.5-1.8-1.2-3.5-2.2-5.1c-1.3-2.1-3-3.9-5-5.3
		c-5.2-3.9-12-4.8-18.1-2.4c-1.7,0.6-3.3,1.6-4.8,2.7c-1.5,1.2-2.8,2.6-3.9,4.2c-1.2,1.6-2,3.4-2.6,5.3c-0.6,1.9-0.9,4-0.9,6
		c0.1,4,1.4,8,3.9,11.2c1.1,1.5,2.5,2.9,4.1,4c0.7,0.5,1.5,1,2.4,1.5c0.8,0.4,1.6,0.8,2.5,1.1c6.1,2.2,12.9,1,18-3
		c1.9-1.5,3.6-3.4,4.8-5.5c0.9-1.6,1.6-3.3,2.1-5.1c0.2-0.7,0.3-1.3,0.4-2c0.1-0.5,0.1-1,0.1-1.5c0-0.4,0.1-0.7,0.1-0.9
		C204.7,124.6,204.7,124.5,204.7,124.4z"/>
	<path class="st5" d="M145.2,125.4c0,0,0,0.2,0.1,0.7s0.1,1.1,0.1,1.9c0,0.4,0.1,0.9,0.1,1.4s0.2,1.1,0.3,1.7s0.2,1.3,0.3,2
		c0.1,0.7,0.3,1.5,0.6,2.2c1,3.8,2.6,7.3,4.6,10.6c2.7,4.4,6.2,8.2,10.4,11.3l1.8,1.3c0.6,0.4,1.3,0.8,1.9,1.1s1.3,0.8,2,1.1l2.1,1
		l1.1,0.5l1.1,0.4l2.3,0.8c0.8,0.3,1.6,0.4,2.4,0.6c0.8,0.2,1.6,0.4,2.4,0.5c1.7,0.3,3.4,0.5,5.1,0.5c0.9,0,1.7,0.1,2.6,0.1l2.6-0.2
		c0.4,0,0.9,0,1.3-0.1l1.3-0.2c0.9-0.2,1.8-0.3,2.7-0.5c3.7-0.9,7.2-2.3,10.5-4.1c0.8-0.5,1.6-1,2.5-1.5c0.8-0.5,1.6-1.1,2.4-1.7
		c1.6-1.2,3.1-2.6,4.5-4l2-2.3l0.5-0.6l0.4-0.6l0.9-1.3l0.9-1.3l0.8-1.3l0.8-1.3l0.4-0.7l0.3-0.7l1.3-2.9l1-3
		c2.6-8.3,2.5-17.1-0.4-25.3l-1.1-3c-0.5-0.9-0.9-1.9-1.4-2.8l-0.4-0.7l-0.4-0.7l-0.8-1.3l-0.8-1.3l-0.9-1.2l-0.9-1.2l-0.5-0.6
		l-0.5-0.6c-0.7-0.8-1.4-1.5-2.1-2.2c-1.4-1.4-3-2.6-4.6-3.8c-0.8-0.6-1.6-1.2-2.4-1.6c-0.8-0.5-1.7-1-2.5-1.5
		c-1.7-0.9-3.5-1.6-5.3-2.2c-1.8-0.6-3.5-1.1-5.4-1.5c-0.9-0.2-1.8-0.3-2.7-0.4l-1.4-0.2c-0.4-0.1-0.9,0-1.3-0.1l-2.7-0.1
		c-0.9,0-1.8,0.1-2.6,0.1c-1.7,0.1-3.4,0.3-5.1,0.7c-0.8,0.1-1.6,0.3-2.4,0.6c-0.8,0.2-1.6,0.4-2.4,0.7l-2.2,0.9l-1.1,0.4l-1.1,0.5
		l-2.1,1c-0.7,0.3-1.3,0.8-1.9,1.2s-1.3,0.8-1.9,1.2l-1.7,1.3c-4,3.2-7.4,7.1-10,11.6c-2,3.4-3.4,7-4.3,10.8
		c-0.2,0.7-0.4,1.5-0.5,2.2c-0.1,0.7-0.2,1.3-0.3,2s-0.2,1.2-0.2,1.7s0,1-0.1,1.4c0,0.8-0.1,1.5-0.1,1.9S145.2,125.3,145.2,125.4
		c0,0,0-0.3,0-0.7s0-1.1,0-1.9c0-0.4,0-0.9,0-1.4s0.1-1.1,0.2-1.7s0.2-1.3,0.3-2c0.1-0.8,0.3-1.5,0.5-2.2c0.8-3.8,2.3-7.5,4.2-10.9
		c2.5-4.5,5.9-8.5,10-11.8l1.7-1.3c0.6-0.4,1.3-0.8,1.9-1.2s1.3-0.8,1.9-1.2l2.1-1l1-0.5l1.1-0.4l2.3-0.9c0.8-0.3,1.6-0.5,2.4-0.7
		c0.8-0.3,1.6-0.5,2.4-0.6c1.7-0.3,3.4-0.6,5.1-0.7c0.9,0,1.8-0.2,2.6-0.2l2.7,0.1c0.4,0,0.9,0,1.4,0.1l1.4,0.2
		c0.9,0.1,1.8,0.2,2.7,0.4c1.8,0.4,3.7,0.9,5.4,1.5c1.9,0.6,3.7,1.4,5.5,2.3c0.9,0.5,1.7,1,2.6,1.5c0.9,0.5,1.7,1,2.5,1.7
		c1.6,1.2,3.2,2.5,4.7,3.9l2.1,2.2l0.5,0.6l0.5,0.6l0.9,1.2l1,1.2l0.8,1.3l0.8,1.3l0.4,0.7l0.4,0.7l1.4,2.8c0.4,1,0.8,2,1.1,3
		c2.9,8.3,3.1,17.3,0.4,25.6l-1,3c-0.4,1-0.9,1.9-1.3,2.9l-0.3,0.7l-0.4,0.7l-0.8,1.4l-0.8,1.4l-0.9,1.3l-0.9,1.3l-0.4,0.6l-0.5,0.6
		c-0.7,0.8-1.4,1.6-2,2.3c-1.4,1.4-2.9,2.8-4.5,4c-0.8,0.6-1.6,1.2-2.4,1.7c-0.8,0.5-1.6,1.1-2.5,1.6c-1.7,0.9-3.4,1.7-5.3,2.4
		c-1.8,0.7-3.6,1.2-5.4,1.7c-0.9,0.2-1.8,0.3-2.7,0.5l-1.4,0.2c-0.4,0.1-0.9,0.1-1.4,0.1l-2.7,0.2c-0.9,0-1.8,0-2.6-0.1
		c-1.7-0.1-3.4-0.2-5.1-0.5c-0.8-0.1-1.7-0.3-2.5-0.5c-0.8-0.2-1.6-0.4-2.4-0.6l-2.3-0.8l-1.1-0.4l-1.1-0.5l-2.1-1
		c-0.7-0.3-1.3-0.8-2-1.1s-1.3-0.8-1.9-1.1l-1.8-1.3c-4.2-3.1-7.8-6.9-10.5-11.3c-2.1-3.3-3.6-6.9-4.6-10.7
		c-0.2-0.7-0.4-1.5-0.5-2.3l-0.3-2c-0.1-0.6-0.2-1.2-0.3-1.7s-0.1-1-0.1-1.4c0-0.8-0.1-1.5-0.1-1.9S145.2,125.4,145.2,125.4z"/>
	<path class="st8" d="M181.2,81c26-0.4,46.7,19.8,47.1,45.9l-24.6,0.4c-0.2-12.5-9.7-20.3-22.1-20.1L181.2,81z"/>
	<path class="st5" d="M181.2,81c0,0,0,0.2,0,0.5s0,0.8,0,1.4c0,1.2,0.1,3,0.1,5.2c0.1,4.5,0.2,11,0.4,19l-0.2-0.2
		c2.5,0,5,0.3,7.4,0.9c2.7,0.7,5.1,1.9,7.3,3.6c2.4,1.8,4.3,4.1,5.6,6.8c1.4,2.8,2.1,5.9,2.1,9.1l-0.3-0.3l19-0.3l5.6-0.1l-0.3,0.3
		c-0.1-4.9-1-9.8-2.5-14.6l-1.1-3.3c-0.5-1.1-1-2.1-1.5-3.1c-0.5-1-1.1-2-1.7-3c-0.6-1-1.2-1.9-1.8-2.8c-0.7-0.9-1.3-1.7-2-2.6
		s-1.4-1.6-2.1-2.3l-1.1-1.1l-1.1-1l-2.2-2c-2.8-2.2-5.9-4.1-9.1-5.6l-2.2-1c-0.7-0.3-1.4-0.5-2.1-0.8l-2-0.7
		c-0.7-0.2-1.3-0.3-2-0.5l-1.8-0.4l-0.9-0.2l-0.9-0.1l-3-0.4c-0.8-0.1-1.6-0.2-2.4-0.2l-1.8-0.1l-1.1,0H181.2h1.4h1.8
		c0.8,0,1.6,0,2.4,0.1l3,0.4l0.9,0.1l0.9,0.2l1.9,0.4c0.6,0.2,1.3,0.3,2,0.5l2,0.7c0.7,0.3,1.4,0.5,2.2,0.8l2.2,1
		c3.3,1.5,6.4,3.4,9.2,5.6c0.7,0.7,1.5,1.3,2.2,2l1.1,1l1.1,1.1c0.7,0.8,1.4,1.5,2.1,2.3l2,2.6c0.7,0.9,1.3,1.8,1.9,2.8
		c0.6,1,1.2,2,1.7,3c0.5,1,1.1,2.1,1.5,3.2l1.3,3.3c1.6,4.8,2.4,9.7,2.6,14.7v0.3h-0.3l-5.6,0.1l-19,0.3h-0.3v-0.3
		c0-3.1-0.7-6.1-2-8.9c-1.3-2.6-3.1-4.9-5.4-6.6c-2.1-1.6-4.6-2.8-7.2-3.5c-2.4-0.6-4.8-1-7.3-0.9h-0.2v-0.2
		c-0.1-8-0.2-14.6-0.2-19.1c0-2.2,0-4,0-5.2v-1.3C181.2,81.2,181.2,81,181.2,81z"/>
	<rect x="126.5" y="34.4" class="st0" width="260.4" height="25.1"/>
	<path class="st5" d="M347,91.5h-73.2c-0.8,0-1.5-0.7-1.6-1.5l0,0c0-0.9,0.7-1.6,1.6-1.6H347c0.9,0,1.6,0.7,1.5,1.6l0,0
		C348.5,90.8,347.8,91.5,347,91.5z"/>
	<path class="st5" d="M347,99.8h-73.2c-0.9,0-1.6-0.7-1.6-1.6l0,0c0-0.9,0.7-1.6,1.5-1.6c0,0,0,0,0,0H347c0.9,0,1.6,0.7,1.6,1.6
		c0,0,0,0,0,0l0,0C348.6,99.1,347.9,99.8,347,99.8z"/>
	<path class="st5" d="M307.1,108.1h-33.3c-0.9,0-1.6-0.7-1.6-1.6l0,0c0-0.9,0.7-1.6,1.5-1.6c0,0,0,0,0,0h33.3c0.9,0,1.6,0.7,1.6,1.5
		c0,0,0,0,0,0l0,0C308.6,107.4,307.9,108.1,307.1,108.1C307.1,108.1,307.1,108.1,307.1,108.1z"/>
	<path class="st2" d="M278.3,130H340c10.3,0,18.6,8.3,18.6,18.6v6.2c0,10.3-8.3,18.6-18.6,18.6h-61.7c-10.3,0-18.6-8.3-18.6-18.6
		v-6.2C259.8,138.3,268.1,130,278.3,130z"/>
	<path class="st2" d="M349,200.4h-81.7c-4.7,0-8.6-3.8-8.6-8.6l0,0c0-4.7,3.8-8.6,8.6-8.6H349c4.7,0,8.6,3.8,8.6,8.6l0,0
		C357.6,196.5,353.7,200.4,349,200.4C349,200.4,349,200.4,349,200.4z"/>
	<path class="st5" d="M346.5,144.9h-73.2c-0.9,0-1.6-0.7-1.6-1.6l0,0c0-0.9,0.7-1.6,1.6-1.6h73.2c0.9,0,1.6,0.7,1.6,1.6l0,0
		C348.1,144.2,347.4,144.9,346.5,144.9z"/>
	<path class="st5" d="M343.4,193.5h-73.2c-0.9,0-1.6-0.7-1.6-1.6l0,0c0-0.9,0.7-1.6,1.6-1.6h73.2c0.9,0,1.6,0.6,1.6,1.5
		c0,0,0,0.1,0,0.1l0,0C345,192.9,344.3,193.5,343.4,193.5C343.4,193.5,343.4,193.5,343.4,193.5z"/>
	<path class="st5" d="M346.5,153.2h-73.2c-0.9,0-1.6-0.7-1.6-1.6l0,0c0-0.9,0.7-1.6,1.6-1.6h73.2c0.9,0,1.6,0.7,1.6,1.6l0,0
		C348.1,152.5,347.4,153.2,346.5,153.2z"/>
	<path class="st5" d="M306.6,161.5h-33.3c-0.9,0-1.6-0.7-1.6-1.6l0,0c0-0.9,0.7-1.6,1.6-1.6h33.3c0.9,0,1.6,0.7,1.6,1.6l0,0
		C308.1,160.8,307.4,161.5,306.6,161.5L306.6,161.5z"/>
	<path class="st5" d="M254.6,86.3c-0.5,0.1-0.9,0.1-1.4,0.1l-3.7,0.1c-3.1,0-7.5,0.1-12.3,0.1h-5.6l0.2-0.1
		c-2.4,2.4-4.6,4.5-6.1,5.9L224,94c-0.2,0.2-0.4,0.4-0.7,0.6c0.2-0.2,0.3-0.5,0.6-0.7l1.7-1.8c1.4-1.5,3.5-3.6,5.9-6.1l0.1-0.1h5.7
		c4.8,0,9.2,0,12.3,0.1l3.7,0.1C253.8,86.1,254.2,86.2,254.6,86.3z"/>
	<circle class="st5" cx="253.6" cy="86.3" r="2.1"/>
	<circle class="st5" cx="253.6" cy="148.8" r="2.1"/>
	<path class="st5" d="M252.2,149.2c-1.2,0.1-2.3,0.2-3.5,0.1c-2.2,0-5.1,0-8.4,0l-8.4-0.1l-2.6-0.1c-0.3,0-0.6,0-0.9,0
		c1.1-0.2,2.3-0.3,3.5-0.3c2.2-0.1,5.1-0.1,8.4-0.1s6.3,0.1,8.4,0.1C249.9,149,251,149,252.2,149.2z"/>
	<rect x="158.2" y="194.9" class="st6" width="6.8" height="6.8"/>
	<rect x="181.1" y="194.9" class="st0" width="6.8" height="6.8"/>
	<rect x="205.9" y="194.9" class="st8" width="6.8" height="6.8"/>
	<path class="st4" d="M144.3,46.9c-0.1,1.9-1.7,3.4-3.6,3.3c-1.9-0.1-3.4-1.7-3.3-3.6c0.1-1.9,1.6-3.3,3.5-3.3
		C142.7,43.4,144.3,45,144.3,46.9C144.3,46.9,144.3,46.9,144.3,46.9z"/>
	<path class="st4" d="M156,46.9c-0.1,1.9-1.7,3.4-3.6,3.3c-1.9-0.1-3.4-1.7-3.3-3.6c0.1-1.9,1.6-3.3,3.5-3.3
		C154.5,43.4,156,45,156,46.9C156,46.9,156,46.9,156,46.9z"/>
	<path class="st4" d="M167.6,46.9c-0.1,1.9-1.7,3.4-3.6,3.3c-1.9-0.1-3.4-1.7-3.3-3.6c0.1-1.9,1.6-3.3,3.5-3.3
		C166.1,43.4,167.7,45,167.6,46.9C167.6,46.9,167.6,46.9,167.6,46.9z"/>
	<path class="st5" d="M387,222.3c0-1.8-0.1-73.9-0.2-187.9l0.2,0.2H126.6l0,0l0.3-0.3c0,67.4,0,131.2,0,187.9l-0.2-0.2L387,222.3
		l-260.4,0.2h-0.2v-0.2c0-56.7,0-120.6,0-187.9v-0.3h0.3h260.4h0.2v0.2C387,148.4,387,220.6,387,222.3z"/>
</g>
<g id="freepik--chart-3--inject-14">
	<rect x="308.7" y="158.2" class="st4" width="185.5" height="138.7"/>
	<rect x="308.1" y="158.2" class="st0" width="185.5" height="17.1"/>
	<circle class="st4" cx="318.3" cy="166.8" r="2.5"/>
	<circle class="st4" cx="326.6" cy="166.8" r="2.5"/>
	<circle class="st4" cx="334.9" cy="166.8" r="2.5"/>
	<path class="st5" d="M493.6,296.9c0,0,0-0.9,0-2.5s0-4.1,0-7.4c0-6.5,0-15.9,0-28c0-24.2-0.1-58.8-0.1-100.7l0.2,0.2l-185.5,0.1
		l0,0l0.3-0.3c0,49.8,0,97,0,138.7l-0.2-0.2l133.9,0.1l38,0.1h10.1h2.6L493.6,296.9l-3.4,0h-10l-38,0.1l-134,0.1H308v-0.2
		c0-41.6,0-88.8,0-138.7V158h0.3h185.5h0.2v0.2c0,42-0.1,76.7-0.1,100.9c0,12.1,0,21.5,0,28c0,3.2,0,5.7,0,7.3
		S493.6,296.9,493.6,296.9z"/>
	<path class="st0" d="M483.4,241.8c0,0.1-36.9,0.3-82.4,0.3s-82.5-0.1-82.5-0.3s36.9-0.3,82.5-0.3S483.4,241.6,483.4,241.8z"/>
	<path class="st0" d="M483.4,227.6c0,0.1-36.9,0.3-82.4,0.3s-82.5-0.1-82.5-0.3s36.9-0.3,82.5-0.3S483.4,227.4,483.4,227.6z"/>
	<path class="st0" d="M483.4,213.3c0,0.1-36.9,0.3-82.4,0.3s-82.5-0.1-82.5-0.3s36.9-0.3,82.5-0.3S483.4,213.2,483.4,213.3z"/>
	<path class="st0" d="M483.4,199.1c0,0.1-36.9,0.3-82.4,0.3s-82.5-0.1-82.5-0.3s36.9-0.3,82.5-0.3S483.4,198.9,483.4,199.1z"/>
	<rect x="332.5" y="235.3" class="st8" width="13.7" height="27.6"/>
	<rect x="381.7" y="235.3" class="st6" width="13.7" height="27.6"/>
	<rect x="456.4" y="244.7" class="st6" width="13.7" height="18.2"/>
	<rect x="430.9" y="222.3" class="st0" width="13.7" height="40.7"/>
	<rect x="405.8" y="206.4" class="st8" width="13.7" height="56.5"/>
	<rect x="356.1" y="222.3" class="st0" width="13.7" height="40.7"/>
	<path class="st5" d="M481.4,262.9h-0.6H479h-6.9l-25.5,0.1l-84,0.1h-44.3H318v-0.2c0-21.9,0.1-40.5,0.1-53.7c0-6.6,0-11.8,0.1-15.4
		c0-1.8,0-3.1,0-4.1c0-0.4,0-0.8,0-1.1c0-0.1,0-0.2,0-0.4c0,0,0,0.1,0,0.4v1.1c0,0.9,0,2.3,0,4.1c0,3.6,0,8.8,0.1,15.4
		c0,13.2,0.1,31.8,0.1,53.7l-0.2-0.3h44.5l84,0.1l25.5,0.1l6.9,0h1.8L481.4,262.9z"/>
	<rect x="347.1" y="276.9" class="st8" width="6" height="6"/>
	<rect x="384" y="276.7" class="st0" width="6" height="6"/>
	<rect x="423.8" y="276.9" class="st6" width="6" height="6"/>
	<path class="st5" d="M373.1,279.7c-2.7,0.3-5.5,0.4-8.2,0.3c-2.7,0.1-5.5,0-8.2-0.3c2.7-0.3,5.5-0.3,8.2-0.3
		C367.6,279.4,370.4,279.5,373.1,279.7z"/>
	<path class="st5" d="M409.7,279.7c-2.7,0.3-5.5,0.4-8.2,0.3c-2.7,0.1-5.5,0-8.2-0.3c2.7-0.3,5.5-0.3,8.2-0.3
		C404.2,279.4,406.9,279.5,409.7,279.7z"/>
	<path class="st5" d="M448.6,279.7c-5.5,0.3-10.9,0.3-16.4,0C437.6,279.4,443.1,279.4,448.6,279.7z"/>
</g>
<g id="freepik--user-icon--inject-14">
	<rect x="404.5" y="114.9" class="st4" width="64.1" height="64.1"/>
	<path class="st5" d="M468.6,179c0,0,0-0.1,0-0.3s0-0.5,0-0.9c0-0.8,0-1.9,0-3.4c0-3,0-7.4-0.1-13.1c0-11.2-0.1-27.2-0.1-46.4
		l0.2,0.2h-64.1l0,0l0.3-0.3c0,23.5,0,45.5,0,64.1l-0.2-0.2l46.4,0.1l13,0.1h3.5h0.9h-0.9L464,179l-13,0.1l-46.5,0.1h-0.2V179
		c0-18.6,0-40.6,0-64.1v-0.3h0.3h64.1h0.2v0.2c0,19.2-0.1,35.3-0.1,46.5c0,5.6,0,10-0.1,13c0,1.5,0,2.6,0,3.4c0,0.4,0,0.7,0,0.9
		C468.6,178.8,468.6,178.9,468.6,179z"/>
	<path class="st8" d="M440.2,147.1c3.8-1.7,6.2-5.4,6.2-9.6c0-5.7-4.3-10.3-9.6-10.4s-9.7,4.6-9.7,10.3c-0.1,4.2,2.4,8,6.2,9.6
		c-14.9,2.2-14.2,18.4-14.2,18.4l35.3,0.2C454.2,165.7,455,149.3,440.2,147.1z"/>
</g>
<g id="freepik--Character--inject-14">
	<path class="st5" d="M573,115.3c-0.5-0.5-1.1-0.7-1.7-0.7c-1.8-0.2-3.7,0.1-5.3,1c2.4-2.5,2.8-6.3,1.1-9.3
		c-1.9-2.9-5.3-4.4-8.7-3.9c-3.4,0.6-6.2,2.8-7.6,6c-1.3,3.2-1.1,6.7,0.4,9.8l5.6,1.5c2.6,1.7,5.6,2.7,8.7,2.7
		c1.3,0.1,2.5-0.3,3.5-1.1c0.8-0.9,0.7-2.7-0.5-3.1c1.1,0.4,2.3,0.4,3.5,0C573.1,117.7,573.8,116.2,573,115.3z"/>
	<path class="st5" d="M544.2,108c-3.5-1.1-7.2-0.7-10.5,1c-2.7-3.5-7.8-4.1-11.3-1.4c-1.2,0.9-2.1,2.1-2.6,3.5
		c-3.5-1.4-7.5,0.2-8.9,3.7c-1.2,2.8-0.3,6.1,2.1,8c-4.5,1.9-6.6,7-4.7,11.5c0.3,0.7,0.6,1.3,1.1,1.9c-2.6,1.3-3.1,4.8-2.7,7.7
		s1.2,6-0.1,8.6c-1,2-3.1,3.3-4.5,5s-1.9,4.8,0,6c-3.3,0.6-5.5,3.8-4.9,7.1s3.8,5.5,7.1,4.9c-1,2.4-0.7,5.1,0.8,7.2
		c1.5,2.1,3.6,3.6,6,4.4c7,2.4,14.8,0.2,19.6-5.5l21.6-66.7C550.6,111.5,547.7,109.1,544.2,108z"/>
	<path class="st10" d="M554.5,126.4l0.3-3.6l-21.4-5.4c-6.6-1.1-14.3,5.2-15.1,11.8c-0.9,7.4-1.7,16.5-1.2,22.1
		c1.1,11.3,9.6,13.2,9.6,13.2l-0.7,11.1l24.7,1.8L554.5,126.4z"/>
	<path class="st5" d="M520.9,139.1c-0.1,0.8,0.5,1.5,1.3,1.5c0.7,0.1,1.4-0.4,1.5-1.1c0,0,0,0,0-0.1c0.1-0.8-0.5-1.5-1.3-1.5
		C521.7,137.8,521,138.3,520.9,139.1C520.9,139.1,520.9,139.1,520.9,139.1z"/>
	<path class="st5" d="M520.3,134.1c0.2,0.2,1.3-0.5,2.8-0.4s2.6,0.9,2.8,0.8s-0.1-0.4-0.5-0.8c-0.6-0.5-1.4-0.8-2.2-0.8
		c-0.8-0.1-1.6,0.2-2.3,0.6C520.5,133.7,520.3,134,520.3,134.1z"/>
	<path class="st5" d="M534.9,139.9c-0.1,0.8,0.5,1.5,1.3,1.5c0.7,0.1,1.4-0.4,1.5-1.1c0,0,0,0,0-0.1c0.1-0.8-0.5-1.5-1.3-1.5
		C535.7,138.6,535,139.1,534.9,139.9C534.9,139.9,534.9,139.9,534.9,139.9z"/>
	<path class="st5" d="M535.5,135.3c0.2,0.2,1.3-0.5,2.8-0.4s2.6,0.9,2.8,0.8s-0.1-0.4-0.5-0.8c-0.6-0.5-1.4-0.8-2.2-0.8
		c-0.8-0.1-1.6,0.2-2.3,0.6C535.6,134.9,535.4,135.2,535.5,135.3z"/>
	<path class="st5" d="M529.2,146.4c-0.8-0.3-1.6-0.5-2.5-0.6c-0.4-0.1-0.8-0.2-0.8-0.4c0-0.4,0.1-0.8,0.3-1.1l1.3-2.9
		c1.9-4.2,3.3-7.6,3.1-7.7s-1.8,3.3-3.7,7.4c-0.5,1-0.9,2-1.3,2.9c-0.3,0.5-0.4,1-0.3,1.5c0.1,0.3,0.3,0.5,0.6,0.6
		c0.2,0.1,0.4,0.1,0.7,0.1C527.5,146.4,528.4,146.5,529.2,146.4z"/>
	<path class="st11" d="M526.7,164.6c5.4,0.4,10.8-0.7,15.6-3.1c0,0-4.3,7.6-15.7,5.9L526.7,164.6z"/>
	<path class="st5" d="M535.8,130c0.2,0.4,1.7,0.2,3.5,0.4s3.3,0.7,3.5,0.3c0.1-0.2-0.2-0.6-0.7-1c-0.8-0.5-1.7-0.8-2.6-0.9
		c-0.9-0.1-1.9,0-2.8,0.3C536.1,129.5,535.8,129.8,535.8,130z"/>
	<path class="st5" d="M520.7,130.3c0.2,0.4,1.3,0.1,2.6,0.1s2.3,0.4,2.6,0c0.1-0.2,0-0.5-0.5-0.9c-1.2-0.9-2.9-1-4.2-0.2
		C520.8,129.8,520.6,130.1,520.7,130.3z"/>
	<path class="st5" d="M518.3,121.2c2.5-3.3,6.1-5.7,10.2-6.7l18.1,2.3h1.5c0.3-1.1,2.3-1.7,2.3-1.7c1.7-1.3,7.6-1.4,11.7,2.9
		c1.5,1.5,2.5,5.4,2.6,7.6c0,0.8-0.8,1.9-0.2,2.4c0.8,0.1,1.6,0.2,2.5,0.2c4.6,1,7.5,5.1,6.6,11.2c-0.1,0.3-0.1,0.6-0.1,0.9
		c0.1,0.5,0.4,0.9,0.8,1.2c2.2,2.4,2.7,5.9,1.3,8.9c-0.6,0.8-1,1.7-1.2,2.7c-0.3,1.7,1,3.3,2,4.8c3,4.4,3.6,10.7,0.1,14.7
		c-0.8,1-1.9,1.8-2.2,3.1c-0.1,0.6-0.1,1.3-0.1,1.9c0,3.2-1.7,6.7-4.8,7.4c-1.7,0.4-3.8-0.1-5.1,1.1c-0.5,0.6-0.8,1.3-1.1,2
		c-1.4,2.7-4.5,4-7.4,3.2c-2.8-0.9-3.7-12.3-3.3-15.2c-3.4-1.2-5.9-1.4-5.8-5.1c0,0,0.5-6.2-0.5-9.3s1-9.5,2.2-12.6
		s-0.2-10.4-0.5-13.3c0-0.8,0.1-1.7,0.2-2.5l0,0c0.1-0.7,0.3-1.5,0.5-2.4s0.7-5,0.7-5.8c0-2.7-3.5-1.3-6-0.4c-0.6,0.2-1.3,0.3-2,0.3
		c-2.2,0-4.2-0.9-5.6-2.7c-2.5,2.6-6.3,3.7-9.9,2.7c-1.3,2-2.9,3.8-4.7,5.4c-1.8,1.6-4.2,2.4-6.6,2.3
		C514.5,128.6,515.8,124.5,518.3,121.2z"/>
	<path class="st11" d="M530.3,150.1c0.6-0.8,1.5-1.2,2.4-1.1c0.7,0,1.3,0.3,1.8,0.8c0.4,0.5,0.5,1.2,0.2,1.8c-0.5,0.6-1.2,0.8-2,0.6
		c-0.7-0.2-1.4-0.6-2-1.1c-0.2-0.1-0.3-0.3-0.5-0.4C530.2,150.6,530.2,150.4,530.3,150.1"/>
	<path class="st5" d="M534,147.4c-0.3,0-0.2,1.6-1.5,2.9s-3.1,1.1-3.1,1.4s0.4,0.3,1.2,0.3c1,0,1.9-0.4,2.6-1
		c0.7-0.6,1.1-1.5,1.2-2.4C534.3,147.8,534.1,147.4,534,147.4z"/>
	<path class="st6" d="M499.7,441.5l2,21.2c0,0-23.1,8.6-23.4,12.9l43.7,0.1v-3.2l-1.8-10.9l-2.7-21.2L499.7,441.5z"/>
	<path class="st0" d="M514.9,459.4c0.9,0.3,1.4,1.2,1.3,2.1c-0.2,0.9-1.1,1.4-2,1.3c-0.9-0.3-1.5-1.2-1.3-2.2
		c0.3-0.9,1.4-1.4,2.3-1.1"/>
	<path class="st5" d="M522,475.7v-3.2l-41.9,0.8c0,0-2,0.9-1.8,2.3L522,475.7z"/>
	<path class="st5" d="M501,462.5c0,0.2,1.1,0.3,2.2,1s1.6,1.6,1.9,1.5s-0.1-1.4-1.5-2.2S501,462.3,501,462.5z"/>
	<path class="st5" d="M496.3,464.4c0,0.2,0.9,0.6,1.6,1.5s1,1.9,1.2,1.9s0.4-1.3-0.6-2.4S496.3,464.2,496.3,464.4z"/>
	<path class="st5" d="M493.7,470c0.2,0,0.5-1-0.1-2.2s-1.6-1.7-1.7-1.5s0.5,0.8,1,1.8S493.5,470,493.7,470z"/>
	<path class="st5" d="M499.5,457.4c0.1,0.2,1.1-0.1,2.3,0s2.2,0.5,2.3,0.3s-0.8-1-2.3-1S499.4,457.2,499.5,457.4z"/>
	<path class="st6" d="M553.3,442.1l1.9,20.8c0,0-22.7,8.3-23,12.5l42.9,0.4v-3.1l-1.8-10.7l-2.5-20.8L553.3,442.1z"/>
	<path class="st0" d="M568.2,459.8c0.9,0.3,1.4,1.2,1.2,2c-0.2,0.9-1.1,1.4-2,1.2c-0.9-0.3-1.5-1.2-1.3-2.2c0.3-0.9,1.3-1.4,2.3-1"
		/>
	<path class="st5" d="M575.1,475.8v-3.1l-41.2,0.5c0,0-2,0.8-1.7,2.2L575.1,475.8z"/>
	<path class="st5" d="M554.5,462.7c0,0.2,1.1,0.3,2.1,1s1.6,1.6,1.8,1.5s-0.1-1.3-1.4-2.1S554.5,462.5,554.5,462.7z"/>
	<path class="st5" d="M549.9,464.6c0,0.2,0.9,0.6,1.6,1.5s0.9,1.9,1.2,1.9s0.3-1.2-0.6-2.3S549.9,464.4,549.9,464.6z"/>
	<path class="st5" d="M547.3,470.1c0.2,0,0.5-1,0-2.2s-1.5-1.6-1.6-1.5s0.5,0.8,1,1.8S547,470.1,547.3,470.1z"/>
	<path class="st5" d="M553,457.7c0.1,0.2,1.1-0.1,2.3,0s2.2,0.5,2.3,0.3s-0.8-1-2.2-1S552.9,457.5,553,457.7z"/>
	<path class="st5" d="M498.8,257.2c0,0-10.4,30-10.7,52.3s-0.7,57.8,3.9,96.9s6.8,54.8,6.8,54.8h23.5c1.5-15.4,2.2-30.9,2.2-46.4
		c-0.4-21.9-2.1-28.9,0-53s5.4-38.6,9-45.9c0,0,9.7-11.6,10.4-27.4c0.3-10-1.3-20-4.8-29.4L498.8,257.2z"/>
	<path class="st5" d="M519.7,299.3c0.4,1.2,7.4,50.4,12.5,72s10.8,27.4,11.8,45c1.1,20.3,6.7,44.9,6.7,44.9h25.1
		c0,0-3.5-37.5-7-66.8s-8.6-65.4-7.8-76.3s2.7-24.2,0-39.4s-8.7-19.2-8.7-19.2l-21.3-1L519.7,299.3z"/>
	<path class="st6" d="M543.3,271.2c0.1,0.2,0.3,0.5,0.4,0.8c0.3,0.7,0.6,1.5,0.8,2.3c0.7,2.9,1,6,0.8,9c-0.2,4.5-0.9,8.9-2.1,13.2
		c-0.7,2.6-1.6,5.1-2.7,7.4c-1.3,2.5-2.8,4.9-4.5,7.2c-3.4,4.7-5.1,10-6.4,14.9c-1.1,4.3-1.9,8.7-2.4,13.1c-0.5,3.8-0.7,6.8-1,9
		c-0.1,1-0.2,1.8-0.3,2.4c0,0.3-0.1,0.6-0.1,0.9c0-0.3,0-0.6,0-0.9c0-0.6,0.1-1.4,0.1-2.5c0.2-2.1,0.4-5.2,0.8-9
		c0.5-4.4,1.2-8.8,2.3-13.2c0.6-2.6,1.4-5.1,2.4-7.6c0.5-1.3,1.1-2.6,1.8-3.8c0.7-1.3,1.5-2.5,2.3-3.7c1.7-2.3,3.2-4.6,4.5-7.1
		c1.1-2.4,2.1-4.8,2.7-7.3c1.2-4.3,1.9-8.7,2.2-13.1c0.2-3,0-6-0.7-8.9c-0.2-0.8-0.4-1.6-0.8-2.3
		C543.5,271.7,543.4,271.4,543.3,271.2z"/>
	<path class="st10" d="M443.6,196c4.3,2.6,12.1,5,12.1,5l8.8-7c0,0-6.3-11.4-8.3-14.7c-0.7-1.1-1.2-2.2-1.6-3.5
		c-0.7-2.4-2.5-1.4-2.8,0.5c0,1.1,0.2,2.1,0.5,3.1c0.5,1.2,0.7,2.4,0.6,3.7c0,0-0.6-0.5-2.2-1.6s-7.5-6-10-8c-3.7-3-5.5-1.1-5,0
		c0.6,1.4,9.7,7.8,9.4,8.9c0,0-1.8,1-2,2.1c-0.1,0.7-0.1,1.5,0,2.3c0,0-1.6,0.2-2.1,1.2c-0.2,0.8-0.2,1.7,0.1,2.5c0,0-1.5,0.1-1.7,1
		S440.3,194.1,443.6,196z"/>
	<path class="st8" d="M463,190.9c0.1,0.4,18.8,19.5,18.8,19.5s15.6-17.5,20.3-24s11.9-14.4,18.1-15.8s14.8,2.5,14.8,2.5l-11,22.5
		l-13.8,19c0,0-14.9,18.8-22,21.7s-14.1-1.3-17.1-4.4s-21-30.4-21-30.4L463,190.9z"/>
	<path class="st8" d="M566.9,178l-42.9-7.4c0,0-11.9,21-16.4,43s-9.5,44.1-9.5,44.1l39.6,4.9c4.1,0.5,8.3,0.5,12.4-0.2l4.1-0.6
		l-3.4-14c5.7-14.1,9.8-26.2,12.3-36.2C568.4,189.9,566.9,178,566.9,178z"/>
	<path class="st5" d="M523,199c-0.2,0.3-0.4,0.6-0.7,0.9c-0.5,0.7-1.2,1.5-2,2.4c-1.7,2.1-4,5-6.6,8.2s-4.9,6.1-6.7,8.1
		c-0.9,1-1.6,1.8-2.1,2.4c-0.2,0.3-0.5,0.6-0.9,0.8c0.2-0.3,0.4-0.7,0.7-0.9l2-2.5c1.7-2.1,4-5,6.6-8.2c2.5-3.2,4.9-6.1,6.7-8.1
		c0.9-1,1.6-1.8,2.2-2.4C522.4,199.5,522.7,199.2,523,199z"/>
	<path class="st5" d="M550.2,248.4c-0.9,0.4-1.8,0.6-2.7,0.8c-4.4,0.9-9,1.1-13.5,0.5c-0.9-0.1-1.9-0.3-2.7-0.6
		c0.9,0,1.9,0.1,2.8,0.2c2.2,0.2,4.5,0.2,6.7,0.2c2.2-0.1,4.5-0.3,6.7-0.7C548.4,248.6,549.3,248.4,550.2,248.4z"/>
	<path class="st5" d="M481.4,221.7c-0.2-1.8-0.3-3.6-0.2-5.4c-0.1-1.8,0.1-3.6,0.3-5.4c0.2,1.8,0.3,3.6,0.2,5.4
		C481.8,218.1,481.7,219.9,481.4,221.7z"/>
	<g class="st7">
		<path d="M565.5,182.9l-26.8-2.4c-0.9,2.3,0.3,4.9,2.6,5.8c0.1,0,0.2,0.1,0.2,0.1c-2.4,4.2-0.9,9.5,3.3,11.8c1.1,0.6,2.4,1,3.6,1.1
			c0.7,0,1.4,0.1,2.1,0.3c1.5,0.5,2.2,2.2,3.1,3.5c1.2,1.8,2.9,3,5,3.5c2.1,0.4,4.2-0.3,5.6-1.9c1.3-1.6,1.5-3.8,1.6-5.9
			C566.2,193.4,566.1,188.1,565.5,182.9z"/>
	</g>
	<g class="st7">
		<path d="M506,219.9c9.1-1.9,15.5-10.1,15.2-19.4C515.5,206.6,510.8,214.4,506,219.9z"/>
	</g>
	<path class="st5" d="M571.7,166.3l-22.9-25.5c0.8,6.5-1.6,12.9-4.5,18.7c-1.7,3.3-3.5,7.3-1.8,10.5c-1.5,1.5-2.8,3.3-3.8,5.2
		c-1,1.9-1.1,4.2-0.2,6.2c0.9,2,3.2,3,5.3,2.4c-1.3,3.6,0.6,7.6,4.2,8.9c1.8,0.6,3.7,0.5,5.4-0.3c0.6,2.7,2.1,5,4.3,6.7
		c2.3,1.6,5.2,1.8,7.7,0.5c2.4-1.4,3.4-4.4,2.3-7c5-1.1,8.2-6.5,8.3-11.7S573.9,171,571.7,166.3z"/>
	<path class="st6" d="M524.3,124.3c-0.1,0.1-0.2,0.1-0.4,0.2c-0.4,0.1-0.8,0.1-1.2,0.1c-1.5-0.2-2.8-1.1-3.5-2.4
		c-0.5-0.9-0.7-2-0.5-3c0.2-1.1,0.8-2.2,1.6-3c0.9-0.9,2-1.6,3.3-1.9c1.3-0.3,2.7-0.3,4.1,0c0.8,0.2,1.5,0.4,2.2,0.8l-0.3,0.1
		c0.9-2.2,2.6-4,4.8-4.9c1.7-0.8,3.7-1,5.5-0.6c1.2,0.3,2.4,0.8,3.4,1.5c0.3,0.2,0.5,0.4,0.8,0.6c0.2,0.2,0.2,0.3,0.2,0.3
		s-0.4-0.3-1.1-0.8c-1-0.7-2.2-1.1-3.4-1.3c-1.8-0.3-3.6-0.1-5.3,0.7c-2,1-3.6,2.6-4.5,4.7l-0.1,0.3l-0.3-0.1
		c-0.7-0.3-1.4-0.6-2.1-0.8c-1.3-0.3-2.6-0.3-3.8,0c-1.2,0.3-2.2,0.9-3,1.7c-0.8,0.8-1.3,1.7-1.5,2.8c-0.2,0.9,0,1.9,0.4,2.7
		c0.6,1.2,1.8,2.1,3.2,2.4C523.3,124.5,523.9,124.4,524.3,124.3z"/>
	<path class="st6" d="M572.8,140.4c0,0,0.2-0.5,0.4-1.4c0.3-1.2,0.4-2.5,0.2-3.8c-0.3-1.9-1.2-3.7-2.7-4.9c-1.8-1.6-4.2-2.4-6.5-2.1
		h-0.4l0.1-0.4c0.2-0.8,0.4-1.6,0.4-2.3c0.1-2.7-0.8-5.3-2.5-7.4c-1.4-1.7-3.4-2.8-5.5-3.3c-1.4-0.3-2.9-0.4-4.4-0.1
		c-1,0.2-1.6,0.4-1.6,0.3c0.1-0.1,0.3-0.1,0.4-0.2c0.4-0.1,0.8-0.3,1.2-0.4c3.8-0.8,7.7,0.4,10.3,3.3c1.8,2.1,2.8,4.9,2.6,7.7
		c0,0.8-0.2,1.7-0.4,2.5l-0.3-0.3c2.5-0.2,5,0.6,6.9,2.3c1.5,1.4,2.5,3.2,2.7,5.2c0.2,1.3,0.1,2.7-0.4,3.9c-0.1,0.3-0.2,0.7-0.4,1
		C572.9,140.3,572.9,140.4,572.8,140.4z"/>
	<path class="st6" d="M537.1,123.5c-0.2-0.1-0.5-0.2-0.6-0.4c-0.5-0.4-0.9-1-1.2-1.6c-0.4-0.9-0.6-2-0.4-3c0.2-1.2,0.8-2.4,1.8-3.2
		c0.9-0.8,2.1-1.4,3.3-1.6c1.7-0.2,3.4,0.1,4.8,1c0.4,0.3,0.6,0.4,0.6,0.5c-0.8-0.4-1.6-0.7-2.5-0.9c-0.9-0.2-1.9-0.2-2.8-0.1
		c-1.1,0.2-2.2,0.7-3,1.5c-0.9,0.8-1.4,1.8-1.7,2.9c-0.2,0.9-0.1,1.9,0.3,2.8C536,122.2,536.5,122.9,537.1,123.5z"/>
	<path class="st6" d="M551,184c-0.1,0-0.2-0.1-0.3-0.2c-0.3-0.2-0.6-0.4-0.8-0.7c-2.4-2.4-3.2-5.9-2.3-9.2c0.7-2.3,2.4-4.3,4.5-5.5
		c0.9-0.5,1.8-0.8,2.8-1l-0.2,0.4c-1.4-1.6-2-3.8-1.7-5.9c0.2-1.7,1.1-3.2,2.4-4.3c0.8-0.7,1.8-1.2,2.9-1.5c0.3-0.1,0.6-0.1,0.9-0.1
		c0.2,0,0.3,0,0.3,0s-0.4,0.1-1.1,0.3c-1,0.3-2,0.8-2.7,1.6c-1.2,1-2,2.5-2.2,4.1c-0.2,2,0.4,3.9,1.7,5.4l0.3,0.3l-0.5,0.1
		c-0.9,0.2-1.8,0.5-2.7,1c-2,1.1-3.6,3-4.3,5.2c-0.6,1.8-0.5,3.8,0.1,5.6c0.4,1.2,1.1,2.3,1.9,3.3C550.6,183.6,551,183.9,551,184z"
		/>
	<path class="st5" d="M550.6,128l-0.7-3.2c-2.4,4.7-3.2,10-2.3,15.2c0.4,2.4,1.2,4.9,0.2,7.1c-0.7,1.5-2.1,2.5-3,4
		c-1,1.8-0.3,6.6-0.5,7.5c-0.6,2.1-2.7,3.5-3.2,6.1s0.1,5.7,2.5,6.9c4.4-7.2,8.8-14.7,9.9-23.1C554.3,141.5,552.7,134.6,550.6,128z"
		/>
	<path class="st6" d="M563.9,145.2c0,0-0.1,0-0.4,0c-0.4,0-0.7-0.1-1.1-0.1c-1.3-0.2-2.6-0.8-3.6-1.6c-0.7-0.6-1.2-1.4-1.6-2.3
		c-0.4-1-0.4-2.2,0-3.2c0.5-1.1,1.5-2,2.7-2.3c0.7-0.1,1.3,0,1.9,0.3c0.7,0.4,1,1.1,0.9,1.8c-0.1,0.4-0.3,0.8-0.6,1
		c-0.3,0.2-0.6,0.3-1,0.3c-0.7,0-1.3-0.1-1.9-0.4c-1-0.5-2-1.3-2.7-2.2c-2.2-2.5-2.8-6.1-1.5-9.3c0.1-0.3,0.3-0.6,0.5-0.9
		c0.1-0.2,0.2-0.3,0.2-0.3s-0.2,0.5-0.5,1.3c-0.4,1.2-0.6,2.5-0.5,3.8c0.2,3,2,5.7,4.8,7.1c0.5,0.3,1,0.4,1.6,0.4
		c0.5,0,1-0.3,1.1-0.8c0.1-0.5-0.2-1-0.7-1.3c-0.5-0.3-1-0.3-1.6-0.2c-1,0.2-1.9,1-2.4,1.9c-0.4,0.9-0.4,1.9-0.1,2.8
		c0.3,0.8,0.8,1.6,1.4,2.1c1,0.8,2.1,1.4,3.4,1.7C563.4,145.1,563.9,145.2,563.9,145.2z"/>
</g>
</svg>
