<?xml version="1.0" encoding="utf-8"?>
<!-- Generator: Adobe Illustrator 24.2.1, SVG Export Plug-In . SVG Version: 6.00 Build 0)  -->
<svg version="1.1" id="Layer_1" xmlns="http://www.w3.org/2000/svg" xmlns:xlink="http://www.w3.org/1999/xlink" x="0px" y="0px"
	 viewBox="0 0 665.1 465.5" style="enable-background:new 0 0 665.1 465.5;" xml:space="preserve">
<style type="text/css">
	.st0{fill:#263238;}
	.st1{fill:#FFFFFF;}
	.st2{fill:#455A64;}
	.st3{fill:#C6DBE6;}
	.st4{fill:#15ABEA;}
	.st5{fill:#D4E4EC;}
	.st6{fill:#FAFAFA;}
	.st7{fill:#E0ECF3;}
	.st8{fill:#263238;stroke:#263238;stroke-miterlimit:10;}
	.st9{clip-path:url(#SVGID_2_);}
	.st10{fill:#D0EEFB;}
	.st11{opacity:0.8;}
	.st12{fill:#0D678C;}
	.st13{fill:#139AD3;}
	.st14{fill:#44BCEE;}
	.st15{fill:#73CDF2;}
	.st16{fill:#A1DDF7;}
	.st17{opacity:0.3;}
	.st18{fill:none;}
	.st19{enable-background:new    ;}
	.st20{opacity:0.6;}
	.st21{fill:#FFBE9D;}
</style>
<g id="freepik--Device--inject-7">
	<path class="st0" d="M0,255V11.5C0,5.1,5.2,0,11.6,0h359.5c6.4,0,11.5,5.2,11.5,11.5V255c0,6.4-5.2,11.6-11.5,11.6H11.6
		C5.2,266.5,0,261.3,0,255z"/>
	<rect x="26.2" y="8.3" class="st1" width="319.5" height="249.8"/>
	<circle class="st2" cx="363.4" cy="133.2" r="10.2"/>
	<path class="st2" d="M11.1,172.1V94.2c0-0.7,0.5-1.2,1.2-1.2h1.8c0.7,0,1.2,0.5,1.2,1.2v77.9c0,0.7-0.5,1.2-1.2,1.2h-1.8
		C11.6,173.3,11.1,172.8,11.1,172.1z"/>
	<rect x="44.3" y="38.8" class="st3" width="283.9" height="43.2"/>
	<rect x="44.2" y="157.5" class="st3" width="70" height="70"/>
	<rect x="127" y="157.5" class="st3" width="70" height="70"/>
	<rect x="207.3" y="157.5" class="st3" width="70" height="70"/>
	<path class="st4" d="M169.4,127.8H93.5c-6.4,0-11.6-5.2-11.6-11.6l0,0c0-6.4,5.2-11.5,11.6-11.5h75.9c6.4,0,11.6,5.2,11.6,11.6l0,0
		l0,0C181,122.6,175.8,127.8,169.4,127.8z"/>
	<path class="st0" d="M258.2,127.8l1-0.1c0.4,0,0.8-0.1,1.3-0.2c4.5-0.9,8-4.5,8.9-9c0.5-2.8,0.1-5.6-1.3-8.1
		c-1.7-2.9-4.6-4.9-7.9-5.5c-1.9-0.2-3.7-0.2-5.6-0.2h-6h-13l-142.1,0.1c-6.2,0-11.3,5-11.4,11.2c0,6,4.6,11,10.6,11.4
		c1.6,0.1,3.3,0,4.9,0h37.7l63.9,0.1l43.1,0.1l11.7,0.1h3h1h-1h-3l-11.7,0.1l-43.1,0.1h-63.9H97.6c-1.6,0-3.3,0-4.9,0
		c-1.7-0.1-3.4-0.6-4.9-1.4c-5.7-3.1-7.9-10.3-4.8-16c2.1-3.8,6.1-6.2,10.4-6.2l142.1,0.1h13h6c1.9-0.1,3.8,0,5.6,0.2
		c6.4,1.1,10.6,7.2,9.5,13.5c0,0.1,0,0.2-0.1,0.4c-0.5,2.2-1.6,4.3-3.2,5.9c-1.2,1.2-2.6,2.1-4.2,2.6c-0.6,0.2-1.1,0.4-1.7,0.5
		c-0.5,0.1-0.9,0.1-1.3,0.2L258.2,127.8z"/>
	<path class="st0" d="M156.9,135.9h0.9l-1.1,5.3h3.3l-0.1,0.8h-4.1L156.9,135.9z"/>
	<path class="st0" d="M160.6,140c-0.1-1.4,1.1-2.6,2.5-2.7c0.1,0,0.1,0,0.2,0c1.1-0.1,2,0.6,2.1,1.7c0,0.1,0,0.2,0,0.3
		c0.1,1.4-1.1,2.7-2.5,2.7c-0.1,0-0.1,0-0.2,0c-1.1,0.1-2.1-0.7-2.1-1.8C160.6,140.1,160.6,140.1,160.6,140z M164.6,139.3
		c0.1-0.7-0.4-1.2-1.1-1.3c-0.1,0-0.2,0-0.3,0c-1,0-1.8,0.8-1.8,1.8v0.1c0,0.7,0.5,1.2,1.1,1.3c0.1,0,0.2,0,0.2,0
		c1,0,1.8-0.8,1.8-1.8C164.6,139.4,164.6,139.4,164.6,139.3L164.6,139.3z"/>
	<path class="st0" d="M171.3,137.4l-0.9,4.6h-0.8l0.1-0.6c-0.4,0.4-1,0.6-1.6,0.6c-1,0.1-1.9-0.7-2-1.8c0-0.1,0-0.2,0-0.2
		c-0.1-1.4,1-2.6,2.4-2.7c0.1,0,0.1,0,0.2,0c0.7-0.1,1.3,0.3,1.6,0.8l0.1-0.8L171.3,137.4z M170.1,139.4c0.1-0.7-0.4-1.2-1.1-1.3
		c-0.1,0-0.2,0-0.3,0c-1,0-1.8,0.8-1.8,1.8v0.1c0,0.7,0.5,1.2,1.1,1.3c0.1,0,0.2,0,0.2,0c1,0,1.8-0.8,1.8-1.8
		C170.1,139.4,170.1,139.4,170.1,139.4L170.1,139.4z"/>
	<path class="st0" d="M177.6,135.5l-1.3,6.4h-0.8l0.1-0.6c-0.4,0.4-1,0.6-1.6,0.6c-1,0.1-1.9-0.7-2-1.8c0-0.1,0-0.2,0-0.2
		c-0.1-1.4,1-2.6,2.4-2.7c0.1,0,0.1,0,0.2,0c0.7-0.1,1.3,0.3,1.7,0.8l0.5-2.6L177.6,135.5z M176,139.3c0.1-0.7-0.4-1.2-1.1-1.3
		c-0.1,0-0.2,0-0.3,0c-1,0-1.8,0.8-1.8,1.8v0.1c-0.1,0.7,0.4,1.2,1.1,1.3c0.1,0,0.2,0,0.3,0c1,0,1.8-0.8,1.8-1.8
		C176,139.4,176,139.4,176,139.3z"/>
	<path class="st0" d="M178.8,137.4h0.8l-0.9,4.6h-0.8L178.8,137.4z M178.9,136c0-0.3,0.2-0.6,0.6-0.6l0,0c0.3,0,0.5,0.2,0.5,0.5l0,0
		c0,0.3-0.2,0.6-0.6,0.6l0,0C179.2,136.5,178.9,136.3,178.9,136L178.9,136L178.9,136z"/>
	<path class="st0" d="M185.2,138.8c0,0.2,0,0.4,0,0.5l-0.5,2.6h-0.8l0.5-2.6c0-0.1,0-0.3,0-0.4c0-0.6-0.3-0.9-1.1-0.9
		c-0.9,0-1.6,0.6-1.7,1.5l-0.5,2.4h-0.8l0.9-4.6h0.8l-0.1,0.6c0.4-0.4,1-0.7,1.7-0.6c0.8-0.1,1.5,0.4,1.7,1.2
		C185.2,138.6,185.2,138.7,185.2,138.8z"/>
	<path class="st0" d="M191.5,137.4l-0.8,4c-0.1,1.4-1.3,2.4-2.7,2.4h-0.1c-0.8,0-1.5-0.2-2.1-0.6l0.5-0.6c0.5,0.4,1.1,0.6,1.7,0.6
		c0.9,0.1,1.7-0.5,1.8-1.4c0,0,0,0,0-0.1l0.1-0.3c-0.4,0.4-1,0.6-1.7,0.6c-1,0.1-1.9-0.6-2-1.7c0-0.1,0-0.1,0-0.2
		c0-1.4,1.1-2.5,2.5-2.6h0.1c0.7-0.1,1.4,0.3,1.7,0.9l0.2-0.8L191.5,137.4z M190.2,139.2c0-0.7-0.5-1.2-1.4-1.2
		c-1,0-1.8,0.7-1.8,1.7v0.1c0,0.7,0.5,1.2,1.4,1.2c1,0,1.8-0.7,1.8-1.7C190.2,139.3,190.2,139.3,190.2,139.2L190.2,139.2z"/>
	<path class="st0" d="M194.2,141.4c0-0.3,0.2-0.6,0.6-0.6l0,0c0.3,0,0.5,0.2,0.5,0.5l0,0c0,0.3-0.2,0.6-0.6,0.6l0,0
		C194.4,142,194.2,141.7,194.2,141.4L194.2,141.4z"/>
	<path class="st0" d="M196.2,141.4c0-0.3,0.2-0.6,0.6-0.6l0,0c0.3,0,0.5,0.2,0.5,0.5l0,0c0,0.3-0.2,0.6-0.6,0.6l0,0
		C196.4,142,196.2,141.7,196.2,141.4L196.2,141.4z"/>
	<path class="st0" d="M198.1,141.4c0-0.3,0.3-0.6,0.6-0.6l0,0c0.3,0,0.5,0.2,0.5,0.5l0,0c0,0.3-0.2,0.6-0.6,0.6l0,0
		C198.4,142,198.1,141.7,198.1,141.4z"/>
</g>
<g id="freepik--background-complete--inject-288">
	<g>
		<path class="st5" d="M100.8,344.1c0,0-5.1-2.2-8.7,9.7c-3.6,11.9-4.6,18.5-4.6,18.5s-1.1,2.5-2.9,1.3s-4.7-5.1-7.2-3.8
			s-3,4.5-1.6,8.9c1.3,4.4,3.9,14.2,4.1,15.1s0,2.3-1.4,1.6c-1.4-0.6-9.9-7.2-12.7-3c-2.9,4.2,2.8,15.9,3.4,17.2
			c0.6,1.3,0.4,1.9-0.1,2.3c-0.6,0.4-3.2-2-5.7-3.8s-5.7-3.4-7.2-0.8s-0.4,11.9,11.1,25.4l5.7,5.9l8.1-1.9
			c17-5.1,22.9-12.4,23.1-15.4s-3.4-3.3-6.5-3.2s-6.6,0.8-6.9,0.1s0-1.3,1.2-2.1c1.2-0.8,12.4-7.5,12.2-12.6
			c-0.2-5.1-10.9-4.1-12.4-4.3c-1.5-0.2-1-1.6-0.3-2.2s8.1-7.5,11.7-10.5s5-5.9,3.5-8.4s-6-0.7-8.2-0.7s-1.7-2.7-1.7-2.7
			s2.8-6.1,6.2-18c3.4-11.9-2.3-12.8-2.3-12.8"/>
		<path class="st3" d="M97.5,354.7c0,0,0,0.1-0.1,0.2l-0.2,0.8c-0.2,0.7-0.4,1.6-0.8,2.8c-0.7,2.5-1.7,6-2.9,10.4
			c-2.5,8.7-6.1,20.8-10.1,34.1c-4,13.3-7.6,25.3-10.2,34.1c-1.3,4.4-2.3,7.9-3,10.3l-0.8,2.8l-0.2,0.7c-0.1,0.2-0.1,0.2-0.1,0.2
			s0-0.1,0.1-0.2c0.1-0.2,0.1-0.4,0.2-0.7c0.2-0.7,0.4-1.6,0.8-2.8c0.7-2.5,1.7-6,2.9-10.4c2.5-8.7,6.1-20.8,10.1-34.1
			s7.6-25.3,10.2-34.1l3-10.4c0.4-1.2,0.6-2.2,0.8-2.8c0.1-0.3,0.2-0.6,0.2-0.7C97.5,354.8,97.5,354.7,97.5,354.7z"/>
		<path class="st3" d="M81.2,375.3c0.1,0.2,0.2,0.3,0.3,0.5c0.2,0.3,0.4,0.8,0.7,1.4c0.6,1.2,1.4,2.9,2.2,4.9
			c0.8,1.9,1.6,3.6,2.1,4.9c0.2,0.6,0.5,1.1,0.6,1.5c0.1,0.2,0.2,0.4,0.2,0.6c-0.1-0.2-0.2-0.3-0.3-0.5c-0.2-0.3-0.4-0.8-0.7-1.4
			c-0.6-1.2-1.3-3-2.2-4.9c-0.8-1.9-1.6-3.6-2.1-4.9l-0.7-1.5C81.3,375.7,81.2,375.5,81.2,375.3z"/>
		<path class="st3" d="M88.2,389.1c0-0.1,3.4-1.8,7.8-4c4.3-2.1,7.8-3.8,7.9-3.7c0,0.1-3.4,1.8-7.8,4
			C91.7,387.5,88.2,389.1,88.2,389.1z"/>
		<path class="st3" d="M81.1,409.2c0.2-0.1,0.4-0.1,0.6-0.1l1.6-0.3c1.4-0.2,3.3-0.6,5.3-1c2.1-0.5,3.9-0.9,5.3-1.3l1.6-0.4
			c0.2-0.1,0.4-0.1,0.6-0.1c-0.2,0.1-0.4,0.2-0.6,0.2c-0.4,0.1-0.9,0.3-1.6,0.5c-1.3,0.4-3.2,0.9-5.3,1.4c-2.1,0.5-4,0.8-5.4,1
			c-0.7,0.1-1.3,0.2-1.6,0.2C81.5,409.2,81.3,409.2,81.1,409.2z"/>
		<path class="st3" d="M72.1,398.1c0,0,0.2,0.1,0.4,0.4s0.6,0.7,1,1.1c0.8,1,2,2.3,3.3,3.8s2.4,2.9,3.2,3.9c0.4,0.5,0.7,0.9,1,1.2
			c0.1,0.1,0.2,0.3,0.3,0.5c-0.2-0.1-0.3-0.2-0.4-0.4c-0.2-0.3-0.6-0.7-1-1.1c-0.8-1-2-2.3-3.3-3.8s-2.4-2.9-3.2-3.9
			c-0.4-0.5-0.7-0.9-0.9-1.2C72.3,398.4,72.1,398.3,72.1,398.1z"/>
		<path class="st3" d="M63.6,415.1c0.2,0.1,0.4,0.3,0.5,0.5l1.3,1.5c1.1,1.2,2.6,3,4.2,4.9s3.1,3.7,4.2,4.9c0.5,0.6,0.9,1.1,1.2,1.5
			c0.2,0.2,0.3,0.4,0.4,0.6c-0.2-0.2-0.4-0.3-0.5-0.5l-1.3-1.5c-1.1-1.2-2.6-3-4.2-4.9s-3.1-3.7-4.2-4.9l-1.2-1.5
			C63.8,415.5,63.7,415.3,63.6,415.1z"/>
		<path class="st3" d="M75.2,428.6c0.3-0.1,0.5-0.2,0.8-0.2l2-0.4c1.7-0.4,4.1-0.9,6.7-1.6s5-1.3,6.7-1.8l2-0.6
			c0.3-0.1,0.5-0.1,0.8-0.2c-0.2,0.1-0.5,0.2-0.7,0.3c-0.5,0.2-1.1,0.4-2,0.6c-1.7,0.5-4,1.2-6.7,1.8s-5,1.1-6.8,1.5
			c-0.9,0.2-1.6,0.3-2.1,0.4C75.8,428.6,75.5,428.6,75.2,428.6z"/>
	</g>
	<rect x="547" y="61.7" class="st5" width="82.3" height="110.3"/>
	<rect x="551.3" y="66" class="st6" width="73.7" height="101.7"/>
	<rect x="575.1" y="101.2" class="st5" width="28.1" height="32.1"/>
	<rect x="593.4" y="198.1" class="st5" width="71.6" height="53.4"/>
	<rect x="596.2" y="200.9" class="st6" width="66" height="47.9"/>
	<rect x="619.1" y="215" class="st5" width="20.9" height="18.3"/>
	<g>
		<rect x="136.7" y="330.5" class="st7" width="160.9" height="74.2"/>
		<path class="st3" d="M293.8,401.3H140.4v-66.8h153.3L293.8,401.3L293.8,401.3z M141.4,400.3h151.4v-64.8H141.4V400.3z"/>
		<rect x="297.6" y="330.5" class="st3" width="39.3" height="74.2"/>
		<path class="st3" d="M140.9,355.1h152.4c0.1,0,0.2-0.1,0.2-0.3c0-0.1-0.1-0.1-0.2-0.2H140.9c-0.1,0-0.2,0.1-0.2,0.3
			C140.7,355,140.8,355,140.9,355.1z"/>
		<path class="st3" d="M217.6,354.9c0.4-6.7,0.4-13.4,0.1-20.2c0-0.1-0.1-0.2-0.2-0.2c-0.1,0-0.2,0.1-0.2,0.2
			c-0.4,6.7-0.4,13.4,0.1,20.2c0,0.1,0.1,0.1,0.1,0.1C217.5,355,217.6,355,217.6,354.9L217.6,354.9L217.6,354.9z"/>
		<path class="st3" d="M258.6,344.8c0,1.1-0.9,2.1-2.1,2.1c-1.1,0-2.1-0.9-2.1-2.1c0-1.1,0.9-2.1,2.1-2.1l0,0
			C257.7,342.7,258.6,343.6,258.6,344.8z"/>
		<path class="st3" d="M178.6,344.8c0,1.1-0.9,2.1-2.1,2.1c-1.1,0-2.1-0.9-2.1-2.1c0-1.1,0.9-2.1,2.1-2.1l0,0
			C177.7,342.7,178.6,343.6,178.6,344.8z"/>
		<path class="st3" d="M219.1,367.8c0,1.1-0.9,2.1-2.1,2.1c-1.1,0-2.1-0.9-2.1-2.1c0-1.1,0.9-2.1,2.1-2.1l0,0
			C218.2,365.7,219.1,366.6,219.1,367.8z"/>
		<polygon class="st3" points="155.9,404.7 147.6,451.3 152.3,451.3 167.6,404.7 		"/>
		<polygon class="st3" points="286.2,404.7 293.1,451.4 288.5,451.4 274.6,404.7 		"/>
		<polygon class="st3" points="317.3,404.7 325.2,451.4 320.5,451.4 305.7,404.7 		"/>
		<path class="st3" d="M219,388.8c0,1.1-0.9,2.1-2.1,2.1c-1.1,0-2.1-0.9-2.1-2.1c0-1.1,0.9-2.1,2.1-2.1l0,0
			C218.1,386.7,219,387.6,219,388.8z"/>
		<path class="st3" d="M140.9,378h152.4c0.1,0,0.2-0.1,0.2-0.3c0-0.1-0.1-0.1-0.2-0.2H140.9c-0.1,0-0.2,0.1-0.2,0.3
			C140.7,378,140.8,378,140.9,378z"/>
		<polygon class="st5" points="242.4,288.3 238,329.1 294.4,329.1 299.1,288.3 		"/>
		<polygon class="st6" points="244.7,291.3 240.5,327 291.3,327 295.4,291.3 		"/>
		<polygon class="st3" points="253.3,297.3 250.7,321 282.8,321 284.4,297.3 		"/>
		<polyline class="st7" points="297,305.9 308.7,329.3 294.4,329.1 297.2,304.4 		"/>
	</g>
</g>
<g id="freepik--Character--inject-288">
	<circle class="st1" cx="437.3" cy="159.6" r="131.3"/>
	<path class="st8" d="M568.6,159.6c0,0,0-0.7-0.1-2.1c0-0.7,0-1.6-0.1-2.6s0-2.3-0.2-3.6s-0.2-2.9-0.4-4.6s-0.4-3.5-0.7-5.5
		c-0.7-4.6-1.5-9.1-2.7-13.6c-1.4-5.6-3.2-11.1-5.4-16.5c-2.5-6.4-5.6-12.6-9.1-18.5c-8.6-14.4-20-27.1-33.3-37.3
		c-16.2-12.4-35.2-20.8-55.2-24.5c-17-3.1-34.5-2.9-51.4,0.6c-12,2.5-23.7,6.8-34.5,12.6c-5.6,3-11,6.4-16.1,10.2
		c-10.6,7.8-20,17.2-27.7,27.8c-4,5.4-7.6,11.2-10.7,17.2c-0.8,1.5-1.6,3-2.3,4.6l-2.1,4.7c-1.3,3.2-2.6,6.4-3.6,9.7
		c-2.2,6.6-3.9,13.4-5,20.3c-1.1,7-1.7,14-1.7,21.1s0.6,14.1,1.7,21.1c1.1,6.9,2.8,13.7,5,20.3l0.8,2.4l0.4,1.2l0.5,1.2
		c0.7,1.6,1.3,3.2,1.9,4.8l2.1,4.7c0.7,1.6,1.5,3.1,2.3,4.6c3.1,6,6.7,11.8,10.7,17.2c3.9,5.3,8.3,10.4,12.9,15.1
		c4.6,4.6,9.6,8.8,14.8,12.8c5.2,3.8,10.6,7.2,16.2,10.2c5.5,2.9,11.2,5.5,17,7.6c5.7,2,11.6,3.7,17.5,5c16.9,3.5,34.4,3.7,51.4,0.6
		c20.1-3.8,39-12.1,55.2-24.5c13.4-10.2,24.7-22.9,33.3-37.3c3.5-5.9,6.6-12.1,9.1-18.5c2.2-5.4,4-10.9,5.4-16.5
		c1.2-5.1,2.1-9.6,2.7-13.6c0.2-2,0.5-3.8,0.7-5.5s0.3-3.2,0.4-4.6s0.2-2.6,0.2-3.6s0.1-1.9,0.1-2.6
		C568.6,160.3,568.7,159.6,568.6,159.6c0.1,0,0.1,0.7,0.1,2.1c0,0.7,0,1.6-0.1,2.6s0,2.3-0.2,3.6s-0.2,2.9-0.3,4.6s-0.4,3.5-0.7,5.5
		c-0.6,4.6-1.5,9.1-2.6,13.6c-1.4,5.6-3.2,11.1-5.3,16.5c-2.5,6.4-5.6,12.7-9.2,18.6c-8.6,14.5-20,27.2-33.3,37.4
		c-16.3,12.4-35.2,20.8-55.4,24.6c-17.1,3.2-34.6,3-51.6-0.5c-12.1-2.5-23.8-6.8-34.7-12.6c-5.6-3-11.1-6.5-16.2-10.3
		c-5.2-3.9-10.2-8.2-14.9-12.8c-4.7-4.7-9-9.8-13-15.2c-4-5.5-7.6-11.2-10.7-17.3c-0.8-1.5-1.6-3-2.3-4.6l-2.1-4.7
		c-0.6-1.6-1.3-3.2-1.9-4.8l-0.5-1.2l-0.4-1.2l-0.8-2.5c-2.2-6.6-3.9-13.5-5-20.4c-2.3-14-2.3-28.3,0-42.4c1.1-6.9,2.8-13.7,5-20.4
		c1-3.3,2.4-6.5,3.6-9.7l2.1-4.7c0.7-1.6,1.5-3.1,2.3-4.6c3.1-6,6.7-11.8,10.7-17.3c4-5.4,8.3-10.4,13-15.2
		c4.7-4.6,9.6-8.8,14.9-12.7c5.2-3.8,10.6-7.2,16.2-10.3c10.9-5.9,22.6-10.1,34.7-12.7c17-3.5,34.5-3.7,51.5-0.6
		c20.1,3.8,39.1,12.2,55.4,24.6c13.4,10.2,24.7,22.9,33.3,37.4c3.5,5.9,6.6,12.1,9.1,18.5c2.1,5.4,3.9,10.9,5.3,16.5
		c1.2,5.1,2.1,9.7,2.6,13.6c0.2,2,0.5,3.8,0.7,5.5s0.2,3.2,0.3,4.6s0.2,2.6,0.2,3.6s0,1.9,0.1,2.6
		C568.6,158.8,568.6,159.6,568.6,159.6z"/>
	<g>
		<g>
			<defs>
				<path id="SVGID_1_" d="M384.7,205.4c-26.7-28.3-25.4-73,2.9-99.7s73-25.4,99.7,2.9c26.2,27.8,25.5,71.3-1.5,98.3l35.5,34.6
					c46.7-46.4,47-121.8,0.6-168.5s-121.8-47-168.5-0.6c-46.5,46.2-47,121.3-1.1,168.1L384.7,205.4z"/>
			</defs>
			<clipPath id="SVGID_2_">
				<use xlink:href="#SVGID_1_"  style="overflow:visible;"/>
			</clipPath>
			<g class="st9">
				<path class="st10" d="M384.7,205.4c-26.7-28.3-25.4-73,2.9-99.7s73-25.4,99.7,2.9c26.2,27.8,25.5,71.3-1.5,98.3l35.5,34.6
					c46.7-46.4,47-121.8,0.6-168.5s-121.8-47-168.5-0.6c-46.5,46.2-47,121.3-1.1,168.1L384.7,205.4z"/>
				<g class="st11">
					<path class="st12" d="M499.7,156.5h64.1c0,0-6.5,52.2-7.8,53.1s-39.2,44.7-39.2,44.7l-43.1-51.2L499.7,156.5z"/>
				</g>
				<g>
					<polygon class="st13" points="482.4,113.3 527.7,68.8 559.7,116.4 563.9,156.5 500.4,156.5 488.9,131 					"/>
				</g>
				<g>
					<path class="st14" d="M440.1,97.2c-0.8-1.3,0-64.2,0-64.2l39.1,4.9L527.3,69l-46.2,45.4l-29.1-4.2L440.1,97.2z"/>
				</g>
				<g>
					<path class="st15" d="M347,71.2c1,0.3,43.1,45.4,43.1,45.4l37.6-14.9l12.1-15l0.3-53.7l-44.8,5L347,71.2z"/>
				</g>
				<g>
					<path class="st16" d="M313.9,156.5c1,0.6,71.3,0,71.3,0l-1.2-46.3l-33.9-36L327,101.7L313.9,156.5z"/>
				</g>
			</g>
		</g>
	</g>
	<circle class="st3" cx="438.6" cy="159.6" r="27.4"/>
	<path class="st0" d="M445.4,157.4L445.4,157.4c-0.9-4.2-5.1-6.8-9.2-5.9l-96.7,20.9l98.8-5.6c4.3-0.2,7.6-3.9,7.3-8.2
		C445.5,158.2,445.5,157.8,445.4,157.4z"/>
</g>
<g>
	<path class="st0" d="M568.2,433.8c-0.2-0.3-0.4-0.7-0.6-1.2c-0.8-1.6-1.4-3.3-1.9-5.1c-1.2-4.5-1.7-11.4,0-19.7
		c0.9-4.5,2.1-8.9,3.6-13.2c1.5-4.7,3.3-9.6,4.7-14.9c1.6-5.5,2.4-11.3,2.3-17c-0.3-6-2-12-4-18s-4-12-4.6-18
		c-0.7-5.8,0.5-11.7,3.4-16.9c2.7-4.9,6-9,8.4-13.2c2.3-3.9,4-8.1,5-12.6c1.5-6.4,1.7-13.1,0.5-19.6c-0.3-1.8-0.8-3.5-1.3-5.2
		l-0.4-1.3c-0.1-0.1-0.1-0.3-0.1-0.5c0.9,2.3,1.6,4.6,2,7c1.3,6.5,1.2,13.2-0.3,19.7c-1,4.5-2.7,8.7-5,12.7
		c-2.5,4.3-5.8,8.4-8.4,13.2c-2.8,5-3.9,10.8-3.2,16.5c0.6,5.9,2.6,11.9,4.6,17.9s3.8,12.1,4,18.2c0.1,5.8-0.7,11.6-2.3,17.2
		c-1.5,5.3-3.2,10.3-4.8,14.9c-1.5,4.3-2.7,8.7-3.6,13.1c-1.7,8.2-1.3,15-0.1,19.5c0.4,1.7,1,3.4,1.8,5.1L568.2,433.8
		c0.1,0.2,0.2,0.3,0.2,0.5C568.4,434.2,568.3,434,568.2,433.8z"/>
	<path class="st4" d="M571.5,276c0-0.2,0.1-0.3,0.2-0.4c0.2-0.2,0.6-0.1,0.8,0.1c9,9.4,4,25.4,4,25.4
		C570.5,286.7,571.1,278.7,571.5,276z"/>
	<path class="st0" d="M574.3,284c0.4,1.8,0.9,4.2,1.3,7c0.4,2.8,0.8,5.3,0.9,7.1c0.1,1,0.2,2,0.1,3c-0.3-1-0.4-1.9-0.5-2.9
		c-0.3-2.1-0.7-4.4-1.1-7.1c-0.4-2.6-0.8-5.1-1.1-7.1c-0.2-1-0.3-2-0.3-3C573.9,282,574.1,283,574.3,284z"/>
	<path class="st4" d="M554.5,319c0-0.1,0-0.2,0-0.4c0.1-0.3,0.4-0.4,0.7-0.3c12.3,4.1,15.4,20.6,15.4,20.6
		C558.6,329,555.3,321.6,554.5,319z"/>
	<path class="st0" d="M560.6,324.7c1.2,1.4,2.8,3.4,4.5,5.6s3.2,4.3,4.2,5.9c0.6,0.8,1.1,1.7,1.5,2.6c-0.7-0.7-1.3-1.5-1.8-2.3
		l-4.3-5.7l-4.3-5.7c-0.6-0.8-1.2-1.6-1.7-2.5C559.4,323.2,560,323.9,560.6,324.7z"/>
	<path class="st4" d="M564.3,356.6c0-0.1,0-0.2,0.1-0.3c0.2-0.2,0.5-0.3,0.8-0.1c10.6,7.5,8.8,24.2,8.8,24.2
		C565.3,367.3,564.4,359.3,564.3,356.6z"/>
	<path class="st0" d="M568.5,363.8c0.7,1.7,1.7,4,2.6,6.7c1,2.6,1.8,5,2.3,6.8c0.3,0.9,0.6,1.9,0.7,2.9c-0.4-0.9-0.8-1.8-1.1-2.8
		c-0.7-1.9-1.5-4.2-2.4-6.7l-2.5-6.7c-0.4-0.9-0.7-1.9-0.9-2.8C567.7,362,568.2,362.9,568.5,363.8z"/>
	<path class="st4" d="M554.2,398.5c0-0.1,0-0.2,0.1-0.3c0.2-0.3,0.5-0.3,0.8-0.1c10.9,7.1,9.6,23.8,9.6,23.8
		C555.6,409.2,554.3,401.2,554.2,398.5z"/>
	<path class="st0" d="M558.6,405.7c0.8,1.7,1.8,4,2.9,6.6s2,5,2.5,6.7c0.4,0.9,0.6,1.9,0.8,2.9c-0.5-0.9-0.9-1.8-1.2-2.7l-2.7-6.6
		c-1-2.5-1.9-4.7-2.7-6.6c-0.4-0.9-0.8-1.8-1-2.8C557.8,403.9,558.3,404.7,558.6,405.7z"/>
	<path class="st4" d="M598,265.8c0.1-0.1,0.2-0.1,0.3-0.1c0.3,0,0.6,0.3,0.5,0.6c-0.3,13-15.2,20.8-15.2,20.8
		C589.7,272.6,595.8,267.4,598,265.8z"/>
	<path class="st0" d="M594.2,273.4c-0.9,1.5-2.4,3.6-4,5.9s-3.2,4.3-4.4,5.7c-0.6,0.8-1.2,1.5-2,2.2c0.5-0.9,1.1-1.7,1.7-2.4
		l4.2-5.8l4.2-5.8c0.5-0.8,1.2-1.6,1.9-2.3C595.4,271.7,594.8,272.6,594.2,273.4z"/>
	<path class="st4" d="M583.3,301.1c0.1-0.1,0.2-0.1,0.3-0.1c0.3,0,0.5,0.3,0.5,0.6c-1.1,12.9-16.4,19.8-16.4,19.8
		C574.6,307.4,581,302.5,583.3,301.1z"/>
	<path class="st0" d="M579.1,308.4c-1.1,1.5-2.6,3.5-4.4,5.7c-1.8,2.2-3.5,4.1-4.7,5.4c-0.6,0.8-1.4,1.4-2.2,2
		c0.5-0.8,1.2-1.6,1.8-2.3l4.5-5.5c1.7-2.1,3.2-3.9,4.5-5.5c0.6-0.8,1.3-1.5,2-2.2C580.3,306.8,579.8,307.7,579.1,308.4z"/>
	<path class="st4" d="M581.1,334.6c0.1-0.1,0.2-0.2,0.3-0.3c0.3-0.1,0.6,0.1,0.7,0.3c4.9,12-5.6,25.1-5.6,25.1
		C576.2,344.2,579.7,336.9,581.1,334.6z"/>
	<path class="st0" d="M580.8,343c-0.3,1.8-0.8,4.2-1.3,7c-0.6,2.8-1.2,5.2-1.7,7c-0.2,1-0.6,1.9-1,2.8c0.1-1,0.3-2,0.6-2.9
		c0.5-2,1-4.4,1.5-7s1.1-5,1.5-7c0.2-1,0.4-1.9,0.8-2.9C581.1,341,581,342,580.8,343z"/>
	<path class="st4" d="M581.4,384.4c0.1-0.1,0.2-0.1,0.3-0.1c0.3,0,0.5,0.3,0.5,0.6c-0.9,13-16.1,20.1-16.1,20.1
		C572.7,390.8,579.1,385.8,581.4,384.4z"/>
	<path class="st0" d="M577.4,391.7c-1.1,1.5-2.6,3.5-4.3,5.7s-3.4,4.1-4.6,5.5c-0.7,0.8-1.4,1.5-2.2,2.1c0.5-0.8,1.1-1.6,1.8-2.4
		l4.5-5.6l4.4-5.6c0.6-0.8,1.3-1.6,2-2.2C578.5,390.1,578,390.9,577.4,391.7z"/>
	<path class="st0" d="M535.9,339.3c0,0.3,0.1,0.6,0.1,1.1c0.1,1,0.2,2.4,0.3,4.1c0.2,3.6,0.6,8.5,1,14.5l0,0
		c1.1,6,4.2,12.6,8.3,19.1c3,4.8,6.2,9.2,8.9,13.3c2.5,3.6,4.7,7.4,6.7,11.3c1.3,2.7,2.3,5.4,3,8.3c0.2,1,0.4,1.8,0.5,2.4
		c0.1,0.3,0.1,0.6,0.1,0.8c-0.1-0.3-0.2-0.5-0.2-0.8c-0.1-0.5-0.3-1.3-0.6-2.3c-0.8-2.8-1.9-5.6-3.1-8.2c-2-3.9-4.2-7.6-6.8-11.1
		c-2.8-4.1-6-8.5-9-13.3c-4.2-6.5-7.2-13.3-8.3-19.3l0,0l0,0c-0.3-6-0.6-11-0.8-14.5c-0.1-1.7-0.2-3.1-0.2-4.1
		C535.9,340,535.9,339.6,535.9,339.3c-0.1-0.1-0.1-0.2-0.1-0.3C535.9,339,535.9,339,535.9,339.3z"/>
	<path class="st4" d="M547.6,351.7c0-0.1-0.1-0.3-0.2-0.4c-0.3-0.2-0.6-0.1-0.8,0.2c-8.1,10.2-1.7,25.6-1.7,25.6
		C549.6,362.2,548.3,354.3,547.6,351.7z"/>
	<path class="st0" d="M546,359.9c-0.2,2.1-0.3,4.5-0.5,7.1s-0.3,5.1-0.5,7.1c0,1-0.1,2-0.3,3c-0.2-1-0.2-2-0.2-3
		c0-1.8,0.1-4.4,0.3-7.2s0.5-5.3,0.7-7.1c0.1-1,0.2-2,0.5-2.9C546.2,357.9,546.1,358.9,546,359.9z"/>
	<g class="st17">
		<path d="M547.6,351.7c0-0.1-0.1-0.3-0.2-0.4c-0.3-0.2-0.6-0.1-0.8,0.2c-8.1,10.2-1.7,25.6-1.7,25.6
			C549.6,362.2,548.3,354.3,547.6,351.7z"/>
	</g>
	<path class="st4" d="M569.6,389.3c0-0.1-0.1-0.3-0.2-0.4c-0.2-0.2-0.6-0.1-0.8,0.1c-8.9,9.4-3.7,25.4-3.7,25.4
		C570.7,400,570,392,569.6,389.3z"/>
	<path class="st0" d="M567.3,397.4c-0.3,2.1-0.7,4.4-1.1,7.1c-0.3,2.6-0.7,5.1-1,7.1c-0.1,1-0.2,2-0.5,2.9c-0.1-1-0.1-2,0.1-3
		c0.1-1.8,0.4-4.4,0.9-7.1s0.9-5.3,1.3-7c0.1-1,0.4-2,0.8-2.9C567.6,395.4,567.5,396.4,567.3,397.4z"/>
	<g class="st17">
		<path d="M569.6,389.3c0-0.1-0.1-0.3-0.2-0.4c-0.2-0.2-0.6-0.1-0.8,0.1c-8.9,9.4-3.7,25.4-3.7,25.4C570.7,400,570,392,569.6,389.3z
			"/>
	</g>
	<path class="st4" d="M525.3,335.3c-0.1-0.1-0.2-0.1-0.3-0.1c-0.3,0-0.6,0.2-0.6,0.5c-1.4,12.9,12.4,22.5,12.4,22.5
		C532.7,343.1,527.3,337.1,525.3,335.3z"/>
	<g class="st17">
		<path d="M525.3,335.3c-0.1-0.1-0.2-0.1-0.3-0.1c-0.3,0-0.6,0.2-0.6,0.5c-1.4,12.9,12.4,22.5,12.4,22.5
			C532.7,343.1,527.3,337.1,525.3,335.3z"/>
	</g>
	<path class="st0" d="M528.4,343l3.4,6.3l3.4,6.3c0.5,0.8,1,1.7,1.4,2.6c-0.7-0.7-1.3-1.5-1.8-2.4c-1-1.5-2.3-3.8-3.6-6.2
		c-1.3-2.5-2.5-4.7-3.3-6.4c-0.5-0.9-0.9-1.8-1.1-2.8C527.4,341.3,528,342.1,528.4,343z"/>
	<path class="st4" d="M539,383.1c-0.1,0-0.2,0-0.3,0c-0.3,0.1-0.4,0.4-0.3,0.7c4.4,12.2,21,14.8,21,14.8
		C549,386.9,541.5,383.9,539,383.1z"/>
	<g class="st17">
		<path d="M539,383.1c-0.1,0-0.2,0-0.3,0c-0.3,0.1-0.4,0.4-0.3,0.7c4.4,12.2,21,14.8,21,14.8C549,386.9,541.5,383.9,539,383.1z"/>
	</g>
	<path class="st0" d="M545.2,388.8l5.8,4.1l5.8,4.1c0.9,0.5,1.7,1.1,2.4,1.8c-0.9-0.4-1.8-0.8-2.6-1.4c-1.6-1-3.7-2.4-6-4
		s-4.3-3.1-5.7-4.3c-0.8-0.6-1.6-1.3-2.2-2C543.6,387.6,544.4,388.1,545.2,388.8z"/>
	<polygon class="st2" points="553.7,429.2 549.8,461.7 580,461.7 575.1,429.2 	"/>
	<path class="st0" d="M564.7,438.9c6.7,0,12.1,0.1,12.1,0.3s-5.4,0.3-12.1,0.3c-6.7,0-12.2-0.1-12.2-0.3
		C552.5,439.1,558,438.9,564.7,438.9z"/>
	<path class="st0" d="M564.5,441.5c6.9,0,12.5,0.1,12.5,0.3s-5.6,0.3-12.5,0.3S552,442,552,441.8S557.5,441.5,564.5,441.5z"/>
</g>
<path class="st4" d="M43.3,407.5c-3.8,0-4.3,8.4-3.2,12.7c0.7,2.7,2.5,7.9,6.5,10.4c2-3.8,3.7-8.4,3.4-12.7
	c-0.1-2.2-0.6-4.4-1.7-6.4C47.2,409.6,45.4,408.2,43.3,407.5"/>
<path class="st4" d="M51.8,436.8c3.6,0.4,6.7-1.4,9.5-3.9c0.8-0.7,1.5-1.6,1.8-2.6c0.4-1,0.2-2.2-0.6-3c-0.9-0.7-2.1-1-3.2-0.8
	c-2.5,0.2-4.8,1.4-6.4,3.3C51.3,431.8,50.9,434.5,51.8,436.8"/>
<path class="st0" d="M49.6,449.6c0-0.6,0.1-1.4,0.1-2.4c0-2.6,0.4-5.2,1.2-7.8c0.8-2.5,2.3-4.7,4.2-6.5c0.8-0.7,1.7-1.3,2.7-1.8
	l-0.2,0.1c-0.1,0.1-0.3,0.1-0.6,0.3c-0.7,0.4-1.4,0.8-2,1.3c-2,1.8-3.5,4-4.4,6.6c-0.8,2.5-1.2,5.2-1.1,7.9
	C49.5,448.2,49.5,449,49.6,449.6c-0.1,0.3-0.1,0.6-0.1,0.9C49.6,450.2,49.6,449.9,49.6,449.6z"/>
<path class="st0" d="M43.5,414.3c0,0.3,0.1,0.6,0.2,1.1c0.2,1,0.4,2.4,0.8,4c0.6,3.3,1.5,7.9,2.3,13.1s1.6,9.8,2,13.2
	c0.2,1.7,0.4,3,0.6,4c0.1,0.4,0.2,0.8,0.2,1.1c0,0.1,0,0.3,0.1,0.4c0-0.1,0-0.3,0-0.4c0-0.3-0.1-0.6-0.1-1.1c-0.1-0.9-0.3-2.3-0.5-4
	c-0.5-3.4-1.2-8.1-2-13.2s-1.7-9.8-2.4-13.1c-0.3-1.7-0.6-3-0.8-4L43.5,414.3c0-0.1,0-0.2-0.1-0.3C43.4,414,43.4,414.1,43.5,414.3z"
	/>
<path class="st4" d="M46.1,440.8c-5.6,0.9-11.2-1.6-14.2-6.4c-0.7-1.1-1.2-2.7-0.3-3.7s2.4-0.9,3.7-0.6c5.1,1.5,9.1,5.4,10.9,10.4"
	/>
<path class="st0" d="M39.3,435.2c0.5,0.2,0.9,0.5,1.3,0.7c0.5,0.3,1,0.6,1.5,1c2.2,1.6,4,3.7,5.2,6.1c0.3,0.5,0.5,1.1,0.7,1.6
	s0.4,1,0.5,1.5c0.5,1.8,0.6,3,0.7,3c0-0.3,0-0.6,0-0.8c0-0.3-0.1-0.7-0.1-1c-0.1-0.4-0.1-0.8-0.3-1.3c-0.1-0.5-0.3-1-0.5-1.5
	c-0.2-0.6-0.4-1.1-0.7-1.7c-0.6-1.2-1.4-2.4-2.3-3.4c-0.9-1-1.9-2-3-2.8c-0.5-0.4-1-0.7-1.5-1c-0.4-0.3-0.9-0.5-1.4-0.7
	c-0.4-0.2-0.8-0.3-1.2-0.5c-0.3-0.1-0.6-0.2-0.9-0.3c-0.3-0.1-0.5-0.2-0.8-0.2C36.5,434.1,37.7,434.4,39.3,435.2z"/>
<rect x="391.6" y="225.5" class="st18" width="94.1" height="59.3"/>
<g class="st19">
	<path class="st0" d="M422.1,226.5h2.5l-2.5,13h7l-0.5,2.2h-9.5L422.1,226.5z"/>
	<path class="st0" d="M435.5,242c-0.9,0-1.7-0.2-2.4-0.6s-1.3-0.9-1.7-1.6c-0.4-0.7-0.6-1.5-0.6-2.4c0-1.1,0.2-2.1,0.7-3
		c0.5-0.9,1.2-1.7,2.1-2.2c0.9-0.6,1.9-0.9,3-0.9c0.9,0,1.7,0.2,2.4,0.6c0.7,0.4,1.3,0.9,1.7,1.6c0.4,0.7,0.6,1.5,0.6,2.4
		c0,1.1-0.3,2.1-0.8,3s-1.2,1.7-2.1,2.3C437.6,241.7,436.6,242,435.5,242z M435.7,240c0.6,0,1.1-0.2,1.7-0.5
		c0.5-0.3,0.9-0.8,1.3-1.4c0.3-0.6,0.5-1.3,0.5-2c0-0.9-0.2-1.5-0.7-2c-0.5-0.5-1.1-0.7-1.9-0.7c-0.6,0-1.2,0.2-1.7,0.5
		c-0.5,0.3-0.9,0.8-1.2,1.4c-0.3,0.6-0.5,1.3-0.5,2c0,0.9,0.2,1.5,0.7,2C434.3,239.7,434.9,240,435.7,240z"/>
	<path class="st0" d="M443.5,231.6h2.2l0.7,7.4l3.5-7.4h2.2l0.9,7.4l3.6-7.4h2.4l-5.4,10.1h-2.2l-0.9-7.3l-3.4,7.3h-2.2L443.5,231.6
		z"/>
</g>
<g class="st19">
	<path class="st0" d="M421.9,254.7l-3.9,1.6l0.2-3.4l5.1-2.1h3l-2.9,14.9h-3.7L421.9,254.7z"/>
	<path class="st0" d="M433,266c-0.9,0-1.7-0.1-2.5-0.3c-0.8-0.2-1.5-0.4-2-0.8l0.7-3c0.5,0.3,1.1,0.5,1.8,0.7
		c0.7,0.2,1.3,0.3,1.9,0.3c0.9,0,1.6-0.2,2.1-0.6c0.5-0.4,0.8-0.9,0.8-1.6c0-0.6-0.3-1.1-0.8-1.4c-0.5-0.3-1.2-0.5-2.2-0.5
		c-1,0-2,0.1-2.8,0.4l2-8.5h8.5l-0.6,3.1h-5.2l-0.5,2.3c0.1,0,0.2,0,0.3,0c0.1,0,0.2,0,0.2,0c1.5,0,2.8,0.4,3.7,1.2
		c0.9,0.8,1.3,1.9,1.3,3.2c0,1.1-0.3,2-0.8,2.8c-0.5,0.8-1.3,1.5-2.3,1.9C435.5,265.8,434.4,266,433,266z"/>
	<path class="st0" d="M447.1,258.2c-0.7,0-1.4-0.1-2-0.4c-0.6-0.3-1-0.7-1.4-1.2c-0.3-0.5-0.5-1.2-0.5-1.9c0-0.7,0.2-1.4,0.5-2.1
		s0.9-1.1,1.5-1.5s1.4-0.6,2.2-0.6c1.1,0,2.1,0.3,2.8,1s1.1,1.5,1.1,2.6c0,0.7-0.2,1.4-0.5,2.1s-0.9,1.1-1.5,1.5
		S447.9,258.2,447.1,258.2z M456.6,250.8h3.1l-12.4,14.9h-3.1L456.6,250.8z M447.2,255.9c0.5,0,0.8-0.2,1.1-0.5
		c0.3-0.3,0.5-0.8,0.5-1.3c0-0.4-0.1-0.8-0.4-1c-0.2-0.3-0.6-0.4-1-0.4c-0.5,0-0.8,0.2-1.1,0.5s-0.5,0.8-0.5,1.3
		c0,0.4,0.1,0.8,0.4,1C446.5,255.8,446.8,255.9,447.2,255.9z M456.4,266c-0.7,0-1.4-0.1-2-0.4c-0.6-0.3-1-0.7-1.4-1.2
		s-0.5-1.2-0.5-1.9c0-0.7,0.2-1.4,0.5-2.1c0.4-0.6,0.9-1.1,1.5-1.5c0.6-0.4,1.4-0.6,2.2-0.6c1.1,0,2.1,0.3,2.8,1
		c0.7,0.7,1.1,1.5,1.1,2.6c0,0.7-0.2,1.4-0.5,2.1c-0.4,0.6-0.9,1.1-1.5,1.5C458,265.8,457.2,266,456.4,266z M456.5,263.7
		c0.5,0,0.8-0.2,1.1-0.5s0.5-0.8,0.5-1.3c0-0.4-0.1-0.8-0.4-1s-0.6-0.4-1-0.4c-0.5,0-0.8,0.2-1.1,0.5s-0.5,0.8-0.5,1.3
		c0,0.4,0.1,0.8,0.3,1S456.1,263.7,456.5,263.7z"/>
</g>
<g>
	<polygon class="st4" points="459.8,444.7 464,451.5 474.8,439 469.1,433 	"/>
	<path class="st0" d="M473.9,437.7c-0.4,0.7-0.9,1.3-1.5,1.9c-1,1.1-2.3,2.7-3.9,4.3l-4,4.2c-0.5,0.6-1.1,1.2-1.7,1.7
		c0.4-0.7,0.9-1.3,1.5-1.9c1-1.1,2.3-2.7,3.9-4.3l4-4.2C472.6,438.8,473.2,438.2,473.9,437.7z"/>
	<path class="st0" d="M463.9,438.4c1,0.6,1.9,1.4,2.7,2.3c0.9,0.8,1.7,1.6,2.3,2.6c-1-0.6-1.9-1.4-2.7-2.3
		C465.3,440.3,464.5,439.4,463.9,438.4z"/>
	<g class="st20">
		<polyline class="st1" points="464,451.5 474.8,439 473.8,437.9 462.7,450 463.9,451.4 		"/>
	</g>
	<path class="st4" d="M374.4,461v-1.7l17.1,0.1v5.6l-1,0.1c-4.7,0.2-23.9,0.8-27-0.1C359.9,464,374.4,461,374.4,461z"/>
	<g class="st20">
		<path class="st1" d="M385.3,464.9c0.3-1.4,1.1-2.6,2.2-3.4c1.2-0.8,2.6-1.2,4-1.1v4.4L385.3,464.9z"/>
	</g>
	<g class="st20">
		<path class="st1" d="M367.3,462.7c0,0-5.1,1.3-4.5,2.1s20,0.9,28.6,0.2v-0.4l-22.7,0.1C368.8,464.8,368.3,462.8,367.3,462.7z"/>
	</g>
	<path class="st0" d="M391.7,464.7h-0.3h-0.8l-3.1,0.1c-2.6,0.1-6.2,0.1-10.2,0.1s-7.6-0.1-10.2-0.2l-3.1-0.1h-0.8h-0.3h1.1l3.1,0.1
		c2.6,0.1,6.2,0.1,10.2,0.1s7.6,0,10.2,0h3.1L391.7,464.7L391.7,464.7z"/>
	<path class="st0" d="M368.8,465c-0.1-0.5-0.3-0.9-0.6-1.4c-0.3-0.4-0.6-0.8-1-1.1c0.5,0.2,1,0.5,1.2,1
		C368.8,464,368.9,464.5,368.8,465z"/>
	<path class="st0" d="M373.8,462.7c0,0-0.3-0.3-0.5-0.6s-0.4-0.7-0.3-0.7s0.3,0.2,0.5,0.6S373.9,462.6,373.8,462.7z"/>
	<path class="st0" d="M375.2,462c0,0-0.3-0.1-0.6-0.4s-0.5-0.5-0.5-0.5c0.2,0.1,0.4,0.2,0.6,0.4C375.1,461.7,375.3,462,375.2,462z"
		/>
	<path class="st0" d="M376.1,460.5c-0.3,0.1-0.6,0.1-0.9,0.1s-0.6,0-0.9-0.1c0.3-0.1,0.6-0.1,0.9-0.1S375.8,460.4,376.1,460.5z"/>
	<path class="st0" d="M376.4,459.5c-0.3,0.2-0.6,0.3-1,0.3c-0.3,0.1-0.7,0-1-0.1c0.3-0.1,0.7-0.1,1-0.1
		C375.7,459.5,376.1,459.4,376.4,459.5z"/>
	<path class="st0" d="M373.3,461.3c-0.4,0.1-0.7,0.1-1.1,0c-0.4,0-0.8-0.1-1.2-0.2c-0.2-0.1-0.5-0.1-0.7-0.3
		c-0.1-0.1-0.2-0.2-0.3-0.3c0-0.2,0-0.3,0.2-0.4c0.9-0.4,1.9-0.2,2.5,0.5c0.2,0.2,0.3,0.4,0.3,0.7c0,0.2,0,0.3,0,0.3
		c-0.1-0.3-0.3-0.6-0.5-0.9s-0.6-0.5-0.9-0.6c-0.4-0.1-0.9-0.1-1.3,0.1c-0.2,0.1-0.1,0.3,0.1,0.4s0.4,0.2,0.6,0.3
		c0.4,0.1,0.7,0.2,1.1,0.3C372.8,461.2,373.3,461.2,373.3,461.3z"/>
	<path class="st0" d="M373,461.3c-0.1-0.2-0.2-0.5-0.1-0.7c0-0.3,0.1-0.5,0.3-0.7c0.2-0.3,0.5-0.5,0.9-0.5c0.2,0,0.4,0.2,0.3,0.5
		l0,0c0,0.2-0.1,0.3-0.2,0.5s-0.3,0.4-0.5,0.6C373.5,461.1,373.3,461.2,373,461.3c0.1,0,0.3-0.2,0.6-0.5c0.2-0.2,0.3-0.4,0.5-0.6
		s0.3-0.6,0-0.6s-0.5,0.2-0.7,0.4c-0.2,0.2-0.3,0.4-0.3,0.7C373,460.9,373,461.1,373,461.3z"/>
	<path class="st0" d="M391.4,460.4c0,0-0.5,0-1.3,0c-1,0.1-1.9,0.4-2.8,1c-0.8,0.6-1.4,1.3-1.7,2.3c-0.3,0.7-0.3,1.1-0.3,1.1
		c0-0.1,0-0.2,0-0.3c0-0.3,0.1-0.6,0.2-0.9c0.3-0.9,0.9-1.8,1.7-2.4c0.8-0.6,1.8-0.9,2.9-1c0.3,0,0.6,0,0.9,0
		C391.2,460.2,391.3,460.3,391.4,460.4z"/>
	<path class="st0" d="M383.2,463.3c-1.7,0.3-3.3,0.3-5,0c0-0.1,1.1,0,2.5,0S383.2,463.3,383.2,463.3z"/>
	<path class="st0" d="M386.5,463.3c0,0-0.1,0.2-0.2,0.5s-0.2,0.4-0.2,0.4s-0.1-0.3,0-0.5S386.5,463.3,386.5,463.3z"/>
	<path class="st0" d="M387.8,461.9c0,0-0.1,0.2-0.3,0.4s-0.3,0.3-0.4,0.2s0.1-0.2,0.3-0.4S387.7,461.9,387.8,461.9z"/>
	<path class="st0" d="M389.6,461.2c0,0-0.2,0-0.5,0.1s-0.4,0.2-0.5,0.2s0.1-0.3,0.4-0.4S389.6,461.2,389.6,461.2z"/>
	<path class="st0" d="M390.9,460.9c0,0-0.1,0.1-0.2,0.2s-0.3,0.1-0.3,0s0.1-0.1,0.2-0.2S390.8,460.9,390.9,460.9z"/>
	<path class="st21" d="M367.4,238.9L341,212.2l3.4-34.8l0.6-0.7c0.3-0.4,0.7-0.8,1.1-1.3c0.5-0.5,1.1-1,1.8-1.3
		c0.8-0.4,1.6-0.8,2.5-1c0.8-0.1,1.1-1.2,0.4-1.5s-2.9-0.1-5.2,1.4s-0.9-2.5-0.4-4s1.8-6,1.4-6.5c-0.5-0.7-1.4-0.3-1.8,1.1
		s-2.1,5.8-2.8,5.5s1.8-7.6,1.8-7.6s0.8-1.5-0.1-1.8c-1.6-0.6-3.7,7.4-3.9,8.1c-0.1,0.5-1,0.3-0.8-0.3s2.7-7.3,1.1-7.9
		c-1.2-0.5-1.8,6.6-3.1,7.7s1-5.3-0.2-5.7c-0.4-0.2-0.8-0.2-1.6,3.6c-0.6,2.7-1.1,5.4-1.5,8.1l0,0l-8.3,41.6l26,34.4L367.4,238.9z"
		/>
	<path class="st21" d="M380.8,162.4c-1.1,0.6,2.3,6.5,0.8,5.7s-3.3-7.7-4.4-7c-1.5,0.9,2.2,7.1,2.5,7.6s-0.5,0.9-0.7,0.4
		c-0.3-0.7-3.8-8.2-5.3-7.3c-0.8,0.5,0.3,1.8,0.3,1.8s3.8,6.8,3.1,7.2s-3.1-3.5-3.8-4.9s-1.6-1.6-2-0.8c-0.2,0.5,1.8,4.8,2.5,6.1
		s2.8,5,0.3,4s-4.8-0.9-5.4-0.4s-0.1,1.4,0.7,1.4c0.9,0.1,1.8,0.2,2.7,0.5c0.7,0.2,1.4,0.6,2,1c0.5,0.4,1,0.7,1.3,1l0.7,0.6
		l14.3,35.2l-13,30.1l20.1,7.5l9-39.9L386,173.4l0,0c-0.8-2.6-1.8-5.2-2.9-7.7C381.6,162,381.2,162.1,380.8,162.4z"/>
	<path class="st2" d="M425.6,376l-13-67.1l-18.4,1.6v-0.2l-33.6,3c0,0-1.6,77.1-2.1,77.1l9.2,70.3l0,0l26.6-1.2L384,389.6l3.8-56.1
		l0.8-1l15.3,57.4l52.3,59.2l17-16.5L425.6,376z"/>
	<path class="st0" d="M384.6,379c0-0.2,0-0.4,0-0.6c0-0.4,0-1,0.1-1.6c0.1-1.5,0.2-3.5,0.3-6c0.3-5.1,0.8-12.1,1.2-19.9
		c0.5-7,0.9-13.4,1.3-18.3v-0.1l0,0l4.6-5.5l1.3-1.5c0.3-0.3,0.5-0.5,0.5-0.5c-0.1,0.2-0.2,0.4-0.4,0.6l-1.2,1.5l-4.5,5.5v-0.1
		c-0.3,4.9-0.7,11.3-1.2,18.3c-0.5,7.7-1,14.7-1.4,19.9c-0.2,2.5-0.4,4.5-0.5,6c-0.1,0.7-0.1,1.2-0.2,1.6
		C384.6,378.6,384.6,378.8,384.6,379z"/>
	<path class="st0" d="M394.2,310.3c0.3,2.1,0.4,4.3,0.3,6.4c0.1,2.1,0,4.3-0.3,6.4C393.8,318.9,393.8,314.6,394.2,310.3L394.2,310.3
		z"/>
	<path class="st0" d="M371.5,316.1c0.3-0.1,0.5-0.1,0.8-0.1l2.5-0.3c2.1-0.3,5.2-0.6,8.9-1h0.3v0.3c0,3.2,0,6.8,0,10.7v0.2l-0.1,0.1
		l-0.2,0.1l-6.4,3.2l-0.1,0.1l-0.1-0.1l-5.6-3.3l-0.1-0.1v-0.1c0-2.9,0.1-5.2,0.1-7l0.1-1.9C371.4,316.6,371.4,316.4,371.5,316.1
		c0,0.2,0,0.5,0,0.7c0,0.5,0,1.1,0,1.9c0,1.7,0.1,4,0.1,6.9l-0.1-0.2l5.6,3.2h-0.2l6.4-3.2l0.2-0.1l-0.2,0.2c0-3.9,0-7.5,0-10.7
		l0.3,0.2c-3.6,0.3-6.6,0.6-8.8,0.7l-2.5,0.2C372,316.1,371.7,316.1,371.5,316.1z"/>
	<path class="st0" d="M397.4,313.6c0.3-0.1,0.5-0.1,0.8-0.1l2.5-0.3c2.1-0.3,5.2-0.6,8.9-1h0.3v0.3c0,3.1,0,6.8,0,10.6v0.2l-0.2,0.1
		l-0.2,0.1l-6.4,3.2H403l-0.1-0.1l-5.6-3.3l-0.1-0.1v-0.1c0-2.9,0.1-5.2,0.1-7v-1.9c0-0.2,0-0.4,0-0.6c0,0.2,0,0.5,0,0.7
		c0,0.5,0,1.1,0,1.9c0,1.7,0.1,4,0.1,6.9l-0.1-0.2l5.6,3.2h-0.1l6.4-3.2l0.2-0.1l-0.2,0.2c0-3.9,0-7.5,0-10.6l0.3,0.2
		c-3.6,0.3-6.6,0.6-8.8,0.7l-2.5,0.2C397.9,313.6,397.7,313.6,397.4,313.6z"/>
	<path class="st0" d="M383.9,317.6c-4.1,0.5-8.3,0.7-12.4,0.6c2-0.4,4.1-0.5,6.2-0.5C379.7,317.5,381.8,317.5,383.9,317.6z"/>
	<path class="st0" d="M409.6,315.3c-4,0.6-8.1,1-12.2,0.9c2-0.4,4-0.7,6.1-0.7C405.5,315.2,407.5,315.2,409.6,315.3z"/>
	<path class="st0" d="M381.8,389c-4,0.8-8,1.3-12.1,1.5C373.7,389.6,377.7,389.1,381.8,389z"/>
	<path class="st0" d="M423.9,377.5c0,0.1-2.9,1.2-6.2,3s-5.7,3.8-5.8,3.7c0.4-0.5,0.9-1,1.5-1.4c1.3-1,2.7-1.9,4.1-2.7
		c1.4-0.8,2.9-1.5,4.5-2C422.6,377.7,423.2,377.5,423.9,377.5z"/>
	<path class="st4" d="M406.7,259.7l-4.7,24.2c9.7,13.5,10.6,25,10.6,25l-52.1,4.5c1-8.2,6-25.8,6-25.8l-7.6-25.8L343.8,242l15-13.5
		c-0.3,0.8,14.1,9.1,14.1,9.1l20.7,0.2c1,0.1,2,0.3,3,0.6l10.1-26.2c0,0,7.8,11.5,5.2,25.6C410,247.7,410.3,250.1,406.7,259.7"/>
	<path class="st0" d="M368.9,241.3c0.3,0.3,0.6,0.6,0.8,0.9c0.6,0.9,1.1,1.8,1.6,2.8c0.6,1.5,0.9,3.1,1,4.7c0.1,2-0.3,4-1.2,5.8
		c-0.9,1.8-2.3,3.3-4,4.3c-1.4,0.8-3,1.2-4.7,1.3c-1.1,0-2.2-0.2-3.2-0.6c-0.3-0.1-0.5-0.3-0.8-0.4c-0.2-0.1-0.3-0.2-0.3-0.2
		c1.3,0.6,2.8,0.9,4.2,0.8c1.6-0.1,3.1-0.5,4.4-1.3c1.6-1,2.9-2.4,3.8-4.2c0.9-1.7,1.3-3.6,1.2-5.5c0-1.6-0.3-3.1-0.9-4.6
		C370.3,243.9,369.6,242.6,368.9,241.3z"/>
	<path class="st0" d="M404.9,258.9c-0.1,0,0.4-1,0.8-2.6c1.1-4.2,0.8-8.7-1-12.7c-0.7-1.5-1.3-2.4-1.2-2.4s0.2,0.2,0.5,0.6
		c0.4,0.5,0.7,1.1,1,1.7c1,2,1.6,4.1,1.8,6.4c0.2,2.2-0.1,4.5-0.8,6.6c-0.2,0.6-0.5,1.3-0.8,1.9C405,258.7,404.9,258.9,404.9,258.9z
		"/>
	<g class="st17">
		<path d="M397.9,282.4c-0.6-0.5-1.4-0.6-2.1-0.3c-1.1,0.4-2.3,0.6-3.5,0.7c-2.2,0-4.2-1.2-6.3-2.1s-4.7-1.2-6.3,0.3
			c-1.2,1.2-1.4,3-0.5,4.5c0.5,0.7,1.3,1.2,2.2,1.4l0,0c5.2,1.5,9.7,0.4,14.8-1.6c0.6-0.2,1.2-0.6,1.7-1
			C398.3,283.7,398.3,283,397.9,282.4z"/>
	</g>
	<g class="st17">
		<path d="M359.7,228.3c-2.3,2.7-3.4,6.2-3.2,9.7c0.3,3.5,2.7,6.9,6.1,7.8c2.3,0.6,4.8,0.1,7.1,0.8c4.2,1.4,6.4,6.9,10.8,7.3
			c4,0.4,6.9-3.7,10.6-5.1c2-0.6,4-1,6.1-1.2c4.2-0.7,8.4-2.7,10.9-6.2s2.9-8.6,0.3-12c-2.8-3.7-7.8-4.6-12.4-4.6
			c-6.9,0-13.8,1.4-20.2,4.1c-1.4,0.5-2.7,1.3-3.8,2.3c-1.2,1-1.8,2.4-1.8,3.9"/>
	</g>
	<path class="st0" d="M419.2,225.5c-0.3-1.9-1.5-3.4-3.2-4.1c-2-0.8-4.4-0.2-6.3-1.1c-2.5-1.1-3.5-4-4.1-6.6s-1.2-5.5-3.3-7.1
		c-1.5-1.1-3.4-1.5-5-2.5c-2.3-1.4-3.6-4.1-5.2-6.3c-0.6-0.9-1.3-1.6-2.1-2.3l-0.1-0.1c-3.4-4.1-12.4-4.6-16.3-1l0.2-0.1
		c-7.3,0.6-11.9,12.3-12,19.8c0,4.6,1.5,9.5-0.3,13.8c-1,2.5-3.1,4.5-3.8,7.1c-1.3,4.2,1.1,8.6,5.3,9.8c3.2,1,6.6-0.2,8.6-2.8
		c-0.1,1.9,1.5,3.6,3.2,4.2c1.8,0.5,3.7,0.6,5.6,0.3c4-0.3,8.7-1,10.8-4.5c1.4,2.1,4.1,2.9,6.6,2.8c2.4-0.1,4.9-0.5,7.1-1.5
		c-0.1-0.1-0.2-0.3-0.3-0.4c0.4-0.1,0.7-0.3,1.1-0.5c1.9-1.2,3.1-3.7,2.2-5.8l2.2,2.5c3.8-2.2,5.4-6.9,3.6-11
		c1.3,0.5,2.4,1.3,3.4,2.3C418.6,229.2,419.4,227.4,419.2,225.5z"/>
	<path class="st2" d="M418.3,228.6c0.1-0.8,0-1.7-0.5-2.4c-0.5-0.8-1.2-1.5-2.1-1.9c-1.2-0.5-2.4-0.8-3.7-0.9
		c-1.6-0.1-3.2-0.4-4.6-1c-0.8-0.4-1.6-0.9-2.1-1.7c-0.6-0.8-1-1.6-1.3-2.5c-0.6-1.8-0.8-3.9-1.4-5.8c-0.3-1-0.8-1.9-1.4-2.7
		s-1.5-1.4-2.5-1.6c-1-0.3-2.1-0.2-3.2-0.4s-2.1-0.7-2.9-1.6c-1.5-1.6-2.1-3.6-2.8-5.3c-0.5-1.7-1.5-3.2-2.7-4.5
		c-2.7-2.8-6.7-3.9-10.4-2.9c-0.8,0.2-1.6,0.5-2.3,0.8c0.2-0.1,0.4-0.2,0.6-0.3c0.6-0.3,1.1-0.5,1.7-0.7c2.2-0.7,4.6-0.6,6.8,0.2
		c1.5,0.6,2.9,1.4,4,2.6c1.3,1.3,2.3,2.9,2.8,4.6c0.7,1.8,1.3,3.7,2.7,5.1c0.7,0.7,1.6,1.2,2.6,1.4s2.1,0.2,3.2,0.4
		c1.1,0.3,2.1,0.9,2.8,1.8c0.7,0.9,1.1,1.9,1.4,2.9c0.6,2,0.8,4,1.3,5.8c0.4,1.7,1.6,3.2,3.1,4c1.4,0.6,3,0.9,4.5,1
		c1.3,0.1,2.6,0.5,3.8,1c0.9,0.4,1.7,1.1,2.2,2c0.3,0.6,0.5,1.2,0.4,1.8C418.4,228.2,418.4,228.4,418.3,228.6z"/>
	<path class="st2" d="M405.5,243c0,0,0.2-0.1,0.5-0.3c0.5-0.4,0.8-0.9,1-1.5c0.3-0.9,0.2-1.9-0.2-2.8c-0.6-1.1-1.5-2-2.7-2.7
		c-1.2-0.8-2.7-1.3-4.1-2.3c-0.8-0.5-1.4-1.1-2-1.8c-0.6-0.8-1-1.7-1.3-2.6c-0.4-2-0.7-4-0.8-6c-0.3-2-0.9-4.2-2.7-5.4
		s-4-1.6-5.6-3.2c-1.3-1.6-2.2-3.5-2.4-5.5c-0.3-1.9-0.4-3.7-0.9-5.3c-0.4-1.5-1.1-2.9-2-4.2c-1.4-1.8-3.2-3.2-5.3-4.1
		c-1.5-0.6-2.4-0.7-2.4-0.8c0.2,0,0.4,0,0.6,0.1c0.6,0.1,1.2,0.3,1.8,0.5c2.2,0.9,4,2.3,5.5,4.1c1,1.3,1.7,2.7,2.1,4.3
		c0.5,1.7,0.6,3.5,0.9,5.4c0.2,1.9,1,3.8,2.3,5.3c1.4,1.5,3.6,1.8,5.5,3.1c0.9,0.7,1.6,1.6,2.1,2.6c0.4,1,0.7,2.1,0.8,3.1
		c0.1,2,0.3,4,0.7,5.9c0.2,0.9,0.6,1.7,1.2,2.4c0.5,0.7,1.2,1.2,1.9,1.7c1.4,0.9,2.9,1.5,4.1,2.3c1.2,0.7,2.1,1.7,2.7,2.9
		c0.4,0.9,0.5,2,0.1,3c-0.2,0.6-0.6,1.1-1.1,1.5C405.9,242.9,405.7,242.9,405.5,243z"/>
	<path class="st2" d="M381.4,245.2c0.4-0.6,0.7-1.3,0.7-2c0-0.8-0.2-1.6-0.5-2.4c-0.4-0.9-1-1.8-1.5-3c-0.6-1.2-0.8-2.7-0.4-4
		c0.5-1.5,1.1-2.9,1.8-4.3c0.8-1.5,1.3-3.1,1.3-4.8c0-1.8-0.7-3.5-1.8-4.9c-1.1-1.5-2.5-2.7-3.5-4.2c-0.5-0.7-1-1.5-1.3-2.3
		s-0.5-1.7-0.5-2.5c-0.1-1.6,0.1-3.1,0.4-4.6c0.3-1.3,0.4-2.7,0.6-4c0.2-1.9-0.1-3.9-1.1-5.6c-0.4-0.6-0.8-1.1-1.3-1.6
		c0.2,0.1,0.3,0.2,0.5,0.3c0.4,0.3,0.8,0.7,1.1,1.2c1,1.7,1.5,3.7,1.3,5.7c-0.1,1.3-0.3,2.7-0.5,4c-0.3,1.5-0.4,3-0.3,4.5
		c0.1,0.8,0.2,1.6,0.5,2.4c0.3,0.8,0.7,1.5,1.2,2.2c1,1.4,2.4,2.6,3.5,4.2c1.2,1.5,1.8,3.3,1.8,5.2c0,1.8-0.5,3.5-1.4,5
		c-0.8,1.3-1.4,2.7-1.8,4.2c-0.3,1.3-0.2,2.6,0.3,3.8c0.5,1.1,1.1,2.1,1.5,3c0.3,0.8,0.5,1.7,0.5,2.5c0,0.5-0.2,1.1-0.5,1.5
		C381.6,244.9,381.5,245.1,381.4,245.2z"/>
	<path class="st2" d="M363.8,244.4c-0.1-0.1-0.2-0.3-0.3-0.5c-0.2-0.5-0.2-1.1,0-1.6c0.3-0.8,0.8-1.5,1.5-2.1
		c0.9-0.6,1.8-1.3,2.6-2.1c0.9-1,1.4-2.2,1.6-3.5c0.2-1.5-0.1-3-0.7-4.4c-0.8-1.6-1.1-3.3-1-5.1c0.4-1.8,1-3.6,1.9-5.3
		c0.9-1.6,1.3-3.4,1.3-5.2c-0.2-1.7-0.5-3.4-1.1-5c-0.9-2.8-1-5.9-0.2-8.7c0.6-1.9,1.7-3.6,3.3-4.9c0.4-0.3,0.9-0.6,1.4-0.9
		c0.2-0.1,0.3-0.2,0.5-0.2c-0.6,0.4-1.2,0.8-1.8,1.2c-1.5,1.3-2.5,3-3,4.8c-0.7,2.8-0.6,5.7,0.3,8.5c0.6,1.6,1,3.3,1.1,5.1
		c0,1.9-0.5,3.8-1.4,5.4c-0.9,1.6-1.5,3.3-1.9,5.1c-0.1,1.7,0.3,3.4,1,4.9c0.3,0.8,0.5,1.5,0.7,2.3c0.1,0.8,0.1,1.6,0,2.3
		c-0.2,1.4-0.9,2.7-1.8,3.7c-0.8,0.8-1.7,1.5-2.7,2.1c-0.7,0.5-1.2,1.1-1.5,1.9c-0.2,0.5-0.2,1-0.1,1.5
		C363.7,244.2,363.9,244.4,363.8,244.4z"/>
</g>
</svg>
