<?xml version="1.0" encoding="utf-8"?>
<!-- Generator: Adobe Illustrator 24.2.1, SVG Export Plug-In . SVG Version: 6.00 Build 0)  -->
<svg version="1.1" id="Layer_1" xmlns="http://www.w3.org/2000/svg" xmlns:xlink="http://www.w3.org/1999/xlink" x="0px" y="0px"
	 viewBox="0 0 500 500" style="enable-background:new 0 0 500 500;" xml:space="preserve">
<style type="text/css">
	.st0{fill:#d4e4ec;}
	.st1{fill:#ecf2f7;}
	.st2{fill:#dde9f2;}
	.st3{fill:#FFFFFF;}
	.st4{fill:#263238;}
	.st5{fill:#455A64;}
	.st6{fill:#15ABEA;}
	.st7{opacity:0.1;}
	.st8{opacity:0.2;}
	.st9{fill:#0F78A4;}
	.st10{opacity:0.3;}
	.st11{opacity:0.5;}
	.st12{fill:#FFBF9D;}
	.st13{fill:#FF9A6C;}
</style>
<g id="freepik--background-complete--inject-2">
	<path class="st0" d="M150.5,390.8c-0.1,0.1-0.6-0.3-1.2-0.7s-1.1-1-1-1s0.6,0.3,1.2,0.8S150.5,390.7,150.5,390.8z"/>
	<path class="st1" d="M167.3,365.6c0.2-2.3,0-4.7-0.6-7c-0.6-2.3-2.4-4.1-4.7-4.8c-2.6-0.5-5.3,1.1-6.8,3.4s-2,5-2.4,7.6
		c-3,18.3-4.1,36.8-3.3,55.3l10.8,1.5C164.9,402.4,166.4,385.5,167.3,365.6z"/>
	<path class="st0" d="M160.4,353.8c0,0,0,0.1,0,0.2s-0.1,0.3-0.2,0.5c-0.2,0.5-0.4,1.1-0.7,1.9c-0.1,0.4-0.4,0.9-0.5,1.4
		s-0.3,1-0.5,1.6s-0.4,1.2-0.6,1.9l-0.6,2.1c-0.9,3.5-1.6,7.1-2.1,10.7c-0.6,4-1,8.5-1.3,13.2c-0.6,9.4-0.6,18-0.9,24.2
		c-0.1,3.1-0.2,5.6-0.3,7.3c-0.1,0.8-0.1,1.5-0.1,2c0,0.2,0,0.4,0,0.5s0,0.2,0,0.2c0-0.1,0-0.1,0-0.2c0-0.1,0-0.3,0-0.5
		c0-0.5,0-1.1,0.1-2c0.1-1.7,0.1-4.2,0.2-7.3c0.2-6.2,0.2-14.7,0.8-24.2c0.3-4.7,0.7-9.2,1.3-13.3c0.5-3.6,1.2-7.2,2.2-10.7
		c0.2-0.8,0.4-1.5,0.6-2.1s0.4-1.3,0.6-1.9s0.4-1.1,0.6-1.6s0.4-0.9,0.5-1.3l0.8-1.8l0.2-0.5V353.8z"/>
	<path class="st0" d="M161.4,353.8c0.6,0.7,1,1.4,1.3,2.2c0.8,2.2,1.2,4.6,1,7c-0.3,5.9-0.8,14.1-1.5,23.2s-1.5,17.2-2.1,23.1
		c-0.3,3-0.6,5.3-0.8,7l-0.2,1.9c0,0.2-0.1,0.4-0.1,0.5s0,0.2,0,0.2v-0.2v-0.5c0-0.5,0.1-1.1,0.2-1.9l0.7-7c0.6-5.9,1.3-14.1,2-23.1
		s1.3-17.2,1.6-23.1c0.2-2.3-0.1-4.7-0.9-6.9C162.3,355.3,161.9,354.6,161.4,353.8z"/>
	<path class="st0" d="M168.9,381.7c-0.7-0.1-1.4-0.2-2-0.5c-0.7-0.2-1.3-0.5-1.9-0.9C166.4,380.5,167.7,381,168.9,381.7L168.9,381.7
		z"/>
	<path class="st0" d="M170.2,370.7c-0.6,0.5-1.2,0.8-1.9,1.1c-0.7,0.4-1.4,0.6-2.1,0.7C167.4,371.7,168.7,371.1,170.2,370.7
		L170.2,370.7z"/>
	<path class="st0" d="M169.5,361.8c-0.5,0.2-1.1,0.2-1.6,0.1c-0.9-0.1-1.6-0.2-1.6-0.3C167.4,361.3,168.5,361.4,169.5,361.8
		L169.5,361.8z"/>
	<path class="st0" d="M158.4,356c-0.1,0.1-0.6-0.5-1.1-1.3s-0.8-1.5-0.7-1.5s0.6,0.5,1,1.3S158.5,356,158.4,356z"/>
	<path class="st0" d="M154.8,361.4c-0.5,0.2-1,0.2-1.5,0.2c-0.9,0-1.5-0.1-1.5-0.2c0.5-0.2,1-0.2,1.5-0.2
		C154.1,361.2,154.8,361.3,154.8,361.4z"/>
	<path class="st0" d="M152.1,372.3c-0.6,0-1.1-0.2-1.6-0.4c-0.9-0.3-1.5-0.7-1.5-0.8c0.6,0,1.1,0.2,1.6,0.4
		C151.5,371.8,152.2,372.1,152.1,372.3z"/>
	<path class="st0" d="M151.9,381.4c0,0.1-0.6,0.3-1.4,0.5c-0.5,0.2-1,0.2-1.5,0.2c0-0.1,0.6-0.3,1.4-0.5S151.8,381.3,151.9,381.4z"
		/>
	<path class="st0" d="M150.6,396.3c0,0.1-0.6,0.3-1.4,0.5c-0.5,0.1-1,0.2-1.5,0.1c0-0.1,0.6-0.3,1.4-0.5S150.6,396.1,150.6,396.3z"
		/>
	<path class="st0" d="M149.8,404.5c0.1,0.1-0.5,0.5-1.2,0.9s-1.3,0.6-1.4,0.5s0.5-0.5,1.2-0.9S149.7,404.4,149.8,404.5z"/>
	<path class="st0" d="M156.5,413.8c-0.1,0.1-0.6-0.6-1.1-1.5c-0.4-0.5-0.6-1.1-0.7-1.6c0.1,0,0.6,0.6,1.1,1.5
		C156.1,412.6,156.4,413.2,156.5,413.8z"/>
	<path class="st0" d="M158.4,398.3c0.1,0.1-0.4,0.7-1.2,1.4s-1.4,1.2-1.4,1.1s0.5-0.7,1.2-1.4C157.4,399,157.9,398.6,158.4,398.3z"
		/>
	<path class="st0" d="M158,390.2c-0.1,0.1-0.6-0.3-1.1-0.9s-0.9-1.1-0.8-1.1s0.6,0.3,1.1,0.9S158.1,390.1,158,390.2z"/>
	<path class="st0" d="M159.3,379.8c0.1,0.1-0.4,0.7-1,1.4s-1.2,1.2-1.3,1.1s0.4-0.7,1-1.4S159.3,379.7,159.3,379.8z"/>
	<path class="st0" d="M160.1,372.2c-0.1,0.1-0.7-0.4-1.4-1.1s-1.2-1.3-1.1-1.3s0.7,0.4,1.4,1.1S160.2,372.1,160.1,372.2z"/>
	<path class="st0" d="M161.6,362c-0.1,0.6-0.3,1.1-0.7,1.5c-0.5,0.8-0.9,1.4-1,1.3s0.2-0.7,0.7-1.5S161.5,362,161.6,362z"/>
	<path class="st0" d="M164.3,352.6c-0.1,0.5-0.3,1.1-0.6,1.5c-0.4,0.8-0.9,1.4-0.9,1.4s0.2-0.7,0.6-1.5S164.2,352.5,164.3,352.6z"/>
	<path class="st0" d="M167.5,356.9c0.1,0.1-0.4,0.4-1,0.7s-1.1,0.4-1.1,0.3s0.4-0.4,1-0.7S167.4,356.8,167.5,356.9z"/>
	<path class="st0" d="M167.6,390.8c-0.7,0-1.5-0.2-2.1-0.5c-0.7-0.2-1.3-0.6-1.8-1.2c0.7,0.2,1.4,0.5,2,0.8
		C166.3,390.2,166.9,390.4,167.6,390.8z"/>
	<path class="st0" d="M166.3,398c0,0.1-0.6,0.3-1.4,0.5s-1.5,0.2-1.5,0.1s0.6-0.3,1.4-0.5S166.2,397.9,166.3,398z"/>
	<path class="st0" d="M164.7,410.3c-0.7-0.3-1.2-0.8-1.6-1.4c-0.5-0.5-0.8-1.2-1-1.9C162.9,408.1,163.8,409.2,164.7,410.3
		L164.7,410.3z"/>
	<path class="st0" d="M147.4,416c-0.1-0.1,0.4-0.6,1-1.1s1.2-0.9,1.2-0.8s-0.4,0.6-1,1.1S147.5,416,147.4,416z"/>
	<path class="st1" d="M142.4,389c-0.7-2.2-2-4.7-4.3-4.8c-1.4,0.1-2.6,0.9-3.2,2.2c-0.6,1.2-0.9,2.6-0.9,4c0.3,9.7,2,19.4,5,28.6
		h8.4C147.3,408.9,145.6,398.7,142.4,389z"/>
	<path class="st1" d="M127.2,375.3c-0.9-4.2-4.5-7.3-8.7-7.5c-3.7,0.6-5.2,4.3-5.6,8s0.7,7.5,1.9,11.1c3.7,11.5,7.4,23,11.1,34.6
		l10.4-1.1C133,404.9,131.1,390.6,127.2,375.3z"/>
	<path class="st0" d="M138.1,384.3c-0.3,0.4-0.5,0.8-0.7,1.2c-0.4,1.2-0.6,2.5-0.4,3.7c0.2,1.6,0.4,3.5,0.6,5.6s0.6,4.4,1.1,6.8
		c0.9,4.8,2,9.2,2.7,12.3c0.3,1.6,0.6,2.9,0.8,3.8c0.1,0.4,0.1,0.7,0.2,1c0,0.1,0,0.2,0,0.4c0,0-0.1-0.1-0.1-0.3l-0.3-1
		c-0.2-0.9-0.5-2.2-0.9-3.7c-0.7-3.1-1.9-7.5-2.8-12.3c-0.5-2.4-0.8-4.7-1.1-6.9c-0.1-1.1-0.2-2.1-0.3-3s-0.2-1.8-0.2-2.6
		c-0.1-1.3,0-2.6,0.5-3.8C137.4,385,137.7,384.6,138.1,384.3z"/>
	<path class="st0" d="M118.7,367.5c-0.5,0.5-0.9,1.1-1.3,1.7c-1,1.7-1.5,3.5-1.6,5.5c0,2.9,0.4,5.7,1.3,8.4c0.9,3.1,1.9,6.5,3,10.1
		c2.1,7.2,4,13.6,5.3,18.4c0.7,2.3,1.2,4.2,1.6,5.6c0.2,0.6,0.3,1.1,0.4,1.5c0.1,0.2,0.1,0.4,0.1,0.5c-0.1-0.2-0.1-0.3-0.2-0.5
		l-0.5-1.5c-0.4-1.4-1-3.2-1.7-5.5c-1.4-4.7-3.3-11.2-5.4-18.4c-1-3.6-2-7-3-10.1c-0.9-2.8-1.3-5.6-1.2-8.5c0.1-2,0.7-3.9,1.7-5.5
		C117.6,368.5,118.1,368,118.7,367.5z"/>
	<path class="st0" d="M134,419.3c-0.1-0.2-0.2-0.3-0.2-0.5c-0.1-0.3-0.4-0.8-0.6-1.5c-0.5-1.3-1.1-3.2-1.8-5.5s-1.3-5.2-2-8.4
		s-1.3-6.7-2-10.4s-1.5-7.2-2.5-10.3c-0.8-2.7-1.8-5.4-3-8c-0.8-1.8-1.8-3.5-2.8-5.1c-0.4-0.6-0.7-1-0.9-1.3
		c-0.1-0.1-0.2-0.3-0.3-0.5c0.1,0.1,0.3,0.3,0.4,0.4c0.2,0.3,0.6,0.7,0.9,1.3c1.1,1.6,2.1,3.3,2.9,5c1.3,2.6,2.3,5.3,3.1,8.1
		c1,3.4,1.8,6.8,2.5,10.3c0.7,3.7,1.3,7.2,1.9,10.4s1.2,6,1.9,8.4s1.2,4.3,1.7,5.6c0.2,0.6,0.4,1.1,0.5,1.5
		C133.9,418.9,133.9,419.1,134,419.3z"/>
	<path class="st0" d="M115,385.2c0,0.1-0.5,0.3-1.3,0.5s-1.3,0.2-1.4,0.1s0.5-0.3,1.3-0.5S114.9,385.1,115,385.2z"/>
	<path class="st0" d="M113.8,378.1c-0.6,0.2-1.2,0.2-1.8,0.2c-0.6,0.1-1.2,0.1-1.8,0C111.5,377.8,112.7,377.8,113.8,378.1z"/>
	<path class="st0" d="M115,371.6c-0.1,0.1-0.6-0.3-1.3-0.8s-1.1-1-1-1.1s0.6,0.3,1.3,0.8S115.1,371.5,115,371.6z"/>
	<path class="st0" d="M118.2,365.5c0.1,0,0.1,0.5,0.1,1.1s0,1.1-0.1,1.1s-0.3-0.5-0.3-1.1S118.1,365.5,118.2,365.5z"/>
	<path class="st0" d="M124.7,368.4c0.1,0.1-0.2,0.6-0.6,1.1s-0.8,1-0.9,0.9s0.2-0.6,0.6-1.1S124.6,368.3,124.7,368.4z"/>
	<path class="st0" d="M129,375.7c0,0.1-0.5,0.4-1.2,0.7s-1.3,0.4-1.4,0.3s0.5-0.4,1.2-0.7S128.9,375.6,129,375.7z"/>
	<path class="st0" d="M131.5,383.3c-0.5,0.4-1,0.6-1.7,0.7c-0.6,0.2-1.2,0.2-1.8,0.1c0.6-0.2,1.1-0.4,1.7-0.4
		C130.3,383.4,130.9,383.3,131.5,383.3z"/>
	<path class="st0" d="M119.8,381.1c-0.1,0,0-0.5,0.2-1.2s0.4-1.1,0.5-1s0,0.5-0.2,1.2S119.8,381.2,119.8,381.1z"/>
	<path class="st0" d="M121.4,390.6c0-0.6,0.2-1.1,0.5-1.6c0.4-0.8,0.7-1.5,0.8-1.4c0,0.6-0.2,1.1-0.5,1.6
		C121.9,390,121.5,390.6,121.4,390.6z"/>
	<path class="st0" d="M117.3,393.2c0,0.1-0.7-0.1-1.5-0.3c-0.5-0.1-1-0.3-1.4-0.6c0.5-0.1,1.1,0,1.5,0.2
		C116.8,392.8,117.4,393.1,117.3,393.2z"/>
	<path class="st0" d="M119.7,400.9c0.1,0.1-0.4,0.5-1,1s-1.2,0.7-1.2,0.6s0.4-0.5,1-1S119.6,400.9,119.7,400.9z"/>
	<path class="st0" d="M121.6,408.6c0,0.1-0.5,0.3-1.2,0.5s-1.3,0.2-1.3,0.1s0.5-0.3,1.2-0.5S121.5,408.5,121.6,408.6z"/>
	<path class="st0" d="M131.7,389.7c0.1,0.1-0.4,0.5-1.1,0.7s-1.3,0.3-1.3,0.2s0.5-0.3,1.2-0.5S131.7,389.6,131.7,389.7z"/>
	<path class="st0" d="M133.2,401.7c-0.1,0.1-0.6-0.1-1.3-0.4s-1.1-0.6-1.1-0.7s0.6,0.1,1.3,0.4S133.2,401.6,133.2,401.7z"/>
	<path class="st0" d="M135.8,410.3c-0.6,0-1.2-0.2-1.7-0.5c-0.9-0.3-1.6-0.7-1.5-0.8c0.6,0,1.1,0.2,1.7,0.4
		C135.1,409.8,135.8,410.2,135.8,410.3z"/>
	<path class="st0" d="M122,417c0-0.1,0.6-0.6,1.4-1.2s1.4-1.2,1.5-1.1s-0.4,0.8-1.3,1.4C123.2,416.6,122.6,416.9,122,417z"/>
	<path class="st0" d="M128.8,412.6c-0.1,0-0.3-0.6-0.5-1.2s-0.5-1.2-0.4-1.3s0.5,0.4,0.8,1.1S128.9,412.6,128.8,412.6z"/>
	<path class="st0" d="M127,402.3c-0.1,0.1-0.5-0.1-1-0.5s-0.8-0.7-0.8-0.8s0.5,0.1,1,0.5S127,402.2,127,402.3z"/>
	<path class="st0" d="M142.8,386.1c0.1,0.1-0.4,0.5-0.9,0.9s-1.1,0.7-1.2,0.6s0.4-0.5,1-0.9S142.7,386.1,142.8,386.1z"/>
	<path class="st0" d="M145.1,392.7c-0.5,0.2-1,0.3-1.5,0.1c-0.8-0.1-1.4-0.4-1.4-0.5c0.5-0.1,1,0,1.5,0.1
		C144.5,392.5,145.1,392.6,145.1,392.7z"/>
	<path class="st0" d="M134.9,394.1c0,0.1-0.6,0.3-1.4,0.4s-1.4-0.1-1.4-0.2s0.6-0.1,1.4-0.2S134.9,394,134.9,394.1z"/>
	<path class="st0" d="M135.8,388c0,0.1-0.6,0.1-1.3-0.2s-1.1-0.8-1-0.9s0.6,0.2,1.2,0.5S135.8,387.9,135.8,388z"/>
	<path class="st0" d="M146,399.7c-0.1,0.1-0.7-0.2-1.4-0.7s-1.3-0.9-1.2-1s0.7,0.2,1.4,0.7S146.1,399.6,146,399.7z"/>
	<rect x="116.4" y="418" class="st0" width="54.7" height="9.7"/>
	<polygon class="st0" points="120.4,425.7 127.1,454.7 159.7,454.7 166.9,425.7 	"/>
	<path class="st1" d="M171,427.7c0,0.1-12.3,0.2-27.5,0.2s-27.5-0.1-27.5-0.2s12.3-0.2,27.5-0.2S171,427.5,171,427.7z"/>
	<path class="st0" d="M140.6,394.3c-0.1,0.1-0.5-0.4-0.8-1s-0.6-1.1-0.5-1.2s0.5,0.4,0.8,1S140.7,394.3,140.6,394.3z"/>
	<path class="st0" d="M140.6,402.1c0-0.5,0.1-1,0.3-1.5c0.3-0.8,0.6-1.4,0.6-1.4s0,0.7-0.3,1.5S140.7,402.2,140.6,402.1z"/>
	<path class="st0" d="M143.3,410.3c-0.1,0-0.5-0.6-0.9-1.5c-0.3-0.5-0.5-1.1-0.6-1.6C142.5,408.1,143,409.2,143.3,410.3z"/>
	<path class="st0" d="M137.5,416.9c-0.1-0.1,0.3-0.6,0.7-1.1s0.9-1,1-0.9s-0.3,0.6-0.7,1.1S137.6,417,137.5,416.9z"/>
	<path class="st0" d="M136.3,405c0,0.1-0.5,0.1-1.2,0s-1.1-0.3-1.1-0.4s0.5-0.1,1.2,0S136.3,404.9,136.3,405z"/>
	<polygon class="st1" points="310.8,431.1 302.5,454.9 306.6,454.9 321.2,431.1 	"/>
	<polygon class="st1" points="358.5,431.1 366.8,454.9 362.6,454.9 348.1,431.1 	"/>
	<rect x="311.8" y="365.3" class="st0" width="66.4" height="66.4"/>
	<rect x="291" y="365.3" class="st1" width="66.4" height="66.4"/>
	<path class="st0" d="M353.1,427.6h-57.8v-57.8h57.8V427.6z M296.4,426.6h55.8v-55.8h-55.8V426.6z"/>
	<path class="st0" d="M296.2,388.3c18.7,0.5,37.7,0.4,56.4,0c0.1,0,0.2-0.2,0.2-0.3c0-0.1-0.1-0.2-0.2-0.2
		c-18.8-0.4-37.7-0.5-56.4,0c-0.1,0-0.2,0.2-0.2,0.3C296,388.1,296.1,388.2,296.2,388.3L296.2,388.3z"/>
	<path class="st0" d="M325.9,379.7c0,0.9-0.7,1.6-1.6,1.6c-0.9,0-1.6-0.7-1.6-1.6c0-0.9,0.7-1.6,1.6-1.6c0,0,0,0,0,0
		C325.1,378.1,325.8,378.8,325.9,379.7z"/>
	<path class="st1" d="M302.6,405.6c0,0.9-0.7,1.6-1.6,1.6c-0.9,0-1.6-0.7-1.6-1.6c0-0.9,0.7-1.6,1.6-1.6c0,0,0,0,0,0
		C301.9,404,302.6,404.7,302.6,405.6z"/>
	<rect x="414.8" y="312.9" class="st2" width="53.5" height="41.3"/>
	<path class="st0" d="M468.3,354.1c0,0,0-0.3,0-0.8s0-1.3,0-2.2c0-2,0-4.8-0.1-8.4c0-7.2-0.1-17.5-0.1-29.9l0.2,0.2h-53.5
		c-0.1,0.1,0.5-0.5,0.3-0.3l0,0v11c0,3.6,0,7.1,0,10.6c0,6.9,0,13.5,0,19.7l-0.2-0.2l38.6,0.1l11,0.1h2.9h0.6L468.3,354.1l-0.3-0.1
		h-0.7h-2.9l-10.9,0.1l-38.7,0.1h-0.2V354c0-6.2,0-12.8,0-19.7c0-3.5,0-7,0-10.6v-11l0,0l0.3-0.3l53.5,0h0.2v0.2
		c0,12.5-0.1,22.8-0.1,30c0,3.6,0,6.4-0.1,8.3c0,0.9,0,1.7,0,2.2S468.3,354.1,468.3,354.1z"/>
	<path class="st0" d="M454.9,354.1c0,0-0.1-9.2-0.1-20.5s0-20.5,0.1-20.5s0.1,9.2,0.1,20.5S455,354.1,454.9,354.1z"/>
	<rect x="459.7" y="345" class="st3" width="4.1" height="4.6"/>
	<rect x="431.1" y="313.2" class="st0" width="6.1" height="8.8"/>
	<rect x="431.1" y="345.4" class="st0" width="6.1" height="8.8"/>
	<rect x="389.6" y="338.4" class="st2" width="37.6" height="29"/>
	<path class="st0" d="M427.2,367.4c0-0.2,0-0.4,0-0.5c0-0.4,0-0.9,0-1.6c0-1.4,0-3.4,0-5.9c0-5.1-0.1-12.3-0.1-21l0.2,0.2l-37.6,0
		l0.3-0.3l0,0v7.7c0,2.5,0,5,0,7.4c0,4.9,0,9.5,0,13.8l-0.2-0.2l27.1,0.1l7.7,0.1h2.1L427.2,367.4L427.2,367.4l-0.6-0.1h-2l-7.7,0.1
		l-27.2,0.1h-0.2v-0.2c0-4.3,0-9,0-13.8v-15l0,0l0.3-0.3h37.6h0.2v0.2c0,8.8-0.1,16-0.1,21.1c0,2.5,0,4.5,0,5.8c0,0.6,0,1.1,0,1.5
		C427.3,367,427.3,367.2,427.2,367.4z"/>
	<path class="st0" d="M417.8,367.1c0,0-0.1-6.5-0.1-14.4s0-14.4,0.1-14.4s0.1,6.5,0.1,14.4S417.8,367.1,417.8,367.1z"/>
	<rect x="421.1" y="360.8" class="st3" width="2.9" height="3.3"/>
	<rect x="401.1" y="338.4" class="st0" width="4.3" height="6.2"/>
	<rect x="401.1" y="361.1" class="st0" width="4.3" height="6.2"/>
	<path class="st2" d="M101.8,334.4c2.3,15.5-8.5,30-24,32.2c-15.5,2.3-30-8.5-32.2-24c-2.3-15.5,8.5-30,24-32.2c0,0,0,0,0,0
		C85.1,308.1,99.5,318.8,101.8,334.4C101.8,334.3,101.8,334.3,101.8,334.4z"/>
	<path class="st1" d="M95.1,335.3c1.7,11.8-6.4,22.8-18.3,24.6s-22.8-6.4-24.6-18.3c-1.7-11.8,6.4-22.8,18.3-24.6c0,0,0,0,0.1,0
		C82.4,315.3,93.4,323.5,95.1,335.3C95.1,335.3,95.1,335.3,95.1,335.3z"/>
	<path class="st0" d="M95,334.7c-0.4-0.8-0.7-1.6-0.9-2.5c-0.8-2.2-2-4.3-3.4-6.2c-1-1.3-2.1-2.5-3.4-3.5c-1.4-1.2-3-2.2-4.7-2.9
		c-0.9-0.4-1.9-0.7-2.8-1c-1-0.3-2-0.5-3.1-0.6c-1.1-0.1-2.1-0.2-3.2-0.2c-1.1,0-2.2,0.1-3.3,0.3c-1.1,0.2-2.2,0.5-3.2,0.8
		c-1,0.4-2,0.8-3,1.3c-0.9,0.5-1.8,1-2.7,1.7c-0.8,0.6-1.6,1.2-2.3,2c-1.3,1.3-2.5,2.8-3.4,4.4c-0.8,1.4-1.5,2.9-2,4.4
		c-0.7,2.3-1.1,4.6-1.1,7c0.1,0.9,0.1,1.8,0,2.7c-0.4-0.8-0.6-1.7-0.6-2.6c-0.3-2.5-0.1-5,0.6-7.4c1-3.6,2.9-6.9,5.5-9.6
		c0.8-0.8,1.6-1.5,2.4-2.1c0.9-0.7,1.8-1.3,2.8-1.8c1-0.6,2.1-1,3.2-1.4c1.1-0.4,2.3-0.7,3.5-0.9c1.2-0.2,2.4-0.3,3.6-0.3
		c1.2,0,2.3,0.1,3.5,0.2c4.2,0.6,8.1,2.4,11.3,5.2c1.3,1.1,2.5,2.4,3.5,3.8c1.4,2,2.5,4.3,3.1,6.7C95,332.9,95.1,333.8,95,334.7z"/>
	<path class="st2" d="M176.6,296.3c1.5,10.1-5.5,19.5-15.6,21s-19.5-5.5-21-15.6c-1.5-10.1,5.5-19.5,15.6-21c0,0,0,0,0,0
		C165.8,279.3,175.2,286.2,176.6,296.3C176.6,296.3,176.6,296.3,176.6,296.3z"/>
	<path class="st1" d="M172.3,297c1.1,7.7-4.2,14.8-11.9,16c-7.7,1.1-14.8-4.2-16-11.9c-1.1-7.7,4.2-14.8,11.9-16
		C164,284,171.1,289.3,172.3,297C172.3,297,172.3,297,172.3,297z"/>
	<path class="st0" d="M172.2,296.5c-0.3-0.5-0.5-1.1-0.6-1.6c-0.5-1.4-1.3-2.8-2.2-4c-1.4-1.8-3.2-3.2-5.3-4.2
		c-0.6-0.3-1.2-0.5-1.8-0.7c-0.7-0.2-1.3-0.3-2-0.4c-0.7-0.1-1.4-0.1-2.1-0.1c-0.7,0-1.5,0.1-2.2,0.2c-0.7,0.1-1.4,0.3-2.1,0.5
		c-0.7,0.2-1.3,0.5-1.9,0.8c-0.6,0.3-1.2,0.7-1.7,1.1c-0.5,0.4-1,0.8-1.5,1.3c-0.9,0.8-1.6,1.8-2.2,2.8c-0.5,0.9-1,1.9-1.3,2.9
		c-0.5,1.5-0.7,3-0.7,4.6c0.1,0.6,0.1,1.2,0,1.7c-0.3-0.5-0.4-1.1-0.4-1.7c-0.2-1.6,0-3.2,0.4-4.8c0.3-1.1,0.7-2.1,1.3-3.1
		c1-1.8,2.3-3.3,3.9-4.5c1.2-0.9,2.5-1.6,3.9-2.1c2.2-0.8,4.6-1,6.9-0.7c0.7,0.1,1.4,0.3,2.1,0.5c0.7,0.2,1.4,0.5,2,0.8
		c2.2,1,4.1,2.6,5.5,4.6c0.9,1.3,1.6,2.8,2,4.4C172.2,295.4,172.3,296,172.2,296.5z"/>
	<path class="st1" d="M419.9,28.6c-7.2-0.8-14.2,2.9-17.4,9.5c-4.9-8-15.3-10.6-23.4-5.7c-4.6,2.8-7.6,7.6-8.1,12.9
		c-6.2-4.5-14.7-3.7-19.9,1.9c-4.8,5.9-4.4,14.6,1,20c5.7,5,14.3,5,20-0.2c3.1,7.8,11.9,11.7,19.7,8.6c5-2,8.6-6.4,9.5-11.8
		c6.9,6.4,19.4,5.2,25-2.3l7.7-19.1C432.7,35.3,427.1,29.8,419.9,28.6z"/>
	<path class="st1" d="M216.1,125.3c0.5-3.5-4.5-6.4-8.2-6.7c-1.8-0.2-3.6,0.1-5.3-0.5c-3.6-1.3-5.1-6-8.7-7.5
		c-2.7-1.1-5.7-0.1-8.3,1.2s-5.1,2.9-8,3.1c-2.5,0.2-5.2-0.8-7.4,0.4c-1.6,0.9-2.5,2.8-4,3.9c-1.6,1-3.4,1.5-5.2,1.4
		c-1.8,0-3.7,0.3-5.4,0.9c-1.7,0.8-3,2.5-2.7,4.3L216.1,125.3z"/>
	<path class="st2" d="M226.5,60.8c5.3,15.4-2.9,32.3-18.3,37.6c-15.4,5.3-32.3-2.9-37.6-18.3c-5.3-15.4,2.9-32.3,18.3-37.6
		c0,0,0,0,0.1,0C204.4,37.2,221.2,45.4,226.5,60.8z"/>
	<path class="st1" d="M219.9,63c4.1,11.8-2.2,24.6-13.9,28.6c-11.8,4.1-24.6-2.2-28.6-13.9s2.2-24.6,13.9-28.6c0,0,0,0,0,0
		C203,45,215.8,51.2,219.9,63C219.9,63,219.9,63,219.9,63z"/>
	<path class="st0" d="M219.6,62.4c-0.6-0.7-1-1.5-1.4-2.4c-1.3-2.1-2.8-4-4.7-5.7c-1.3-1.1-2.7-2.1-4.1-2.9
		c-1.7-0.9-3.5-1.6-5.4-2.1c-1-0.3-2-0.4-3.1-0.5c-1.1-0.1-2.2-0.1-3.3-0.1c-1.1,0.1-2.2,0.2-3.3,0.4c-1.1,0.3-2.3,0.6-3.3,1
		c-1.1,0.4-2.1,0.9-3.1,1.5c-1,0.6-1.9,1.2-2.8,1.9c-0.9,0.7-1.7,1.4-2.4,2.2c-0.7,0.8-1.4,1.6-2,2.4c-1.1,1.6-1.9,3.3-2.6,5.1
		c-0.6,1.6-1,3.2-1.2,4.9c-0.3,2.5-0.2,4.9,0.3,7.4c0.2,0.9,0.4,1.8,0.5,2.7c-0.6-0.8-1-1.6-1.1-2.6c-0.7-2.5-1-5.1-0.8-7.7
		c0.3-3.9,1.6-7.6,3.8-10.8c0.6-0.9,1.3-1.8,2.1-2.7c0.8-0.9,1.6-1.7,2.5-2.4c0.9-0.8,1.9-1.5,3-2.1c1.1-0.6,2.2-1.2,3.4-1.6
		c1.2-0.4,2.4-0.8,3.6-1c1.2-0.2,2.4-0.4,3.6-0.4c1.2-0.1,2.3,0,3.5,0.1c1.1,0.1,2.2,0.3,3.3,0.6c2,0.5,3.9,1.3,5.7,2.4
		c1.5,0.9,3,2,4.3,3.3c1.9,1.8,3.4,3.9,4.5,6.3C219.3,60.6,219.5,61.5,219.6,62.4z"/>
	<path class="st2" d="M302.2,36.4c1.2,7.6-4.1,14.8-11.8,15.9c-7.6,1.2-14.8-4.1-15.9-11.8c-1.2-7.6,4.1-14.8,11.8-15.9
		c0,0,0.1,0,0.1,0C294,23.5,301.1,28.8,302.2,36.4C302.2,36.4,302.2,36.4,302.2,36.4z"/>
	<path class="st1" d="M298.9,36.9c0.8,5.8-3.2,11.2-9,12c-5.8,0.8-11.2-3.2-12-9c-0.8-5.8,3.2-11.2,9-12
		C292.6,27.1,298,31.1,298.9,36.9C298.9,36.9,298.9,36.9,298.9,36.9z"/>
	<path class="st0" d="M298.8,36.6c-0.2-0.4-0.3-0.8-0.5-1.2c-0.4-1.1-1-2.1-1.7-3c-0.5-0.6-1.1-1.2-1.7-1.8
		c-0.7-0.6-1.5-1.1-2.3-1.4c-0.4-0.2-0.9-0.4-1.4-0.5c-0.5-0.1-1-0.3-1.5-0.3c-0.5-0.1-1.1-0.1-1.6-0.1c-0.5,0-1.1,0.1-1.6,0.1
		c-0.5,0.1-1.1,0.2-1.6,0.4c-0.5,0.2-1,0.4-1.5,0.6c-0.5,0.2-0.9,0.5-1.3,0.8c-0.4,0.3-0.8,0.6-1.1,1c-0.7,0.6-1.2,1.4-1.7,2.1
		c-1,1.7-1.5,3.6-1.5,5.6c0.1,0.4,0.1,0.9,0,1.3c-0.2-0.4-0.3-0.9-0.3-1.3c-0.1-1.2,0-2.4,0.3-3.6c0.2-0.8,0.5-1.6,1-2.4
		c0.5-0.9,1.1-1.6,1.7-2.3c0.4-0.4,0.8-0.7,1.2-1c0.4-0.3,0.9-0.6,1.4-0.9c0.5-0.3,1-0.5,1.6-0.7c0.6-0.2,1.1-0.3,1.7-0.5
		c0.6-0.1,1.2-0.2,1.8-0.2c0.6,0,1.1,0,1.7,0.1c0.5,0.1,1.1,0.2,1.6,0.4c0.5,0.2,1,0.4,1.5,0.6c0.9,0.4,1.7,1,2.4,1.6
		c0.6,0.6,1.2,1.2,1.7,1.9c0.7,1,1.2,2.1,1.5,3.3C298.8,35.7,298.9,36.1,298.8,36.6z"/>
	<path class="st2" d="M296.7,91.7c-4.5,9-15.4,12.6-24.4,8.1c-9-4.5-12.6-15.4-8.1-24.4c4.5-9,15.4-12.6,24.4-8.1c0,0,0,0,0,0
		C297.5,71.8,301.2,82.8,296.7,91.7z"/>
	<path class="st1" d="M292.8,89.8c-3.4,6.8-11.8,9.6-18.6,6.2c-6.8-3.4-9.6-11.8-6.2-18.6c3.4-6.8,11.8-9.6,18.6-6.2c0,0,0,0,0,0
		C293.5,74.6,296.2,82.9,292.8,89.8z"/>
	<path class="st0" d="M293,89.4c0.1-0.6,0.2-1.1,0.4-1.7c0.4-1.5,0.6-3,0.5-4.5c-0.1-1-0.2-2.1-0.5-3.1c-0.3-1.1-0.8-2.3-1.4-3.3
		c-0.7-1.1-1.5-2.1-2.5-3c-0.5-0.5-1.1-0.9-1.6-1.3c-0.6-0.4-1.2-0.8-1.9-1.1c-0.6-0.3-1.3-0.5-2-0.8c-0.7-0.2-1.3-0.3-2-0.4
		c-0.7-0.1-1.3-0.1-2-0.1c-0.6,0-1.3,0.1-1.9,0.2c-1.2,0.2-2.3,0.5-3.4,1c-0.9,0.4-1.8,1-2.7,1.6c-1.2,0.9-2.3,2-3.1,3.3
		c-0.6,0.9-0.9,1.4-1,1.4c0.1-0.6,0.3-1.1,0.6-1.6c0.8-1.4,1.8-2.6,3-3.7c0.9-0.7,1.8-1.3,2.8-1.8c1.1-0.6,2.4-1,3.6-1.2
		c0.7-0.1,1.4-0.2,2.1-0.2c1.5-0.1,2.9,0.1,4.4,0.5c0.7,0.2,1.5,0.5,2.2,0.8c0.7,0.3,1.4,0.7,2,1.1c0.6,0.4,1.2,0.9,1.8,1.4
		c0.5,0.5,1,1,1.5,1.6c1.2,1.6,2.1,3.3,2.6,5.3c0.3,1.1,0.4,2.2,0.4,3.3c0,1.6-0.3,3.2-0.8,4.7C293.4,88.9,293,89.4,293,89.4z"/>
	<path class="st2" d="M130.2,80.6c0.4-2.8-3.6-5.1-6.6-5.4c-1.4-0.1-2.9,0.1-4.3-0.4c-2.9-1-4.1-4.8-6.9-6c-2.1-0.9-4.6-0.1-6.7,0.9
		s-4.1,2.3-6.4,2.5c-2,0.1-4.2-0.6-6,0.4c-1.3,0.7-2,2.2-3.2,3.1c-1.3,0.8-2.7,1.2-4.2,1.1c-1.5,0-2.9,0.2-4.3,0.7
		c-1.4,0.5-2.3,2-2.2,3.5L130.2,80.6z"/>
	<path class="st1" d="M87.3,61.8c0.5-3.5-4.5-6.4-8.2-6.7c-1.8-0.1-3.6,0.1-5.3-0.5c-3.7-1.3-5.1-6-8.7-7.5
		c-2.7-1.1-5.7-0.1-8.3,1.2s-5.1,2.9-8,3.1c-2.5,0.2-5.2-0.8-7.4,0.5c-1.6,0.9-2.5,2.8-4,3.9c-1.6,1-3.4,1.5-5.2,1.4
		c-1.8,0-3.7,0.2-5.4,0.9c-1.7,0.8-3,2.5-2.7,4.3L87.3,61.8z"/>
	<g>
		<path class="st0" d="M66.1,348.1l2.6-0.9l-1.5-4.1l-2.5,0.9l-1.4-3.9l2.5-0.9l-0.3-0.8c-0.9-2.6-1-4.9-0.1-6.8
			c0.9-1.9,2.6-3.3,5.1-4.2c0.9-0.3,1.7-0.5,2.6-0.6c0.9-0.1,1.7-0.1,2.5,0l0.8,4.2c-1.4-0.2-2.7,0-3.9,0.4c-1.2,0.4-1.9,1.1-2.3,2
			c-0.4,0.9-0.3,2,0.2,3.4l0.2,0.7l5.3-1.9l1.4,3.9l-5.3,1.9l1.5,4.1l7.8-2.8l1.5,4.1l-15.4,5.5L66.1,348.1z"/>
	</g>
	<g>
		<path class="st0" d="M151.7,302.5l2,0.2l0.3-3.1l-1.9-0.2l0.3-2.9l1.9,0.2l0.1-0.6c0.2-2,0.9-3.5,2-4.4c1.2-1,2.7-1.4,4.6-1.2
			c0.6,0.1,1.3,0.2,1.9,0.4c0.6,0.2,1.1,0.5,1.6,0.8l-0.8,3c-0.9-0.5-1.7-0.9-2.6-0.9c-0.9-0.1-1.6,0.1-2.1,0.6
			c-0.5,0.5-0.8,1.2-0.9,2.3L158,297l4,0.4l-0.3,2.9l-4-0.4l-0.3,3.1l5.9,0.6l-0.3,3.1l-11.7-1.2L151.7,302.5z"/>
	</g>
	<g>
		<path class="st0" d="M190.9,80.9l3.2-1.2l-1.8-5.1l-3.1,1.1l-1.7-4.7l3.1-1.1l-0.3-1c-1.1-3.2-1.2-6-0.1-8.4
			c1.1-2.4,3.2-4.1,6.3-5.2c1-0.4,2.1-0.6,3.2-0.8c1.1-0.1,2.1-0.1,3,0l1,5.2c-1.7-0.2-3.3,0-4.8,0.5c-1.4,0.5-2.4,1.3-2.8,2.4
			c-0.4,1.1-0.4,2.5,0.2,4.2l0.3,0.8l6.5-2.3l1.7,4.7l-6.5,2.3l1.8,5.1l9.6-3.4l1.8,5.1L192.7,86L190.9,80.9z"/>
	</g>
	<g>
		<path class="st0" d="M282.9,40.8l1.5,0.3l0.5-2.3l-1.4-0.3l0.5-2.2l1.4,0.3l0.1-0.4c0.3-1.5,1-2.5,1.9-3.2c1-0.6,2.1-0.8,3.6-0.5
			c0.5,0.1,0.9,0.3,1.4,0.5c0.4,0.2,0.8,0.4,1.1,0.7l-0.8,2.2c-0.6-0.5-1.2-0.8-1.9-0.9c-0.7-0.1-1.2-0.1-1.6,0.3
			c-0.4,0.3-0.7,0.9-0.9,1.6l-0.1,0.4l3,0.7l-0.5,2.2l-3-0.7l-0.5,2.3l4.4,1l-0.5,2.3l-8.7-1.9L282.9,40.8z"/>
	</g>
	<g>
		<path class="st0" d="M276.1,88.6l1.8-0.5l-0.8-2.8l-1.7,0.5l-0.8-2.6l1.7-0.5l-0.2-0.5c-0.5-1.8-0.4-3.3,0.2-4.5
			c0.7-1.2,1.8-2.1,3.5-2.6c0.6-0.2,1.2-0.3,1.8-0.3c0.6,0,1.1,0,1.6,0.1l0.4,2.8c-0.9-0.2-1.8-0.1-2.6,0.1
			c-0.8,0.2-1.3,0.6-1.6,1.2c-0.3,0.6-0.3,1.3,0,2.3l0.1,0.5l3.5-1l0.8,2.6l-3.5,1l0.8,2.8l5.3-1.5l0.8,2.8l-10.4,3L276.1,88.6z"/>
	</g>
</g>
<g id="freepik--Floor--inject-2">
	<path class="st4" d="M413.8,454.1c0,0.1-74.7,0.3-166.8,0.3s-166.8-0.1-166.8-0.3s74.7-0.3,166.8-0.3S413.8,454,413.8,454.1z"/>
</g>
<g id="freepik--Arrows--inject-2">
	<path class="st4" d="M75.7,240c-0.6-1.9-1-3.9-1.2-5.9c-0.4-2-0.6-4-0.7-6c0.6,1.9,1,3.9,1.2,5.9C75.4,236,75.6,238,75.7,240z"/>
	<path class="st4" d="M82,263.1c-0.9-1.8-1.6-3.7-2.1-5.6c-0.7-1.9-1.2-3.8-1.4-5.8c0.8,1.8,1.4,3.7,1.9,5.7
		C81,259.2,81.6,261.2,82,263.1z"/>
	<path class="st4" d="M91.7,285c-2.2-3.3-4-7-5.3-10.8c1,1.7,2,3.5,2.8,5.3C90.2,281.3,91,283.1,91.7,285z"/>
	<path class="st4" d="M104.9,305c-1.4-1.4-2.7-3-3.8-4.6c-1.2-1.6-2.3-3.3-3.2-5.1c1.3,1.5,2.5,3.1,3.6,4.8
		C102.7,301.7,103.9,303.3,104.9,305z"/>
	<path class="st4" d="M121.4,322.4c-1.7-1.1-3.2-2.4-4.6-3.9c-1.5-1.3-2.8-2.8-4-4.4c1.6,1.3,3,2.6,4.4,4.1
		C118.7,319.5,120.1,320.9,121.4,322.4z"/>
	<path class="st4" d="M140.8,336.5c-1.9-0.8-3.6-1.8-5.3-2.9c-1.7-1-3.3-2.2-4.8-3.6c1.8,0.9,3.5,2,5.1,3.2
		C137.6,334.1,139.3,335.2,140.8,336.5z"/>
	<path class="st4" d="M162.6,346.5c-2-0.4-3.9-1-5.7-1.9c-1.9-0.7-3.7-1.6-5.4-2.6c1.9,0.6,3.8,1.3,5.6,2.1
		C159,344.8,160.8,345.6,162.6,346.5z"/>
	<path class="st4" d="M177.2,350.7c0,0.1-0.8,0.1-1.6-0.1s-1.5-0.5-1.5-0.6s0.8-0.1,1.6,0.1S177.2,350.6,177.2,350.7z"/>
	<path class="st4" d="M82.3,232c-0.3-0.2-0.5-0.4-0.8-0.6c-0.5-0.4-1.2-1-2-1.8c-1.7-1.5-4-3.6-6.5-5.9l0.4-0.1l-0.2,0.4
		c-1.7,3.1-3.3,5.9-4.5,7.9c-0.6,1.1-1.3,2.1-2,3.1c0.1-0.3,0.3-0.6,0.4-0.9c0.4-0.7,0.8-1.5,1.3-2.4l4.4-7.9l0.2-0.4l0.2-0.3
		l0.3,0.2c2.5,2.4,4.7,4.5,6.3,6.1c0.8,0.8,1.4,1.4,1.9,1.9C81.9,231.5,82.1,231.7,82.3,232z"/>
	<path class="st4" d="M418,231.8c0-2,0.2-4,0.5-6c0.1-2,0.4-4,0.8-6c0.1,2,0.1,4-0.2,6C418.9,227.8,418.6,229.8,418,231.8z"/>
	<path class="st4" d="M412.4,255.1c0.4-2,0.9-3.9,1.5-5.8c0.5-1.9,1.1-3.9,1.8-5.7C415.1,247.5,414,251.4,412.4,255.1z"/>
	<path class="st4" d="M403,277.1c0.7-1.9,1.5-3.7,2.4-5.5c0.8-1.8,1.7-3.6,2.7-5.4C406.9,270.1,405.2,273.7,403,277.1z"/>
	<path class="st4" d="M390.3,297.4c1-1.7,2.1-3.4,3.3-5c1-1.7,2.2-3.3,3.5-4.9c-0.8,1.8-1.9,3.5-3.1,5.1
		C392.9,294.4,391.7,296,390.3,297.4z"/>
	<path class="st4" d="M374.6,315.6c1.2-1.6,2.6-3.1,4-4.5c1.3-1.5,2.7-2.9,4.2-4.3c-1.1,1.7-2.4,3.2-3.8,4.6
		C377.7,313,376.2,314.3,374.6,315.6z"/>
	<path class="st4" d="M356.3,331c1.5-1.4,3-2.6,4.6-3.8c1.5-1.3,3.1-2.5,4.8-3.6c-1.4,1.5-2.9,2.8-4.5,4
		C359.7,328.9,358,330.1,356.3,331z"/>
	<path class="st4" d="M335.7,343.3c1.7-1.1,3.4-2.1,5.2-3c1.7-1,3.5-1.9,5.3-2.8C343,339.9,339.4,341.9,335.7,343.3L335.7,343.3z"/>
	<path class="st4" d="M313.9,351.8c1.7-0.8,3.5-1.5,5.4-2c1.8-0.7,3.6-1.3,5.5-1.7c-1.7,0.9-3.5,1.7-5.3,2.2
		C317.6,351,315.7,351.5,313.9,351.8z"/>
	<path class="st4" d="M316.9,342.8c-0.1,0.3-0.2,0.6-0.4,0.9c-0.3,0.5-0.8,1.3-1.3,2.3c-1.1,1.9-2.8,4.6-4.6,7.5l-0.1-0.4l0.4,0.1
		c3.4,1.1,6.4,2.1,8.6,2.9c1.2,0.4,2.4,0.8,3.5,1.4c-0.3-0.1-0.7-0.1-1-0.3l-2.6-0.8l-8.6-2.7l-0.4-0.1l-0.3-0.1l0.2-0.3
		c1.8-2.9,3.5-5.5,4.7-7.4c0.6-0.9,1.1-1.7,1.5-2.2C316.5,343.3,316.7,343,316.9,342.8z"/>
	<path class="st4" d="M339,90.1c0.4,0,0.7,0,1.1,0.1c0.7,0.1,1.7,0.2,2.9,0.4c2.5,0.4,5.8,0.9,9.6,1.6h0.1l-0.3,0.3
		c-0.3-3.8-0.4-7.2-0.5-9.6c-0.1-1.3-0.1-2.7,0-4c0.1,0.4,0.1,0.7,0.1,1.1c0.1,0.8,0.1,1.8,0.2,2.9c0.2,2.6,0.4,5.9,0.7,9.6v0.3
		l-0.3-0.1h-0.1c-3.7-0.6-7.1-1.3-9.6-1.7c-1.2-0.2-2.2-0.4-2.9-0.6C339.7,90.3,339.3,90.2,339,90.1z"/>
	<path class="st4" d="M149.4,80.7c-1.5,1.3-3.1,2.6-4.7,3.7c-1.5,1.3-3.2,2.4-4.9,3.5c1.4-1.5,2.9-2.8,4.6-3.9
		C145.9,82.7,147.6,81.6,149.4,80.7z"/>
	<path class="st4" d="M170,68.6c-1.7,1.1-3.4,2.1-5.2,3c-1.7,1-3.5,1.9-5.4,2.7c1.6-1.2,3.3-2.3,5.1-3.2
		C166.3,70.1,168.1,69.2,170,68.6z"/>
	<path class="st4" d="M192.2,59.5c-1.8,0.9-3.6,1.7-5.5,2.3c-1.8,0.8-3.8,1.4-5.7,1.8c1.8-0.9,3.6-1.7,5.5-2.3
		C188.4,60.6,190.3,59.9,192.2,59.5z"/>
	<path class="st4" d="M215.5,53.5c-1.9,0.7-3.8,1.2-5.8,1.6c-1.9,0.5-3.9,0.8-5.9,1c1.9-0.7,3.8-1.2,5.8-1.6
		C211.5,54,213.5,53.7,215.5,53.5z"/>
	<path class="st4" d="M239.3,50.6c-2,0.4-4,0.7-6,0.8c-2,0.3-4,0.3-6,0.3c2-0.4,4-0.7,6-0.8C235.3,50.6,237.3,50.5,239.3,50.6z"/>
	<path class="st4" d="M263.2,51.3c-2,0-4-0.1-6-0.3c-2-0.1-4-0.3-6-0.6C255.2,50.2,259.3,50.5,263.2,51.3z"/>
	<path class="st4" d="M286.7,56c-2-0.3-3.9-0.7-5.9-1.3c-2-0.4-3.9-0.9-5.8-1.6c2,0.1,4,0.5,5.9,1.1C283,54.7,284.9,55.3,286.7,56z"
		/>
	<path class="st4" d="M309.3,64.1c-1.9-0.5-3.8-1.2-5.7-2c-1.9-0.7-3.7-1.5-5.5-2.5c1.9,0.5,3.8,1.2,5.7,2
		C305.7,62.3,307.6,63.2,309.3,64.1z"/>
	<path class="st4" d="M330.6,75.2c-1.9-0.8-3.6-1.7-5.4-2.7c-1.8-0.9-3.5-2-5.1-3.2c1.9,0.7,3.7,1.6,5.4,2.7
		C327.3,72.9,329,74,330.6,75.2z"/>
	<path class="st4" d="M349.9,89.2c-1.6-1.1-3.2-2.3-4.7-3.6c-1.6-1.2-3.1-2.4-4.6-3.8c1.8,0.9,3.4,2.1,4.9,3.4
		C347.1,86.4,348.6,87.7,349.9,89.2z"/>
</g>
<g id="freepik--Box--inject-2">
	<rect x="357.9" y="282.3" class="st5" width="57.1" height="44.1"/>
	<path class="st4" d="M400.7,326c0,0-0.1-9.8-0.1-21.9s0-21.9,0.1-21.9s0.1,9.8,0.1,21.9S400.8,326,400.7,326z"/>
	<rect x="402.9" y="316.3" class="st0" width="7.3" height="8.3"/>
	<rect x="375.3" y="282.4" class="st4" width="6.5" height="9.4"/>
	<rect x="375.3" y="316.8" class="st4" width="6.5" height="9.4"/>
	<path class="st4" d="M414.5,282.3H414h-1.6h-6.1h-20h-20h-6.1h-1.6h1.6h6.1h20h20h6.1H414.5L414.5,282.3z"/>
	<polygon class="st5" points="357.9,282.3 350.6,272.4 395,272.4 400.7,282.1 	"/>
	<path class="st4" d="M357.9,282.3h0.2h0.6l2.4,0l9-0.1l30.6-0.2l-0.2,0.4c-1.8-3.1-3.8-6.4-5.7-9.7l0.2,0.1h-1.3l-43.1-0.1l0.1-0.3
		l5.3,7.3l1.4,2l0.4,0.5C357.9,282.2,357.9,282.3,357.9,282.3c0,0.1,0,0.1-0.1-0.1l-0.4-0.5l-1.5-1.9l-5.4-7.2l-0.2-0.3h0.3
		l43.1-0.1h1.4l0.1,0.1l5.7,9.6l0.2,0.4h-0.4h-30.7l-9,0h-2.4h-0.6C358,282.3,357.9,282.3,357.9,282.3z"/>
	<polygon class="st5" points="400.6,282.4 406.9,272.3 421.6,272.3 415,282.1 	"/>
	<path class="st4" d="M400.6,282.4c0,0,0.4,0,1.1,0l3-0.1c2.5-0.1,6.1-0.2,10.3-0.3l-0.2,0.1l6.6-9.9l0.2,0.4h-0.2h-14.5l0.2-0.1
		c-1.9,3-3.5,5.4-4.6,7.2c-0.5,0.8-1,1.5-1.3,2S400.7,282.3,400.6,282.4c0,0,0.1-0.2,0.4-0.7l1.2-2c1-1.8,2.6-4.4,4.5-7.5l0.1-0.1
		h0.1l14.5-0.1h0.7l-0.3,0.4l-6.7,9.8l-0.1,0.1H415c-4.3,0-8,0-10.5,0h-2.9C401.3,282.4,401,282.4,400.6,282.4z"/>
</g>
<g id="freepik--Coins--inject-2">
	<circle class="st6" cx="254.8" cy="48" r="22.1"/>
	<path class="st4" d="M276.4,52.1c0-0.1,0-0.2,0-0.4l0.1-1c0-0.2,0.1-0.5,0.1-0.8s0-0.6,0-0.9c0.1-0.8,0.1-1.5,0-2.3
		c-0.1-2.1-0.6-4.2-1.3-6.2c-1-2.6-2.4-5.1-4.3-7.2c-2.3-2.5-5.1-4.5-8.3-5.7c-3.6-1.4-7.6-1.8-11.4-1.2c-1,0.2-2,0.4-3,0.7
		c-1,0.3-2,0.7-2.9,1.2c-1,0.5-1.9,1-2.8,1.6c-0.9,0.6-1.7,1.3-2.5,2.1c-1.7,1.5-3.1,3.3-4.2,5.3c-1.1,2-1.9,4.3-2.4,6.5
		c-0.4,2.3-0.5,4.7-0.2,7c0.3,2.3,0.9,4.4,1.9,6.5c0.5,1,1,2,1.6,2.9c0.6,0.9,1.3,1.7,2,2.5c1.4,1.6,3,2.9,4.9,4
		c3.3,2,7.2,3.1,11.1,3.1c3.4,0,6.8-0.7,9.8-2.3c2.5-1.2,4.8-2.9,6.6-5c1.4-1.6,2.6-3.3,3.5-5.3c0.3-0.7,0.6-1.4,0.9-2.1
		c0.1-0.3,0.2-0.6,0.3-0.9l0.2-0.8c0.1-0.4,0.2-0.8,0.3-1C276.3,52.5,276.4,52.3,276.4,52.1c0,0.2,0,0.3,0,0.4
		c-0.1,0.3-0.1,0.6-0.2,1l-0.2,0.8c-0.1,0.3-0.2,0.6-0.3,0.9c-0.2,0.7-0.5,1.5-0.9,2.2c-0.9,2-2,3.8-3.5,5.4
		c-4.2,4.8-10.3,7.5-16.7,7.5c-4,0-7.9-1.1-11.3-3.1c-0.9-0.5-1.8-1.1-2.6-1.8c-0.8-0.7-1.6-1.4-2.4-2.2c-0.8-0.8-1.4-1.7-2.1-2.6
		c-0.6-0.9-1.2-1.9-1.7-2.9c-1-2.1-1.7-4.3-2-6.6c-0.3-2.4-0.2-4.8,0.2-7.1c0.5-2.3,1.3-4.6,2.5-6.7c1.1-2,2.6-3.9,4.3-5.4
		c0.8-0.8,1.7-1.5,2.6-2.1c0.9-0.6,1.9-1.2,2.9-1.6c1-0.5,2-0.9,3-1.2c4.8-1.5,10-1.3,14.8,0.6c5.9,2.3,10.5,7.1,12.7,13.1
		c0.7,2,1.2,4.1,1.2,6.3c0.1,0.8,0.1,1.6,0,2.3c0,0.3,0,0.7-0.1,0.9s-0.1,0.5-0.1,0.8c-0.1,0.4-0.1,0.8-0.2,1
		C276.5,51.9,276.4,52,276.4,52.1z"/>
	<g class="st7">
		<path class="st3" d="M258.9,26.3c-11.9-2.3-23.5,5.5-25.8,17.4c0,0,0,0.1,0,0.1c0,0,15.1,3.6,19.9-1.8S258.9,26.3,258.9,26.3z"/>
	</g>
	<path class="st6" d="M270.9,50.7c-1.7,9.1-10.5,15.1-19.6,13.3c-9.1-1.7-15.1-10.5-13.3-19.6c1.7-9.1,10.5-15.1,19.6-13.3
		c0,0,0,0,0,0C266.7,32.9,272.7,41.6,270.9,50.7z"/>
	<g class="st8">
		<path d="M270.9,50.7c-1.7,9.1-10.5,15.1-19.6,13.3c-9.1-1.7-15.1-10.5-13.3-19.6c1.7-9.1,10.5-15.1,19.6-13.3c0,0,0,0,0,0
			C266.7,32.9,272.7,41.6,270.9,50.7z"/>
	</g>
	<path class="st6" d="M271.3,51.5c-1.7,9-10.4,14.8-19.3,13.1c-9-1.7-14.8-10.4-13.1-19.3c1.7-9,10.4-14.8,19.3-13.1
		C267.1,33.9,273,42.5,271.3,51.5C271.3,51.5,271.3,51.5,271.3,51.5z"/>
	<g class="st8">
		<path class="st3" d="M271.3,51.5c-1.7,9-10.4,14.8-19.3,13.1c-9-1.7-14.8-10.4-13.1-19.3c1.7-9,10.4-14.8,19.3-13.1
			C267.1,33.9,273,42.5,271.3,51.5C271.3,51.5,271.3,51.5,271.3,51.5z"/>
	</g>
	<path class="st3" d="M234.4,54.6c0-0.1-0.1-0.1-0.1-0.2c0-0.1-0.1-0.3-0.2-0.5s-0.1-0.5-0.2-0.9s-0.2-0.7-0.2-1.2
		c0-0.2-0.1-0.5-0.1-0.7s-0.1-0.5-0.1-0.8c-0.1-0.5-0.1-1.1-0.1-1.7c0-1.3,0.1-2.5,0.2-3.8c0.2-1.3,0.5-2.5,0.9-3.7
		c0.2-0.5,0.4-1.1,0.6-1.6c0.1-0.2,0.2-0.5,0.3-0.7l0.3-0.6c0.2-0.4,0.4-0.7,0.6-1c0.1-0.3,0.3-0.5,0.5-0.8c0.1-0.2,0.2-0.3,0.3-0.5
		c0-0.1,0.1-0.1,0.1-0.2c0,0.1-0.1,0.1-0.1,0.2l-0.3,0.5c-0.1,0.2-0.3,0.5-0.4,0.8s-0.4,0.7-0.6,1l-0.3,0.6
		c-0.1,0.2-0.2,0.5-0.3,0.7c-0.2,0.5-0.4,1-0.6,1.5c-0.8,2.4-1.2,4.9-1.1,7.5c0,0.6,0,1.1,0.1,1.7c0,0.3,0,0.5,0.1,0.8
		s0.1,0.5,0.1,0.7c0.1,0.4,0.1,0.8,0.2,1.2c0,0.3,0.1,0.6,0.2,0.9c0.1,0.2,0.1,0.4,0.1,0.5S234.4,54.6,234.4,54.6z"/>
	<path class="st3" d="M259.2,31c-0.2,0-0.4-0.1-0.5-0.1l-0.6-0.1c-0.2,0-0.5-0.1-0.8-0.2s-0.6-0.1-1-0.1s-0.7-0.1-1.1-0.1
		c-0.9,0-1.8,0-2.6,0.1c-0.9,0.1-1.8,0.2-2.6,0.5c-0.4,0.1-0.8,0.2-1.1,0.3s-0.7,0.2-0.9,0.3s-0.5,0.2-0.8,0.3l-0.6,0.3
		c-0.2,0.1-0.3,0.2-0.5,0.2c0.1-0.1,0.3-0.2,0.5-0.3c0.1-0.1,0.3-0.2,0.6-0.3s0.5-0.2,0.8-0.4s0.6-0.3,1-0.4s0.7-0.2,1.1-0.4
		c0.9-0.2,1.7-0.4,2.6-0.5c0.9-0.1,1.8-0.1,2.7,0c0.4,0,0.8,0.1,1.2,0.1s0.7,0.1,1,0.2s0.6,0.1,0.8,0.2s0.4,0.1,0.6,0.2
		C258.9,30.9,259.1,30.9,259.2,31z"/>
	<path class="st3" d="M253.4,69h-0.4c-0.3,0-0.6,0-1.1,0c-1.2-0.1-2.4-0.3-3.6-0.6c-1.2-0.4-2.3-0.8-3.3-1.4
		c-0.3-0.2-0.6-0.4-0.9-0.6c-0.1-0.1-0.2-0.2-0.3-0.3c0.1,0.1,0.2,0.1,0.4,0.2c0.2,0.1,0.5,0.3,0.9,0.6c1.1,0.6,2.2,1,3.4,1.4
		c1.2,0.3,2.4,0.6,3.6,0.7c0.5,0,0.8,0.1,1.1,0.1C253.2,69,253.3,69,253.4,69z"/>
	
		<ellipse transform="matrix(0.1158 -0.9933 0.9933 0.1158 -208.6079 367.3749)" class="st6" cx="102" cy="300.9" rx="22.1" ry="22"/>
	<path class="st4" d="M123.7,305c0-0.1,0-0.2,0-0.4l0.1-1l0.1-0.8c0-0.3,0-0.6,0-0.9c0.1-0.8,0.1-1.5,0-2.3
		c-0.1-2.1-0.6-4.2-1.3-6.2c-1-2.6-2.4-5-4.3-7.1c-5-5.5-12.4-8.1-19.7-6.9c-1,0.2-2,0.4-3,0.7c-3.1,1-6,2.6-8.3,4.9
		c-1.7,1.5-3.1,3.3-4.2,5.3c-1.1,2-1.9,4.3-2.4,6.5c-0.4,2.3-0.5,4.7-0.2,7c0.3,2.2,0.9,4.4,1.9,6.5c0.5,1,1,1.9,1.6,2.8
		c0.6,0.9,1.3,1.7,2,2.5c1.4,1.6,3,2.9,4.9,4c3.3,2,7.2,3.1,11.1,3.1c6.3,0,12.2-2.6,16.4-7.3c1.4-1.6,2.6-3.3,3.5-5.3
		c0.3-0.7,0.6-1.4,0.9-2.1c0.1-0.3,0.2-0.6,0.3-0.9l0.2-0.8c0.1-0.4,0.2-0.8,0.3-1C123.6,305.3,123.6,305.2,123.7,305
		c0,0.2-0.1,0.3-0.1,0.4c0,0.3-0.1,0.6-0.2,1l-0.2,0.8c-0.1,0.3-0.2,0.6-0.3,0.9c-0.2,0.7-0.5,1.5-0.8,2.2c-0.9,2-2,3.8-3.5,5.4
		c-4.2,4.8-10.2,7.5-16.6,7.5c-6.2,0-12.1-2.5-16.3-7.1c-0.8-0.8-1.5-1.7-2.1-2.6c-0.6-0.9-1.2-1.9-1.7-3c-1-2.1-1.7-4.3-2-6.6
		c-0.6-4.8,0.3-9.6,2.7-13.8c1.1-2,2.6-3.9,4.3-5.4c1.6-1.5,3.5-2.8,5.5-3.8c1-0.5,2-0.9,3-1.2c1-0.3,2.1-0.5,3.1-0.7
		c10.5-1.7,20.8,4.4,24.4,14.4c0.7,2,1.1,4.1,1.2,6.3c0.1,0.8,0.1,1.6,0,2.3c0,0.3,0,0.6-0.1,0.9s-0.1,0.5-0.1,0.8
		c-0.1,0.4-0.1,0.8-0.2,1C123.8,304.8,123.7,304.9,123.7,305z"/>
	<g class="st7">
		<path class="st3" d="M106.2,279.2c-12-2.3-23.5,5.5-25.8,17.5c0,0,15.1,3.6,19.9-1.8S106.2,279.2,106.2,279.2z"/>
	</g>
	<path class="st6" d="M118.2,303.6c-1.7,9.1-10.5,15-19.6,13.3s-15-10.5-13.3-19.6c1.7-9.1,10.5-15,19.6-13.3
		C114,285.7,120,294.5,118.2,303.6C118.2,303.6,118.2,303.6,118.2,303.6z"/>
	<g class="st8">
		<path d="M118.2,303.6c-1.7,9.1-10.5,15-19.6,13.3s-15-10.5-13.3-19.6c1.7-9.1,10.5-15,19.6-13.3C114,285.7,120,294.5,118.2,303.6
			C118.2,303.6,118.2,303.6,118.2,303.6z"/>
	</g>
	<path class="st6" d="M118.6,304.4c-1.7,9-10.4,14.8-19.4,13.1s-14.8-10.4-13.1-19.4c1.7-9,10.4-14.8,19.4-13.1
		C114.4,286.7,120.3,295.4,118.6,304.4C118.6,304.4,118.6,304.4,118.6,304.4z"/>
	<g class="st8">
		<path class="st3" d="M118.6,304.4c-1.7,9-10.4,14.8-19.4,13.1s-14.8-10.4-13.1-19.4c1.7-9,10.4-14.8,19.4-13.1
			C114.4,286.7,120.3,295.4,118.6,304.4C118.6,304.4,118.6,304.4,118.6,304.4z"/>
	</g>
	<path class="st3" d="M81.7,307.5c0,0,0-0.1-0.1-0.2l-0.2-0.5c-0.1-0.2-0.2-0.5-0.2-0.9s-0.2-0.7-0.2-1.2c0-0.2-0.1-0.5-0.1-0.7
		s0-0.5-0.1-0.8c-0.1-0.5-0.1-1.1-0.1-1.7c-0.1-2.6,0.3-5.1,1.1-7.5c0.2-0.5,0.4-1.1,0.6-1.6c0.1-0.2,0.2-0.5,0.3-0.7l0.3-0.6
		c0.2-0.4,0.4-0.8,0.6-1s0.3-0.6,0.5-0.8l0.3-0.5l0.1-0.2c0,0,0,0.1-0.1,0.2l-0.3,0.5c-0.2,0.2-0.3,0.5-0.4,0.8
		c-0.2,0.3-0.4,0.7-0.6,1.1l-0.3,0.6c-0.1,0.2-0.2,0.5-0.3,0.7c-0.2,0.5-0.4,1-0.6,1.5c-0.4,1.2-0.7,2.4-0.9,3.7
		c-0.2,1.3-0.3,2.5-0.3,3.8c0,0.6,0,1.1,0.1,1.6c0,0.3,0,0.5,0.1,0.7l0.1,0.7c0,0.4,0.2,0.8,0.2,1.2s0.1,0.6,0.2,0.9l0.1,0.5
		C81.7,307.4,81.7,307.5,81.7,307.5z"/>
	<path class="st3" d="M106.5,283.9l-0.5-0.1c-0.2-0.1-0.4-0.1-0.6-0.1c-0.3,0-0.5-0.1-0.8-0.2s-0.6-0.1-1-0.1s-0.8-0.1-1.2-0.1
		c-0.9,0-1.8,0-2.7,0c-0.9,0.1-1.8,0.3-2.6,0.5c-0.4,0.1-0.8,0.2-1.1,0.3c-0.3,0.1-0.7,0.2-1,0.3c-0.3,0.1-0.5,0.2-0.8,0.3l-0.6,0.3
		c-0.2,0.1-0.3,0.2-0.5,0.2c0.1-0.1,0.3-0.2,0.5-0.3c0.2-0.1,0.4-0.2,0.6-0.3c0.2-0.1,0.5-0.2,0.8-0.4c0.3-0.1,0.6-0.3,1-0.4
		s0.7-0.2,1.1-0.4c0.9-0.2,1.7-0.4,2.6-0.5c0.9-0.1,1.8-0.1,2.7,0c0.4,0,0.8,0.1,1.2,0.1s0.7,0.1,1,0.2s0.6,0.1,0.8,0.2
		c0.2,0,0.4,0.1,0.6,0.2C106.2,283.7,106.3,283.8,106.5,283.9z"/>
	<path class="st3" d="M100.8,321.9h-0.4c-0.4,0-0.7,0-1.1,0c-1.2-0.1-2.4-0.3-3.6-0.6c-1.2-0.4-2.3-0.8-3.4-1.5
		c-0.4-0.2-0.7-0.5-0.9-0.6c-0.1-0.1-0.2-0.1-0.3-0.2c0.1,0.1,0.2,0.1,0.3,0.2c0.2,0.1,0.6,0.3,1,0.5c1.1,0.6,2.2,1,3.3,1.4
		c1.2,0.3,2.4,0.6,3.6,0.7c0.5,0,0.8,0.1,1.1,0.1C100.5,321.9,100.6,321.9,100.8,321.9z"/>
	<g>
		<path class="st9" d="M247.1,52.9l2.3,0.2l0.2-3.6l-2.2-0.1l0.2-3.3l2.2,0.1l0-0.7c0.1-2.3,0.9-4,2.1-5.1c1.3-1.1,3-1.7,5.2-1.5
			c0.7,0,1.5,0.2,2.2,0.4c0.7,0.2,1.3,0.5,1.8,0.8l-0.8,3.4c-1-0.6-2-0.9-3-1c-1-0.1-1.8,0.2-2.3,0.7c-0.6,0.6-0.9,1.4-1,2.6l0,0.6
			l4.5,0.3l-0.2,3.3l-4.5-0.3l-0.2,3.6l6.8,0.4l-0.2,3.6l-13.2-0.9L247.1,52.9z"/>
	</g>
</g>
<g id="freepik--Factory--inject-2">
	<polygon class="st2" points="418.6,43.5 414.3,123.7 441,123.7 436.7,43.5 	"/>
	<polygon class="st6" points="436.9,48.2 418.4,48.2 418.6,43.5 436.7,43.5 	"/>
	<polygon class="st6" points="437.7,62.5 417.6,62.5 417.9,56.1 437.3,56.1 	"/>
	<polygon class="st6" points="438.4,75.6 416.9,75.6 417.2,69.2 438.1,69.2 	"/>
	<polygon class="st6" points="439.1,88.7 416.2,88.7 416.5,82.3 438.8,82.3 	"/>
	<polygon class="st6" points="439.8,101.8 415.5,101.7 415.8,95.4 439.5,95.4 	"/>
	<polygon class="st6" points="440.5,114.9 414.8,114.8 415.1,108.4 440.2,108.4 	"/>
	<path class="st4" d="M418.6,43.5h1.2h3.5h13.3h0.1v0.1c1,17.6,2.5,46.8,4.4,80.2v0.1h-27v-0.1c1.3-23,2.4-43,3.2-57.4l0.9-16.8
		c0.1-2,0.2-3.5,0.3-4.5c0-0.5,0.1-0.9,0.1-1.2S418.6,43.5,418.6,43.5c-0.1,0.1-0.1,0.2-0.1,0.5s0,0.7,0,1.2c-0.1,1-0.1,2.6-0.2,4.5
		c-0.2,3.9-0.5,9.7-0.9,16.8c-0.8,14.3-1.8,34.3-3,57.3l-0.1-0.1H441l-0.1,0.1c-1.8-33.4-3.3-62.6-4.3-80.2l0.1,0.1h-13.3h-4.8
		L418.6,43.5z"/>
	<path class="st0" d="M438.5,54.1h-21.6c-1.1,0-2-0.9-2-2l0,0c0-1.1,0.9-2,2-2h21.6c1.1,0,2,0.9,2,2l0,0
		C440.5,53.2,439.6,54.1,438.5,54.1z"/>
	<path class="st4" d="M438.5,54.1c0.2,0,0.4,0,0.5-0.1c0.5-0.2,1-0.5,1.2-1c0.2-0.3,0.3-0.7,0.2-1.1c0-0.5-0.2-0.9-0.6-1.2
		c-0.4-0.4-0.9-0.6-1.4-0.6h-1.8h-19.8c-0.5,0-0.9,0.2-1.3,0.5c-0.8,0.7-0.9,1.9-0.2,2.7c0.2,0.2,0.5,0.4,0.7,0.5
		c0.4,0.1,0.9,0.2,1.3,0.1h3.9h8.9h6h1.6h0.4h-0.4h-1.6h-6h-8.9h-3.9c-0.2,0-0.5,0-0.7,0c-1.2-0.1-2.1-1.1-2-2.3
		c0.1-1.1,1-1.9,2.1-2h19.8h1.8c1.1,0,2,0.8,2.1,1.9c0,0.4-0.1,0.8-0.3,1.2c-0.2,0.6-0.7,1.1-1.3,1.3
		C438.8,54.1,438.6,54.1,438.5,54.1z"/>
	<path class="st4" d="M290.9,159.3h-7.2c-1.7,0-3.1-1.4-3.1-3.1v-44c0-1.7,1.4-3.2,3.1-3.2h9.4c1.7,0,3.1,1.4,3.1,3.2v6.5h-1v-6.5
		c0-1.2-1-2.2-2.2-2.2h-9.4c-1.2,0-2.2,1-2.2,2.2v44c0,1.2,1,2.2,2.2,2.2l0,0h7.2L290.9,159.3z"/>
	<rect x="281.4" y="148.6" class="st4" width="10.2" height="1"/>
	<rect x="281.4" y="140.1" class="st4" width="10.2" height="1"/>
	<rect x="281.4" y="131.6" class="st4" width="10.2" height="1"/>
	<rect x="281.4" y="123.2" class="st4" width="10.2" height="1"/>
	<polygon class="st6" points="291.1,212 291.1,119.5 334.4,98.6 334.4,120 380.4,98.6 380.4,120.4 472.4,120.4 472.4,212 	"/>
	<rect x="302.2" y="146.4" class="st3" width="150.5" height="24.8"/>
	<path class="st6" d="M452.7,158.8c0,0.1-33.8,0.1-75.6,0.1s-75.6,0-75.6-0.1s33.8-0.1,75.6-0.1S452.7,158.8,452.7,158.8z"/>
	<path class="st6" d="M311.2,170.8c0,0.1,0,0.2,0,0.3v0.9h-0.1c0-2.2-0.1-7.1-0.1-12.9c0-3.9,0-7.4,0-10c0-1.3,0-2.3,0-3
		c0-0.3,0-0.6,0-0.8c0-0.1,0-0.2,0-0.3c0,0.1,0,0.2,0,0.3c0,0.2,0,0.5,0,0.8c0,0.8,0,1.8,0,3c0,2.6,0,6.1,0,10
		c0,5.7,0,10.7-0.1,12.9h-0.1c0-0.4,0-0.7,0-0.9C310.9,171,311.1,170.9,311.2,170.8z"/>
	<path class="st6" d="M322.1,170.6c0,0.1,0,0.2,0,0.3c0,0.2,0,0.6,0,0.9H322c0-2.2-0.1-7.1-0.1-12.9c0-3.9,0-7.4,0-10
		c0-1.3,0-2.3,0-3c0-0.3,0-0.6,0-0.8c0-0.1,0-0.2,0-0.3c0,0.1,0,0.2,0,0.3c0,0.2,0,0.5,0,0.8c0,0.8,0,1.8,0,3c0,2.6,0,6.1,0,10
		c0,5.7,0,10.7-0.1,12.9h-0.1c0-0.4,0-0.7,0-0.9C321.8,170.8,322,170.7,322.1,170.6z"/>
	<path class="st6" d="M333,170.4c0,0.1,0,0.2,0,0.3v0.9h-0.1c0-2.1-0.1-6.7-0.1-12.2c0-3.7,0-7,0-9.4c0-1.2,0-2.2,0-2.9v-0.8
		c0-0.1,0-0.2,0-0.3c0,0.1,0,0.2,0,0.3c0,0.2,0,0.5,0,0.8c0,0.7,0,1.7,0,2.9c0,2.4,0,5.8,0,9.4c0,5.4,0,10.1-0.1,12.2h-0.1
		c0-0.4,0-0.7,0-0.9C332.7,170.6,332.9,170.5,333,170.4z"/>
	<path class="st6" d="M343.9,170.2c0,0.1,0,0.2,0,0.3c0,0.3,0,0.6,0,1h-0.1c0-2.2-0.1-7.1-0.1-12.9c0-3.9,0-7.4,0-10
		c0-1.3,0-2.3,0-3c0-0.3,0-0.6,0-0.8c0-0.1,0-0.2,0-0.3c0,0.1,0,0.2,0,0.3c0,0.2,0,0.5,0,0.8c0,0.8,0,1.8,0,3c0,2.6,0,6.1,0,10
		c0,5.7,0,10.7-0.1,12.9h-0.1v-1C343.6,170.4,343.7,170.2,343.9,170.2z"/>
	<path class="st6" d="M354.8,170c0,0.1,0,0.2,0,0.3c0,0.2,0,0.5,0,0.9h-0.1c0-2-0.1-6.6-0.1-12c0-3.6,0-6.9,0-9.3c0-1.2,0-2.1,0-2.8
		v-0.8c0-0.1,0-0.2,0-0.3c0,0.1,0,0.2,0,0.3v0.8c0,0.7,0,1.7,0,2.8c0,2.4,0,5.7,0,9.3c0,5.3,0,9.9-0.1,12h-0.1c0-0.4,0-0.6,0-0.9
		C354.5,170.2,354.6,170.1,354.8,170z"/>
	<path class="st6" d="M365.6,170.8c0,0.1,0,0.2,0,0.3c0,0.3,0,0.6,0,1h-0.1c0-2.3-0.1-7.4-0.1-13.4c0-4,0-7.7,0-10.4
		c0-1.3,0-2.4,0-3.1c0-0.4,0-0.6,0-0.9c0-0.1,0-0.2,0-0.3c0,0.1,0,0.2,0,0.3c0,0.2,0,0.5,0,0.9c0,0.8,0,1.8,0,3.1
		c0,2.7,0,6.3,0,10.4c0,6,0,11.1-0.1,13.4h-0.1c0-0.4,0-0.7,0-1C365.4,171,365.5,170.9,365.6,170.8z"/>
	<path class="st6" d="M376.5,169.7c0,0.1,0,0.2,0,0.3c0,0.2,0,0.5,0,0.9h-0.1c0-2-0.1-6.5-0.1-11.8c0-3.6,0-6.8,0-9.2
		c0-1.1,0-2.1,0-2.8c0-0.3,0-0.5,0-0.8c0-0.1,0-0.2,0-0.3c0,0.1,0,0.2,0,0.3c0,0.2,0,0.4,0,0.8c0,0.7,0,1.6,0,2.8c0,2.3,0,5.6,0,9.2
		c0,5.3,0,9.8-0.1,11.8h-0.1c0-0.4,0-0.6,0-0.9C376.3,169.9,376.4,169.8,376.5,169.7z"/>
	<path class="st6" d="M387.4,170.7c0,0.1,0,0.2,0,0.3c0,0.2,0,0.5,0,0.9h-0.1c0-2.1-0.1-6.7-0.1-12.1c0-3.7,0-7,0-9.4
		c0-1.2,0-2.1,0-2.9c0-0.3,0-0.6,0-0.8c0-0.1,0-0.2,0-0.3c0,0.1,0,0.2,0,0.3c0,0.2,0,0.5,0,0.8c0,0.7,0,1.7,0,2.9c0,2.4,0,5.8,0,9.4
		c0,5.4,0,10.1-0.1,12.1h-0.1c0-0.4,0-0.7,0-0.9C387.2,170.8,387.3,170.7,387.4,170.7z"/>
	<path class="st6" d="M398.3,170.4c0,0.1,0,0.2,0,0.3c0,0.2,0,0.5,0,0.9h-0.1c0-2-0.1-6.7-0.1-12c0-3.6,0-6.9,0-9.4
		c0-1.2,0-2.1,0-2.8c0-0.3,0-0.6,0-0.8s0-0.3,0-0.3c0,0.1,0,0.2,0,0.3v0.8c0,0.7,0,1.7,0,2.8c0,2.4,0,5.7,0,9.4c0,5.4,0,10-0.1,12
		h-0.1c0-0.4,0-0.6,0-0.9C398,170.6,398.2,170.5,398.3,170.4z"/>
	<path class="st6" d="M409.2,170.2c0,0.1,0,0.2,0,0.3c0,0.2,0,0.5,0,0.9h-0.1c0-2-0.1-6.6-0.1-11.9c0-3.6,0-6.9,0-9.3
		c0-1.1,0-2.1,0-2.8c0-0.3,0-0.6,0-0.8c0-0.1,0-0.2,0-0.3c0,0.1,0,0.2,0,0.3c0,0.2,0,0.5,0,0.8c0,0.7,0,1.6,0,2.8c0,2.4,0,5.7,0,9.3
		c0,5.3,0,9.9-0.1,11.9h-0.1c0-0.4,0-0.6,0-0.9C408.9,170.4,409.1,170.3,409.2,170.2z"/>
	<path class="st6" d="M420.1,170c0,0.1,0,0.2,0,0.3c0,0.2,0,0.5,0,0.9H420c0-2-0.1-6.6-0.1-11.8c0-3.6,0-6.8,0-9.2
		c0-1.1,0-2.1,0-2.8c0-0.3,0-0.6,0-0.8s0-0.3,0-0.3c0,0.1,0,0.2,0,0.3c0,0.2,0,0.4,0,0.8c0,0.7,0,1.6,0,2.8c0,2.4,0,5.6,0,9.2
		c0,5.3,0,9.8-0.1,11.8h0.1c0-0.4,0-0.6,0-0.9C420,170.2,420,170.1,420.1,170z"/>
	<path class="st6" d="M431,169.8c0,0.1,0,0.2,0,0.3v0.9h-0.1c0-2-0.1-6.5-0.1-11.7c0-3.6,0-6.8,0-9.1c0-1.1,0-2.1,0-2.8v-0.8
		c-0.1,0-0.1-0.1-0.1-0.2c0-0.1,0.1-0.1,0.2-0.1c0.1,0,0.1,0.1,0.1,0.2c0,0,0,0.1-0.1,0.1c0,0.2,0,0.4,0,0.8c0,0.7,0,1.6,0,2.8
		c0,2.3,0,5.6,0,9.1c0,5.2,0,9.7-0.1,11.7h-0.1c0-0.4,0-0.6,0-0.9C430.8,170,430.9,169.9,431,169.8z"/>
	<path class="st6" d="M441.8,169.6c0,0.1,0,0.2,0,0.3c0,0.2,0,0.5,0,0.9h-0.1c0-2-0.1-6.4-0.1-11.6c0-3.5,0-6.7,0-9
		c0-1.1,0-2.1,0-2.7c0-0.3,0-0.6,0-0.7s0-0.3,0-0.3c0,0.1,0,0.2,0,0.3c0,0.2,0,0.4,0,0.7c0,0.7,0,1.6,0,2.7c0,2.3,0,5.5,0,9
		c0,5.2,0,9.6-0.1,11.6h-0.1c0-0.4,0-0.6,0-0.9S441.8,169.6,441.8,169.6z"/>
	<g class="st10">
		<path d="M343.7,212h-8.1v-71.4c0-2.2,1.8-4.1,4-4.1c0,0,0,0,0,0l0,0c2.2,0,4.1,1.8,4.1,4.1V212z"/>
	</g>
	<g class="st10">
		<path d="M360.5,136.6h0.5c2.1,0,3.8,1.7,3.8,3.8l0,0V212l0,0h-8.1l0,0v-71.6C356.7,138.3,358.4,136.6,360.5,136.6
			C360.5,136.6,360.5,136.6,360.5,136.6z"/>
	</g>
	<path class="st1" d="M339.3,212h-8.1v-75.8c0-2.2,1.8-4.1,4.1-4.1l0,0c2.2,0,4.1,1.8,4.1,4.1V212z"/>
	<path class="st4" d="M339.3,212c0-0.2,0-0.3,0-0.5c0-0.3,0-0.8,0-1.3c0-1.2,0-2.9,0-5.1c0-4.4,0-10.7-0.1-18.5s0-17.1-0.1-27.4
		c0-5.1,0-10.6,0-16.2v-6.4c0-0.7-0.1-1.4-0.3-2c-0.8-1.9-3-2.8-5-2c-0.7,0.3-1.3,0.8-1.7,1.5c-0.3,0.4-0.5,0.9-0.5,1.4
		c-0.1,0.5-0.1,1-0.1,1.6v9.5c0,4.2,0,8.2,0,12.2c0,7.9,0,15.3,0,22.1c0,13.5-0.1,24.3-0.1,31.1l-0.1-0.1l6,0.1h1.6h0.5h-0.5h-1.5
		l-6.1,0.1h-0.1v0c0-6.8-0.1-17.6-0.1-31.1c0-6.8,0-14.2,0-22.1c0-4,0-8,0-12.2v-9.5c0-0.6,0-1.1,0.1-1.6c0.1-0.6,0.3-1.1,0.6-1.6
		c1.3-2,3.9-2.6,6-1.3c0.7,0.5,1.3,1.2,1.7,2c0.3,0.7,0.4,1.5,0.3,2.2v6.4c0,5.6,0,11.1,0,16.2c0,10.3,0,19.6-0.1,27.4
		s-0.1,14.1-0.1,18.5c0,2.1,0,3.8,0,5c0,0.6,0,1,0,1.3S339.3,212,339.3,212z"/>
	<path class="st1" d="M359.7,212h-8.1v-75.8c0-2.2,1.8-4.1,4.1-4.1l0,0c2.2,0,4,1.8,4,4.1c0,0,0,0,0,0V212z"/>
	<path class="st4" d="M359.7,212c0,0,0-0.2,0-0.5s0-0.8,0-1.3c0-1.2,0-2.9,0-5.1c0-4.4,0-10.7-0.1-18.5s0-17.1-0.1-27.4
		c0-5.1,0-10.6,0-16.2v-6.4c0-0.7-0.1-1.4-0.3-2c-0.8-1.9-3-2.9-5-2.1c-1.2,0.5-2.1,1.6-2.3,2.9c-0.1,0.5-0.1,1-0.1,1.6v9.5
		c0,4.2,0,8.2,0,12.2c0,7.9,0,15.3,0,22.1c0,13.5-0.1,24.3-0.1,31.1l-0.1-0.1l6,0.1h1.6h0.5h-0.5h-1.5l-6.1,0.1h-0.1v0
		c0-6.8-0.1-17.6-0.1-31.1c0-6.8,0-14.2,0-22.1c0-4,0-8,0-12.2v-9.5c0-0.6,0-1.1,0.1-1.6c0.1-0.6,0.3-1.1,0.6-1.6
		c1.3-2,3.9-2.6,6-1.3c0.7,0.5,1.3,1.2,1.7,2c0.3,0.7,0.4,1.5,0.3,2.2v6.4c0,5.6,0,11.1,0,16.2c0,10.3-0.1,19.6-0.1,27.4
		s-0.1,14.1-0.1,18.5c0,2.1,0,3.8,0,5c0,0.6,0,1,0,1.3C359.9,211.7,359.8,211.9,359.7,212z"/>
	<g class="st10">
		<polygon points="291.5,119.5 334.4,101.8 334.4,98.6 		"/>
	</g>
	<g class="st10">
		<polygon points="335.9,119.8 380.4,102.2 380.4,99 		"/>
	</g>
	<rect x="288.5" y="108" transform="matrix(0.8989 -0.4382 0.4382 0.8989 -15.7925 148.46)" class="st4" width="50.5" height="1"/>
	<rect x="332" y="108.8" transform="matrix(0.9066 -0.422 0.422 0.9066 -12.7438 161.0156)" class="st4" width="50.8" height="1"/>
	<g class="st10">
		<path d="M303.3,135.9c0-0.1,0-0.2,0-0.4v-1c0-0.9,0-2.1,0-3.5l0.1,0.1h-12.3l0.1-0.1l0,0v4.9l-0.1-0.1l8.8,0.1h2.6h0.7h0.3h-0.2
			h-0.7H300l-8.8,0.1H291v-5l0,0l0.1-0.1h12.3h0.1v0.3c0,1.5,0,2.7,0,3.6c0,0.4,0,0.7,0,1S303.3,135.9,303.3,135.9z"/>
	</g>
	<g class="st10">
		<rect x="296.6" y="126.2" width="12.3" height="4.9"/>
	</g>
	<g class="st10">
		<path d="M394,202.3c0,0,0-0.1,0-0.4s0-0.6,0-1c0-0.9,0-2.1,0-3.5l0.1,0.1h-12.3c-0.1,0.1,0.2-0.2,0.1-0.1l0,0v2.5
			c0,0.8,0,1.6,0,2.4l-0.1-0.1l8.8,0.1h2.6h0.7h0.2c0,0-0.1,0-0.2,0h-0.7h-2.5l-8.8,0.1h-0.1V202c0-0.8,0-1.6,0-2.4v-2.5l0,0
			c0,0,0.2-0.3,0.1-0.1H394h0.1v0.1c0,1.5,0,2.7,0,3.6c0,0.4,0,0.7,0,1C394.1,201.9,394.1,202.1,394,202.3z"/>
	</g>
	<g class="st10">
		<rect x="387.3" y="192.5" width="12.3" height="4.9"/>
	</g>
	<g class="st10">
		<path d="M319.9,187.2c0-0.1,0-0.2,0-0.4c0-0.3,0-0.6,0-1c0-0.9,0-2.1,0-3.5l0.1,0.1h-12.3l0.1-0.1l0,0v4.9l-0.1-0.1l8.8,0.1h2.6
			h0.7h0.3h-0.2H319h-2.5l-8.8,0.1h-0.1v-5l0,0l0.1-0.1h12.3h0.1v0.1c0,1.5,0,2.7,0,3.6c0,0.4,0,0.7,0,1
			C320,186.9,319.9,187,319.9,187.2z"/>
	</g>
	<g class="st10">
		<path d="M371.6,127.8c0,0,0-0.1,0-0.3s0-0.6,0-1c0-0.9,0-2.1,0-3.5l0.1,0.1h-12.3c-0.1,0.1,0.2-0.2,0.1-0.1l0,0v2.5
			c0,0.8,0,1.6,0,2.4l-0.1-0.1l8.8,0.1h2.6h0.7h0.3c0,0-0.1,0-0.2,0h-0.7h-2.5l-8.8,0.1h-0.1v-0.1c0-0.8,0-1.6,0-2.4v-2.5l0,0
			c0,0,0.2-0.2,0.1-0.1h12.3h0.1v0.1c0,1.5,0,2.7,0,3.6c0,0.4,0,0.7,0,0.9C371.7,127.4,371.7,127.6,371.6,127.8z"/>
	</g>
	<g class="st10">
		<path d="M445.5,135.1c0,0,0-0.1,0-0.4s0-0.6,0-1c0-0.9,0-2.1,0-3.5l0.1,0.1h-12.3l0.1-0.1l0,0v2.5c0,0.8,0,1.6,0,2.4l-0.1-0.1
			l8.8,0.1h2.6h0.7h0.3h-0.2h-0.7h-2.5l-8.8,0.1h-0.1v-0.1c0-0.8,0-1.6,0-2.4v-2.5l0,0c0,0,0.3-0.2,0.1-0.1h12.3h0.1v0.1
			c0,1.5,0,2.7,0,3.6c0,0.4,0,0.7,0,1C445.6,134.8,445.5,135,445.5,135.1z"/>
	</g>
	<g class="st10">
		<path d="M464.8,181c0-0.1,0-0.2,0-0.4c0-0.2,0-0.6,0-1c0-0.9,0-2.1,0-3.5l0.1,0.1h-12.3c-0.1,0.1,0.1-0.2,0.1-0.1l0,0v4.9
			l-0.1-0.1l8.8,0.1h2.6h0.7L464.8,181l-0.2-0.1h-0.7h-2.5l-8.8,0.1h-0.1v-5l0,0l0.1-0.1h12.3h0.1v0.1c0,1.5,0,2.7,0,3.6
			c0,0.4,0,0.7,0,1C464.9,180.7,464.8,180.9,464.8,181z"/>
	</g>
	<g class="st10">
		<rect x="387.1" y="136" width="12.3" height="4.9"/>
	</g>
	<g class="st10">
		<rect x="445.5" y="125.5" width="12.3" height="4.9"/>
	</g>
	<rect x="408.4" y="177.8" class="st4" width="38" height="34.2"/>
	<rect x="423.3" y="195.2" class="st6" width="10.9" height="8.4"/>
	<g class="st10">
		<rect x="423.3" y="195.2" width="10.9" height="8.4"/>
	</g>
	<path class="st4" d="M431.5,203.6c0,0,0-1.9,0-4.2s0-4.2,0-4.2s0,1.9,0,4.2S431.5,203.6,431.5,203.6z"/>
	<rect x="432.5" y="201.7" class="st2" width="0.8" height="0.9"/>
	<rect x="426.6" y="195.2" class="st4" width="1.2" height="1.8"/>
	<rect x="426.6" y="201.8" class="st4" width="1.2" height="1.8"/>
	<path class="st4" d="M434.1,195.2L434.1,195.2z"/>
	<rect x="432.4" y="195.2" class="st6" width="10.9" height="8.4"/>
	<path class="st4" d="M440.6,203.5c0,0,0-1.9,0-4.2s0-4.2,0-4.2s0,1.9,0,4.2S440.6,203.5,440.6,203.5z"/>
	<rect x="441.6" y="201.7" class="st2" width="0.8" height="0.9"/>
	<g class="st11">
		<rect x="435.7" y="195.2" class="st3" width="1.2" height="1.8"/>
	</g>
	<g class="st11">
		<rect x="435.7" y="201.8" class="st3" width="1.2" height="1.8"/>
	</g>
	<path class="st4" d="M443.2,195.2L443.2,195.2z"/>
	<rect x="433" y="186.8" class="st6" width="10.9" height="8.4"/>
	<path class="st4" d="M441.2,195.1c0,0,0-1.9,0-4.2s0-4.2,0-4.2s0,1.9,0,4.2S441.2,195.1,441.2,195.1z"/>
	<rect x="442.2" y="193.3" class="st2" width="0.8" height="0.9"/>
	<rect x="436.4" y="186.8" class="st4" width="1.2" height="1.8"/>
	<rect x="436.4" y="193.4" class="st4" width="1.2" height="1.8"/>
	<path class="st4" d="M443.9,186.8L443.9,186.8z"/>
	<rect x="432.8" y="203.6" class="st6" width="10.9" height="8.4"/>
	<g class="st10">
		<rect x="432.8" y="203.6" width="10.9" height="8.4"/>
	</g>
	<path class="st4" d="M441,212c0,0,0-1.9,0-4.2s0-4.2,0-4.2s0,1.9,0,4.2S441,212,441,212z"/>
	<rect x="441.9" y="210.1" class="st2" width="0.8" height="0.9"/>
	<rect x="436.1" y="203.6" class="st4" width="1.2" height="1.8"/>
	<rect x="436.1" y="210.2" class="st4" width="1.2" height="1.8"/>
	<path class="st4" d="M443.6,203.6L443.6,203.6z"/>
	<rect x="421.3" y="203.6" class="st6" width="10.9" height="8.4"/>
	<path class="st4" d="M429.5,212c0,0,0-1.9,0-4.2s0-4.2,0-4.2s0,1.9,0,4.2S429.5,212,429.5,212z"/>
	<rect x="430.5" y="210.1" class="st2" width="0.8" height="0.9"/>
	<g class="st11">
		<rect x="424.6" y="203.6" class="st3" width="1.2" height="1.8"/>
	</g>
	<g class="st11">
		<rect x="424.6" y="210.2" class="st3" width="1.2" height="1.8"/>
	</g>
	<path class="st4" d="M432.1,203.6L432.1,203.6z"/>
	<path class="st4" d="M483.1,212c0,0.1-44.6,0.3-99.7,0.3s-99.7-0.1-99.7-0.3s44.6-0.3,99.7-0.3S483.1,211.9,483.1,212z"/>
</g>
<g id="freepik--Store--inject-2">
	<rect x="42.2" y="105.5" class="st1" width="142.3" height="110.9"/>
	<path class="st4" d="M184.5,216.4c0,0,0-0.7,0-2s0-3.3,0-5.9c0-5.2,0-12.8,0-22.5c0-19.4-0.1-47.1-0.1-80.5l0.2,0.2H42.3l0,0
		l0.3-0.3c0,40,0,77.8,0,110.9l-0.2-0.2l102.8,0.1l29.1,0.1h7.7h2l0,0h-2h-7.7l-29.1,0.1l-102.9,0.1H42v-0.2c0-33.1,0-70.9,0-110.9
		v-0.3h0.3h142.3h0.2v0.2c-0.1,33.5-0.1,61.3-0.1,80.7c0,9.7,0,17.2-0.1,22.4c0,2.6,0,4.5,0,5.9S184.5,216.4,184.5,216.4z"/>
	<polygon class="st6" points="39.6,98.9 28.1,136.6 194.6,136.6 185.2,98.9 	"/>
	<path class="st6" d="M28.1,136.6c0.2,5,4.4,9,9.4,8.8c4.8-0.2,8.7-4,8.8-8.8H28.1z"/>
	<path class="st6" d="M46.6,136.6c0,5,4.1,9.1,9.1,9.1s9.1-4.1,9.1-9.1H46.6z"/>
	<path class="st6" d="M65.1,136.6c0,5,4.1,9.1,9.1,9.1c5,0,9.1-4.1,9.1-9.1H65.1z"/>
	<path class="st6" d="M83.7,136.6c0.2,5,4.4,9,9.4,8.8c4.8-0.2,8.7-4,8.8-8.8H83.7z"/>
	<path class="st6" d="M102.2,136.6c0.2,5,4.4,9,9.4,8.8c4.8-0.2,8.7-4,8.8-8.8H102.2z"/>
	<path class="st6" d="M120.7,136.6c0,5,4.1,9.1,9.1,9.1s9.1-4.1,9.1-9.1H120.7z"/>
	<path class="st6" d="M139.3,136.6c0,5,4.1,9.1,9.1,9.1c5,0,9.1-4.1,9.1-9.1H139.3z"/>
	<path class="st6" d="M157.8,136.6c0.2,5,4.4,9,9.4,8.8c4.8-0.2,8.7-4,8.8-8.8H157.8z"/>
	<path class="st6" d="M176.3,136.6c0,5,4.1,9.1,9.1,9.1c5,0,9.1-4.1,9.1-9.1H176.3z"/>
	<path class="st4" d="M194.5,136.7c0,0.1-37.2,0.3-83.2,0.3s-83.2-0.1-83.2-0.3s37.2-0.3,83.2-0.3S194.5,136.5,194.5,136.7z"/>
	<rect x="138.4" y="152.2" class="st3" width="30" height="64.2"/>
	<path class="st4" d="M168.4,152.2c0,0.1,0,0.2,0,0.3c0,0.2,0,0.5,0,0.9c0,0.8,0,2,0,3.5c0,3.1,0,7.6,0.1,13.3
		c0,11.4,0.1,27.5,0.1,46.2v0.3h-30.2c-0.5-0.5-0.1-0.1-0.3-0.3l0,0v-9.2c0-3,0-6,0-9c0-5.9,0-11.6,0-17c0-10.9,0-20.7,0.1-29V152
		h0.2l22,0.1h5.9h1.5L168.4,152.2l-0.6-0.1h-1.6h-6l-21.9,0.1l0.2-0.2c0,8.4,0,18.2,0,29c0,5.4,0,11.1,0,17v18.1l0,0
		c-0.1-0.1,0.3,0.3-0.3-0.2h30l-0.3,0.3c0-18.6,0.1-34.7,0.1-46c0-5.7,0-10.2,0.1-13.3c0-1.5,0-2.7,0-3.6c0-0.4,0-0.7,0-0.9
		S168.4,152.2,168.4,152.2z"/>
	<rect x="141.4" y="177.8" class="st0" width="4" height="13"/>
	<path class="st6" d="M147.7,165.9h12.9c0.9,0,1.6,0.7,1.6,1.6v4.7c0,0.9-0.7,1.6-1.6,1.6h-12.9c-0.9,0-1.6-0.7-1.6-1.6v-4.7
		C146.1,166.7,146.8,165.9,147.7,165.9z"/>
	<path class="st4" d="M160.6,173.9c0,0,0.2,0,0.4-0.1c0.4-0.1,0.7-0.4,0.9-0.8c0.2-0.7,0.2-1.3,0.1-2c0-0.8,0-1.8,0-2.8
		c0.1-0.5,0-1-0.3-1.4c-0.3-0.4-0.8-0.6-1.4-0.6h-3.9h-8.9c-0.7,0-1.3,0.5-1.4,1.2c0,0.7,0,1.5,0,2.2v2.7c0,0.2,0,0.3,0.1,0.4
		c0.1,0.3,0.3,0.5,0.5,0.7c0.2,0.2,0.5,0.3,0.8,0.3h1h1.9h3.4l4.9,0.1C159.5,173.8,160.1,173.8,160.6,173.9c-0.5,0-1.1,0.1-1.7,0
		l-4.9,0.1h-3.4h-2.9c-0.4,0-0.8-0.1-1.1-0.3c-0.3-0.2-0.6-0.6-0.7-0.9c-0.1-0.2-0.1-0.4-0.1-0.6v-0.5c0-0.7,0-1.4,0-2.2
		s0-1.5,0-2.3c0.1-0.9,0.9-1.6,1.9-1.6h8.9h3.9c1-0.1,1.9,0.6,2,1.6c0,0.3,0,0.5,0,0.8c0,1,0,1.9,0,2.8c0,0.4,0,0.8,0,1.1
		c0,0.3-0.1,0.7-0.2,1c-0.2,0.4-0.6,0.7-1.1,0.8C161.1,173.9,160.9,173.9,160.6,173.9z"/>
	<path class="st4" d="M158.5,165.9c-0.5-0.5-1-1-1.4-1.5l-1.4-1.8l-0.8-1l-0.4-0.6c-0.2-0.2-0.2-0.3-0.4-0.4c-0.2,0-0.3,0-0.5,0.1
		c-0.1,0.1-0.3,0.3-0.4,0.5l-0.8,1.1l-1.3,1.8c-0.4,0.6-0.8,1.1-1.3,1.6c0.3-0.6,0.6-1.3,1-1.8l1.2-1.9l0.7-1.1
		c0.1-0.2,0.3-0.4,0.5-0.6c0.3-0.2,0.6-0.3,0.9-0.2c0.3,0.1,0.5,0.3,0.7,0.6l0.4,0.6l0.8,1.1l1.3,1.8
		C157.8,164.7,158.2,165.3,158.5,165.9z"/>
	<path class="st3" d="M149.2,169.7c0-0.7,0.5-1.3,1.2-1.4c0.7,0,1.3,0.5,1.4,1.2c0,0.7-0.5,1.3-1.2,1.4c0,0-0.1,0-0.1,0
		C149.8,171,149.2,170.5,149.2,169.7C149.2,169.8,149.2,169.7,149.2,169.7z M151.1,169.7c0-0.3-0.3-0.6-0.7-0.6
		c-0.3,0-0.6,0.3-0.6,0.7c0,0.3,0.3,0.6,0.6,0.6C150.8,170.4,151.1,170.1,151.1,169.7C151.1,169.8,151.1,169.7,151.1,169.7z"/>
	<path class="st3" d="M154.3,169.4c0,0.5-0.4,0.9-1.1,0.9h-0.4v0.6h-0.7v-2.4h1.1C153.8,168.6,154.3,168.9,154.3,169.4z
		 M153.6,169.4c0-0.2-0.1-0.4-0.4-0.4h-0.4v0.7h0.4C153.4,169.8,153.6,169.6,153.6,169.4z"/>
	<path class="st3" d="M156.5,170.4v0.5h-1.9v-2.4h1.8v0.5h-1.2v0.4h1v0.5h-1v0.4L156.5,170.4z"/>
	<path class="st3" d="M159.1,168.6v2.4h-0.5l-1-1.3v1.3h-0.6v-2.4h0.6l1,1.3v-1.3H159.1z"/>
	<path class="st4" d="M148.3,197.4c1.8-2.9,3.7-5.7,5.8-8.4c3.3-4.6,6.1-8.2,6.2-8.1c-1.8,2.9-3.7,5.7-5.8,8.4
		C151.2,193.9,148.4,197.5,148.3,197.4z"/>
	<path class="st4" d="M153.9,196.1c-0.1-0.1,2-2.4,4.3-5.4s4-5.6,4.1-5.6c-0.2,0.6-0.5,1.3-0.9,1.8c-0.8,1.4-1.8,2.8-2.8,4.1
		c-1,1.3-2.1,2.5-3.2,3.7C155,195.2,154.5,195.7,153.9,196.1z"/>
	<rect x="46.6" y="158.2" class="st2" width="13.8" height="5.4"/>
	<rect x="42.4" y="163.6" class="st0" width="11.3" height="5.4"/>
	<rect x="80.4" y="197.5" class="st2" width="13.8" height="5.4"/>
	<rect x="125.2" y="183.8" class="st0" width="6.6" height="5.4"/>
	<rect x="168.7" y="178.6" class="st0" width="12.9" height="5.4"/>
	<rect x="113.5" y="205.3" class="st0" width="13.2" height="5.4"/>
	<rect x="45" y="200.2" class="st2" width="13.2" height="5.4"/>
	<rect x="130.8" y="155" class="st2" width="7.2" height="5.4"/>
	<rect x="73.1" y="202.9" class="st0" width="13.7" height="5.4"/>
	<rect x="60.4" y="152.2" class="st3" width="64.7" height="45.3"/>
	<path class="st4" d="M125.2,197.5c0,0,0-0.3,0-0.8s0-1.4,0-2.4c0-2.1,0-5.2-0.1-9.1c0-7.9-0.1-19.2-0.1-32.9l0.2,0.2l-64.7,0.1l0,0
		l0.3-0.3c0,16.2,0,31.6,0,45.3l-0.2-0.2l46.6,0.1l13.3,0.1h3.6h0.9L125.2,197.5l-1.2-0.1h-3.5l-13.3,0.1l-46.8,0.1h-0.3v-0.2
		c0-13.7,0-29.1,0-45.3v-0.3h0.3l64.7,0.1h0.2v0.2c0,13.8-0.1,25.1-0.1,33c0,3.9,0,7,0,9.1c0,1,0,1.8,0,2.4
		C125.2,197.2,125.2,197.5,125.2,197.5z"/>
	<path class="st4" d="M92.4,185.4c0.2-0.3,0.4-0.6,0.6-0.9c0.4-0.6,1.1-1.3,1.9-2.3c1.6-1.9,3.9-4.5,6.5-7.3s5-5.3,6.7-7.1
		c0.9-0.9,1.6-1.6,2.1-2.1s0.8-0.7,0.8-0.7c-0.2,0.3-0.4,0.6-0.7,0.8l-2,2.2l-6.6,7.1l-6.6,7.2l-2,2.2
		C93,184.9,92.7,185.2,92.4,185.4z"/>
	<path class="st4" d="M83.3,184.6c-0.1-0.1,3.5-3.8,8.1-8.3s8.3-8.1,8.4-8s-3.5,3.8-8,8.3S83.4,184.7,83.3,184.6z"/>
	<path class="st4" d="M81.1,176.3c1.2-1.6,2.5-3.2,3.9-4.6c1.3-1.5,2.7-2.9,4.3-4.2c-1.2,1.6-2.5,3.2-3.9,4.6
		C84.1,173.5,82.6,175,81.1,176.3z"/>
	<path class="st4" d="M46.3,136.6c-0.2,0,1.3-8.5,3.3-18.9s3.7-18.8,3.9-18.7s-1.3,8.5-3.3,18.9S46.5,136.6,46.3,136.6z"/>
	<path class="st4" d="M65,136.6c-0.1,0,1.3-8.5,3.3-18.9s3.7-18.8,3.9-18.7s-1.4,8.5-3.3,18.9S65.2,136.6,65,136.6z"/>
	<path class="st4" d="M83.7,136.6c-0.1,0,1.3-8.5,3.3-18.9s3.7-18.8,3.8-18.7s-1.3,8.5-3.3,18.9S83.9,136.6,83.7,136.6z"/>
	<path class="st4" d="M102.4,136.6c-0.1,0,0.8-8.4,2.2-18.7s2.6-18.6,2.7-18.6s-0.8,8.4-2.2,18.7S102.6,136.6,102.4,136.6z"/>
	<path class="st4" d="M121.1,136.6c-0.2,0,0.6-8.4,1.8-18.7s2.2-18.6,2.3-18.6s-0.7,8.4-1.8,18.7S121.3,136.6,121.1,136.6z"/>
	<path class="st4" d="M139.8,136.6c-0.1,0,0.3-8.4,1-18.7s1.3-18.6,1.5-18.6s-0.3,8.4-1,18.7S140,136.6,139.8,136.6z"/>
	<path class="st4" d="M158.5,136.6c-0.1,0-0.7-8.3-1.3-18.6s-0.9-18.6-0.7-18.6s0.7,8.3,1.3,18.6S158.6,136.6,158.5,136.6z"/>
	<path class="st4" d="M177.2,136.6c-0.1,0-1.8-8.3-3.6-18.6s-3.2-18.6-3.1-18.6s1.8,8.3,3.6,18.5S177.3,136.6,177.2,136.6z"/>
	<path class="st4" d="M208.2,216.4c0,0.1-41.1,0.3-91.7,0.3s-91.7-0.1-91.7-0.3s41-0.3,91.7-0.3S208.2,216.3,208.2,216.4z"/>
</g>
<g id="freepik--speech-bubble--inject-2">
	<path class="st3" d="M279.1,288.7l4.6-8.2c-6.4-10.3-3.2-23.9,7.2-30.3c10.3-6.4,23.9-3.2,30.3,7.2c6.4,10.3,3.2,23.9-7.2,30.3
		c-7.8,4.8-17.8,4.3-25-1.3l0,0L279.1,288.7z"/>
	<path class="st4" d="M279.1,288.7l9.9-2.3c0,0,0.1-0.1,0.1-0.1c0,0,0,0,0,0l0,0l0,0l-0.1,0.1c3.1,2.4,6.7,3.9,10.5,4.4
		c1.2,0.2,2.3,0.2,3.5,0.2c0.6,0,1.2,0,1.8-0.1l1.9-0.3c5.5-1.1,10.4-4.2,13.7-8.8c1.8-2.5,3.1-5.4,3.7-8.5c0.6-3.2,0.6-6.6-0.3-9.8
		c-0.8-3.3-2.4-6.4-4.7-9c-2.3-2.7-5.2-4.7-8.5-6.1c-3.1-1.2-6.5-1.7-9.9-1.5c-3.2,0.2-6.2,1.1-9,2.7c-5,2.8-8.7,7.4-10.4,12.8
		c-0.7,2.3-1,4.7-1,7.1c0.1,3.9,1.2,7.6,3.3,10.9v-0.1C280.8,285.8,279.4,288.3,279.1,288.7c0.4-0.4,1.8-2.9,4.8-8.1
		c0,0,0-0.1,0-0.1c-2-3.3-3.1-7-3.2-10.8c0-2.4,0.3-4.8,1-7.1c1.7-5.4,5.3-9.9,10.2-12.7c2.7-1.5,5.8-2.4,8.9-2.6
		c3.3-0.2,6.6,0.3,9.7,1.5c3.2,1.3,6.1,3.3,8.3,5.9c2.2,2.6,3.8,5.6,4.6,8.9c0.8,3.2,0.9,6.4,0.3,9.6c-0.6,3-1.8,5.9-3.6,8.4
		c-3.2,4.5-8.1,7.6-13.5,8.7l-1.8,0.3c-0.6,0-1.2,0.1-1.8,0.1c-1.1,0.1-2.3,0-3.4-0.2c-3.8-0.5-7.5-2-10.5-4.4c0,0-0.1,0-0.1,0
		c0,0,0,0.1,0,0.1l0,0v-0.1L279.1,288.7z"/>
	<path class="st4" d="M307.1,274.8h-10.3c-0.2,0-0.5-0.2-0.5-0.4l-2.4-11.9H291c-0.3,0-0.5-0.2-0.5-0.5s0.2-0.5,0.5-0.5h3.3
		c0.2,0,0.4,0.2,0.5,0.4l2.4,11.9h9.9c0.3,0,0.5,0.2,0.5,0.5C307.6,274.6,307.3,274.8,307.1,274.8z"/>
	<path class="st4" d="M296.3,272.6c-0.2,0-0.5-0.2-0.5-0.4c0-0.3,0.1-0.5,0.4-0.6c0,0,0,0,0,0l10-1.5l0.7-4.3h-12
		c-0.3,0-0.5-0.2-0.5-0.5s0.2-0.5,0.5-0.5h12.6c0.1,0,0.3,0.1,0.4,0.2c0.1,0.1,0.1,0.3,0.1,0.4l-0.9,5.2c0,0.2-0.2,0.4-0.4,0.4
		l-10.4,1.5L296.3,272.6z"/>
	<path class="st4" d="M298.1,278.6c-1,0-1.7-0.8-1.7-1.7c0-1,0.8-1.7,1.7-1.7c1,0,1.7,0.8,1.7,1.7c0,0,0,0,0,0
		C299.8,277.8,299.1,278.6,298.1,278.6L298.1,278.6z M298.1,276.1c-0.4,0-0.7,0.3-0.7,0.7s0.3,0.7,0.7,0.7c0.4,0,0.7-0.3,0.7-0.7
		c0,0,0,0,0,0C298.8,276.4,298.5,276.1,298.1,276.1z"/>
	<path class="st4" d="M305.4,278.6c-1,0-1.7-0.8-1.7-1.7c0-1,0.8-1.7,1.7-1.7c1,0,1.7,0.8,1.7,1.7c0,0,0,0,0,0
		C307.2,277.8,306.4,278.6,305.4,278.6L305.4,278.6z M305.4,276.1c-0.4,0-0.7,0.3-0.7,0.7s0.3,0.7,0.7,0.7c0.4,0,0.7-0.3,0.7-0.7
		c0,0,0,0,0,0C306.2,276.4,305.8,276.1,305.4,276.1z"/>
	<path class="st6" d="M312.7,265.4c0,2.3-1.9,4.3-4.3,4.3s-4.3-1.9-4.3-4.3s1.9-4.3,4.3-4.3l0,0C310.8,261.1,312.7,263,312.7,265.4
		C312.7,265.3,312.7,265.4,312.7,265.4z"/>
	<path class="st3" d="M308,267.2c-0.1,0-0.1,0-0.2-0.1l-1.4-1.3c-0.1-0.1-0.1-0.3,0-0.4c0.1-0.1,0.3-0.1,0.4,0l1.2,1.1l2.3-2.6
		c0.1-0.1,0.3-0.1,0.4,0c0.1,0.1,0.1,0.2,0,0.3l-2.4,2.8C308.1,267.1,308.1,267.2,308,267.2L308,267.2z"/>
</g>
<g id="freepik--Character--inject-2">
	<polygon class="st12" points="252.8,458.5 264.4,453.3 255.8,434.8 243.4,441.3 	"/>
	<path class="st0" d="M245,441.1l-17.8,10l-7.2,1c-2.7,0.4-1.9,2.5-1.5,5.3l4.6,33.4c0,0,3.6,1.1,4.3-1.5s8.4-22.7,8.4-22.7l17-8.2
		L245,441.1z"/>
	<path class="st4" d="M245,441.1c0,0,0,0.1,0.1,0.3s0.2,0.5,0.4,0.9l1.6,3.4l5.8,12.7l0.1,0.1l-0.1,0l-17,8.2l0.1-0.1
		c-1.5,4.1-3.2,8.5-4.9,13.1c-0.9,2.3-1.7,4.7-2.6,7.1l-0.6,1.8c-0.1,0.3-0.2,0.6-0.3,0.9c-0.1,0.2-0.1,0.3-0.2,0.5l-0.1,0.2
		l-0.2,0.2c-0.5,0.5-1.2,0.8-1.9,0.8c-0.7,0-1.4,0-2-0.2h-0.1v-0.1l-0.1-0.3c-1.3-9.1-2.5-17.7-3.6-25.6c-0.3-2-0.5-3.9-0.8-5.8
		c-0.1-0.9-0.3-1.9-0.4-2.8c-0.2-0.9-0.3-1.8-0.2-2.7c0.1-0.5,0.4-0.9,0.8-1.2c0.4-0.3,0.8-0.4,1.3-0.5l2.5-0.3l4.7-0.6l0,0
		l13.1-7.3l3.6-2l0.9-0.5L245,441.1l-0.3,0.1l-0.9,0.5l-3.5,2l-13,7.4l0,0l-4.7,0.7l-2.5,0.4c-0.4,0.1-0.8,0.2-1.2,0.4
		c-0.3,0.2-0.6,0.6-0.6,1c-0.1,0.9,0,1.8,0.2,2.6c0.2,0.9,0.3,1.8,0.4,2.8c0.3,1.9,0.5,3.8,0.8,5.8c1.1,7.9,2.3,16.5,3.6,25.6
		c0,0.1,0,0.2,0.1,0.4l-0.1-0.1c0.6,0.2,1.3,0.3,1.9,0.2c0.6,0,1.2-0.3,1.7-0.7c0.4-0.5,0.6-1.1,0.8-1.7c0.2-0.6,0.4-1.2,0.6-1.8
		c0.9-2.4,1.7-4.8,2.6-7.1c1.7-4.6,3.4-9,5-13.1v-0.1l0,0l17-8.2l-0.1,0.2l-5.6-12.7c-0.6-1.5-1.2-2.6-1.5-3.5l-0.4-0.9
		C245.1,441.3,245,441.1,245,441.1z"/>
	<path class="st0" d="M245.9,439l-4.3,2.8c-0.7,0.4-0.9,1.3-0.5,2l8,15.8c0.4,0.7,1.2,1,1.9,0.7l4.6-1.8c0.8-0.3,1.2-1.2,0.9-1.9
		c0,0,0-0.1-0.1-0.1l-8.4-16.8c-0.4-0.7-1.3-1-2-0.7C245.9,439,245.9,439,245.9,439z"/>
	<path class="st4" d="M249.3,460.1c-0.6-0.7-1.1-1.5-1.5-2.3c-0.9-1.4-2.1-3.5-3.2-5.8s-2.1-4.5-2.7-6c-0.3-0.8-0.6-1.4-0.7-1.9
		c-0.1-0.2-0.2-0.5-0.2-0.7c0.4,0.8,0.8,1.6,1.2,2.5c0.7,1.5,1.7,3.7,2.8,6s2.3,4.3,3.1,5.8C248.5,458.5,249,459.3,249.3,460.1z"/>
	<path class="st4" d="M242.4,445.6c1.6-2.2,4.3-3.4,7.1-3.1c-1.3,0.2-2.6,0.5-3.8,1C244.5,444.1,243.4,444.8,242.4,445.6z"/>
	<path class="st4" d="M244.6,451.8c1.1-0.9,2.3-1.7,3.6-2.3c1.2-0.7,2.5-1.3,3.9-1.7c-1.2,0.8-2.4,1.5-3.7,2.1
		C247.2,450.6,245.9,451.3,244.6,451.8z"/>
	<path class="st4" d="M248.4,457.8c2.7-0.7,4.9-2.4,6.3-4.8c-0.1,0.4-0.2,0.8-0.4,1.1c-0.5,0.9-1.2,1.6-2,2.2
		c-0.8,0.6-1.7,1.1-2.7,1.3C249.2,457.8,248.8,457.8,248.4,457.8z"/>
	<path class="st4" d="M219,459.8c0-0.1,0.6-0.2,1.5-0.7c2.4-1.2,4.2-3.4,4.9-6c0.3-1,0.3-1.6,0.4-1.6c0.1,0.6,0.1,1.2-0.1,1.7
		c-0.5,2.8-2.4,5.1-5,6.2C220.2,459.7,219.6,459.8,219,459.8z"/>
	<path class="st4" d="M221.7,481c0.3-0.3,0.8-0.4,1.2-0.5c1-0.2,2.1-0.2,3.1,0.2c1,0.4,1.8,0.9,2.6,1.7c0.6,0.5,0.8,1,0.8,1
		s-0.4-0.3-1-0.8c-0.8-0.6-1.6-1.1-2.5-1.5c-0.9-0.3-1.9-0.4-2.9-0.3C222.6,480.9,222.2,481,221.7,481z"/>
	<path class="st4" d="M203.7,416.9c0,0-17.5-2.2-23-1s-16.1,7.7-15.1,17.7s7.6,17.2,15.7,18.4s53.3,5.8,70.8,5.6
		c14.8-0.2,22.9-4,21.2-6.3c0,0,15.6-5.9,17.2-6.6c1.3-0.5,24.2-11.9,26.6-16.1s8.1-18.3-1.9-25.4s-27.1-2.3-30.1,0
		c-1.5,1.1-4.1,1.9-9.5,5.8l-5.1-3.5c-0.4,0.3-41.4,3.1-57.7,3.9C210.1,409.5,203.7,416.9,203.7,416.9z"/>
	<path class="st4" d="M252.7,441.3c-0.4-1.9-0.6-2.6-0.1-3.9c0.6-1.2,1.4-2.3,2.3-3.3c0.5-0.7,1.3-1.3,2.2-1.4c1.1,0,2,1.1,2.6,2
		c2.2,3.6,4.6,7,7.1,10.4c1.3,2,3.1,3.8,5.1,5.1c0.8,0.5,1.7,1,1.7,1.9c0,0.7-0.7,1.2-1.3,1.5c-1.2,0.6-2.3,1.2-3.6,1.7
		c-1.2,0.5-2.5,0.8-3.7,0.6c-1.2-0.3-2.2-0.9-3.1-1.7c-4.3-3.4-7.5-8.1-9.2-13.4"/>
	<path class="st5" d="M252.6,440.8c0,0,0,0,0.1,0.1s0.1,0.3,0.2,0.5c0.1,0.4,0.4,1,0.7,1.8c0.9,2.2,2.2,4.2,3.7,6.1
		c1,1.3,2.1,2.5,3.4,3.6c0.7,0.6,1.4,1.2,2.1,1.8c0.7,0.6,1.6,1,2.6,1.1c1,0.1,2-0.1,2.9-0.5c1-0.4,2-0.8,2.9-1.3
		c0.5-0.2,1-0.5,1.4-0.8c0.5-0.2,0.8-0.6,0.9-1.1c0-0.5-0.3-1-0.8-1.2c-0.4-0.3-1-0.6-1.4-0.9c-1.8-1.4-3.4-3-4.6-4.9
		c-1.3-1.7-2.5-3.4-3.6-5.1c-1.1-1.6-2.1-3.2-3.1-4.8c-0.4-0.7-0.9-1.4-1.5-2c-0.3-0.2-0.6-0.4-1-0.4c-0.3,0-0.7,0.1-1,0.2
		c-0.6,0.4-1.1,0.9-1.6,1.4c-0.4,0.5-0.8,1-1.2,1.5c-0.6,0.8-1,1.8-1.1,2.8c0,0.6,0.1,1.3,0.3,1.9l0.1,0.5c0,0.1,0,0.2,0,0.2
		l-0.1-0.2c0-0.1-0.1-0.3-0.1-0.5c-0.2-0.6-0.3-1.3-0.3-1.9c0.1-1,0.5-2,1.1-2.9c0.4-0.5,0.8-1,1.2-1.5c0.4-0.6,1-1.1,1.6-1.5
		c0.4-0.2,0.8-0.3,1.2-0.3c0.4,0,0.8,0.2,1.2,0.5c0.6,0.6,1.2,1.3,1.6,2c1,1.5,2,3.1,3.1,4.7s2.3,3.3,3.6,5.1
		c1.2,1.8,2.8,3.5,4.5,4.8c0.5,0.3,1,0.6,1.5,0.9c0.3,0.2,0.5,0.4,0.6,0.6c0.2,0.3,0.3,0.6,0.3,0.9c-0.1,0.6-0.5,1.1-1,1.4
		c-0.5,0.3-1,0.5-1.5,0.8c-1,0.5-2,0.9-3,1.3c-1,0.4-2,0.5-3.1,0.5c-1-0.1-1.9-0.6-2.7-1.2c-0.7-0.6-1.4-1.2-2.1-1.8
		c-1.2-1.1-2.3-2.3-3.4-3.6c-1.5-1.9-2.7-3.9-3.6-6.2c-0.3-0.6-0.5-1.2-0.6-1.8C252.7,441.2,252.6,441.1,252.6,440.8
		C252.5,440.8,252.6,440.8,252.6,440.8z"/>
	<path class="st5" d="M294.5,404.9c-0.2,0-0.3,0-0.5,0c-0.4,0.1-0.9,0.2-1.3,0.3c-1.1,0.3-2.8,0.9-4.8,1.6c-1,0.4-2.1,0.8-3.3,1.1
		c-1.1,0.7-2.1,1.5-3,2.5c-2,1.9-4.2,4.1-6.5,6.4c-4.6,4.6-8.6,8.8-11.5,12c-1.4,1.6-2.5,2.9-3.3,3.8l-0.9,1
		c-0.1,0.1-0.2,0.2-0.3,0.3c0.1-0.1,0.2-0.3,0.3-0.4l0.8-1.1c0.8-0.9,1.8-2.3,3.2-3.9c2.8-3.2,6.8-7.5,11.4-12
		c2.3-2.3,4.5-4.4,6.5-6.4c0.9-1,2-1.8,3.1-2.5c1.2-0.4,2.3-0.7,3.3-1.1c2-0.7,3.6-1.2,4.8-1.5c0.4-0.1,0.9-0.2,1.4-0.3
		C294.1,404.8,294.3,404.8,294.5,404.9L294.5,404.9z"/>
	<path class="st5" d="M233.8,437.5c-0.2,0-0.3-0.1-0.4-0.2l-1.3-0.6l-4.6-2.4l-6.9-3.5c-2.8-1.5-5.6-2.9-8.6-4
		c-1.5-0.5-3.1-0.9-4.7-1.1c-0.8-0.1-1.5-0.3-2.3-0.7c-0.7-0.4-1.2-0.9-1.7-1.5c-0.9-1-2.1-1.8-3.4-2.1c-1.2-0.3-2.3-0.4-3.5-0.4
		c-2.2,0.1-4,0.3-5.2,0.3c-0.5,0-1,0-1.4,0l-0.5-0.1c0.2,0,0.3,0,0.5,0c0.3,0,0.8,0,1.4,0c1.2,0,3-0.3,5.2-0.4
		c1.2-0.1,2.4,0.1,3.6,0.4c0.7,0.2,1.3,0.4,1.9,0.8c0.6,0.4,1.2,0.8,1.6,1.4c0.4,0.6,1,1.1,1.6,1.4c0.7,0.3,1.4,0.6,2.2,0.7
		c1.6,0.2,3.2,0.6,4.8,1.1c3,1.1,5.8,2.5,8.6,4l6.8,3.6l4.6,2.5l1.2,0.7C233.5,437.4,233.7,437.5,233.8,437.5z"/>
	<polygon class="st12" points="242.3,459.8 230.3,457.3 234.6,438.2 247.5,441.7 	"/>
	<path class="st0" d="M245.9,441.9l18.7,5.7l5.8-0.5c1.8-0.1,3.4,1.2,3.5,3l2.7,33.7c0,0-4,0.9-5.2-1.4s-11.7-18.6-11.7-18.6
		l-17.6-4.1L245.9,441.9z"/>
	<path class="st4" d="M245.9,441.9l-0.1,0.3c0,0.2-0.1,0.5-0.2,0.9c-0.2,0.8-0.4,2-0.7,3.5c-0.6,3.1-1.5,7.5-2.6,13l-0.1-0.1
		l17.6,4.1h0.1l0,0c2.2,3.5,4.6,7.2,7.1,11.1c1.2,2,2.5,4,3.8,6c0.3,0.5,0.6,1.1,0.9,1.6c0.3,0.5,0.8,0.8,1.3,1
		c1.2,0.4,2.4,0.4,3.6,0.1l-0.1,0.2v-0.2c-0.7-8.7-1.4-16.9-2-24.4c-0.1-1.9-0.3-3.7-0.4-5.5c-0.1-0.9-0.1-1.8-0.2-2.6
		c0-0.4,0-0.9-0.1-1.3c-0.1-0.4-0.2-0.8-0.5-1.1c-0.4-0.7-1.1-1.1-1.9-1.4c-0.8-0.1-1.6-0.1-2.3,0l-4.5,0.4h0l-13.7-4l-3.7-1.2
		l-1-0.3L245.9,441.9l0.3,0.1l1,0.3l3.7,1.1l13.8,4.1h0l4.5-0.4l1.2-0.1c0.4,0,0.8,0,1.2,0.1c0.8,0.2,1.6,0.7,2.1,1.5
		c0.2,0.4,0.4,0.8,0.5,1.2c0.1,0.5,0.1,0.9,0.1,1.3c0.1,0.9,0.1,1.8,0.2,2.6c0.1,1.8,0.3,3.6,0.5,5.5c0.6,7.5,1.3,15.8,2,24.4v0.2
		v0.1h-0.1c-1.2,0.3-2.5,0.2-3.8-0.1c-0.6-0.2-1.1-0.6-1.5-1.2l-0.9-1.6c-1.3-2.1-2.5-4.1-3.8-6c-2.5-3.9-4.9-7.7-7.1-11.2l0.1,0.1
		l-17.6-4.2h-0.1v-0.1c1.2-5.5,2.1-10,2.8-13.1c0.3-1.5,0.6-2.7,0.8-3.5c0.1-0.4,0.2-0.7,0.2-0.9S245.9,441.9,245.9,441.9z"/>
	<path class="st0" d="M244.5,439.3l5.3,2c0.8,0.3,1.2,1.1,1,1.8l-4.4,17.3c-0.2,0.8-0.9,1.3-1.7,1.1l-5-0.8
		c-0.8-0.1-1.4-0.9-1.3-1.8c0,0,0-0.1,0-0.1l4.7-18.9c0.1-0.6,0.7-0.9,1.3-0.8C244.4,439.2,244.4,439.2,244.5,439.3z"/>
	<path class="st4" d="M244.5,439.3c-0.2,0-0.4,0-0.6,0c-0.2,0-0.4,0.2-0.6,0.3c-0.2,0.3-0.3,0.6-0.3,0.9c-0.4,1.4-0.8,3.5-1.4,5.9
		s-1.3,5.5-2.1,8.8l-0.6,2.5c-0.1,0.4-0.2,0.9-0.3,1.3c-0.1,0.4,0,0.8,0.3,1.1c0.1,0.2,0.3,0.3,0.5,0.4c0.2,0.1,0.4,0.1,0.6,0.1
		l1.4,0.2l2.9,0.4c0.2,0.1,0.5,0.1,0.7,0.1c0.2,0,0.4-0.1,0.6-0.2c0.2-0.1,0.3-0.3,0.4-0.5c0.1-0.2,0.2-0.4,0.2-0.6l0.7-2.7
		c0.5-1.8,0.9-3.5,1.3-5.2c0.9-3.3,1.6-6.2,2.3-8.7c0.1-0.3,0.1-0.6,0.1-0.9c0-0.3-0.1-0.5-0.3-0.8c-0.3-0.4-0.9-0.5-1.4-0.7
		l-2.4-0.9l-1.5-0.6C244.8,439.4,244.7,439.3,244.5,439.3c0.2,0,0.4,0.1,0.6,0.2l1.6,0.5l2.5,0.9l0.8,0.3c0.3,0.1,0.5,0.3,0.7,0.5
		c0.2,0.2,0.3,0.5,0.4,0.9c0,0.3,0,0.7-0.1,1l-2.2,8.8l-1.3,5.2l-0.7,2.7c0,0.3-0.1,0.5-0.3,0.7c-0.1,0.2-0.3,0.4-0.6,0.6
		c-0.2,0.1-0.5,0.2-0.8,0.3c-0.1,0-0.3,0-0.4,0l-0.4,0l-2.9-0.4L240,461c-0.2,0-0.5-0.1-0.7-0.2c-0.7-0.3-1.1-1.1-1-1.9
		c0.1-0.5,0.2-0.9,0.3-1.3c0.2-0.9,0.4-1.7,0.6-2.5c0.8-3.3,1.6-6.3,2.2-8.8l1.5-5.9c0-0.3,0.2-0.6,0.4-0.9c0.2-0.2,0.4-0.3,0.6-0.3
		c0.1,0,0.3,0,0.4,0C244.4,439.2,244.5,439.2,244.5,439.3z"/>
	<path class="st4" d="M249.9,445.2c-1-1-2.3-1.6-3.6-1.8c-1.3-0.3-2.7-0.2-4,0.3c1.3-0.1,2.7-0.1,4,0.1
		C247.5,444.2,248.7,444.6,249.9,445.2z"/>
	<path class="st4" d="M248.5,451.7c-2.5-1.1-5.1-1.9-7.8-2.2c1.3,0.5,2.6,0.9,3.9,1.2C245.9,451.1,247.2,451.5,248.5,451.7z"/>
	<path class="st4" d="M246.5,458.5c-1.4-0.1-2.7-0.4-4-1c-1.2-0.6-2.3-1.4-3.3-2.4c0,0,0.2,0.5,0.7,1c1.4,1.5,3.3,2.4,5.3,2.5
		C245.7,458.7,246.1,458.7,246.5,458.5z"/>
	<path class="st4" d="M274.2,454c0-0.1-0.6-0.1-1.6-0.3c-2.5-0.6-4.7-2.3-5.8-4.6c-0.4-0.9-0.6-1.5-0.7-1.5c0,0.6,0.2,1.1,0.4,1.6
		c0.5,1.2,1.3,2.3,2.4,3.2c1.1,0.8,2.3,1.4,3.6,1.6C273.1,454.1,273.6,454.1,274.2,454z"/>
	<path class="st4" d="M276,474.4c-0.4-0.2-0.8-0.2-1.2-0.2c-1,0-2,0.3-2.8,0.8c-0.8,0.6-1.5,1.3-2.1,2.1c-0.4,0.6-0.6,1.1-0.5,1.1
		s0.3-0.3,0.8-0.9c0.6-0.7,1.3-1.4,2-1.9c0.8-0.5,1.7-0.8,2.6-0.9C275.2,474.5,275.6,474.4,276,474.4z"/>
	<path class="st4" d="M234.6,459.3c3.4-4.5,4.8-10.3,5.1-15.9c0.1-1.3,0-2.5-0.6-3.7c-0.5-0.9-1.3-1.6-2.1-2.1
		c-1.3-0.9-2.6-1.7-4.1-2.3c-0.4-0.2-0.9-0.3-1.3-0.1c-0.5,0.3-0.5,0.9-0.6,1.4c-0.3,6.8-1.9,13.4-4.7,19.6c-0.4,0.9,0,2.1,0.9,2.5
		c0.2,0.1,0.4,0.1,0.5,0.2l3.2,0.4C232.3,459.5,233.5,459.5,234.6,459.3z"/>
	<path class="st5" d="M234.6,459.3c0,0-0.1,0-0.2,0s-0.3,0-0.5,0.1c-0.6,0.1-1.2,0.1-1.8,0.1c-0.8,0-1.7-0.2-2.8-0.3
		c-0.6-0.1-1.1-0.1-1.8-0.2c-1.1-0.3-1.7-1.4-1.4-2.5c0,0,0-0.1,0-0.1c0.1-0.4,0.3-0.7,0.4-1c0.3-0.7,0.6-1.4,0.9-2.2
		c0.6-1.6,1.2-3.3,1.6-5c1.1-3.9,1.7-7.9,1.8-11.9c0-0.3,0.1-0.6,0.3-0.8c0.2-0.3,0.5-0.4,0.8-0.5c0.6,0,1.1,0.2,1.6,0.5
		c0.9,0.4,1.8,0.9,2.7,1.5c0.9,0.5,1.7,1.1,2.4,1.9c0.7,0.7,1.1,1.7,1.2,2.6c0.1,0.9,0.1,1.8,0,2.7c-0.1,0.9-0.1,1.7-0.3,2.5
		c-0.2,1.5-0.5,3-0.9,4.5c-0.6,2.2-1.5,4.2-2.6,6.1c-0.3,0.5-0.6,1-1,1.5l-0.3,0.4C234.8,459.3,234.7,459.3,234.6,459.3
		c0.1,0,0.1,0,0.1-0.1l0.3-0.4c0.2-0.3,0.6-0.9,1-1.5c1.1-1.9,1.9-4,2.5-6.1c0.4-1.5,0.7-3,0.9-4.5c0.1-0.8,0.2-1.7,0.2-2.5
		c0.1-0.9,0.1-1.8,0-2.7c-0.1-0.9-0.5-1.8-1.1-2.5c-0.7-0.7-1.5-1.3-2.3-1.8c-0.9-0.5-1.8-1-2.7-1.5c-0.4-0.3-0.9-0.4-1.4-0.5
		c-0.5,0-0.7,0.5-0.7,1c-0.2,4-0.8,8-1.8,11.9c-0.5,1.8-1,3.5-1.6,5c-0.3,0.8-0.6,1.5-0.9,2.2c-0.1,0.4-0.3,0.7-0.4,1
		c-0.1,0.3-0.1,0.7-0.1,1c0.1,0.6,0.6,1.1,1.2,1.3c0.6,0.1,1.2,0.2,1.8,0.3c1.1,0.1,2.1,0.3,2.8,0.4c0.6,0,1.2,0,1.8,0L234.6,459.3
		L234.6,459.3z"/>
	<path class="st5" d="M232.7,434.7c-0.1,0-0.6-1-1.8-2.5c-1.4-2-3.1-3.8-5-5.4c-1.9-1.6-4-2.9-6.2-4c-1.7-0.8-2.8-1.2-2.8-1.3
		c0.3,0,0.6,0.1,0.8,0.2c0.7,0.2,1.4,0.5,2.1,0.8c2.3,1,4.5,2.3,6.4,3.9c1.9,1.6,3.6,3.5,5,5.6c0.4,0.6,0.8,1.3,1.1,2
		C232.6,434.1,232.7,434.4,232.7,434.7z"/>
	<path class="st5" d="M264.8,419.6c-0.5,0.7-1.1,1.4-1.7,2c-1.1,1.2-2.5,3-4,5s-2.6,4-3.5,5.4c-0.4,0.8-0.9,1.6-1.4,2.3
		c0.3-0.9,0.6-1.7,1.1-2.5c2-3.9,4.5-7.4,7.5-10.5C263.3,420.7,264,420.1,264.8,419.6z"/>
	<path class="st4" d="M214.3,329.8c1.3-2.1,3.1-4,4-6.4c0.5-1.6,0.9-3.2,1-4.8c1.7-12.8-12.1-5.5,2-44.9h41
		c6.3,10,10.1,21.4,10.9,33.2c0.4,6.1,0.4,13,4.8,17.1c1.9,1.8,4.5,3,5.3,5.4c0.7,2.1-0.2,4.4,0.2,6.5c0.5,2.5,2.6,4.4,4.1,6.4
		c2.2,3,3.4,6.6,3.3,10.4c0,1.8-0.5,3.7-2,4.7c-1,0.5-2.1,0.8-3.1,0.8c-23.9,1.9-48.1,3.7-71.8,0c-1.4-4.7-2.3-9.5-2.8-14.3
		C211,339,211.8,334,214.3,329.8z"/>
	<path class="st5" d="M274,360.9l0.1-0.2l0.3-0.5c0.3-0.6,0.6-1.3,0.9-2c0.4-1.1,0.6-2.2,0.8-3.3c0.2-1.5,0.2-3,0-4.5
		c-0.3-1.8-0.8-3.5-1.7-5.2c-0.9-1.7-2.2-3.4-3.1-5.4c-0.2-0.5-0.4-1-0.5-1.6c-0.1-0.5-0.2-1.1-0.2-1.7c0-1.2,0.1-2.3,0.4-3.5
		c0.3-1.2,0.6-2.3,0.9-3.5c0.3-1.2,0.4-2.5,0.4-3.8c-0.1-2.5-0.6-4.9-1.4-7.3c-0.7-2.3-1.5-4.5-2.1-6.6c-1-3.7-1.8-7.6-2.1-11.5
		c-0.2-2.6-0.3-5.2-0.3-7.9c0-0.9,0.1-1.6,0.1-2.1v-0.5v-0.2c0,0,0,0.1,0,0.2s0,0.3,0,0.5c0,0.5-0.1,1.2-0.1,2.1
		c-0.2,6.5,0.5,13.1,2.3,19.4c0.6,2.1,1.4,4.3,2.1,6.6c0.8,2.3,1.3,4.8,1.4,7.2c0.1,2.5-0.7,4.9-1.3,7.3c-0.3,1.2-0.4,2.3-0.4,3.5
		c0,0.6,0.1,1.1,0.2,1.7c0.1,0.5,0.2,1.1,0.4,1.6c0.9,2,2.2,3.7,3.1,5.4c0.9,1.6,1.4,3.3,1.7,5.1c0.2,1.5,0.2,3,0.1,4.5
		c-0.1,1.1-0.4,2.2-0.7,3.3c-0.2,0.7-0.5,1.4-0.8,2l-0.3,0.5C274,360.8,274,360.9,274,360.9z"/>
	<path class="st12" d="M219.6,283.6c0.5-7.2,5.3-16,12.4-15.2l16.6,4.2c5.2,1.3,9,5.9,9.3,11.3c0,0.3,0,0,0,0.1l-3.7,43l-12.4,24.7
		l0,0l-11-23.4c0-3.5,0-8.8,0-8.8s-9.2-1.5-11.1-13.5C218.8,300,219.1,291.6,219.6,283.6z"/>
	<path class="st4" d="M224,293.7c0,0.8,0.6,1.5,1.5,1.5c0.8,0.1,1.5-0.5,1.6-1.3c0,0,0,0,0,0c0-0.8-0.6-1.5-1.5-1.5
		C224.8,292.2,224.1,292.8,224,293.7C224,293.6,224,293.7,224,293.7z"/>
	<path class="st4" d="M221.4,288.3c0.2,0.2,1.4-0.7,3-0.6s2.9,0.8,3,0.6s-0.1-0.5-0.6-0.8c-0.7-0.5-1.6-0.8-2.4-0.8
		c-0.9,0-1.7,0.3-2.4,0.8C221.5,287.8,221.3,288.2,221.4,288.3z"/>
	<path class="st4" d="M238.1,293.7c0,0.8,0.6,1.5,1.5,1.5c0.8,0.1,1.5-0.5,1.6-1.3c0,0,0,0,0,0c0-0.8-0.6-1.5-1.5-1.5
		C238.9,292.2,238.2,292.8,238.1,293.7C238.1,293.6,238.1,293.7,238.1,293.7z"/>
	<path class="st4" d="M237.1,288.3c0.2,0.2,1.4-0.7,3-0.6s2.9,0.8,3,0.6s-0.1-0.5-0.6-0.8c-0.7-0.5-1.6-0.8-2.4-0.8
		c-0.9,0-1.7,0.3-2.4,0.8C237.2,287.8,237.1,288.2,237.1,288.3z"/>
	<path class="st4" d="M232,301.3c-0.9-0.3-1.8-0.5-2.7-0.5c-0.4,0-0.8-0.1-0.9-0.4c0-0.4,0.1-0.9,0.3-1.3l1.3-3.2
		c1.8-4.6,3-8.3,2.8-8.4s-1.8,3.6-3.5,8.2l-1.2,3.2c-0.3,0.5-0.3,1.1-0.2,1.7c0.1,0.3,0.4,0.5,0.7,0.6c0.2,0.1,0.5,0.1,0.7,0.1
		C230.2,301.4,231.1,301.4,232,301.3z"/>
	<path class="st13" d="M246.7,315.2c0,0-3.9,8.2-15.9,7.1v-2.8C236.4,319.6,241.9,318.1,246.7,315.2z"/>
	<path class="st4" d="M237.7,282.3c0.2,0.5,1.8,0.2,3.8,0.5s3.5,0.8,3.8,0.4c0.1-0.2-0.1-0.6-0.8-1.1c-0.8-0.5-1.8-0.9-2.8-1
		c-1-0.1-2,0-2.9,0.3C238,281.7,237.6,282.1,237.7,282.3z"/>
	<path class="st4" d="M222,283.2c0.3,0.4,1.4,0,2.8,0s2.5,0.3,2.8-0.1c0.1-0.2-0.1-0.6-0.6-0.9c-0.7-0.4-1.5-0.6-2.3-0.6
		c-0.8,0-1.6,0.3-2.2,0.8C222,282.6,221.8,283,222,283.2z"/>
	<path class="st13" d="M236,304.4c1.1,1.4,0.8,3.4-0.6,4.5c-0.3,0.2-0.6,0.4-1,0.5c-0.4,0.1-0.8,0.1-1.2,0c-0.6-0.4-1.1-1-1.3-1.7
		c-0.2-0.6-0.4-1.1-0.7-1.7c-0.1-0.2-0.1-0.4-0.1-0.6c0.1-0.2,0.3-0.3,0.5-0.3l4.1-1"/>
	<path class="st4" d="M233.3,309.2c0.6,0.1,1.3,0,1.9-0.2c0.7-0.2,1.3-0.7,1.6-1.4c0.2-0.4,0.3-0.8,0.3-1.3c0-0.5-0.1-0.9-0.3-1.3
		c-0.2-0.4-0.5-0.8-0.8-1l-0.1-0.1h-0.1c-2.8,1-4.9,1.5-4.9,1.6c1.7-0.1,3.4-0.5,5-1.1l-0.3-0.1c0.3,0.3,0.5,0.6,0.7,0.9
		c0.3,0.7,0.4,1.5,0.1,2.2c-0.3,0.6-0.8,1-1.4,1.2C234.1,309.1,233.3,309.1,233.3,309.2z"/>
	<path class="st5" d="M237.6,261.8c7.3-0.7,14.4,0.6,19.9,5.4c5,4.4,7.4,8.6,8.2,15.5c0.1,3.3-0.3,6.6-1.3,9.8
		c-0.8,2.2-3.2,7.8-5.3,8.8s-3.5-2.8-5.1-4.5c-0.9-1.1-1.6-2.4-2-3.8c-2.1-5.7-4.6-11.5-8.5-16.1s-9.5-8.2-15.6-8.5l-3.9,0.1
		C228.7,263.3,232.8,262.2,237.6,261.8z"/>
	<path class="st4" d="M224,268.1c2.5-2.4,5.7-4.1,9.1-4.8c2.9-0.8,6-0.9,9-0.5l0,0c6.7,0,15.2,9.4,16.8,15.9
		c0.6,3.1,0.6,6.3,0.1,9.5c-0.1,1.6-0.5,3.2-1.1,4.7c-0.7,1.5-1.9,2.6-3.5,3.1c-1.6,0.4-3.3-0.4-4-1.9c-0.4-1.1-0.1-2.4-0.5-3.6
		c-0.9-2.6-4.9-2.8-6.2-5.2c-0.9-1.8-0.1-4.1-1.1-5.8s-3.2-2-5.1-2.7c-3.1-1.2-5.4-3.8-6.1-7h-0.1c-7.3,0.2-10.1,8-11,11.2
		C219.3,276.3,220.7,271.5,224,268.1z"/>
	<path class="st5" d="M254.3,270.8c-0.1,0-0.2,0-0.2,0l-0.7,0.1l-1,0.2c-0.4,0.1-0.9,0.1-1.4,0.2c-1,0.1-2.3,0.3-3.6,0.3
		s-2.9,0.1-4.5,0s-3.1-0.2-4.4-0.4s-2.6-0.4-3.6-0.7c-0.5-0.1-1-0.2-1.4-0.3s-0.8-0.2-1-0.3l-0.6-0.2c-0.1,0-0.2,0-0.2,0l0.2,0.1
		l0.6,0.2l1,0.3c0.4,0.1,0.9,0.2,1.4,0.4c1,0.3,2.2,0.5,3.6,0.7s2.9,0.4,4.4,0.4s3.1,0,4.5,0s2.6-0.2,3.6-0.4c0.5-0.1,1-0.2,1.4-0.2
		s0.8-0.1,1-0.2l0.6-0.2L254.3,270.8z"/>
	<path class="st5" d="M257.5,275c-0.1,0-0.2,0-0.3,0.1l-0.8,0.2l-0.6,0.2c-0.2,0.1-0.4,0.1-0.7,0.2c-0.5,0.1-1.1,0.3-1.6,0.4l-1,0.2
		c-0.3,0.1-0.7,0.1-1.1,0.1c-0.7,0.1-1.5,0.1-2.3,0.1c-1.8,0-3.6-0.2-5.4-0.5c-1.8-0.4-3.5-0.9-5.1-1.6l-1.1-0.5
		c-0.4-0.1-0.7-0.4-1-0.5s-0.6-0.3-0.9-0.5l-0.8-0.5c-0.5-0.3-1-0.7-1.4-0.9l-0.6-0.4l-0.5-0.4l-0.6-0.5c-0.1-0.1-0.1-0.1-0.2-0.2
		l0.2,0.2l0.6,0.5l0.4,0.4c0.2,0.1,0.4,0.3,0.6,0.4c0.4,0.3,0.9,0.6,1.4,1l0.8,0.5c0.3,0.2,0.6,0.3,0.9,0.5s0.7,0.4,1,0.5l1.1,0.5
		c1.7,0.7,3.4,1.3,5.2,1.6c1.8,0.3,3.6,0.5,5.4,0.5c0.8,0,1.6-0.1,2.4-0.1c0.4,0,0.7-0.1,1.1-0.1l1-0.2c0.6-0.1,1.2-0.3,1.7-0.4
		c0.2-0.1,0.5-0.1,0.7-0.2l0.6-0.2l0.8-0.3L257.5,275z"/>
	<path class="st12" d="M254.1,295.1c0-0.8,1.1-2.7,1.9-2.8c2.2-0.2,6,0.1,5.8,5.6c-0.3,7.5-7.8,5.6-7.8,5.4S254,297.9,254.1,295.1z"
		/>
	<path class="st13" d="M256.4,300.6c0,0,0.1,0.1,0.4,0.2c0.3,0.2,0.7,0.2,1,0.1c1-0.6,1.6-1.7,1.6-2.8c0-0.6-0.1-1.3-0.3-1.9
		c-0.1-0.5-0.5-0.8-0.9-1c-0.3-0.1-0.6,0-0.8,0.3c-0.1,0.2-0.1,0.4-0.1,0.4s-0.1-0.1-0.1-0.4c0.1-0.2,0.2-0.3,0.3-0.5
		c0.2-0.1,0.5-0.2,0.7-0.2c0.6,0.2,1.1,0.6,1.3,1.2c0.3,0.7,0.4,1.4,0.4,2.1c-0.1,1.5-1,2.9-2,3.1c-0.4,0.1-0.9,0-1.2-0.3
		C256.5,300.8,256.4,300.6,256.4,300.6z"/>
	<path class="st6" d="M193.1,367.2c-0.1-0.6,2.3-15.6,6.7-25.9c1.6-3.8,2.8-6.4,4.4-8.1c1.6-1.6,3.5-2.8,5.5-3.8l20.8-4.7
		c0,0-1.4,7.3,12.2,6.5c10.1-0.6,11.9-8,11.9-8s20.1,2.3,25,6.7s9.6,30.5,9.6,30.5l-18.9,5.5l-2.3,27.5l6.3,13.7
		c0,0-18.9,14.2-31.9,13.6s-35.6-8.2-35.6-8.2l8.3-17.5l-5.3-26L193.1,367.2z"/>
	<path class="st4" d="M204.6,346.5c0.1,0.3,0.2,0.6,0.2,0.9l0.5,2.5c0.4,2.1,1,5.1,1.8,8.3s1.5,6.2,2.1,8.3c0.3,1,0.5,1.8,0.7,2.5
		c0.1,0.3,0.2,0.6,0.2,0.9c-0.1-0.3-0.3-0.6-0.3-0.9c-0.2-0.6-0.5-1.4-0.8-2.5c-0.6-2.1-1.4-5-2.2-8.3s-1.3-6.2-1.7-8.4
		c-0.2-1.1-0.3-2-0.4-2.6C204.6,347.2,204.6,346.8,204.6,346.5z"/>
	<path class="st4" d="M271.7,341.9c0.4,0,0.2,5.6-0.3,12.4c-0.2,3.4-0.5,6.5-0.6,8.8c-0.1,1.1-0.2,2-0.3,2.7c0,0.3-0.1,0.7-0.1,1
		c0-0.3,0-0.7,0-1c0-0.7,0.1-1.6,0.1-2.7c0.1-2.3,0.3-5.4,0.5-8.8s0.4-6.5,0.5-8.8C271.8,344.3,271.8,343.1,271.7,341.9z"/>
	<path class="st4" d="M256.3,392.5c-0.3,0.2-0.7,0.4-1.1,0.5c-0.4,0.2-0.8,0.4-1.3,0.5s-1.1,0.4-1.8,0.6c-1.5,0.5-3.1,1-4.7,1.4
		c-3.9,0.9-7.9,1.3-11.9,1.2c-1.9-0.1-3.5-0.2-4.9-0.4c-0.7-0.1-1.3-0.2-1.9-0.3s-1-0.2-1.4-0.3c-0.4-0.1-0.8-0.2-1.2-0.3
		c0.4,0,0.8,0.1,1.2,0.2c0.4,0.1,0.9,0.1,1.4,0.2s1.2,0.2,1.9,0.2c1.4,0.2,3,0.3,4.9,0.3c2,0,4-0.1,6-0.2c2-0.2,3.9-0.5,5.9-0.9
		c1.8-0.4,3.4-0.8,4.7-1.3c0.7-0.2,1.3-0.4,1.8-0.6s1-0.4,1.3-0.5C255.6,392.7,256,392.6,256.3,392.5z"/>
	<path class="st4" d="M247.7,329.9l2.3,28.6c0.1,1-0.6,1.8-1.6,1.9l-17.6,1.9c-1,0.1-1.9-0.6-2-1.6c0,0,0,0,0,0l-3.5-29.9
		c-0.1-1,0.6-1.9,1.6-2c0,0,0.1,0,0.1,0l18.8-0.6C246.8,328.2,247.6,329,247.7,329.9z"/>
	<path class="st12" d="M239.6,345.2c0.5,0,10.9,1.9,10.9,1.9l13.7,7.8l7.4,11.1l-7.2,13.4l-3.7-10.8c-2.1,0.1-4.3,0-6.4-0.1
		c-3.2-0.3-13.3-1.1-13.3-1.1l-5.2-2.9c0,0-1.7-2.7-1.7-3.5c0-0.7,0.5-1.2,1.1-1.2c0.2,0,0.5,0.1,0.7,0.2c1.1,0.6,8.4,0.8,10.2,0
		c0,0-10.6-0.8-12-2.5s-0.9-3.1,0.8-3.1s7.7,0.9,9.6,0.8s4.1-0.2,4.6-1.1s-0.9-1.7-0.9-1.7l-2-1.5c0,0-7.7-1.4-8.2-3
		c-0.4-1,0.1-2.1,1.1-2.5C239.2,345.2,239.4,345.2,239.6,345.2z"/>
	<path class="st12" d="M236.1,344.6c0,0-8.9,1.4-9.4,2s-11.7,14.3-11.7,14.3l5.7,11.2l10-5.4c1-0.4,2.1-0.8,3.2-1
		c0,0,10.1-1.6,10.8-2.8s0.3-1.5-0.5-1.7c-2.7,0.1-5.4,0.3-8.1,0.8c-1.3,0.1-2.7,0.1-4,0c0,0,4.2-1,5.1-1.3s10.3-2.4,10.2-4.1
		s-1.3-2.3-7.2-0.7c-3.2,0.9-6.6,1.5-9.9,1.6l13-4.5c0,0,5.2-1.7,3.6-3.2s-12.9,1.6-12.9,1.6l-4.9,1.9l1.4-3c0,0,7-2.1,7.9-2.8
		c1.1-0.9,1.3-1.7,0.4-2.4C237.9,344.5,237,344.4,236.1,344.6z"/>
	<path class="st12" d="M194.1,367.4l15.1,1.5l2.1-2.8l3.5-5.3l5.7,11.2c0,0-2.1,6.7-3.2,10.4c-3,9.9-7.8,20.9-13.8,20.3
		c-7.1-0.7-12.4-9.1-12.3-14.6C191.5,383.2,194.1,367.4,194.1,367.4z"/>
	<path class="st12" d="M287.5,361l-12.6,3.2L271,365l-3.5-5.3l-5.7,11.2c0,0,2.1,6.7,3.2,10.3c3,9.9,7.8,20.9,13.8,20.3
		c7.1-0.7,12.4-9.1,12.3-14.6C290.9,382.1,287.5,361,287.5,361z"/>
	<path class="st13" d="M214.9,360.9l0.3-0.4l0.9-1.1c0.8-1,2-2.5,3.5-4.4l5.6-6.9l0.8-1l0.4-0.5c0.2-0.1,0.4-0.3,0.7-0.3
		c0.9-0.3,1.8-0.5,2.8-0.7c1.9-0.4,3.9-0.8,6.1-1.1l0,0c0.5-0.1,1.1-0.1,1.6-0.1c0.3,0,0.6,0.1,0.8,0.3c0.3,0.2,0.5,0.4,0.6,0.6
		c0.2,0.3,0.2,0.6,0.1,0.9c-0.1,0.3-0.3,0.6-0.5,0.8c-0.2,0.2-0.4,0.4-0.7,0.6c-0.3,0.1-0.5,0.3-0.8,0.4c-2.2,0.9-4.5,1.6-7,2.3
		l0.1-0.1c-0.4,0.9-0.9,2-1.4,3l-0.2-0.2l5-1.9l0,0c2.1-0.6,4.3-1.1,6.6-1.5c1.1-0.2,2.3-0.4,3.5-0.5c0.6,0,1.2,0,1.8,0
		c0.3,0,0.6,0.1,0.9,0.2c0.3,0.1,0.6,0.4,0.7,0.7c0.1,0.4,0,0.7-0.3,1c-0.2,0.2-0.5,0.4-0.7,0.6c-0.5,0.3-1.1,0.6-1.6,0.9
		c-1.1,0.5-2.3,0.8-3.4,1.3l-7,2.5l-3.8,1.3l-0.1-0.4c3.1-0.1,6.2-0.6,9.2-1.4c1.5-0.4,2.9-0.8,4.4-1c0.8-0.1,1.5-0.1,2.3,0
		c0.4,0.1,0.8,0.3,1,0.6c0.2,0.3,0.4,0.7,0.4,1.1c0,0.2-0.1,0.4-0.3,0.6c-0.1,0.1-0.3,0.3-0.4,0.4c-0.3,0.2-0.7,0.4-1,0.5
		c-0.7,0.3-1.3,0.6-2,0.8c-1.4,0.5-2.7,0.9-4,1.2l-2,0.5c-0.6,0.2-1.3,0.4-1.9,0.5c-1.3,0.3-2.6,0.6-3.8,0.9v-0.3
		c1.5,0.2,2.9,0.2,4.4-0.1c1.4-0.2,2.8-0.4,4.2-0.5c0.7-0.1,1.4-0.1,2-0.2c0.3,0,0.7,0,1,0c0.2,0,0.4,0,0.5,0c0.2,0,0.3,0.1,0.5,0.2
		c0.2,0.1,0.3,0.2,0.4,0.4c0.1,0.2,0.1,0.4,0,0.5c0,0.2-0.1,0.3-0.2,0.5l-0.1,0.2c0,0.1-0.1,0.2-0.2,0.2c-0.5,0.4-1.1,0.6-1.8,0.8
		c-2.2,0.6-4.5,1.1-6.7,1.5l-1.5,0.3c-0.5,0.1-1,0.2-1.4,0.3c-0.9,0.2-1.8,0.5-2.6,0.9l-7.2,3.9l-1.9,1l-0.5,0.3l-0.2,0.1l0.2-0.1
		l0.5-0.3l1.9-1l7.2-4c1.8-0.8,3.7-1.3,5.6-1.6c2.3-0.4,4.5-0.9,6.7-1.5c0.6-0.2,1.1-0.4,1.6-0.7c0,0,0.1-0.1,0.1-0.1l0.1-0.2
		c0.1-0.1,0.1-0.3,0.2-0.4c0.1-0.3,0-0.6-0.2-0.7c-0.1-0.1-0.3-0.1-0.4-0.1c-0.2,0-0.3,0-0.5,0c-0.3,0-0.7,0-1,0
		c-0.7,0-1.3,0.1-2,0.2c-1.4,0.1-2.8,0.3-4.2,0.5c-1.5,0.2-3,0.2-4.5,0.1c-0.1,0-0.1-0.1-0.1-0.2c0,0,0,0,0,0c0-0.1,0.1-0.1,0.1-0.1
		l0,0c1.2-0.3,2.5-0.6,3.8-0.9c0.6-0.1,1.3-0.4,1.9-0.5l2-0.5c1.3-0.4,2.7-0.8,4-1.2c0.7-0.2,1.3-0.5,2-0.8c0.3-0.1,0.6-0.3,0.9-0.5
		c0.3-0.2,0.6-0.5,0.6-0.7c0-0.3-0.1-0.7-0.3-0.9c-0.2-0.3-0.5-0.4-0.8-0.5c-0.7-0.1-1.4-0.1-2.1,0c-1.5,0.2-3,0.6-4.4,1
		c-3,0.8-6.1,1.3-9.3,1.4c-0.1,0-0.2-0.1-0.2-0.2c0-0.1,0.1-0.2,0.1-0.2l0,0l3.8-1.3l7-2.5c1.1-0.4,2.3-0.8,3.4-1.2
		c0.5-0.2,1.1-0.5,1.6-0.8c0.2-0.2,0.5-0.3,0.7-0.5c0.2-0.2,0.3-0.4,0.2-0.6c-0.1-0.5-0.7-0.6-1.3-0.7c-0.6,0-1.2,0-1.7,0
		c-1.1,0.1-2.3,0.3-3.4,0.5c-2.2,0.4-4.4,0.9-6.5,1.5l0,0l-4.9,1.9c-0.1,0-0.2,0-0.2-0.1c0,0,0,0,0,0c0,0,0-0.1,0-0.1
		c0.5-1,1-2.1,1.4-3c0,0,0.1-0.1,0.1-0.1c2.4-0.7,4.8-1.4,6.9-2.3c0.3-0.1,0.5-0.2,0.8-0.4c0.2-0.1,0.5-0.3,0.6-0.5
		c0.4-0.3,0.6-0.9,0.4-1.4c-0.3-0.4-0.7-0.7-1.2-0.8c-0.5-0.1-1,0-1.5,0.1l0,0c-2.1,0.4-4.2,0.7-6.1,1.1c-0.9,0.2-1.9,0.4-2.8,0.6
		c-0.2,0.1-0.4,0.1-0.6,0.3l-0.4,0.5l-0.9,1l-5.6,6.8l-3.6,4.3l-0.9,1.1C215,360.8,214.9,360.9,214.9,360.9z"/>
	<path class="st13" d="M215.8,360.5c0.1,0.1-4.1,5.7-9.3,12.5s-9.6,12.3-9.7,12.2s4.1-5.7,9.3-12.5S215.7,360.5,215.8,360.5z"/>
	<path class="st13" d="M284.5,385.2c-0.1,0-0.6-1.3-1.7-3.2c-1.5-2.5-3.1-5-4.8-7.3c-2.1-2.8-4-5.2-5.4-7c-0.7-0.9-1.2-1.6-1.6-2.2
		c-0.2-0.3-0.4-0.5-0.5-0.8c0.2,0.2,0.5,0.5,0.6,0.7l1.7,2.1c1.4,1.8,3.4,4.1,5.5,6.9c1.8,2.4,3.4,4.8,4.8,7.5
		c0.4,0.8,0.8,1.6,1.1,2.5C284.3,384.6,284.4,384.9,284.5,385.2z"/>
</g>
<g>
	<path class="st9" d="M94.2,306l2.3,0.2l0.2-3.6l-2.2-0.1l0.2-3.3l2.2,0.1l0-0.7c0.1-2.3,0.9-4,2.1-5.1c1.3-1.1,3-1.7,5.2-1.5
		c0.7,0,1.5,0.2,2.2,0.4c0.7,0.2,1.3,0.5,1.8,0.8l-0.8,3.4c-1-0.6-2-0.9-3-1c-1-0.1-1.8,0.2-2.3,0.7c-0.6,0.6-0.9,1.4-1,2.6l0,0.6
		l4.5,0.3l-0.2,3.3l-4.5-0.3l-0.2,3.6l6.8,0.4l-0.2,3.6L94,309.5L94.2,306z"/>
</g>
</svg>
