<?xml version="1.0" encoding="utf-8"?>
<!-- Generator: Adobe Illustrator 24.2.1, SVG Export Plug-In . SVG Version: 6.00 Build 0)  -->
<svg version="1.1" id="Layer_1" xmlns="http://www.w3.org/2000/svg" xmlns:xlink="http://www.w3.org/1999/xlink" x="0px" y="0px"
	 viewBox="0 0 750 500" style="enable-background:new 0 0 750 500;" xml:space="preserve">
<style type="text/css">
	.st0{fill:#D4E4EC;}
	.st1{fill:#C6DBE6;}
	.st2{fill:#E0ECF3;}
	.st3{fill:#FFFFFF;}
	.st4{fill:#15ABEA;}
	.st5{fill:#263238;}
	.st6{opacity:0.5;}
	.st7{fill:#455A64;}
	.st8{opacity:0.3;}
	.st9{fill:#FFBE9D;}
	.st10{fill:#EB996E;}
	.st11{opacity:0.4;}
</style>
<g id="freepik--background-complete--inject-6">
	<rect x="644.7" y="412.6" class="st0" width="90.8" height="60.7"/>
	<rect x="698.6" y="412.6" class="st1" width="37" height="60.7"/>
	<rect x="596.6" y="51.6" class="st1" width="87.9" height="127.4"/>
	<rect x="592.2" y="51.6" class="st2" width="87.9" height="127.4"/>
	<rect x="603.2" y="65.4" class="st3" width="66" height="99.8"/>
	<path class="st1" d="M669.2,165.1c0,0,0-0.2,0-0.5s0-0.8,0-1.4c0-1.3,0-3.1,0-5.5c0-4.8,0-11.8,0-20.6c0-17.6-0.1-42.5-0.1-71.9
		l0.2,0.2h-66l0,0l0.2-0.2c0,37.6,0,72.3,0,99.8l-0.2-0.2l48.1,0.1l13.3,0.1h3.5h1.2h-1.2h-3.5l-13.2,0.1l-48.2,0.1H603V165
		c0-27.4,0-62.2,0-99.8V65h0.3h66h0.2v0.2c0,29.4-0.1,54.4-0.1,72c0,8.8,0,15.7-0.1,20.5c0,2.4,0,4.2,0,5.4c0,0.6,0,1.1,0,1.4
		S669.2,165.1,669.2,165.1z"/>
	<path class="st1" d="M680.4,51.6c-0.4,0.8-1,1.6-1.6,2.3c-1,1.4-2.5,3.2-4.1,5.2s-3.2,3.8-4.3,5.1c-0.6,0.7-1.2,1.4-1.9,2
		c0.5-0.8,1.1-1.5,1.7-2.2l4.2-5.1c1.6-1.9,3-3.7,4.2-5.1C679.1,52.9,679.7,52.2,680.4,51.6z"/>
	<path class="st3" d="M669.5,164.8c3.3,5.2,7.2,10.1,11.5,14.4"/>
	<path class="st1" d="M681.1,179.2c-0.7-0.5-1.4-1.2-2-1.8c-3.1-3.1-5.8-6.5-8.2-10.2c-0.5-0.7-1-1.5-1.3-2.4
		c0.6,0.7,1.1,1.4,1.6,2.2c1,1.4,2.3,3.2,3.9,5.2s3.1,3.7,4.2,5C679.9,177.8,680.5,178.5,681.1,179.2z"/>
	<path class="st3" d="M592.2,178.9c3.8-4.7,7.7-9.5,11.5-14.2"/>
	<path class="st1" d="M603.7,164.6c-1.7,2.5-3.6,4.9-5.6,7.3c-1.9,2.4-3.8,4.7-5.9,6.9c1.7-2.5,3.6-4.9,5.6-7.3
		C599.7,169.2,601.6,166.9,603.7,164.6z"/>
	<path class="st1" d="M592.2,51.6c2,2.1,3.8,4.4,5.6,6.7c1.9,2.2,3.6,4.6,5.2,7c-2-2.1-3.8-4.4-5.6-6.7
		C595.6,56.3,593.9,54,592.2,51.6z"/>
	<rect x="626.5" y="85.6" class="st1" width="22.1" height="62.8"/>
	<rect x="580.8" y="204.9" class="st0" width="90.8" height="60.7"/>
	<rect x="634.7" y="204.9" class="st1" width="37" height="60.7"/>
	<rect x="66.1" y="139.1" class="st1" width="65.6" height="68.4"/>
	<rect x="61.7" y="139.1" class="st3" width="65.6" height="68.4"/>
	<path class="st1" d="M127.3,207.5H61.7v-68.4h65.7L127.3,207.5z M61.7,207.5h65.6v-68.4H61.7V207.5z"/>
	<rect x="70.5" y="148.3" class="st3" width="48" height="50"/>
	<path class="st1" d="M70.5,198.6c-0.3,0.5-0.7,1-1.2,1.4c-0.8,0.8-1.8,1.9-3,3.1s-2.3,2.2-3.1,3c-0.4,0.4-0.9,0.8-1.4,1.1
		c0.3-0.5,0.7-1,1.2-1.4c0.8-0.8,1.9-1.9,3.1-3.1s2.3-2.3,3.1-3C69.6,199.3,70,199,70.5,198.6z"/>
	<path class="st1" d="M118.5,198.5c0.5,0.3,1,0.7,1.4,1.2c0.8,0.8,1.9,1.8,3.1,3.1s2.2,2.3,3,3.1c0.4,0.4,0.8,0.9,1.2,1.4
		c-0.5-0.3-1-0.7-1.4-1.2c-0.8-0.8-1.9-1.8-3.1-3.1s-2.3-2.3-3-3.1C119.2,199.5,118.8,199,118.5,198.5z"/>
	<path class="st1" d="M118.3,148.4c0.3-0.5,0.7-1,1.2-1.4c0.8-0.8,1.8-1.9,3-3.1s2.3-2.3,3.1-3c0.4-0.4,0.9-0.8,1.4-1.2
		c-0.3,0.5-0.7,1-1.2,1.4c-0.8,0.8-1.8,1.9-3,3.1s-2.3,2.3-3.1,3C119.3,147.7,118.9,148.1,118.3,148.4z"/>
	<path class="st1" d="M70.4,148.6c-0.5-0.3-1-0.7-1.4-1.2c-0.8-0.8-1.9-1.9-3.1-3.1s-2.3-2.3-3-3.1c-0.4-0.4-0.8-0.9-1.2-1.4
		c0.5,0.4,1,0.8,1.4,1.2c0.8,0.8,1.9,1.9,3.1,3.1s2.3,2.3,3,3.1C69.6,147.6,70,148.1,70.4,148.6z"/>
	<path class="st1" d="M118.3,198.3c0-0.1,0-0.2,0-0.2c0-0.2,0-0.4,0-0.7c0-0.6,0-1.5,0-2.7c0-2.4,0-5.8,0-10.2
		c0-8.8-0.1-21.2-0.1-36.2l0.2,0.2H70.6l0,0l0.2-0.2c0,18.4,0,35.5,0,50l-0.2-0.2l34.6,0.1h9.7h2.6L118.3,198.3l-0.1-0.1h-0.6h-2.5
		h-9.7l-34.8,0.1h-0.2v-0.2c0-14.5,0-31.6,0-50v-0.2h0.2h47.8h0.2v0.2c0,15-0.1,27.5-0.1,36.3c0,4.4,0,7.8,0,10.1c0,1.2,0,2,0,2.7
		c0,0.3,0,0.5,0,0.7S118.3,198.3,118.3,198.3z"/>
	<rect x="86.5" y="165.3" class="st0" width="16" height="16"/>
</g>
<g id="freepik--Floor--inject-6">
</g>
<g id="freepik--Plant--inject-6">
	<path class="st4" d="M81.5,405c-15-8.1-31.9-22.9-38.4-39.6C59.3,373.8,73,387.9,81.5,405"/>
	<path class="st4" d="M80.5,379.9c-15-8.1-31.9-22.9-38.4-39.6C58.3,348.6,72,362.7,80.5,379.9"/>
	<path class="st4" d="M78.3,355.3c-15-8.1-31.9-22.9-38.4-39.6C56,324,69.7,338.1,78.3,355.3"/>
	<path class="st4" d="M75,329.5c-13.9-10.1-28.9-27.1-33.4-44.7C56.7,295.3,68.6,311.2,75,329.5"/>
	<path class="st4" d="M70.8,309.5c-9.4-15.1-17.5-36.9-15.6-55.1C65.6,270.9,71.1,290,70.8,309.5"/>
	<path class="st4" d="M72.9,319c4-18.8,13.6-42,27.5-55.1C96.3,284.4,86.8,303.4,72.9,319"/>
	<path class="st4" d="M76,340.3c5.7-19.2,17.6-42.6,33.2-55C103.3,306.3,91.8,325.3,76,340.3"/>
	<path class="st4" d="M79.4,366.2c5.7-19.2,17.6-42.6,33.2-55C106.7,332.2,95.2,351.2,79.4,366.2"/>
	<path class="st4" d="M81.1,397.8c5.7-19.2,17.6-42.6,33.2-55C108.4,363.7,96.9,382.7,81.1,397.8"/>
	<path class="st5" d="M70.4,305.7c0,0.1,0.1,0.2,0.1,0.3c0.1,0.2,0.1,0.5,0.2,0.9c0.2,0.9,0.4,2,0.8,3.5c0.7,3,1.5,7.4,2.5,12.9
		s2,12,3.1,19.3s2,15.3,2.7,23.7s1.3,16.5,1.6,23.8s0.5,14,0.5,19.5s0,10-0.1,13.1c0,1.5-0.1,2.7-0.1,3.6c0,0.4,0,0.7,0,0.9
		c0,0.1,0,0.2,0,0.3c0-0.1,0-0.2,0-0.3c0-0.3,0-0.5,0-0.9v-3.6c0-3.1,0-7.6-0.1-13.1s-0.3-12.1-0.6-19.5s-0.9-15.4-1.7-23.8
		s-1.7-16.4-2.7-23.7s-2-13.8-2.9-19.3s-1.7-9.9-2.3-12.9c-0.3-1.5-0.5-2.7-0.7-3.5l-0.2-0.9C70.5,306,70.4,305.8,70.4,305.7z"/>
	<g class="st6">
		<path d="M81.5,405c-15-8.1-31.9-22.9-38.4-39.6C59.3,373.8,73,387.9,81.5,405"/>
		<path d="M80.5,379.9c-15-8.1-31.9-22.9-38.4-39.6C58.3,348.6,72,362.7,80.5,379.9"/>
		<path d="M78.3,355.3c-15-8.1-31.9-22.9-38.4-39.6C56,324,69.7,338.1,78.3,355.3"/>
		<path d="M75,329.5c-13.9-10.1-28.9-27.1-33.4-44.7C56.7,295.3,68.6,311.2,75,329.5"/>
		<path d="M70.8,309.5c-9.4-15.1-17.5-36.9-15.6-55.1C65.6,270.9,71.1,290,70.8,309.5"/>
		<path d="M72.9,319c4-18.8,13.6-42,27.5-55.1C96.3,284.4,86.8,303.4,72.9,319"/>
		<path d="M76,340.3c5.7-19.2,17.6-42.6,33.2-55C103.3,306.3,91.8,325.3,76,340.3"/>
		<path d="M79.4,366.2c5.7-19.2,17.6-42.6,33.2-55C106.7,332.2,95.2,351.2,79.4,366.2"/>
		<path d="M81.1,397.8c5.7-19.2,17.6-42.6,33.2-55C108.4,363.7,96.9,382.7,81.1,397.8"/>
	</g>
	<path class="st4" d="M88.1,411.5c-7-14.6-12.1-35.2-8.6-51.3C87.2,376.2,90.3,394,88.1,411.5"/>
	<path class="st4" d="M99.7,392.6c-7-14.6-12.1-35.2-8.6-51.3C98.9,357.2,101.9,375,99.7,392.6"/>
	<path class="st4" d="M110.1,373.3c-7-14.6-12.1-35.2-8.6-51.3C109.3,338,112.3,355.8,110.1,373.3"/>
	<path class="st4" d="M120.4,352.5c-5.2-15.5-7.8-36.6-2.5-52C123.7,317.3,124.6,335.3,120.4,352.5"/>
	<path class="st4" d="M127.1,335.5c0.5-16.5,5.4-37.1,15.6-49.3C142.4,303.9,137,321,127.1,335.5"/>
	<path class="st4" d="M124,343.7c12.1-11.4,30.5-22.8,47.1-24.3C158.1,332,141.8,340.5,124,343.7"/>
	<path class="st4" d="M115.8,361c13.6-10.8,33.8-20.9,51.2-20.9C152.4,352,134.6,359.3,115.8,361"/>
	<path class="st4" d="M105.6,381.9c13.6-10.8,33.8-20.9,51.2-20.9C142.2,372.9,124.4,380.2,105.6,381.9"/>
	<path class="st4" d="M91.4,406c13.6-10.8,33.8-20.9,51.2-20.9C128,397,110.1,404.3,91.4,406"/>
	<path class="st5" d="M128.7,332.5c0,0.1,0,0.2-0.1,0.3c-0.1,0.2-0.2,0.5-0.3,0.8l-1.1,3c-1,2.6-2.5,6.3-4.4,10.8
		c-3.9,9.1-9.6,21.4-16.8,34.6c-3.6,6.6-7.2,12.8-10.5,18.4S89,410.9,86.2,415s-5,7.4-6.6,9.6l-1.8,2.6l-0.5,0.7
		c-0.1,0.1-0.1,0.1-0.2,0.2c0,0,0-0.1,0.1-0.3l0.4-0.7c0.4-0.6,1-1.5,1.8-2.6c1.6-2.3,3.8-5.6,6.4-9.7s5.8-9.1,9.1-14.7
		s6.9-11.8,10.5-18.4c7.1-13.2,12.9-25.5,16.9-34.5c2-4.5,3.6-8.2,4.6-10.7l1.2-2.9l0.3-0.8C128.6,332.7,128.6,332.6,128.7,332.5z"
		/>
	<polygon class="st5" points="108,473.2 65.1,473.2 57.1,414 116.2,414 	"/>
	<path class="st7" d="M114.1,422.7c0,0.1-12.4,0.3-27.7,0.3s-27.7-0.1-27.7-0.3s12.4-0.3,27.7-0.3S114.1,422.5,114.1,422.7z"/>
</g>
<g id="freepik--Device--inject-6">
	<path class="st5" d="M237.4,45.1h275.2c6.4,0,11.5,5.2,11.5,11.5v404.9c0,6.4-5.2,11.5-11.5,11.5H237.4c-6.4,0-11.6-5.2-11.6-11.5
		V56.7C225.9,50.3,231,45.1,237.4,45.1z"/>
	<rect x="235.1" y="75.7" class="st3" width="279.5" height="357.5"/>
	<path class="st7" d="M386.4,451.6c0,6.3-5.1,11.4-11.4,11.4s-11.4-5.1-11.4-11.4s5.1-11.4,11.4-11.4S386.4,445.3,386.4,451.6
		L386.4,451.6z"/>
	<path class="st7" d="M331.3,57.4h87.4c0.7,0,1.2,0.5,1.2,1.2v2.3c0,0.7-0.5,1.2-1.2,1.2h-87.4c-0.7,0-1.2-0.5-1.2-1.2v-2.3
		C330.1,58,330.6,57.4,331.3,57.4z"/>
	<path class="st4" d="M260.8,133.1h62.7c2.5,0,4.6,2.1,4.6,4.6v62.7c0,2.5-2.1,4.6-4.6,4.6h-62.7c-2.5,0-4.6-2.1-4.6-4.6v-62.7
		C256.2,135.2,258.3,133.1,260.8,133.1z"/>
	<path class="st3" d="M280,157.6h24.3c1.4,0,2.5,1.1,2.5,2.5v10.6c0,1.4-1.1,2.5-2.5,2.5H280c-1.4,0-2.5-1.1-2.5-2.5v-10.6
		C277.4,158.8,278.6,157.6,280,157.6z"/>
	<path class="st3" d="M272.1,164.4h40.3c0.6,0,1,0.5,1,1v13c0,0.6-0.5,1-1,1h-40.3c-0.6,0-1-0.5-1-1v-13
		C271,164.9,271.5,164.4,272.1,164.4z"/>
	<path class="st5" d="M306.8,164.4c0.2,1.7,0.3,3.5,0.3,5.2v0.3h-0.3c-3.6,0.1-8.9,0.1-14.7,0.1s-11.1-0.1-14.7-0.1h-0.3v-0.3
		c0-1.7,0.1-3.5,0.3-5.2c0.3,1.7,0.4,3.5,0.3,5.2l-0.3-0.3c3.6-0.1,8.9-0.1,14.7-0.1s11.1,0.1,14.7,0.1l-0.3,0.3
		C306.5,167.9,306.6,166.2,306.8,164.4z"/>
	<path class="st5" d="M277.3,179.3c-0.3,0-0.5-3.3-0.5-7.3s0.2-7.3,0.5-7.3s0.5,3.3,0.5,7.3S277.5,179.3,277.3,179.3z"/>
	<path class="st5" d="M306.9,179.5c-0.3,0-0.5-3.1-0.5-7s0.2-7,0.5-7s0.5,3.1,0.5,7S307.1,179.5,306.9,179.5z"/>
	<path class="st1" d="M342.2,133.1h62.7c2.5,0,4.6,2.1,4.6,4.6v62.7c0,2.5-2.1,4.6-4.6,4.6h-62.7c-2.5,0-4.6-2.1-4.6-4.6v-62.7
		C337.6,135.2,339.7,133.1,342.2,133.1z"/>
	<path class="st4" d="M361.4,157.6h24.3c1.4,0,2.5,1.1,2.5,2.5v10.6c0,1.4-1.1,2.5-2.5,2.5h-24.3c-1.4,0-2.5-1.1-2.5-2.5v-10.6
		C358.8,158.8,360,157.6,361.4,157.6z"/>
	<path class="st4" d="M353.5,164.4h40.3c0.6,0,1,0.5,1,1v13c0,0.6-0.5,1-1,1h-40.3c-0.6,0-1-0.5-1-1v-13
		C352.4,164.9,352.9,164.4,353.5,164.4z"/>
	<path class="st5" d="M388.2,164.4c0.2,1.7,0.3,3.5,0.3,5.2v0.3h-0.3c-3.6,0.1-8.9,0.1-14.7,0.1s-11.1-0.1-14.7-0.1h-0.3v-0.3
		c0-1.7,0.1-3.5,0.3-5.2c0.3,1.7,0.4,3.5,0.3,5.2l-0.3-0.3c3.6-0.1,8.9-0.1,14.7-0.1s11.1,0.1,14.7,0.1l-0.3,0.3
		C387.9,167.9,388,166.2,388.2,164.4z"/>
	<path class="st5" d="M358.7,179.3c-0.3,0-0.5-3.3-0.5-7.3s0.2-7.3,0.5-7.3s0.5,3.3,0.5,7.3S358.9,179.3,358.7,179.3z"/>
	<path class="st5" d="M388.2,179.5c-0.3,0-0.5-3.1-0.5-7s0.2-7,0.5-7s0.5,3.1,0.5,7S388.5,179.5,388.2,179.5z"/>
	<path class="st1" d="M423.6,133.1h62.7c2.5,0,4.6,2.1,4.6,4.6v62.7c0,2.5-2.1,4.6-4.6,4.6h-62.7c-2.5,0-4.6-2.1-4.6-4.6v-62.7
		C419,135.2,421,133.1,423.6,133.1z"/>
	<path class="st7" d="M442.7,157.6H467c1.4,0,2.5,1.1,2.5,2.5v10.6c0,1.4-1.1,2.5-2.5,2.5h-24.3c-1.4,0-2.5-1.1-2.5-2.5v-10.6
		C440.2,158.8,441.3,157.6,442.7,157.6z"/>
	<path class="st7" d="M434.8,164.4h40.3c0.6,0,1,0.5,1,1v13c0,0.6-0.5,1-1,1h-40.3c-0.6,0-1-0.5-1-1v-13
		C433.8,164.9,434.3,164.4,434.8,164.4z"/>
	<path class="st5" d="M469.6,164.4c0.3,1.7,0.4,3.5,0.3,5.2v0.3h-0.3c-3.6,0.1-8.9,0.1-14.7,0.1s-11.1-0.1-14.7-0.1h-0.3v-0.3
		c0-1.7,0.1-3.5,0.3-5.2c0.2,1.7,0.3,3.5,0.3,5.2l-0.3-0.3c3.6-0.1,8.9-0.1,14.7-0.1s11.1,0.1,14.7,0.1l-0.3,0.3
		C469.2,167.9,469.3,166.2,469.6,164.4z"/>
	<path class="st5" d="M440,179.3c-0.3,0-0.5-3.3-0.5-7.3s0.2-7.3,0.5-7.3s0.5,3.3,0.5,7.3S440.3,179.3,440,179.3z"/>
	<path class="st5" d="M469.6,179.5c-0.3,0-0.5-3.1-0.5-7s0.2-7,0.5-7s0.5,3.1,0.5,7S469.9,179.5,469.6,179.5z"/>
	<path class="st1" d="M260.8,223.6h62.7c2.5,0,4.6,2.1,4.6,4.6v62.7c0,2.5-2.1,4.6-4.6,4.6h-62.7c-2.5,0-4.6-2.1-4.6-4.6v-62.7
		C256.2,225.7,258.3,223.6,260.8,223.6z"/>
	<path class="st4" d="M277.2,258.3l3.3,11.7l23,0.1l3.7-11.2c-1.3-0.4-2.6-0.6-4-0.5l-0.4-12.5c0-0.9-0.8-1.7-1.7-1.7
		c-0.2,0-0.4,0.1-0.6,0.1l-2.2,1h-13l-1.5-0.8c-0.8-0.4-1.8-0.1-2.3,0.7c-0.1,0.2-0.2,0.5-0.2,0.8v12.3
		C280,258.2,278.6,258.1,277.2,258.3z"/>
	
		<rect x="275.8" y="274.7" transform="matrix(4.188741e-03 -1 1 4.188741e-03 4.5898 555.2626)" class="st5" width="10.6" height="1.2"/>
	
		<rect x="282.7" y="272.1" transform="matrix(4.188741e-03 -1 1 4.188741e-03 11.4757 556.9952)" class="st5" width="5.4" height="1.2"/>
	
		<rect x="294.8" y="272.3" transform="matrix(4.188741e-03 -1 1 4.188741e-03 23.4229 569.2534)" class="st5" width="5.4" height="1.2"/>
	
		<rect x="297.6" y="274.8" transform="matrix(4.188741e-03 -1 1 4.188741e-03 26.2156 577.2006)" class="st5" width="10.6" height="1.2"/>
	<path class="st5" d="M285.4,263.3c-0.1,0-0.1-4-0.1-8.9s0.1-8.9,0.2-8.9s0.1,4,0.1,8.9S285.5,263.3,285.4,263.3z"/>
	<path class="st5" d="M298.4,263.3c-0.1,0-0.1-4-0.1-8.9s0.1-8.9,0.2-8.9s0.1,4,0.1,8.9S298.5,263.3,298.4,263.3z"/>
	<path class="st5" d="M303.3,258.5c-0.2,0.1-0.4,0.1-0.6,0.2l-0.3,0.1l-0.4,0.1l-0.4,0.2l-0.5,0.3c-0.8,0.4-1.4,1.1-1.8,1.8
		c-0.5,1-0.7,2.1-0.6,3.2v0.2h-6.3h-6.9h-0.1v-0.1c0-1.1-0.3-2.1-0.8-3c-0.4-0.7-0.9-1.3-1.5-1.8c-0.6-0.4-1.2-0.8-1.8-1.1
		c0.2,0,0.4,0.1,0.5,0.2c0.5,0.2,0.9,0.5,1.4,0.8c0.6,0.5,1.2,1.2,1.6,1.9c0.6,0.9,0.9,2,0.9,3.1l-0.1-0.1h6.9h6.1l-0.1,0.2
		c-0.1-1.2,0.1-2.3,0.7-3.3c0.5-0.8,1.2-1.5,2-1.9l0.5-0.2l0.5-0.1l0.4-0.1l0.3-0.1C302.8,258.5,303,258.5,303.3,258.5z"/>
	<path class="st5" d="M285.2,264.4c0,0-0.4,0.1-1.1,0.4c-0.8,0.4-1.5,0.9-2.1,1.7c-0.5,0.7-0.9,1.6-1,2.5c0,0.4-0.1,0.8-0.1,1.1
		c-0.1-0.4-0.2-0.8-0.1-1.2c0.1-1,0.4-1.9,1-2.6c0.6-0.8,1.4-1.3,2.3-1.7C284.4,264.4,284.8,264.4,285.2,264.4z"/>
	<path class="st5" d="M303.3,270.4c0,0-0.1-0.5-0.3-1.3c-0.2-1-0.7-1.9-1.4-2.7c-0.7-0.8-1.5-1.4-2.4-1.8c-0.7-0.3-1.2-0.4-1.2-0.4
		c0.4,0,0.9,0,1.3,0.2c2,0.7,3.5,2.4,3.9,4.6C303.4,269.5,303.4,269.9,303.3,270.4z"/>
	<path class="st1" d="M342.2,223.6h62.7c2.5,0,4.6,2.1,4.6,4.6v62.7c0,2.5-2.1,4.6-4.6,4.6h-62.7c-2.5,0-4.6-2.1-4.6-4.6v-62.7
		C337.6,225.7,339.7,223.6,342.2,223.6z"/>
	<path class="st4" d="M423.6,223.6h62.7c2.5,0,4.6,2.1,4.6,4.6v62.7c0,2.5-2.1,4.6-4.6,4.6h-62.7c-2.5,0-4.6-2.1-4.6-4.6v-62.7
		C419,225.7,421,223.6,423.6,223.6z"/>
	<path class="st4" d="M260.8,314.1h62.7c2.5,0,4.6,2.1,4.6,4.6v62.7c0,2.5-2.1,4.6-4.6,4.6h-62.7c-2.5,0-4.6-2.1-4.6-4.6v-62.7
		C256.2,316.2,258.3,314.1,260.8,314.1z"/>
	<path class="st1" d="M342.2,314.1h62.7c2.5,0,4.6,2.1,4.6,4.6v62.7c0,2.5-2.1,4.6-4.6,4.6h-62.7c-2.5,0-4.6-2.1-4.6-4.6v-62.7
		C337.6,316.2,339.7,314.1,342.2,314.1z"/>
	<path class="st1" d="M423.6,314.1h62.7c2.5,0,4.6,2.1,4.6,4.6v62.7c0,2.5-2.1,4.6-4.6,4.6h-62.7c-2.5,0-4.6-2.1-4.6-4.6v-62.7
		C419,316.2,421,314.1,423.6,314.1z"/>
	<circle class="st5" cx="364.6" cy="407.2" r="2.6"/>
	<path class="st5" d="M377.6,407.2c0,1.4-1.2,2.6-2.6,2.6s-2.6-1.2-2.6-2.6s1.2-2.6,2.6-2.6S377.6,405.8,377.6,407.2L377.6,407.2z"
		/>
	<path class="st5" d="M388,407.2c0,1.4-1.2,2.6-2.6,2.6s-2.6-1.2-2.6-2.6s1.2-2.6,2.6-2.6l0,0C386.8,404.6,388,405.8,388,407.2z"/>
	<path class="st5" d="M272.8,105.6h-13.2c-0.3,0-0.5-0.2-0.5-0.5s0.2-0.5,0.5-0.5h13.2c0.3,0,0.5,0.2,0.5,0.5S273,105.6,272.8,105.6
		z"/>
	<path class="st5" d="M264.7,109.8c-0.1,0-0.2,0-0.3-0.1l-5.9-4.2c-0.1-0.1-0.2-0.2-0.2-0.4c0-0.2,0.1-0.3,0.2-0.4l6.1-4.2
		c0.2-0.2,0.5-0.2,0.7,0s0.2,0.5,0,0.7c0,0-0.1,0-0.1,0.1l-5.5,3.8l5.3,3.8c0.2,0.2,0.3,0.5,0.1,0.7
		C265,109.7,264.9,109.8,264.7,109.8L264.7,109.8z"/>
	<path class="st5" d="M485.3,105.7h-13.2c-0.3,0-0.5-0.2-0.5-0.5s0.2-0.5,0.5-0.5h13.2c0.3,0,0.5,0.2,0.5,0.5
		S485.6,105.7,485.3,105.7z"/>
	<path class="st5" d="M480,109.8c-0.2,0-0.3-0.1-0.4-0.2c-0.1-0.2-0.1-0.5,0.1-0.7l5.5-3.8l-5.3-3.8c-0.2-0.2-0.3-0.5-0.1-0.7
		c0.2-0.2,0.5-0.3,0.7-0.1l0,0l5.9,4.2c0.1,0.1,0.2,0.2,0.2,0.4c0,0.2-0.1,0.3-0.2,0.4l-6.1,4.2C480.2,109.8,480.1,109.8,480,109.8z
		"/>
	<path class="st1" d="M281.7,342.7h24.9c1.3,0,2.4,1.1,2.4,2.4v15c0,1.3-1.1,2.4-2.4,2.4h-24.9c-1.3,0-2.4-1.1-2.4-2.4v-15
		C279.3,343.8,280.4,342.7,281.7,342.7z"/>
	<path class="st5" d="M300.9,346.4c0-0.1,0-0.3,0-0.4c0-0.3,0-0.7,0.1-1.1c0.1-1.3,0.1-2.7,0-4c-0.2-1.9-1-3.8-2.3-5.2
		c-0.8-0.8-1.8-1.4-2.9-1.6c-1.2-0.2-2.5-0.3-3.7-0.3c-2.5,0-5,0.5-6.7,1.9c-0.8,0.7-1.4,1.5-1.8,2.5c-0.4,0.8-0.6,1.7-0.7,2.6
		c-0.1,1.3-0.1,2.7,0,4c0,0.4,0.1,0.8,0.1,1.1c0,0.3,0,0.4,0,0.4c0-0.1-0.1-0.2-0.1-0.4c0-0.2-0.1-0.6-0.1-1.1
		c-0.2-1.3-0.2-2.7-0.1-4c0.1-0.9,0.3-1.8,0.7-2.7c0.4-1,1.1-1.9,1.9-2.6c0.9-0.7,2-1.3,3.2-1.6c1.2-0.3,2.5-0.5,3.8-0.5
		s2.5,0.1,3.8,0.3c1.2,0.3,2.2,0.9,3.1,1.7c1.3,1.5,2.2,3.4,2.3,5.4c0.1,1.3,0.1,2.7-0.1,4c0,0.5-0.1,0.8-0.1,1.1
		C301,346.1,300.9,346.3,300.9,346.4z"/>
	<path class="st3" d="M277.9,342.6h24.9c1.3,0,2.4,1.1,2.4,2.4v15c0,1.3-1.1,2.4-2.4,2.4h-24.9c-1.3,0-2.4-1.1-2.4-2.4v-15
		C275.6,343.7,276.6,342.6,277.9,342.6z"/>
	<path class="st5" d="M302.9,362.4c0.3,0,0.6-0.1,0.9-0.2c0.4-0.2,0.7-0.4,0.9-0.7c0.3-0.4,0.5-0.9,0.5-1.4c0-2.4,0-5.9-0.1-10.2
		c0-1.1,0-2.2,0-3.4c0-0.6,0-1.2,0-1.8c-0.1-0.6-0.4-1.1-0.8-1.5c-0.5-0.4-1.1-0.6-1.7-0.5h-2h-4.1H278c-0.8,0-1.5,0.4-1.9,1.1
		c-0.2,0.3-0.3,0.7-0.3,1.1s0,0.8,0,1.2c0,1.6,0,3.2,0,4.7v8.9c0,0.3,0,0.7,0.1,1s0.3,0.6,0.5,0.8c0.4,0.5,1.1,0.7,1.7,0.7h11h10.2
		h2.8h0.7h0.2h-0.2h-0.7h-2.8l-10.2,0.1h-7h-4c-0.7,0-1.5-0.3-2-0.8c-0.3-0.3-0.4-0.6-0.5-1s-0.2-0.7-0.1-1.1c0-2.8,0-5.8,0-8.9
		c0-1.5,0-3.1,0-4.7c0-0.4,0-0.8,0-1.2c0-0.4,0.1-0.9,0.4-1.2c0.5-0.8,1.3-1.2,2.2-1.2h18.5h6.1c0.7-0.1,1.4,0.1,1.9,0.6
		c0.5,0.4,0.8,1,0.9,1.7c0,0.6,0,1.2,0,1.8c0,1.2,0,2.3,0,3.4c0,4.3,0,7.8,0,10.2c0,0.6-0.2,1.1-0.5,1.5c-0.3,0.3-0.6,0.5-1,0.7
		C303.6,362.2,303.2,362.4,302.9,362.4z"/>
	<path class="st4" d="M362.4,342.7h24.9c1.3,0,2.4,1.1,2.4,2.4v15c0,1.3-1.1,2.4-2.4,2.4h-24.9c-1.3,0-2.4-1.1-2.4-2.4v-15
		C360,343.8,361.1,342.7,362.4,342.7z"/>
	<path class="st5" d="M381.6,346.4c0-0.1,0-0.3,0-0.4c0-0.3,0-0.7,0.1-1.1c0.1-1.3,0.1-2.7,0-4c-0.2-1.9-1-3.8-2.3-5.2
		c-0.8-0.8-1.8-1.4-2.9-1.6c-1.2-0.2-2.5-0.3-3.7-0.3c-2.5,0-5,0.5-6.7,1.9c-0.8,0.7-1.4,1.5-1.8,2.5c-0.4,0.8-0.6,1.7-0.7,2.6
		c-0.1,1.3-0.1,2.7,0,4c0,0.4,0.1,0.8,0.1,1.1c0,0.3,0,0.4,0,0.4c0-0.1-0.1-0.2-0.1-0.4c0-0.2-0.1-0.6-0.1-1.1
		c-0.2-1.3-0.2-2.7-0.1-4c0.1-0.9,0.3-1.8,0.7-2.7c0.4-1,1.1-1.9,1.9-2.6c0.9-0.7,2-1.3,3.2-1.6c1.2-0.3,2.5-0.5,3.8-0.5
		s2.5,0.1,3.8,0.3c1.2,0.3,2.2,0.9,3.1,1.7c1.3,1.5,2.2,3.4,2.3,5.4c0.1,1.3,0.1,2.7-0.1,4c0,0.5-0.1,0.8-0.1,1.1
		C381.7,346.1,381.7,346.3,381.6,346.4z"/>
	<path class="st4" d="M358.7,342.6h24.9c1.3,0,2.4,1.1,2.4,2.4v15c0,1.3-1.1,2.4-2.4,2.4h-24.9c-1.3,0-2.4-1.1-2.4-2.4v-15
		C356.3,343.7,357.3,342.6,358.7,342.6z"/>
	<path class="st5" d="M383.6,362.4c0.3,0,0.6-0.1,0.9-0.2c0.4-0.2,0.7-0.4,0.9-0.7c0.3-0.4,0.5-0.9,0.5-1.4c0-2.4,0-5.9-0.1-10.2
		c0-1.1,0-2.2,0-3.4c0-0.6,0-1.2,0-1.8c-0.1-0.6-0.4-1.1-0.8-1.5c-0.5-0.4-1.1-0.6-1.7-0.5h-2h-4.1h-18.5c-0.8,0-1.5,0.4-1.9,1.1
		c-0.2,0.3-0.3,0.7-0.3,1.1s0,0.8,0,1.2c0,1.6,0,3.2,0,4.7v8.9c0,0.3,0,0.7,0.1,1s0.3,0.6,0.5,0.8c0.4,0.5,1.1,0.8,1.7,0.7h10.9
		h10.2h2.8h0.7h0.2h-0.2h-0.7h-2.8l-10.2,0.1h-7h-3.9c-0.7,0-1.5-0.3-2-0.8c-0.3-0.3-0.4-0.6-0.5-1s-0.1-0.7-0.1-1.1
		c0-2.8,0-5.8,0-8.9c0-1.5,0-3.1,0-4.7c0-0.4,0-0.8,0-1.2c0-0.4,0.1-0.9,0.4-1.2c0.5-0.8,1.3-1.2,2.2-1.2h18.5h6.1
		c0.7-0.1,1.4,0.1,1.9,0.6c0.5,0.4,0.8,1,0.9,1.7c0,0.6,0,1.2,0,1.8c0,1.2,0,2.3,0,3.4c0,4.3,0,7.8,0,10.2c0,1-0.6,1.8-1.5,2.2
		C384.3,362.3,384,362.4,383.6,362.4z"/>
	<path class="st7" d="M446.3,342.7h24.9c1.3,0,2.4,1.1,2.4,2.4v15c0,1.3-1.1,2.4-2.4,2.4h-24.9c-1.3,0-2.4-1.1-2.4-2.4v-15
		C444,343.8,445,342.7,446.3,342.7z"/>
	<path class="st5" d="M465.5,346.4c0-0.1,0-0.3,0-0.4c0-0.3,0-0.7,0.1-1.1c0.1-1.3,0.1-2.7,0-4c-0.2-1.9-1-3.8-2.3-5.2
		c-0.8-0.8-1.8-1.4-2.9-1.6c-1.2-0.2-2.5-0.3-3.7-0.3c-2.5,0-5,0.5-6.7,1.9c-0.8,0.7-1.4,1.5-1.8,2.5c-0.4,0.8-0.6,1.7-0.7,2.6
		c-0.1,1.3-0.1,2.7,0,4c0,0.4,0.1,0.8,0.1,1.1c0,0.1,0,0.3,0,0.4c0-0.1-0.1-0.2-0.1-0.4c0-0.2-0.1-0.6-0.1-1.1
		c-0.2-1.3-0.2-2.7-0.1-4c0.1-0.9,0.3-1.8,0.7-2.7c0.4-1,1.1-1.9,1.9-2.6c0.9-0.7,2-1.3,3.2-1.6c1.2-0.3,2.5-0.5,3.8-0.5
		s2.5,0.1,3.8,0.3c1.2,0.3,2.2,0.9,3.1,1.7c1.3,1.5,2.2,3.4,2.3,5.4c0.1,1.3,0.1,2.7-0.1,4c0,0.5-0.1,0.8-0.1,1.1
		C465.6,346.1,465.6,346.3,465.5,346.4z"/>
	<path class="st7" d="M442.6,342.6h24.9c1.3,0,2.4,1.1,2.4,2.4v15c0,1.3-1.1,2.4-2.4,2.4h-24.9c-1.3,0-2.4-1.1-2.4-2.4v-15
		C440.2,343.7,441.3,342.6,442.6,342.6z"/>
	<path class="st5" d="M467.5,362.4c0.3,0,0.6-0.1,0.9-0.2c0.4-0.2,0.7-0.4,0.9-0.7c0.3-0.4,0.5-0.9,0.5-1.4c0-2.4,0-5.9-0.1-10.2
		c0-1.1,0-2.2,0-3.4c0-0.6,0-1.2,0-1.8c-0.1-0.6-0.4-1.1-0.8-1.5c-0.5-0.4-1.1-0.6-1.7-0.5h-2h-4.1h-18.5c-0.8,0-1.5,0.4-1.9,1.1
		c-0.2,0.3-0.3,0.7-0.3,1.1s0,0.8,0,1.2c0,1.6,0,3.2,0,4.7v8.9c0,0.3,0,0.7,0.1,1s0.3,0.6,0.5,0.8c0.4,0.5,1.1,0.7,1.7,0.7h10.9
		h10.2h2.8h0.7h0.2h-0.2h-0.7h-2.8l-10.2,0.1h-7h-3.9c-0.7,0-1.4-0.3-1.9-0.8c-0.3-0.3-0.4-0.6-0.6-1c-0.1-0.4-0.1-0.7-0.1-1.1
		c0-2.8,0-5.8,0-8.9c0-1.5,0-3.1,0-4.7c0-0.4,0-0.8,0-1.2c0-0.4,0.1-0.9,0.4-1.2c0.5-0.8,1.3-1.2,2.2-1.2h18.5h6.1
		c0.7-0.1,1.4,0.1,1.9,0.6c0.5,0.4,0.8,1,0.9,1.7c0,0.6,0,1.2,0,1.8c0,1.2,0,2.3,0,3.4c0,4.3,0,7.8,0,10.2c0,0.6-0.2,1.1-0.5,1.5
		c-0.3,0.3-0.6,0.5-1,0.7C468.2,362.3,467.9,362.4,467.5,362.4z"/>
	<path class="st7" d="M360,260.3l3.4,11.7l23,0.1l3.6-11.2c-1.3-0.4-2.6-0.6-4-0.5l-0.4-12.4c0-0.9-0.8-1.7-1.8-1.7
		c-0.2,0-0.4,0.1-0.6,0.1l-2.2,1l-13-0.1l-1.5-0.8c-0.8-0.4-1.8-0.1-2.3,0.7c-0.1,0.2-0.2,0.5-0.2,0.8v12.3
		C362.8,260.1,361.4,260.1,360,260.3z"/>
	
		<rect x="358.6" y="276.7" transform="matrix(4.188741e-03 -1 1 4.188741e-03 85.1098 640.0551)" class="st5" width="10.6" height="1.2"/>
	
		<rect x="365.5" y="274.1" transform="matrix(4.188741e-03 -1 1 4.188741e-03 91.9761 641.7277)" class="st5" width="5.4" height="1.2"/>
	
		<rect x="377.7" y="274.2" transform="matrix(4.188741e-03 -1 1 4.188741e-03 103.9627 654.0461)" class="st5" width="5.4" height="1.2"/>
	
		<rect x="380.4" y="276.8" transform="matrix(4.188741e-03 -1 1 4.188741e-03 106.6761 661.9529)" class="st5" width="10.6" height="1.2"/>
	<path class="st5" d="M368.2,265.2c-0.1,0-0.1-4-0.1-8.9s0.1-8.9,0.2-8.9s0.1,4,0.1,8.9C368.4,261.2,368.3,265.2,368.2,265.2z"/>
	<path class="st5" d="M381.2,265.3c-0.1,0-0.1-4-0.1-8.9s0.1-8.9,0.2-8.9s0.1,4,0.1,8.9C381.4,261.3,381.3,265.3,381.2,265.3z"/>
	<path class="st5" d="M386,260.4c-0.2,0.1-0.4,0.1-0.6,0.2l-0.3,0.1l-0.4,0.1l-0.4,0.2l-0.5,0.3c-0.8,0.4-1.4,1.1-1.8,1.8
		c-0.5,1-0.7,2.1-0.6,3.3v0.2h-6.3h-6.9h-0.1v-0.1c0-1.1-0.3-2.1-0.8-3c-0.4-0.7-0.9-1.3-1.5-1.9c-0.6-0.4-1.2-0.8-1.8-1.1
		c0.2,0,0.4,0.1,0.5,0.2c0.5,0.2,1,0.5,1.4,0.8c0.6,0.5,1.2,1.2,1.6,1.9c0.5,0.9,0.8,2,0.9,3.1l-0.1-0.1h6.9h6.1l-0.1,0.2
		c-0.1-1.2,0.1-2.4,0.7-3.4c0.5-0.8,1.1-1.4,2-1.9l0.5-0.2l0.5-0.1l0.4-0.1l0.3-0.1C385.6,260.4,385.8,260.4,386,260.4z"/>
	<path class="st5" d="M368,266.4c0,0.1-0.4,0.1-1.1,0.4c-1.7,0.7-2.9,2.3-3.1,4.1c0,0.4-0.1,0.8-0.1,1.1c-0.1-0.4-0.2-0.8-0.1-1.2
		c0.1-1,0.4-1.9,1-2.6c0.6-0.8,1.4-1.3,2.3-1.7C367.2,266.4,367.6,266.3,368,266.4z"/>
	<path class="st5" d="M386.1,272.3c0,0-0.1-0.5-0.3-1.2c-0.2-1-0.7-1.9-1.4-2.7c-0.7-0.8-1.5-1.4-2.4-1.8c-0.7-0.3-1.2-0.4-1.2-0.4
		c0.4,0,0.9,0,1.3,0.2c2,0.7,3.5,2.5,3.9,4.6C386.2,271.4,386.2,271.9,386.1,272.3z"/>
	<path class="st3" d="M441.6,257.2l3.4,11.7l23,0.1l3.7-11.2c-1.3-0.4-2.6-0.6-4-0.5l-0.4-12.4c0-0.9-0.8-1.7-1.8-1.7
		c-0.2,0-0.4,0.1-0.6,0.1l-2.2,1l-13-0.1l-1.5-0.8c-0.8-0.4-1.8-0.1-2.3,0.7c-0.1,0.2-0.2,0.5-0.2,0.8v12.3
		C444.5,257,443,257,441.6,257.2z"/>
	
		<rect x="440.2" y="273.7" transform="matrix(4.188741e-03 -1 1 4.188741e-03 169.4246 718.6505)" class="st5" width="10.6" height="1.2"/>
	
		<rect x="447.1" y="271.1" transform="matrix(4.188741e-03 -1 1 4.188741e-03 176.2708 720.3229)" class="st5" width="5.4" height="1.2"/>
	
		<rect x="459.3" y="271.1" transform="matrix(4.188741e-03 -1 1 4.188741e-03 188.4176 732.5822)" class="st5" width="5.4" height="1.2"/>
	
		<rect x="462" y="273.8" transform="matrix(4.188741e-03 -1 1 4.188741e-03 190.971 740.5283)" class="st5" width="10.6" height="1.2"/>
	<path class="st5" d="M449.9,262.2c-0.1,0-0.1-4-0.1-8.9s0.1-8.9,0.2-8.9s0.1,4,0.1,8.9S450,262.2,449.9,262.2z"/>
	<path class="st5" d="M462.9,262.2c-0.1,0-0.1-4-0.1-8.9s0.1-8.9,0.2-8.9s0.1,4,0.1,8.9S462.9,262.2,462.9,262.2z"/>
	<path class="st5" d="M467.7,257.4c-0.2,0.1-0.4,0.1-0.6,0.2l-0.3,0.1l-0.4,0.1L466,258l-0.5,0.3c-0.8,0.4-1.4,1.1-1.8,1.8
		c-0.5,1-0.7,2.1-0.6,3.2v0.2h-6.3h-6.9h-0.1v-0.1c0-1.1-0.3-2.1-0.8-3c-0.4-0.7-0.9-1.3-1.5-1.9c-0.5-0.4-1.1-0.8-1.8-1.1
		c0.2,0,0.4,0.1,0.5,0.2c0.5,0.2,0.9,0.5,1.4,0.8c0.6,0.5,1.2,1.2,1.6,1.9c0.5,0.9,0.9,2,0.9,3.1l-0.1-0.1h6.9h6.1l-0.1,0.2
		c-0.1-1.2,0.2-2.4,0.7-3.4c0.5-0.8,1.1-1.4,2-1.9l0.5-0.2l0.5-0.1l0.4-0.1l0.3-0.1C467.3,257.4,467.5,257.4,467.7,257.4z"/>
	<path class="st5" d="M449.6,263.3c0,0-0.4,0.1-1.1,0.4c-1.7,0.7-2.9,2.3-3.1,4.1c-0.1,0.7-0.1,1.1-0.1,1.1
		c-0.1-0.4-0.2-0.8-0.1-1.2c0.1-1,0.4-1.9,1-2.7c0.6-0.8,1.4-1.3,2.3-1.7C448.8,263.3,449.2,263.2,449.6,263.3z"/>
	<path class="st5" d="M467.7,269.2c0,0-0.1-0.5-0.3-1.3c-0.5-2-1.9-3.6-3.8-4.4c-0.7-0.3-1.2-0.4-1.2-0.4c0.4,0,0.9,0,1.3,0.2
		c1,0.3,1.9,0.9,2.6,1.8c0.7,0.8,1.1,1.8,1.3,2.8C467.8,268.4,467.8,268.8,467.7,269.2z"/>
	<path class="st5" d="M340,104.5c0-2.2,1.7-4,3.9-4c0.1,0,0.2,0,0.3,0c1.3-0.1,2.5,0.5,3.3,1.4l-1.4,1.2c-0.4-0.6-1.1-0.9-1.8-0.9
		c-1.2,0.1-2.1,1.1-2,2.3c0.1,1.1,0.9,2,2,2c0.7,0,1.4-0.3,1.8-0.9l1.4,1.2c-0.8,1-2,1.5-3.3,1.4C342,108.3,340.2,106.7,340,104.5
		C340,104.7,340,104.6,340,104.5z"/>
	<path class="st5" d="M353.4,106.9h-3.2l-0.6,1.5h-2.2l3.4-7.6h2.1l3.4,7.6H354L353.4,106.9z M352.8,105.3l-1-2.4l-1,2.4H352.8z"/>
	<path class="st5" d="M358.1,102.4h-2.3v-1.7h6.8v1.7h-2.3v5.9h-2.1L358.1,102.4z"/>
	<path class="st5" d="M368.1,106.9h-3.2l-0.6,1.5h-2.2l3.4-7.6h2.1l3.4,7.6h-2.2L368.1,106.9z M367.5,105.3l-1-2.4l-1,2.4H367.5z"/>
	<path class="st5" d="M371.6,100.7h2.1v5.9h3.6v1.7h-5.8L371.6,100.7L371.6,100.7z"/>
	<path class="st5" d="M377.7,104.5c-0.1-2.3,1.7-4.3,4-4.5c2.3-0.1,4.3,1.7,4.5,4c0.1,2.3-1.7,4.3-4,4.5c-0.1,0-0.2,0-0.2,0
		c-2.2,0.1-4.1-1.6-4.2-3.8C377.7,104.7,377.7,104.6,377.7,104.5z M384,104.5c-0.1-1.1-1-2-2.2-1.9s-2,1-1.9,2.2
		c0.1,1.1,1,1.9,2.1,1.9s2-0.8,2.1-1.9C384,104.7,384,104.6,384,104.5L384,104.5z"/>
	<path class="st5" d="M392.4,104.4h1.9v3.2c-0.9,0.7-2.1,1-3.2,1c-2.2,0.3-4.2-1.2-4.5-3.4c-0.3-2.2,1.2-4.2,3.4-4.5
		c0.4-0.1,0.8,0,1.1,0c1.3-0.1,2.5,0.4,3.3,1.4l-1.4,1.2c-0.5-0.5-1.1-0.8-1.9-0.8c-1.2,0.1-2.1,1.1-2,2.3c0.1,1.1,0.9,2,2,2
		c0.4,0,0.8-0.1,1.2-0.3L392.4,104.4z"/>
	<path class="st5" d="M395.6,105v-4.2h2.1v4.2c0,1.3,0.5,1.8,1.5,1.8s1.4-0.5,1.4-1.8v-4.2h2.1v4.2c0,2-1.6,3.6-3.6,3.6
		C397.2,108.6,395.6,107,395.6,105L395.6,105z"/>
	<path class="st5" d="M410.3,106.7v1.7h-6.1v-7.6h6v1.7h-3.9v1.3h3.4v1.6h-3.4v1.4L410.3,106.7L410.3,106.7z"/>
	<path class="st1" d="M416.2,114.3c0,0.1-18.4,0.3-41,0.3s-41-0.1-41-0.3s18.4-0.3,41-0.3S416.2,114.2,416.2,114.3z"/>
	<path class="st1" d="M388.7,117.7c0,0.1-6,0.3-13.5,0.3s-13.5-0.1-13.5-0.3s6-0.3,13.5-0.3S388.7,117.5,388.7,117.7z"/>
</g>
<g id="freepik--Character--inject-6">
	<path class="st4" d="M135.9,435l1.2,37.6l46.9-0.8c-0.4-4.5-26.7-12.9-26.7-12.9l-0.2-25.3L135.9,435z"/>
	<g class="st8">
		<path d="M135.9,435l1.2,37.6l46.9-0.8c-0.4-4.5-26.7-12.9-26.7-12.9l-0.2-25.3L135.9,435z"/>
	</g>
	<path class="st5" d="M144.7,457c-0.9,0.3-1.5,1.2-1.3,2.2c0.3,0.9,1.2,1.5,2.2,1.3c1-0.3,1.6-1.3,1.3-2.4c-0.4-1-1.4-1.4-2.4-1.1"
		/>
	<path class="st5" d="M137.1,472.6l-0.1-3.8l45.1,0.7c0,0,2.1,0.9,1.9,2.4L137.1,472.6z"/>
	<path class="st5" d="M158,459.3c0,0.2-1.1,0.4-2.3,1.1s-1.7,1.7-1.9,1.6s0.1-1.4,1.5-2.3S158,459.1,158,459.3z"/>
	<path class="st5" d="M164.1,461.4c0.1,0.2-0.9,0.6-1.7,1.6s-1,2-1.2,2s-0.4-1.3,0.6-2.5S164.1,461.1,164.1,461.4z"/>
	<path class="st5" d="M166.9,467c-0.2,0.1-0.6-1.1,0-2.4s1.6-1.8,1.7-1.6s-0.6,0.9-1,1.9S167.1,467,166.9,467z"/>
	<path class="st5" d="M157.5,453.1c-0.1,0.2-1.1-0.1-2.4,0s-2.3,0.5-2.4,0.4s0.8-1,2.4-1.1S157.6,452.9,157.5,453.1z"/>
	<path class="st5" d="M158.2,447.4c-0.8,0.2-1.6,0.2-2.4,0c-0.8-0.1-1.7-0.4-2.5-0.7c-0.5-0.2-0.9-0.4-1.4-0.7
		c-0.3-0.1-0.5-0.3-0.7-0.5c-0.3-0.3-0.4-0.8-0.1-1.2c0.2-0.3,0.6-0.5,1-0.5c0.3,0,0.6,0,0.9,0.1c0.5,0.1,1,0.3,1.5,0.5
		c0.8,0.3,1.5,0.8,2.2,1.4c1.1,1,1.5,1.8,1.4,1.9s-0.6-0.6-1.8-1.4c-1-0.8-2.2-1.3-3.5-1.5c-0.5-0.1-0.9-0.1-1,0.1s-0.1,0.1,0,0.3
		c0.2,0.2,0.3,0.3,0.5,0.4c0.4,0.3,0.8,0.5,1.3,0.7c0.7,0.3,1.5,0.6,2.3,0.8C156.7,447,157.5,447.2,158.2,447.4z"/>
	<path class="st9" d="M182.4,121c-0.4-9.1-7.7-16.4-16.8-16.7h-0.9c-9.8,0.2-15,8.6-14.6,18.3l-0.7,41.7c8.2,5.3,16,9.3,22.4,6.8
		l1-17.4c0,0,9.4-1.1,9.9-10.4C183.1,138.7,182.8,129.4,182.4,121z"/>
	<path class="st10" d="M173,153.7c-4.3-0.1-8.5-1.5-12.1-3.9c0,0,2.5,6.9,11.9,6.4L173,153.7z"/>
	<path class="st5" d="M179.7,127.9c0,0.7-0.6,1.3-1.3,1.3s-1.3-0.5-1.3-1.2l0,0c0-0.7,0.6-1.3,1.3-1.3
		C179,126.7,179.6,127.2,179.7,127.9L179.7,127.9z"/>
	<path class="st5" d="M180.3,125.4c-0.2,0.2-1.2-0.6-2.6-0.7s-2.5,0.6-2.7,0.4s0.1-0.4,0.6-0.7c0.6-0.4,1.4-0.6,2.1-0.6
		c0.7,0,1.5,0.3,2.1,0.8C180.2,125.1,180.3,125.4,180.3,125.4z"/>
	<path class="st5" d="M166.3,127.9c0,0.7-0.6,1.3-1.3,1.3s-1.3-0.5-1.3-1.2l0,0c0-0.7,0.6-1.3,1.3-1.3
		C165.6,126.7,166.2,127.2,166.3,127.9z"/>
	<path class="st5" d="M166.1,125.2c-0.2,0.2-1.1-0.6-2.6-0.7s-2.5,0.6-2.7,0.4s0.1-0.4,0.6-0.7c0.6-0.4,1.4-0.6,2.1-0.6
		c0.7,0,1.5,0.3,2.1,0.8C166.1,124.8,166.2,125.1,166.1,125.2z"/>
	<path class="st5" d="M170.9,136c0.8-0.2,1.6-0.3,2.4-0.3c0.4,0,0.7-0.1,0.8-0.3c0-0.4,0-0.8-0.2-1.1c-0.3-0.9-0.6-1.9-1-2.8
		c-1.4-4-2.3-7.3-2.2-7.4s1.4,3.2,2.8,7.2l0.9,2.9c0.2,0.5,0.3,1,0.1,1.4c-0.1,0.3-0.3,0.4-0.6,0.5c-0.2,0-0.4,0.1-0.6,0.1
		C172.5,136.2,171.7,136.1,170.9,136z"/>
	<path class="st5" d="M159.6,121.9c0.1-0.4,1.6-0.2,3.3-0.4s3.1-0.7,3.3-0.3c0.1,0.2-0.1,0.5-0.7,0.9c-0.7,0.5-1.6,0.8-2.4,0.8
		c-0.9,0.1-1.7,0-2.6-0.3C159.8,122.4,159.5,122.1,159.6,121.9z"/>
	<path class="st5" d="M180,120.4c-0.3,0.3-1.5-0.1-3-0.1s-2.7,0.1-3-0.2c-0.1-0.2,0.1-0.5,0.6-0.8c0.8-0.4,1.6-0.5,2.4-0.4
		c0.8,0,1.7,0.3,2.4,0.8C180,120,180.1,120.3,180,120.4z"/>
	<path class="st9" d="M150.7,129.5c-0.1-0.1-6.4-2.2-6.4,4.3c0,6.4,6.4,5.1,6.4,4.9S150.7,129.5,150.7,129.5z"/>
	<path class="st10" d="M148.8,136.3c0,0-0.1,0.1-0.3,0.2c-0.3,0.1-0.6,0.1-0.8,0c-0.8-0.5-1.3-1.5-1.3-2.5c0-0.6,0.1-1.1,0.3-1.6
		c0.1-0.4,0.4-0.7,0.9-0.9c0.3-0.1,0.5,0.1,0.6,0.3s0.1,0.3,0.1,0.3s0.1-0.1,0.1-0.4c0-0.2-0.1-0.3-0.3-0.4
		c-0.2-0.1-0.4-0.2-0.6-0.2c-0.5,0.1-1,0.5-1.2,1c-0.3,0.6-0.4,1.2-0.4,1.8c-0.1,1.2,0.6,2.3,1.6,2.8c0.3,0.1,0.7,0,1-0.2
		C148.8,136.4,148.8,136.3,148.8,136.3z"/>
	<path class="st10" d="M161.1,131.1c-0.1,0-0.2-0.1-0.2-0.1c0-0.1,0-0.2,0.1-0.2l0,0c0.1,0,0.2,0,0.2,0.1l0,0
		C161.3,131,161.2,131.1,161.1,131.1L161.1,131.1z"/>
	<path class="st10" d="M163.9,130.6c-0.1,0-0.2-0.1-0.2-0.2s0-0.2,0.1-0.2s0.2,0.1,0.2,0.2l0,0C164,130.5,164,130.6,163.9,130.6
		L163.9,130.6z"/>
	<path class="st10" d="M165.7,130.6c-0.1,0-0.2-0.1-0.2-0.3s0.1-0.3,0.1-0.3s0.2,0.1,0.2,0.2S165.8,130.6,165.7,130.6z"/>
	<path class="st10" d="M162.4,132.9c-0.1,0-0.2-0.1-0.2-0.1s0.1-0.1,0.2-0.1s0.1,0.1,0.1,0.1S162.5,132.9,162.4,132.9z"/>
	<path class="st10" d="M164.9,132.4c-0.1,0-0.2-0.1-0.2-0.2c0-0.1,0.1-0.2,0.1-0.2l0,0c0.1,0,0.2,0.1,0.2,0.2
		C165.1,132.3,165,132.4,164.9,132.4z"/>
	<path class="st10" d="M178.1,131.3c-0.1,0-0.2-0.1-0.2-0.1l0,0c0-0.1,0-0.2,0.1-0.2s0.2,0.1,0.2,0.2
		C178.2,131.2,178.2,131.3,178.1,131.3L178.1,131.3z"/>
	<path class="st10" d="M180,131.2c-0.1,0-0.2-0.1-0.2-0.2l0,0c0-0.1,0-0.2,0.1-0.2s0.2,0.1,0.2,0.2l0,0
		C180.1,131.1,180.1,131.2,180,131.2z"/>
	<path class="st10" d="M176.4,131.3c-0.1,0-0.2,0-0.2-0.1s0-0.1,0.1-0.2l0,0c0.1,0,0.2,0,0.2,0.1
		C176.6,131.2,176.5,131.3,176.4,131.3z"/>
	<path class="st10" d="M177.8,133.2c-0.1,0-0.2,0-0.2-0.1s0-0.2,0.1-0.2l0,0c0.1,0,0.2,0,0.2,0.1
		C177.9,133.1,177.8,133.2,177.8,133.2L177.8,133.2z"/>
	<path class="st10" d="M179.4,133c-0.1,0-0.1-0.1-0.1-0.2c0-0.1,0.1-0.1,0.2-0.1l0,0c0.1,0,0.1,0.1,0.1,0.1l0,0
		C179.5,133,179.5,133,179.4,133L179.4,133z"/>
	<path class="st5" d="M173.1,141c-0.1,0.1-1.2-0.5-2.8-0.7s-2.8-0.1-2.9-0.3C169.3,139.3,171.5,139.7,173.1,141L173.1,141z"/>
	<path class="st5" d="M188.3,108.3c-0.4-0.1-0.8-0.3-1.1-0.5c-0.4-0.5-0.6-1.2-0.5-1.9c0.1-0.7-0.2-1.3-0.7-1.8
		c-0.8-0.4-1.8,0.3-2.7,0s-0.9-1.5-1.4-2.3c-0.6-1-1.9-1.5-3.1-1c-0.7,0.3-1.5,1.1-2.2,0.6s-0.5-1.3-0.8-1.9
		c-0.4-0.9-1.4-1.3-2.3-0.9c0,0-0.1,0-0.1,0.1c-0.6,0.4-1.2,1.2-1.9,0.9s-0.5-1.2-1.1-1.6c-0.5-0.3-1.1-0.2-1.4,0.2
		c-0.4,0.4-0.7,0.8-0.9,1.3c-0.3,0.5-0.8,0.7-1.3,0.8c-0.6,0-1-0.6-1.4-0.9c-1.5-1.3-3.8-1-5.4,0.1c-1,0.7-1.9,1.7-2.5,2.8
		c-1.7-0.4-3.5-0.3-5.2,0.1c-3.8,1.1-6.9,4.9-6.6,8.8c0.1,1.9,0.9,3.6,1.2,5.4c0.2,2.2,0.2,4.4,0.1,6.6c0,2.2,0.1,4.2,1.6,5.9
		l1.9,0.5c0.1,0.2,0.3,0.4,0.4,0.6c0.6,0.8,1.6,1.1,2.5,0.7c0.4-0.4,0.7-0.9,0.8-1.4c1.2-4,2.3-8.3,1.8-12.4
		c-0.3-2.2,0.7-4.5,2.7-5.6c0.6-0.4,1.2-0.6,1.9-0.8c0.7-0.1,1.3-0.1,2,0c1.4,0.3,2.7,1.1,3.5,2.3c0.6,0.8,1,1.9,2,2.1
		s2.1-0.6,3.1-0.6s2,0.9,2.8,1.7s1.9,1.5,3,1.2s1.5-1.4,2.5-1.7c0.7-0.2,1.4-0.1,2.1,0.3c0.6,0.3,1.3,0.6,2,0.8
		c0.7,0.2,1.5-0.1,1.9-0.7c0.4-0.7,0.2-1.7,0.7-2.3s1.3-0.6,2-0.9c1.3-0.5,1.9-2,1.3-3.3C189.4,109.1,188.9,108.6,188.3,108.3
		L188.3,108.3z"/>
	<path class="st7" d="M146.9,120.3c0-0.1,0.6,0,1.7-0.1c2.7-0.3,5.1-1.7,6.6-3.9c0.3-0.5,0.6-0.9,0.9-1.4c-0.1,0.6-0.3,1.1-0.6,1.6
		c-1.4,2.4-4,4-6.9,4.1C148,120.5,147.4,120.5,146.9,120.3z"/>
	<path class="st7" d="M146.5,122.7c1.7,0,3.4-0.2,5-0.8c1.5-0.7,3-1.6,4.2-2.8c0.1,0-0.2,0.6-0.9,1.3c-0.9,0.9-1.9,1.6-3.1,2
		c-1.2,0.5-2.5,0.7-3.7,0.7C147.5,123,147,122.9,146.5,122.7z"/>
	<polygon class="st5" points="139.7,250.1 128.1,286.8 135.5,452.7 158.1,450 161.1,371 173.3,282.7 174.6,251.5 	"/>
	<path class="st4" d="M147.1,412.9l-22.2,30.4l37.4,28.2c2.5-3.7-13.1-26.6-13.1-26.6l15.4-20L147.1,412.9z"/>
	<path class="st5" d="M140.5,435.7c-0.9-0.3-1.9,0.1-2.4,1c-0.4,0.9,0,1.9,0.9,2.4c1,0.4,2.1-0.1,2.5-1c0.3-1-0.3-2-1.2-2.4"/>
	<path class="st5" d="M124.9,443.3l2.3-3.1l35.1,28.3c0,0,1.1,2,0,3L124.9,443.3z"/>
	<path class="st5" d="M149.5,445.7c-0.1,0.2-1.1-0.4-2.5-0.5s-2.4,0.3-2.5,0.1s0.9-1,2.6-0.9S149.7,445.6,149.5,445.7z"/>
	<path class="st5" d="M153.1,451.1c-0.1,0.2-1.1-0.1-2.3,0.2s-2,1-2.2,0.9s0.5-1.3,2-1.6S153.3,451,153.1,451.1z"/>
	<path class="st5" d="M151.9,457.3c-0.2-0.1,0.2-1.2,1.5-1.8s2.4-0.4,2.3-0.2s-1,0.4-2,0.9S152.1,457.4,151.9,457.3z"/>
	<path class="st5" d="M153,440.5c-0.2,0.1-0.9-0.8-1.9-1.5s-2.1-1-2.1-1.2s1.3-0.3,2.6,0.6S153.2,440.4,153,440.5z"/>
	<path class="st5" d="M157.1,436.5c0,0.1-0.9-0.4-1.9-1.4c-0.6-0.6-1.1-1.3-1.5-2.1c-0.3-0.4-0.5-0.9-0.6-1.4
		c-0.1-0.3-0.2-0.6-0.2-0.9c0-0.4,0.2-0.8,0.6-1c0.4-0.1,0.8,0,1.1,0.2c0.2,0.2,0.4,0.4,0.6,0.6c0.3,0.4,0.6,0.8,0.9,1.3
		c0.4,0.8,0.7,1.6,0.9,2.4s0.2,1.6,0,2.4c-0.1,0-0.1-0.9-0.5-2.2c-0.2-0.8-0.6-1.5-1-2.2c-0.2-0.4-0.5-0.8-0.8-1.1
		c-0.3-0.4-0.7-0.7-0.9-0.6s-0.1,0.1-0.1,0.3c0,0.2,0.1,0.4,0.2,0.6c0.2,0.4,0.3,0.9,0.6,1.3c0.4,0.7,0.8,1.4,1.3,2.1
		C156.5,435.8,157.1,436.4,157.1,436.5z"/>
	<path class="st5" d="M174.6,251.5l13.2,0.5c0,0,29.3,104.7,26.3,113.9S156.9,436,156.9,436l-16.2-17c0,0,17.4-29.5,25.1-37.9
		c5.6-6,20-17.5,20-17.5l-18.5-37.4L174.6,251.5z"/>
	<path class="st7" d="M175.8,292.2c-0.1,0.6-0.3,1.1-0.6,1.6c-0.4,1-0.9,2.6-1.6,4.5c-1.3,3.8-3,9-4.4,15s-2.3,11.4-2.9,15.4
		c-0.3,2-0.5,3.6-0.6,4.7c0,0.6-0.1,1.2-0.3,1.7c-0.1-0.6-0.1-1.2,0-1.7c0.1-1.1,0.2-2.7,0.4-4.7c0.6-5.2,1.5-10.3,2.7-15.4
		s2.8-10.1,4.6-15c0.7-1.9,1.3-3.4,1.8-4.4C175.3,293.2,175.5,292.7,175.8,292.2z"/>
	<path class="st7" d="M156.9,436l-0.3-0.3l-0.9-0.9l-3.3-3.4l-11.9-12.3l-0.1-0.1l0.1-0.1c4.2-7.1,9.2-15.6,15.1-24.5
		c4.5-7,9.8-13.6,15.7-19.5c2.5-2.4,5-4.6,7.8-6.7c1.3-0.9,2.4-1.8,3.5-2.6l3.2-2.1l0,0h0.1l6.3,1.4l1.7,0.4c0.2,0,0.4,0.1,0.6,0.2
		c-0.2,0-0.4,0-0.6-0.1l-1.7-0.3l-6.3-1.3h0.1l-3.1,2.2c-1.1,0.8-2.3,1.7-3.5,2.6c-2.7,2.1-5.2,4.4-7.7,6.8
		c-5.9,5.9-11.1,12.5-15.6,19.5c-5.9,8.9-10.9,17.4-15.2,24.4V419l11.7,12.4l3.2,3.5l0.8,0.9C156.7,435.8,156.8,435.9,156.9,436z"/>
	<path class="st9" d="M190.7,230.4c0.1,0.3,4.8-1.4,5.3-3.3s0.4-7.2,0.4-7.2l-12-7.3l0.1,10C187.7,223.9,190.1,226.8,190.7,230.4z"
		/>
	<path class="st9" d="M177.4,152.1l5.3,3.4c0,0,1.7,4.1,3.8,6s5.8,5.7,5.8,5.7l1.6,5.8l11.6-2.9l-5-16.8l-1.5-4.4
		c0,0-2.5-3.9-5.8-1.8c0,0,0.4-1.4-1-1.5c-1.2,0-2.3,0.1-3.4,0.4c-0.9-0.6-1.9-1-2.9-1.1c-0.7,0-1.5,0.1-2.2,0.2
		c0,0-0.4-1.6-1.3-1.4s-2,1.8-2.3,2.7c-0.2,1.2-0.2,2.3-0.1,3.5L177.4,152.1z"/>
	<path class="st10" d="M193.8,147c-0.8,0.5-1.5,1.2-1.9,2c-0.5,0.9-0.7,1.9-0.6,2.9c0,0.6,0.1,1.2,0.2,1.8c0.1,0.3,0.1,0.6,0.2,0.9
		c0,0.3,0.1,0.6,0.2,0.9c0.1,0.2,0.4,0.4,0.6,0.4c0.3,0.1,0.6,0.1,0.8,0c0.5-0.1,0.9-0.6,1.1-1.1c0.3-1-0.1-2.1,0.1-3.1
		c0-0.4,0.2-0.8,0.5-1.2c0.2-0.3,0.5-0.4,0.8-0.5c0.5-0.1,0.8,0.1,0.8,0.1c-0.2,0-0.5,0-0.7,0.1c-0.6,0.3-1,0.9-1,1.6
		c-0.1,0.8,0.3,1.9,0,3.1c-0.3,1.1-1.4,1.7-2.5,1.4c-0.4-0.1-0.7-0.3-1-0.6c-0.1-0.3-0.2-0.7-0.2-1.1c-0.1-0.3-0.1-0.6-0.2-1
		c-0.1-0.6-0.1-1.2-0.1-1.9c0-1.1,0.3-2.2,0.8-3.1c0.4-0.6,0.9-1.2,1.5-1.5C193.4,147,193.7,147,193.8,147z"/>
	<path class="st10" d="M197.7,153.2c0,0.1-0.6,0.2-1.4,0.2s-1.4,0.1-1.4-0.1s0.6-0.4,1.4-0.4S197.7,153.1,197.7,153.2z"/>
	<path class="st10" d="M191.3,155.6c0,0,0.1,0.2,0.2,0.7c0.1,0.7-0.2,1.4-0.7,1.9c-0.4,0.4-0.9,0.6-1.4,0.6c-0.6,0-1.2-0.4-1.5-0.9
		s-0.5-1.1-0.6-1.7c-0.1-0.6-0.2-1.2-0.3-1.9c-0.1-1.2-0.2-2.4-0.1-3.6c0-1,0.1-2,0.4-3c0.2-0.7,0.6-1.2,1.2-1.6
		c0.2-0.2,0.4-0.2,0.7-0.3c0,0-0.2,0.1-0.6,0.4c-0.5,0.4-0.8,1-1,1.6c-0.2,0.9-0.3,1.9-0.3,2.9c0,1.2,0,2.4,0.2,3.6
		c0,1.2,0.3,2.3,0.8,3.4c0.2,0.4,0.6,0.7,1.1,0.7c0.4,0,0.8-0.1,1.1-0.4c0.5-0.4,0.7-1,0.7-1.7C191.2,156.1,191.3,155.8,191.3,155.6
		z"/>
	<path class="st10" d="M186.7,154.7c0.1,0-0.2,1-1.7,1.5c-1,0-1.8-0.6-2-1.6c-0.3-1-0.4-2-0.4-3c0-1.8,0.3-3.6,1-5.3
		c0.2-0.5,0.7-1,1.2-1.2c0.4-0.2,0.6-0.1,0.6-0.1s-0.2,0.1-0.5,0.3c-0.4,0.3-0.8,0.7-0.9,1.2c-0.6,1.7-0.8,3.4-0.8,5.2
		c0,1,0.1,1.9,0.3,2.8c0.2,0.7,0.7,1.3,1.5,1.4c0.5-0.1,1-0.4,1.3-0.7C186.6,154.9,186.6,154.7,186.7,154.7z"/>
	<path class="st10" d="M183.6,145.1c0.1,0.4,0,0.9-0.1,1.3c-0.1,1.1-0.5,2.1-1.1,3c-0.2,0.3-0.5,0.5-0.9,0.6c-0.3,0.1-0.7,0-1-0.2
		c-0.4-0.3-0.7-0.8-0.8-1.3c-0.1-0.4,0-0.9,0.2-1.3c0.1,0,0,0.5,0.2,1.2c0.1,0.4,0.3,0.8,0.7,1s0.9,0.1,1.2-0.3
		c0.6-0.8,1-1.7,1.2-2.7C183.4,145.5,183.6,145,183.6,145.1z"/>
	<path class="st10" d="M198.1,159.5c-0.7-0.6-1.5-1.2-2.2-1.8c-0.9-0.4-1.8-0.8-2.7-1.1c1-0.2,2.1,0.1,2.9,0.7
		C197,157.7,197.7,158.5,198.1,159.5z"/>
	<path class="st10" d="M200.1,162.3c-1.4,2.4-4.3,3.6-7,3c1.3-0.2,2.5-0.4,3.8-0.9C198,163.8,199.1,163.1,200.1,162.3z"/>
	<path class="st10" d="M182.8,142.7c-0.1,3.9-2.2,7.5-5.6,9.4c1.4-1.3,2.6-2.7,3.6-4.3C181.6,146.2,182.3,144.5,182.8,142.7z"/>
	<path class="st4" d="M183.8,173.8c0,0,3.4,1.6,5.1,6.5c1.1,3.4,7.6,15.2,7.6,15.2l-2.7-22.6l11.5-4c0,0,9.7,21.1,12,34
		c2.3,12.6-4,21-10.7,20.8s-23-11.6-23-11.6L183.8,173.8z"/>
	<path class="st5" d="M193.9,173c0.1,0.4,0.2,0.9,0.3,1.3c0.1,1,0.3,2.2,0.5,3.7c0.4,3.1,0.9,7.4,1.5,12.1c0.2,1.8,0.4,3.6,0.6,5.2
		l0,0c0.3,1.7,0.6,3.3,0.8,4.7c0.2,1.2,0.5,2.5,0.9,3.6c0.7,2,1.3,3.1,1.2,3.1c-0.2-0.2-0.3-0.5-0.5-0.8c-0.4-0.7-0.7-1.5-1-2.3
		c-0.5-1.2-0.8-2.4-1.1-3.7c-0.3-1.4-0.6-3-0.9-4.7l0,0c-0.2-1.6-0.4-3.4-0.6-5.2c-0.6-4.7-1-9-1.4-12.1c-0.1-1.5-0.3-2.7-0.4-3.7
		C193.9,173.9,193.8,173.5,193.9,173z"/>
	<g class="st8">
		<path d="M217.8,209.9c0-2.3-8,0.6-11.1,2.6c-3.2,2.3-5.6,5.5-6.9,9.1c0,0,5.5,3.1,9.7,1.7C215.4,221.3,217.8,213.8,217.8,209.9z"
			/>
	</g>
	<path class="st4" d="M146.2,158.9c0,0-21.7,10.5-24,16.9s1.5,22.9,1.5,22.9l8.6,44.5l1.8,16.6l-4.6,6.7l2,6.9
		c23.4,3.1,45.2,3.8,63.9-0.9l-1.3-15.3l-8.6-35.6l-1.1-29.9l-0.5-18.1l-11.6-9.6c0,0-1.9,5.2-6.7,4.1s-16.1-12.5-16.1-12.5
		L146.2,158.9z"/>
	<path class="st4" d="M124.5,202.9c0.7,0.7,14.3,37,24,41.5s15.4,2.9,19.6,1.8s22.6-14.1,22.6-14.1s-1.3-8.7-6.6-9
		c-3.4-0.1-6.8,0.1-10.1,0.8l-6.5-4.3c0,0-3.8-7.4-5.9-7.7l-12.6-28c0,0-11.7-22.9-23.4-12.3C114.3,181.8,124.5,202.9,124.5,202.9z"
		/>
	<path class="st5" d="M174.2,167c-0.2,0.4-0.4,0.8-0.7,1.1c-0.7,1-1.5,1.8-2.5,2.5c-0.7,0.5-1.4,0.9-2.3,1.1
		c-0.9,0.3-1.9,0.4-2.9,0.3c-2.2-0.2-4.3-0.8-6.3-1.6s-3.9-2-5.6-3.3c-1.4-1.1-2.6-2.4-3.8-3.7c-1-1.1-1.7-2.1-2.2-2.8
		c-0.3-0.3-0.5-0.7-0.7-1.1c0.3,0.3,0.6,0.6,0.9,1c0.6,0.6,1.3,1.6,2.4,2.6c1.2,1.3,2.4,2.5,3.8,3.6c1.7,1.3,3.5,2.4,5.5,3.2
		c1.9,0.9,4,1.4,6.1,1.6c1.7,0.2,3.4-0.3,4.9-1.2c1-0.7,1.8-1.5,2.6-2.4C173.6,167.6,173.9,167.3,174.2,167z"/>
	<path class="st5" d="M182.6,183.9c0.1,0,0.7,8.6,1.2,19.3s0.8,19.3,0.7,19.4s-0.7-8.6-1.2-19.3S182.5,183.9,182.6,183.9z"/>
	<path class="st5" d="M128.5,172l0.2-0.1l0.7-0.3c1-0.4,2-0.6,3-0.7c1.7-0.2,3.4,0,5,0.6c2.1,0.8,4.1,2,5.7,3.6c2,2,3.7,4.2,5,6.6
		c0.8,1.3,1.4,2.8,2,4.3s1.4,3,2.1,4.6l9.5,21.1l-0.2-0.1c0.8,0.3,1.5,0.8,2,1.4c0.5,0.6,1,1.3,1.5,2c0.9,1.4,1.8,2.9,2.6,4.4
		l-0.1-0.1l2.5,2.5l-0.2-0.1l12.3,0.8l1.6,0.1c0.6,0,1.1,0.2,1.6,0.4c1,0.4,1.9,1.1,2.6,2.1c1.3,1.8,2.2,3.9,2.6,6.1
		c0,0.2,0.1,0.4,0.1,0.6v0.2l-0.1,0.1c-5.4,3.8-10.7,7.4-16,10.7c-1.3,0.8-2.6,1.6-4,2.3c-0.3,0.2-0.7,0.4-1,0.5
		c-0.3,0.2-0.7,0.3-1.1,0.5c-0.7,0.3-1.4,0.5-2.2,0.6c-2.9,0.8-5.8,1-8.8,0.6c-2.8-0.4-5.5-1.1-8.1-2.3c-0.6-0.2-1.2-0.5-1.8-0.9
		c-0.3-0.2-0.6-0.3-0.9-0.6c-0.3-0.2-0.5-0.4-0.8-0.6c-1-0.9-1.9-1.8-2.7-2.8c-2.9-3.8-5.4-7.8-7.5-12c-4-7.6-6.7-14.1-8.6-18.5
		c-0.9-2.2-1.6-3.9-2.1-5.1s-0.8-1.8-0.8-1.8c0.3,0.6,0.6,1.1,0.8,1.7l2.2,5.1c1.9,4.4,4.7,10.8,8.7,18.4c2.2,4.2,4.7,8.2,7.5,11.9
		c1.5,2.1,3.6,3.7,6,4.7c2.5,1.1,5.2,1.9,7.9,2.2c2.9,0.3,5.8,0.1,8.6-0.6c0.7-0.2,1.4-0.4,2.1-0.6c0.3-0.1,0.7-0.3,1-0.4
		c0.3-0.2,0.7-0.3,1-0.5c1.3-0.7,2.6-1.5,4-2.3c5.3-3.3,10.6-6.9,16-10.7l-0.1,0.3l-0.1-0.6c-0.4-2.1-1.2-4.1-2.5-5.9
		c-0.6-0.8-1.4-1.5-2.4-1.9c-1-0.3-2-0.4-3.1-0.4l-12.3-0.9h-0.1l-0.1-0.1l-2.5-2.5l0,0l0,0c-0.8-1.5-1.6-2.9-2.5-4.3
		c-0.4-0.7-0.9-1.3-1.5-1.9c-0.4-0.6-1-1-1.7-1.3h-0.1V212l-9.5-21.1l-2.1-4.6c-0.7-1.5-1.3-2.9-2-4.2c-1.3-2.4-2.9-4.7-4.9-6.6
		c-1.6-1.6-3.4-2.8-5.5-3.6c-1.6-0.6-3.2-0.8-4.9-0.6c-1,0.1-2,0.3-3,0.6l-0.8,0.3L128.5,172z"/>
	<path class="st5" d="M175.3,222.4c0,0.3-2.7,0.2-6.1-0.1L165,222c-0.6,0-1.2-0.1-1.8-0.2c0-0.2,2.7-0.2,6.1,0.1
		c1.7,0.1,3.2,0.3,4.3,0.4L175.3,222.4z"/>
	<path class="st5" d="M151.9,212.4c1.6-0.4,3.2-0.6,4.8-0.6c1.6-0.2,3.2-0.2,4.8-0.1c-1.6,0.4-3.2,0.6-4.8,0.6
		C155.1,212.5,153.5,212.5,151.9,212.4z"/>
	<g class="st8">
		<path d="M173.9,243.1c-3-5.3-8.2-9-14.2-10.3c-6-1.2-13.1,0.9-18,4.6c3.2,5.2,8.6,8.8,14.7,9.6C162.5,248,168.8,246.6,173.9,243.1
			z"/>
	</g>
	<g class="st8">
		<path d="M148.5,160.8c1.7,4.1,4,8.1,7.5,10.8s8.3,4.1,12.5,2.7c2.2-0.7,4.3-2.4,4.5-4.6c-8.8,3.4-18.8,0-23.8-8"/>
	</g>
	<g class="st8">
		<path d="M184.3,212.6c1.3-8.3,1.3-16.8-0.1-25.1c-0.1-0.6-0.4-1.3-1-1.2s-0.6,0.7-0.6,1.2c-0.1,8.5,0.3,17,1.2,25.4"/>
	</g>
	<path class="st5" d="M182.7,267.2c-0.2,0.1-0.3,0.1-0.5,0.2l-1.4,0.4c-0.6,0.2-1.4,0.4-2.2,0.5s-1.9,0.4-3,0.6
		c-2.2,0.4-4.9,0.8-7.9,1c-3.2,0.3-6.5,0.3-9.7,0.2c-3.2-0.1-6.5-0.4-9.7-0.9c-3-0.5-5.6-1-7.8-1.6c-1.1-0.3-2.1-0.6-3-0.8
		s-1.6-0.5-2.2-0.7l-1.4-0.5c-0.2-0.1-0.3-0.1-0.5-0.2c0.2,0,0.3,0,0.5,0.1l1.4,0.4c0.6,0.2,1.4,0.4,2.2,0.6s1.9,0.5,3,0.7
		c2.2,0.5,4.8,1,7.8,1.5s6.2,0.7,9.6,0.9s6.7,0,9.7-0.2s5.6-0.5,7.9-0.9c1.1-0.1,2.1-0.4,3-0.5s1.6-0.3,2.3-0.5l1.4-0.3
		C182.4,267.2,182.5,267.2,182.7,267.2z"/>
	<g class="st8">
		<path d="M138,266.3c1-1.3,2.5-2.1,4.1-2.1s3.2,0.2,4.7,0.6c10.8,2.4,22,2.2,32.7-0.5c0.1,1.4-0.6,2.6-1.8,3.3
			c-1.2,0.6-2.5,0.9-3.8,1c-12,2.3-24.4,0.8-36-2"/>
	</g>
</g>
<g id="freepik--Boxes--inject-6">
	<rect x="558.9" y="265.7" class="st4" width="134.8" height="96.9"/>
	<path class="st5" d="M595,265.7c0.2,0,0,20.5,0,20.5h-10v-20.5H595z"/>
	<g class="st11">
		<rect x="626.3" y="265.7" width="67.4" height="96.9"/>
	</g>
	<rect x="563" y="343.6" class="st3" width="18" height="12.8"/>
	<path class="st5" d="M581,356.4h-18v-12.8h18.1L581,356.4z M563,356.3h18v-12.7h-18V356.3z"/>
	<rect x="584.3" y="343.6" class="st3" width="9" height="12.8"/>
	<path class="st5" d="M593.4,356.4h-9.1v-12.8h9.1V356.4z M584.4,356.3h9v-12.7h-9V356.3z"/>
	<rect x="534.3" y="362.6" class="st4" width="153.3" height="110.2"/>
	<path class="st5" d="M575.5,362.6c0.2,0,0,23.3,0,23.3h-11.4v-23.3H575.5z"/>
	<g class="st11">
		<rect x="611" y="362.6" width="76.6" height="110.2"/>
	</g>
	<rect x="539" y="451.3" class="st3" width="20.5" height="14.5"/>
	<path class="st5" d="M559.5,465.8H539v-14.6h20.6L559.5,465.8z M539,465.8h20.5v-14.5H539V465.8z"/>
	<rect x="563.3" y="451.3" class="st3" width="10.3" height="14.5"/>
	<path class="st5" d="M573.6,465.8h-10.3v-14.6h10.3V465.8z M563.3,465.8h10.2v-14.5h-10.2V465.8z"/>
	<path class="st5" d="M693.6,362.5c0,0.1-30.2,0.3-67.4,0.3s-67.4-0.1-67.4-0.3s30.2-0.3,67.4-0.3S693.6,362.4,693.6,362.5z"/>
</g>
<g>
	<g>
		<g>
			<path class="st3" d="M62.6,35c-9.5,0.5-16.8,8.6-16.3,18.1c0.4,8.8,7.4,15.8,16,16.5c1.3,6.2,6.7,10.7,13.1,10.7
				c0.2,0,0.4,0,0.6,0c3.6-0.2,6.8-1.7,9.1-4.1c2.3,4.5,7,7.6,12.3,7.6c0.2,0,0.4,0,0.7,0c0.1,0,0.1,0,0.2,0
				c1-7.5,7.5-13.3,15.2-13.3c3.6,0,6.9,1.2,9.5,3.3c2.1-2,3.5-4.9,3.5-8c7.6-3.1,12.8-10.7,12.4-19.4c-0.5-10.7-9.3-19-19.9-19
				c-0.3,0-0.6,0-0.9,0c-1.8,0.1-3.6,0.4-5.3,1c-2-7.2-8.6-12.5-16.3-12.5c-0.3,0-0.5,0-0.8,0c-5.4,0.3-10.1,3-13.1,7.2
				c-2-1.4-4.5-2.2-7.1-2.2c-0.2,0-0.4,0-0.6,0c-7.1,0.3-12.6,6.4-12.3,13.5C62.5,34.5,62.6,34.8,62.6,35L62.6,35z"/>
			<path class="st5" d="M97.4,84.3c-5.2,0-9.9-2.8-12.5-7.2c-2.4,2.3-5.6,3.6-8.9,3.8c-6.7,0.3-12.7-4.3-14.2-10.7
				c-8.8-0.9-15.6-8.1-16.1-16.9c-0.4-9.6,6.8-17.8,16.3-18.6c0-0.1,0-0.2,0-0.3c-0.3-7.4,5.4-13.7,12.8-14c2.7-0.1,5.3,0.6,7.6,2
				c3.1-4.2,7.9-6.7,13.2-7c8-0.4,15.2,4.8,17.5,12.3c1.6-0.5,3.2-0.8,4.9-0.8c11.3-0.5,20.8,8.2,21.4,19.5
				c0.4,8.5-4.6,16.5-12.4,19.8c-0.1,3.1-1.4,5.9-3.7,8.1l-0.3,0.3l-0.3-0.3c-2.6-2.1-5.8-3.2-9.2-3.2c-7.4,0-13.7,5.5-14.7,12.9
				l-0.1,0.4l-0.6,0C97.8,84.3,97.6,84.3,97.4,84.3z M85.1,75.4l0.3,0.6c2.4,4.6,7.1,7.4,12.3,7.3c1.2-7.6,7.9-13.3,15.7-13.3
				c3.4,0,6.7,1.1,9.4,3.1c1.9-2,3-4.6,3.1-7.4l0-0.3l0.3-0.1c7.6-3.1,12.5-10.7,12.1-18.9c-0.5-10.4-9-18.5-19.4-18.5c0,0,0,0,0,0
				c-0.3,0-0.6,0-0.9,0c-1.8,0.1-3.5,0.4-5.1,0.9l-0.5,0.2l-0.1-0.5c-2-7.4-8.9-12.5-16.6-12.1c-5.1,0.2-9.7,2.8-12.7,6.9l-0.3,0.4
				l-0.4-0.3c-2.2-1.5-4.8-2.2-7.4-2.1c-6.8,0.3-12.1,6.1-11.8,13c0,0.2,0,0.5,0.1,0.7l0.1,0.5l-0.5,0c-9.2,0.5-16.3,8.4-15.9,17.6
				c0.4,8.5,7.1,15.4,15.5,16l0.4,0l0.1,0.4c1.3,6.2,6.9,10.6,13.2,10.3c3.3-0.2,6.4-1.6,8.7-4L85.1,75.4z"/>
		</g>
		<g>
			<ellipse class="st3" cx="132.6" cy="102.1" rx="6.3" ry="6.3"/>
			<path class="st5" d="M132.6,109c-3.8,0-6.8-3.1-6.8-6.8s3.1-6.8,6.8-6.8s6.8,3.1,6.8,6.8S136.4,109,132.6,109z M132.6,96.3
				c-3.2,0-5.8,2.6-5.8,5.8s2.6,5.8,5.8,5.8s5.8-2.6,5.8-5.8S135.8,96.3,132.6,96.3z"/>
		</g>
		<g>
			<ellipse class="st3" cx="113.4" cy="85.8" rx="10" ry="10"/>
			<path class="st5" d="M113.4,96.3c-5.8,0-10.5-4.7-10.5-10.5s4.7-10.5,10.5-10.5s10.5,4.7,10.5,10.5S119.2,96.3,113.4,96.3z
				 M113.4,76.4c-5.2,0-9.5,4.2-9.5,9.5s4.2,9.5,9.5,9.5s9.5-4.2,9.5-9.5S118.7,76.4,113.4,76.4z"/>
		</g>
	</g>
	<g>
		<path class="st5" d="M90.5,55.4c-0.1-0.3-0.1-0.7-0.1-1.2c0-1.2,0.1-2.3,0.4-3.1c0.3-0.8,0.7-1.6,1.2-2.3c0.4-0.7,1-1.2,1.5-1.8
			c0.5-0.5,1.1-1,1.5-1.5c0.5-0.4,0.8-1,1.2-1.4c0.3-0.4,0.4-1,0.4-1.6c0-0.8-0.3-1.5-1-2c-0.7-0.4-1.5-0.7-2.6-0.7
			c-1.2,0-2.4,0.3-3.7,1c-1.2,0.7-2.3,1.5-3.3,2.4l-1.8-6c1.1-1.2,2.4-2.2,4.4-2.9c1.8-0.7,3.8-1.1,6-1.1c1.9,0,3.5,0.4,5,1.1
			c1.5,0.7,2.7,1.6,3.5,2.9c0.8,1.2,1.2,2.7,1.2,4.5c0,1.2-0.1,2.2-0.5,3.1c-0.4,0.8-0.8,1.6-1.4,2.3c-0.5,0.7-1.2,1.4-1.8,1.9
			c-0.7,0.5-1.2,1.2-1.8,1.8c-0.5,0.5-1.1,1.2-1.4,2c-0.4,0.7-0.5,1.6-0.5,2.6C97.1,55.4,90.5,55.4,90.5,55.4z M93.9,66.3
			c-1.2,0-2.2-0.4-3-1.1c-0.8-0.7-1.2-1.6-1.2-2.9c0-1.1,0.4-2,1.2-2.7c0.8-0.7,1.8-1.1,3-1.1c1.2,0,2.2,0.4,3,1.1
			c0.8,0.7,1.2,1.6,1.2,2.7c0,1.2-0.4,2.2-1.2,2.9C96,65.9,95.1,66.3,93.9,66.3z"/>
	</g>
</g>
</svg>
