<?xml version="1.0" encoding="utf-8"?>
<!-- Generator: Adobe Illustrator 23.0.3, SVG Export Plug-In . SVG Version: 6.00 Build 0)  -->
<svg version="1.1" id="Layer_1" xmlns="http://www.w3.org/2000/svg" xmlns:xlink="http://www.w3.org/1999/xlink" x="0px" y="0px"
	 viewBox="0 0 211.2 211.2" style="enable-background:new 0 0 211.2 211.2;" xml:space="preserve">
<style type="text/css">
	.st0{fill:#CCCCCB;}
	.st1{fill:#CEE7F0;}
	.st2{fill:#E93959;}
	.st3{fill:#1FB573;}
	.st4{fill:#FFFFFF;}
	.st5{fill:#2D3D47;}
</style>
<path class="st0" d="M40.1,125.5c-1.3-2-2.6-4.1-3.7-6.2c-0.2-0.5-0.1-1.1,0.4-1.4c0.5-0.2,1.1-0.1,1.4,0.4c1.8,3.5,4,6.8,6.3,10
	c0.3,0.5,0.2,1.1-0.1,1.4c-0.5,0.3-1.1,0.2-1.4-0.1C41.9,128.2,41,126.8,40.1,125.5z M50.8,138.4c-0.3-0.4-0.2-0.9,0.1-1.3
	c0.4-0.4,1-0.4,1.4,0c2.8,2.7,5.9,5.3,9.1,7.6c0.4,0.3,0.5,1,0.2,1.4s-1,0.5-1.4,0.2c-3.3-2.3-6.4-5-9.3-7.8
	C50.9,138.6,50.8,138.5,50.8,138.4z M31.5,108.4c-0.1-0.1-0.1-0.2-0.1-0.2c-1.3-3.8-2.4-7.8-3.2-11.7c-0.1-0.5,0.2-1.1,0.8-1.1
	c0.6,0,1,0.3,1.1,0.8c0.7,3.8,1.7,7.7,3.1,11.4c0.2,0.5-0.1,1.1-0.6,1.2C32.3,109,31.8,108.8,31.5,108.4z M70.2,152.3
	c-0.2-0.3-0.2-0.7-0.1-1c0.3-0.5,0.9-0.7,1.4-0.4c0.9,0.4,1.6,0.8,2.5,1.2c2.8,1.3,5.6,2.3,8.4,3.3c0.5,0.2,0.9,0.8,0.6,1.3
	s-0.8,0.9-1.3,0.6c-2.9-1-5.8-2.1-8.7-3.4c-0.9-0.4-1.7-0.8-2.6-1.3C70.5,152.6,70.3,152.5,70.2,152.3z M27.1,84.9
	c-0.1-0.2-0.2-0.3-0.2-0.5c-0.2-4.1,0-8.2,0.5-12.1c0.1-0.6,0.6-1,1.1-0.9c0.6,0.1,1,0.6,0.9,1.1c-0.4,3.9-0.7,7.9-0.5,11.8
	c0,0.6-0.4,1-1,1C27.6,85.4,27.2,85.2,27.1,84.9z M93.1,159.6c-0.1-0.2-0.2-0.5-0.1-0.7c0.1-0.6,0.6-0.9,1.1-0.9
	c3.9,0.7,7.8,0.9,11.8,1c0.6,0,1,0.4,1,1s-0.4,1-1,1c-4,0-8.2-0.4-12.1-1C93.4,160,93.2,159.8,93.1,159.6z M30,61.2
	c-0.2-0.3-0.2-0.6-0.2-0.8c1.1-3.8,2.4-7.7,4.2-11.4c0,0,0.1-0.1,0-0.1c0,0,0.1-0.1,0-0.1c1.7-3.6,3.7-7.3,5.9-10.6
	c0.3-0.4,0.9-0.6,1.4-0.3c0.4,0.3,0.6,0.9,0.3,1.4c-2.1,3.3-4.1,6.7-5.7,10.4c0,0-0.1,0.1,0,0.1c0,0-0.1,0.1,0,0.1
	c-1.6,3.6-2.9,7.3-4.1,11.1c-0.1,0.6-0.7,0.8-1.2,0.7C30.3,61.5,30.1,61.4,30,61.2z M116.9,159.7c-0.1-0.1-0.2-0.3-0.1-0.4
	c-0.1-0.5,0.3-1,0.8-1.1c3.9-0.6,7.8-1.4,11.6-2.6c0.5-0.1,1.1,0.1,1.2,0.6c0.1,0.5-0.1,1.1-0.6,1.2c-3.9,1.2-7.9,2.1-11.9,2.7
	C117.5,160.3,117.2,160,116.9,159.7z M47.3,29.8c-0.2-0.3-0.2-0.9,0.1-1.3c2.7-3,5.7-5.8,8.9-8.4c0.4-0.4,1-0.3,1.4,0.1
	s0.3,1-0.1,1.4c-3,2.5-5.9,5.2-8.6,8.2c-0.4,0.4-1,0.4-1.4,0.1C47.4,29.8,47.4,29.8,47.3,29.8z M139.7,152.7L139.7,152.7
	c-0.2-0.6-0.1-1.2,0.4-1.4c3-1.5,6-3.1,8.7-4.9c0.5-0.3,1-0.7,1.5-1s1.1-0.2,1.4,0.3l0,0c0.3,0.4,0.2,1.1-0.3,1.4
	c-0.5,0.3-1,0.7-1.5,1c-2.8,1.9-5.9,3.6-9,5.1C140.6,153.2,140,153.1,139.7,152.7z M65.8,14.7L65.8,14.7c-0.3-0.5-0.1-1.1,0.4-1.4
	c3.4-2,7.2-3.8,10.9-5.3c0.5-0.2,1.1,0,1.3,0.6c0.2,0.5,0,1.1-0.6,1.3c-3.7,1.5-7.2,3.2-10.6,5.2C66.7,15.3,66,15.1,65.8,14.7z
	 M159.4,139c-0.3-0.4-0.2-0.9,0.1-1.3c2.9-2.7,5.5-5.7,7.9-8.8c0.3-0.4,1-0.5,1.4-0.2s0.5,1,0.2,1.4c-2.5,3.2-5.2,6.2-8.1,9.1
	c-0.4,0.4-1.1,0.4-1.4,0C159.5,139.2,159.4,139.1,159.4,139z M88,5.9c-0.1-0.1-0.1-0.2-0.1-0.4c-0.1-0.5,0.2-1.1,0.8-1.2
	c3.9-0.9,8-1.5,12-1.8c0.6,0,1.1,0.4,1.1,0.9c0,0.6-0.4,1.1-0.9,1.1C97,4.8,93.1,5.4,89.2,6.2C88.7,6.4,88.2,6.2,88,5.9z M174,120.1
	c-0.2-0.3-0.2-0.7-0.1-1c0.9-1.7,1.8-3.5,2.6-5.2c0.8-1.9,1.6-3.7,2.3-5.6c0.2-0.5,0.8-0.8,1.3-0.6s0.8,0.8,0.6,1.3
	c-0.7,1.9-1.5,3.9-2.3,5.7c-0.9,1.8-1.7,3.5-2.7,5.4c-0.3,0.5-0.9,0.7-1.4,0.4C174.2,120.3,174,120.2,174,120.1z M111.9,4.2
	c-0.1-0.2-0.1-0.4-0.2-0.6c0-0.5,0.6-1,1.1-0.9c4,0.3,8.1,1,11.9,1.9c0.6,0.1,0.9,0.6,0.7,1.2c-0.1,0.6-0.6,0.9-1.2,0.7
	c-3.9-0.9-7.8-1.6-11.7-1.9C112.4,4.7,112.1,4.5,111.9,4.2z M182.3,97.6c-0.2-0.3-0.2-0.5-0.1-0.7c0.8-3.9,1.3-7.8,1.5-11.8
	c0-0.5,0.5-0.9,1.1-0.9c0.5,0,1,0.6,0.9,1.1c-0.2,4.1-0.6,8.1-1.5,12c-0.1,0.6-0.6,0.9-1.2,0.8C182.5,98.1,182.4,97.8,182.3,97.6z
	 M135.2,9.8c-0.2-0.3-0.2-0.6-0.1-0.9c0.3-0.5,0.8-0.8,1.3-0.5c0.9,0.3,1.9,0.8,2.9,1.2c2.8,1.3,5.5,2.6,8,4.2
	c0.4,0.3,0.6,0.9,0.3,1.4c-0.3,0.4-0.9,0.6-1.4,0.3c-2.5-1.5-5.1-2.9-7.8-4.1c-0.9-0.5-1.9-0.8-2.7-1.2
	C135.4,10.1,135.3,10,135.2,9.8z M183.2,73.7c-0.1-0.2-0.2-0.3-0.2-0.5c-0.4-3.9-1.2-7.8-2.2-11.6c-0.1-0.5,0.1-1.1,0.8-1.2
	c0.5-0.1,1.1,0.1,1.2,0.8c1,3.9,1.8,7.9,2.2,11.9c0,0.6-0.4,1.1-0.9,1.1C183.8,74.2,183.5,74.1,183.2,73.7z M155.6,22.1
	c-0.2-0.3-0.2-0.8,0-1.2c0.3-0.4,1-0.5,1.4-0.1c3.2,2.6,6,5.5,8.7,8.5c0.4,0.4,0.4,1.1-0.1,1.4c-0.4,0.4-1.1,0.4-1.4-0.1
	c-2.6-3-5.5-5.7-8.5-8.3C155.7,22.3,155.7,22.2,155.6,22.1z M177.1,50.7c-0.1-0.1-0.1-0.1-0.1-0.2c-1.6-3.6-3.5-7.1-5.6-10.5
	c-0.3-0.5-0.1-1.1,0.3-1.4c0.5-0.3,1.1-0.2,1.4,0.3c2.1,3.4,4.1,7,5.7,10.7c0.2,0.5,0,1.1-0.6,1.3C177.9,51.3,177.3,51.1,177.1,50.7
	z"/>
<path class="st1" d="M196.5,115.6l-79.2,79.2c-6.5,6.5-16.9,6.5-23.4,0l-79.2-79.2c-6.5-6.5-6.5-16.9,0-23.4L93.9,13
	c6.5-6.5,16.9-6.5,23.4,0l79.2,79.2C203,98.6,203,109.1,196.5,115.6z"/>
<path class="st1" d="M65.6,190.4l-15.8,15.8c-2.9,2.9-7.5,2.9-10.3,0l-15.8-15.8c-2.9-2.9-2.9-7.5,0-10.3l15.8-15.8
	c2.9-2.9,7.5-2.9,10.3,0l15.8,15.8C68.5,182.9,68.5,187.5,65.6,190.4z"/>
<path class="st2" d="M200.6,65.8l-2.6,2.6c-1.1,1.1-3,1.1-4.1,0l-2.6-2.6c-1.1-1.1-1.1-3,0-4.1l2.6-2.6c1.1-1.1,3-1.1,4.1,0l2.6,2.6
	C201.7,62.9,201.7,64.7,200.6,65.8z"/>
<path class="st3" d="M27.3,149.8l-2.6,2.6c-1.1,1.1-3,1.1-4.1,0l-2.6-2.6c-1.1-1.1-1.1-3,0-4.1l2.6-2.6c1.1-1.1,3-1.1,4.1,0l2.6,2.6
	C28.4,146.8,28.4,148.7,27.3,149.8z"/>
<path class="st1" d="M197.9,160.4l-9.2,9.2c-1.7,1.7-4.4,1.7-6,0l-9.2-9.2c-1.7-1.7-1.7-4.4,0-6l9.2-9.2c1.7-1.7,4.4-1.7,6,0
	l9.2,9.2C199.6,156,199.6,158.7,197.9,160.4z"/>
<g>
	<path class="st4" d="M130.7,92.1c23.6,0,42.8,15.7,42.8,35.1c0,12.2-7.6,22.9-19.1,29.2l0,0l3,8.7l-14.8-4.2l0,0
		c-3.8,0.9-7.7,1.4-11.8,1.4c-23.6,0-42.8-15.7-42.8-35.1C87.9,107.9,107,92.1,130.7,92.1z"/>
	<path class="st4" d="M85.1,43.4c-23.6,0-42.8,15.7-42.8,35.1c0,12.2,7.6,22.9,19.1,29.2l0,0l-3,8.7l14.8-4.2l0,0
		c3.8,0.9,7.7,1.4,11.8,1.4c23.6,0,42.8-15.7,42.8-35.1S108.7,43.4,85.1,43.4z"/>
	<path class="st5" d="M158.5,157c11.1-7.3,17.6-18.5,17.6-30.5c0-21.7-20.7-38.6-45.3-38.6c-0.5,0-0.9,0-1.4,0
		c0.9-3.1,1.4-6.3,1.4-9.7c0-21.7-20.7-38.6-45.3-38.6c-24.6,0-45.3,16.9-45.3,38.6c0,12,6.5,23.2,17.6,30.5l-7.2,8.7
		c-1.9,2.3,0.3,5.6,3.1,4.8l22.5-6.3c3.6,0.6,7.2,0.9,10.8,0.8c-0.9,3.1-1.4,6.3-1.4,9.7c0,24.9,26.9,42.7,54.6,37.7l22.5,6.3
		c2.9,0.8,5-2.6,3.1-4.8L158.5,157z M76.6,109.9c-0.5-0.1-0.9-0.1-1.4,0.1l-13.8,3.9l3.3-3.9c1.2-1.5,0.8-3.7-0.9-4.6
		c-11-6.1-17.5-16.2-17.5-27.1c0-17.9,17.6-32.5,39.2-32.5c21.6,0,39.2,14.6,39.2,32.5C124.7,99.3,101,114.6,76.6,109.9z
		 M141.1,158.2c-0.5-0.1-0.9-0.1-1.4-0.1c-24.4,4.7-48.1-10.6-48.1-31.7c0-3.5,0.7-6.8,1.9-10c-0.7,0-1.4,0-2.1,0
		c15.5-1.7,29-10.2,35.4-22.4c1.3-0.1,2.6-0.2,4-0.2c21.6,0,39.2,14.6,39.2,32.5c0,10.9-6.6,21-17.5,27.1c-1.7,0.9-2.1,3.1-0.9,4.6
		l3.3,3.9L141.1,158.2z"/>
	<g>
		<path class="st5" d="M97,89.3c0.3,0.4,0.5,0.9,0.5,1.5c0,1.2-1,2.2-2.2,2.2c-0.6,0-1.3-0.3-1.6-0.8l-1.2-1.3c-2,1.1-4.4,1.7-7,1.7
			c-8.4,0-14.2-6.1-14.2-14.4c0-8.3,5.9-14.4,14.2-14.4s14.2,6.1,14.2,14.4c0,4-1.4,7.5-3.7,10L97,89.3z M89.5,87.4L87.3,85
			c-0.3-0.4-0.5-0.9-0.5-1.4c0-1.3,1-2.2,2.2-2.2c0.7,0,1.3,0.3,1.7,0.8l2.2,2.5c1.3-1.7,1.9-3.9,1.9-6.4c0-5.8-3.6-10.1-9.2-10.1
			c-5.6,0-9.2,4.3-9.2,10.1c0,5.7,3.6,10.1,9.2,10.1C87,88.2,88.3,87.9,89.5,87.4z"/>
	</g>
	<g>
		<path class="st5" d="M143.6,136.9c0,1.4-1.1,2.5-2.5,2.5c-1,0-2-0.7-2.3-1.6l-1.5-4H124l-1.5,4c-0.3,0.9-1.3,1.6-2.3,1.6
			c-1.4,0-2.5-1.1-2.5-2.5c0-0.3,0.1-0.6,0.2-0.9l8.7-22.2c0.6-1.6,2.2-2.8,4-2.8c1.8,0,3.4,1.2,4,2.8l8.7,22.2
			C143.5,136.3,143.6,136.7,143.6,136.9z M135.8,129.6l-5.1-14.1l-5.1,14.1H135.8z"/>
	</g>
</g>
</svg>
