<?xml version="1.0" encoding="utf-8"?>
<!-- Generator: Adobe Illustrator 23.0.3, SVG Export Plug-In . SVG Version: 6.00 Build 0)  -->
<svg version="1.1" id="Layer_1" xmlns="http://www.w3.org/2000/svg" xmlns:xlink="http://www.w3.org/1999/xlink" x="0px" y="0px"
	 viewBox="0 0 211.2 211.2" style="enable-background:new 0 0 211.2 211.2;" xml:space="preserve">
<style type="text/css">
	.st0{fill:#CCCCCB;}
	.st1{fill:#CEE7F0;}
	.st2{fill:#E93959;}
	.st3{fill:#1FB573;}
	.st4{fill:#FFFFFF;}
	.st5{fill:#E83A5A;}
	.st6{fill:#1EB473;}
	.st7{fill:#2D3D47;}
	.st8{fill:#47C4E0;}
</style>
<path class="st0" d="M104.4,28c2.3,0.7,4.6,1.5,6.8,2.4c0.5,0.3,0.8,0.8,0.6,1.3c-0.3,0.5-0.8,0.8-1.3,0.6
	c-3.6-1.6-7.4-2.7-11.2-3.7c-0.5-0.2-0.9-0.7-0.8-1.1c0.2-0.5,0.7-0.9,1.1-0.8C101.3,27.1,102.9,27.6,104.4,28z M87.9,24.9
	c0.5,0.1,0.7,0.6,0.8,1.1c-0.1,0.6-0.5,0.9-1.1,0.9c-3.9-0.3-7.9-0.3-11.9-0.1c-0.5,0-1-0.5-1-1s0.5-1,1-1c4-0.3,8.1-0.2,12.1,0.1
	C87.7,24.8,87.8,24.8,87.9,24.9z M121.9,35.7c0.1,0,0.2,0.1,0.2,0.1c3.4,2.1,6.8,4.5,9.9,7c0.4,0.3,0.5,1,0.1,1.4
	c-0.5,0.4-1,0.4-1.4,0.1c-3-2.5-6.2-4.9-9.7-6.8c-0.5-0.3-0.6-0.9-0.3-1.3C120.9,35.8,121.4,35.6,121.9,35.7z M64.1,26.5
	c0.3,0.1,0.6,0.4,0.7,0.7c0.1,0.6-0.2,1.1-0.8,1.2c-0.9,0.3-1.7,0.4-2.7,0.7c-3,0.8-5.8,1.8-8.6,2.8c-0.5,0.2-1.2,0-1.3-0.6
	c-0.1-0.6,0-1.2,0.6-1.3c2.9-1.1,5.8-2.1,8.9-2.9c0.9-0.3,1.8-0.5,2.8-0.7C63.7,26.5,63.9,26.5,64.1,26.5z M140.3,51
	c0.2,0.1,0.3,0.1,0.5,0.3c2.8,3,5.2,6.3,7.3,9.6c0.3,0.5,0.2,1.2-0.3,1.4c-0.5,0.3-1.2,0.2-1.4-0.3c-2.2-3.3-4.5-6.5-7.1-9.4
	c-0.4-0.5-0.3-1,0.1-1.4C139.6,51,140,50.9,140.3,51z M41.8,35.5c0.2,0.1,0.5,0.3,0.5,0.5c0.3,0.5,0.1,1.1-0.3,1.4
	c-3.5,1.9-6.6,4.3-9.7,6.7c-0.5,0.4-1,0.3-1.4-0.1c-0.4-0.5-0.3-1,0.1-1.4c3.1-2.5,6.6-4.9,10-6.9C41.3,35.4,41.6,35.4,41.8,35.5z
	 M153.1,71.2c0.3,0.1,0.5,0.3,0.7,0.5c1.6,3.6,3.1,7.5,4,11.5c0,0,0,0.1,0.1,0.1c0,0,0,0.1,0.1,0.1c1,3.9,1.8,8,2.2,11.9
	c0,0.5-0.3,1-0.9,1.1c-0.5,0-1-0.3-1.1-0.9c-0.5-3.9-1.1-7.8-2.2-11.6c0,0,0-0.1-0.1-0.1c0,0,0-0.1-0.1-0.1
	c-1.1-3.8-2.4-7.5-3.9-11.2c-0.3-0.5,0-1.1,0.5-1.3C152.7,71.1,152.9,71.1,153.1,71.2z M23.4,50.6c0.1,0,0.3,0.1,0.3,0.2
	c0.4,0.3,0.4,1,0.1,1.4c-2.6,2.9-5.1,6-7.3,9.4c-0.3,0.4-0.9,0.6-1.3,0.3c-0.4-0.3-0.6-0.9-0.3-1.3c2.2-3.4,4.8-6.7,7.5-9.7
	C22.5,50.5,23,50.5,23.4,50.6z M159.8,106.4c0.3,0.1,0.7,0.6,0.8,1.1c-0.2,4-0.7,8.1-1.5,12.1c-0.1,0.6-0.6,0.9-1.1,0.8
	c-0.6-0.1-0.9-0.6-0.8-1.1c0.7-3.8,1.2-7.8,1.4-11.8c0.1-0.6,0.5-0.9,1-1C159.7,106.4,159.7,106.4,159.8,106.4z M10.3,70.5
	L10.3,70.5c0.5,0.3,0.8,0.9,0.6,1.3c-1.4,3.1-2.7,6.2-3.6,9.3c-0.2,0.5-0.3,1.2-0.5,1.7c-0.2,0.5-0.7,0.9-1.3,0.7l0,0
	c-0.5-0.1-0.9-0.7-0.7-1.3c0.2-0.5,0.3-1.2,0.5-1.7C6.3,77.3,7.6,74,9,70.9C9.3,70.7,9.8,70.4,10.3,70.5z M155.1,129.8L155.1,129.8
	c0.5,0.2,0.8,0.8,0.6,1.3c-1.3,3.7-3.1,7.5-5,11c-0.3,0.5-0.8,0.7-1.4,0.4c-0.5-0.3-0.7-0.8-0.4-1.4c1.9-3.5,3.5-7.1,4.9-10.8
	C154.1,129.9,154.7,129.6,155.1,129.8z M3.8,93.6c0.5,0.1,0.7,0.6,0.8,1.1C4,98.6,4,102.6,4.1,106.5c0,0.5-0.5,1-1,1
	c-0.5,0-1-0.5-1-1c-0.1-4.1,0.1-8.1,0.4-12.2c0.1-0.6,0.6-1,1.1-0.9C3.6,93.5,3.7,93.5,3.8,93.6z M143.6,150.7
	c0.1,0,0.2,0.1,0.3,0.2c0.4,0.3,0.5,1,0.1,1.4c-2.4,3.2-5.2,6.3-8.1,9c-0.5,0.4-1.1,0.4-1.4,0c-0.4-0.5-0.4-1.1,0-1.4
	c2.8-2.7,5.4-5.7,7.9-8.8C142.8,150.8,143.3,150.6,143.6,150.7z M4.6,117.5c0.3,0.1,0.6,0.4,0.7,0.7c0.4,1.9,0.8,3.8,1.3,5.7
	c0.6,2,1.1,3.9,1.8,5.8c0.2,0.5-0.1,1.1-0.6,1.3c-0.5,0.2-1.1-0.1-1.3-0.6c-0.7-1.9-1.3-4-1.9-5.9c-0.5-2-0.9-3.8-1.4-5.9
	c-0.1-0.6,0.2-1.1,0.8-1.2C4.3,117.5,4.5,117.4,4.6,117.5z M126.3,167.3c0.2,0.1,0.3,0.2,0.5,0.3c0.3,0.4,0.2,1.2-0.3,1.4
	c-3.3,2.3-6.9,4.4-10.4,6.1c-0.5,0.3-1.1,0.1-1.3-0.5c-0.3-0.5-0.1-1.1,0.5-1.3c3.6-1.8,7-3.7,10.2-6
	C125.6,167.2,126,167.2,126.3,167.3z M12.5,140.1c0.3,0.1,0.5,0.3,0.5,0.5c1.9,3.5,4,6.8,6.4,10.1c0.3,0.4,0.2,1-0.3,1.4
	c-0.4,0.3-1.2,0.2-1.4-0.3c-2.5-3.3-4.7-6.6-6.5-10.2c-0.3-0.5-0.1-1.1,0.4-1.4C12.1,139.9,12.3,140,12.5,140.1z M104.8,177.8
	c0.3,0.1,0.5,0.3,0.7,0.6c0.1,0.6-0.1,1.1-0.7,1.2c-0.9,0.3-2,0.6-3,0.9c-3,0.8-5.9,1.5-8.8,1.9c-0.5,0-1-0.3-1.1-0.9
	c0-0.5,0.3-1,0.9-1.1c2.9-0.4,5.8-1,8.6-1.8c1-0.2,2-0.6,2.8-0.8C104.4,177.7,104.6,177.7,104.8,177.8z M27.1,159.1
	c0.2,0.1,0.3,0.1,0.5,0.3c2.8,2.8,5.9,5.2,9.1,7.5c0.4,0.3,0.6,0.9,0.1,1.4c-0.3,0.4-0.9,0.6-1.4,0.1c-3.3-2.4-6.4-4.9-9.3-7.8
	c-0.4-0.5-0.4-1.1,0-1.4C26.3,159.1,26.6,159,27.1,159.1z M81.2,181.3c0.3,0.1,0.7,0.5,0.8,0.9c0,0.5-0.5,1-1,1
	c-4.1,0-8.1-0.4-12.1-1c-0.6-0.1-1-0.6-0.8-1.1c0.1-0.6,0.6-1,1.1-0.8c3.9,0.7,7.9,0.9,11.8,1C81,181.2,81.1,181.3,81.2,181.3z
	 M46.4,173c0.1,0,0.1,0,0.2,0.1c3.5,1.8,7.2,3.2,11,4.5c0.5,0.2,0.8,0.8,0.7,1.3c-0.2,0.5-0.7,0.9-1.3,0.7
	c-3.8-1.3-7.6-2.8-11.2-4.6c-0.5-0.3-0.7-0.8-0.4-1.4C45.4,173,46,172.8,46.4,173z"/>
<path class="st1" d="M196.5,115.6l-79.2,79.2c-6.5,6.5-16.9,6.5-23.4,0l-79.2-79.2c-6.5-6.5-6.5-16.9,0-23.4L93.9,13
	c6.5-6.5,16.9-6.5,23.4,0l79.2,79.2C203,98.6,203,109.1,196.5,115.6z"/>
<path class="st1" d="M203.9,163l-11.5,11.5c-2.1,2.1-5.4,2.1-7.5,0L173.4,163c-2.1-2.1-2.1-5.4,0-7.5l11.5-11.5
	c2.1-2.1,5.4-2.1,7.5,0l11.5,11.5C206,157.5,206,160.9,203.9,163z"/>
<path class="st2" d="M81.6,201.7l-2.6,2.6c-1.1,1.1-3,1.1-4.1,0l-2.6-2.6c-1.1-1.1-1.1-3,0-4.1l2.6-2.6c1.1-1.1,3-1.1,4.1,0l2.6,2.6
	C82.7,198.8,82.7,200.6,81.6,201.7z"/>
<path class="st3" d="M150.1,25.4l-2.6,2.6c-1.1,1.1-3,1.1-4.1,0l-2.6-2.6c-1.1-1.1-1.1-3,0-4.1l2.6-2.6c1.1-1.1,3-1.1,4.1,0l2.6,2.6
	C151.2,22.4,151.2,24.3,150.1,25.4z"/>
<path class="st1" d="M174.4,174.8l-5.7,5.7c-1.1,1.1-2.7,1.1-3.7,0l-5.7-5.7c-1.1-1.1-1.1-2.7,0-3.7l5.7-5.7c1.1-1.1,2.7-1.1,3.7,0
	l5.7,5.7C175.5,172,175.5,173.7,174.4,174.8z"/>
<g>
	<polygon class="st4" points="49.1,109.5 50.9,155.2 157.6,155.2 157.6,108.7 116.6,106.5 116.2,59.2 63.4,59.2 62.4,109.3 	"/>
	<circle class="st4" cx="145.5" cy="66.8" r="11.8"/>
	<g>
		<rect x="68.5" y="107.5" class="st5" width="15.4" height="21.8"/>
		<rect x="122.8" y="107.5" class="st6" width="15.4" height="21.8"/>
		<path class="st7" d="M138.2,139.4c-1.8,0-3.3,1.5-3.3,3.3s1.5,3.3,3.3,3.3h8.8c1.8,0,3.3-1.5,3.3-3.3s-1.5-3.3-3.3-3.3H138.2z"/>
		<path class="st7" d="M91.9,139.4h-8.8c-1.8,0-3.3,1.5-3.3,3.3s1.5,3.3,3.3,3.3h8.8c1.8,0,3.3-1.5,3.3-3.3S93.8,139.4,91.9,139.4z"
			/>
		<path class="st7" d="M161.9,85.4l-5.1-7.2c2.9-2.9,4.7-6.9,4.7-11.4c0-8.9-7.2-16.1-16.1-16.1c-8.9,0-16.1,7.2-16.1,16.1
			c0,8.9,7.2,16.1,16.1,16.1c2.2,0,4.2-0.4,6.1-1.2l5.3,7.3c0.6,0.9,1.6,1.3,2.5,1.3c0.6,0,1.3-0.2,1.8-0.6
			C162.6,88.7,162.9,86.8,161.9,85.4z M135.6,66.8c0-5.4,4.4-9.8,9.8-9.8c5.4,0,9.8,4.4,9.8,9.8c0,5.4-4.4,9.8-9.8,9.8
			C140,76.6,135.6,72.2,135.6,66.8z"/>
		<rect x="82.1" y="59.2" class="st8" width="15.4" height="21.8"/>
		<path class="st7" d="M96.5,97.6h8.8c1.8,0,3.3-1.5,3.3-3.3s-1.5-3.3-3.3-3.3h-8.8c-1.8,0-3.3,1.5-3.3,3.3S94.7,97.6,96.5,97.6z"/>
		<path class="st7" d="M66.7,62.4h11v18.7c0,1.8,1.5,3.3,3.3,3.3h17.6c1.8,0,3.3-1.5,3.3-3.3V62.4h11v41.8h6.6V59.1
			c0-1.8-1.5-3.3-3.3-3.3H63.4c-1.8,0-3.3,1.5-3.3,3.3v45.1h6.6V62.4z M84.3,62.4h11v15.4h-11V62.4z"/>
		<path class="st7" d="M157.9,104.2h-23h-1.2h-6.6H80.8h-6.6H50c-1.8,0-3.3,1.5-3.3,3.3v48.4c0,1.8,1.5,3.3,3.3,3.3h107.9
			c1.8,0,3.3-1.5,3.3-3.3v-48.4C161.2,105.7,159.7,104.2,157.9,104.2z M124.9,110.8h11v15.4h-11V110.8z M70.9,110.8h11v15.4h-11
			V110.8z M100.6,152.6H53.3v-41.8h11v18.7c0,1.8,1.5,3.3,3.3,3.3h17.6c1.8,0,3.3-1.5,3.3-3.3v-18.7h12.1V152.6z M154.6,152.6h-47.3
			v-41.8h11v18.7c0,1.8,1.5,3.3,3.3,3.3h17.6c1.8,0,3.3-1.5,3.3-3.3v-18.7h12.1V152.6z"/>
	</g>
</g>
</svg>
