<?xml version="1.0" encoding="utf-8"?>
<!-- Generator: Adobe Illustrator 23.0.3, SVG Export Plug-In . SVG Version: 6.00 Build 0)  -->
<svg version="1.1" id="Layer_1" xmlns="http://www.w3.org/2000/svg" xmlns:xlink="http://www.w3.org/1999/xlink" x="0px" y="0px"
	 viewBox="0 0 211.2 211.2" style="enable-background:new 0 0 211.2 211.2;" xml:space="preserve">
<style type="text/css">
	.st0{fill:#CCCCCB;}
	.st1{fill:#CEE7F0;}
	.st2{fill:#E93959;}
	.st3{fill:#1FB573;}
	.st4{fill:#FFFFFF;}
	.st5{fill:#2D3D47;}
	.st6{fill:#47C4E0;}
	.st7{fill:#2C3E48;}
</style>
<path class="st0" d="M131.9,206.1c-2.4,0-4.8-0.1-7.2-0.3c-0.5-0.1-1-0.5-0.9-1.1c0.1-0.5,0.5-1,1.1-0.9c3.9,0.4,7.9,0.4,11.8,0.2
	c0.6,0,1,0.4,1.1,0.9c0,0.6-0.4,1-0.9,1.1C135.2,206.1,133.5,206.1,131.9,206.1z M148.6,204.3c-0.5,0-0.9-0.3-1-0.8s0.2-1.1,0.8-1.2
	c3.8-0.8,7.7-2,11.3-3.4c0.5-0.2,1.1,0.1,1.3,0.6s-0.1,1.1-0.6,1.3c-3.8,1.5-7.7,2.6-11.6,3.5C148.8,204.3,148.7,204.3,148.6,204.3z
	 M112.9,203.8c-0.1,0-0.2,0-0.2,0c-3.9-1-7.8-2.3-11.5-3.8c-0.5-0.2-0.8-0.8-0.5-1.3s0.8-0.7,1.3-0.5c3.6,1.5,7.4,2.8,11.2,3.7
	c0.5,0.1,0.9,0.7,0.7,1.2C113.8,203.5,113.4,203.8,112.9,203.8z M170.9,195.7c-0.3,0-0.7-0.2-0.9-0.5c-0.3-0.5-0.1-1.1,0.4-1.4
	c0.8-0.5,1.6-0.9,2.4-1.4c2.6-1.6,5-3.4,7.4-5.2c0.4-0.3,1.1-0.3,1.4,0.2s0.3,1.1-0.2,1.4c-2.4,1.9-4.9,3.7-7.6,5.4
	c-0.8,0.5-1.6,1-2.5,1.5C171.3,195.6,171.1,195.7,170.9,195.7z M90.9,194.6c-0.2,0-0.4,0-0.5-0.1c-3.5-2.1-6.8-4.5-9.8-7.1
	c-0.4-0.4-0.5-1-0.1-1.4s1-0.5,1.4-0.1c3,2.5,6.2,4.9,9.6,6.9c0.5,0.3,0.6,0.9,0.3,1.4C91.6,194.4,91.2,194.6,90.9,194.6z
	 M189.6,180.7c-0.2,0-0.5-0.1-0.7-0.3c-0.4-0.4-0.4-1-0.1-1.4c2.7-2.9,5.1-6,7.3-9.3c0.3-0.5,0.9-0.6,1.4-0.3s0.6,0.9,0.3,1.4
	c-2.2,3.4-4.8,6.6-7.5,9.5C190.1,180.6,189.8,180.7,189.6,180.7z M72.7,179.1c-0.3,0-0.6-0.1-0.8-0.3c-2.6-3-5.1-6.3-7.2-9.8
	c0,0,0-0.1-0.1-0.1c0,0,0-0.1-0.1-0.1c-2.1-3.4-4-7.1-5.6-10.8c-0.2-0.5,0-1.1,0.5-1.3s1.1,0,1.3,0.5c1.6,3.6,3.4,7.1,5.5,10.5
	c0,0,0,0.1,0.1,0.1c0,0,0,0.1,0.1,0.1c2.1,3.3,4.5,6.5,7,9.5c0.4,0.4,0.3,1-0.1,1.4C73.1,179,72.9,179.1,72.7,179.1z M202.8,160.8
	c-0.1,0-0.3,0-0.4-0.1c-0.5-0.2-0.7-0.8-0.5-1.3c1.7-3.6,3.1-7.3,4.2-11.1c0.2-0.5,0.7-0.8,1.2-0.7c0.5,0.2,0.8,0.7,0.7,1.2
	c-1.1,3.9-2.6,7.7-4.3,11.4C203.6,160.6,203.2,160.8,202.8,160.8z M56,147.3c-0.4,0-0.9-0.3-1-0.8c-1-3.9-1.7-7.9-2.1-12
	c-0.1-0.5,0.3-1,0.9-1.1c0.6-0.1,1,0.3,1.1,0.9c0.4,3.9,1.1,7.8,2.1,11.7c0.1,0.5-0.2,1.1-0.7,1.2C56.1,147.3,56.1,147.3,56,147.3z
	 M209.5,137.9h-0.1c-0.5-0.1-0.9-0.6-0.9-1.1c0.4-3.3,0.7-6.7,0.7-10c0-0.6,0-1.2,0-1.8c0-0.6,0.4-1,1-1l0,0c0.5,0,1,0.4,1,1
	s0,1.2,0,1.8c0,3.4-0.2,6.9-0.7,10.3C210.4,137.5,210,137.9,209.5,137.9z M53.6,123.6L53.6,123.6c-0.6,0-1-0.5-1-1.1
	c0.2-4,0.8-8.1,1.6-12c0.1-0.5,0.6-0.9,1.2-0.8c0.5,0.1,0.9,0.6,0.8,1.2c-0.8,3.9-1.3,7.8-1.5,11.7
	C54.6,123.1,54.1,123.6,53.6,123.6z M208.9,114c-0.5,0-0.9-0.3-1-0.8c-0.7-3.9-1.7-7.7-3-11.5c-0.2-0.5,0.1-1.1,0.6-1.3
	c0.5-0.2,1.1,0.1,1.3,0.6c1.3,3.8,2.3,7.8,3.1,11.8c0.1,0.5-0.3,1.1-0.8,1.2C209.1,114,209,114,208.9,114z M58.5,100.2
	c-0.1,0-0.2,0-0.4-0.1c-0.5-0.2-0.8-0.8-0.6-1.3c1.4-3.8,3.1-7.5,5.1-11c0.3-0.5,0.9-0.7,1.4-0.4c0.5,0.3,0.7,0.9,0.4,1.4
	c-1.9,3.4-3.6,7-5,10.7C59.3,99.9,58.9,100.2,58.5,100.2z M201.2,91.4c-0.4,0-0.7-0.2-0.9-0.5c-0.9-1.7-1.9-3.4-2.9-5
	c-1.1-1.7-2.2-3.4-3.4-5c-0.3-0.4-0.2-1.1,0.2-1.4s1.1-0.2,1.4,0.2c1.2,1.6,2.4,3.4,3.5,5.1c1,1.7,2,3.4,3,5.2
	c0.3,0.5,0.1,1.1-0.4,1.4C201.5,91.3,201.3,91.4,201.2,91.4z M70.3,79.3c-0.2,0-0.4-0.1-0.6-0.2c-0.4-0.3-0.5-1-0.2-1.4
	c2.5-3.2,5.3-6.2,8.2-8.9c0.4-0.4,1-0.4,1.4,0.1c0.4,0.4,0.4,1-0.1,1.4c-2.9,2.7-5.6,5.6-8,8.7C70.9,79.2,70.6,79.3,70.3,79.3z
	 M187,72.1c-0.3,0-0.5-0.1-0.7-0.3c-2.8-2.8-5.8-5.4-9-7.7c-0.4-0.3-0.5-0.9-0.2-1.4c0.3-0.4,1-0.5,1.4-0.2c3.3,2.4,6.4,5,9.2,7.9
	c0.4,0.4,0.4,1,0,1.4C187.5,72.1,187.2,72.1,187,72.1z M87.8,63c-0.3,0-0.6-0.2-0.8-0.4c-0.3-0.5-0.2-1.1,0.3-1.4
	c0.8-0.6,1.7-1.1,2.6-1.7c2.6-1.6,5.2-3.1,7.9-4.4c0.5-0.2,1.1,0,1.3,0.5c0.2,0.5,0,1.1-0.5,1.3c-2.6,1.3-5.2,2.7-7.7,4.3
	c-0.9,0.5-1.7,1.1-2.5,1.6C88.1,63,88,63,87.8,63z M167.6,58.1c-0.2,0-0.3,0-0.5-0.1c-3.5-1.8-7.2-3.3-10.9-4.6
	c-0.5-0.2-0.8-0.7-0.6-1.3c0.2-0.5,0.7-0.8,1.3-0.6c3.8,1.3,7.6,2.9,11.2,4.7c0.5,0.3,0.7,0.9,0.4,1.3
	C168.3,57.9,168,58.1,167.6,58.1z M109.3,52.7c-0.4,0-0.8-0.3-1-0.7c-0.2-0.5,0.1-1.1,0.7-1.2c3.9-1.2,7.9-2,11.9-2.6
	c0.5-0.1,1.1,0.3,1.1,0.9c0.1,0.5-0.3,1.1-0.9,1.1c-3.9,0.5-7.8,1.4-11.6,2.5C109.5,52.7,109.4,52.7,109.3,52.7z M145,50.6
	c-0.1,0-0.1,0-0.2,0c-3.9-0.7-7.8-1-11.8-1.1c-0.6,0-1-0.5-1-1c0-0.6,0.4-1,1-1c4,0.1,8.1,0.4,12.1,1.1c0.5,0.1,0.9,0.6,0.8,1.2
	C145.9,50.2,145.4,50.6,145,50.6z"/>
<path class="st1" d="M186.6,112.5l-79.2,79.2c-6.5,6.5-16.9,6.5-23.4,0L4.8,112.5c-6.5-6.5-6.5-16.9,0-23.4L84,9.9
	c6.5-6.5,16.9-6.5,23.4,0l79.2,79.2C193.1,95.5,193.1,106,186.6,112.5z"/>
<path class="st1" d="M53.6,187.9l-15.8,15.8c-2.9,2.9-7.5,2.9-10.3,0l-15.8-15.8c-2.9-2.9-2.9-7.5,0-10.3l15.8-15.8
	c2.9-2.9,7.5-2.9,10.3,0l15.8,15.8C56.5,180.4,56.5,185,53.6,187.9z"/>
<path class="st2" d="M156.5,37l-2.6,2.6c-1.1,1.1-3,1.1-4.1,0l-2.6-2.6c-1.1-1.1-1.1-3,0-4.1l2.6-2.6c1.1-1.1,3-1.1,4.1,0l2.6,2.6
	C157.6,34.1,157.6,35.9,156.5,37z"/>
<path class="st3" d="M67.8,196l-2.6,2.6c-1.1,1.1-3,1.1-4.1,0l-2.6-2.6c-1.1-1.1-1.1-3,0-4.1l2.6-2.6c1.1-1.1,3-1.1,4.1,0l2.6,2.6
	C68.9,193,68.9,194.9,67.8,196z"/>
<g>
	<g>
		<circle class="st4" cx="89.8" cy="71.9" r="26.5"/>
		<path class="st5" d="M89.8,101.6c-16.3,0-29.6-13.3-29.6-29.6s13.3-29.6,29.6-29.6s29.6,13.3,29.6,29.6S106.2,101.6,89.8,101.6z
			 M89.8,48.6c-12.9,0-23.3,10.5-23.3,23.3S77,95.3,89.8,95.3s23.3-10.5,23.3-23.3S102.7,48.6,89.8,48.6z"/>
	</g>
	<path class="st4" d="M89.8,112c0,0-52.7-1.8-60.7,34.7h60.7h60.7C142.5,110.2,89.8,112,89.8,112z"/>
	<path class="st5" d="M161.1,99.7c-1-1.3-2.9-1.5-4.1-0.5c-2.8,2.3-6.8,2.3-9.6,0c-1.9-1.5-4.2-2.5-6.6-2.8c1-2.5,1.2-5.2,0.6-7.8
		h9.6c1.6,0,2.9-1.3,2.9-2.9c0-1.6-1.3-2.9-2.9-2.9h-11.1l-1.5-5.8c-0.5-2.1-0.2-4.3,1-6.2c1.2-1.8,2.9-3,4.9-3.3
		c2.3-0.4,4.5,0.2,6.3,1.7c1.7,1.5,2.7,3.6,2.7,5.9c0,1.6,1.3,2.9,2.9,2.9s2.9-1.3,2.9-2.9c0-4-1.7-7.7-4.8-10.3
		c-3-2.6-7.1-3.7-11.1-3.1c-3.6,0.6-6.8,2.7-8.9,5.9c-2.1,3.2-2.8,7.2-1.8,10.9l1.1,4.3h-4.1c-1.6,0-2.9,1.3-2.9,2.9
		c0,1.6,1.3,2.9,2.9,2.9h5.6l0.3,1.1c0.8,3.2-0.5,6.5-3.3,8.4c-0.6,0.4-1.3,0.8-1.8,1.2c-1.2,1-1.4,2.6-0.6,3.9
		c0.9,1.4,2.7,1.7,4.1,0.8l1.4-1c2.7-1.4,6-1.1,8.4,0.8l0,0c2.5,2,5.5,3,8.5,3c3,0,6-1,8.5-3c0.6-0.5,1-1.2,1.1-2
		C161.8,101.1,161.6,100.3,161.1,99.7z"/>
	<polygon class="st6" points="89.8,141.6 74.7,113.7 103.3,112.8 	"/>
	<polygon class="st7" points="105.6,110.3 100.3,115.9 89.8,139.5 79.3,115.8 79.3,115.8 76.8,110.1 70.6,110.6 86.2,145.8 
		93.4,145.8 109.1,110.6 	"/>
	<path class="st5" d="M150.5,149.9H29.1c-1,0-1.9-0.4-2.5-1.2c-0.6-0.7-0.8-1.7-0.6-2.7c3.6-16.1,15.9-27.7,35.6-33.4
		c14-4,26.8-3.8,28.2-3.8c1.4,0,14.3-0.3,28.2,3.8c19.7,5.7,32,17.3,35.6,33.4c0.2,0.9,0,1.9-0.6,2.7
		C152.4,149.4,151.5,149.9,150.5,149.9z M33.3,143.5h113.1c-4-11.9-14.1-20.2-30.1-24.8c-13.5-3.9-26.2-3.5-26.3-3.5
		c-0.1,0-0.1,0-0.2,0l0,0c-0.1,0-13-0.4-26.5,3.6C47.4,123.4,37.3,131.7,33.3,143.5z"/>
</g>
</svg>
