<?xml version="1.0" encoding="utf-8"?>
<!-- Generator: Adobe Illustrator 23.0.3, SVG Export Plug-In . SVG Version: 6.00 Build 0)  -->
<svg version="1.1" id="Layer_1" xmlns="http://www.w3.org/2000/svg" xmlns:xlink="http://www.w3.org/1999/xlink" x="0px" y="0px"
	 viewBox="0 0 211.2 211.2" style="enable-background:new 0 0 211.2 211.2;" xml:space="preserve">
<style type="text/css">
	.st0{fill:#CCCCCB;}
	.st1{fill:#CEE7F0;}
	.st2{fill:#FFFFFF;}
	.st3{fill:#45C5E1;}
	.st4{fill:#2D3D47;}
	.st5{fill:#E93959;}
	.st6{fill:#1FB573;}
</style>
<path class="st0" d="M131.9,206.1c-2.4,0-4.8-0.1-7.2-0.3c-0.5-0.1-1-0.5-0.9-1.1c0.1-0.5,0.5-1,1.1-0.9c3.9,0.4,7.9,0.4,11.8,0.2
	c0.6,0,1,0.4,1.1,0.9c0,0.6-0.4,1-0.9,1.1C135.2,206.1,133.5,206.1,131.9,206.1z M148.6,204.3c-0.5,0-0.9-0.3-1-0.8
	c-0.1-0.5,0.2-1.1,0.8-1.2c3.8-0.8,7.7-2,11.3-3.4c0.5-0.2,1.1,0.1,1.3,0.6c0.2,0.5-0.1,1.1-0.6,1.3c-3.8,1.5-7.7,2.6-11.6,3.5
	C148.8,204.3,148.7,204.3,148.6,204.3z M112.9,203.8c-0.1,0-0.2,0-0.2,0c-3.9-1-7.8-2.3-11.5-3.8c-0.5-0.2-0.8-0.8-0.5-1.3
	s0.8-0.7,1.3-0.5c3.6,1.5,7.4,2.8,11.2,3.7c0.5,0.1,0.9,0.7,0.7,1.2C113.8,203.5,113.4,203.8,112.9,203.8z M170.9,195.7
	c-0.3,0-0.7-0.2-0.9-0.5c-0.3-0.5-0.1-1.1,0.4-1.4c0.8-0.5,1.6-0.9,2.4-1.4c2.6-1.6,5-3.4,7.4-5.2c0.4-0.3,1.1-0.3,1.4,0.2
	s0.3,1.1-0.2,1.4c-2.4,1.9-4.9,3.7-7.6,5.4c-0.8,0.5-1.6,1-2.5,1.5C171.3,195.6,171.1,195.7,170.9,195.7z M90.9,194.6
	c-0.2,0-0.4,0-0.5-0.1c-3.5-2.1-6.8-4.5-9.8-7.1c-0.4-0.4-0.5-1-0.1-1.4c0.4-0.4,1-0.5,1.4-0.1c3,2.5,6.2,4.9,9.6,6.9
	c0.5,0.3,0.6,0.9,0.3,1.4C91.6,194.4,91.2,194.6,90.9,194.6z M189.6,180.7c-0.2,0-0.5-0.1-0.7-0.3c-0.4-0.4-0.4-1-0.1-1.4
	c2.7-2.9,5.1-6,7.3-9.3c0.3-0.5,0.9-0.6,1.4-0.3s0.6,0.9,0.3,1.4c-2.2,3.4-4.8,6.6-7.5,9.5C190.1,180.6,189.8,180.7,189.6,180.7z
	 M72.7,179.1c-0.3,0-0.6-0.1-0.8-0.3c-2.6-3-5.1-6.3-7.2-9.8c0,0,0-0.1-0.1-0.1c0,0,0-0.1-0.1-0.1c-2.1-3.4-4-7.1-5.6-10.8
	c-0.2-0.5,0-1.1,0.5-1.3c0.5-0.2,1.1,0,1.3,0.5c1.6,3.6,3.4,7.1,5.5,10.5c0,0,0,0.1,0.1,0.1c0,0,0,0.1,0.1,0.1
	c2.1,3.3,4.5,6.5,7,9.5c0.4,0.4,0.3,1-0.1,1.4C73.1,179,72.9,179.1,72.7,179.1z M202.8,160.8c-0.1,0-0.3,0-0.4-0.1
	c-0.5-0.2-0.7-0.8-0.5-1.3c1.7-3.6,3.1-7.3,4.2-11.1c0.2-0.5,0.7-0.8,1.2-0.7c0.5,0.2,0.8,0.7,0.7,1.2c-1.1,3.9-2.6,7.7-4.3,11.4
	C203.6,160.6,203.2,160.8,202.8,160.8z M56,147.3c-0.4,0-0.9-0.3-1-0.8c-1-3.9-1.7-7.9-2.1-12c-0.1-0.5,0.3-1,0.9-1.1
	c0.6-0.1,1,0.3,1.1,0.9c0.4,3.9,1.1,7.8,2.1,11.7c0.1,0.5-0.2,1.1-0.7,1.2C56.1,147.3,56.1,147.3,56,147.3z M209.5,137.9
	c0,0-0.1,0-0.1,0c-0.5-0.1-0.9-0.6-0.9-1.1c0.4-3.3,0.7-6.7,0.7-10c0-0.6,0-1.2,0-1.8c0-0.6,0.4-1,1-1c0,0,0,0,0,0c0.5,0,1,0.4,1,1
	c0,0.6,0,1.2,0,1.8c0,3.4-0.2,6.9-0.7,10.3C210.4,137.5,210,137.9,209.5,137.9z M53.6,123.6C53.6,123.6,53.6,123.6,53.6,123.6
	c-0.6,0-1-0.5-1-1.1c0.2-4,0.8-8.1,1.6-12c0.1-0.5,0.6-0.9,1.2-0.8c0.5,0.1,0.9,0.6,0.8,1.2c-0.8,3.9-1.3,7.8-1.5,11.7
	C54.6,123.1,54.1,123.6,53.6,123.6z M208.9,114c-0.5,0-0.9-0.3-1-0.8c-0.7-3.9-1.7-7.7-3-11.5c-0.2-0.5,0.1-1.1,0.6-1.3
	c0.5-0.2,1.1,0.1,1.3,0.6c1.3,3.8,2.3,7.8,3.1,11.8c0.1,0.5-0.3,1.1-0.8,1.2C209.1,114,209,114,208.9,114z M58.5,100.2
	c-0.1,0-0.2,0-0.4-0.1c-0.5-0.2-0.8-0.8-0.6-1.3c1.4-3.8,3.1-7.5,5.1-11c0.3-0.5,0.9-0.7,1.4-0.4c0.5,0.3,0.7,0.9,0.4,1.4
	c-1.9,3.4-3.6,7-5,10.7C59.3,99.9,58.9,100.2,58.5,100.2z M201.2,91.4c-0.4,0-0.7-0.2-0.9-0.5c-0.9-1.7-1.9-3.4-2.9-5
	c-1.1-1.7-2.2-3.4-3.4-5c-0.3-0.4-0.2-1.1,0.2-1.4s1.1-0.2,1.4,0.2c1.2,1.6,2.4,3.4,3.5,5.1c1,1.7,2,3.4,3,5.2
	c0.3,0.5,0.1,1.1-0.4,1.4C201.5,91.3,201.3,91.4,201.2,91.4z M70.3,79.3c-0.2,0-0.4-0.1-0.6-0.2c-0.4-0.3-0.5-1-0.2-1.4
	c2.5-3.2,5.3-6.2,8.2-8.9c0.4-0.4,1-0.4,1.4,0.1c0.4,0.4,0.4,1-0.1,1.4c-2.9,2.7-5.6,5.6-8,8.7C70.9,79.2,70.6,79.3,70.3,79.3z
	 M187,72.1c-0.3,0-0.5-0.1-0.7-0.3c-2.8-2.8-5.8-5.4-9-7.7c-0.4-0.3-0.5-0.9-0.2-1.4c0.3-0.4,1-0.5,1.4-0.2c3.3,2.4,6.4,5,9.2,7.9
	c0.4,0.4,0.4,1,0,1.4C187.5,72.1,187.2,72.1,187,72.1z M87.8,63c-0.3,0-0.6-0.2-0.8-0.4c-0.3-0.5-0.2-1.1,0.3-1.4
	c0.8-0.6,1.7-1.1,2.6-1.7c2.6-1.6,5.2-3.1,7.9-4.4c0.5-0.2,1.1,0,1.3,0.5c0.2,0.5,0,1.1-0.5,1.3c-2.6,1.3-5.2,2.7-7.7,4.3
	c-0.9,0.5-1.7,1.1-2.5,1.6C88.1,63,88,63,87.8,63z M167.6,58.1c-0.2,0-0.3,0-0.5-0.1c-3.5-1.8-7.2-3.3-10.9-4.6
	c-0.5-0.2-0.8-0.7-0.6-1.3c0.2-0.5,0.7-0.8,1.3-0.6c3.8,1.3,7.6,2.9,11.2,4.7c0.5,0.3,0.7,0.9,0.4,1.3
	C168.3,57.9,168,58.1,167.6,58.1z M109.3,52.7c-0.4,0-0.8-0.3-1-0.7c-0.2-0.5,0.1-1.1,0.7-1.2c3.9-1.2,7.9-2,11.9-2.6
	c0.5-0.1,1.1,0.3,1.1,0.9c0.1,0.5-0.3,1.1-0.9,1.1c-3.9,0.5-7.8,1.4-11.6,2.5C109.5,52.7,109.4,52.7,109.3,52.7z M145,50.6
	c-0.1,0-0.1,0-0.2,0c-3.9-0.7-7.8-1-11.8-1.1c-0.6,0-1-0.5-1-1c0-0.6,0.4-1,1-1c4,0.1,8.1,0.4,12.1,1.1c0.5,0.1,0.9,0.6,0.8,1.2
	C145.9,50.2,145.4,50.6,145,50.6z"/>
<path class="st1" d="M186.6,112.5l-79.2,79.2c-6.5,6.5-16.9,6.5-23.4,0L4.8,112.5c-6.5-6.5-6.5-16.9,0-23.4L84,9.9
	c6.5-6.5,16.9-6.5,23.4,0l79.2,79.2C193.1,95.5,193.1,106,186.6,112.5z"/>
<circle class="st2" cx="93.4" cy="92.3" r="44.8"/>
<polygon class="st3" points="68.2,76.2 70.7,108.4 85.5,117.3 112.1,116 117.4,103.8 117.4,77.7 104.7,76.2 101.4,64.6 89.6,61.4 
	82.7,70.6 80.7,77.2 "/>
<path class="st4" d="M173.6,155.1l-19.9-19.9c-3.9-3.9-9.7-4.6-14.3-2.4l-6.8-6.8c7.8-9.1,12.5-20.9,12.5-33.7
	c0-28.6-23.3-51.8-51.8-51.8S41.5,63.8,41.5,92.3s23.3,51.8,51.8,51.8c12.9,0,24.6-4.7,33.7-12.5l6.8,6.8
	c-2.3,4.6-1.5,10.4,2.3,14.3l19.9,19.9c4.9,4.9,12.7,4.9,17.6,0C178.5,167.8,178.5,159.9,173.6,155.1L173.6,155.1z M93.4,136.2
	c-24.2,0-43.9-19.7-43.9-43.9s19.7-43.9,43.9-43.9s43.9,19.7,43.9,43.9S117.6,136.2,93.4,136.2z M168,167c-1.7,1.7-4.6,1.7-6.3,0
	l-19.9-19.9c-1.7-1.7-1.7-4.6,0-6.3c1.7-1.7,4.6-1.7,6.3,0l19.9,19.9C169.8,162.4,169.8,165.3,168,167z"/>
<path class="st4" d="M117.4,72.6h-8c0-8.8-7.1-15.9-15.9-15.9s-15.9,7.1-15.9,15.9h-8c-2.2,0-4,1.8-4,4v29.2c0,8,6.5,14.6,14.6,14.6
	h26.5c8,0,14.6-6.5,14.6-14.6V76.6C121.3,74.4,119.6,72.6,117.4,72.6z M93.5,64.6c4.4,0,8,3.6,8,8H85.5
	C85.5,68.2,89.1,64.6,93.5,64.6z M113.4,105.7c0,3.7-3,6.6-6.6,6.6H80.2c-3.7,0-6.6-3-6.6-6.6V80.5h4c0,2.2,1.8,4,4,4s4-1.8,4-4
	h15.9c0,2.2,1.8,4,4,4s4-1.8,4-4h4V105.7z"/>
<path class="st1" d="M53.6,187.9l-15.8,15.8c-2.9,2.9-7.5,2.9-10.3,0l-15.8-15.8c-2.9-2.9-2.9-7.5,0-10.3l15.8-15.8
	c2.9-2.9,7.5-2.9,10.3,0l15.8,15.8C56.5,180.4,56.5,185,53.6,187.9z"/>
<path class="st5" d="M156.5,37l-2.6,2.6c-1.1,1.1-3,1.1-4.1,0l-2.6-2.6c-1.1-1.1-1.1-3,0-4.1l2.6-2.6c1.1-1.1,3-1.1,4.1,0l2.6,2.6
	C157.6,34.1,157.6,35.9,156.5,37z"/>
<path class="st6" d="M67.8,196l-2.6,2.6c-1.1,1.1-3,1.1-4.1,0l-2.6-2.6c-1.1-1.1-1.1-3,0-4.1l2.6-2.6c1.1-1.1,3-1.1,4.1,0l2.6,2.6
	C68.9,193,68.9,194.9,67.8,196z"/>
</svg>
