<?xml version="1.0" encoding="utf-8"?>
<!-- Generator: Adobe Illustrator 23.0.3, SVG Export Plug-In . SVG Version: 6.00 Build 0)  -->
<svg version="1.1" id="Layer_1" xmlns="http://www.w3.org/2000/svg" xmlns:xlink="http://www.w3.org/1999/xlink" x="0px" y="0px"
	 viewBox="0 0 211.2 211.2" style="enable-background:new 0 0 211.2 211.2;" xml:space="preserve">
<style type="text/css">
	.st0{fill:#CCCCCB;}
	.st1{fill:#CEE7F0;}
	.st2{fill:#E93959;}
	.st3{fill:#1FB573;}
	.st4{fill:#FFFFFF;}
	.st5{fill:#45C5E1;}
	.st6{fill-rule:evenodd;clip-rule:evenodd;fill:#2D3D47;}
</style>
<path class="st0" d="M40.1,125.5c-1.3-2-2.6-4.1-3.7-6.2c-0.2-0.5-0.1-1.1,0.4-1.4c0.5-0.2,1.1-0.1,1.4,0.4c1.8,3.5,4,6.8,6.3,10
	c0.3,0.5,0.2,1.1-0.1,1.4c-0.5,0.3-1.1,0.2-1.4-0.1C41.9,128.2,41,126.8,40.1,125.5z M50.8,138.4c-0.3-0.4-0.2-0.9,0.1-1.3
	c0.4-0.4,1-0.4,1.4,0c2.8,2.7,5.9,5.3,9.1,7.6c0.4,0.3,0.5,1,0.2,1.4s-1,0.5-1.4,0.2c-3.3-2.3-6.4-5-9.3-7.8
	C50.9,138.6,50.8,138.5,50.8,138.4z M31.5,108.4c-0.1-0.1-0.1-0.2-0.1-0.2c-1.3-3.8-2.4-7.8-3.2-11.7c-0.1-0.5,0.2-1.1,0.8-1.1
	c0.6,0,1,0.3,1.1,0.8c0.7,3.8,1.7,7.7,3.1,11.4c0.2,0.5-0.1,1.1-0.6,1.2C32.3,109,31.8,108.8,31.5,108.4z M70.2,152.3
	c-0.2-0.3-0.2-0.7-0.1-1c0.3-0.5,0.9-0.7,1.4-0.4c0.9,0.4,1.6,0.8,2.5,1.2c2.8,1.3,5.6,2.3,8.4,3.3c0.5,0.2,0.9,0.8,0.6,1.3
	s-0.8,0.9-1.3,0.6c-2.9-1-5.8-2.1-8.7-3.4c-0.9-0.4-1.7-0.8-2.6-1.3C70.5,152.6,70.3,152.5,70.2,152.3z M27.1,84.9
	c-0.1-0.2-0.2-0.3-0.2-0.5c-0.2-4.1,0-8.2,0.5-12.1c0.1-0.6,0.6-1,1.1-0.9c0.6,0.1,1,0.6,0.9,1.1c-0.4,3.9-0.7,7.9-0.5,11.8
	c0,0.6-0.4,1-1,1C27.6,85.4,27.2,85.2,27.1,84.9z M93.1,159.6c-0.1-0.2-0.2-0.5-0.1-0.7c0.1-0.6,0.6-0.9,1.1-0.9
	c3.9,0.7,7.8,0.9,11.8,1c0.6,0,1,0.4,1,1s-0.4,1-1,1c-4,0-8.2-0.4-12.1-1C93.4,160,93.2,159.8,93.1,159.6z M30,61.2
	c-0.2-0.3-0.2-0.6-0.2-0.8c1.1-3.8,2.4-7.7,4.2-11.4c0,0,0.1-0.1,0-0.1c0,0,0.1-0.1,0-0.1c1.7-3.6,3.7-7.3,5.9-10.6
	c0.3-0.4,0.9-0.6,1.4-0.3c0.4,0.3,0.6,0.9,0.3,1.4c-2.1,3.3-4.1,6.7-5.7,10.4c0,0-0.1,0.1,0,0.1c0,0-0.1,0.1,0,0.1
	c-1.6,3.6-2.9,7.3-4.1,11.1c-0.1,0.6-0.7,0.8-1.2,0.7C30.3,61.5,30.1,61.4,30,61.2z M116.9,159.7c-0.1-0.1-0.2-0.3-0.1-0.4
	c-0.1-0.5,0.3-1,0.8-1.1c3.9-0.6,7.8-1.4,11.6-2.6c0.5-0.1,1.1,0.1,1.2,0.6c0.1,0.5-0.1,1.1-0.6,1.2c-3.9,1.2-7.9,2.1-11.9,2.7
	C117.5,160.3,117.2,160,116.9,159.7z M47.3,29.8c-0.2-0.3-0.2-0.9,0.1-1.3c2.7-3,5.7-5.8,8.9-8.4c0.4-0.4,1-0.3,1.4,0.1
	s0.3,1-0.1,1.4c-3,2.5-5.9,5.2-8.6,8.2c-0.4,0.4-1,0.4-1.4,0.1C47.4,29.8,47.4,29.8,47.3,29.8z M139.7,152.7L139.7,152.7
	c-0.2-0.6-0.1-1.2,0.4-1.4c3-1.5,6-3.1,8.7-4.9c0.5-0.3,1-0.7,1.5-1s1.1-0.2,1.4,0.3l0,0c0.3,0.4,0.2,1.1-0.3,1.4
	c-0.5,0.3-1,0.7-1.5,1c-2.8,1.9-5.9,3.6-9,5.1C140.6,153.2,140,153.1,139.7,152.7z M65.8,14.7L65.8,14.7c-0.3-0.5-0.1-1.1,0.4-1.4
	c3.4-2,7.2-3.8,10.9-5.3c0.5-0.2,1.1,0,1.3,0.6c0.2,0.5,0,1.1-0.6,1.3c-3.7,1.5-7.2,3.2-10.6,5.2C66.7,15.3,66,15.1,65.8,14.7z
	 M159.4,139c-0.3-0.4-0.2-0.9,0.1-1.3c2.9-2.7,5.5-5.7,7.9-8.8c0.3-0.4,1-0.5,1.4-0.2s0.5,1,0.2,1.4c-2.5,3.2-5.2,6.2-8.1,9.1
	c-0.4,0.4-1.1,0.4-1.4,0C159.5,139.2,159.4,139.1,159.4,139z M88,5.9c-0.1-0.1-0.1-0.2-0.1-0.4c-0.1-0.5,0.2-1.1,0.8-1.2
	c3.9-0.9,8-1.5,12-1.8c0.6,0,1.1,0.4,1.1,0.9c0,0.6-0.4,1.1-0.9,1.1C97,4.8,93.1,5.4,89.2,6.2C88.7,6.4,88.2,6.2,88,5.9z M174,120.1
	c-0.2-0.3-0.2-0.7-0.1-1c0.9-1.7,1.8-3.5,2.6-5.2c0.8-1.9,1.6-3.7,2.3-5.6c0.2-0.5,0.8-0.8,1.3-0.6s0.8,0.8,0.6,1.3
	c-0.7,1.9-1.5,3.9-2.3,5.7c-0.9,1.8-1.7,3.5-2.7,5.4c-0.3,0.5-0.9,0.7-1.4,0.4C174.2,120.3,174,120.2,174,120.1z M111.9,4.2
	c-0.1-0.2-0.1-0.4-0.2-0.6c0-0.5,0.6-1,1.1-0.9c4,0.3,8.1,1,11.9,1.9c0.6,0.1,0.9,0.6,0.7,1.2c-0.1,0.6-0.6,0.9-1.2,0.7
	c-3.9-0.9-7.8-1.6-11.7-1.9C112.4,4.7,112.1,4.5,111.9,4.2z M182.3,97.6c-0.2-0.3-0.2-0.5-0.1-0.7c0.8-3.9,1.3-7.8,1.5-11.8
	c0-0.5,0.5-0.9,1.1-0.9c0.5,0,1,0.6,0.9,1.1c-0.2,4.1-0.6,8.1-1.5,12c-0.1,0.6-0.6,0.9-1.2,0.8C182.5,98.1,182.4,97.8,182.3,97.6z
	 M135.2,9.8c-0.2-0.3-0.2-0.6-0.1-0.9c0.3-0.5,0.8-0.8,1.3-0.5c0.9,0.3,1.9,0.8,2.9,1.2c2.8,1.3,5.5,2.6,8,4.2
	c0.4,0.3,0.6,0.9,0.3,1.4c-0.3,0.4-0.9,0.6-1.4,0.3c-2.5-1.5-5.1-2.9-7.8-4.1c-0.9-0.5-1.9-0.8-2.7-1.2
	C135.4,10.1,135.3,10,135.2,9.8z M183.2,73.7c-0.1-0.2-0.2-0.3-0.2-0.5c-0.4-3.9-1.2-7.8-2.2-11.6c-0.1-0.5,0.1-1.1,0.8-1.2
	c0.5-0.1,1.1,0.1,1.2,0.8c1,3.9,1.8,7.9,2.2,11.9c0,0.6-0.4,1.1-0.9,1.1C183.8,74.2,183.5,74.1,183.2,73.7z M155.6,22.1
	c-0.2-0.3-0.2-0.8,0-1.2c0.3-0.4,1-0.5,1.4-0.1c3.2,2.6,6,5.5,8.7,8.5c0.4,0.4,0.4,1.1-0.1,1.4c-0.4,0.4-1.1,0.4-1.4-0.1
	c-2.6-3-5.5-5.7-8.5-8.3C155.7,22.3,155.7,22.2,155.6,22.1z M177.1,50.7c-0.1-0.1-0.1-0.1-0.1-0.2c-1.6-3.6-3.5-7.1-5.6-10.5
	c-0.3-0.5-0.1-1.1,0.3-1.4c0.5-0.3,1.1-0.2,1.4,0.3c2.1,3.4,4.1,7,5.7,10.7c0.2,0.5,0,1.1-0.6,1.3C177.9,51.3,177.3,51.1,177.1,50.7
	z"/>
<path class="st1" d="M196.5,115.6l-79.2,79.2c-6.5,6.5-16.9,6.5-23.4,0l-79.2-79.2c-6.5-6.5-6.5-16.9,0-23.4L93.9,13
	c6.5-6.5,16.9-6.5,23.4,0l79.2,79.2C203,98.6,203,109.1,196.5,115.6z"/>
<path class="st1" d="M65.6,190.4l-15.8,15.8c-2.9,2.9-7.5,2.9-10.3,0l-15.8-15.8c-2.9-2.9-2.9-7.5,0-10.3l15.8-15.8
	c2.9-2.9,7.5-2.9,10.3,0l15.8,15.8C68.5,182.9,68.5,187.5,65.6,190.4z"/>
<path class="st2" d="M200.6,65.8l-2.6,2.6c-1.1,1.1-3,1.1-4.1,0l-2.6-2.6c-1.1-1.1-1.1-3,0-4.1l2.6-2.6c1.1-1.1,3-1.1,4.1,0l2.6,2.6
	C201.7,62.9,201.7,64.7,200.6,65.8z"/>
<path class="st3" d="M27.3,149.8l-2.6,2.6c-1.1,1.1-3,1.1-4.1,0l-2.6-2.6c-1.1-1.1-1.1-3,0-4.1l2.6-2.6c1.1-1.1,3-1.1,4.1,0l2.6,2.6
	C28.4,146.8,28.4,148.7,27.3,149.8z"/>
<path class="st1" d="M197.9,160.4l-9.2,9.2c-1.7,1.7-4.4,1.7-6,0l-9.2-9.2c-1.7-1.7-1.7-4.4,0-6l9.2-9.2c1.7-1.7,4.4-1.7,6,0
	l9.2,9.2C199.6,156,199.6,158.7,197.9,160.4z"/>
<g>
	<path class="st4" d="M57.2,74.3l19.9,52l44.3-3l23-14.2c0,0,1.9-6.9,1.5-6.7s-26.3-9.7-26.3-9.7l-9.1-12.3L57.2,74.3z"/>
	<circle class="st5" cx="43.8" cy="64.1" r="4.8"/>
	<circle class="st2" cx="88.1" cy="157.9" r="4.8"/>
	<circle class="st2" cx="135.3" cy="157.9" r="4.8"/>
	<circle class="st4" cx="138.5" cy="78.7" r="23.7"/>
	<path class="st6" d="M111.4,85.8l-20.7-3l3.9,13.6l20,0.6l-0.9-5.2C112.8,89.8,112,87.8,111.4,85.8z M135.3,147.8
		c5.6,0,10.1,4.5,10.1,10.1c0,5.6-4.5,10.1-10.1,10.1c-5.6,0-10.1-4.5-10.1-10.1C125.1,152.3,129.7,147.8,135.3,147.8z M136.8,156.3
		c-1.3-1.3-3.7-0.4-3.7,1.5c0,1.9,2.3,2.9,3.7,1.5C137.6,158.5,137.6,157.2,136.8,156.3z M88.1,147.8c5.6,0,10.1,4.5,10.1,10.1
		c0,5.6-4.5,10.1-10.1,10.1c-5.6,0-10.1-4.5-10.1-10.1C78,152.3,82.5,147.8,88.1,147.8z M89.6,156.3c-1.3-1.3-3.7-0.4-3.7,1.5
		c0,1.9,2.3,2.9,3.7,1.5C90.4,158.5,90.4,157.2,89.6,156.3z M123.7,102.2l2.6,14.9c6.3-1.7,11.6-5.6,15.1-10.8
		C135,106.9,128.9,105.4,123.7,102.2z M151.8,103.1c-4.3,12.1-15,20.9-27.9,22.5l-42.3,5.5c-2.1,0.5-3.2,3-2,5
		c0.7,1.1,1.7,1.6,3,1.6h62.4c2.2,0,4,1.8,4,4c0,2.2-1.8,4-4,4H82.5c-8.3,0-13.9-8.6-10.3-16.1c0.5-1,1.1-1.9,1.7-2.7L53.4,76.3
		l-5-3.6c-4.4,2.4-9.9,1-12.7-3.2c-3-4.5-1.8-10.6,2.7-13.6c4.5-3,10.6-1.8,13.6,2.7c1.5,2.2,2.1,5.1,1.4,7.8l4.9,3.5l52.3,7.6
		c0.4-15.1,12.8-27.3,28-27.3c7.7,0,14.8,3.1,19.8,8.2l4.7-4.7c1.6-1.6,4.1-1.6,5.6,0c1.6,1.6,1.6,4.1,0,5.6l-5.6,5.6
		C170.6,78.6,165.5,95.7,151.8,103.1z M126.8,79.8c-1.6-1.6-1.6-4.1,0-5.6c1.6-1.6,4.1-1.6,5.6,0l5.1,5.1l15.1-15.1
		c-7.7-7.9-20.7-7.7-28.4,0c-7.8,7.8-7.8,20.6,0,28.4c7.8,7.8,20.6,7.8,28.4,0c5.8-5.8,7.3-14.4,4.5-21.6l-16.8,16.8
		c-1.6,1.6-4.1,1.6-5.6,0L126.8,79.8z M45.3,63c-0.9-1.3-3-1-3.4,0.7c-0.3,1.7,1.5,2.8,2.9,1.9C45.7,65,45.9,63.8,45.3,63z
		 M81,123.2c4.2-0.4,8.5-1.1,12.7-1.7l-5.1-17.5l-15.6-0.4L81,123.2z M97,104.3l4.7,16.2l16.7-2.2l-2.3-13.5L97,104.3z M69.8,95.6
		l16.5,0.5l-4.2-14.6l-19.2-2.8L69.8,95.6z"/>
</g>
</svg>
