<?xml version="1.0" encoding="utf-8"?>
<!-- Generator: Adobe Illustrator 23.0.3, SVG Export Plug-In . SVG Version: 6.00 Build 0)  -->
<svg version="1.1" id="Layer_1" xmlns="http://www.w3.org/2000/svg" xmlns:xlink="http://www.w3.org/1999/xlink" x="0px" y="0px"
	 viewBox="0 0 211.2 211.2" style="enable-background:new 0 0 211.2 211.2;" xml:space="preserve">
<style type="text/css">
	.st0{fill:#CCCCCB;}
	.st1{fill:#CEE7F0;}
	.st2{fill:#E93959;}
	.st3{fill:#1FB573;}
	.st4{fill:#FFFFFF;}
	.st5{fill:#45C5E1;}
	.st6{fill:#2D3D47;}
</style>
<path class="st0" d="M39.5,173.3c-1.3-2-2.6-4.1-3.7-6.2c-0.2-0.5-0.1-1.1,0.4-1.4c0.5-0.2,1.1-0.1,1.4,0.4c1.8,3.5,4,6.8,6.3,10
	c0.3,0.5,0.2,1.1-0.1,1.4c-0.5,0.3-1.1,0.2-1.4-0.1C41.3,176,40.4,174.6,39.5,173.3z M50.2,186.2c-0.3-0.4-0.2-0.9,0.1-1.3
	c0.4-0.4,1-0.4,1.4,0c2.8,2.7,5.9,5.3,9.1,7.6c0.4,0.3,0.5,1,0.2,1.4c-0.3,0.4-1,0.5-1.4,0.2c-3.3-2.3-6.4-5-9.3-7.8
	C50.3,186.4,50.2,186.3,50.2,186.2z M30.9,156.2c-0.1-0.1-0.1-0.2-0.1-0.2c-1.3-3.8-2.4-7.8-3.2-11.7c-0.1-0.5,0.2-1.1,0.8-1.1
	c0.6,0,1,0.3,1.1,0.8c0.7,3.8,1.7,7.7,3.1,11.4c0.2,0.5-0.1,1.1-0.6,1.2C31.7,156.8,31.2,156.6,30.9,156.2z M69.6,200.1
	c-0.2-0.3-0.2-0.7-0.1-1c0.3-0.5,0.9-0.7,1.4-0.4c0.9,0.4,1.6,0.8,2.5,1.2c2.8,1.3,5.6,2.3,8.4,3.3c0.5,0.2,0.9,0.8,0.6,1.3
	c-0.3,0.5-0.8,0.9-1.3,0.6c-2.9-1-5.8-2.1-8.7-3.4c-0.9-0.4-1.7-0.8-2.6-1.3C69.9,200.4,69.7,200.3,69.6,200.1z M26.5,132.7
	c-0.1-0.2-0.2-0.3-0.2-0.5c-0.2-4.1,0-8.2,0.5-12.1c0.1-0.6,0.6-1,1.1-0.9c0.6,0.1,1,0.6,0.9,1.1c-0.4,3.9-0.7,7.9-0.5,11.8
	c0,0.6-0.4,1-1,1C27,133.2,26.6,133,26.5,132.7z M92.5,207.4c-0.1-0.2-0.2-0.5-0.1-0.7c0.1-0.6,0.6-0.9,1.1-0.9
	c3.9,0.7,7.8,0.9,11.8,1c0.6,0,1,0.4,1,1c0,0.6-0.4,1-1,1c-4,0-8.2-0.4-12.1-1C92.8,207.8,92.6,207.6,92.5,207.4z M29.4,109
	c-0.2-0.3-0.2-0.6-0.2-0.8c1.1-3.8,2.4-7.7,4.2-11.4c0,0,0.1-0.1,0-0.1c0,0,0.1-0.1,0-0.1c1.7-3.6,3.7-7.3,5.9-10.6
	c0.3-0.4,0.9-0.6,1.4-0.3c0.4,0.3,0.6,0.9,0.3,1.4c-2.1,3.3-4.1,6.7-5.7,10.4c0,0-0.1,0.1,0,0.1c0,0-0.1,0.1,0,0.1
	c-1.6,3.6-2.9,7.3-4.1,11.1c-0.1,0.6-0.7,0.8-1.2,0.7C29.7,109.3,29.5,109.2,29.4,109z M116.3,207.5c-0.1-0.1-0.2-0.3-0.1-0.4
	c-0.1-0.5,0.3-1,0.8-1.1c3.9-0.6,7.8-1.4,11.6-2.6c0.5-0.1,1.1,0.1,1.2,0.6c0.1,0.5-0.1,1.1-0.6,1.2c-3.9,1.2-7.9,2.1-11.9,2.7
	C116.9,208.1,116.6,207.8,116.3,207.5z M46.7,77.6c-0.2-0.3-0.2-0.9,0.1-1.3c2.7-3,5.7-5.8,8.9-8.4c0.4-0.4,1-0.3,1.4,0.1
	c0.4,0.4,0.3,1-0.1,1.4c-3,2.5-5.9,5.2-8.6,8.2c-0.4,0.4-1,0.4-1.4,0.1C46.8,77.6,46.8,77.6,46.7,77.6z M139.1,200.5L139.1,200.5
	c-0.2-0.6-0.1-1.2,0.4-1.4c3-1.5,6-3.1,8.7-4.9c0.5-0.3,1-0.7,1.5-1c0.5-0.3,1.1-0.2,1.4,0.3l0,0c0.3,0.4,0.2,1.1-0.3,1.4
	c-0.5,0.3-1,0.7-1.5,1c-2.8,1.9-5.9,3.6-9,5.1C140,201,139.4,200.9,139.1,200.5z M65.2,62.5L65.2,62.5c-0.3-0.5-0.1-1.1,0.4-1.4
	c3.4-2,7.2-3.8,10.9-5.3c0.5-0.2,1.1,0,1.3,0.6c0.2,0.5,0,1.1-0.6,1.3c-3.7,1.5-7.2,3.2-10.6,5.2C66.1,63.1,65.4,62.9,65.2,62.5z
	 M158.8,186.8c-0.3-0.4-0.2-0.9,0.1-1.3c2.9-2.7,5.5-5.7,7.9-8.8c0.3-0.4,1-0.5,1.4-0.2c0.4,0.3,0.5,1,0.2,1.4
	c-2.5,3.2-5.2,6.2-8.1,9.1c-0.4,0.4-1.1,0.4-1.4,0C158.9,187,158.8,186.9,158.8,186.8z M87.4,53.7c-0.1-0.1-0.1-0.2-0.1-0.4
	c-0.1-0.5,0.2-1.1,0.8-1.2c3.9-0.9,8-1.5,12-1.8c0.6,0,1.1,0.4,1.1,0.9c0,0.6-0.4,1.1-0.9,1.1c-3.9,0.3-7.8,0.9-11.7,1.7
	C88.1,54.2,87.6,54,87.4,53.7z M173.4,167.9c-0.2-0.3-0.2-0.7-0.1-1c0.9-1.7,1.8-3.5,2.6-5.2c0.8-1.9,1.6-3.7,2.3-5.6
	c0.2-0.5,0.8-0.8,1.3-0.6c0.5,0.2,0.8,0.8,0.6,1.3c-0.7,1.9-1.5,3.9-2.3,5.7c-0.9,1.8-1.7,3.5-2.7,5.4c-0.3,0.5-0.9,0.7-1.4,0.4
	C173.6,168.1,173.4,168,173.4,167.9z M111.3,52c-0.1-0.2-0.1-0.4-0.2-0.6c0-0.5,0.6-1,1.1-0.9c4,0.3,8.1,1,11.9,1.9
	c0.6,0.1,0.9,0.6,0.7,1.2c-0.1,0.6-0.6,0.9-1.2,0.7c-3.9-0.9-7.8-1.6-11.7-1.9C111.8,52.5,111.5,52.3,111.3,52z M181.7,145.4
	c-0.2-0.3-0.2-0.5-0.1-0.7c0.8-3.9,1.3-7.8,1.5-11.8c0-0.5,0.5-0.9,1.1-0.9c0.5,0,1,0.6,0.9,1.1c-0.2,4.1-0.6,8.1-1.5,12
	c-0.1,0.6-0.6,0.9-1.2,0.8C181.9,145.9,181.8,145.6,181.7,145.4z M134.6,57.6c-0.2-0.3-0.2-0.6-0.1-0.9c0.3-0.5,0.8-0.8,1.3-0.5
	c0.9,0.3,1.9,0.8,2.9,1.2c2.8,1.3,5.5,2.6,8,4.2c0.4,0.3,0.6,0.9,0.3,1.4c-0.3,0.4-0.9,0.6-1.4,0.3c-2.5-1.5-5.1-2.9-7.8-4.1
	c-0.9-0.5-1.9-0.8-2.7-1.2C134.8,57.9,134.7,57.8,134.6,57.6z M182.6,121.5c-0.1-0.2-0.2-0.3-0.2-0.5c-0.4-3.9-1.2-7.8-2.2-11.6
	c-0.1-0.5,0.1-1.1,0.8-1.2c0.5-0.1,1.1,0.1,1.2,0.8c1,3.9,1.8,7.9,2.2,11.9c0,0.6-0.4,1.1-0.9,1.1
	C183.2,122,182.9,121.9,182.6,121.5z M155,69.9c-0.2-0.3-0.2-0.8,0-1.2c0.3-0.4,1-0.5,1.4-0.1c3.2,2.6,6,5.5,8.7,8.5
	c0.4,0.4,0.4,1.1-0.1,1.4c-0.4,0.4-1.1,0.4-1.4-0.1c-2.6-3-5.5-5.7-8.5-8.3C155.1,70.1,155.1,70,155,69.9z M176.5,98.5
	c-0.1-0.1-0.1-0.1-0.1-0.2c-1.6-3.6-3.5-7.1-5.6-10.5c-0.3-0.5-0.1-1.1,0.3-1.4c0.5-0.3,1.1-0.2,1.4,0.3c2.1,3.4,4.1,7,5.7,10.7
	c0.2,0.5,0,1.1-0.6,1.3C177.3,99.1,176.7,98.9,176.5,98.5z"/>
<path class="st1" d="M196.5,115.6l-79.2,79.2c-6.5,6.5-16.9,6.5-23.4,0l-79.2-79.2c-6.5-6.5-6.5-16.9,0-23.4L93.9,13
	c6.5-6.5,16.9-6.5,23.4,0l79.2,79.2C203,98.6,203,109.1,196.5,115.6z"/>
<path class="st1" d="M58.4,34.6L42.6,50.4c-2.9,2.9-7.5,2.9-10.3,0L16.5,34.6c-2.9-2.9-2.9-7.5,0-10.3L32.3,8.5
	c2.9-2.9,7.5-2.9,10.3,0l15.8,15.8C61.3,27.1,61.3,31.7,58.4,34.6z"/>
<path class="st2" d="M200.6,147.8l-2.6,2.6c-1.1,1.1-3,1.1-4.1,0l-2.6-2.6c-1.1-1.1-1.1-3,0-4.1l2.6-2.6c1.1-1.1,3-1.1,4.1,0
	l2.6,2.6C201.7,144.9,201.7,146.7,200.6,147.8z"/>
<path class="st3" d="M24.8,65.8l-2.6,2.6c-1.1,1.1-3,1.1-4.1,0l-2.6-2.6c-1.1-1.1-1.1-3,0-4.1l2.6-2.6c1.1-1.1,3-1.1,4.1,0l2.6,2.6
	C25.9,62.8,25.9,64.7,24.8,65.8z"/>
<g>
	<polygon class="st4" points="59.9,52.1 59.9,163.8 72,170.4 151.6,170.4 161.5,160 161.5,76.8 127.1,43.4 72,41.8 	"/>
	<rect x="76.5" y="102.6" class="st5" width="16.1" height="16.1"/>
	<rect x="76.5" y="136.7" class="st5" width="16.1" height="16.1"/>
	<g>
		<path class="st6" d="M164,73.7l-34.1-34.1c-0.7-0.7-1.8-1.2-2.8-1.2H69.6C61.5,38.5,55,45,55,53.1v106.5c0,8.1,6.6,14.6,14.6,14.6
			h81c8.1,0,14.6-6.6,14.6-14.6V76.5C165.2,75.5,164.8,74.5,164,73.7L164,73.7z M131.1,52.1l20.5,20.5h-13.8c-3.7,0-6.7-3-6.7-6.7
			V52.1z M150.5,166.3h-81c-3.7,0-6.7-3-6.7-6.7V53.1c0-3.7,3-6.7,6.7-6.7h53.5v19.5c0,8.1,6.6,14.6,14.6,14.6h19.5v79.1
			C157.2,163.3,154.2,166.3,150.5,166.3L150.5,166.3z"/>
		<path class="st6" d="M93,98.1H76c-2.2,0-4,1.8-4,4v17c0,2.2,1.8,4,4,4h17c2.2,0,4-1.8,4-4v-17C97,99.9,95.2,98.1,93,98.1L93,98.1z
			 M89,115.2H80v-9.1H89V115.2z"/>
		<path class="st6" d="M93,132.2H76c-2.2,0-4,1.8-4,4v17c0,2.2,1.8,4,4,4h17c2.2,0,4-1.8,4-4v-17C97,134,95.2,132.2,93,132.2z
			 M89,149.2H80v-9.1H89V149.2z"/>
		<path class="st6" d="M106.1,102.1c0,2.2,1.8,4,4,4h17c2.2,0,4-1.8,4-4c0-2.2-1.8-4-4-4h-17C107.9,98.1,106.1,99.9,106.1,102.1z"/>
		<path class="st6" d="M144.1,115.2h-34.1c-2.2,0-4,1.8-4,4c0,2.2,1.8,4,4,4h34.1c2.2,0,4-1.8,4-4
			C148.1,116.9,146.3,115.2,144.1,115.2z"/>
		<path class="st6" d="M110.1,140.2h17c2.2,0,4-1.8,4-4c0-2.2-1.8-4-4-4h-17c-2.2,0-4,1.8-4,4C106.1,138.4,107.9,140.2,110.1,140.2z
			"/>
		<path class="st6" d="M144.1,149.2h-34.1c-2.2,0-4,1.8-4,4s1.8,4,4,4h34.1c2.2,0,4-1.8,4-4S146.3,149.2,144.1,149.2z"/>
		<path class="st6" d="M76,67.7h21.3c2.2,0,4-1.8,4-4c0-2.2-1.8-4-4-4H76c-2.2,0-4,1.8-4,4C72,65.9,73.8,67.7,76,67.7z"/>
		<path class="st6" d="M76,84.8h34.1c2.2,0,4-1.8,4-4c0-2.2-1.8-4-4-4H76c-2.2,0-4,1.8-4,4C72,83,73.8,84.8,76,84.8z"/>
	</g>
</g>
<path class="st1" d="M186.4,45.8l-9.2,9.2c-1.7,1.7-4.4,1.7-6,0l-9.2-9.2c-1.7-1.7-1.7-4.4,0-6l9.2-9.2c1.7-1.7,4.4-1.7,6,0l9.2,9.2
	C188.1,41.4,188.1,44.1,186.4,45.8z"/>
</svg>
