<?xml version="1.0" encoding="utf-8"?>
<!-- Generator: Adobe Illustrator 23.0.3, SVG Export Plug-In . SVG Version: 6.00 Build 0)  -->
<svg version="1.1" id="Layer_1" xmlns="http://www.w3.org/2000/svg" xmlns:xlink="http://www.w3.org/1999/xlink" x="0px" y="0px"
	 viewBox="0 0 2 216.7" style="enable-background:new 0 0 2 216.7;" xml:space="preserve">
<style type="text/css">
	.st0{fill:none;}
	.st1{fill:#41B6E8;}
</style>
<g>
	<line class="st0" x1="1" y1="0.9" x2="1" y2="215.8"/>
	<g>
		<path class="st1" d="M1,7.9c-0.6,0-1-0.4-1-1v-6c0-0.6,0.4-1,1-1s1,0.4,1,1v6C2,7.5,1.6,7.9,1,7.9z"/>
		<path class="st1" d="M1,198.9c-0.6,0-1-0.4-1-1V186c0-0.6,0.4-1,1-1s1,0.4,1,1v11.9C2,198.4,1.6,198.9,1,198.9z M1,175
			c-0.6,0-1-0.4-1-1v-11.9c0-0.6,0.4-1,1-1s1,0.4,1,1V174C2,174.6,1.6,175,1,175z M1,151.2c-0.6,0-1-0.4-1-1v-11.9c0-0.6,0.4-1,1-1
			s1,0.4,1,1v11.9C2,150.7,1.6,151.2,1,151.2z M1,127.2c-0.6,0-1-0.4-1-1v-11.9c0-0.6,0.4-1,1-1s1,0.4,1,1v11.9
			C2,126.8,1.6,127.2,1,127.2z M1,103.4c-0.6,0-1-0.4-1-1V90.5c0-0.6,0.4-1,1-1s1,0.4,1,1v11.9C2,102.9,1.6,103.4,1,103.4z M1,79.5
			c-0.6,0-1-0.4-1-1V66.5c0-0.6,0.4-1,1-1s1,0.4,1,1v11.9C2,79.1,1.6,79.5,1,79.5z M1,55.6c-0.6,0-1-0.4-1-1V42.7c0-0.6,0.4-1,1-1
			s1,0.4,1,1v11.9C2,55.1,1.6,55.6,1,55.6z M1,31.7c-0.6,0-1-0.4-1-1V18.8c0-0.6,0.4-1,1-1s1,0.4,1,1v11.9C2,31.3,1.6,31.7,1,31.7z"
			/>
		<path class="st1" d="M1,216.9c-0.6,0-1-0.4-1-1v-6c0-0.6,0.4-1,1-1s1,0.4,1,1v6C2,216.3,1.6,216.9,1,216.9z"/>
	</g>
</g>
</svg>
