<?xml version="1.0" encoding="utf-8"?>
<!-- Generator: Adobe Illustrator 24.2.1, SVG Export Plug-In . SVG Version: 6.00 Build 0)  -->
<svg version="1.1" id="Layer_1" xmlns="http://www.w3.org/2000/svg" xmlns:xlink="http://www.w3.org/1999/xlink" x="0px" y="0px"
	 viewBox="0 0 505 500" style="enable-background:new 0 0 505 500;" xml:space="preserve">
<style type="text/css">
	.st0{fill:#211F20;}
	.st1{fill:#EC2027;}
	.st2{fill:#555555;}
</style>
<path class="st0" d="M446.2,119.3l117.2,117.2c10.9,10.9,28.6,10.9,39.5,0l117.2-117.2c10.9-10.9,10.9-28.6,0-39.5L602.9-37.3
	c-10.9-10.9-28.6-10.9-39.5,0L446.2,79.9C435.3,90.8,435.3,108.4,446.2,119.3z"/>
<path class="st1" d="M127.8,313.6l171.6,171.6c18.9,18.9,49.5,18.9,68.3,0l171.6-171.6c18.9-18.9,18.9-49.5,0-68.3L367.7,73.6
	c-18.9-18.9-49.5-18.9-68.3,0L127.8,245.2C108.9,264.1,108.9,294.7,127.8,313.6z"/>
<path class="st2" d="M10.5,430.7l56.9,56.9c10.9,10.9,28.6,10.9,39.5,0l56.9-56.9c10.9-10.9,10.9-28.6,0-39.5l-56.9-56.9
	c-10.9-10.9-28.6-10.9-39.5,0l-56.9,56.9C-0.5,402.1-0.5,419.8,10.5,430.7z"/>
</svg>
