<?xml version="1.0"?>
<svg xmlns="http://www.w3.org/2000/svg" xmlns:xlink="http://www.w3.org/1999/xlink" xmlns:svgjs="http://svgjs.com/svgjs" version="1.1" width="512" height="512" x="0" y="0" viewBox="0 0 512 512" style="enable-background:new 0 0 512 512" xml:space="preserve" class=""><g><g xmlns="http://www.w3.org/2000/svg"><path d="m0 512h240v-240h-240zm40-200h60v60h40v-60h60v160h-160z" fill="#ffffff" data-original="#000000" style="" class=""/><path d="m210.142 154.142-28.284-28.284-45.858 45.858v-71.716c0-33.084 26.916-60 60-60h40v-40h-40c-55.14 0-100 44.86-100 100v71.716l-45.858-45.858-28.284 28.284 94.142 94.142z" fill="#ffffff" data-original="#000000" style="" class=""/><path d="m301.858 357.858 28.284 28.284 45.858-45.858v71.716c0 33.084-26.916 60-60 60h-40v40h40c55.14 0 100-44.86 100-100v-71.716l45.858 45.858 28.284-28.284-94.142-94.142z" fill="#ffffff" data-original="#000000" style="" class=""/><path d="m392 240c66.168 0 120-53.832 120-120s-53.832-120-120-120-120 53.832-120 120 53.832 120 120 120zm0-200c44.112 0 80 35.888 80 80s-35.888 80-80 80-80-35.888-80-80 35.888-80 80-80z" fill="#ffffff" data-original="#000000" style="" class=""/><circle cx="392" cy="120" r="20" fill="#ffffff" data-original="#000000" style="" class=""/></g><style id="stylebot-css-*">#report-abuse {
  display: none !important;
}

</style></g></svg>
