<?xml version="1.0"?>
<svg xmlns="http://www.w3.org/2000/svg" xmlns:xlink="http://www.w3.org/1999/xlink" xmlns:svgjs="http://svgjs.com/svgjs" version="1.1" width="512" height="512" x="0" y="0" viewBox="0 0 512 512" style="enable-background:new 0 0 512 512" xml:space="preserve" class=""><g><path xmlns="http://www.w3.org/2000/svg" d="m452 0h-392c-33.084 0-60 26.916-60 60v195.333c0 33.084 26.916 60 60 60h21.364c4.53 21.307 15.954 40.094 31.823 53.901-44.182 23.18-74.395 69.508-74.395 122.766 0 11.046 8.954 20 20 20h237.082c11.046 0 20-8.954 20-20 0-52.989-29.908-99.117-73.724-122.411 16.083-13.84 27.666-32.765 32.234-54.256h40.283v58.667c0 17.923 21.651 26.63 34.142 14.143l72.809-72.81h30.382c33.084 0 60-26.916 60-60v-195.333c0-33.084-26.916-60-60-60zm-274.126 353.459c-32.349 0-58.667-26.317-58.667-58.666s26.318-58.667 58.667-58.667 58.667 26.318 58.667 58.667-26.318 58.666-58.667 58.666zm95.96 118.541h-193.002c9.269-44.778 49.018-78.541 96.501-78.541s87.232 33.763 96.501 78.541zm198.166-216.667c0 11.028-8.972 20-20 20h-38.667c-5.304 0-10.392 2.107-14.142 5.857l-44.525 44.525v-30.383c0-11.046-8.954-20-20-20h-60.057c-9.061-45.117-48.99-79.207-96.735-79.207s-87.674 34.09-96.735 79.207h-21.139c-11.028 0-20-8.972-20-20v-195.332c0-11.028 8.972-20 20-20h392c11.028 0 20 8.972 20 20zm-38.667-156.666c0 11.046-8.954 20-20 20h-314.666c-11.046 0-20-8.954-20-20s8.954-20 20-20h314.667c11.045 0 19.999 8.954 19.999 20zm0 78.666c0 11.046-8.954 20-20 20h-157.333c-11.046 0-20-8.954-20-20s8.954-20 20-20h157.333c11.046 0 20 8.954 20 20z" fill="#ffffff" data-original="#000000" class=""/><style id="stylebot-css-*">#report-abuse {
  display: none !important;
}

</style></g></svg>
