<?xml version="1.0" encoding="utf-8"?>
<!-- Generator: Adobe Illustrator 24.2.1, SVG Export Plug-In . SVG Version: 6.00 Build 0)  -->
<svg version="1.1" id="Layer_1" xmlns:svgjs="http://svgjs.com/svgjs"
	 xmlns="http://www.w3.org/2000/svg" xmlns:xlink="http://www.w3.org/1999/xlink" x="0px" y="0px" viewBox="0 0 512 512"
	 style="enable-background:new 0 0 512 512;" xml:space="preserve">
<style type="text/css">
	.st0{fill:#FFFFFF;}
</style>
<g>
	<path class="st0" d="M453.2,92.7L367.9,7.4C363.1,2.6,356.8,0,350,0h-243C76.4,0,51.4,25,51.4,55.7v400.6c0,30.7,25,55.7,55.7,55.7
		h297.9c30.7,0,55.7-25,55.7-55.7V110.6C460.6,103.8,458,97.5,453.2,92.7z M369.3,51.2l40.1,40.1h-35.5c-2.5,0-4.6-2-4.6-4.6V51.2z
		 M404.9,482H107.1c-14.2,0-25.7-11.5-25.7-25.7V55.7c0-14.2,11.5-25.7,25.7-25.7h232.2v56.7c0,19.1,15.5,34.6,34.6,34.6h56.7v335
		C430.6,470.5,419.1,482,404.9,482z"/>
	<path class="st0" d="M283.9,308.4h-55.9c-8.9,0-16.1,7.2-16.1,16.1v118.1c0,8.9,7.2,16.1,16.1,16.1h55.9c8.9,0,16.1-7.2,16.1-16.1
		V324.5C300,315.7,292.8,308.4,283.9,308.4z M270,428.7h-28v-90.2h28V428.7z"/>
	<path class="st0" d="M176.1,368.1h-55.9c-8.9,0-16.1,7.2-16.1,16.1v58.5c0,8.9,7.2,16.1,16.1,16.1h55.9c8.9,0,16.1-7.2,16.1-16.1
		v-58.5C192.1,375.3,184.9,368.1,176.1,368.1z M162.1,428.7h-28v-30.6h28V428.7z"/>
	<path class="st0" d="M391.8,252.9h-55.9c-8.9,0-16.1,7.2-16.1,16.1v173.6c0,8.9,7.2,16.1,16.1,16.1h55.9c8.9,0,16.1-7.2,16.1-16.1
		V269C407.9,260.1,400.7,252.9,391.8,252.9z M377.9,428.7h-28V282.9h28V428.7z"/>
	<path class="st0" d="M119.1,81.9H285c8.3,0,15-6.7,15-15c0-8.3-6.7-15-15-15H119.1c-8.3,0-15,6.7-15,15
		C104.1,75.1,110.8,81.9,119.1,81.9z"/>
	<path class="st0" d="M119.1,127.9h87.6c8.3,0,15-6.7,15-15c0-8.3-6.7-15-15-15h-87.6c-8.3,0-15,6.7-15,15
		C104.1,121.1,110.8,127.9,119.1,127.9z"/>
	<path class="st0" d="M321.1,175.3l3.1,0.8L140.9,277.3c-7.3,4-9.9,13.1-5.9,20.4c2.7,5,7.9,7.8,13.1,7.8c2.5,0,4.9-0.6,7.2-1.9
		l183.2-101.1l-0.4,1.3c-2.4,7.9,2.1,16.3,10,18.7c1.5,0.4,2.9,0.6,4.4,0.6c6.4,0,12.4-4.2,14.3-10.6l11.1-36.6
		c1.2-4.1,0.7-8.6-1.4-12.3c-2.1-3.7-5.7-6.4-9.8-7.5l-38.3-9.8c-8-2.1-16.2,2.8-18.3,10.8C308.2,165.1,313.1,173.2,321.1,175.3z"/>
</g>
</svg>
