<?xml version="1.0"?>
<svg xmlns="http://www.w3.org/2000/svg" xmlns:xlink="http://www.w3.org/1999/xlink" xmlns:svgjs="http://svgjs.com/svgjs" version="1.1" width="512" height="512" x="0" y="0" viewBox="0 0 512 512" style="enable-background:new 0 0 512 512" xml:space="preserve" class=""><g><path xmlns="http://www.w3.org/2000/svg" d="m452 0h-392c-33.084 0-60 26.916-60 60v392c0 33.084 26.916 60 60 60h392c33.084 0 60-26.916 60-60v-392c0-33.084-26.916-60-60-60zm20 60v177h-29c-27.57 0-50 22.43-50 50v8.229c0 10.621-8.709 20.007-19.378 19.767-10.268-.196-18.622-8.718-18.622-18.996v-9.189c0-27.396-22.288-49.826-49.685-49.999l-29.315-.185v-28.627c0-5.514 4.486-10 10-10h8.229c32.529 0 60.403-26.571 59.76-60.143-.609-31.831-26.537-57.857-58.989-57.857h-9c-5.514 0-10-4.486-10-10v-30h176c11.028 0 20 8.972 20 20zm-412-20h176v30c0 27.57 22.43 50 50 50h9c10.278 0 18.801 8.354 18.997 18.622.205 10.738-9.181 19.378-19.768 19.378h-8.229c-27.57 0-50 22.43-50 50v28.375l-29.396-.186c-5.479-.035-9.938-4.521-9.938-10v-8.418c0-32.713-26.768-60.426-60.143-59.759-31.83.609-57.857 26.535-57.857 58.989v9c0 5.514-4.486 10-10 10h-28.666v-176.001c0-11.028 8.972-20 20-20zm-20 412v-176h28.667c27.57 0 50-22.43 50-50v-9c0-10.278 8.354-18.8 18.623-18.996 10.591-.221 19.377 9.041 19.377 19.767v8.418c0 27.396 22.288 49.826 49.684 49.999l29.649.187v28.958c0 5.514-4.486 10-10 10h-9c-31.902 0-58.369 25.477-58.989 57.856-.643 33.571 27.229 60.144 59.759 60.144h8.23c5.514 0 10 4.486 10 10v28.667h-176c-11.028 0-20-8.972-20-20zm412 20h-176v-28.667c0-27.57-22.43-50-50-50h-8.229c-10.579 0-19.972-8.634-19.767-19.378.196-10.268 8.718-18.622 18.996-18.622h9c27.57 0 50-22.43 50-50v-28.706l29.063.183c5.479.035 9.938 4.521 9.938 10v9.19c0 31.934 25.512 58.37 57.856 58.989.379.007.755.011 1.133.011 32.846-.001 59.01-27.399 59.01-59.771v-8.229c0-5.514 4.486-10 10-10h29v175c0 11.028-8.972 20-20 20z" fill="#ffffff" data-original="#000000" class=""/><style id="stylebot-css-*">#report-abuse {
  display: none !important;
}

</style></g></svg>
