<?xml version="1.0" encoding="utf-8"?>
<!-- Generator: Adobe Illustrator 24.2.1, SVG Export Plug-In . SVG Version: 6.00 Build 0)  -->
<svg version="1.1" id="Layer_1" xmlns:svgjs="http://svgjs.com/svgjs"
	 xmlns="http://www.w3.org/2000/svg" xmlns:xlink="http://www.w3.org/1999/xlink" x="0px" y="0px" viewBox="0 0 512 512"
	 style="enable-background:new 0 0 512 512;" xml:space="preserve">
<style type="text/css">
	.st0{fill:#FFFFFF;}
</style>
<g>
	<path class="st0" d="M512.5,127c0,79.1-56.4,126.3-150.9,126.3c-10.8,0-20.5-0.5-29.5-1.5c-25.3,23.1-55.1,24.5-61.8,24.5
		c-0.1,0-0.1,0-0.2,0h-36.5l19.5-30.5c0.4-0.6,4.2-7.3,7.9-18.2c-13.5-9-24.4-20.2-32.6-33.4c-11.7-18.8-17.7-41.4-17.7-67.2
		c0-79.2,56.4-126.5,150.9-126.5c18.2,0,34.9,1.8,50.1,5.1l-33.6,35.4c-5.3-0.4-10.8-0.6-16.5-0.6c-33.9,0-61.9,7.2-80.8,20.9
		C260.6,76,250.8,97.5,250.8,127c0,35,13.9,58.9,42.5,73.1l5.1,2.5c5.9,2.9,12.2,5.1,18.7,6.4l11.1,1.9c9.6,1.6,20.5,2.4,33.4,2.4
		c34,0,61.9-7.2,80.9-20.8c20.2-14.6,30-36,30-65.5c0-3.7-0.2-7.3-0.5-10.7l33.1-34.9C510,95.1,512.5,110.3,512.5,127z M280.7,512
		h-40c0-55.1-45-99.9-100.4-99.9C85,412.1,40,456.9,40,512H0c0-55.5,32.6-103.5,79.6-126.1c-14.7-15.3-23.7-36-23.7-58.7
		c0-46.8,38.1-84.9,84.9-84.9c46.8,0,84.9,38.1,84.9,84.9c0,22.9-9.2,43.8-24,59.1C248.5,409,280.7,456.8,280.7,512z M95.9,327.2
		c0,24.8,20.2,45,45,45s45-20.2,45-45s-20.2-45-45-45S95.9,302.4,95.9,327.2z M323.5,85l-27.5,29l64.9,61.7L484.2,45.4l-29-27.5
		l-95.9,101.2L323.5,85z"/>
</g>
</svg>
