<?xml version="1.0" encoding="utf-8"?>
<!-- Generator: Adobe Illustrator 24.2.1, SVG Export Plug-In . SVG Version: 6.00 Build 0)  -->
<svg version="1.1" id="Layer_1" xmlns:svgjs="http://svgjs.com/svgjs"
	 xmlns="http://www.w3.org/2000/svg" xmlns:xlink="http://www.w3.org/1999/xlink" x="0px" y="0px" viewBox="0 0 512 512"
	 style="enable-background:new 0 0 512 512;" xml:space="preserve">
<style type="text/css">
	.st0{fill:#fff;}
</style>
<g>
	<path class="st0" d="M384,0H128C94.9,0,68,26.9,68,60v392c0,33.1,26.9,60,60,60h256c33.1,0,60-26.9,60-60V60
		C444,26.9,417.1,0,384,0z M404,452c0,11-9,20-20,20H128c-11,0-20-9-20-20V60c0-11,9-20,20-20h256c11,0,20,9,20,20V452z M276,412.1
		c0,11-9,20-20,20s-20-9-20-20s9-20,20-20S276,401.1,276,412.1z M307.3,227.7c7.4-10.3,11.8-22.9,11.8-36.6c0-34.7-28.3-63-63-63
		s-63,28.3-63,63c0,14,4.6,26.9,12.3,37.4c-29,17.5-48.3,49.3-48.3,85.6h40c0-33.1,26.9-60,60-60s60,26.9,60,60h40
		C357,277.3,337,245,307.3,227.7z M256,168.1c12.7,0,23,10.3,23,23c0,12.7-10.3,23-23,23s-23-10.3-23-23
		C233,178.4,243.3,168.1,256,168.1z"/>
</g>
</svg>
