<?xml version="1.0"?>
<svg xmlns="http://www.w3.org/2000/svg" xmlns:xlink="http://www.w3.org/1999/xlink" xmlns:svgjs="http://svgjs.com/svgjs" version="1.1" width="512" height="512" x="0" y="0" viewBox="0 0 511 511.999" style="enable-background:new 0 0 512 512" xml:space="preserve" class=""><g><path xmlns="http://www.w3.org/2000/svg" d="m267.390625 0-249.390625 249.871094c-23.335938 23.371094-23.335938 61.402344 0 84.78125l159.511719 159.742187c11.324219 11.339844 26.386719 17.59375 42.414062 17.605469h.042969c16.011719 0 31.066406-6.230469 42.398438-17.546875l250.09375-249.832031v-244.621094zm205.070313 228.042969-238.359376 238.109375c-3.777343 3.769531-8.792968 5.847656-14.132812 5.847656-.003906 0-.007812 0-.015625 0-5.339844-.003906-10.359375-2.089844-14.136719-5.867188l-159.507812-159.742187c-7.777344-7.792969-7.777344-20.46875 0-28.261719l237.671875-238.128906h188.480469zm-104-104.042969c0-11.046875 8.953124-20 20-20 11.046874 0 20 8.953125 20 20s-8.953126 20-20 20c-11.046876 0-20-8.953125-20-20zm-87.390626 57.320312c17.167969-.21875 33.117188 6.203126 44.933594 18.019532 11.859375 11.859375 18.125 27.929687 17.644532 45.25-.46875 16.769531-7.195313 32.46875-18.9375 44.214844l-28.285157-28.285157c4.421875-4.421875 7.058594-10.632812 7.238281-17.042969.171876-6.21875-1.9375-11.847656-5.945312-15.855468-8.617188-8.617188-24-8.359375-32.917969.558594-7.765625 7.765624-12.183593 14.828124-16.359375 22.117187l32.960938 32.960937-28.285156 28.28125-28.925782-28.925781c-9.203125 7.699219-20.214844 13.277344-32.328125 16.417969l59.195313 59.195312-28.285156 28.285157-97.292969-97.296875c-.324219-.292969-.660157-.574219-.964844-.878906l.042969-.042969-.851563-.851563 28.1875-28.1875c-.15625-.113281-.257812-.183594-.265625-.1875.085938.050782.195313.105469.292969.160156l.070313-.070312.21875.222656c5.6875 2.738282 27.34375 5.910156 43.484374-5.261718l-22.898437-22.898438 28.28125-28.285156 18.25 18.25c4.257813-6.5625 9.648437-13.746094 17.191406-21.289063 11.785157-11.785156 27.605469-18.382812 44.550781-18.574219zm0 0" fill="#ffffff" data-original="#000000" style="" class=""/><style id="stylebot-css-*">#report-abuse {
  display: none !important;
}

</style></g></svg>
