<?xml version="1.0" encoding="utf-8"?>
<!-- Generator: Adobe Illustrator 23.0.3, SVG Export Plug-In . SVG Version: 6.00 Build 0)  -->
<svg version="1.1" id="Layer_1" xmlns="http://www.w3.org/2000/svg" xmlns:xlink="http://www.w3.org/1999/xlink" x="0px" y="0px"
	 viewBox="0 0 164.8 164.8" style="enable-background:new 0 0 164.8 164.8;" xml:space="preserve">
<style type="text/css">
	.st0{fill:#CA8340;}
	.st1{fill:#EAEAF0;}
	.st2{fill:#2C3C46;}
	.st3{fill:#A8B19B;}
	.st4{fill:#73796A;}
	.st5{fill:#44C5E1;}
	.st6{fill:#B4B4B8;}
	.st7{fill:#FBBC9C;}
	.st8{fill:#010101;}
	.st9{fill:#A59AA5;}
	.st10{fill:#F8C02E;}
	.st11{fill:none;stroke:#E9AF29;stroke-width:0.75;stroke-miterlimit:10;}
	.st12{fill:#499FD8;}
	.st13{fill:none;stroke:#1D96D4;stroke-width:0.75;stroke-miterlimit:10;}
	.st14{fill:#F37E95;}
	.st15{fill:#C7677A;}
	.st16{fill:#FEDBC2;}
	.st17{fill:#C2CEC7;}
	.st18{fill:#1E292F;}
	.st19{opacity:0.1;enable-background:new    ;}
	.st20{fill:#211C30;}
	.st21{fill:#EFAA87;}
</style>
<g>
	<path class="st0" d="M101.8,144c0,2.2-1.8,4.1-4.1,4.1H4.1c-2.2,0-4.1-1.8-4.1-4.1V19.7c0-2.2,1.8-4.1,4.1-4.1h93.6
		c2.2,0,4.1,1.8,4.1,4.1L101.8,144L101.8,144z"/>
	<rect x="7.4" y="25.7" class="st1" width="87" height="113.8"/>
	<g>
		<path class="st2" d="M33.6,41.5c-0.6,0.3-1.2,0.4-1.9,0.4c-2.1,0-3.5-1.4-3.5-3.3c0-1.9,1.4-3.3,3.5-3.3c0.6,0,1.3,0.2,1.8,0.4
			v1.4c-0.5-0.3-1.1-0.6-1.8-0.6c-1.2,0-2.1,0.9-2.1,2s0.8,2.1,2.2,2.1c0.7,0,1.3-0.2,1.8-0.6C33.6,40,33.6,41.5,33.6,41.5z"/>
		<path class="st2" d="M34.5,35h1.4v2.8l0,0c0.3-0.3,0.8-0.5,1.3-0.5s0.9,0.2,1.1,0.4c0.3,0.3,0.4,0.7,0.4,1.3v2.7h-1.4v-2.5
			c0-0.3,0-0.5-0.2-0.6c-0.1-0.1-0.3-0.2-0.5-0.2c-0.3,0-0.7,0.2-0.9,0.4v2.9h-1.4V35C34.3,35,34.5,35,34.5,35z"/>
		<path class="st2" d="M41,40c0.2,0.6,0.6,0.9,1.3,0.9c0.5,0,1-0.2,1.5-0.5v1.1c-0.4,0.3-1.1,0.4-1.7,0.4c-1.4,0-2.5-0.9-2.5-2.3
			c0-1.4,1.1-2.3,2.3-2.3c1.1,0,2.1,0.7,2.1,2.2c0,0.2,0,0.3,0,0.5C44,40,41,40,41,40z M42.7,39.1c-0.1-0.5-0.4-0.8-0.9-0.8
			c-0.4,0-0.8,0.3-0.9,0.8H42.7z"/>
		<path class="st2" d="M48.5,41.6c-0.4,0.2-0.9,0.3-1.4,0.3c-1.4,0-2.4-1-2.4-2.3c0-1.4,1.1-2.3,2.5-2.3c0.5,0,0.9,0.1,1.3,0.3v1.3
			c-0.4-0.2-0.8-0.4-1.2-0.4c-0.7,0-1.2,0.5-1.2,1.1c0,0.7,0.5,1.1,1.2,1.1c0.4,0,0.9-0.2,1.3-0.4L48.5,41.6
			C48.6,41.6,48.5,41.6,48.5,41.6z"/>
		<path class="st2" d="M49.4,35h1.4v4.3l0,0l1.5-1.9h1.5l-1.7,2l1.8,2.4h-1.6l-1.6-2.2l0,0v2.2h-1.4L49.4,35L49.4,35z"/>
		<path class="st2" d="M56.7,35.4h1.4v5.2h2.8v1.2h-4.2C56.7,41.8,56.7,35.4,56.7,35.4z"/>
		<path class="st2" d="M62.3,35.3c0.4,0,0.8,0.3,0.8,0.8c0,0.4-0.4,0.8-0.8,0.8s-0.8-0.3-0.8-0.8S61.9,35.3,62.3,35.3z M61.6,37.4
			H63v4.4h-1.4V37.4z"/>
		<path class="st2" d="M64,40.3c0.6,0.4,1.3,0.5,1.7,0.5c0.4,0,0.6-0.1,0.6-0.3c0-0.3-0.5-0.3-1.1-0.5c-0.8-0.2-1.3-0.6-1.3-1.3
			c0-0.9,0.8-1.5,1.9-1.5c0.5,0,1.2,0.1,1.7,0.3v1.2c-0.6-0.3-1.3-0.5-1.6-0.5c-0.4,0-0.6,0.1-0.6,0.3c0,0.3,0.5,0.3,1.1,0.5
			c0.8,0.2,1.3,0.5,1.3,1.3c0,1-0.8,1.5-2,1.5c-0.5,0-1.2-0.1-1.7-0.4C64,41.4,64,40.3,64,40.3z"/>
		<path class="st2" d="M71.3,41.7c-0.2,0.1-0.6,0.2-1,0.2s-0.9-0.1-1.1-0.4c-0.2-0.2-0.4-0.6-0.4-1.3v-1.6h-0.7v-1.1h0.7v-1.1
			l1.4-0.2v1.4h1.2v1.1h-1.2v1.5c0,0.4,0.1,0.7,0.5,0.7c0.2,0,0.5-0.1,0.6-0.2V41.7z"/>
	</g>
	<g>
		<path class="st3" d="M85.7,14.6c0-1.5-1.2-2.6-2.6-2.6H60.9c0.1-0.5,0.1-1.1,0.1-1.6c0-5.7-4.5-10.3-10.1-10.3S40.8,4.7,40.8,10.4
			c0,0.5,0,1.1,0.1,1.6H18.7c-1.4,0-2.6,1.2-2.6,2.6v13.5h69.6V14.6z M50.9,11.2c-1.8,0-3.2-1.4-3.2-3.2s1.4-3.2,3.2-3.2
			s3.2,1.4,3.2,3.2S52.7,11.2,50.9,11.2z"/>
		<rect x="16.1" y="26.9" class="st4" width="69.6" height="1.2"/>
	</g>
	<g>
		<path class="st5" d="M32.6,50.9c-2.6,1.5-5.1,3.6-7.1,5.9c-0.3,0.3-0.6,0.6-0.9,0.8c0,0,0,0,0-0.1c-0.6-0.9-0.9-2.1-1.7-2.9
			c-0.6-0.7-1.6-0.9-2.4-0.3c-1.1,0.8-2.1,1.1-1.9,2.6c0.1,0.6,0.6,1.1,1.2,1.2h0.1c0.3,0,0.6,0,0.8-0.2c1,2.2,2.4,4.8,5,3.6
			c1.6-0.7,6.8-7.5,7.9-9.7C33.7,51.3,33.1,50.6,32.6,50.9z"/>
		<rect x="38.6" y="52.2" class="st6" width="42.5" height="3.6"/>
		<rect x="38.6" y="57.8" class="st6" width="32.4" height="3.6"/>
	</g>
	<g>
		<path class="st5" d="M32.6,68.2c-2.6,1.5-5.1,3.6-7.1,5.9c-0.3,0.3-0.6,0.6-0.9,0.8c0,0,0,0,0-0.1c-0.6-0.9-0.9-2.1-1.7-2.9
			c-0.6-0.7-1.6-0.9-2.4-0.3c-1.1,0.8-2.1,1.1-1.9,2.6c0.1,0.6,0.6,1.1,1.2,1.2h0.1c0.3,0,0.6,0,0.8-0.2c1,2.2,2.4,4.8,5,3.6
			c1.6-0.7,6.8-7.5,7.9-9.7C33.7,68.6,33.1,67.9,32.6,68.2z"/>
		<rect x="38.6" y="69.5" class="st6" width="42.5" height="3.6"/>
		<rect x="38.6" y="75.1" class="st6" width="32.4" height="3.6"/>
	</g>
	<g>
		<path class="st5" d="M32.6,85.2c-2.6,1.5-5.1,3.6-7.1,5.9c-0.3,0.3-0.6,0.6-0.9,0.8c0,0,0,0,0-0.1c-0.6-0.9-0.9-2.1-1.7-2.9
			c-0.6-0.7-1.6-0.9-2.4-0.3c-1.1,0.8-2.1,1.1-1.9,2.6c0.1,0.6,0.6,1.1,1.2,1.2h0.1c0.3,0,0.6,0,0.8-0.2c1,2.2,2.4,4.8,5,3.6
			c1.6-0.7,6.8-7.5,7.9-9.7C33.7,85.6,33.1,84.9,32.6,85.2z"/>
		<rect x="38.6" y="86.5" class="st6" width="42.5" height="3.6"/>
		<rect x="38.6" y="92.1" class="st6" width="32.4" height="3.6"/>
	</g>
	<g>
		<path class="st5" d="M32.6,102.2c-2.6,1.5-5.1,3.6-7.1,5.9c-0.3,0.3-0.6,0.6-0.9,0.8c0,0,0,0,0-0.1c-0.6-0.9-0.9-2.1-1.7-2.9
			c-0.6-0.7-1.6-0.9-2.4-0.3c-1.1,0.8-2.1,1.1-1.9,2.6c0.1,0.6,0.6,1.1,1.2,1.2h0.1c0.3,0,0.6,0,0.8-0.2c1,2.2,2.4,4.8,5,3.6
			c1.6-0.7,6.8-7.5,7.9-9.7C33.7,102.6,33.1,101.9,32.6,102.2z"/>
		<rect x="38.6" y="103.5" class="st6" width="42.5" height="3.6"/>
		<rect x="38.6" y="109.1" class="st6" width="32.4" height="3.6"/>
	</g>
</g>
<g>
	<g>
		<g>
			<g>
				<polygon class="st7" points="125.4,160 126,149.5 131.7,150.2 130.5,161.3 125.1,160.3 				"/>
				<g>
					<path class="st8" d="M131.3,158.6c0,0-3.8,2-5.9-1l-10.2,5.5l17.5-0.1L131.3,158.6z"/>
					
						<rect x="115.2" y="163.1" transform="matrix(1 -6.328915e-03 6.328915e-03 1 -1.0348 0.7878)" class="st9" width="17.5" height="1.6"/>
				</g>
			</g>
			<path class="st10" d="M131.5,89.6c0,0-5.1,3-5.7,19.7s-1.6,44.8-1.6,44.8h8.5l4.4-54.5l-1.2-10C135.9,89.6,131.5,89.6,131.5,89.6
				z"/>
		</g>
		<g>
			<g>
				<polygon class="st7" points="140.2,160 139.6,149.5 145.2,150.2 145.3,161.3 139.9,160.3 				"/>
				<g>
					<path class="st8" d="M146.1,158.6c0,0-3.8,2-5.9-1l-10.2,5.5l17.5-0.1L146.1,158.6z"/>
					
						<rect x="129.9" y="163.1" transform="matrix(1 -6.328915e-03 6.328915e-03 1 -1.0346 0.8808)" class="st9" width="17.5" height="1.6"/>
				</g>
			</g>
			<g>
				<path class="st10" d="M143.1,91.7c0,0,5.1,5.9,4.4,16.3l-0.2,46.1l-9.7-0.3l-3.2-62.7L143.1,91.7z"/>
				<polyline class="st11" points="135.6,118.4 135.1,105 131.4,99.9 				"/>
			</g>
		</g>
	</g>
	<g>
		<g>
			<g>
				<path class="st7" d="M99.7,70.8l10.9,10.4c1.4,1.4,3.7,1,4.7-0.7l1.1-1.9l-14.8-10.8L99.7,70.8z"/>
				<g>
					<path class="st7" d="M101.9,69.3c-0.6,1.8-2.4,2.7-4.2,2.1S95,69,95.6,67.2s2.4-2.7,4.2-2.1C101.5,65.7,102.4,67.6,101.9,69.3z
						"/>
					<path class="st7" d="M99.6,65.1l-3.1-1.9c-0.2-0.2-0.6-0.1-0.8,0.1l0,0c-0.2,0.2-0.1,0.5,0.1,0.7l2.9,2.6L99.6,65.1z"/>
				</g>
			</g>
			<path class="st7" d="M112.3,76.4l14.1-5.2l-0.7,6.6c0,0-7.6,3.3-12.3,4C108.6,82.7,112.3,76.4,112.3,76.4z"/>
		</g>
		<path class="st12" d="M130.1,71c0,0-1.3-2-4.6-0.6s-9.4,3.4-9.4,3.4l5.3,9.1l10-3.8L130.1,71z"/>
	</g>
	<g>
		<path class="st12" d="M143.5,69l-7.4-0.7l-9.3,1.7c0,0-0.6,13.4,0.9,20.3c0.3,1.2,1.4,2,2.6,1.9l13.3,0.2c0,0,1.8-1.3,1.9-4.1
			l-1-18.2C144.5,69.5,144,69,143.5,69z"/>
		<line class="st13" x1="126.3" y1="80.6" x2="125.8" y2="75.5"/>
	</g>
	<g>
		<g>
			<path class="st7" d="M155.9,87.5c-0.1-0.2,1.3-3.4,1.3-3.4l-6.1-9.3c-0.9-1.9-6-8.3-7.6-6.8c-1.1,1,0.7,8.7,1.5,10l6.4,9.1
				L155.9,87.5z"/>
			<g>
				<path class="st12" d="M141.6,66.1c0,0,4.3-0.2,6.3,2.1c2.5,3,6.8,7.8,6.8,7.8l-10.3,5.5L141.6,66.1z"/>
				<line class="st13" x1="145.7" y1="80.8" x2="140.8" y2="74.3"/>
			</g>
		</g>
		<g>
			<path class="st14" d="M159.2,99.7l4.8,3.8c1,0.8,1.1,2.5,0,3.9l-2.7,3.4c-1,1.3-2.7,1.7-3.8,0.9l-4.8-3.8L159.2,99.7z"/>
			<path class="st14" d="M159.2,99.7l4.8,3.8c1,0.8,1.1,2.5,0,3.9l-2.7,3.4c-1,1.3-2.7,1.7-3.8,0.9l-4.8-3.8L159.2,99.7z"/>
			<path class="st15" d="M155,105l6.7,5.2l-0.4,0.5c-1,1.3-2.7,1.7-3.8,0.9l-4.8-3.8L155,105z"/>
			
				<rect x="116.4" y="33.8" transform="matrix(0.6131 -0.79 0.79 0.6131 -13.903 126.0525)" class="st2" width="10.6" height="86.8"/>
			<polygon class="st16" points="75.7,41.5 90.6,46.4 84.1,54.8 			"/>
			<polygon class="st2" points="75.7,41.5 80.4,43 78.3,45.6 			"/>
			<path class="st17" d="M153.8,109.2c0.3,0.3,0.9,0.1,1.2-0.3l5.6-7.3c0.3-0.4,0.3-1,0-1.3l-1.7-1.3c-0.3-0.3-0.9-0.1-1.2,0.3
				l-5.6,7.3c-0.3,0.4-0.3,1,0,1.3L153.8,109.2z"/>
			
				<rect x="117.7" y="36.4" transform="matrix(0.6131 -0.79 0.79 0.6131 -16.7437 125.3468)" class="st18" width="3.8" height="86.8"/>
			<path class="st17" d="M153.8,109.2c0.3,0.3,0.9,0.1,1.2-0.3l5.6-7.3c0.3-0.4,0.3-1,0-1.3l-1.7-1.3c-0.3-0.3-0.9-0.1-1.2,0.3
				l-5.6,7.3c-0.3,0.4-0.3,1,0,1.3L153.8,109.2z"/>
			<path class="st19" d="M152.1,106.6l1.9-2.4l2.9,2.3l-1.9,2.4c-0.3,0.4-0.9,0.6-1.2,0.3l-1.7-1.3
				C151.8,107.6,151.8,107.1,152.1,106.6z"/>
			<polygon class="st19" points="75.7,41.5 86.4,51.8 84.1,54.8 			"/>
		</g>
		<g>
			<g>
				<path class="st7" d="M152.1,82.9L141.4,93l2.2,2.5l12.1-7.2c1.9-1.1,2.1-3.8,0.5-5.2l0,0C155.1,82,153.4,81.9,152.1,82.9z"/>
			</g>
			<g>
				<path class="st7" d="M144,95c0,0-1.1,4-4.2,4.1c-3.6,0-4.2-2.7-2.7-3.5l2.4-0.1c0,0-0.2-1.5,1.2-2.4c0.3-0.2,0.7-0.4,1.2-0.4
					L144,95z"/>
				<path class="st7" d="M141.2,92.8l-3.2,1c-0.2,0.1-0.3,0.3-0.3,0.5l0,0c0,0.2,0.2,0.4,0.5,0.4l3.2-0.1L141.2,92.8z"/>
			</g>
		</g>
	</g>
	<g>
		<path class="st20" d="M142.7,55c0,0-0.6,12.9,3.5,12.5c0,0-3.4,2.5-9.1-0.2l-3.7-9.2L142.7,55z"/>
		<path class="st21" d="M131.3,59.2c0.1,1.1-0.7,2.1-1.9,2.2c-1.1,0.1-2.1-0.7-2.2-1.9c-0.1-1.1,0.7-2.1,1.9-2.2
			C130.2,57.2,131.2,58.1,131.3,59.2z"/>
		<g>
			<path class="st7" d="M141.3,59.4c0.1,1.1-0.7,2.1-1.9,2.2c-1.1,0.1-2.1-0.7-2.2-1.9c-0.1-1.1,0.7-2.1,1.9-2.2
				C140.2,57.4,141.2,58.2,141.3,59.4z"/>
		</g>
		<path class="st7" d="M139.7,68.6l-4.1-0.4l-5.5,1.2c0,0,0,3.9,4.5,3.7C139,72.8,139.7,68.6,139.7,68.6z"/>
		<path class="st7" d="M132,64.9l0.3,4.4c0.1,1.6,1.1,2.3,2.7,2.2l0,0c1.3-0.1,2.5-0.9,2.5-2.2l-0.9-7L132,64.9z"/>
		<polygon class="st21" points="132.2,68.1 137.3,63.4 131.9,64.4 		"/>
		<path class="st20" d="M130.2,50.8c0,0,8.9-3.8,12,2.1c1.8,3.5-0.3,9.6-4.7,11.3c-1.4,0.5-3-12-3-12L130.2,50.8z"/>
		<path class="st7" d="M133.3,65.6L133.3,65.6c-2.6,0-4.8-2-4.9-4.1l-0.2-5.1c-0.1-2.7,1.9-5,4.6-5.2l0,0c2.7-0.2,5.6,1.8,5.9,4.5
			l0.1,4.1C138.8,62.9,136.5,65.3,133.3,65.6z"/>
		<path class="st20" d="M138.7,59.5c0,0-0.3-2.1-1.9-3c-1.5-0.9-5.7-2.2-5.3-5.5c0,0,6.5-1.9,8.9,2.3
			C142.9,57.7,138.7,59.5,138.7,59.5z"/>
		<path class="st20" d="M132.6,51.1c0,0-0.5,2.7-4.6,4.5c0,0-1-1.9,1.7-4.5c0.3-0.2,0.6-0.4,0.9-0.4h3.2L132.6,51.1z"/>
	</g>
</g>
</svg>
