<?xml version="1.0" encoding="utf-8"?>
<!-- Generator: Adobe Illustrator 23.0.3, SVG Export Plug-In . SVG Version: 6.00 Build 0)  -->
<svg version="1.1" id="Layer_1" xmlns="http://www.w3.org/2000/svg" xmlns:xlink="http://www.w3.org/1999/xlink" x="0px" y="0px"
	 viewBox="0 0 290.6 201.9" style="enable-background:new 0 0 290.6 201.9;" xml:space="preserve">
<style type="text/css">
	.st0{fill:#FBBC9C;}
	.st1{fill:#020202;}
	.st2{fill:#C3B8C2;}
	.st3{fill:#3D65B0;}
	.st4{fill:none;stroke:#195DA9;stroke-width:0.75;stroke-miterlimit:10;}
	.st5{fill:#F7A1A1;}
	.st6{fill:none;stroke:#EF9090;stroke-width:0.75;stroke-miterlimit:10;}
	.st7{fill:#EFAA87;}
	.st8{fill:#181E21;}
	.st9{fill:#E49E7D;}
	.st10{fill:#4B9FD8;}
	.st11{fill:none;stroke:#2296D3;stroke-width:0.75;stroke-miterlimit:10;}
	.st12{fill:#A59AA5;}
	.st13{fill:#F7C02D;}
	.st14{fill:none;stroke:#E9B029;stroke-width:0.75;stroke-miterlimit:10;}
	.st15{fill:#221C30;}
	.st16{fill:#313F5F;}
	.st17{fill:#BC2030;}
	.st18{fill:none;}
	.st19{fill:#FBC09D;}
	.st20{fill:#A97D51;}
	.st21{fill:#046938;}
	.st22{fill:#603B17;}
	.st23{fill:#EAEAF0;}
</style>
<g>
	<g>
		<g>
			<path class="st0" d="M227.8,134l7.4-17.2c1-2.3-0.5-4.8-2.9-5.2l-2.7-0.4l-6.2,21.8L227.8,134z"/>
			<g>
				<path class="st0" d="M225.2,132.1c2.3-0.1,4.2,1.7,4.3,4s-1.7,4.2-4,4.3c-2.3,0.1-4.2-1.7-4.3-4
					C221.1,134.2,222.9,132.2,225.2,132.1z"/>
			</g>
		</g>
		<path class="st0" d="M229.6,111.6L228.4,93l7.6,3.1c0,0,1.2,10.2,0.4,16.1C235.7,118.1,229.6,111.6,229.6,111.6z"/>
	</g>
	<g>
		<g>
			<polygon class="st0" points="229,179.8 230,193.8 236.5,193.5 236.2,179.3 			"/>
			<g>
				<g>
					<path class="st1" d="M229.5,192.2l-11.8,5.4c-0.8,0.4-1.2,1.3-1,2.1l0,0h20.8l-0.8-7.5H229.5z"/>
					<rect x="216.4" y="199.7" class="st2" width="21.4" height="2.2"/>
				</g>
			</g>
		</g>
		<g>
			<polygon class="st0" points="250.1,179.8 251,193.8 257.6,193.5 257.3,179.3 			"/>
			<g>
				<g>
					<path class="st1" d="M250.6,192.2l-11.8,5.4c-0.8,0.4-1.2,1.3-1,2.1l0,0h20.8l-0.8-7.5H250.6z"/>
					<rect x="237.6" y="199.7" class="st2" width="21.4" height="2.2"/>
				</g>
			</g>
		</g>
		<g>
			<polygon class="st3" points="232.7,113.7 257.7,115.6 261,185.5 247.3,185.5 242.9,132.8 237,155.3 239,186.3 227.4,186.3 
				223.4,152 			"/>
			<line class="st4" x1="237.3" y1="129.7" x2="242.9" y2="132.8"/>
		</g>
	</g>
	<g>
		<g>
			<path class="st5" d="M232.8,80.7c0,0-6.3,3.7-5.3,15.4l5.8-1.3L232.8,80.7z"/>
		</g>
		<g>
			<path class="st5" d="M245.4,76.8c6.3,0,13.4,2.2,13.4,2.2l-0.3,39.8l-26.4-2l0.3-34.8c0-0.6,0.3-1.2,0.8-1.4l7.3-3.1
				C240.5,77.4,244.1,76.8,245.4,76.8z"/>
			<line class="st6" x1="232.2" y1="95.1" x2="232.2" y2="87.4"/>
		</g>
		<g>
			<g>
				<g>
					<path class="st0" d="M282.9,71.2l-10,20.3l2.2,1.5c2,1.3,4.8,0.4,5.6-1.9l6-17.7L282.9,71.2z"/>
					<g>
						<path class="st0" d="M283.4,67.1c1.6-1.7,4.2-1.7,5.9-0.1c1.7,1.6,1.7,4.2,0.1,5.9c-1.6,1.7-4.2,1.7-5.9,0.1
							C281.9,71.4,281.9,68.7,283.4,67.1z"/>
					</g>
				</g>
				<path class="st0" d="M276.1,93.5c-5.9-0.9-15.3-5-15.3-5l-0.8-8.2l17.5,6.4C277.4,86.7,282,94.4,276.1,93.5z"/>
			</g>
			<path class="st5" d="M253.8,90l12.5,4.7l6.5-11.3c0,0-7.5-2.5-11.7-4.2s-5.8,0.8-5.8,0.8L253.8,90z"/>
		</g>
	</g>
	<g>
		<path class="st0" d="M239.6,71l0.8,6.4c0.3,2.3,1.8,3.3,3.9,3l0,0c1.9-0.3,3.7-1.4,3.4-3.4l-0.9-10.1L239.6,71z"/>
		<path class="st7" d="M240.4,76.8c0,0,7.2-2.6,6.6-9.1c-0.2-1.9-7.4,2.9-7.4,2.9L240.4,76.8z"/>
		<path class="st0" d="M238.8,78.1l3.1-1.4l5.5,0.2l3.2,0.4c0,0,1.2,4.8-6.9,5.1C237.2,82.6,238.8,78.1,238.8,78.1z"/>
		<g>
			<path class="st8" d="M235.3,62.6c0,0-6.3-4.7-3.4-9s8-0.6,8-0.6L235.3,62.6z"/>
			<path class="st8" d="M240.4,51.9c0,0,17.7-2.5,9.9,11.2l-2-5.6L240.4,51.9z"/>
			<path class="st8" d="M235,55.7c0,0-3,2.5,0.8,7.9l1-6.9L235,55.7z"/>
			<path class="st9" d="M238.3,65.2c0.2,1.5-0.8,2.9-2.3,3s-2.7-0.9-3-2.4c-0.2-1.5,0.8-2.9,2.3-3C236.8,62.6,238.2,63.6,238.3,65.2
				z"/>
			<path class="st0" d="M242.3,73.2L242.3,73.2c-3.7,0.2-6.9-2.7-7.2-5.8l-0.5-6.5c-0.3-3.9,2.4-7.4,6.2-7.8l0,0
				c3.9-0.4,8,2.3,8.5,6.3l0.3,5.1C250,69.1,246.7,72.7,242.3,73.2z"/>
			<path class="st8" d="M234.6,59.4c0,0-0.3-1.7,3.1-2.1c3.4-0.4,7.7-0.2,10.1,2.9l0.1,4.7l3-3l-1.6-7l-9-3l-5.3,3.8L234.6,59.4z"/>
			<g>
				<path class="st0" d="M253.1,64.2c0.2,1.4-0.8,2.8-2.3,3c-1.4,0.2-2.7-0.8-2.9-2.4c-0.2-1.4,0.8-2.8,2.3-3
					C251.6,61.7,252.9,62.7,253.1,64.2z"/>
			</g>
			<path class="st8" d="M237.7,53.3c0,0-0.8-2,2-3.2c2.5-1,4.9-0.6,10.3,3.1L237.7,53.3z"/>
			<path class="st8" d="M235.8,70.3c0-0.4,0.3-0.8,0.7-0.9c0.5-0.3,1.4-0.5,2.7-0.8c1.6-0.3,4,0.3,5.3,0.6c0.5,0.2,1.1-0.1,1.4-0.6
				c0.8-1.7,2.4-5.6,1.2-10.2l1.9,1.4l-0.3,2.9c0,0-1.4,3.1,0.8,4.5c0,0,0.1,6.4-5.8,7.6c-1.7,0.3-3.7,0.1-5.3-0.7
				C237,73.4,235.8,71.9,235.8,70.3z"/>
			<path class="st8" d="M247.7,61.5c0,0-3.9-0.9-2.4-4.7s3.4,1,3.4,1L247.7,61.5z"/>
		</g>
	</g>
</g>
<g>
	<g>
		<g>
			<path class="st0" d="M208.6,113.6c-0.1-0.3,2.1-3.9,2.1-3.9l-5.9-12.2c-0.8-2.4-6-10.9-8-9.4c-1.6,1.1,0.6,10,1.3,11.7l6,10.9
				L208.6,113.6z"/>
			<g>
				<path class="st10" d="M194.7,85.6c0,0,5.2,0.4,7.2,3.6c2.6,4,7,10.5,7,10.5l-13.3,5L194.7,85.6z"/>
				<line class="st11" x1="197.4" y1="103.9" x2="192.5" y2="95.4"/>
			</g>
		</g>
		<g>
			<g>
				<path class="st0" d="M205.9,108.6l-15.5,9.3l2.3,3.4l15.7-6.8c2.5-1.1,3.2-4.2,1.4-6.2l0,0C208.5,106.9,207.5,107.7,205.9,108.6
					z"/>
			</g>
			<g>
				<path class="st0" d="M193.1,120.8c0,0-2,4.7-5.6,4.2c-4.3-0.5-4.6-4-2.7-4.6l2.9,0.2c0,0,0.1-1.9,1.8-2.7
					c0.4-0.2,0.9-0.3,1.6-0.3L193.1,120.8z"/>
				<path class="st0" d="M190.1,117.7l-4,0.7c-0.2,0.1-0.4,0.2-0.4,0.6l0,0c0,0.3,0.2,0.6,0.5,0.6l3.9,0.3V117.7z"/>
			</g>
		</g>
	</g>
	<g>
		<g>
			<g>
				<g>
					<polygon class="st0" points="172.5,196.1 173.2,183.3 180,184.2 178.7,197.6 172.2,196.4 					"/>
					<g>
						<path class="st1" d="M179.7,194.4c0,0-4.6,2.4-7.2-1.2l-12.4,6.7l21.3-0.2L179.7,194.4z"/>
						
							<rect x="160.1" y="199.8" transform="matrix(1 -6.328661e-03 6.328661e-03 1 -1.2671 1.0848)" class="st12" width="21.3" height="1.9"/>
					</g>
				</g>
				<path class="st13" d="M179.9,110.5c0,0-6.1,3.7-6.9,24c-0.7,20.3-2,54.4-2,54.4h10.4l5.3-66.2l-1.4-12.2L179.9,110.5
					L179.9,110.5z"/>
			</g>
			<g>
				<g>
					<polygon class="st0" points="190.4,196.1 189.8,183.3 196.6,184.2 196.6,197.6 190.1,196.4 					"/>
					<g>
						<path class="st1" d="M197.6,194.4c0,0-4.6,2.4-7.2-1.2l-12.4,6.7l21.3-0.2L197.6,194.4z"/>
						
							<rect x="178" y="199.8" transform="matrix(1 -6.328661e-03 6.328661e-03 1 -1.2667 1.1981)" class="st12" width="21.3" height="1.9"/>
					</g>
				</g>
				<g>
					<path class="st13" d="M194,113.1c0,0,6.2,7.2,5.3,19.8L199,189l-11.8-0.3l-3.7-76.3L194,113.1z"/>
					<polyline class="st14" points="184.9,145.5 184.3,129.3 179.8,123.1 					"/>
				</g>
			</g>
		</g>
		<g>
			<g>
				<g>
					<g>
						<path class="st0" d="M148.5,80.8l4.3,17.8c0.6,2.3,3.2,3.4,5.3,2.3l1.4-1.5L152.4,79L148.5,80.8z"/>
						<g>
							<path class="st0" d="M151.6,80.7c-1.7,1.5-4.3,1.2-5.7-0.6c-1.5-1.7-1.2-4.3,0.6-5.7c1.7-1.5,4.3-1.2,5.7,0.6
								C153.6,76.6,153.3,79.2,151.6,80.7z"/>
						</g>
					</g>
					<path class="st0" d="M156.6,95.5l17.1-6.3l-0.8,7.1c0,0-9.2,4-15,4.9S156.6,95.5,156.6,95.5z"/>
				</g>
				<path class="st10" d="M178.1,87.9c0,0-1.6-2.4-5.6-0.7c-4.1,1.7-11.5,4.1-11.5,4.1l6.4,11l12.2-4.6L178.1,87.9z"/>
			</g>
			<g>
				<path class="st10" d="M194.4,85.4l-9-0.8l-11.3,2.1c0,0-0.7,16.3,1.2,24.6c0.3,1.5,1.7,2.5,3.2,2.4l16.2,0.2c0,0,2.2-1.6,2.3-5
					l-1.2-22.2C195.6,86.1,195.1,85.5,194.4,85.4z"/>
				<line class="st11" x1="173.6" y1="99.6" x2="173" y2="93.4"/>
			</g>
		</g>
		<g>
			<path class="st15" d="M193.6,68.5c0,0-0.7,15.7,4.3,15.3c0,0-4.1,3.1-11-0.2l-4.5-11.1L193.6,68.5z"/>
			<path class="st7" d="M179.7,73.5c0.1,1.3-0.9,2.6-2.2,2.7s-2.6-0.9-2.7-2.2c-0.1-1.3,0.9-2.6,2.2-2.7
				C178.4,71.1,179.5,72.2,179.7,73.5z"/>
			<g>
				<path class="st0" d="M191.7,73.8c0.1,1.3-0.9,2.6-2.2,2.7s-2.6-0.9-2.7-2.2c-0.1-1.3,0.9-2.6,2.2-2.7
					C190.4,71.4,191.7,72.4,191.7,73.8z"/>
			</g>
			<path class="st0" d="M189.8,85l-5.1-0.5l-6.6,1.5c0,0,0,4.8,5.4,4.5C189,90.1,189.8,85,189.8,85z"/>
			<path class="st0" d="M180.5,80.5l0.4,5.4c0.2,1.9,1.4,2.8,3.2,2.7l0,0c1.6-0.2,3-1.1,3.1-2.7l-1.1-8.5L180.5,80.5z"/>
			<polygon class="st7" points="180.8,84.4 187,78.7 180.4,79.9 			"/>
			<path class="st15" d="M178.3,63.3c0,0,10.9-4.6,14.6,2.5c2.2,4.2-0.4,11.7-5.7,13.8c-1.7,0.7-3.7-14.5-3.7-14.5L178.3,63.3z"/>
			<path class="st0" d="M182.1,81.3L182.1,81.3c-3.2,0.1-5.9-2.4-6-5.1l-0.2-6.1c-0.2-3.2,2.3-6.1,5.6-6.4l0,0
				c3.3-0.2,6.9,2.2,7.1,5.5l0.2,5C188.8,78.1,185.9,81,182.1,81.3z"/>
			<path class="st15" d="M188.7,74c0,0-0.4-2.5-2.2-3.6s-7-2.7-6.5-6.6c0,0,7.9-2.3,10.8,2.8C193.7,71.7,188.7,74,188.7,74z"/>
			<path class="st15" d="M181.3,63.7c0,0-0.6,3.2-5.6,5.4c0,0-1.2-2.3,2.1-5.5c0.3-0.2,0.7-0.4,1.2-0.4h3.9L181.3,63.7z"/>
		</g>
	</g>
</g>
<g>
	<g>
		<g>
			<path class="st0" d="M123.9,135.8l-3.6-21.2l-2.6,0.1c-2.3,0.1-3.9,2.3-3.3,4.6l5.2,17L123.9,135.8z"/>
			<g>
				<path class="st0" d="M125.7,139.2c-0.3,2.2-2.3,3.7-4.5,3.3c-2.2-0.3-3.7-2.3-3.3-4.5c0.3-2.2,2.3-3.7,4.5-3.3
					C124.5,135.1,126,137.2,125.7,139.2z"/>
			</g>
		</g>
		<path class="st0" d="M114,116.8c-0.7-5.6,0.4-15.3,0.4-15.3l7.2-3l-1.2,17.6C120.5,116.1,114.8,122.4,114,116.8z"/>
	</g>
	<g>
		<g>
			<polygon class="st0" points="112.4,180.4 112.2,193.9 117.9,194.2 118.7,180.8 			"/>
			<g>
				<g>
					<path class="st1" d="M111.9,192.7l-0.7,7.2h18.2l0,0c0.1-0.8-0.2-1.6-0.9-2l-10.3-5.1L111.9,192.7L111.9,192.7z"/>
					<rect x="111" y="199.7" class="st2" width="18.7" height="2.1"/>
				</g>
			</g>
		</g>
		<g>
			<polygon class="st0" points="93.9,180.4 93.7,193.9 99.4,194.2 100.2,180.8 			"/>
			<g>
				<g>
					<path class="st1" d="M93.4,192.7l-0.7,7.2H111l0,0c0.1-0.8-0.2-1.6-0.9-2l-10.3-5.1L93.4,192.7L93.4,192.7z"/>
					<rect x="92.5" y="199.7" class="st2" width="18.7" height="2.1"/>
				</g>
			</g>
		</g>
		<g>
			<polygon class="st16" points="123.6,154.5 120.1,187 109.9,187 111.7,157.6 106.5,136.2 102.7,186.2 90.8,186.2 93.7,119.9 
				115.4,118.2 			"/>
		</g>
	</g>
	<g>
		<g>
			<path class="st17" d="M116,100.3l6.6,1.2c1-13.1-6.5-14.7-6.5-14.7L116,100.3z"/>
		</g>
		<g>
			<path class="st17" d="M109.4,83.8l6.6,3c0.5,0.2,0.8,0.8,0.8,1.4l0.1,36.3l-24,1.9l-0.1-41.1c0,0,6.5-2.1,12.1-2.1
				C106.1,83.2,109.4,83.8,109.4,83.8z"/>
			<line class="st18" x1="116.9" y1="93.2" x2="116.9" y2="100.6"/>
		</g>
		<g>
			<g>
				<g>
					<path class="st0" d="M78.6,64.7l-6,16.7c-0.8,2.2,0.8,4.5,3.1,4.7l2.5,0.2l4.5-21L78.6,64.7z"/>
					<g>
						<path class="st0" d="M81.1,66.3c-2.2,0.3-4.1-1.3-4.3-3.5c-0.2-2.2,1.4-4.2,3.6-4.3c2.2-0.3,4.1,1.3,4.3,3.5
							C84.9,64.1,83.3,66,81.1,66.3z"/>
					</g>
				</g>
				<path class="st0" d="M77.6,80.1l16.7,5.5l-5.5,5.6c0,0-9.4-2.5-14.3-5.3C69.6,83.1,77.6,80.1,77.6,80.1z"/>
			</g>
			<path class="st17" d="M97.9,88.1c0,0,0.3-2.8-3.8-4c-4.1-1.2-11.2-3.8-11.2-3.8l-1.6,10.9l12,3.9L97.9,88.1z"/>
		</g>
	</g>
	<g>
		<path class="st0" d="M104.3,73.8l-0.9,9.6c-0.3,1.9,1.4,3,3.2,3.2l0,0c2,0.3,3.5-0.6,3.7-2.8l0.7-6.1L104.3,73.8z"/>
		<path class="st7" d="M111,77.3c0,0-6.8-4.6-7-2.7c-0.6,6.1,6.3,8.6,6.3,8.6L111,77.3z"/>
		<path class="st0" d="M107.2,88.4c-7.7-0.2-6.6-4.9-6.6-4.9l3.1-0.4l5.2-0.2l3.1,1.8C111.9,84.9,113.3,88.7,107.2,88.4z"/>
	</g>
	<g>
		<g>
			<path class="st19" d="M109,80.8L109,80.8c4.2,0.1,7.7-3.3,7.7-7.6l0.1-9.5l-15.3-0.1l-0.1,9.5C101.4,77.4,104.8,80.8,109,80.8z"
				/>
			<path class="st20" d="M101.7,70.5l2.2,0.1c0.6,0,2.8-0.9,2.7-1.5c-0.2-1.6,0.2-3.8,1.1-4.1c1.4-0.5,6.8,1.7,9.5-0.3
				c3.8-2.8,1.2-7.4-2.2-7.6c0.2,0.8-0.3,1.7-1.4,2.3c-0.3,0.2-0.8-0.9-0.8-0.9s-0.7,1.6-1.1,1.7c-1.1,0.3-2.3,0.5-3.6,0.4
				c-3.9-0.1-9.9-1.8-7.5,8.7L101.7,70.5z"/>
		</g>
		<path class="st19" d="M98.8,71c0,1.4,1.1,2.4,2.4,2.4c1.4,0,2.4-1.1,2.4-2.4c0-1.4-1.1-2.4-2.4-2.4C100,68.6,98.9,69.6,98.8,71z"
			/>
	</g>
</g>
<g>
	<g>
		<g>
			<path class="st0" d="M50.9,133.2l9.3-14.5c1.1-1.9,0.3-4.3-1.9-5.1l-1.4,0.3L47,131.7L50.9,133.2z"/>
			<g>
				<path class="st0" d="M48.7,131.1c2.1,0.2,3.6,2.1,3.3,4.2c-0.2,2.1-2.1,3.6-4.2,3.3c-2.1-0.2-3.6-2.1-3.3-4.2
					C44.8,132.4,46.7,130.9,48.7,131.1z"/>
			</g>
		</g>
		<path class="st0" d="M55.2,117.9c-1.2-5.6-3.2-14-3.2-14l4-4.7l4.4,16.5C60.4,115.7,57.6,122.8,55.2,117.9z"/>
	</g>
	<g>
		<g>
			<polygon class="st0" points="47.7,181.2 47.5,194.2 52.8,194.5 53.5,181.6 			"/>
			<g>
				<g>
					<path class="st1" d="M47.2,193l-0.6,6.9h16.9l0,0c0.1-0.8-0.2-1.6-0.8-1.9l-9.5-5H47.2z"/>
					<rect x="46.4" y="199.9" class="st2" width="17.4" height="2"/>
				</g>
			</g>
		</g>
		<g>
			<polygon class="st0" points="30.6,181.2 30.4,194.2 35.7,194.5 36.5,181.6 			"/>
			<g>
				<g>
					<path class="st1" d="M30.1,193l-0.6,6.9h16.9l0,0c0.1-0.8-0.2-1.6-0.8-1.9l-9.5-5H30.1z"/>
					<rect x="29.3" y="199.9" class="st2" width="17.4" height="2"/>
				</g>
			</g>
		</g>
		<g>
			<polygon class="st16" points="58.1,156.2 54.8,187.6 45.4,187.6 47.1,159.2 42.3,138.5 38.7,186.8 27.7,186.8 30.4,122.8 
				50.5,121.1 			"/>
		</g>
	</g>
	<g>
		<g>
			<path class="st21" d="M51.7,103.8L58,105c-0.5-10.7-6.8-14.3-6.8-14.3L51.7,103.8z"/>
		</g>
		<g>
			<path class="st21" d="M45.1,87.8l6.1,2.9c0.4,0.2,0.7,0.8,0.7,1.3l0.1,35.1L29.7,129l-0.1-39.7c0,0,6-2,11.3-2
				C42.1,87.3,45.1,87.8,45.1,87.8z"/>
			<line class="st18" x1="52.1" y1="97" x2="52.1" y2="104.1"/>
		</g>
		<g>
			<g>
				<g>
					<path class="st0" d="M3.9,87.2l7.3,15.5c1,2,3.6,2.6,5.3,1.1l1-1.8L7.2,84.8L3.9,87.2z"/>
					<g>
						<path class="st0" d="M6.8,86.6c-1.3,1.7-3.7,1.9-5.4,0.5c-1.7-1.3-1.9-3.7-0.5-5.4c1.3-1.7,3.7-1.9,5.4-0.5
							C7.8,82.5,8.1,84.9,6.8,86.6z"/>
					</g>
				</g>
				<path class="st0" d="M13.9,99.5l15.2-7.7v6.5c0,0-8.1,4.7-13.4,6.1C10.4,105.9,13.9,99.5,13.9,99.5z"/>
			</g>
			<path class="st21" d="M33.1,90c0,0-1.7-2.1-5.3-0.1S18,95.5,18,95.5l5.7,7.9l10.9-5.5L33.1,90z"/>
		</g>
	</g>
	<g>
		<path class="st0" d="M40.7,78.2l-0.9,9.2c-0.3,1.9,1.4,2.9,3.1,3.1l0,0c1.9,0.3,3.3-0.6,3.6-2.7l0.7-5.9L40.7,78.2z"/>
		<path class="st7" d="M47.2,82.6c0,0-6.6-4.4-6.8-2.6c-0.5,5.9,6.1,8.3,6.1,8.3L47.2,82.6z"/>
		<path class="st0" d="M43.5,92.3c-7.5-0.2-6.4-4.7-6.4-4.7l3-0.3l5-0.2l3,1.8C48.1,88.9,49.5,92.6,43.5,92.3z"/>
	</g>
	<g>
		<g>
			<path class="st19" d="M45.5,85.4L45.5,85.4c4,0,7.2-3.1,7.2-7.1l0.1-8.9l-14.5-0.1l-0.1,8.9C38.3,82.1,41.5,85.4,45.5,85.4z"/>
			<path class="st22" d="M52.7,72.2c-1.4-1.3-4-1.1-6.2-1.2c-0.9,0.4-3.2,0-3.6,0.6c-1.3,2.2-0.1,8.8-3,6.9c-3.1-2-0.9,0.7-2.8,0.9
				c-1.2,0.1-1.1-1.9-2-3.6c-0.4,0.7-0.8,1.2-0.8,1.2s-0.7,1.3,0.3-7.6s5.6-7.5,6.5-7.3c1,0.2,10.1-2.4,12.8,2.1
				C56.6,68.8,52.9,72,52.7,72.2z"/>
		</g>
	</g>
</g>
<g>
	<path class="st23" d="M103.1,15.4c-2.2-2.8-5.3-4.9-9.2-6.5c-3.9-1.6-8.1-2.4-12.6-2.4c-3.4,0-6.7,0.5-9.8,1.4
		c-3.1,0.9-5.8,2.2-8,3.8c-2.2,1.6-4,3.5-5.4,5.7c-1.3,2.2-2,4.5-2,7c0,2.8,0.8,5.4,2.5,7.9c1.7,2.5,4,4.5,6.9,6.2
		c-0.2,0.7-0.4,1.5-0.7,2.1c-0.3,0.7-0.5,1.2-0.8,1.7c-0.2,0.4-0.5,0.9-0.9,1.4c-0.4,0.5-0.7,0.9-0.9,1.1c-0.2,0.2-0.5,0.6-1,1.1
		c-0.4,0.5-0.7,0.8-0.9,1c0,0-0.1,0.1-0.2,0.3c-0.1,0.2-0.2,0.2-0.2,0.2L60,47.6c-0.1,0.1-0.1,0.2-0.1,0.3c0,0,0,0.1-0.1,0.3
		c0,0.2,0,0.3,0,0.3v0c0.1,0.3,0.2,0.6,0.5,0.8c0.3,0.2,0.5,0.3,0.9,0.3c1.2-0.1,2.3-0.4,3.2-0.6c4.9-1.3,9.2-3.5,12.9-6.8
		c1.4,0.1,2.8,0.2,4.1,0.2c4.6,0,8.8-0.8,12.6-2.4c3.9-1.6,6.9-3.8,9.2-6.5c2.2-2.8,3.4-5.8,3.4-9C106.5,21.2,105.4,18.2,103.1,15.4
		z"/>
</g>
<g>
	<path class="st23" d="M123.9,33.2c0,3.3,1.1,6.3,3.4,9c2.2,2.8,5.3,4.9,9.2,6.5c3.9,1.6,8.1,2.4,12.6,2.4c1.3,0,2.7-0.1,4.1-0.2
		c3.7,3.3,8,5.5,12.9,6.8c0.9,0.3,2,0.5,3.2,0.6c0.3,0,0.6,0,0.9-0.3c0.3-0.2,0.4-0.5,0.5-0.8v0c0.1-0.1,0.1-0.2,0-0.3
		c0-0.1-0.1-0.2-0.1-0.3c0,0,0-0.1-0.1-0.3l-0.2-0.3c0,0-0.1-0.1-0.2-0.2c-0.1-0.2-0.2-0.2-0.2-0.3c-0.1-0.2-0.4-0.5-0.9-1
		c-0.4-0.5-0.8-0.9-1-1.1c-0.2-0.2-0.5-0.6-0.9-1.1c-0.4-0.5-0.7-1-0.9-1.4c-0.2-0.4-0.5-1-0.8-1.7c-0.3-0.7-0.5-1.4-0.7-2.1
		c2.9-1.7,5.3-3.7,6.9-6.2c1.7-2.5,2.5-5.1,2.5-7.9c0-2.4-0.7-4.8-2-7c-1.3-2.2-3.1-4.1-5.4-5.7c-2.2-1.6-4.9-2.9-8-3.8
		c-3.1-0.9-6.4-1.4-9.8-1.4c-4.6,0-8.8,0.8-12.6,2.4c-3.9,1.6-6.9,3.8-9.2,6.5C125,27,123.9,30,123.9,33.2z"/>
</g>
<g>
	<path class="st23" d="M191.3,18c0,3.3,1.1,6.3,3.4,9c2.2,2.8,5.3,4.9,9.2,6.5c3.9,1.6,8.1,2.4,12.6,2.4c1.3,0,2.7-0.1,4.1-0.2
		c3.7,3.3,8,5.5,12.9,6.8c0.9,0.3,2,0.5,3.2,0.6c0.3,0,0.6,0,0.9-0.3c0.3-0.2,0.4-0.5,0.5-0.8v0c0.1-0.1,0.1-0.2,0-0.3
		c0-0.1-0.1-0.2-0.1-0.3c0,0,0-0.1-0.1-0.3l-0.2-0.3c0,0-0.1-0.1-0.2-0.2c-0.1-0.2-0.2-0.2-0.2-0.3c-0.1-0.2-0.4-0.5-0.9-1
		c-0.4-0.5-0.8-0.9-1-1.1c-0.2-0.2-0.5-0.6-0.9-1.1c-0.4-0.5-0.7-1-0.9-1.4c-0.2-0.4-0.5-1-0.8-1.7c-0.3-0.7-0.5-1.4-0.7-2.1
		c2.9-1.7,5.3-3.7,6.9-6.2c1.7-2.5,2.5-5.1,2.5-7.9c0-2.4-0.7-4.8-2-7c-1.3-2.2-3.1-4.1-5.4-5.7c-2.2-1.6-4.9-2.9-8-3.8
		c-3.1-0.9-6.4-1.4-9.8-1.4c-4.6,0-8.8,0.8-12.6,2.4c-3.9,1.6-6.9,3.8-9.2,6.5C192.4,11.7,191.3,14.7,191.3,18z"/>
</g>
</svg>
