<?xml version="1.0" encoding="utf-8"?>
<!-- Generator: Adobe Illustrator 23.0.3, SVG Export Plug-In . SVG Version: 6.00 Build 0)  -->
<svg version="1.1" id="Layer_1" xmlns="http://www.w3.org/2000/svg" xmlns:xlink="http://www.w3.org/1999/xlink" x="0px" y="0px"
	 viewBox="0 0 169.9 114.2" style="enable-background:new 0 0 169.9 114.2;" xml:space="preserve">
<style type="text/css">
	.st0{fill:#EAEAF0;}
	.st1{fill:#2B3C46;}
	.st2{fill:#FFFFFF;}
	.st3{fill:#F05E59;}
	.st4{fill:#FDBF39;}
	.st5{fill:#51B751;}
	.st6{fill:#43C4E0;}
	.st7{fill:#B4B4B8;}
	.st8{fill:#FABB9B;}
	.st9{fill:#010101;}
	.st10{fill:#C1B6C1;}
	.st11{fill:#313E5E;}
	.st12{fill:#BC202E;}
	.st13{fill:#F9B58D;}
	.st14{fill:#FABF9D;}
	.st15{fill:#A97C50;}
	.st16{fill:#A11D2A;}
	.st17{fill:#F89E00;}
	.st18{fill:#7D5849;}
	.st19{fill:#604C44;}
	.st20{opacity:0.15;fill:#231F20;enable-background:new    ;}
	.st21{fill:#BFC7D1;}
	.st22{fill:#A5ADB9;}
	.st23{opacity:0.2;fill:#231F20;enable-background:new    ;}
</style>
<path class="st0" d="M46.3,11.3h123.5v87.3c0,1.5-1.2,2.7-2.7,2.7H49c-1.5,0-2.7-1.2-2.7-2.7C46.3,98.6,46.3,11.3,46.3,11.3z"/>
<path class="st1" d="M169.8,12.1H46.3V2.9c0-1.5,1.2-2.7,2.7-2.7h118.2c1.5,0,2.7,1.2,2.7,2.7L169.8,12.1L169.8,12.1z"/>
<path class="st2" d="M141.4,9.1H55.7c-1.6,0-2.9-1.3-2.9-2.9l0,0c0-1.6,1.3-2.9,2.9-2.9h85.7c1.6,0,2.9,1.3,2.9,2.9l0,0
	C144.3,7.8,143,9.1,141.4,9.1z"/>
<circle class="st3" cx="153" cy="6.2" r="2"/>
<circle class="st4" cx="158" cy="6.2" r="2"/>
<circle class="st5" cx="163" cy="6.2" r="2"/>
<path class="st6" d="M93.7,62.8H56.3c-1.9,0-3.5-1.6-3.5-3.5V21.9c0-1.9,1.6-3.5,3.5-3.5h37.3c1.9,0,3.5,1.6,3.5,3.5v37.3
	C97.2,61.2,95.6,62.8,93.7,62.8z"/>
<g>
	<g>
		<g>
			<path class="st2" d="M83.2,44.6c0.8-0.6,1.4-1.4,1.6-2.3l3.1-9.1H68.2L68,30.8c-0.1-0.8-0.5-1.6-1.1-2.2
				c-0.6-0.6-1.4-0.9-2.3-0.9h-2.5v2h2.6c0.7,0,1.3,0.5,1.4,1.3l1.6,17.5l0,0c0.2,1.5,1.3,2.8,2.8,3c0.4,1.2,1.5,2,2.8,2
				s2.4-0.8,2.8-2h2.4c0.4,1.1,1.5,2,2.8,2c1.6,0,3-1.3,3-3s-1.3-3-3-3c-1.3,0-2.4,0.8-2.8,2h-2.4c-0.4-1.1-1.5-2-2.8-2
				c-1.2,0-2.3,0.8-2.8,1.9c-0.5-0.2-0.8-0.6-0.9-1.1l-0.3-2.8h11.1C81.5,45.5,82.4,45.2,83.2,44.6z M81.2,49.6c0.5,0,1,0.4,1,1
				c0,0.5-0.4,1-1,1s-1-0.4-1-1S80.7,49.6,81.2,49.6z M73.2,49.6c0.5,0,1,0.4,1,1c0,0.5-0.4,1-1,1c-0.5,0-1-0.4-1-1
				C72.3,50,72.7,49.6,73.2,49.6z M69.2,43.5L69.2,43.5l-0.7-8.3h16.6l-2.2,6.4l0,0c-0.3,1.1-1.3,1.8-2.5,1.8L69.2,43.5L69.2,43.5z"
				/>
		</g>
	</g>
</g>
<rect x="107.1" y="18.4" class="st7" width="57.9" height="4"/>
<rect x="107.1" y="24.8" class="st7" width="36.4" height="4"/>
<rect x="107.1" y="30.9" class="st7" width="47.7" height="4"/>
<rect x="107.1" y="45.4" class="st7" width="47.7" height="4"/>
<rect x="107.1" y="51.7" class="st7" width="36.4" height="4"/>
<g>
	<g>
		<g>
			<g>
				<polygon class="st8" points="14.1,98.6 13.9,108.4 18.4,108.7 19.1,99 				"/>
				<g>
					<g>
						<path class="st9" d="M13.7,107.6l-0.5,5.2h14.4l0,0c0.1-0.6-0.2-1.2-0.7-1.5l-8.1-3.7H13.7z"/>
						<rect x="13" y="112.7" class="st10" width="14.8" height="1.5"/>
					</g>
				</g>
			</g>
			<g>
				<polygon class="st8" points="1.9,98.6 1.7,108.4 6.2,108.7 6.9,99 				"/>
				<g>
					<g>
						<path class="st9" d="M1.5,107.6L1,112.8h14.4l0,0c0.1-0.6-0.2-1.2-0.7-1.5l-8.1-3.7H1.5z"/>
						<rect x="0.7" y="112.7" class="st10" width="14.8" height="1.5"/>
					</g>
				</g>
			</g>
			<g>
				<polygon class="st11" points="22.5,79.8 20.1,103.5 13.2,103.5 14.4,82.1 10.8,66.6 8.2,102.9 0,102.9 2,54.8 16.9,53.5 				"/>
			</g>
		</g>
		<path class="st12" d="M6.3,22.6c-2.8,2.1-4.2,7.5-4.7,13L0,57.3c10.2,3.7,19.7-0.7,19.7-0.7v-27c0.1-2.5-1.7-8.1-5.3-8l0,0
			C14.4,21.6,10.4,19.6,6.3,22.6z"/>
		<g>
			<g>
				<polygon class="st13" points="8.6,23.6 13.9,23.5 13.9,12.1 8.6,12.1 				"/>
				<path class="st14" d="M15.1,20.2L15.1,20.2c3.6,0.1,6.5-2.8,6.5-6.4l0.1-8l-13-0.1l-0.1,8C8.6,17.3,11.5,20.2,15.1,20.2z"/>
				<path class="st15" d="M8.9,11.5l1.9,0.1c0.5,0,2.4-0.8,2.3-1.3c-0.2-1.3,0.1-3.2,1-3.5c1.2-0.4,5.7,1.4,8-0.3
					c3.2-2.4,1-6.3-1.9-6.5c0.2,0.7-0.3,1.4-1.1,1.9c-0.2,0.1-0.7-0.8-0.7-0.8s-0.6,1.4-1,1.5c-0.9,0.3-1.9,0.4-3,0.4
					C11.1,2.9,6,1.5,8.1,10.3L8.9,11.5z"/>
			</g>
			<path class="st14" d="M6.5,11.9c0,1.1,0.9,2,2,2s2-0.9,2-2c0-1.1-0.9-2-2-2S6.5,10.8,6.5,11.9z"/>
		</g>
		<polygon class="st13" points="8.6,21.3 12.9,24.5 13.9,21.3 		"/>
		<polygon class="st12" points="12.9,24.5 8.1,26.1 8.6,21.3 		"/>
		<polygon class="st12" points="12.9,24.5 15.1,25.6 13.9,21.3 		"/>
	</g>
	<path class="st8" d="M11.8,51.2l1.7-15l-6.3,2.2c0,0-2,6.9-1,13.1C7,56.1,11.8,51.2,11.8,51.2z"/>
	<g>
		<path class="st16" d="M14.6,39.7l-8.9-1.6l2-7.8c0.5-2.1,2.7-3.3,4.8-2.7l0,0c1.8,0.5,2.9,2.2,2.7,4L14.6,39.7z"/>
	</g>
	<g>
		<path class="st17" d="M33,46.6c-1.9-0.1-4.9,1-10.1,4.4c-9,5.9-16.6,13.6-15.1,15.8c1.5,2.3,11.6-1.7,20.5-7.7
			c5.2-3.4,7.4-5.7,8-7.5l0.3-4.1L33,46.6z"/>
		<path class="st18" d="M36.6,43.4l0.5,3.9l3.3,1.7c0,0,4.1,2,7.8-2.3c3.7-4.2,1-9.5,1-9.5c-1.6,1.9-2.2,1.6-4.9,1.6
			C41.5,39,37.3,40.2,36.6,43.4z"/>
		<path class="st19" d="M39,46.9l1.4,2.1c0,0,4.1,2,7.8-2.3c3.7-4.2,1-9.5,1-9.5C49.6,44.1,41.3,46.3,39,46.9z"/>
		<path class="st6" d="M46.1,48.5c0.7-0.4,1.3-1,2-1.7c3.7-4.2,1-9.5,1-9.5c-1.6,1.9-2.2,1.6-4.9,1.6c-0.4,0-0.9,0.1-1.4,0.1
			c0,0.5-0.1,1-0.6,1.6c0,0,1.8,0.9,2.8,2.5c0.2,0.4,0.3,0.7,0.4,1.1C45.5,45.4,45,46.8,46.1,48.5z"/>
		<path class="st20" d="M46.1,48.5c0.7-0.4,1.3-1,2-1.7c3.7-4.2,1-9.5,1-9.5c0.2,3.3-1.6,5.5-3.8,6.9C45.5,45.4,45,46.8,46.1,48.5z"
			/>
		<path class="st21" d="M32.8,46.2l3.8,5.8c0.3,0.5,0.9,0.6,1.4,0.3l2.3-1.5c0.5-0.3,0.6-0.9,0.3-1.4l-3.8-5.8
			c-0.3-0.5-0.9-0.6-1.4-0.3l-2.3,1.5C32.6,45.1,32.5,45.7,32.8,46.2z"/>
		<path class="st22" d="M38.7,48.4l-2.3,1.5c-0.5,0.3-1.1,0.2-1.4-0.3l1.5,2.3c0.3,0.5,0.9,0.6,1.4,0.3l2.3-1.5
			c0.5-0.3,0.6-0.9,0.3-1.4L39,47C39.3,47.5,39.2,48.1,38.7,48.4z"/>
		<path class="st23" d="M27,57.1c5.2-3.4,7.6-5.4,8.5-6.7l0.8,1.3c-0.6,1.8-2.8,4.1-8,7.5c-9,5.9-19,9.9-20.5,7.7
			C8.6,67.9,18,63,27,57.1z"/>
	</g>
	<path class="st8" d="M21.7,61.3L7.9,54.9c-1.8-0.8-2.3-3.1-1-4.7l1.4-1.7l15.5,9.9L21.7,61.3z"/>
	<g>
		<path class="st8" d="M22.2,58.8c-1.5,1.2-1.6,3.3-0.5,4.7c1.2,1.5,3.3,1.6,4.7,0.5c1.4-1.2,1.6-3.3,0.5-4.7
			C25.8,57.8,23.7,57.6,22.2,58.8z"/>
	</g>
</g>
<rect x="107.1" y="66.3" class="st7" width="57.9" height="4"/>
<rect x="107.1" y="72.6" class="st7" width="36.4" height="4"/>
<rect x="107.1" y="78.8" class="st7" width="47.7" height="4"/>
</svg>
