<?xml version="1.0" encoding="utf-8"?>
<!-- Generator: Adobe Illustrator 23.0.3, SVG Export Plug-In . SVG Version: 6.00 Build 0)  -->
<svg version="1.1" id="Layer_1" xmlns="http://www.w3.org/2000/svg" xmlns:xlink="http://www.w3.org/1999/xlink" x="0px" y="0px"
	 viewBox="0 0 441.7 328" style="enable-background:new 0 0 441.7 328;" xml:space="preserve">
<style type="text/css">
	.st0{fill:#AA7E54;}
	.st1{fill:#E2A76F;}
	.st2{fill:#EAEAF0;}
	.st3{fill:#B4B4B8;}
	.st4{fill:#FABB9B;}
	.st5{fill:#020202;}
	.st6{fill:#C1B6C1;}
	.st7{fill:#3E65AF;}
	.st8{fill:none;stroke:#195EA8;stroke-width:0.75;stroke-miterlimit:10;}
	.st9{fill:#F7AA9D;}
	.st10{fill:#F6A0A1;}
	.st11{fill:none;stroke:#EE908F;stroke-width:0.75;stroke-miterlimit:10;}
	.st12{fill:none;stroke:#EEA985;stroke-width:0.4825;stroke-miterlimit:10;}
	.st13{fill:#101112;}
	.st14{fill:#3F525A;}
	.st15{fill:#EEA985;}
	.st16{fill:#171D20;}
	.st17{fill:#E39D7D;}
</style>
<g>
	<path class="st0" d="M244.3,315.6l-72.7-144.5l-7.6-15.2l-7.6,15.2L83.7,315.6c-2.1,4.2-0.4,9.4,3.8,11.5c1.2,0.6,2.5,0.9,3.9,0.9
		c3.2,0,6.2-1.8,7.6-4.7L164,194l65.1,129.3c1.5,2.9,4.4,4.7,7.6,4.7c4.7,0,8.6-3.8,8.6-8.5C245.3,318.1,245,316.8,244.3,315.6z"/>
	<path class="st1" d="M155.4,0h17.1v58.5h-17.1V0z"/>
	<path class="st2" d="M14.6,21.4h298.8v203.9H14.6V21.4z"/>
	<path class="st3" d="M296.3,150.5c-2.8,0-5-2.2-5-5l0,0V110c0-2.8,2.2-5,5-5s5,2.2,5,5v35.4C301.3,148.2,299,150.5,296.3,150.5
		C296.3,150.5,296.3,150.5,296.3,150.5z"/>
	<path class="st1" d="M0,212.5h328v25.7H0V212.5z"/>
</g>
<g>
	<g>
		<g>
			<polygon class="st4" points="368.6,280.4 370.4,307.9 383.2,307.3 382.7,279.4 			"/>
			<g>
				<g>
					<path class="st5" d="M369.6,304.8l-23,10.6c-1.5,0.8-2.3,2.5-2,4.1l0,0h40.8l-1.5-14.8H369.6z"/>
					<rect x="343.9" y="319.4" class="st6" width="41.9" height="4.3"/>
				</g>
			</g>
		</g>
		<g>
			<polygon class="st4" points="409.9,280.4 411.7,307.9 424.4,307.3 424,279.4 			"/>
			<g>
				<g>
					<path class="st5" d="M410.9,304.8l-23,10.6c-1.5,0.8-2.3,2.5-2,4.1l0,0h40.8l-1.5-14.8H410.9z"/>
					<rect x="385.3" y="319.4" class="st6" width="41.9" height="4.3"/>
				</g>
			</g>
		</g>
		<g>
			<polygon class="st7" points="375.9,151.1 424.6,154.7 431.1,291.5 404.4,291.5 395.8,188.4 384.2,232.5 388.1,293.2 365.4,293.2 
				357.6,226 			"/>
			<line class="st8" x1="384.8" y1="182.4" x2="395.8" y2="188.4"/>
		</g>
	</g>
	<g>
		<g>
			<polygon class="st9" points="376.5,109.3 376.9,122.8 369.2,122.9 369.7,108.5 			"/>
			<path class="st10" d="M376,86.6c0,0-12.3,7.3-10.4,30.2l11.3-2.5L376,86.6z"/>
		</g>
		<g>
			<path class="st10" d="M400.6,79c12.3,0,26.2,4.3,26.2,4.3l-0.5,77.9l-51.7-4l0.5-68.1c0-1.2,0.7-2.3,1.7-2.8l14.3-6.1
				C391.1,80.1,398.1,79,400.6,79z"/>
			<line class="st11" x1="374.9" y1="114.8" x2="374.9" y2="99.7"/>
		</g>
		<g>
			<g>
				<path class="st4" d="M420.6,109.5l3.3,38.5c0,0,3.6,7.8,10.1-0.3c6.5-8.1,1-39.6,1-39.6L420.6,109.5z"/>
				<g>
					<path class="st10" d="M418.8,117.6c0,0-4.1-32.7,4.8-34.5c9.3-1.7,18.1,20.4,18.1,38.5L418.8,117.6z"/>
					<polyline class="st11" points="421.3,117.8 417.8,116.8 417.3,101.4 					"/>
				</g>
			</g>
			<g>
				<g>
					<path class="st4" d="M398.6,112c0,0-1.8-6.8-8.6-7.5c-6.8-0.7-8.8,4.6-7.5,8.1c1.3,3.5,5.6,9.3,12.4,6.3
						C401.4,116.1,398.6,112,398.6,112z"/>
					<path class="st4" d="M387.6,104.5c0,0-6.6,0.8-11.6,3.1c-0.5,0.2-0.8,0.8-0.7,1.3l0,0c0.2,0.8,0.8,1.3,1.5,1.2l9.3-1.7
						L387.6,104.5z"/>
				</g>
				<g>
					<polygon class="st4" points="425.4,150.1 394.8,119.1 398.6,112 428.3,130.9 					"/>
					<line class="st12" x1="422.1" y1="127.1" x2="428.3" y2="130.9"/>
				</g>
			</g>
		</g>
		<g>
			<g>
				<path class="st13" d="M356.6,119.8l12.9,38.3c0.5,1.3,1.8,2.2,3.1,2l31.3-4.1c1.8-0.2,3-2.2,2.3-3.8L393.1,114
					c-0.5-1.3-1.8-2.2-3.1-2l-31,4.1C357.3,116.3,356.2,118.1,356.6,119.8z"/>
				<polygon class="st13" points="357.1,116.9 355.7,119.1 404.4,156.7 406.2,154.4 				"/>
				<path class="st14" d="M355.2,121.8l12.9,38.3c0.5,1.3,1.8,2.2,3.1,2l31.3-4.1c1.8-0.2,3-2.2,2.3-3.8L391.6,116
					c-0.5-1.3-1.8-2.2-3.1-2l-31,4.1C355.8,118.1,354.7,119.9,355.2,121.8z"/>
			</g>
			<path class="st4" d="M356.6,132.9l3,8c0.3,1,1.3,1.5,2.3,1.5l0,0c3-0.3,5-3.5,4-6.3l-0.8-2.7c-0.7-2.2-2.7-3.5-5-3.5h-1.7
				C357.1,129.9,356.2,131.4,356.6,132.9z"/>
		</g>
	</g>
	<g>
		<path class="st4" d="M389.3,67.6l1.5,12.6c0.5,4.5,3.5,6.5,7.6,5.8l0,0c3.6-0.5,7.3-2.7,6.6-6.6l-1.8-19.7L389.3,67.6z"/>
		<path class="st15" d="M390.8,79c0,0,14.1-5.1,12.9-17.7c-0.3-3.8-14.4,5.6-14.4,5.6L390.8,79z"/>
		<path class="st4" d="M387.6,81.5l6.1-2.8l10.8,0.3l6.3,0.8c0,0,2.3,9.4-13.6,9.9C384.5,90.3,387.6,81.5,387.6,81.5z"/>
		<g>
			<path class="st16" d="M380.9,51.1c0,0-12.3-9.1-6.6-17.6s15.7-1.2,15.7-1.2L380.9,51.1z"/>
			<path class="st16" d="M390.8,30.3c0,0,34.6-5,19.4,21.9l-4-10.9L390.8,30.3z"/>
			<path class="st16" d="M380.2,37.5c0,0-5.8,4.8,1.5,15.4l2-13.6L380.2,37.5z"/>
			<path class="st17" d="M386.8,56.1c0.3,3-1.7,5.6-4.5,6c-2.8,0.3-5.3-1.8-5.8-4.6c-0.3-3,1.7-5.6,4.5-6
				C383.8,51.1,386.5,53.1,386.8,56.1z"/>
			<path class="st4" d="M394.6,71.9L394.6,71.9c-7.3,0.3-13.4-5.3-14.1-11.3l-1-12.8c-0.7-7.6,4.6-14.4,12.1-15.3l0,0
				c7.6-0.8,15.7,4.5,16.6,12.3l0.7,9.9C409.7,63.7,403.2,70.9,394.6,71.9z"/>
			<path class="st16" d="M379.5,44.8c0,0-0.5-3.3,6.1-4.1s15.1-0.3,19.7,5.6l0.2,9.3l5.8-5.8l-3.1-13.8l-17.6-5.8l-10.4,7.3
				L379.5,44.8z"/>
			<g>
				<path class="st4" d="M415.7,54.3c0.3,2.8-1.7,5.5-4.5,5.8c-2.8,0.3-5.3-1.7-5.6-4.6c-0.3-2.8,1.7-5.5,4.5-5.8
					C412.8,49.3,415.3,51.3,415.7,54.3z"/>
			</g>
			<path class="st16" d="M385.5,32.9c0,0-1.5-4,4-6.3c4.8-2,9.6-1.2,20.2,6.1L385.5,32.9z"/>
			<path class="st16" d="M381.8,66.2c0-0.8,0.5-1.5,1.3-1.8c1-0.5,2.8-1,5.3-1.5c3.1-0.5,7.8,0.5,10.3,1.2c1,0.3,2.2-0.2,2.7-1.2
				c1.7-3.3,4.6-10.9,2.3-19.9l3.6,2.7l-0.5,5.6c0,0-2.8,6.1,1.7,8.8c0,0,0.2,12.6-11.4,14.9c-3.3,0.7-7.3,0.2-10.3-1.3
				C384.2,72.2,381.8,69.4,381.8,66.2z"/>
			<path class="st16" d="M405.1,49c0,0-7.6-1.8-4.6-9.3c3-7.5,6.6,2,6.6,2L405.1,49z"/>
		</g>
	</g>
</g>
<rect x="42.1" y="50.5" class="st3" width="181" height="12.5"/>
<rect x="42.1" y="70.5" class="st3" width="113.8" height="12.5"/>
<rect x="42.1" y="89.6" class="st3" width="149.1" height="12.5"/>
<rect x="42.1" y="134.9" class="st3" width="149.1" height="12.5"/>
<rect x="42.1" y="154.6" class="st3" width="113.8" height="12.5"/>
</svg>
