<?xml version="1.0" encoding="utf-8"?>
<!-- Generator: Adobe Illustrator 23.0.3, SVG Export Plug-In . SVG Version: 6.00 Build 0)  -->
<svg version="1.1" id="Layer_1" xmlns="http://www.w3.org/2000/svg" xmlns:xlink="http://www.w3.org/1999/xlink" x="0px" y="0px"
	 viewBox="0 0 437.1 323" style="enable-background:new 0 0 437.1 323;" xml:space="preserve">
<style type="text/css">
	.st0{fill:#EAEAF0;}
	.st1{fill:#B4B4B8;}
	.st2{fill:#E64C3C;}
	.st3{fill:#C03A2B;}
	.st4{fill:#44C5E1;}
	.st5{fill:#FFFFFF;}
	.st6{fill:#95A5A5;}
	.st7{fill:#FABB9B;}
	.st8{fill:#010101;}
	.st9{fill:#C1B6C1;}
	.st10{fill:#313E5E;}
	.st11{fill:#006838;}
	.st12{fill:#F9B58D;}
	.st13{fill:#FABF9D;}
	.st14{fill:#603913;}
	.st15{fill:#00502B;}
</style>
<path id="Shape" class="st0" d="M435.7,98.6v65.3v125.6c0,12.1-9.7,21.9-21.8,22l-274.1,2.8c-13.6,0-24.7-11-24.7-24.7V98.6H435.7z"
	/>
<path id="Rectangle-path" class="st1" d="M281.6,123.3h24.7c3.4,0,6.2,2.8,6.2,6.2v18.5c0,3.4-2.8,6.2-6.2,6.2h-24.7
	c-3.4,0-6.2-2.8-6.2-6.2v-18.5C275.4,126,278.2,123.3,281.6,123.3z"/>
<path class="st1" d="M213.8,184.9h24.7c3.4,0,6.2,2.8,6.2,6.2v18.5c0,3.4-2.8,6.2-6.2,6.2h-24.7c-3.4,0-6.2-2.8-6.2-6.2v-18.5
	C207.6,187.7,210.4,184.9,213.8,184.9z"/>
<path class="st1" d="M213.8,246.6h24.7c3.4,0,6.2,2.8,6.2,6.2v18.5c0,3.4-2.8,6.2-6.2,6.2h-24.7c-3.4,0-6.2-2.8-6.2-6.2v-18.5
	C207.6,249.3,210.4,246.6,213.8,246.6z"/>
<path class="st2" d="M435.7,43.1v55.5H115.1V43.1c0-13.6,11-24.7,24.7-24.7H411C424.6,18.5,435.7,29.5,435.7,43.1z"/>
<path class="st3" d="M367.9,18.5c11,4.3,18.3,14.8,18.5,26.6c-1,16.3-14.5,28.9-30.8,28.9S325.7,61.3,324.7,45
	c0.2-11.8,7.5-22.3,18.5-26.6L367.9,18.5z"/>
<path class="st3" d="M207.6,18.5c11,4.3,18.3,14.8,18.5,26.6c-0.5,16.5-14.3,29.4-30.8,28.9C178.8,74.5,165,61.5,164.4,45
	c0.2-11.8,7.5-22.3,18.5-26.6H207.6z"/>
<circle id="Oval" class="st4" cx="349.4" cy="235.3" r="87.7"/>
<g>
	<path class="st1" d="M146,123.3h24.7c3.4,0,6.2,2.8,6.2,6.2v18.5c0,3.4-2.8,6.2-6.2,6.2H146c-3.4,0-6.2-2.8-6.2-6.2v-18.5
		C139.8,126,142.5,123.3,146,123.3z"/>
	<path class="st1" d="M213.8,123.3h24.7c3.4,0,6.2,2.8,6.2,6.2v18.5c0,3.4-2.8,6.2-6.2,6.2h-24.7c-3.4,0-6.2-2.8-6.2-6.2v-18.5
		C207.6,126,210.4,123.3,213.8,123.3z"/>
	<path class="st1" d="M146,184.9h24.7c3.4,0,6.2,2.8,6.2,6.2v18.5c0,3.4-2.8,6.2-6.2,6.2H146c-3.4,0-6.2-2.8-6.2-6.2v-18.5
		C139.8,187.7,142.5,184.9,146,184.9z"/>
	<path class="st1" d="M146,246.6h24.7c3.4,0,6.2,2.8,6.2,6.2v18.5c0,3.4-2.8,6.2-6.2,6.2H146c-3.4,0-6.2-2.8-6.2-6.2v-18.5
		C139.8,249.3,142.5,246.6,146,246.6z"/>
</g>
<path class="st5" d="M304.2,233.9c1.8-1.9,1.8-5-0.1-6.8s-4.9-1.9-6.8-0.1l-0.8,0.8c3.3-23.6,21.8-42.1,45.3-45.6
	c23.5-3.4,46.5,9.1,56.4,30.7c1.2,2.4,4,3.4,6.4,2.3c2.4-1.1,3.5-3.9,2.4-6.3c-11.9-25.9-39.7-40.7-67.9-36.1
	c-28.2,4.6-49.7,27.5-52.7,55.9l-1.8-1.8c-1.9-1.8-5-1.8-6.8,0.1s-1.9,4.9-0.1,6.8l9.7,9.7c1.9,1.9,5,1.9,6.9,0L304.2,233.9z"/>
<path class="st5" d="M421.1,236.7l-9.7-9.7c-1.9-1.9-5-1.9-6.9,0l-9.7,9.7c-1.8,1.9-1.8,5,0.1,6.8s4.9,1.9,6.8,0.1l0.8-0.8
	c-3.3,23.6-21.8,42.1-45.3,45.6c-23.5,3.4-46.5-9.1-56.4-30.7c-1.2-2.4-4-3.4-6.4-2.3c-2.4,1.1-3.5,3.9-2.4,6.3
	c11.9,25.9,39.7,40.7,67.9,36.1s49.7-27.5,52.7-55.9l1.8,1.8c1.9,1.8,5,1.8,6.8-0.1C422.9,241.7,422.9,238.6,421.1,236.7
	L421.1,236.7z"/>
<path class="st5" d="M349.4,264.5c2.7,0,4.9-2.2,4.9-4.9v-32.1l1.4,1.4c1.9,1.8,5,1.8,6.8-0.1c1.9-1.9,1.9-4.9,0.1-6.8l-9.7-9.7
	c-1.9-1.9-5-1.9-6.9,0l-9.7,9.7c-1.8,1.9-1.8,5,0.1,6.8s4.9,1.9,6.8,0.1l1.4-1.4v32.1C344.6,262.4,346.7,264.5,349.4,264.5
	L349.4,264.5z"/>
<path class="st6" d="M355.5,0L355.5,0c6.8,0,12.3,5.5,12.3,12.3V37c0,6.8-5.5,12.3-12.3,12.3l0,0c-6.8,0-12.3-5.5-12.3-12.3V12.3
	C343.2,5.5,348.7,0,355.5,0z"/>
<path class="st6" d="M195.3,0L195.3,0c6.8,0,12.3,5.5,12.3,12.3V37c0,6.8-5.5,12.3-12.3,12.3l0,0c-6.8,0-12.3-5.5-12.3-12.3V12.3
	C182.9,5.5,188.5,0,195.3,0z"/>
<g>
	<g>
		<g>
			<g>
				<polygon class="st7" points="38.1,274.5 37.8,300.9 50,301.5 51.6,275.3 				"/>
				<g>
					<g>
						<path class="st8" d="M37,298.5l-1.4,14h38.9l0,0c0.3-1.6-0.5-3.2-1.9-4.1l-21.9-10H37z"/>
						<rect x="35.1" y="312.6" class="st9" width="40" height="4.1"/>
					</g>
				</g>
			</g>
			<g>
				<polygon class="st7" points="5.4,274.5 4.9,300.9 17,301.5 18.6,275.3 				"/>
				<g>
					<g>
						<path class="st8" d="M4.1,298.5l-1.4,14h38.9l0,0c0.3-1.6-0.5-3.2-1.9-4.1l-21.9-10H4.1z"/>
						<rect x="1.9" y="312.6" class="st9" width="40" height="4.1"/>
					</g>
				</g>
			</g>
			<g>
				<polygon class="st10" points="61.1,223.7 54.6,287.4 35.7,287.4 38.9,229.9 29.5,188 22.2,286.1 0,286.1 5.4,155.8 45.9,152.3 
									"/>
			</g>
		</g>
		<path class="st11" d="M17,68.8C9.5,74.3,5.7,89.1,4.3,104L0,162.6c27.6,10,53.2-1.9,53.2-1.9V88c0.3-6.8-4.6-21.9-14.3-21.6l0,0
			C39.2,66.4,28.1,61,17,68.8z"/>
		<g>
			<g>
				<polygon class="st12" points="23.2,71.5 37.6,71.5 37.8,40.7 23.5,40.7 				"/>
				<path class="st13" d="M41.1,62.6L41.1,62.6c9.7,0,17.6-7.6,17.6-17.3l0.3-21.6l-35.1-0.3l-0.3,21.6
					C23.5,54.8,31.3,62.6,41.1,62.6z"/>
				<path class="st14" d="M58.6,30.8c-3.5-3.2-9.7-2.7-15.1-3c-2.2,1.1-7.8,0-8.6,1.4c-3.2,5.4-0.3,21.3-7.3,16.8
					C20,41,25.4,47.5,20.8,48c-3,0.3-2.7-4.6-4.9-8.6c-1.1,1.6-1.9,3-1.9,3s-1.6,3.2,0.8-18.4S28.4,5.9,30.5,6.2
					c2.4,0.5,24.6-5.9,31.1,5.1C68.1,22.4,58.9,30.2,58.6,30.8z"/>
			</g>
		</g>
		<polygon class="st12" points="23.2,65.6 35.1,74.3 37.6,65.6 		"/>
		<polygon class="st11" points="35.1,74.3 21.9,78.6 23.2,65.6 		"/>
		<polygon class="st11" points="35.1,74.3 40.8,77.2 37.6,65.6 		"/>
	</g>
	<path class="st7" d="M29.2,145l5.9-38.9l-15.4,5.4c0,0-3,18.9-2.7,35.4C18.4,152.3,29.2,145,29.2,145z"/>
	<g>
		<path class="st15" d="M40,114.8l-24-4.3l5.4-21.1c1.4-5.7,7.3-8.9,13-7.3l0,0c4.6,1.4,7.8,5.9,7.3,10.8L40,114.8z"/>
	</g>
	<path class="st7" d="M58.6,173.7l-37.3-17.3c-4.6-2.2-6.2-8.6-2.7-12.7l6.2-1.1l39.4,23.2L58.6,173.7z"/>
	<g>
		<path class="st7" d="M60.3,164c-4.1,3.2-4.6,8.9-1.4,12.7c3.2,4.1,8.9,4.6,12.7,1.4c3.8-3.2,4.6-8.9,1.4-12.7
			C69.7,161.5,64,161,60.3,164z"/>
	</g>
</g>
</svg>
