<?xml version="1.0" encoding="utf-8"?>
<!-- Generator: Adobe Illustrator 24.2.1, SVG Export Plug-In . SVG Version: 6.00 Build 0)  -->
<svg version="1.1" id="Layer_1" xmlns="http://www.w3.org/2000/svg" xmlns:xlink="http://www.w3.org/1999/xlink" x="0px" y="0px"
	 viewBox="0 0 505 500" style="enable-background:new 0 0 505 500;" xml:space="preserve">
<style type="text/css">
	.st0{fill:#143D50;}
	.st1{fill:#1C4E64;}
	.st2{fill:#19A0FB;}
</style>
<path class="st0" d="M58.3,119.3L-58.9,236.5c-10.9,10.9-28.6,10.9-39.5,0l-117.2-117.2c-10.9-10.9-10.9-28.6,0-39.5L-98.3-37.3
	c10.9-10.9,28.6-10.9,39.5,0L58.3,79.9C69.3,90.8,69.3,108.4,58.3,119.3z"/>
<path class="st1" d="M376.8,313.6L205.2,485.2c-18.9,18.9-49.5,18.9-68.3,0L-34.7,313.6c-18.9-18.9-18.9-49.5,0-68.3L136.9,73.6
	c18.9-18.9,49.5-18.9,68.3,0l171.6,171.6C395.7,264.1,395.7,294.7,376.8,313.6z"/>
<path class="st2" d="M494.1,430.7l-56.9,56.9c-10.9,10.9-28.6,10.9-39.5,0l-56.9-56.9c-10.9-10.9-10.9-28.6,0-39.5l56.9-56.9
	c10.9-10.9,28.6-10.9,39.5,0l56.9,56.9C505,402.1,505,419.8,494.1,430.7z"/>
</svg>
